<svg width="78" height="78" viewBox="0 0 78 78" fill="none" xmlns="http://www.w3.org/2000/svg">
<g filter="url(#filter0_d_1701_265352)">
<rect x="14" y="10" width="50" height="50" rx="5" fill="url(#paint0_radial_1701_265352)" shape-rendering="crispEdges"/>
<g clip-path="url(#clip0_1701_265352)">
<path d="M47.125 44.375H42.125" stroke="white" stroke-width="1.5" stroke-linecap="round" stroke-linejoin="round"/>
<path d="M44.625 46.875V41.875" stroke="white" stroke-width="1.5" stroke-linecap="round" stroke-linejoin="round"/>
<path d="M39.1993 33.5875C39.0743 33.575 38.9243 33.575 38.7868 33.5875C35.8118 33.4875 33.4493 31.05 33.4493 28.05C33.4368 24.9875 35.9243 22.5 38.9868 22.5C42.0493 22.5 44.5368 24.9875 44.5368 28.05C44.5368 31.05 42.1618 33.4875 39.1993 33.5875Z" stroke="white" stroke-width="1.5" stroke-linecap="round" stroke-linejoin="round"/>
<path d="M38.9883 47.2625C36.7133 47.2625 34.4508 46.6875 32.7258 45.5375C29.7008 43.5125 29.7008 40.2125 32.7258 38.2C36.1633 35.9 41.8008 35.9 45.2383 38.2" stroke="white" stroke-width="1.5" stroke-linecap="round" stroke-linejoin="round"/>
</g>
</g>
<defs>
<filter id="filter0_d_1701_265352" x="0" y="0" width="78" height="78" filterUnits="userSpaceOnUse" color-interpolation-filters="sRGB">
<feFlood flood-opacity="0" result="BackgroundImageFix"/>
<feColorMatrix in="SourceAlpha" type="matrix" values="0 0 0 0 0 0 0 0 0 0 0 0 0 0 0 0 0 0 127 0" result="hardAlpha"/>
<feOffset dy="4"/>
<feGaussianBlur stdDeviation="7"/>
<feComposite in2="hardAlpha" operator="out"/>
<feColorMatrix type="matrix" values="0 0 0 0 0.34902 0 0 0 0 0.341176 0 0 0 0 0.584314 0 0 0 0.15 0"/>
<feBlend mode="normal" in2="BackgroundImageFix" result="effect1_dropShadow_1701_265352"/>
<feBlend mode="normal" in="SourceGraphic" in2="effect1_dropShadow_1701_265352" result="shape"/>
</filter>
<radialGradient id="paint0_radial_1701_265352" cx="0" cy="0" r="1" gradientUnits="userSpaceOnUse" gradientTransform="translate(8.4079 5.39473) rotate(46.5131) scale(61.6607 36.9004)">
<stop stop-color="#AEBFF2"/>
<stop offset="1" stop-color="#94A2F2"/>
</radialGradient>
<clipPath id="clip0_1701_265352">
<rect width="30" height="30" fill="white" transform="translate(24 20)"/>
</clipPath>
</defs>
</svg>
