<svg width="40" height="40" viewBox="0 0 40 40" fill="none" xmlns="http://www.w3.org/2000/svg">
<path d="M15.6641 20H24.3307" stroke="#3A37A6" stroke-width="1.5" stroke-linecap="round" stroke-linejoin="round"/>
<path d="M20 24.3333V15.6666" stroke="#3A37A6" stroke-width="1.5" stroke-linecap="round" stroke-linejoin="round"/>
<path d="M16.7474 30.8333H23.2474C28.6641 30.8333 30.8307 28.6666 30.8307 23.25V16.75C30.8307 11.3333 28.6641 9.16663 23.2474 9.16663H16.7474C11.3307 9.16663 9.16406 11.3333 9.16406 16.75V23.25C9.16406 28.6666 11.3307 30.8333 16.7474 30.8333Z" stroke="#3A37A6" stroke-width="1.5" stroke-linecap="round" stroke-linejoin="round"/>
<rect width="40" height="40" rx="8" fill="#E7EEF9"/>
<path d="M15.6641 20H24.3307" stroke="#3A37A6" stroke-width="1.5" stroke-linecap="round" stroke-linejoin="round"/>
<path d="M20 24.3333V15.6666" stroke="#3A37A6" stroke-width="1.5" stroke-linecap="round" stroke-linejoin="round"/>
<path d="M16.7474 30.8333H23.2474C28.6641 30.8333 30.8307 28.6666 30.8307 23.25V16.75C30.8307 11.3333 28.6641 9.16663 23.2474 9.16663H16.7474C11.3307 9.16663 9.16406 11.3333 9.16406 16.75V23.25C9.16406 28.6666 11.3307 30.8333 16.7474 30.8333Z" stroke="#3A37A6" stroke-width="1.5" stroke-linecap="round" stroke-linejoin="round"/>
</svg>
