<svg width="234" height="88" viewBox="0 0 234 88" fill="none" xmlns="http://www.w3.org/2000/svg">
<g filter="url(#filter0_d_1701_265347)">
<rect x="14" y="10" width="206" height="60" rx="5" fill="url(#paint0_radial_1701_265347)" shape-rendering="crispEdges"/>
<path d="M84.2484 49L90.7524 32.2H93.3924L99.8484 49H97.0884L93.2484 38.872C93.2004 38.76 93.1044 38.488 92.9604 38.056C92.8324 37.624 92.6804 37.144 92.5044 36.616C92.3284 36.088 92.1684 35.608 92.0244 35.176C91.8804 34.728 91.7844 34.44 91.7364 34.312L92.2884 34.288C92.1924 34.56 92.0724 34.904 91.9284 35.32C91.8004 35.736 91.6564 36.176 91.4964 36.64C91.3524 37.104 91.2084 37.544 91.0644 37.96C90.9204 38.36 90.8004 38.696 90.7044 38.968L86.8884 49H84.2484ZM87.1284 44.824L88.0884 42.328H95.7204L96.8244 44.824H87.1284ZM102.181 54.28V36.4H104.677V39.28L104.293 39.064C104.389 38.584 104.661 38.128 105.109 37.696C105.557 37.248 106.101 36.888 106.741 36.616C107.397 36.328 108.069 36.184 108.757 36.184C109.893 36.184 110.901 36.464 111.781 37.024C112.661 37.584 113.357 38.352 113.869 39.328C114.381 40.304 114.637 41.424 114.637 42.688C114.637 43.936 114.381 45.056 113.869 46.048C113.373 47.024 112.685 47.8 111.805 48.376C110.925 48.936 109.933 49.216 108.829 49.216C108.093 49.216 107.381 49.072 106.693 48.784C106.005 48.48 105.421 48.096 104.941 47.632C104.461 47.168 104.165 46.688 104.053 46.192L104.677 45.856V54.28H102.181ZM108.421 46.936C109.157 46.936 109.813 46.752 110.389 46.384C110.965 46.016 111.421 45.512 111.757 44.872C112.093 44.232 112.261 43.504 112.261 42.688C112.261 41.872 112.093 41.152 111.757 40.528C111.437 39.888 110.989 39.384 110.413 39.016C109.837 38.648 109.173 38.464 108.421 38.464C107.669 38.464 107.005 38.648 106.429 39.016C105.853 39.368 105.397 39.864 105.061 40.504C104.725 41.144 104.557 41.872 104.557 42.688C104.557 43.504 104.725 44.232 105.061 44.872C105.397 45.512 105.853 46.016 106.429 46.384C107.005 46.752 107.669 46.936 108.421 46.936ZM117.322 54.28V36.4H119.818V39.28L119.434 39.064C119.53 38.584 119.802 38.128 120.25 37.696C120.698 37.248 121.242 36.888 121.882 36.616C122.538 36.328 123.21 36.184 123.898 36.184C125.034 36.184 126.042 36.464 126.922 37.024C127.802 37.584 128.498 38.352 129.01 39.328C129.522 40.304 129.778 41.424 129.778 42.688C129.778 43.936 129.522 45.056 129.01 46.048C128.514 47.024 127.826 47.8 126.946 48.376C126.066 48.936 125.074 49.216 123.97 49.216C123.234 49.216 122.522 49.072 121.834 48.784C121.146 48.48 120.562 48.096 120.082 47.632C119.602 47.168 119.306 46.688 119.194 46.192L119.818 45.856V54.28H117.322ZM123.562 46.936C124.298 46.936 124.954 46.752 125.53 46.384C126.106 46.016 126.562 45.512 126.898 44.872C127.234 44.232 127.402 43.504 127.402 42.688C127.402 41.872 127.234 41.152 126.898 40.528C126.578 39.888 126.13 39.384 125.554 39.016C124.978 38.648 124.314 38.464 123.562 38.464C122.81 38.464 122.146 38.648 121.57 39.016C120.994 39.368 120.538 39.864 120.202 40.504C119.866 41.144 119.698 41.872 119.698 42.688C119.698 43.504 119.866 44.232 120.202 44.872C120.538 45.512 120.994 46.016 121.57 46.384C122.146 46.752 122.81 46.936 123.562 46.936ZM132.51 49V31.24H134.982V49H132.51ZM140.246 54.52L142.79 48.64L142.814 50.608L136.526 36.4H139.406L143.342 45.664C143.422 45.824 143.518 46.072 143.63 46.408C143.742 46.728 143.838 47.048 143.918 47.368L143.294 47.512C143.422 47.176 143.542 46.84 143.654 46.504C143.782 46.168 143.902 45.832 144.014 45.496L147.302 36.4H150.23L145.046 49L142.91 54.52H140.246Z" fill="white"/>
</g>
<defs>
<filter id="filter0_d_1701_265347" x="0" y="0" width="234" height="88" filterUnits="userSpaceOnUse" color-interpolation-filters="sRGB">
<feFlood flood-opacity="0" result="BackgroundImageFix"/>
<feColorMatrix in="SourceAlpha" type="matrix" values="0 0 0 0 0 0 0 0 0 0 0 0 0 0 0 0 0 0 127 0" result="hardAlpha"/>
<feOffset dy="4"/>
<feGaussianBlur stdDeviation="7"/>
<feComposite in2="hardAlpha" operator="out"/>
<feColorMatrix type="matrix" values="0 0 0 0 0.34902 0 0 0 0 0.341176 0 0 0 0 0.584314 0 0 0 0.15 0"/>
<feBlend mode="normal" in2="BackgroundImageFix" result="effect1_dropShadow_1701_265347"/>
<feBlend mode="normal" in="SourceGraphic" in2="effect1_dropShadow_1701_265347" result="shape"/>
</filter>
<radialGradient id="paint0_radial_1701_265347" cx="0" cy="0" r="1" gradientUnits="userSpaceOnUse" gradientTransform="translate(-9.03947 4.47368) rotate(17.07) scale(182.886 61.509)">
<stop stop-color="#AEBFF2"/>
<stop offset="1" stop-color="#94A2F2"/>
</radialGradient>
</defs>
</svg>
