<svg width="100" height="100" viewBox="0 0 100 100" fill="none" xmlns="http://www.w3.org/2000/svg">
<rect width="100" height="100" rx="50" fill="#F5F5F5"/>
<path d="M35.352 59V42.2H37.68L47.952 55.952L47.568 56.168C47.504 55.768 47.448 55.336 47.4 54.872C47.352 54.392 47.304 53.888 47.256 53.36C47.224 52.816 47.192 52.248 47.16 51.656C47.144 51.048 47.128 50.416 47.112 49.76C47.096 49.104 47.088 48.424 47.088 47.72V42.2H49.68V59H47.304L37.2 45.752L37.464 45.416C37.544 46.392 37.608 47.224 37.656 47.912C37.72 48.584 37.768 49.16 37.8 49.64C37.848 50.104 37.88 50.488 37.896 50.792C37.912 51.08 37.92 51.32 37.92 51.512C37.936 51.704 37.944 51.872 37.944 52.016V59H35.352ZM59.4233 59.24C58.1913 59.24 57.0873 58.96 56.1113 58.4C55.1513 57.824 54.3913 57.048 53.8313 56.072C53.2713 55.08 52.9913 53.952 52.9913 52.688C52.9913 51.424 53.2713 50.304 53.8313 49.328C54.3913 48.336 55.1513 47.56 56.1113 47C57.0873 46.424 58.1913 46.136 59.4233 46.136C60.6393 46.136 61.7273 46.424 62.6873 47C63.6633 47.56 64.4313 48.336 64.9913 49.328C65.5513 50.304 65.8313 51.424 65.8313 52.688C65.8313 53.952 65.5513 55.08 64.9913 56.072C64.4313 57.048 63.6633 57.824 62.6873 58.4C61.7273 58.96 60.6393 59.24 59.4233 59.24ZM59.4233 56.984C60.1753 56.984 60.8473 56.8 61.4393 56.432C62.0313 56.048 62.4953 55.536 62.8313 54.896C63.1673 54.24 63.3273 53.504 63.3113 52.688C63.3273 51.856 63.1673 51.12 62.8313 50.48C62.4953 49.824 62.0313 49.312 61.4393 48.944C60.8473 48.576 60.1753 48.392 59.4233 48.392C58.6713 48.392 57.9913 48.584 57.3833 48.968C56.7913 49.336 56.3273 49.848 55.9913 50.504C55.6553 51.144 55.4953 51.872 55.5113 52.688C55.4953 53.504 55.6553 54.24 55.9913 54.896C56.3273 55.536 56.7913 56.048 57.3833 56.432C57.9913 56.8 58.6713 56.984 59.4233 56.984Z" fill="#A0A0A0"/>
</svg>
