<svg width="100" height="100" viewBox="0 0 100 100" fill="none" xmlns="http://www.w3.org/2000/svg">
<rect width="100" height="100" rx="50" fill="url(#paint0_radial_404_43523)"/>
<path d="M36.864 59V50.624L37.032 51.8L30.24 42.2H33.36L38.544 49.64L37.944 49.568L42.624 42.2H45.6L39.096 52.064L39.456 50.432V59H36.864ZM51.5299 59.24C50.2339 59.24 49.0819 58.968 48.0739 58.424C47.0819 57.864 46.2979 57.104 45.7219 56.144C45.1619 55.184 44.8819 54.08 44.8819 52.832C44.8819 51.84 45.0419 50.936 45.3619 50.12C45.6819 49.304 46.1219 48.6 46.6819 48.008C47.2579 47.4 47.9379 46.936 48.7219 46.616C49.5219 46.28 50.3859 46.112 51.3139 46.112C52.1299 46.112 52.8899 46.272 53.5939 46.592C54.2979 46.896 54.9059 47.32 55.4179 47.864C55.9459 48.408 56.3459 49.056 56.6179 49.808C56.9059 50.544 57.0419 51.352 57.0259 52.232L57.0019 53.288H46.7059L46.1539 51.32H54.8659L54.5059 51.728V51.152C54.4579 50.624 54.2819 50.152 53.9779 49.736C53.6739 49.32 53.2899 48.992 52.8259 48.752C52.3619 48.512 51.8579 48.392 51.3139 48.392C50.4499 48.392 49.7219 48.56 49.1299 48.896C48.5379 49.216 48.0899 49.696 47.7859 50.336C47.4819 50.96 47.3299 51.736 47.3299 52.664C47.3299 53.544 47.5139 54.312 47.8819 54.968C48.2499 55.608 48.7699 56.104 49.4419 56.456C50.1139 56.808 50.8899 56.984 51.7699 56.984C52.3939 56.984 52.9699 56.88 53.4979 56.672C54.0419 56.464 54.6259 56.088 55.2499 55.544L56.4979 57.296C56.1139 57.68 55.6419 58.016 55.0819 58.304C54.5379 58.592 53.9539 58.824 53.3299 59C52.7219 59.16 52.1219 59.24 51.5299 59.24ZM63.9124 59.24C62.8564 59.24 61.9044 59.056 61.0564 58.688C60.2084 58.32 59.5044 57.776 58.9444 57.056L60.6244 55.616C61.1044 56.176 61.6244 56.584 62.1844 56.84C62.7604 57.08 63.4084 57.2 64.1284 57.2C64.4164 57.2 64.6804 57.168 64.9204 57.104C65.1764 57.024 65.3924 56.912 65.5684 56.768C65.7604 56.624 65.9044 56.456 66.0004 56.264C66.0964 56.056 66.1444 55.832 66.1444 55.592C66.1444 55.176 65.9924 54.84 65.6884 54.584C65.5284 54.472 65.2724 54.352 64.9204 54.224C64.5844 54.08 64.1444 53.936 63.6004 53.792C62.6724 53.552 61.9124 53.28 61.3204 52.976C60.7284 52.672 60.2724 52.328 59.9524 51.944C59.7124 51.64 59.5364 51.312 59.4244 50.96C59.3124 50.592 59.2564 50.192 59.2564 49.76C59.2564 49.232 59.3684 48.752 59.5924 48.32C59.8324 47.872 60.1524 47.488 60.5524 47.168C60.9684 46.832 61.4484 46.576 61.9924 46.4C62.5524 46.224 63.1444 46.136 63.7684 46.136C64.3604 46.136 64.9444 46.216 65.5204 46.376C66.1124 46.536 66.6564 46.768 67.1524 47.072C67.6484 47.376 68.0644 47.736 68.4004 48.152L66.9844 49.712C66.6804 49.408 66.3444 49.144 65.9764 48.92C65.6244 48.68 65.2644 48.496 64.8964 48.368C64.5284 48.24 64.1924 48.176 63.8884 48.176C63.5524 48.176 63.2484 48.208 62.9764 48.272C62.7044 48.336 62.4724 48.432 62.2804 48.56C62.1044 48.688 61.9684 48.848 61.8724 49.04C61.7764 49.232 61.7284 49.448 61.7284 49.688C61.7444 49.896 61.7924 50.096 61.8724 50.288C61.9684 50.464 62.0964 50.616 62.2564 50.744C62.4324 50.872 62.6964 51.008 63.0484 51.152C63.4004 51.296 63.8484 51.432 64.3924 51.56C65.1924 51.768 65.8484 52 66.3604 52.256C66.8884 52.496 67.3044 52.776 67.6084 53.096C67.9284 53.4 68.1524 53.752 68.2804 54.152C68.4084 54.552 68.4724 55 68.4724 55.496C68.4724 56.216 68.2644 56.864 67.8484 57.44C67.4484 58 66.9044 58.44 66.2164 58.76C65.5284 59.08 64.7604 59.24 63.9124 59.24Z" fill="white"/>
<defs>
<radialGradient id="paint0_radial_404_43523" cx="0" cy="0" r="1" gradientUnits="userSpaceOnUse" gradientTransform="translate(-11.1842 -9.21053) rotate(46.5131) scale(123.321 73.8008)">
<stop stop-color="#AEBFF2"/>
<stop offset="1" stop-color="#94A2F2"/>
</radialGradient>
</defs>
</svg>
