<svg width="697" height="142" viewBox="0 0 697 142" fill="none" xmlns="http://www.w3.org/2000/svg">
<g opacity="0.49">
<path d="M697 74.0938H680.094V79.5942H697V74.0938Z" fill="#A0A0A0"/>
</g>
<g opacity="0.4">
<path d="M544.07 74.0938H527.164V93.1699H544.07V74.0938Z" fill="#A0A0A0"/>
</g>
<g opacity="0.4">
<path d="M669.726 74.0938H652.82V93.1699H669.726V74.0938Z" fill="#A0A0A0"/>
</g>
<g opacity="0.43">
<path d="M518.863 74.0938H501.957V87.2013H518.863V74.0938Z" fill="#A0A0A0"/>
</g>
<g opacity="0.31">
<path d="M493.939 74.0938H477.033V102.181H493.939V74.0938Z" fill="#A0A0A0"/>
</g>
<g opacity="0.6">
<path d="M468.738 74.0938H451.832V128.981H468.738V74.0938Z" fill="#A0A0A0"/>
</g>
<g opacity="0.6">
<path d="M443.512 74.0938H426.605V109.32H443.512V74.0938Z" fill="#A0A0A0"/>
</g>
<g opacity="0.6">
<path d="M643.326 74.0938H626.42V109.32H643.326V74.0938Z" fill="#A0A0A0"/>
</g>
<g opacity="0.39">
<path d="M418.588 74.0938H401.682V115.523H418.588V74.0938Z" fill="#A0A0A0"/>
</g>
<g opacity="0.39">
<path d="M618.396 74.0938H601.49V115.523H618.396V74.0938Z" fill="#A0A0A0"/>
</g>
<g opacity="0.59">
<path d="M393.392 74.0938H376.486V102.181H393.392V74.0938Z" fill="#A0A0A0"/>
</g>
<g opacity="0.59">
<path d="M593.207 74.0938H576.301V102.181H593.207V74.0938Z" fill="#A0A0A0"/>
</g>
<g opacity="0.39">
<path d="M368.459 74.0938H351.553V92.4677H368.459V74.0938Z" fill="#A0A0A0"/>
</g>
<g opacity="0.39">
<path d="M568.265 74.0938H551.359V92.4677H568.265V74.0938Z" fill="#A0A0A0"/>
</g>
<g opacity="0.38">
<path d="M343.242 74.0938H326.336V120.087H343.242V74.0938Z" fill="#A0A0A0"/>
</g>
<g opacity="0.36">
<path d="M318.021 74.0938H301.115V109.671H318.021V74.0938Z" fill="#A0A0A0"/>
</g>
<g opacity="0.39">
<path d="M293.086 74.0938H276.18V103.352H293.086V74.0938Z" fill="#A0A0A0"/>
</g>
<g opacity="0.33">
<path d="M267.89 74.0938H250.984V86.031H267.89V74.0938Z" fill="#A0A0A0"/>
</g>
<g opacity="0.37">
<path d="M242.691 74.0938H225.785V117.044H242.691V74.0938Z" fill="#A0A0A0"/>
</g>
<g opacity="0.42">
<path d="M217.744 74.0938H200.838V124.768H217.744V74.0938Z" fill="#A0A0A0"/>
</g>
<g opacity="0.5">
<path d="M192.543 74.0938H175.637V104.522H192.543V74.0938Z" fill="#A0A0A0"/>
</g>
<g opacity="0.54">
<path d="M167.594 74.0938H150.688V107.565H167.594V74.0938Z" fill="#A0A0A0"/>
</g>
<g opacity="0.54">
<path d="M142.39 74.0938H125.484V115.874H142.39V74.0938Z" fill="#A0A0A0"/>
</g>
<g opacity="0.34">
<path d="M117.199 74.0938H100.293V103.352H117.199V74.0938Z" fill="#A0A0A0"/>
</g>
<g opacity="0.55">
<path d="M92.2596 74.0938H75.3535V123.598H92.2596V74.0938Z" fill="#A0A0A0"/>
</g>
<g opacity="0.42">
<path d="M67.0506 74.0938H50.1445V109.788H67.0506V74.0938Z" fill="#A0A0A0"/>
</g>
<g opacity="0.54">
<path d="M42.117 74.0938H25.2109V90.8292H42.117V74.0938Z" fill="#A0A0A0"/>
</g>
<g opacity="0.43">
<path d="M16.9061 74.0938H0V84.7436H16.9061V74.0938Z" fill="#A0A0A0"/>
</g>
<g opacity="0.74">
<path d="M697 86.2734H680.094V91.7739H697V86.2734Z" fill="#A0A0A0"/>
</g>
<g opacity="0.7">
<path d="M544.07 98.3086H527.164V105.213H544.07V98.3086Z" fill="#A0A0A0"/>
</g>
<g opacity="0.7">
<path d="M669.726 98.3086H652.82V105.213H669.726V98.3086Z" fill="#A0A0A0"/>
</g>
<g opacity="0.73">
<path d="M518.863 92.4648H501.957V99.3697H518.863V92.4648Z" fill="#A0A0A0"/>
</g>
<g opacity="0.73">
<path d="M493.939 107.312H477.033V114.217H493.939V107.312Z" fill="#A0A0A0"/>
</g>
<g opacity="0.73">
<path d="M468.738 134.098H451.832V141.003H468.738V134.098Z" fill="#A0A0A0"/>
</g>
<g opacity="0.72">
<path d="M443.512 114.465H426.605V121.37H443.512V114.465Z" fill="#A0A0A0"/>
</g>
<g opacity="0.72">
<path d="M643.326 114.465H626.42V121.37H643.326V114.465Z" fill="#A0A0A0"/>
</g>
<g opacity="0.88">
<path d="M418.588 120.672H401.682V127.577H418.588V120.672Z" fill="#A0A0A0"/>
</g>
<g opacity="0.88">
<path d="M618.396 120.672H601.49V127.577H618.396V120.672Z" fill="#A0A0A0"/>
</g>
<g opacity="0.7">
<path d="M393.392 107.312H376.486V114.217H393.392V107.312Z" fill="#A0A0A0"/>
</g>
<g opacity="0.7">
<path d="M593.207 107.312H576.301V114.217H593.207V107.312Z" fill="#A0A0A0"/>
</g>
<g opacity="0.98">
<path d="M368.459 97.6953H351.553V104.6H368.459V97.6953Z" fill="#A0A0A0"/>
</g>
<g opacity="0.98">
<path d="M568.265 97.6953H551.359V104.6H568.265V97.6953Z" fill="#A0A0A0"/>
</g>
<g opacity="0.96">
<path d="M343.242 125.23H326.336V132.135H343.242V125.23Z" fill="#A0A0A0"/>
</g>
<g opacity="0.77">
<path d="M318.027 114.801H301.121V121.706H318.027V114.801Z" fill="#A0A0A0"/>
</g>
<g opacity="0.9">
<path d="M293.086 108.484H276.18V115.389H293.086V108.484Z" fill="#A0A0A0"/>
</g>
<g opacity="0.77">
<path d="M267.89 91.1641H250.984V98.0689H267.89V91.1641Z" fill="#A0A0A0"/>
</g>
<g opacity="0.86">
<path d="M242.691 122.297H225.785V129.202H242.691V122.297Z" fill="#A0A0A0"/>
</g>
<g opacity="0.96">
<path d="M217.744 130.031H200.838V136.936H217.744V130.031Z" fill="#A0A0A0"/>
</g>
<g opacity="0.82">
<path d="M192.543 109.672H175.637V116.577H192.543V109.672Z" fill="#A0A0A0"/>
</g>
<path d="M167.615 112.703H150.709V119.608H167.615V112.703Z" fill="#A0A0A0"/>
<g opacity="0.83">
<path d="M142.39 121H125.484V127.905H142.39V121Z" fill="#A0A0A0"/>
</g>
<g opacity="0.82">
<path d="M117.199 108.484H100.293V115.389H117.199V108.484Z" fill="#A0A0A0"/>
</g>
<g opacity="0.72">
<path d="M92.2596 128.852H75.3535V135.756H92.2596V128.852Z" fill="#A0A0A0"/>
</g>
<g opacity="0.78">
<path d="M67.0506 115.043H50.1445V121.948H67.0506V115.043Z" fill="#A0A0A0"/>
</g>
<g opacity="0.87">
<path d="M42.117 95.957H25.2109V102.862H42.117V95.957Z" fill="#A0A0A0"/>
</g>
<g opacity="0.82">
<path d="M16.9061 90.0195H0V96.9244H16.9061V90.0195Z" fill="#A0A0A0"/>
</g>
<g opacity="0.49">
<path d="M697 61.5625H680.094V67.063H697V61.5625Z" fill="#A0A0A0"/>
</g>
<g opacity="0.4">
<path d="M544.07 48.1133H527.164V67.1894H544.07V48.1133Z" fill="#A0A0A0"/>
</g>
<g opacity="0.4">
<path d="M669.726 48.1133H652.82V67.1894H669.726V48.1133Z" fill="#A0A0A0"/>
</g>
<g opacity="0.43">
<path d="M518.863 53.957H501.957V67.0645H518.863V53.957Z" fill="#A0A0A0"/>
</g>
<g opacity="0.31">
<path d="M493.939 39.0859H477.033V67.1735H493.939V39.0859Z" fill="#A0A0A0"/>
</g>
<g opacity="0.6">
<path d="M468.738 12.168H451.832V67.0557H468.738V12.168Z" fill="#A0A0A0"/>
</g>
<g opacity="0.6">
<path d="M443.512 31.9453H426.605V67.1717H443.512V31.9453Z" fill="#A0A0A0"/>
</g>
<g opacity="0.6">
<path d="M643.326 31.9453H626.42V67.1717H643.326V31.9453Z" fill="#A0A0A0"/>
</g>
<g opacity="0.39">
<path d="M418.588 25.75H401.682V67.1791H418.588V25.75Z" fill="#A0A0A0"/>
</g>
<g opacity="0.39">
<path d="M618.396 25.75H601.49V67.1791H618.396V25.75Z" fill="#A0A0A0"/>
</g>
<g opacity="0.59">
<path d="M393.392 39.0859H376.486V67.1735H393.392V39.0859Z" fill="#A0A0A0"/>
</g>
<g opacity="0.59">
<path d="M593.207 39.0859H576.301V67.1735H593.207V39.0859Z" fill="#A0A0A0"/>
</g>
<g opacity="0.39">
<path d="M368.459 48.6992H351.553V67.0731H368.459V48.6992Z" fill="#A0A0A0"/>
</g>
<g opacity="0.39">
<path d="M568.265 48.6992H551.359V67.0731H568.265V48.6992Z" fill="#A0A0A0"/>
</g>
<g opacity="0.38">
<path d="M343.242 21.1953H326.336V67.1886H343.242V21.1953Z" fill="#A0A0A0"/>
</g>
<g opacity="0.36">
<path d="M318.027 31.6055H301.121V67.183H318.027V31.6055Z" fill="#A0A0A0"/>
</g>
<g opacity="0.39">
<path d="M293.086 37.8945H276.18V67.1524H293.086V37.8945Z" fill="#A0A0A0"/>
</g>
<g opacity="0.33">
<path d="M267.89 55.1328H250.984V67.07H267.89V55.1328Z" fill="#A0A0A0"/>
</g>
<g opacity="0.37">
<path d="M242.691 24.0938H225.785V67.0443H242.691V24.0938Z" fill="#A0A0A0"/>
</g>
<g opacity="0.42">
<path d="M217.744 16.4062H200.838V67.0808H217.744V16.4062Z" fill="#A0A0A0"/>
</g>
<g opacity="0.5">
<path d="M192.543 36.6367H175.637V67.0649H192.543V36.6367Z" fill="#A0A0A0"/>
</g>
<g opacity="0.54">
<path d="M167.594 33.7188H150.688V67.1897H167.594V33.7188Z" fill="#A0A0A0"/>
</g>
<g opacity="0.54">
<path d="M142.39 25.2734H125.484V67.0536H142.39V25.2734Z" fill="#A0A0A0"/>
</g>
<g opacity="0.34">
<path d="M117.199 37.8945H100.293V67.1524H117.199V37.8945Z" fill="#A0A0A0"/>
</g>
<g opacity="0.55">
<path d="M92.2596 17.5625H75.3535V67.0668H92.2596V17.5625Z" fill="#A0A0A0"/>
</g>
<g opacity="0.42">
<path d="M67.0506 31.3789H50.1445V67.0735H67.0506V31.3789Z" fill="#A0A0A0"/>
</g>
<g opacity="0.54">
<path d="M42.117 50.4297H25.2109V67.1652H42.117V50.4297Z" fill="#A0A0A0"/>
</g>
<g opacity="0.43">
<path d="M16.9061 56.4219H0V67.0717H16.9061V56.4219Z" fill="#A0A0A0"/>
</g>
<g opacity="0.74">
<path d="M697 49.3984H680.094V54.8989H697V49.3984Z" fill="#A0A0A0"/>
</g>
<g opacity="0.7">
<path d="M544.07 35.9375H527.164V42.8424H544.07V35.9375Z" fill="#A0A0A0"/>
</g>
<g opacity="0.7">
<path d="M669.726 35.9375H652.82V42.8424H669.726V35.9375Z" fill="#A0A0A0"/>
</g>
<g opacity="0.73">
<path d="M518.863 41.7539H501.957V48.6588H518.863V41.7539Z" fill="#A0A0A0"/>
</g>
<g opacity="0.73">
<path d="M493.939 26.918H477.033V33.8228H493.939V26.918Z" fill="#A0A0A0"/>
</g>
<g opacity="0.73">
<path d="M468.738 0H451.832V6.90485H468.738V0Z" fill="#A0A0A0"/>
</g>
<g opacity="0.72">
<path d="M443.512 19.7656H426.605V26.6705H443.512V19.7656Z" fill="#A0A0A0"/>
</g>
<g opacity="0.72">
<path d="M643.326 19.7656H626.42V26.6705H643.326V19.7656Z" fill="#A0A0A0"/>
</g>
<g opacity="0.88">
<path d="M418.588 13.5898H401.682V20.4947H418.588V13.5898Z" fill="#A0A0A0"/>
</g>
<g opacity="0.88">
<path d="M618.396 13.5898H601.49V20.4947H618.396V13.5898Z" fill="#A0A0A0"/>
</g>
<g opacity="0.7">
<path d="M393.392 26.918H376.486V33.8228H393.392V26.918Z" fill="#A0A0A0"/>
</g>
<g opacity="0.7">
<path d="M593.207 26.918H576.301V33.8228H593.207V26.918Z" fill="#A0A0A0"/>
</g>
<g opacity="0.98">
<path d="M368.459 36.5391H351.553V43.4439H368.459V36.5391Z" fill="#A0A0A0"/>
</g>
<g opacity="0.98">
<path d="M568.265 36.5391H551.359V43.4439H568.265V36.5391Z" fill="#A0A0A0"/>
</g>
<g opacity="0.96">
<path d="M343.242 9.02344H326.336V15.9283H343.242V9.02344Z" fill="#A0A0A0"/>
</g>
<g opacity="0.77">
<path d="M318.027 19.4414H301.121V26.3463H318.027V19.4414Z" fill="#A0A0A0"/>
</g>
<g opacity="0.9">
<path d="M293.086 25.75H276.18V32.6549H293.086V25.75Z" fill="#A0A0A0"/>
</g>
<g opacity="0.77">
<path d="M267.89 42.9648H250.984V49.8697H267.89V42.9648Z" fill="#A0A0A0"/>
</g>
<g opacity="0.86">
<path d="M242.691 11.9062H225.785V18.8111H242.691V11.9062Z" fill="#A0A0A0"/>
</g>
<g opacity="0.96">
<path d="M217.744 4.21875H200.838V11.1236H217.744V4.21875Z" fill="#A0A0A0"/>
</g>
<g opacity="0.82">
<path d="M192.543 24.4766H175.637V31.3814H192.543V24.4766Z" fill="#A0A0A0"/>
</g>
<path d="M167.615 21.5469H150.709V28.4517H167.615V21.5469Z" fill="#A0A0A0"/>
<g opacity="0.83">
<path d="M142.39 13.0977H125.484V20.0025H142.39V13.0977Z" fill="#A0A0A0"/>
</g>
<g opacity="0.82">
<path d="M117.199 25.75H100.293V32.6549H117.199V25.75Z" fill="#A0A0A0"/>
</g>
<g opacity="0.72">
<path d="M92.2596 5.38672H75.3535V12.2916H92.2596V5.38672Z" fill="#A0A0A0"/>
</g>
<g opacity="0.78">
<path d="M67.0506 19.1914H50.1445V26.0963H67.0506V19.1914Z" fill="#A0A0A0"/>
</g>
<g opacity="0.87">
<path d="M42.117 38.2812H25.2109V45.1861H42.117V38.2812Z" fill="#A0A0A0"/>
</g>
<g opacity="0.82">
<path d="M16.9061 44.2266H0V51.1314H16.9061V44.2266Z" fill="#A0A0A0"/>
</g>
<g opacity="0.36">
<path d="M317.382 72.9883H300.51V108.603H317.382V72.9883Z" fill="#3A37A6"/>
</g>
<g opacity="0.39">
<path d="M292.497 72.9883H275.625V102.277H292.497V72.9883Z" fill="#3A37A6"/>
</g>
<g opacity="0.33">
<path d="M267.361 72.9883H250.488V84.938H267.361V72.9883Z" fill="#3A37A6"/>
</g>
<g opacity="0.37">
<path d="M242.208 72.9883H225.336V115.984H242.208V72.9883Z" fill="#3A37A6"/>
</g>
<g opacity="0.42">
<path d="M217.316 72.9883H200.443V123.716H217.316V72.9883Z" fill="#3A37A6"/>
</g>
<g opacity="0.5">
<path d="M192.157 72.9883H175.285V103.448H192.157V72.9883Z" fill="#3A37A6"/>
</g>
<g opacity="0.54">
<path d="M167.275 72.9883H150.402V106.494H167.275V72.9883Z" fill="#3A37A6"/>
</g>
<g opacity="0.54">
<path d="M142.097 72.9883H125.225V114.812H142.097V72.9883Z" fill="#3A37A6"/>
</g>
<g opacity="0.34">
<path d="M116.962 72.9883H100.09V102.277H116.962V72.9883Z" fill="#3A37A6"/>
</g>
<g opacity="0.55">
<path d="M92.0891 72.9883H75.2168V122.544H92.0891V72.9883Z" fill="#3A37A6"/>
</g>
<g opacity="0.42">
<path d="M66.9036 72.9883H50.0312V108.72H66.9036V72.9883Z" fill="#3A37A6"/>
</g>
<g opacity="0.54">
<path d="M42.0305 72.9883H25.1582V89.7413H42.0305V72.9883Z" fill="#3A37A6"/>
</g>
<g opacity="0.43">
<path d="M16.8723 72.9883H0V83.6493H16.8723V72.9883Z" fill="#3A37A6"/>
</g>
<g opacity="0.77">
<path d="M317.382 113.727H300.51V120.639H317.382V113.727Z" fill="#3A37A6"/>
</g>
<g opacity="0.9">
<path d="M292.497 107.441H275.625V114.353H292.497V107.441Z" fill="#3A37A6"/>
</g>
<g opacity="0.77">
<path d="M267.361 90.0938H250.488V97.0058H267.361V90.0938Z" fill="#3A37A6"/>
</g>
<g opacity="0.86">
<path d="M242.208 121.262H225.336V128.174H242.208V121.262Z" fill="#3A37A6"/>
</g>
<g opacity="0.96">
<path d="M217.316 128.957H200.443V135.869H217.316V128.957Z" fill="#3A37A6"/>
</g>
<g opacity="0.82">
<path d="M192.157 108.582H175.285V115.494H192.157V108.582Z" fill="#3A37A6"/>
</g>
<path d="M167.282 111.645H150.41V118.557H167.282V111.645Z" fill="#3A37A6"/>
<g opacity="0.83">
<path d="M142.097 119.98H125.225V126.893H142.097V119.98Z" fill="#3A37A6"/>
</g>
<g opacity="0.82">
<path d="M116.962 107.441H100.09V114.353H116.962V107.441Z" fill="#3A37A6"/>
</g>
<g opacity="0.72">
<path d="M92.0891 127.805H75.2168V134.717H92.0891V127.805Z" fill="#3A37A6"/>
</g>
<g opacity="0.78">
<path d="M66.9036 113.984H50.0312V120.896H66.9036V113.984Z" fill="#3A37A6"/>
</g>
<g opacity="0.87">
<path d="M42.0305 94.9219H25.1582V101.834H42.0305V94.9219Z" fill="#3A37A6"/>
</g>
<g opacity="0.82">
<path d="M16.8723 88.9062H0V95.8183H16.8723V88.9062Z" fill="#3A37A6"/>
</g>
<g opacity="0.36">
<path d="M317.382 30.4805H300.51V66.0953H317.382V30.4805Z" fill="#3A37A6"/>
</g>
<g opacity="0.39">
<path d="M292.497 36.7734H275.625V66.0619H292.497V36.7734Z" fill="#3A37A6"/>
</g>
<g opacity="0.33">
<path d="M267.361 53.9844H250.488V65.9341H267.361V53.9844Z" fill="#3A37A6"/>
</g>
<g opacity="0.37">
<path d="M242.208 22.9766H225.336V65.9721H242.208V22.9766Z" fill="#3A37A6"/>
</g>
<g opacity="0.42">
<path d="M217.316 15.2266H200.443V65.9543H217.316V15.2266Z" fill="#3A37A6"/>
</g>
<g opacity="0.5">
<path d="M192.157 35.5H175.285V65.96H192.157V35.5Z" fill="#3A37A6"/>
</g>
<g opacity="0.54">
<path d="M167.275 32.5742H150.402V66.0803H167.275V32.5742Z" fill="#3A37A6"/>
</g>
<g opacity="0.54">
<path d="M142.097 24.1211H125.225V65.9451H142.097V24.1211Z" fill="#3A37A6"/>
</g>
<g opacity="0.34">
<path d="M116.962 36.7734H100.09V66.0619H116.962V36.7734Z" fill="#3A37A6"/>
</g>
<g opacity="0.55">
<path d="M92.0891 16.4062H75.2168V65.9624H92.0891V16.4062Z" fill="#3A37A6"/>
</g>
<g opacity="0.42">
<path d="M66.9036 30.2383H50.0312V65.9703H66.9036V30.2383Z" fill="#3A37A6"/>
</g>
<g opacity="0.54">
<path d="M42.0305 49.3594H25.1582V66.1124H42.0305V49.3594Z" fill="#3A37A6"/>
</g>
<g opacity="0.43">
<path d="M16.8723 55.2734H0V65.9345H16.8723V55.2734Z" fill="#3A37A6"/>
</g>
<g opacity="0.77">
<path d="M317.382 18.3047H300.51V25.2168H317.382V18.3047Z" fill="#3A37A6"/>
</g>
<g opacity="0.9">
<path d="M292.497 24.6016H275.625V31.5137H292.497V24.6016Z" fill="#3A37A6"/>
</g>
<g opacity="0.77">
<path d="M267.361 41.8125H250.488V48.7246H267.361V41.8125Z" fill="#3A37A6"/>
</g>
<g opacity="0.86">
<path d="M242.208 10.7852H225.336V17.6972H242.208V10.7852Z" fill="#3A37A6"/>
</g>
<g opacity="0.96">
<path d="M217.316 3.05078H200.443V9.96287H217.316V3.05078Z" fill="#3A37A6"/>
</g>
<path d="M167.282 20.3828H150.41V27.2949H167.282V20.3828Z" fill="#3A37A6"/>
<g opacity="0.83">
<path d="M142.097 11.9492H125.225V18.8613H142.097V11.9492Z" fill="#3A37A6"/>
</g>
<g opacity="0.82">
<path d="M116.962 24.6016H100.09V31.5137H116.962V24.6016Z" fill="#3A37A6"/>
</g>
<g opacity="0.72">
<path d="M92.0891 4.22656H75.2168V11.1386H92.0891V4.22656Z" fill="#3A37A6"/>
</g>
<g opacity="0.78">
<path d="M66.9036 18.0586H50.0312V24.9707H66.9036V18.0586Z" fill="#3A37A6"/>
</g>
<g opacity="0.87">
<path d="M42.0305 37.168H25.1582V44.0801H42.0305V37.168Z" fill="#3A37A6"/>
</g>
<g opacity="0.82">
<path d="M16.8723 43.1406H0V50.0527H16.8723V43.1406Z" fill="#3A37A6"/>
</g>
<g filter="url(#filter0_b_3315_254584)">
<rect x="285" y="7" width="128" height="128" rx="64" fill="url(#paint0_linear_3315_254584)"/>
</g>
<path d="M336.189 70.9972V64.4605C336.189 56.0247 342.152 52.6238 349.439 56.8197L355.093 60.088L360.746 63.3563C368.034 67.5522 368.034 74.4421 360.746 78.638L355.093 81.9063L349.439 85.1747C342.152 89.3705 336.189 85.9255 336.189 77.5338V70.9972Z" fill="white" stroke="white" stroke-width="1.5" stroke-miterlimit="10" stroke-linecap="round" stroke-linejoin="round"/>
<path d="M349.001 115.165C373.393 115.165 393.167 95.3913 393.167 70.9987C393.167 46.6061 373.393 26.832 349.001 26.832C324.608 26.832 304.834 46.6061 304.834 70.9987C304.834 95.3913 324.608 115.165 349.001 115.165Z" stroke="white" stroke-width="1.5" stroke-linecap="round" stroke-linejoin="round"/>
<defs>
<filter id="filter0_b_3315_254584" x="260" y="-18" width="178" height="178" filterUnits="userSpaceOnUse" color-interpolation-filters="sRGB">
<feFlood flood-opacity="0" result="BackgroundImageFix"/>
<feGaussianBlur in="BackgroundImageFix" stdDeviation="12.5"/>
<feComposite in2="SourceAlpha" operator="in" result="effect1_backgroundBlur_3315_254584"/>
<feBlend mode="normal" in="SourceGraphic" in2="effect1_backgroundBlur_3315_254584" result="shape"/>
</filter>
<linearGradient id="paint0_linear_3315_254584" x1="285" y1="7" x2="437.129" y2="50.239" gradientUnits="userSpaceOnUse">
<stop offset="0.0303834" stop-color="white" stop-opacity="0.4"/>
<stop offset="0.960276" stop-color="white" stop-opacity="0"/>
</linearGradient>
</defs>
</svg>
