<svg width="40" height="40" viewBox="0 0 40 40" fill="none" xmlns="http://www.w3.org/2000/svg">
<rect width="40" height="40" fill="#F3F2F3"/>
<g clip-path="url(#clip0_221_7147)">
<rect width="1920" height="1080" transform="translate(-479 -389)" fill="white"/>
<g filter="url(#filter0_d_221_7147)">
<mask id="path-1-inside-1_221_7147" fill="white">
<path d="M-359 -20L137 -20L137 661L-349 661C-354.523 661 -359 656.523 -359 651L-359 -20Z"/>
</mask>
<path d="M-359 -20L137 -20L137 661L-349 661C-354.523 661 -359 656.523 -359 651L-359 -20Z" fill="white"/>
<path d="M-359 -20L137 -20L-359 -20ZM137 662L-349 662C-355.075 662 -360 657.075 -360 651H-358C-358 655.971 -353.971 660 -349 660L137 660V662ZM-349 662C-355.075 662 -360 657.075 -360 651L-360 -20H-358L-358 651C-358 655.971 -353.971 660 -349 660V662ZM137 -20L137 661L137 -20Z" fill="#EBEBEB" mask="url(#path-1-inside-1_221_7147)"/>
</g>
<g clip-path="url(#clip1_221_7147)">
<path d="M-358.5 -20.5L135.5 -20.5L135.5 3003.5H-358.5L-358.5 -20.5Z" fill="white" stroke="#EBEBEB"/>
<rect width="40" height="40" rx="8" fill="#E7EEF9"/>
<path d="M12 19.5789L28 12L20.4211 28L18.7368 21.2632L12 19.5789Z" stroke="#3A37A6" stroke-linecap="round" stroke-linejoin="round"/>
</g>
</g>
<rect x="-121840" y="-2156" width="187385" height="9838" stroke="#262626" stroke-width="20"/>
<defs>
<filter id="filter0_d_221_7147" x="-376" y="-30" width="530" height="715" filterUnits="userSpaceOnUse" color-interpolation-filters="sRGB">
<feFlood flood-opacity="0" result="BackgroundImageFix"/>
<feColorMatrix in="SourceAlpha" type="matrix" values="0 0 0 0 0 0 0 0 0 0 0 0 0 0 0 0 0 0 127 0" result="hardAlpha"/>
<feMorphology radius="3" operator="dilate" in="SourceAlpha" result="effect1_dropShadow_221_7147"/>
<feOffset dy="7"/>
<feGaussianBlur stdDeviation="7"/>
<feComposite in2="hardAlpha" operator="out"/>
<feColorMatrix type="matrix" values="0 0 0 0 0 0 0 0 0 0 0 0 0 0 0 0 0 0 0.03 0"/>
<feBlend mode="normal" in2="BackgroundImageFix" result="effect1_dropShadow_221_7147"/>
<feBlend mode="normal" in="SourceGraphic" in2="effect1_dropShadow_221_7147" result="shape"/>
</filter>
<clipPath id="clip0_221_7147">
<rect width="1920" height="1080" fill="white" transform="translate(-479 -389)"/>
</clipPath>
<clipPath id="clip1_221_7147">
<path d="M-359 -20H136V661H-349C-354.523 661 -359 656.523 -359 651V-20Z" fill="white"/>
</clipPath>
</defs>
</svg>
