<svg width="697" height="142" viewBox="0 0 697 142" fill="none" xmlns="http://www.w3.org/2000/svg">
<g opacity="0.49">
<path d="M697 74.0938H680.094V79.5942H697V74.0938Z" fill="#A0A0A0"/>
</g>
<g opacity="0.4">
<path d="M544.07 74.0938H527.164V93.1699H544.07V74.0938Z" fill="#A0A0A0"/>
</g>
<g opacity="0.4">
<path d="M669.725 74.0938H652.819V93.1699H669.725V74.0938Z" fill="#A0A0A0"/>
</g>
<g opacity="0.43">
<path d="M518.864 74.0938H501.958V87.2013H518.864V74.0938Z" fill="#A0A0A0"/>
</g>
<g opacity="0.31">
<path d="M493.94 74.0938H477.034V102.181H493.94V74.0938Z" fill="#A0A0A0"/>
</g>
<g opacity="0.6">
<path d="M468.739 74.0938H451.833V128.981H468.739V74.0938Z" fill="#A0A0A0"/>
</g>
<g opacity="0.6">
<path d="M443.511 74.0938H426.604V109.32H443.511V74.0938Z" fill="#A0A0A0"/>
</g>
<g opacity="0.6">
<path d="M643.325 74.0938H626.419V109.32H643.325V74.0938Z" fill="#A0A0A0"/>
</g>
<g opacity="0.39">
<path d="M418.587 74.0938H401.681V115.523H418.587V74.0938Z" fill="#A0A0A0"/>
</g>
<g opacity="0.39">
<path d="M618.395 74.0938H601.489V115.523H618.395V74.0938Z" fill="#A0A0A0"/>
</g>
<g opacity="0.59">
<path d="M393.392 74.0938H376.486V102.181H393.392V74.0938Z" fill="#A0A0A0"/>
</g>
<g opacity="0.59">
<path d="M593.206 74.0938H576.3V102.181H593.206V74.0938Z" fill="#A0A0A0"/>
</g>
<g opacity="0.39">
<path d="M368.458 74.0938H351.552V92.4677H368.458V74.0938Z" fill="#A0A0A0"/>
</g>
<g opacity="0.39">
<path d="M568.264 74.0938H551.358V92.4677H568.264V74.0938Z" fill="#A0A0A0"/>
</g>
<g opacity="0.38">
<path d="M343.242 74.0938H326.336V120.087H343.242V74.0938Z" fill="#A0A0A0"/>
</g>
<g opacity="0.36">
<path d="M318.021 74.0938H301.115V109.671H318.021V74.0938Z" fill="#A0A0A0"/>
</g>
<g opacity="0.39">
<path d="M293.086 74.0938H276.18V103.352H293.086V74.0938Z" fill="#A0A0A0"/>
</g>
<g opacity="0.33">
<path d="M267.89 74.0938H250.984V86.031H267.89V74.0938Z" fill="#A0A0A0"/>
</g>
<g opacity="0.37">
<path d="M242.692 74.0938H225.786V117.044H242.692V74.0938Z" fill="#A0A0A0"/>
</g>
<g opacity="0.42">
<path d="M217.745 74.0938H200.839V124.768H217.745V74.0938Z" fill="#A0A0A0"/>
</g>
<g opacity="0.5">
<path d="M192.544 74.0938H175.638V104.522H192.544V74.0938Z" fill="#A0A0A0"/>
</g>
<g opacity="0.54">
<path d="M167.595 74.0938H150.688V107.565H167.595V74.0938Z" fill="#A0A0A0"/>
</g>
<g opacity="0.54">
<path d="M142.389 74.0938H125.483V115.874H142.389V74.0938Z" fill="#A0A0A0"/>
</g>
<g opacity="0.34">
<path d="M117.198 74.0938H100.292V103.352H117.198V74.0938Z" fill="#A0A0A0"/>
</g>
<g opacity="0.55">
<path d="M92.2586 74.0938H75.3525V123.598H92.2586V74.0938Z" fill="#A0A0A0"/>
</g>
<g opacity="0.42">
<path d="M67.0506 74.0938H50.1445V109.788H67.0506V74.0938Z" fill="#A0A0A0"/>
</g>
<g opacity="0.54">
<path d="M42.117 74.0938H25.2109V90.8292H42.117V74.0938Z" fill="#A0A0A0"/>
</g>
<g opacity="0.43">
<path d="M16.9061 74.0935H0V84.7434H16.9061V74.0935Z" fill="#A0A0A0"/>
</g>
<g opacity="0.74">
<path d="M697 86.2734H680.094V91.7739H697V86.2734Z" fill="#A0A0A0"/>
</g>
<g opacity="0.7">
<path d="M544.07 98.3086H527.164V105.213H544.07V98.3086Z" fill="#A0A0A0"/>
</g>
<g opacity="0.7">
<path d="M669.725 98.3086H652.819V105.213H669.725V98.3086Z" fill="#A0A0A0"/>
</g>
<g opacity="0.73">
<path d="M518.864 92.4648H501.958V99.3697H518.864V92.4648Z" fill="#A0A0A0"/>
</g>
<g opacity="0.73">
<path d="M493.94 107.312H477.034V114.217H493.94V107.312Z" fill="#A0A0A0"/>
</g>
<g opacity="0.73">
<path d="M468.739 134.098H451.833V141.003H468.739V134.098Z" fill="#A0A0A0"/>
</g>
<g opacity="0.72">
<path d="M443.511 114.465H426.604V121.37H443.511V114.465Z" fill="#A0A0A0"/>
</g>
<g opacity="0.72">
<path d="M643.325 114.465H626.419V121.37H643.325V114.465Z" fill="#A0A0A0"/>
</g>
<g opacity="0.88">
<path d="M418.587 120.672H401.681V127.577H418.587V120.672Z" fill="#A0A0A0"/>
</g>
<g opacity="0.88">
<path d="M618.395 120.672H601.489V127.577H618.395V120.672Z" fill="#A0A0A0"/>
</g>
<g opacity="0.7">
<path d="M393.392 107.312H376.486V114.217H393.392V107.312Z" fill="#A0A0A0"/>
</g>
<g opacity="0.7">
<path d="M593.206 107.312H576.3V114.217H593.206V107.312Z" fill="#A0A0A0"/>
</g>
<g opacity="0.98">
<path d="M368.458 97.6953H351.552V104.6H368.458V97.6953Z" fill="#A0A0A0"/>
</g>
<g opacity="0.98">
<path d="M568.264 97.6953H551.358V104.6H568.264V97.6953Z" fill="#A0A0A0"/>
</g>
<g opacity="0.96">
<path d="M343.242 125.23H326.336V132.135H343.242V125.23Z" fill="#A0A0A0"/>
</g>
<g opacity="0.77">
<path d="M318.027 114.801H301.121V121.706H318.027V114.801Z" fill="#A0A0A0"/>
</g>
<g opacity="0.9">
<path d="M293.086 108.484H276.18V115.389H293.086V108.484Z" fill="#A0A0A0"/>
</g>
<g opacity="0.77">
<path d="M267.89 91.1641H250.984V98.0689H267.89V91.1641Z" fill="#A0A0A0"/>
</g>
<g opacity="0.86">
<path d="M242.692 122.297H225.786V129.202H242.692V122.297Z" fill="#A0A0A0"/>
</g>
<g opacity="0.96">
<path d="M217.745 130.031H200.839V136.936H217.745V130.031Z" fill="#A0A0A0"/>
</g>
<g opacity="0.82">
<path d="M192.544 109.672H175.638V116.577H192.544V109.672Z" fill="#A0A0A0"/>
</g>
<path d="M167.614 112.703H150.708V119.608H167.614V112.703Z" fill="#A0A0A0"/>
<g opacity="0.83">
<path d="M142.389 121H125.483V127.905H142.389V121Z" fill="#A0A0A0"/>
</g>
<g opacity="0.82">
<path d="M117.198 108.484H100.292V115.389H117.198V108.484Z" fill="#A0A0A0"/>
</g>
<g opacity="0.72">
<path d="M92.2586 128.852H75.3525V135.756H92.2586V128.852Z" fill="#A0A0A0"/>
</g>
<g opacity="0.78">
<path d="M67.0506 115.043H50.1445V121.948H67.0506V115.043Z" fill="#A0A0A0"/>
</g>
<g opacity="0.87">
<path d="M42.117 95.957H25.2109V102.862H42.117V95.957Z" fill="#A0A0A0"/>
</g>
<g opacity="0.82">
<path d="M16.9061 90.0195H0V96.9244H16.9061V90.0195Z" fill="#A0A0A0"/>
</g>
<g opacity="0.49">
<path d="M697 61.5625H680.094V67.063H697V61.5625Z" fill="#A0A0A0"/>
</g>
<g opacity="0.4">
<path d="M544.07 48.1133H527.164V67.1894H544.07V48.1133Z" fill="#A0A0A0"/>
</g>
<g opacity="0.4">
<path d="M669.725 48.1133H652.819V67.1894H669.725V48.1133Z" fill="#A0A0A0"/>
</g>
<g opacity="0.43">
<path d="M518.864 53.957H501.958V67.0645H518.864V53.957Z" fill="#A0A0A0"/>
</g>
<g opacity="0.31">
<path d="M493.94 39.0859H477.034V67.1735H493.94V39.0859Z" fill="#A0A0A0"/>
</g>
<g opacity="0.6">
<path d="M468.739 12.168H451.833V67.0557H468.739V12.168Z" fill="#A0A0A0"/>
</g>
<g opacity="0.6">
<path d="M443.511 31.9453H426.604V67.1717H443.511V31.9453Z" fill="#A0A0A0"/>
</g>
<g opacity="0.6">
<path d="M643.325 31.9453H626.419V67.1717H643.325V31.9453Z" fill="#A0A0A0"/>
</g>
<g opacity="0.39">
<path d="M418.587 25.75H401.681V67.1791H418.587V25.75Z" fill="#A0A0A0"/>
</g>
<g opacity="0.39">
<path d="M618.395 25.75H601.489V67.1791H618.395V25.75Z" fill="#A0A0A0"/>
</g>
<g opacity="0.59">
<path d="M393.392 39.0859H376.486V67.1735H393.392V39.0859Z" fill="#A0A0A0"/>
</g>
<g opacity="0.59">
<path d="M593.206 39.0859H576.3V67.1735H593.206V39.0859Z" fill="#A0A0A0"/>
</g>
<g opacity="0.39">
<path d="M368.458 48.6992H351.552V67.0731H368.458V48.6992Z" fill="#A0A0A0"/>
</g>
<g opacity="0.39">
<path d="M568.264 48.6992H551.358V67.0731H568.264V48.6992Z" fill="#A0A0A0"/>
</g>
<g opacity="0.38">
<path d="M343.242 21.1953H326.336V67.1886H343.242V21.1953Z" fill="#A0A0A0"/>
</g>
<g opacity="0.36">
<path d="M318.027 31.6055H301.121V67.183H318.027V31.6055Z" fill="#A0A0A0"/>
</g>
<g opacity="0.39">
<path d="M293.086 37.8945H276.18V67.1524H293.086V37.8945Z" fill="#A0A0A0"/>
</g>
<g opacity="0.33">
<path d="M267.89 55.1328H250.984V67.07H267.89V55.1328Z" fill="#A0A0A0"/>
</g>
<g opacity="0.37">
<path d="M242.692 24.0938H225.786V67.0443H242.692V24.0938Z" fill="#A0A0A0"/>
</g>
<g opacity="0.42">
<path d="M217.745 16.4062H200.839V67.0808H217.745V16.4062Z" fill="#A0A0A0"/>
</g>
<g opacity="0.5">
<path d="M192.544 36.6367H175.638V67.0649H192.544V36.6367Z" fill="#A0A0A0"/>
</g>
<g opacity="0.54">
<path d="M167.595 33.7188H150.688V67.1897H167.595V33.7188Z" fill="#A0A0A0"/>
</g>
<g opacity="0.54">
<path d="M142.389 25.2734H125.483V67.0536H142.389V25.2734Z" fill="#A0A0A0"/>
</g>
<g opacity="0.34">
<path d="M117.198 37.8945H100.292V67.1524H117.198V37.8945Z" fill="#A0A0A0"/>
</g>
<g opacity="0.55">
<path d="M92.2586 17.5625H75.3525V67.0668H92.2586V17.5625Z" fill="#A0A0A0"/>
</g>
<g opacity="0.42">
<path d="M67.0506 31.3789H50.1445V67.0735H67.0506V31.3789Z" fill="#A0A0A0"/>
</g>
<g opacity="0.54">
<path d="M42.117 50.4297H25.2109V67.1652H42.117V50.4297Z" fill="#A0A0A0"/>
</g>
<g opacity="0.43">
<path d="M16.9061 56.4219H0V67.0717H16.9061V56.4219Z" fill="#A0A0A0"/>
</g>
<g opacity="0.74">
<path d="M697 49.3984H680.094V54.8989H697V49.3984Z" fill="#A0A0A0"/>
</g>
<g opacity="0.7">
<path d="M544.07 35.9375H527.164V42.8424H544.07V35.9375Z" fill="#A0A0A0"/>
</g>
<g opacity="0.7">
<path d="M669.725 35.9375H652.819V42.8424H669.725V35.9375Z" fill="#A0A0A0"/>
</g>
<g opacity="0.73">
<path d="M518.864 41.7539H501.958V48.6588H518.864V41.7539Z" fill="#A0A0A0"/>
</g>
<g opacity="0.73">
<path d="M493.94 26.918H477.034V33.8228H493.94V26.918Z" fill="#A0A0A0"/>
</g>
<g opacity="0.73">
<path d="M468.739 0H451.833V6.90485H468.739V0Z" fill="#A0A0A0"/>
</g>
<g opacity="0.72">
<path d="M443.511 19.7656H426.604V26.6705H443.511V19.7656Z" fill="#A0A0A0"/>
</g>
<g opacity="0.72">
<path d="M643.325 19.7656H626.419V26.6705H643.325V19.7656Z" fill="#A0A0A0"/>
</g>
<g opacity="0.88">
<path d="M418.587 13.5898H401.681V20.4947H418.587V13.5898Z" fill="#A0A0A0"/>
</g>
<g opacity="0.88">
<path d="M618.395 13.5898H601.489V20.4947H618.395V13.5898Z" fill="#A0A0A0"/>
</g>
<g opacity="0.7">
<path d="M393.392 26.918H376.486V33.8228H393.392V26.918Z" fill="#A0A0A0"/>
</g>
<g opacity="0.7">
<path d="M593.206 26.918H576.3V33.8228H593.206V26.918Z" fill="#A0A0A0"/>
</g>
<g opacity="0.98">
<path d="M368.458 36.5391H351.552V43.4439H368.458V36.5391Z" fill="#A0A0A0"/>
</g>
<g opacity="0.98">
<path d="M568.264 36.5391H551.358V43.4439H568.264V36.5391Z" fill="#A0A0A0"/>
</g>
<g opacity="0.96">
<path d="M343.242 9.02344H326.336V15.9283H343.242V9.02344Z" fill="#A0A0A0"/>
</g>
<g opacity="0.77">
<path d="M318.027 19.4414H301.121V26.3463H318.027V19.4414Z" fill="#A0A0A0"/>
</g>
<g opacity="0.9">
<path d="M293.086 25.75H276.18V32.6549H293.086V25.75Z" fill="#A0A0A0"/>
</g>
<g opacity="0.77">
<path d="M267.89 42.9648H250.984V49.8697H267.89V42.9648Z" fill="#A0A0A0"/>
</g>
<g opacity="0.86">
<path d="M242.692 11.9062H225.786V18.8111H242.692V11.9062Z" fill="#A0A0A0"/>
</g>
<g opacity="0.96">
<path d="M217.745 4.21875H200.839V11.1236H217.745V4.21875Z" fill="#A0A0A0"/>
</g>
<g opacity="0.82">
<path d="M192.544 24.4766H175.638V31.3814H192.544V24.4766Z" fill="#A0A0A0"/>
</g>
<path d="M167.614 21.5469H150.708V28.4517H167.614V21.5469Z" fill="#A0A0A0"/>
<g opacity="0.83">
<path d="M142.389 13.0977H125.483V20.0025H142.389V13.0977Z" fill="#A0A0A0"/>
</g>
<g opacity="0.82">
<path d="M117.198 25.75H100.292V32.6549H117.198V25.75Z" fill="#A0A0A0"/>
</g>
<g opacity="0.72">
<path d="M92.2586 5.38672H75.3525V12.2916H92.2586V5.38672Z" fill="#A0A0A0"/>
</g>
<g opacity="0.78">
<path d="M67.0506 19.1914H50.1445V26.0963H67.0506V19.1914Z" fill="#A0A0A0"/>
</g>
<g opacity="0.87">
<path d="M42.117 38.2812H25.2109V45.1861H42.117V38.2812Z" fill="#A0A0A0"/>
</g>
<g opacity="0.82">
<path d="M16.9061 44.2266H0V51.1314H16.9061V44.2266Z" fill="#A0A0A0"/>
</g>
<g opacity="0.36">
<path d="M317.383 72.9883H300.511V108.603H317.383V72.9883Z" fill="#3A37A6"/>
</g>
<g opacity="0.39">
<path d="M292.498 72.9883H275.626V102.277H292.498V72.9883Z" fill="#3A37A6"/>
</g>
<g opacity="0.33">
<path d="M267.362 72.9883H250.489V84.938H267.362V72.9883Z" fill="#3A37A6"/>
</g>
<g opacity="0.37">
<path d="M242.207 72.9883H225.335V115.984H242.207V72.9883Z" fill="#3A37A6"/>
</g>
<g opacity="0.42">
<path d="M217.315 72.9883H200.442V123.716H217.315V72.9883Z" fill="#3A37A6"/>
</g>
<g opacity="0.5">
<path d="M192.157 72.9883H175.284V103.448H192.157V72.9883Z" fill="#3A37A6"/>
</g>
<g opacity="0.54">
<path d="M167.274 72.9883H150.401V106.494H167.274V72.9883Z" fill="#3A37A6"/>
</g>
<g opacity="0.54">
<path d="M142.097 72.9883H125.225V114.812H142.097V72.9883Z" fill="#3A37A6"/>
</g>
<g opacity="0.34">
<path d="M116.962 72.9883H100.09V102.277H116.962V72.9883Z" fill="#3A37A6"/>
</g>
<g opacity="0.55">
<path d="M92.0891 72.9883H75.2168V122.544H92.0891V72.9883Z" fill="#3A37A6"/>
</g>
<g opacity="0.42">
<path d="M66.9036 72.9883H50.0312V108.72H66.9036V72.9883Z" fill="#3A37A6"/>
</g>
<g opacity="0.54">
<path d="M42.0305 72.9883H25.1582V89.7413H42.0305V72.9883Z" fill="#3A37A6"/>
</g>
<g opacity="0.43">
<path d="M16.8723 72.9883H0V83.6493H16.8723V72.9883Z" fill="#3A37A6"/>
</g>
<g opacity="0.77">
<path d="M317.383 113.727H300.511V120.639H317.383V113.727Z" fill="#3A37A6"/>
</g>
<g opacity="0.9">
<path d="M292.498 107.441H275.626V114.353H292.498V107.441Z" fill="#3A37A6"/>
</g>
<g opacity="0.77">
<path d="M267.362 90.0938H250.489V97.0058H267.362V90.0938Z" fill="#3A37A6"/>
</g>
<g opacity="0.86">
<path d="M242.207 121.262H225.335V128.174H242.207V121.262Z" fill="#3A37A6"/>
</g>
<g opacity="0.96">
<path d="M217.315 128.957H200.442V135.869H217.315V128.957Z" fill="#3A37A6"/>
</g>
<g opacity="0.82">
<path d="M192.157 108.582H175.284V115.494H192.157V108.582Z" fill="#3A37A6"/>
</g>
<path d="M167.282 111.645H150.41V118.557H167.282V111.645Z" fill="#3A37A6"/>
<g opacity="0.83">
<path d="M142.097 119.98H125.225V126.893H142.097V119.98Z" fill="#3A37A6"/>
</g>
<g opacity="0.82">
<path d="M116.962 107.441H100.09V114.353H116.962V107.441Z" fill="#3A37A6"/>
</g>
<g opacity="0.72">
<path d="M92.0891 127.805H75.2168V134.717H92.0891V127.805Z" fill="#3A37A6"/>
</g>
<g opacity="0.78">
<path d="M66.9036 113.984H50.0312V120.896H66.9036V113.984Z" fill="#3A37A6"/>
</g>
<g opacity="0.87">
<path d="M42.0305 94.9219H25.1582V101.834H42.0305V94.9219Z" fill="#3A37A6"/>
</g>
<g opacity="0.82">
<path d="M16.8723 88.9062H0V95.8183H16.8723V88.9062Z" fill="#3A37A6"/>
</g>
<g opacity="0.36">
<path d="M317.383 30.4805H300.511V66.0953H317.383V30.4805Z" fill="#3A37A6"/>
</g>
<g opacity="0.39">
<path d="M292.498 36.7734H275.626V66.0619H292.498V36.7734Z" fill="#3A37A6"/>
</g>
<g opacity="0.33">
<path d="M267.362 53.9844H250.489V65.9341H267.362V53.9844Z" fill="#3A37A6"/>
</g>
<g opacity="0.37">
<path d="M242.207 22.9766H225.335V65.9721H242.207V22.9766Z" fill="#3A37A6"/>
</g>
<g opacity="0.42">
<path d="M217.315 15.2266H200.442V65.9543H217.315V15.2266Z" fill="#3A37A6"/>
</g>
<g opacity="0.5">
<path d="M192.157 35.5H175.284V65.96H192.157V35.5Z" fill="#3A37A6"/>
</g>
<g opacity="0.54">
<path d="M167.274 32.5742H150.401V66.0803H167.274V32.5742Z" fill="#3A37A6"/>
</g>
<g opacity="0.54">
<path d="M142.097 24.1211H125.225V65.9451H142.097V24.1211Z" fill="#3A37A6"/>
</g>
<g opacity="0.34">
<path d="M116.962 36.7734H100.09V66.0619H116.962V36.7734Z" fill="#3A37A6"/>
</g>
<g opacity="0.55">
<path d="M92.0891 16.4062H75.2168V65.9624H92.0891V16.4062Z" fill="#3A37A6"/>
</g>
<g opacity="0.42">
<path d="M66.9036 30.2383H50.0312V65.9703H66.9036V30.2383Z" fill="#3A37A6"/>
</g>
<g opacity="0.54">
<path d="M42.0305 49.3594H25.1582V66.1124H42.0305V49.3594Z" fill="#3A37A6"/>
</g>
<g opacity="0.43">
<path d="M16.8723 55.2734H0V65.9345H16.8723V55.2734Z" fill="#3A37A6"/>
</g>
<g opacity="0.77">
<path d="M317.383 18.3047H300.511V25.2168H317.383V18.3047Z" fill="#3A37A6"/>
</g>
<g opacity="0.9">
<path d="M292.498 24.6016H275.626V31.5137H292.498V24.6016Z" fill="#3A37A6"/>
</g>
<g opacity="0.77">
<path d="M267.362 41.8125H250.489V48.7246H267.362V41.8125Z" fill="#3A37A6"/>
</g>
<g opacity="0.86">
<path d="M242.207 10.7852H225.335V17.6972H242.207V10.7852Z" fill="#3A37A6"/>
</g>
<g opacity="0.96">
<path d="M217.315 3.05078H200.442V9.96287H217.315V3.05078Z" fill="#3A37A6"/>
</g>
<path d="M167.282 20.3828H150.41V27.2949H167.282V20.3828Z" fill="#3A37A6"/>
<g opacity="0.83">
<path d="M142.097 11.9492H125.225V18.8613H142.097V11.9492Z" fill="#3A37A6"/>
</g>
<g opacity="0.82">
<path d="M116.962 24.6016H100.09V31.5137H116.962V24.6016Z" fill="#3A37A6"/>
</g>
<g opacity="0.72">
<path d="M92.0891 4.22656H75.2168V11.1386H92.0891V4.22656Z" fill="#3A37A6"/>
</g>
<g opacity="0.78">
<path d="M66.9036 18.0586H50.0312V24.9707H66.9036V18.0586Z" fill="#3A37A6"/>
</g>
<g opacity="0.87">
<path d="M42.0305 37.168H25.1582V44.0801H42.0305V37.168Z" fill="#3A37A6"/>
</g>
<g opacity="0.82">
<path d="M16.8723 43.1406H0V50.0527H16.8723V43.1406Z" fill="#3A37A6"/>
</g>
</svg>
