<svg width="30" height="30" viewBox="0 0 30 30" fill="none" xmlns="http://www.w3.org/2000/svg">
<rect width="30" height="30" rx="15" fill="#E7EEF9"/>
<path d="M15 17.625C16.6575 17.625 18 16.2825 18 14.625V10.5C18 8.8425 16.6575 7.5 15 7.5C13.3425 7.5 12 8.8425 12 10.5V14.625C12 16.2825 13.3425 17.625 15 17.625Z" stroke="#A0A0A0" stroke-width="1.5" stroke-linecap="round" stroke-linejoin="round"/>
<path d="M9.26172 13.2375V14.5125C9.26172 17.6775 11.8342 20.2501 14.9992 20.2501C18.1642 20.2501 20.7367 17.6775 20.7367 14.5125V13.2375" stroke="#A0A0A0" stroke-width="1.5" stroke-linecap="round" stroke-linejoin="round"/>
<path d="M13.957 10.8225C14.632 10.575 15.367 10.575 16.042 10.8225" stroke="#A0A0A0" stroke-width="1.5" stroke-linecap="round" stroke-linejoin="round"/>
<path d="M14.3984 12.4125C14.7959 12.3075 15.2084 12.3075 15.6059 12.4125" stroke="#A0A0A0" stroke-width="1.5" stroke-linecap="round" stroke-linejoin="round"/>
<path d="M15 20.25V22.5" stroke="#A0A0A0" stroke-width="1.5" stroke-linecap="round" stroke-linejoin="round"/>
</svg>
