<svg width="927" height="824" viewBox="0 0 927 824" fill="none" xmlns="http://www.w3.org/2000/svg">
<rect width="927" height="824" fill="#F3F2F3"/>
<g clip-path="url(#clip0_221_7147)">
<rect width="1920" height="1080" transform="translate(-545 -220)" fill="white"/>
<g filter="url(#filter0_d_221_7147)">
<rect x="-425" y="-100" width="1770" height="930" rx="10" fill="white"/>
<rect x="-424.5" y="-99.5" width="1769" height="929" rx="9.5" stroke="#EBEBEB"/>
</g>
<g filter="url(#filter1_d_221_7147)">
<path d="M940 -21L1345 -21V820C1345 825.523 1340.52 830 1335 830L940 830L940 -21Z" fill="white"/>
<path d="M940.5 -20.5L1344.5 -20.5V820C1344.5 825.247 1340.25 829.5 1335 829.5L940.5 829.5L940.5 -20.5Z" stroke="#EBEBEB"/>
</g>
<g opacity="0.87" filter="url(#filter2_d_221_7147)">
<rect x="17" y="10" width="893" height="790" rx="10" fill="white"/>
<rect x="17.5" y="10.5" width="892" height="789" rx="9.5" stroke="#EBEBEB"/>
</g>
<g opacity="0.49">
<path d="M812.436 408.228H795.52V413.738H812.436V408.228Z" fill="#A0A0A0"/>
</g>
<g opacity="0.4">
<path d="M659.412 408.228H642.495V427.338H659.412V408.228Z" fill="#A0A0A0"/>
</g>
<g opacity="0.4">
<path d="M785.144 408.228H768.228V427.338H785.144V408.228Z" fill="#A0A0A0"/>
</g>
<g opacity="0.43">
<path d="M634.189 408.228H617.272V421.359H634.189V408.228Z" fill="#A0A0A0"/>
</g>
<g opacity="0.31">
<path d="M609.25 408.228H592.333V436.365H609.25V408.228Z" fill="#A0A0A0"/>
</g>
<g opacity="0.6">
<path d="M584.032 408.228H567.115V463.214H584.032V408.228Z" fill="#A0A0A0"/>
</g>
<g opacity="0.6">
<path d="M558.788 408.228H541.871V443.517H558.788V408.228Z" fill="#A0A0A0"/>
</g>
<g opacity="0.6">
<path d="M758.727 408.228H741.811V443.517H758.727V408.228Z" fill="#A0A0A0"/>
</g>
<g opacity="0.39">
<path d="M533.848 408.228H516.932V449.731H533.848V408.228Z" fill="#A0A0A0"/>
</g>
<g opacity="0.39">
<path d="M733.782 408.228H716.865V449.731H733.782V408.228Z" fill="#A0A0A0"/>
</g>
<g opacity="0.59">
<path d="M508.637 408.228H491.721V436.365H508.637V408.228Z" fill="#A0A0A0"/>
</g>
<g opacity="0.59">
<path d="M708.576 408.228H691.659V436.365H708.576V408.228Z" fill="#A0A0A0"/>
</g>
<g opacity="0.39">
<path d="M483.689 408.228H466.772V426.634H483.689V408.228Z" fill="#A0A0A0"/>
</g>
<g opacity="0.39">
<path d="M683.62 408.228H666.703V426.634H683.62V408.228Z" fill="#A0A0A0"/>
</g>
<g opacity="0.38">
<path d="M458.457 408.228H441.54V454.303H458.457V408.228Z" fill="#A0A0A0"/>
</g>
<g opacity="0.36">
<path d="M433.22 408.228H416.304V443.869H433.22V408.228Z" fill="#A0A0A0"/>
</g>
<g opacity="0.39">
<path d="M408.269 408.228H391.353V437.538H408.269V408.228Z" fill="#A0A0A0"/>
</g>
<g opacity="0.33">
<path d="M383.058 408.228H366.142V420.186H383.058V408.228Z" fill="#A0A0A0"/>
</g>
<g opacity="0.37">
<path d="M357.844 408.228H340.928V451.255H357.844V408.228Z" fill="#A0A0A0"/>
</g>
<g opacity="0.42">
<path d="M332.881 408.228H315.965V458.993H332.881V408.228Z" fill="#A0A0A0"/>
</g>
<g opacity="0.5">
<path d="M307.664 408.228H290.747V438.71H307.664V408.228Z" fill="#A0A0A0"/>
</g>
<g opacity="0.54">
<path d="M282.701 408.228H265.784V441.759H282.701V408.228Z" fill="#A0A0A0"/>
</g>
<g opacity="0.54">
<path d="M257.48 408.228H240.563V450.083H257.48V408.228Z" fill="#A0A0A0"/>
</g>
<g opacity="0.34">
<path d="M232.272 408.228H215.355V437.538H232.272V408.228Z" fill="#A0A0A0"/>
</g>
<g opacity="0.55">
<path d="M207.318 408.228H190.401V457.821H207.318V408.228Z" fill="#A0A0A0"/>
</g>
<g opacity="0.42">
<path d="M182.091 408.228H165.175V443.986H182.091V408.228Z" fill="#A0A0A0"/>
</g>
<g opacity="0.54">
<path d="M157.143 408.228H140.227V424.993H157.143V408.228Z" fill="#A0A0A0"/>
</g>
<g opacity="0.43">
<path d="M131.917 408.228H115V418.897H131.917V408.228Z" fill="#A0A0A0"/>
</g>
<g opacity="0.74">
<path d="M812.436 420.424H795.52V425.935H812.436V420.424Z" fill="#A0A0A0"/>
</g>
<g opacity="0.7">
<path d="M659.412 432.486H642.495V439.403H659.412V432.486Z" fill="#A0A0A0"/>
</g>
<g opacity="0.7">
<path d="M785.144 432.486H768.228V439.403H785.144V432.486Z" fill="#A0A0A0"/>
</g>
<g opacity="0.73">
<path d="M634.189 426.628H617.272V433.545H634.189V426.628Z" fill="#A0A0A0"/>
</g>
<g opacity="0.73">
<path d="M609.25 441.508H592.333V448.425H609.25V441.508Z" fill="#A0A0A0"/>
</g>
<g opacity="0.73">
<path d="M584.032 468.336H567.115V475.253H584.032V468.336Z" fill="#A0A0A0"/>
</g>
<g opacity="0.72">
<path d="M558.788 448.667H541.871V455.584H558.788V448.667Z" fill="#A0A0A0"/>
</g>
<g opacity="0.72">
<path d="M758.727 448.667H741.811V455.584H758.727V448.667Z" fill="#A0A0A0"/>
</g>
<g opacity="0.88">
<path d="M533.848 454.889H516.932V461.806H533.848V454.889Z" fill="#A0A0A0"/>
</g>
<g opacity="0.88">
<path d="M733.782 454.889H716.865V461.806H733.782V454.889Z" fill="#A0A0A0"/>
</g>
<g opacity="0.7">
<path d="M508.637 441.508H491.721V448.425H508.637V441.508Z" fill="#A0A0A0"/>
</g>
<g opacity="0.7">
<path d="M708.576 441.508H691.659V448.425H708.576V441.508Z" fill="#A0A0A0"/>
</g>
<g opacity="0.98">
<path d="M483.689 431.869H466.772V438.787H483.689V431.869Z" fill="#A0A0A0"/>
</g>
<g opacity="0.98">
<path d="M683.62 431.869H666.703V438.787H683.62V431.869Z" fill="#A0A0A0"/>
</g>
<g opacity="0.96">
<path d="M458.457 459.454H441.54V466.371H458.457V459.454Z" fill="#A0A0A0"/>
</g>
<g opacity="0.77">
<path d="M433.227 449.006H416.311V455.924H433.227V449.006Z" fill="#A0A0A0"/>
</g>
<g opacity="0.9">
<path d="M408.269 442.681H391.353V449.598H408.269V442.681Z" fill="#A0A0A0"/>
</g>
<g opacity="0.77">
<path d="M383.058 425.328H366.142V432.245H383.058V425.328Z" fill="#A0A0A0"/>
</g>
<g opacity="0.86">
<path d="M357.844 456.516H340.928V463.433H357.844V456.516Z" fill="#A0A0A0"/>
</g>
<g opacity="0.96">
<path d="M332.881 464.267H315.965V471.184H332.881V464.267Z" fill="#A0A0A0"/>
</g>
<g opacity="0.82">
<path d="M307.664 443.872H290.747V450.789H307.664V443.872Z" fill="#A0A0A0"/>
</g>
<path d="M282.72 446.905H265.804V453.822H282.72V446.905Z" fill="#A0A0A0"/>
<g opacity="0.83">
<path d="M257.48 455.216H240.563V462.133H257.48V455.216Z" fill="#A0A0A0"/>
</g>
<g opacity="0.82">
<path d="M232.272 442.681H215.355V449.598H232.272V442.681Z" fill="#A0A0A0"/>
</g>
<g opacity="0.72">
<path d="M207.318 463.082H190.401V469.999H207.318V463.082Z" fill="#A0A0A0"/>
</g>
<g opacity="0.78">
<path d="M182.091 449.248H165.175V456.166H182.091V449.248Z" fill="#A0A0A0"/>
</g>
<g opacity="0.87">
<path d="M157.143 430.13H140.227V437.047H157.143V430.13Z" fill="#A0A0A0"/>
</g>
<g opacity="0.82">
<path d="M131.917 424.185H115V431.102H131.917V424.185Z" fill="#A0A0A0"/>
</g>
<g opacity="0.49">
<path d="M812.436 395.674H795.52V401.185H812.436V395.674Z" fill="#A0A0A0"/>
</g>
<g opacity="0.4">
<path d="M659.412 382.198H642.495V401.308H659.412V382.198Z" fill="#A0A0A0"/>
</g>
<g opacity="0.4">
<path d="M785.144 382.198H768.228V401.308H785.144V382.198Z" fill="#A0A0A0"/>
</g>
<g opacity="0.43">
<path d="M634.189 388.056H617.272V401.187H634.189V388.056Z" fill="#A0A0A0"/>
</g>
<g opacity="0.31">
<path d="M609.25 373.157H592.333V401.295H609.25V373.157Z" fill="#A0A0A0"/>
</g>
<g opacity="0.6">
<path d="M584.032 346.189H567.115V401.176H584.032V346.189Z" fill="#A0A0A0"/>
</g>
<g opacity="0.6">
<path d="M558.788 365.999H541.871V401.289H558.788V365.999Z" fill="#A0A0A0"/>
</g>
<g opacity="0.6">
<path d="M758.727 365.999H741.811V401.289H758.727V365.999Z" fill="#A0A0A0"/>
</g>
<g opacity="0.39">
<path d="M533.848 359.795H516.932V401.299H533.848V359.795Z" fill="#A0A0A0"/>
</g>
<g opacity="0.39">
<path d="M733.782 359.795H716.865V401.299H733.782V359.795Z" fill="#A0A0A0"/>
</g>
<g opacity="0.59">
<path d="M508.637 373.157H491.721V401.295H508.637V373.157Z" fill="#A0A0A0"/>
</g>
<g opacity="0.59">
<path d="M708.576 373.157H691.659V401.295H708.576V373.157Z" fill="#A0A0A0"/>
</g>
<g opacity="0.39">
<path d="M483.689 382.791H466.772V401.197H483.689V382.791Z" fill="#A0A0A0"/>
</g>
<g opacity="0.39">
<path d="M683.62 382.791H666.703V401.197H683.62V382.791Z" fill="#A0A0A0"/>
</g>
<g opacity="0.38">
<path d="M458.457 355.23H441.54V401.306H458.457V355.23Z" fill="#A0A0A0"/>
</g>
<g opacity="0.36">
<path d="M433.227 365.659H416.311V401.301H433.227V365.659Z" fill="#A0A0A0"/>
</g>
<g opacity="0.39">
<path d="M408.269 371.966H391.353V401.277H408.269V371.966Z" fill="#A0A0A0"/>
</g>
<g opacity="0.33">
<path d="M383.058 389.236H366.142V401.195H383.058V389.236Z" fill="#A0A0A0"/>
</g>
<g opacity="0.37">
<path d="M357.844 358.139H340.928V401.166H357.844V358.139Z" fill="#A0A0A0"/>
</g>
<g opacity="0.42">
<path d="M332.881 350.434H315.965V401.199H332.881V350.434Z" fill="#A0A0A0"/>
</g>
<g opacity="0.5">
<path d="M307.664 370.703H290.747V401.186H307.664V370.703Z" fill="#A0A0A0"/>
</g>
<g opacity="0.54">
<path d="M282.701 367.783H265.784V401.314H282.701V367.783Z" fill="#A0A0A0"/>
</g>
<g opacity="0.54">
<path d="M257.48 359.317H240.563V401.172H257.48V359.317Z" fill="#A0A0A0"/>
</g>
<g opacity="0.34">
<path d="M232.272 371.966H215.355V401.277H232.272V371.966Z" fill="#A0A0A0"/>
</g>
<g opacity="0.55">
<path d="M207.318 351.595H190.401V401.188H207.318V351.595Z" fill="#A0A0A0"/>
</g>
<g opacity="0.42">
<path d="M182.091 365.436H165.175V401.194H182.091V365.436Z" fill="#A0A0A0"/>
</g>
<g opacity="0.54">
<path d="M157.143 384.519H140.227V401.285H157.143V384.519Z" fill="#A0A0A0"/>
</g>
<g opacity="0.43">
<path d="M131.917 390.523H115V401.192H131.917V390.523Z" fill="#A0A0A0"/>
</g>
<g opacity="0.74">
<path d="M812.436 383.485H795.52V388.995H812.436V383.485Z" fill="#A0A0A0"/>
</g>
<g opacity="0.7">
<path d="M659.412 370.001H642.495V376.918H659.412V370.001Z" fill="#A0A0A0"/>
</g>
<g opacity="0.7">
<path d="M785.144 370.001H768.228V376.918H785.144V370.001Z" fill="#A0A0A0"/>
</g>
<g opacity="0.73">
<path d="M634.189 375.83H617.272V382.747H634.189V375.83Z" fill="#A0A0A0"/>
</g>
<g opacity="0.73">
<path d="M609.25 360.968H592.333V367.885H609.25V360.968Z" fill="#A0A0A0"/>
</g>
<g opacity="0.73">
<path d="M584.032 334H567.115V340.917H584.032V334Z" fill="#A0A0A0"/>
</g>
<g opacity="0.72">
<path d="M558.788 353.802H541.871V360.719H558.788V353.802Z" fill="#A0A0A0"/>
</g>
<g opacity="0.72">
<path d="M758.727 353.802H741.811V360.719H758.727V353.802Z" fill="#A0A0A0"/>
</g>
<g opacity="0.88">
<path d="M533.848 347.611H516.932V354.529H533.848V347.611Z" fill="#A0A0A0"/>
</g>
<g opacity="0.88">
<path d="M733.782 347.611H716.865V354.529H733.782V347.611Z" fill="#A0A0A0"/>
</g>
<g opacity="0.7">
<path d="M508.637 360.968H491.721V367.885H508.637V360.968Z" fill="#A0A0A0"/>
</g>
<g opacity="0.7">
<path d="M708.576 360.968H691.659V367.885H708.576V360.968Z" fill="#A0A0A0"/>
</g>
<g opacity="0.98">
<path d="M483.689 370.607H466.772V377.524H483.689V370.607Z" fill="#A0A0A0"/>
</g>
<g opacity="0.98">
<path d="M683.62 370.607H666.703V377.524H683.62V370.607Z" fill="#A0A0A0"/>
</g>
<g opacity="0.96">
<path d="M458.457 343.04H441.54V349.958H458.457V343.04Z" fill="#A0A0A0"/>
</g>
<g opacity="0.77">
<path d="M433.227 353.477H416.311V360.394H433.227V353.477Z" fill="#A0A0A0"/>
</g>
<g opacity="0.9">
<path d="M408.269 359.795H391.353V366.712H408.269V359.795Z" fill="#A0A0A0"/>
</g>
<g opacity="0.77">
<path d="M383.058 377.039H366.142V383.957H383.058V377.039Z" fill="#A0A0A0"/>
</g>
<g opacity="0.86">
<path d="M357.844 345.931H340.928V352.848H357.844V345.931Z" fill="#A0A0A0"/>
</g>
<g opacity="0.96">
<path d="M332.881 338.227H315.965V345.145H332.881V338.227Z" fill="#A0A0A0"/>
</g>
<g opacity="0.82">
<path d="M307.664 358.519H290.747V365.436H307.664V358.519Z" fill="#A0A0A0"/>
</g>
<path d="M282.72 355.586H265.804V362.503H282.72V355.586Z" fill="#A0A0A0"/>
<g opacity="0.83">
<path d="M257.48 347.122H240.563V354.039H257.48V347.122Z" fill="#A0A0A0"/>
</g>
<g opacity="0.82">
<path d="M232.272 359.795H215.355V366.712H232.272V359.795Z" fill="#A0A0A0"/>
</g>
<g opacity="0.72">
<path d="M207.318 339.4H190.401V346.317H207.318V339.4Z" fill="#A0A0A0"/>
</g>
<g opacity="0.78">
<path d="M182.091 353.228H165.175V360.145H182.091V353.228Z" fill="#A0A0A0"/>
</g>
<g opacity="0.87">
<path d="M157.143 372.347H140.227V379.264H157.143V372.347Z" fill="#A0A0A0"/>
</g>
<g opacity="0.82">
<path d="M131.917 378.31H115V385.227H131.917V378.31Z" fill="#A0A0A0"/>
</g>
<g opacity="0.36">
<path d="M432.582 407.12H415.699V442.798H432.582V407.12Z" fill="#3A37A6"/>
</g>
<g opacity="0.39">
<path d="M407.683 407.12H390.8V436.461H407.683V407.12Z" fill="#3A37A6"/>
</g>
<g opacity="0.33">
<path d="M382.529 407.12H365.646V419.091H382.529V407.12Z" fill="#3A37A6"/>
</g>
<g opacity="0.37">
<path d="M357.359 407.12H340.477V450.192H357.359V407.12Z" fill="#3A37A6"/>
</g>
<g opacity="0.42">
<path d="M332.451 407.12H315.568V457.938H332.451V407.12Z" fill="#3A37A6"/>
</g>
<g opacity="0.5">
<path d="M307.276 407.12H290.394V437.634H307.276V407.12Z" fill="#3A37A6"/>
</g>
<g opacity="0.54">
<path d="M282.379 407.12H265.496V440.686H282.379V407.12Z" fill="#3A37A6"/>
</g>
<g opacity="0.54">
<path d="M257.187 407.12H240.304V449.019H257.187V407.12Z" fill="#3A37A6"/>
</g>
<g opacity="0.34">
<path d="M232.036 407.12H215.153V436.461H232.036V407.12Z" fill="#3A37A6"/>
</g>
<g opacity="0.55">
<path d="M207.148 407.12H190.265V456.765H207.148V407.12Z" fill="#3A37A6"/>
</g>
<g opacity="0.42">
<path d="M181.946 407.12H165.063V442.916H181.946V407.12Z" fill="#3A37A6"/>
</g>
<g opacity="0.54">
<path d="M157.058 407.12H140.175V423.903H157.058V407.12Z" fill="#3A37A6"/>
</g>
<g opacity="0.43">
<path d="M131.883 407.12H115V417.8H131.883V407.12Z" fill="#3A37A6"/>
</g>
<g opacity="0.77">
<path d="M432.582 447.939H415.699V454.864H432.582V447.939Z" fill="#3A37A6"/>
</g>
<g opacity="0.9">
<path d="M407.683 441.639H390.8V448.564H407.683V441.639Z" fill="#3A37A6"/>
</g>
<g opacity="0.77">
<path d="M382.529 424.26H365.646V431.185H382.529V424.26Z" fill="#3A37A6"/>
</g>
<g opacity="0.86">
<path d="M357.359 455.485H340.477V462.41H357.359V455.485Z" fill="#3A37A6"/>
</g>
<g opacity="0.96">
<path d="M332.451 463.196H315.568V470.121H332.451V463.196Z" fill="#3A37A6"/>
</g>
<g opacity="0.82">
<path d="M307.276 442.783H290.394V449.707H307.276V442.783Z" fill="#3A37A6"/>
</g>
<path d="M282.388 445.85H265.505V452.774H282.388V445.85Z" fill="#3A37A6"/>
<g opacity="0.83">
<path d="M257.187 454.198H240.304V461.123H257.187V454.198Z" fill="#3A37A6"/>
</g>
<g opacity="0.82">
<path d="M232.036 441.639H215.153V448.564H232.036V441.639Z" fill="#3A37A6"/>
</g>
<g opacity="0.72">
<path d="M207.148 462.04H190.265V468.965H207.148V462.04Z" fill="#3A37A6"/>
</g>
<g opacity="0.78">
<path d="M181.946 448.194H165.063V455.118H181.946V448.194Z" fill="#3A37A6"/>
</g>
<g opacity="0.87">
<path d="M157.058 429.092H140.175V436.016H157.058V429.092Z" fill="#3A37A6"/>
</g>
<g opacity="0.82">
<path d="M131.883 423.069H115V429.994H131.883V423.069Z" fill="#3A37A6"/>
</g>
<g opacity="0.36">
<path d="M432.582 364.538H415.699V400.217H432.582V364.538Z" fill="#3A37A6"/>
</g>
<g opacity="0.39">
<path d="M407.683 370.845H390.8V400.186H407.683V370.845Z" fill="#3A37A6"/>
</g>
<g opacity="0.33">
<path d="M382.529 388.084H365.646V400.055H382.529V388.084Z" fill="#3A37A6"/>
</g>
<g opacity="0.37">
<path d="M357.359 357.018H340.477V400.09H357.359V357.018Z" fill="#3A37A6"/>
</g>
<g opacity="0.42">
<path d="M332.451 349.259H315.568V400.078H332.451V349.259Z" fill="#3A37A6"/>
</g>
<g opacity="0.5">
<path d="M307.276 369.571H290.394V400.086H307.276V369.571Z" fill="#3A37A6"/>
</g>
<g opacity="0.54">
<path d="M282.379 366.638H265.496V400.204H282.379V366.638Z" fill="#3A37A6"/>
</g>
<g opacity="0.54">
<path d="M257.187 358.166H240.304V400.065H257.187V358.166Z" fill="#3A37A6"/>
</g>
<g opacity="0.34">
<path d="M232.036 370.845H215.153V400.186H232.036V370.845Z" fill="#3A37A6"/>
</g>
<g opacity="0.55">
<path d="M207.148 350.439H190.265V400.084H207.148V350.439Z" fill="#3A37A6"/>
</g>
<g opacity="0.42">
<path d="M181.946 364.296H165.063V400.092H181.946V364.296Z" fill="#3A37A6"/>
</g>
<g opacity="0.54">
<path d="M157.058 383.452H140.175V400.235H157.058V383.452Z" fill="#3A37A6"/>
</g>
<g opacity="0.43">
<path d="M131.883 389.379H115V400.059H131.883V389.379Z" fill="#3A37A6"/>
</g>
<g opacity="0.77">
<path d="M432.582 352.343H415.699V359.268H432.582V352.343Z" fill="#3A37A6"/>
</g>
<g opacity="0.9">
<path d="M407.683 358.65H390.8V365.575H407.683V358.65Z" fill="#3A37A6"/>
</g>
<g opacity="0.77">
<path d="M382.529 375.895H365.646V382.819H382.529V375.895Z" fill="#3A37A6"/>
</g>
<g opacity="0.86">
<path d="M357.359 344.808H340.477V351.733H357.359V344.808Z" fill="#3A37A6"/>
</g>
<g opacity="0.96">
<path d="M332.451 337.062H315.568V343.987H332.451V337.062Z" fill="#3A37A6"/>
</g>
<path d="M282.388 354.427H265.505V361.352H282.388V354.427Z" fill="#3A37A6"/>
<g opacity="0.83">
<path d="M257.187 345.977H240.304V352.902H257.187V345.977Z" fill="#3A37A6"/>
</g>
<g opacity="0.82">
<path d="M232.036 358.65H215.153V365.575H232.036V358.65Z" fill="#3A37A6"/>
</g>
<g opacity="0.72">
<path d="M207.148 338.237H190.265V345.161H207.148V338.237Z" fill="#3A37A6"/>
</g>
<g opacity="0.78">
<path d="M181.946 352.096H165.063V359.02H181.946V352.096Z" fill="#3A37A6"/>
</g>
<g opacity="0.87">
<path d="M157.058 371.239H140.175V378.163H157.058V371.239Z" fill="#3A37A6"/>
</g>
<g opacity="0.82">
<path d="M131.883 377.224H115V384.149H131.883V377.224Z" fill="#3A37A6"/>
</g>
<g filter="url(#filter3_b_221_7147)">
<rect x="400" y="341" width="128" height="128" rx="64" fill="url(#paint0_linear_221_7147)"/>
</g>
<path d="M451.189 404.998V398.461C451.189 390.025 457.152 386.624 464.439 390.82L470.093 394.089L475.746 397.357C483.034 401.553 483.034 408.443 475.746 412.639L470.093 415.907L464.439 419.175C457.152 423.371 451.189 419.926 451.189 411.534V404.998Z" fill="white" stroke="white" stroke-width="1.5" stroke-miterlimit="10" stroke-linecap="round" stroke-linejoin="round"/>
<path d="M464 449.167C488.392 449.167 508.166 429.393 508.166 405C508.166 380.607 488.392 360.833 464 360.833C439.607 360.833 419.833 380.607 419.833 405C419.833 429.393 439.607 449.167 464 449.167Z" stroke="white" stroke-width="1.5" stroke-linecap="round" stroke-linejoin="round"/>
<g filter="url(#filter4_d_221_7147)">
<path d="M-425 -90C-425 -95.5229 -420.523 -100 -415 -100L-13 -100L-13 830L-415 830C-420.523 830 -425 825.523 -425 820L-425 -90Z" fill="white"/>
<path d="M-424.5 -90C-424.5 -95.2467 -420.247 -99.5 -415 -99.5L-13.5 -99.5L-13.5 829.5L-415 829.5C-420.247 829.5 -424.5 825.247 -424.5 820L-424.5 -90Z" stroke="#EBEBEB"/>
</g>
</g>
<rect x="-58864" y="-1490" width="111456" height="6743" stroke="#262626" stroke-width="20"/>
<defs>
<filter id="filter0_d_221_7147" x="-442" y="-110" width="1804" height="964" filterUnits="userSpaceOnUse" color-interpolation-filters="sRGB">
<feFlood flood-opacity="0" result="BackgroundImageFix"/>
<feColorMatrix in="SourceAlpha" type="matrix" values="0 0 0 0 0 0 0 0 0 0 0 0 0 0 0 0 0 0 127 0" result="hardAlpha"/>
<feMorphology radius="3" operator="dilate" in="SourceAlpha" result="effect1_dropShadow_221_7147"/>
<feOffset dy="7"/>
<feGaussianBlur stdDeviation="7"/>
<feComposite in2="hardAlpha" operator="out"/>
<feColorMatrix type="matrix" values="0 0 0 0 0 0 0 0 0 0 0 0 0 0 0 0 0 0 0.03 0"/>
<feBlend mode="normal" in2="BackgroundImageFix" result="effect1_dropShadow_221_7147"/>
<feBlend mode="normal" in="SourceGraphic" in2="effect1_dropShadow_221_7147" result="shape"/>
</filter>
<filter id="filter1_d_221_7147" x="923" y="-31" width="439" height="885" filterUnits="userSpaceOnUse" color-interpolation-filters="sRGB">
<feFlood flood-opacity="0" result="BackgroundImageFix"/>
<feColorMatrix in="SourceAlpha" type="matrix" values="0 0 0 0 0 0 0 0 0 0 0 0 0 0 0 0 0 0 127 0" result="hardAlpha"/>
<feMorphology radius="3" operator="dilate" in="SourceAlpha" result="effect1_dropShadow_221_7147"/>
<feOffset dy="7"/>
<feGaussianBlur stdDeviation="7"/>
<feComposite in2="hardAlpha" operator="out"/>
<feColorMatrix type="matrix" values="0 0 0 0 0 0 0 0 0 0 0 0 0 0 0 0 0 0 0.03 0"/>
<feBlend mode="normal" in2="BackgroundImageFix" result="effect1_dropShadow_221_7147"/>
<feBlend mode="normal" in="SourceGraphic" in2="effect1_dropShadow_221_7147" result="shape"/>
</filter>
<filter id="filter2_d_221_7147" x="0" y="0" width="927" height="824" filterUnits="userSpaceOnUse" color-interpolation-filters="sRGB">
<feFlood flood-opacity="0" result="BackgroundImageFix"/>
<feColorMatrix in="SourceAlpha" type="matrix" values="0 0 0 0 0 0 0 0 0 0 0 0 0 0 0 0 0 0 127 0" result="hardAlpha"/>
<feMorphology radius="3" operator="dilate" in="SourceAlpha" result="effect1_dropShadow_221_7147"/>
<feOffset dy="7"/>
<feGaussianBlur stdDeviation="7"/>
<feComposite in2="hardAlpha" operator="out"/>
<feColorMatrix type="matrix" values="0 0 0 0 0 0 0 0 0 0 0 0 0 0 0 0 0 0 0.03 0"/>
<feBlend mode="normal" in2="BackgroundImageFix" result="effect1_dropShadow_221_7147"/>
<feBlend mode="normal" in="SourceGraphic" in2="effect1_dropShadow_221_7147" result="shape"/>
</filter>
<filter id="filter3_b_221_7147" x="375" y="316" width="178" height="178" filterUnits="userSpaceOnUse" color-interpolation-filters="sRGB">
<feFlood flood-opacity="0" result="BackgroundImageFix"/>
<feGaussianBlur in="BackgroundImageFix" stdDeviation="12.5"/>
<feComposite in2="SourceAlpha" operator="in" result="effect1_backgroundBlur_221_7147"/>
<feBlend mode="normal" in="SourceGraphic" in2="effect1_backgroundBlur_221_7147" result="shape"/>
</filter>
<filter id="filter4_d_221_7147" x="-442" y="-110" width="446" height="964" filterUnits="userSpaceOnUse" color-interpolation-filters="sRGB">
<feFlood flood-opacity="0" result="BackgroundImageFix"/>
<feColorMatrix in="SourceAlpha" type="matrix" values="0 0 0 0 0 0 0 0 0 0 0 0 0 0 0 0 0 0 127 0" result="hardAlpha"/>
<feMorphology radius="3" operator="dilate" in="SourceAlpha" result="effect1_dropShadow_221_7147"/>
<feOffset dy="7"/>
<feGaussianBlur stdDeviation="7"/>
<feComposite in2="hardAlpha" operator="out"/>
<feColorMatrix type="matrix" values="0 0 0 0 0 0 0 0 0 0 0 0 0 0 0 0 0 0 0.03 0"/>
<feBlend mode="normal" in2="BackgroundImageFix" result="effect1_dropShadow_221_7147"/>
<feBlend mode="normal" in="SourceGraphic" in2="effect1_dropShadow_221_7147" result="shape"/>
</filter>
<linearGradient id="paint0_linear_221_7147" x1="400" y1="341" x2="552.129" y2="384.239" gradientUnits="userSpaceOnUse">
<stop offset="0.0303834" stop-color="white" stop-opacity="0.4"/>
<stop offset="0.960276" stop-color="white" stop-opacity="0"/>
</linearGradient>
<clipPath id="clip0_221_7147">
<rect width="1920" height="1080" fill="white" transform="translate(-545 -220)"/>
</clipPath>
</defs>
</svg>
