<svg width="927" height="763" viewBox="0 0 927 763" fill="none" xmlns="http://www.w3.org/2000/svg">
<g filter="url(#filter0_d_4106_254578)">
<rect x="17" y="10" width="893" height="729" rx="10" fill="white"/>
<rect x="17.5" y="10.5" width="892" height="728" rx="9.5" stroke="#EBEBEB"/>
</g>
<g opacity="0.49">
<path d="M819.9 378.227H802.633V383.737H819.9V378.227Z" fill="#A0A0A0"/>
</g>
<g opacity="0.4">
<path d="M663.697 378.227H646.43V397.337H663.697V378.227Z" fill="#A0A0A0"/>
</g>
<g opacity="0.4">
<path d="M792.041 378.227H774.773V397.337H792.041V378.227Z" fill="#A0A0A0"/>
</g>
<g opacity="0.43">
<path d="M637.955 378.227H620.688V391.358H637.955V378.227Z" fill="#A0A0A0"/>
</g>
<g opacity="0.31">
<path d="M612.494 378.227H595.227V406.365H612.494V378.227Z" fill="#A0A0A0"/>
</g>
<g opacity="0.6">
<path d="M586.76 378.227H569.492V433.213H586.76V378.227Z" fill="#A0A0A0"/>
</g>
<g opacity="0.6">
<path d="M560.986 378.227H543.719V413.516H560.986V378.227Z" fill="#A0A0A0"/>
</g>
<g opacity="0.6">
<path d="M765.072 378.227H747.805V413.516H765.072V378.227Z" fill="#A0A0A0"/>
</g>
<g opacity="0.39">
<path d="M535.533 378.227H518.266V419.73H535.533V378.227Z" fill="#A0A0A0"/>
</g>
<g opacity="0.39">
<path d="M739.611 378.227H722.344V419.73H739.611V378.227Z" fill="#A0A0A0"/>
</g>
<g opacity="0.59">
<path d="M509.799 378.227H492.531V406.365H509.799V378.227Z" fill="#A0A0A0"/>
</g>
<g opacity="0.59">
<path d="M713.885 378.227H696.617V406.365H713.885V378.227Z" fill="#A0A0A0"/>
</g>
<g opacity="0.39">
<path d="M484.33 378.227H467.062V396.633H484.33V378.227Z" fill="#A0A0A0"/>
</g>
<g opacity="0.39">
<path d="M688.408 378.227H671.141V396.633H688.408V378.227Z" fill="#A0A0A0"/>
</g>
<g opacity="0.38">
<path d="M458.58 378.227H441.312V424.302H458.58V378.227Z" fill="#A0A0A0"/>
</g>
<g opacity="0.36">
<path d="M432.814 378.227H415.547V413.868H432.814V378.227Z" fill="#A0A0A0"/>
</g>
<g opacity="0.39">
<path d="M407.346 378.227H390.078V407.537H407.346V378.227Z" fill="#A0A0A0"/>
</g>
<g opacity="0.33">
<path d="M381.619 378.227H364.352V390.185H381.619V378.227Z" fill="#A0A0A0"/>
</g>
<g opacity="0.37">
<path d="M355.877 378.227H338.609V421.254H355.877V378.227Z" fill="#A0A0A0"/>
</g>
<g opacity="0.42">
<path d="M330.4 378.227H313.133V428.992H330.4V378.227Z" fill="#A0A0A0"/>
</g>
<g opacity="0.5">
<path d="M304.658 378.227H287.391V408.709H304.658V378.227Z" fill="#A0A0A0"/>
</g>
<g opacity="0.54">
<path d="M279.174 378.227H261.906V411.758H279.174V378.227Z" fill="#A0A0A0"/>
</g>
<g opacity="0.54">
<path d="M253.431 378.227H236.164V420.082H253.431V378.227Z" fill="#A0A0A0"/>
</g>
<g opacity="0.34">
<path d="M227.705 378.227H210.438V407.537H227.705V378.227Z" fill="#A0A0A0"/>
</g>
<g opacity="0.55">
<path d="M202.228 378.227H184.961V427.82H202.228V378.227Z" fill="#A0A0A0"/>
</g>
<g opacity="0.42">
<path d="M176.486 378.227H159.219V413.985H176.486V378.227Z" fill="#A0A0A0"/>
</g>
<g opacity="0.54">
<path d="M151.017 378.227H133.75V394.992H151.017V378.227Z" fill="#A0A0A0"/>
</g>
<g opacity="0.43">
<path d="M125.267 378.227H108V388.896H125.267V378.227Z" fill="#A0A0A0"/>
</g>
<g opacity="0.74">
<path d="M819.9 390.426H802.633V395.936H819.9V390.426Z" fill="#A0A0A0"/>
</g>
<g opacity="0.7">
<path d="M663.697 402.484H646.43V409.402H663.697V402.484Z" fill="#A0A0A0"/>
</g>
<g opacity="0.7">
<path d="M792.041 402.484H774.773V409.402H792.041V402.484Z" fill="#A0A0A0"/>
</g>
<g opacity="0.73">
<path d="M637.955 396.629H620.688V403.546H637.955V396.629Z" fill="#A0A0A0"/>
</g>
<g opacity="0.73">
<path d="M612.494 411.508H595.227V418.425H612.494V411.508Z" fill="#A0A0A0"/>
</g>
<g opacity="0.73">
<path d="M586.76 438.336H569.492V445.253H586.76V438.336Z" fill="#A0A0A0"/>
</g>
<g opacity="0.72">
<path d="M560.986 418.668H543.719V425.585H560.986V418.668Z" fill="#A0A0A0"/>
</g>
<g opacity="0.72">
<path d="M765.072 418.668H747.805V425.585H765.072V418.668Z" fill="#A0A0A0"/>
</g>
<g opacity="0.88">
<path d="M535.533 424.891H518.266V431.808H535.533V424.891Z" fill="#A0A0A0"/>
</g>
<g opacity="0.88">
<path d="M739.611 424.891H722.344V431.808H739.611V424.891Z" fill="#A0A0A0"/>
</g>
<g opacity="0.7">
<path d="M509.799 411.508H492.531V418.425H509.799V411.508Z" fill="#A0A0A0"/>
</g>
<g opacity="0.7">
<path d="M713.885 411.508H696.617V418.425H713.885V411.508Z" fill="#A0A0A0"/>
</g>
<g opacity="0.98">
<path d="M484.33 401.871H467.062V408.788H484.33V401.871Z" fill="#A0A0A0"/>
</g>
<g opacity="0.98">
<path d="M688.408 401.871H671.141V408.788H688.408V401.871Z" fill="#A0A0A0"/>
</g>
<g opacity="0.96">
<path d="M458.58 429.453H441.312V436.37H458.58V429.453Z" fill="#A0A0A0"/>
</g>
<g opacity="0.77">
<path d="M432.822 419.008H415.555V425.925H432.822V419.008Z" fill="#A0A0A0"/>
</g>
<g opacity="0.9">
<path d="M407.346 412.68H390.078V419.597H407.346V412.68Z" fill="#A0A0A0"/>
</g>
<g opacity="0.77">
<path d="M381.619 395.328H364.352V402.245H381.619V395.328Z" fill="#A0A0A0"/>
</g>
<g opacity="0.86">
<path d="M355.877 426.516H338.609V433.433H355.877V426.516Z" fill="#A0A0A0"/>
</g>
<g opacity="0.96">
<path d="M330.4 434.266H313.133V441.183H330.4V434.266Z" fill="#A0A0A0"/>
</g>
<g opacity="0.82">
<path d="M304.658 413.871H287.391V420.788H304.658V413.871Z" fill="#A0A0A0"/>
</g>
<path d="M279.197 416.906H261.93V423.823H279.197V416.906Z" fill="#A0A0A0"/>
<g opacity="0.83">
<path d="M253.431 425.215H236.164V432.132H253.431V425.215Z" fill="#A0A0A0"/>
</g>
<g opacity="0.82">
<path d="M227.705 412.68H210.438V419.597H227.705V412.68Z" fill="#A0A0A0"/>
</g>
<g opacity="0.72">
<path d="M202.228 433.082H184.961V439.999H202.228V433.082Z" fill="#A0A0A0"/>
</g>
<g opacity="0.78">
<path d="M176.486 419.25H159.219V426.167H176.486V419.25Z" fill="#A0A0A0"/>
</g>
<g opacity="0.87">
<path d="M151.017 400.129H133.75V407.046H151.017V400.129Z" fill="#A0A0A0"/>
</g>
<g opacity="0.82">
<path d="M125.267 394.184H108V401.101H125.267V394.184Z" fill="#A0A0A0"/>
</g>
<g opacity="0.49">
<path d="M819.9 365.676H802.633V371.186H819.9V365.676Z" fill="#A0A0A0"/>
</g>
<g opacity="0.4">
<path d="M663.697 352.199H646.43V371.31H663.697V352.199Z" fill="#A0A0A0"/>
</g>
<g opacity="0.4">
<path d="M792.041 352.199H774.773V371.31H792.041V352.199Z" fill="#A0A0A0"/>
</g>
<g opacity="0.43">
<path d="M637.955 358.055H620.688V371.186H637.955V358.055Z" fill="#A0A0A0"/>
</g>
<g opacity="0.31">
<path d="M612.494 343.156H595.227V371.294H612.494V343.156Z" fill="#A0A0A0"/>
</g>
<g opacity="0.6">
<path d="M586.76 316.188H569.492V371.174H586.76V316.188Z" fill="#A0A0A0"/>
</g>
<g opacity="0.6">
<path d="M560.986 336H543.719V371.29H560.986V336Z" fill="#A0A0A0"/>
</g>
<g opacity="0.6">
<path d="M765.072 336H747.805V371.29H765.072V336Z" fill="#A0A0A0"/>
</g>
<g opacity="0.39">
<path d="M535.533 329.797H518.266V371.3H535.533V329.797Z" fill="#A0A0A0"/>
</g>
<g opacity="0.39">
<path d="M739.611 329.797H722.344V371.3H739.611V329.797Z" fill="#A0A0A0"/>
</g>
<g opacity="0.59">
<path d="M509.799 343.156H492.531V371.294H509.799V343.156Z" fill="#A0A0A0"/>
</g>
<g opacity="0.59">
<path d="M713.885 343.156H696.617V371.294H713.885V343.156Z" fill="#A0A0A0"/>
</g>
<g opacity="0.39">
<path d="M484.33 352.789H467.062V371.196H484.33V352.789Z" fill="#A0A0A0"/>
</g>
<g opacity="0.39">
<path d="M688.408 352.789H671.141V371.196H688.408V352.789Z" fill="#A0A0A0"/>
</g>
<g opacity="0.38">
<path d="M458.58 325.23H441.312V371.306H458.58V325.23Z" fill="#A0A0A0"/>
</g>
<g opacity="0.36">
<path d="M432.822 335.66H415.555V371.302H432.822V335.66Z" fill="#A0A0A0"/>
</g>
<g opacity="0.39">
<path d="M407.346 341.965H390.078V371.275H407.346V341.965Z" fill="#A0A0A0"/>
</g>
<g opacity="0.33">
<path d="M381.619 359.234H364.352V371.193H381.619V359.234Z" fill="#A0A0A0"/>
</g>
<g opacity="0.37">
<path d="M355.877 328.137H338.609V371.164H355.877V328.137Z" fill="#A0A0A0"/>
</g>
<g opacity="0.42">
<path d="M330.4 320.434H313.133V371.199H330.4V320.434Z" fill="#A0A0A0"/>
</g>
<g opacity="0.5">
<path d="M304.658 340.703H287.391V371.186H304.658V340.703Z" fill="#A0A0A0"/>
</g>
<g opacity="0.54">
<path d="M279.174 337.781H261.906V371.312H279.174V337.781Z" fill="#A0A0A0"/>
</g>
<g opacity="0.54">
<path d="M253.431 329.316H236.164V371.172H253.431V329.316Z" fill="#A0A0A0"/>
</g>
<g opacity="0.34">
<path d="M227.705 341.965H210.438V371.275H227.705V341.965Z" fill="#A0A0A0"/>
</g>
<g opacity="0.55">
<path d="M202.228 321.594H184.961V371.187H202.228V321.594Z" fill="#A0A0A0"/>
</g>
<g opacity="0.42">
<path d="M176.486 335.438H159.219V371.196H176.486V335.438Z" fill="#A0A0A0"/>
</g>
<g opacity="0.54">
<path d="M151.017 354.52H133.75V371.285H151.017V354.52Z" fill="#A0A0A0"/>
</g>
<g opacity="0.43">
<path d="M125.267 360.523H108V371.192H125.267V360.523Z" fill="#A0A0A0"/>
</g>
<g opacity="0.74">
<path d="M819.9 353.484H802.633V358.995H819.9V353.484Z" fill="#A0A0A0"/>
</g>
<g opacity="0.7">
<path d="M663.697 340H646.43V346.917H663.697V340Z" fill="#A0A0A0"/>
</g>
<g opacity="0.7">
<path d="M792.041 340H774.773V346.917H792.041V340Z" fill="#A0A0A0"/>
</g>
<g opacity="0.73">
<path d="M637.955 345.828H620.688V352.745H637.955V345.828Z" fill="#A0A0A0"/>
</g>
<g opacity="0.73">
<path d="M612.494 330.969H595.227V337.886H612.494V330.969Z" fill="#A0A0A0"/>
</g>
<g opacity="0.73">
<path d="M586.76 304H569.492V310.917H586.76V304Z" fill="#A0A0A0"/>
</g>
<g opacity="0.72">
<path d="M560.986 323.801H543.719V330.718H560.986V323.801Z" fill="#A0A0A0"/>
</g>
<g opacity="0.72">
<path d="M765.072 323.801H747.805V330.718H765.072V323.801Z" fill="#A0A0A0"/>
</g>
<g opacity="0.88">
<path d="M535.533 317.613H518.266V324.531H535.533V317.613Z" fill="#A0A0A0"/>
</g>
<g opacity="0.88">
<path d="M739.611 317.613H722.344V324.531H739.611V317.613Z" fill="#A0A0A0"/>
</g>
<g opacity="0.7">
<path d="M509.799 330.969H492.531V337.886H509.799V330.969Z" fill="#A0A0A0"/>
</g>
<g opacity="0.7">
<path d="M713.885 330.969H696.617V337.886H713.885V330.969Z" fill="#A0A0A0"/>
</g>
<g opacity="0.98">
<path d="M484.33 340.605H467.062V347.523H484.33V340.605Z" fill="#A0A0A0"/>
</g>
<g opacity="0.98">
<path d="M688.408 340.605H671.141V347.523H688.408V340.605Z" fill="#A0A0A0"/>
</g>
<g opacity="0.96">
<path d="M458.58 313.039H441.312V319.956H458.58V313.039Z" fill="#A0A0A0"/>
</g>
<g opacity="0.77">
<path d="M432.822 323.477H415.555V330.394H432.822V323.477Z" fill="#A0A0A0"/>
</g>
<g opacity="0.9">
<path d="M407.346 329.797H390.078V336.714H407.346V329.797Z" fill="#A0A0A0"/>
</g>
<g opacity="0.77">
<path d="M381.619 347.039H364.352V353.956H381.619V347.039Z" fill="#A0A0A0"/>
</g>
<g opacity="0.86">
<path d="M355.877 315.93H338.609V322.847H355.877V315.93Z" fill="#A0A0A0"/>
</g>
<g opacity="0.96">
<path d="M330.4 308.227H313.133V315.144H330.4V308.227Z" fill="#A0A0A0"/>
</g>
<g opacity="0.82">
<path d="M304.658 328.52H287.391V335.437H304.658V328.52Z" fill="#A0A0A0"/>
</g>
<path d="M279.197 325.586H261.93V332.503H279.197V325.586Z" fill="#A0A0A0"/>
<g opacity="0.83">
<path d="M253.431 317.121H236.164V324.038H253.431V317.121Z" fill="#A0A0A0"/>
</g>
<g opacity="0.82">
<path d="M227.705 329.797H210.438V336.714H227.705V329.797Z" fill="#A0A0A0"/>
</g>
<g opacity="0.72">
<path d="M202.228 309.398H184.961V316.316H202.228V309.398Z" fill="#A0A0A0"/>
</g>
<g opacity="0.78">
<path d="M176.486 323.227H159.219V330.144H176.486V323.227Z" fill="#A0A0A0"/>
</g>
<g opacity="0.87">
<path d="M151.017 342.348H133.75V349.265H151.017V342.348Z" fill="#A0A0A0"/>
</g>
<g opacity="0.82">
<path d="M125.267 348.309H108V355.226H125.267V348.309Z" fill="#A0A0A0"/>
</g>
<g opacity="0.36">
<path d="M432.171 377.121H414.938V412.8H432.171V377.121Z" fill="#3A37A6"/>
</g>
<g opacity="0.39">
<path d="M406.749 377.121H389.516V406.462H406.749V377.121Z" fill="#3A37A6"/>
</g>
<g opacity="0.33">
<path d="M381.077 377.121H363.844V389.092H381.077V377.121Z" fill="#3A37A6"/>
</g>
<g opacity="0.37">
<path d="M355.389 377.121H338.156V420.194H355.389V377.121Z" fill="#3A37A6"/>
</g>
<g opacity="0.42">
<path d="M329.96 377.121H312.727V427.94H329.96V377.121Z" fill="#3A37A6"/>
</g>
<g opacity="0.5">
<path d="M304.264 377.121H287.031V407.636H304.264V377.121Z" fill="#3A37A6"/>
</g>
<g opacity="0.54">
<path d="M278.85 377.121H261.617V410.687H278.85V377.121Z" fill="#3A37A6"/>
</g>
<g opacity="0.54">
<path d="M253.131 377.121H235.898V419.02H253.131V377.121Z" fill="#3A37A6"/>
</g>
<g opacity="0.34">
<path d="M227.46 377.121H210.227V406.462H227.46V377.121Z" fill="#3A37A6"/>
</g>
<g opacity="0.55">
<path d="M202.053 377.121H184.82V426.766H202.053V377.121Z" fill="#3A37A6"/>
</g>
<g opacity="0.42">
<path d="M176.335 377.121H159.102V412.917H176.335V377.121Z" fill="#3A37A6"/>
</g>
<g opacity="0.54">
<path d="M150.928 377.121H133.695V393.904H150.928V377.121Z" fill="#3A37A6"/>
</g>
<g opacity="0.43">
<path d="M125.233 377.121H108V387.801H125.233V377.121Z" fill="#3A37A6"/>
</g>
<g opacity="0.77">
<path d="M432.171 417.938H414.938V424.862H432.171V417.938Z" fill="#3A37A6"/>
</g>
<g opacity="0.9">
<path d="M406.749 411.641H389.516V418.565H406.749V411.641Z" fill="#3A37A6"/>
</g>
<g opacity="0.77">
<path d="M381.077 394.262H363.844V401.186H381.077V394.262Z" fill="#3A37A6"/>
</g>
<g opacity="0.86">
<path d="M355.389 425.484H338.156V432.409H355.389V425.484Z" fill="#3A37A6"/>
</g>
<g opacity="0.96">
<path d="M329.96 433.195H312.727V440.12H329.96V433.195Z" fill="#3A37A6"/>
</g>
<g opacity="0.82">
<path d="M304.264 412.781H287.031V419.706H304.264V412.781Z" fill="#3A37A6"/>
</g>
<path d="M278.858 415.852H261.625V422.776H278.858V415.852Z" fill="#3A37A6"/>
<g opacity="0.83">
<path d="M253.131 424.199H235.898V431.124H253.131V424.199Z" fill="#3A37A6"/>
</g>
<g opacity="0.82">
<path d="M227.46 411.641H210.227V418.565H227.46V411.641Z" fill="#3A37A6"/>
</g>
<g opacity="0.72">
<path d="M202.053 432.039H184.82V438.964H202.053V432.039Z" fill="#3A37A6"/>
</g>
<g opacity="0.78">
<path d="M176.335 418.195H159.102V425.12H176.335V418.195Z" fill="#3A37A6"/>
</g>
<g opacity="0.87">
<path d="M150.928 399.094H133.695V406.018H150.928V399.094Z" fill="#3A37A6"/>
</g>
<g opacity="0.82">
<path d="M125.233 393.07H108V399.995H125.233V393.07Z" fill="#3A37A6"/>
</g>
<g opacity="0.36">
<path d="M432.171 334.539H414.938V370.218H432.171V334.539Z" fill="#3A37A6"/>
</g>
<g opacity="0.39">
<path d="M406.749 340.844H389.516V370.185H406.749V340.844Z" fill="#3A37A6"/>
</g>
<g opacity="0.33">
<path d="M381.077 358.086H363.844V370.057H381.077V358.086Z" fill="#3A37A6"/>
</g>
<g opacity="0.37">
<path d="M355.389 327.02H338.156V370.092H355.389V327.02Z" fill="#3A37A6"/>
</g>
<g opacity="0.42">
<path d="M329.96 319.258H312.727V370.077H329.96V319.258Z" fill="#3A37A6"/>
</g>
<g opacity="0.5">
<path d="M304.264 339.57H287.031V370.085H304.264V339.57Z" fill="#3A37A6"/>
</g>
<g opacity="0.54">
<path d="M278.85 336.637H261.617V370.203H278.85V336.637Z" fill="#3A37A6"/>
</g>
<g opacity="0.54">
<path d="M253.131 328.168H235.898V370.067H253.131V328.168Z" fill="#3A37A6"/>
</g>
<g opacity="0.34">
<path d="M227.46 340.844H210.227V370.185H227.46V340.844Z" fill="#3A37A6"/>
</g>
<g opacity="0.55">
<path d="M202.053 320.438H184.82V370.083H202.053V320.438Z" fill="#3A37A6"/>
</g>
<g opacity="0.42">
<path d="M176.335 334.297H159.102V370.093H176.335V334.297Z" fill="#3A37A6"/>
</g>
<g opacity="0.54">
<path d="M150.928 353.453H133.695V370.236H150.928V353.453Z" fill="#3A37A6"/>
</g>
<g opacity="0.43">
<path d="M125.233 359.379H108V370.059H125.233V359.379Z" fill="#3A37A6"/>
</g>
<g opacity="0.77">
<path d="M432.171 322.344H414.938V329.268H432.171V322.344Z" fill="#3A37A6"/>
</g>
<g opacity="0.9">
<path d="M406.749 328.652H389.516V335.577H406.749V328.652Z" fill="#3A37A6"/>
</g>
<g opacity="0.77">
<path d="M381.077 345.895H363.844V352.819H381.077V345.895Z" fill="#3A37A6"/>
</g>
<g opacity="0.86">
<path d="M355.389 314.809H338.156V321.733H355.389V314.809Z" fill="#3A37A6"/>
</g>
<g opacity="0.96">
<path d="M329.96 307.062H312.727V313.987H329.96V307.062Z" fill="#3A37A6"/>
</g>
<path d="M278.858 324.426H261.625V331.35H278.858V324.426Z" fill="#3A37A6"/>
<g opacity="0.83">
<path d="M253.131 315.977H235.898V322.901H253.131V315.977Z" fill="#3A37A6"/>
</g>
<g opacity="0.82">
<path d="M227.46 328.652H210.227V335.577H227.46V328.652Z" fill="#3A37A6"/>
</g>
<g opacity="0.72">
<path d="M202.053 308.238H184.82V315.163H202.053V308.238Z" fill="#3A37A6"/>
</g>
<g opacity="0.78">
<path d="M176.335 322.098H159.102V329.022H176.335V322.098Z" fill="#3A37A6"/>
</g>
<g opacity="0.87">
<path d="M150.928 341.238H133.695V348.163H150.928V341.238Z" fill="#3A37A6"/>
</g>
<g opacity="0.82">
<path d="M125.233 347.223H108V354.147H125.233V347.223Z" fill="#3A37A6"/>
</g>
<g filter="url(#filter1_b_4106_254578)">
<rect x="414" y="325" width="100" height="100" rx="50" fill="url(#paint0_linear_4106_254578)"/>
</g>
<path d="M453.992 374.999V369.892C453.992 363.302 458.65 360.645 464.344 363.923L468.76 366.476L473.177 369.03C478.87 372.308 478.87 377.69 473.177 380.968L468.76 383.522L464.344 386.075C458.65 389.353 453.992 386.662 453.992 380.106V374.999Z" fill="white" stroke="white" stroke-width="1.5" stroke-miterlimit="10" stroke-linecap="round" stroke-linejoin="round"/>
<path d="M464.001 409.505C483.058 409.505 498.507 394.056 498.507 374.999C498.507 355.943 483.058 340.494 464.001 340.494C444.945 340.494 429.496 355.943 429.496 374.999C429.496 394.056 444.945 409.505 464.001 409.505Z" stroke="white" stroke-width="1.5" stroke-linecap="round" stroke-linejoin="round"/>
<defs>
<filter id="filter0_d_4106_254578" x="0" y="0" width="927" height="763" filterUnits="userSpaceOnUse" color-interpolation-filters="sRGB">
<feFlood flood-opacity="0" result="BackgroundImageFix"/>
<feColorMatrix in="SourceAlpha" type="matrix" values="0 0 0 0 0 0 0 0 0 0 0 0 0 0 0 0 0 0 127 0" result="hardAlpha"/>
<feMorphology radius="3" operator="dilate" in="SourceAlpha" result="effect1_dropShadow_4106_254578"/>
<feOffset dy="7"/>
<feGaussianBlur stdDeviation="7"/>
<feComposite in2="hardAlpha" operator="out"/>
<feColorMatrix type="matrix" values="0 0 0 0 0 0 0 0 0 0 0 0 0 0 0 0 0 0 0.03 0"/>
<feBlend mode="normal" in2="BackgroundImageFix" result="effect1_dropShadow_4106_254578"/>
<feBlend mode="normal" in="SourceGraphic" in2="effect1_dropShadow_4106_254578" result="shape"/>
</filter>
<filter id="filter1_b_4106_254578" x="389" y="300" width="150" height="150" filterUnits="userSpaceOnUse" color-interpolation-filters="sRGB">
<feFlood flood-opacity="0" result="BackgroundImageFix"/>
<feGaussianBlur in="BackgroundImageFix" stdDeviation="12.5"/>
<feComposite in2="SourceAlpha" operator="in" result="effect1_backgroundBlur_4106_254578"/>
<feBlend mode="normal" in="SourceGraphic" in2="effect1_backgroundBlur_4106_254578" result="shape"/>
</filter>
<linearGradient id="paint0_linear_4106_254578" x1="414" y1="325" x2="532.851" y2="358.78" gradientUnits="userSpaceOnUse">
<stop offset="0.0303834" stop-color="white" stop-opacity="0.4"/>
<stop offset="0.960276" stop-color="white" stop-opacity="0"/>
</linearGradient>
</defs>
</svg>
