<svg width="30" height="30" viewBox="0 0 30 30" fill="none" xmlns="http://www.w3.org/2000/svg">
<path d="M15.025 3.64062C10.8875 3.64062 7.52499 7.00313 7.52499 11.1406V14.7531C7.52499 15.5156 7.19999 16.6781 6.81249 17.3281L5.37499 19.7156C4.48749 21.1906 5.09999 22.8281 6.72499 23.3781C12.1125 25.1781 17.925 25.1781 23.3125 23.3781C24.825 22.8781 25.4875 21.0906 24.6625 19.7156L23.225 17.3281C22.85 16.6781 22.525 15.5156 22.525 14.7531V11.1406C22.525 7.01563 19.15 3.64062 15.025 3.64062Z" stroke="#262626" stroke-width="1.5" stroke-miterlimit="10" stroke-linecap="round"/>
<path d="M17.3374 3.99687C16.9499 3.88437 16.5499 3.79687 16.1374 3.74687C14.9374 3.59687 13.7874 3.68437 12.7124 3.99687C13.0749 3.07187 13.9749 2.42188 15.0249 2.42188C16.0749 2.42188 16.9749 3.07187 17.3374 3.99687Z" stroke="#262626" stroke-width="1.5" stroke-miterlimit="10" stroke-linecap="round" stroke-linejoin="round"/>
<path d="M18.7749 23.8281C18.7749 25.8906 17.0874 27.5781 15.0249 27.5781C13.9999 27.5781 13.0499 27.1531 12.3749 26.4781C11.6999 25.8031 11.2749 24.8531 11.2749 23.8281" stroke="#262626" stroke-width="1.5" stroke-miterlimit="10"/>
<circle cx="21" cy="5" r="4" fill="#FF5050"/>
</svg>
