<svg width="18" height="18" viewBox="0 0 18 18" fill="none" xmlns="http://www.w3.org/2000/svg">
<path d="M16.4992 13.5281C16.4992 15.8387 14.626 17.7116 12.3154 17.7116C11.4767 17.7116 10.6956 17.4648 10.0407 17.0398C9.60931 16.7598 9.3936 16.6199 9.25464 16.5787C9.11569 16.5376 8.94417 16.5376 8.60114 16.5376H1.90652C1.66901 16.5376 1.47656 16.345 1.47656 16.1078V1.38144C1.47656 1.14394 1.66913 0.95149 1.90652 0.95149H4.97467C5.10569 0.95149 5.21191 0.845272 5.21191 0.714245C5.21191 0.477 5.40448 0.284424 5.64187 0.284424H9.56512C9.80263 0.284424 9.99508 0.476993 9.99508 0.714245C9.99508 0.845272 10.1013 0.95149 10.2323 0.95149H13.3005C13.538 0.95149 13.7304 1.14406 13.7304 1.38144V8.18356C13.7304 8.75307 13.7304 9.03782 13.8276 9.24188C13.9249 9.44594 14.2665 9.72314 14.9499 10.2776C15.9028 11.0508 16.4992 12.2287 16.4992 13.5281ZM11.2794 11.5496C11.8455 11.5496 11.8455 12.4094 11.2794 12.4094H10.4912C9.92506 12.4094 9.92506 11.5496 10.4912 11.5496H11.2794ZM13.3511 15.5067C12.785 15.5067 12.785 14.6467 13.3511 14.6467H14.1393C14.7052 14.6467 14.7052 15.5067 14.1393 15.5067H13.3511ZM13.1715 11.1869C13.4543 10.6986 14.1967 11.128 13.9138 11.6169L11.459 15.869C11.1765 16.3573 10.4336 15.9284 10.7165 15.439L13.1715 11.1869ZM12.3153 10.2041C10.4794 10.2041 8.99106 11.6923 8.99106 13.5283C8.99106 15.3622 10.4775 16.8522 12.3153 16.8522C14.1511 16.8522 15.6391 15.3639 15.6391 13.5283C15.6391 11.6741 14.1331 10.2041 12.3153 10.2041ZM8.13141 13.5283C8.13141 11.2176 10.0047 9.34446 12.3153 9.34446C12.6101 9.34446 12.8704 9.11921 12.8704 8.82433V3.2494C12.8704 2.84191 12.8704 2.63817 12.8119 2.47474C12.7111 2.19293 12.4892 1.97112 12.2074 1.87024C12.044 1.81175 11.8403 1.81175 11.4328 1.81175H11.0162C10.9966 1.81175 10.9868 1.81175 10.9785 1.81188C10.4392 1.82083 10.0042 2.25586 9.99525 2.79515C9.99511 2.80345 9.99511 2.81326 9.99511 2.83287C9.99511 3.07038 9.80254 3.26283 9.56516 3.26283H5.6419C5.40439 3.26283 5.21195 3.07026 5.21195 2.83287C5.21195 2.81326 5.21195 2.80345 5.21181 2.79515C5.20286 2.25586 4.76783 1.82083 4.22854 1.81188C4.22024 1.81175 4.21044 1.81175 4.19082 1.81175H3.77429C3.3668 1.81175 3.16306 1.81175 2.99963 1.87024C2.71782 1.97112 2.49601 2.19293 2.39513 2.47474C2.33664 2.63817 2.33664 2.84191 2.33664 3.2494V13.6784C2.33664 14.6212 2.33664 15.0926 2.62953 15.3855C2.92242 15.6784 3.39383 15.6784 4.33664 15.6784H6.46753C6.98334 15.6784 7.24124 15.6784 7.34844 15.6546C7.8695 15.5387 7.99173 15.4165 8.10758 14.8954C8.13141 14.7882 8.13141 14.3683 8.13141 13.5283ZM9.1353 1.77346C9.1353 1.42593 8.85358 1.14421 8.50605 1.14421H6.70107C6.35354 1.14421 6.07182 1.42593 6.07182 1.77346C6.07182 2.12098 6.35355 2.4027 6.70107 2.4027H8.50605C8.85358 2.4027 9.1353 2.12098 9.1353 1.77346ZM3.60647 10.3122C3.04056 10.3122 3.04056 9.45217 3.60647 9.45217H8.54486C9.11104 9.45217 9.11104 10.3122 8.54486 10.3122H3.60647ZM3.60647 8.85205C3.04056 8.85205 3.04056 7.99227 3.60647 7.99227H11.6002C12.1661 7.99227 12.1661 8.85205 11.6002 8.85205H3.60647Z" fill="#3A37A6"/>
</svg>
