<svg width="128" height="88" viewBox="0 0 128 88" fill="none" xmlns="http://www.w3.org/2000/svg">
<rect width="128" height="88" fill="#F3F2F3"/>
<g clip-path="url(#clip0_221_7147)">
<rect width="1920" height="1080" transform="translate(-1705 -316)" fill="white"/>
<path d="M-1144.5 -135.5H175C180.247 -135.5 184.5 -131.247 184.5 -126V724C184.5 729.247 180.247 733.5 175 733.5H-1144.5V-135.5Z" fill="white" stroke="#EBEBEB"/>
<path d="M-1115.5 -98C-1115.5 -102.142 -1112.14 -105.5 -1108 -105.5H146C150.142 -105.5 153.5 -102.142 153.5 -98V242C153.5 246.142 150.142 249.5 146 249.5H-1108C-1112.14 249.5 -1115.5 246.142 -1115.5 242V-98Z" fill="white" stroke="#EBEBEB"/>
<g filter="url(#filter0_d_221_7147)">
<rect x="14" y="10" width="100" height="60" rx="5" fill="url(#paint0_radial_221_7147)" shape-rendering="crispEdges"/>
</g>
<path d="M59 39.5H70" stroke="white" stroke-width="1.5" stroke-linecap="round" stroke-linejoin="round"/>
<path d="M64.5 45V34" stroke="white" stroke-width="1.5" stroke-linecap="round" stroke-linejoin="round"/>
<path d="M60.375 53.25H68.625C75.5 53.25 78.25 50.5 78.25 43.625V35.375C78.25 28.5 75.5 25.75 68.625 25.75H60.375C53.5 25.75 50.75 28.5 50.75 35.375V43.625C50.75 50.5 53.5 53.25 60.375 53.25Z" stroke="white" stroke-width="1.5" stroke-linecap="round" stroke-linejoin="round"/>
</g>
<rect x="-47099" y="-2496" width="57193" height="6710" stroke="#262626" stroke-width="20"/>
<defs>
<filter id="filter0_d_221_7147" x="0" y="0" width="128" height="88" filterUnits="userSpaceOnUse" color-interpolation-filters="sRGB">
<feFlood flood-opacity="0" result="BackgroundImageFix"/>
<feColorMatrix in="SourceAlpha" type="matrix" values="0 0 0 0 0 0 0 0 0 0 0 0 0 0 0 0 0 0 127 0" result="hardAlpha"/>
<feOffset dy="4"/>
<feGaussianBlur stdDeviation="7"/>
<feComposite in2="hardAlpha" operator="out"/>
<feColorMatrix type="matrix" values="0 0 0 0 0.34902 0 0 0 0 0.341176 0 0 0 0 0.584314 0 0 0 0.15 0"/>
<feBlend mode="normal" in2="BackgroundImageFix" result="effect1_dropShadow_221_7147"/>
<feBlend mode="normal" in="SourceGraphic" in2="effect1_dropShadow_221_7147" result="shape"/>
</filter>
<radialGradient id="paint0_radial_221_7147" cx="0" cy="0" r="1" gradientUnits="userSpaceOnUse" gradientTransform="translate(2.81579 4.47368) rotate(32.3157) scale(100.422 54.3777)">
<stop stop-color="#AEBFF2"/>
<stop offset="1" stop-color="#94A2F2"/>
</radialGradient>
<clipPath id="clip0_221_7147">
<rect width="1920" height="1080" fill="white" transform="translate(-1705 -316)"/>
</clipPath>
</defs>
</svg>
