<svg width="40" height="40" viewBox="0 0 40 40" fill="none" xmlns="http://www.w3.org/2000/svg">
<rect width="40" height="40" fill="#F3F2F3"/>
<g clip-path="url(#clip0_221_7147)">
<rect width="1920" height="1080" transform="translate(-1720 -729)" fill="white"/>
<path d="M-1159.5 -548.5H160C165.247 -548.5 169.5 -544.247 169.5 -539V311C169.5 316.247 165.247 320.5 160 320.5H-1159.5V-548.5Z" fill="white" stroke="#EBEBEB"/>
<rect x="-1130.5" y="-9.5" width="1269" height="79" rx="7.5" fill="white" stroke="#EBEBEB"/>
<path d="M-1122 -318.5H132C136.142 -318.5 139.5 -315.142 139.5 -311V110C139.5 114.142 136.142 117.5 132 117.5H-1122C-1126.14 117.5 -1129.5 114.142 -1129.5 110V-311C-1129.5 -315.142 -1126.14 -318.5 -1122 -318.5Z" fill="white" stroke="#EBEBEB"/>
<rect width="40" height="40" rx="8" fill="#F6DDDD"/>
<path d="M31.732 27.9062L21.7332 10.0312C20.9677 8.65625 19.036 8.65625 18.2653 10.0312L8.2712 27.9062C7.50195 29.2763 8.46006 31 10.0019 31H29.9995C31.5352 31 32.4961 29.2812 31.732 27.9062ZM18.8738 15.6786C18.8738 15.0279 19.3777 14.5 19.9988 14.5C20.6199 14.5 21.1238 15.0304 21.1238 15.6786V21.9643C21.1238 22.615 20.6199 23.1429 20.041 23.1429C19.4621 23.1429 18.8738 22.6174 18.8738 21.9643V15.6786ZM19.9988 27.8571C19.185 27.8571 18.525 27.1657 18.525 26.3132C18.525 25.4607 19.1846 24.7693 19.9988 24.7693C20.8131 24.7693 21.4726 25.4607 21.4726 26.3132C21.4707 27.1647 20.8145 27.8571 19.9988 27.8571Z" fill="#FF0000"/>
</g>
<rect x="-51080" y="-2909" width="57193" height="6710" stroke="#262626" stroke-width="20"/>
<defs>
<clipPath id="clip0_221_7147">
<rect width="1920" height="1080" fill="white" transform="translate(-1720 -729)"/>
</clipPath>
</defs>
</svg>
