<svg width="40" height="40" viewBox="0 0 40 40" fill="none" xmlns="http://www.w3.org/2000/svg">
<rect width="40" height="40" rx="8" fill="#E7EEF9"/>
<path d="M30.7982 26.8573C30.7982 27.2473 30.7116 27.6482 30.5274 28.0382C30.3432 28.4282 30.1049 28.7965 29.7907 29.1432C29.2599 29.7282 28.6749 30.1507 28.0141 30.4215C27.3641 30.6923 26.6599 30.8332 25.9016 30.8332C24.7966 30.8332 23.6157 30.5732 22.3699 30.0423C21.1241 29.5115 19.8782 28.7965 18.6432 27.8973C17.3974 26.9873 16.2166 25.9798 15.0899 24.864C13.9741 23.7373 12.9666 22.5565 12.0674 21.3215C11.1791 20.0865 10.4641 18.8515 9.94406 17.6273C9.42406 16.3923 9.16406 15.2115 9.16406 14.0848C9.16406 13.3482 9.29406 12.644 9.55406 11.994C9.81406 11.3332 10.2257 10.7265 10.7999 10.1848C11.4932 9.50234 12.2516 9.1665 13.0532 9.1665C13.3566 9.1665 13.6599 9.2315 13.9307 9.3615C14.2124 9.4915 14.4616 9.6865 14.6566 9.96817L17.1699 13.5107C17.3649 13.7815 17.5057 14.0307 17.6032 14.269C17.7007 14.4965 17.7549 14.724 17.7549 14.9298C17.7549 15.1898 17.6791 15.4498 17.5274 15.699C17.3866 15.9482 17.1807 16.2082 16.9207 16.4682L16.0974 17.324C15.9782 17.4432 15.9241 17.584 15.9241 17.7573C15.9241 17.844 15.9349 17.9198 15.9566 18.0065C15.9891 18.0932 16.0216 18.1582 16.0432 18.2232C16.2382 18.5807 16.5741 19.0465 17.0507 19.6098C17.5382 20.1732 18.0582 20.7473 18.6216 21.3215C19.2066 21.8957 19.7699 22.4265 20.3441 22.914C20.9074 23.3907 21.3732 23.7157 21.7416 23.9107C21.7957 23.9323 21.8607 23.9648 21.9366 23.9973C22.0232 24.0298 22.1099 24.0407 22.2074 24.0407C22.3916 24.0407 22.5324 23.9757 22.6516 23.8565L23.4749 23.044C23.7457 22.7732 24.0057 22.5673 24.2549 22.4373C24.5041 22.2857 24.7532 22.2098 25.0241 22.2098C25.2299 22.2098 25.4466 22.2532 25.6849 22.3507C25.9232 22.4482 26.1724 22.589 26.4432 22.7732L30.0291 25.319C30.3107 25.514 30.5057 25.7415 30.6249 26.0123C30.7332 26.2832 30.7982 26.554 30.7982 26.8573Z" stroke="#3A37A6" stroke-width="1.5" stroke-miterlimit="10"/>
</svg>
