<svg width="274" height="60" viewBox="0 0 274 60" fill="none" xmlns="http://www.w3.org/2000/svg">
<g clip-path="url(#clip0_689_120498)">
<path d="M67.576 32.8298V30.8096C67.576 30.4729 67.3245 30.3888 66.9892 30.3888C66.9892 30.3888 66.9892 30.3888 66.9053 30.3888C65.7315 30.4729 64.977 30.5571 62.9648 30.5571C61.5395 30.5571 60.1142 29.7154 60.1142 26.6009V23.7389C60.1142 20.5403 61.5395 19.6985 62.9648 19.6985C64.977 19.6985 65.7315 19.7827 66.9053 19.951C66.9892 19.951 66.9892 19.951 66.9892 19.951C67.3245 19.951 67.576 19.7827 67.576 19.446V17.51C67.576 17.0049 67.4084 16.8366 66.9053 16.6682C66.2346 16.4999 64.8931 16.3315 62.9648 16.3315C59.0243 16.3315 56.0898 18.7726 56.0898 23.7389V26.6009C56.0898 31.5672 59.0243 34.0083 62.9648 34.0083C64.8931 34.0083 66.2346 33.7558 66.9053 33.5874C67.4084 33.5032 67.576 33.2507 67.576 32.8298ZM83.6735 33.1665V22.1396C83.6735 18.1834 81.2421 16.3315 76.9662 16.3315C74.8702 16.3315 73.1095 16.4999 71.8519 16.7524C71.4327 16.8366 71.265 17.0891 71.265 17.4258V19.3618C71.265 19.7827 71.5166 19.8669 71.8519 19.8669C71.8519 19.8669 71.9358 19.8669 72.0196 19.8669C73.0257 19.7827 75.0379 19.6143 76.9662 19.6143C78.7269 19.6143 79.6491 20.1194 79.6491 22.1396V23.4864H77.7208C72.4388 23.4864 70.259 25.2541 70.259 28.7894V28.8736C70.259 32.9982 73.0257 34.0083 75.5409 34.0083C77.0501 34.0083 78.4754 33.5032 79.8168 32.6615V33.1665C79.8168 33.5032 80.1522 33.7558 80.4875 33.7558H83.0028C83.3381 33.7558 83.6735 33.5032 83.6735 33.1665ZM79.6491 29.8837C78.7269 30.3888 77.637 30.8096 76.547 30.8096C75.0379 30.8096 74.3672 30.3888 74.3672 28.8736V28.7894C74.3672 27.0218 74.9541 26.18 77.7208 26.18H79.6491V29.8837ZM101.699 33.0824V23.1497C101.699 19.2776 100.777 16.3315 96.4173 16.3315C94.4051 16.3315 93.2314 16.6682 91.4707 17.7625V17.0891C91.4707 16.7524 91.2192 16.4999 90.8838 16.4999H88.2009C87.8656 16.4999 87.614 16.7524 87.614 17.0891V33.0824C87.614 33.4191 87.8656 33.7558 88.2009 33.7558H91.0515C91.3869 33.7558 91.6384 33.4191 91.6384 33.0824V20.7928C92.896 20.1194 94.0698 19.6985 95.0759 19.6985C97.4234 19.6985 97.6749 20.4561 97.6749 23.1497V33.0824C97.6749 33.4191 97.9265 33.7558 98.2618 33.7558H101.029C101.364 33.7558 101.699 33.4191 101.699 33.0824ZM119.222 32.409V11.1127C119.222 10.776 118.971 10.5234 118.635 10.5234H115.868C115.533 10.5234 115.198 10.776 115.198 11.1127V16.4999C114.108 16.3315 113.018 16.3315 112.263 16.3315C107.4 16.3315 105.053 19.1935 105.053 23.9915V26.3484C105.053 31.0622 107.4 34.0083 112.263 34.0083C114.275 34.0083 116.539 33.6716 118.384 33.1665C119.138 32.9982 119.222 32.8298 119.222 32.409ZM115.198 30.4729C114.611 30.5571 113.437 30.7255 112.263 30.7255C109.664 30.7255 109.077 28.7894 109.077 26.3484V23.9915C109.077 21.4662 109.664 19.6143 112.263 19.6143C113.018 19.6143 114.359 19.6985 115.198 19.7827V30.4729ZM137.248 26.3484V23.9073C137.248 19.5302 134.733 16.3315 129.954 16.3315C125.175 16.3315 122.66 19.5302 122.66 23.9073V26.3484C122.66 30.7255 125.175 34.0083 129.954 34.0083C134.733 34.0083 137.248 30.7255 137.248 26.3484ZM133.223 26.3484C133.223 28.8736 132.05 30.4729 129.954 30.4729C127.858 30.4729 126.684 28.8736 126.684 26.3484V23.9073C126.684 21.382 127.858 19.7827 129.954 19.7827C132.05 19.7827 133.223 21.382 133.223 23.9073V26.3484ZM149.489 19.1093V16.9207C149.489 16.584 149.237 16.3315 148.902 16.3315C147.644 16.3315 146.051 16.584 144.542 17.7625V17.0891C144.542 16.7524 144.29 16.4999 143.955 16.4999H141.272C140.937 16.4999 140.685 16.7524 140.685 17.0891V33.0824C140.685 33.4191 140.937 33.7558 141.272 33.7558H144.123C144.458 33.7558 144.71 33.4191 144.71 33.0824V20.7928C145.967 20.1194 147.225 19.6985 148.902 19.6985C149.237 19.6985 149.489 19.446 149.489 19.1093Z" fill="white"/>
<path d="M156.026 33.1652V29.714C156.026 29.3773 155.775 29.1247 155.44 29.1247H152.673C152.337 29.1247 152.086 29.3773 152.086 29.714V33.1652C152.086 33.5019 152.337 33.7544 152.673 33.7544H155.44C155.775 33.7544 156.026 33.5019 156.026 33.1652ZM174.052 17.0035C174.052 16.751 173.801 16.4985 173.549 16.4985H170.531C170.279 16.4985 169.944 16.751 169.86 17.0877L166.926 29.8823C166.842 30.4715 166.59 30.7241 166.339 30.7241C166.171 30.7241 165.92 30.4715 165.836 29.8823L162.901 17.0877C162.818 16.751 162.566 16.4985 162.231 16.4985H159.212C158.961 16.4985 158.709 16.751 158.709 17.0035C158.709 17.0877 158.709 17.1719 158.793 17.1719L162.566 31.145C163.237 33.4177 164.83 34.0069 166.339 34.0069C167.932 34.0069 169.609 33.4177 170.196 31.145L174.052 17.1719C174.052 17.1719 174.052 17.0877 174.052 17.0035ZM180.927 13.6365V10.9429C180.927 10.6062 180.676 10.2695 180.34 10.2695H177.406C177.071 10.2695 176.735 10.6062 176.735 10.9429V13.6365C176.735 13.9732 177.071 14.2258 177.406 14.2258H180.34C180.676 14.2258 180.927 13.9732 180.927 13.6365ZM180.843 33.081V17.0877C180.843 16.751 180.592 16.4985 180.256 16.4985H177.49C177.154 16.4985 176.819 16.751 176.819 17.0877V33.081C176.819 33.4177 177.154 33.7544 177.49 33.7544H180.256C180.592 33.7544 180.843 33.4177 180.843 33.081ZM198.534 32.4076V11.1113C198.534 10.7746 198.282 10.5221 197.947 10.5221H195.096C194.761 10.5221 194.509 10.7746 194.509 11.1113V16.4985C193.42 16.3301 192.33 16.3301 191.575 16.3301C186.712 16.3301 184.281 19.1921 184.281 23.9901V26.347C184.281 31.0608 186.712 34.0069 191.575 34.0069C193.503 34.0069 195.851 33.6702 197.695 33.1652C198.366 32.9968 198.534 32.8285 198.534 32.4076ZM194.509 30.4715C193.923 30.5557 192.665 30.7241 191.575 30.7241C188.976 30.7241 188.305 28.788 188.305 26.347V23.9901C188.305 21.4648 188.976 19.613 191.575 19.613C192.33 19.613 193.671 19.6971 194.509 19.7813V30.4715ZM216.56 25.7577V24.0742C216.56 19.5288 213.961 16.3301 209.265 16.3301C204.654 16.3301 201.971 19.2763 201.971 24.0742V26.347C201.971 32.3234 206.331 34.0069 209.349 34.0069C212.116 34.0069 213.29 33.8386 215.218 33.5019C215.805 33.4177 215.889 33.1652 215.889 32.6601V30.6399C215.889 30.3874 215.637 30.219 215.302 30.219C215.302 30.219 215.302 30.219 215.218 30.219C213.961 30.3032 211.865 30.4715 209.601 30.4715C206.75 30.4715 205.996 28.3672 205.996 26.5995V26.5153H215.889C216.308 26.5153 216.56 26.2628 216.56 25.7577ZM212.451 23.6534H205.996V23.5692C205.996 21.1281 207.421 19.7813 209.265 19.7813C211.194 19.7813 212.451 21.1281 212.451 23.5692V23.6534ZM233.999 26.347V23.9059C233.999 19.5288 231.483 16.3301 226.704 16.3301C221.925 16.3301 219.41 19.5288 219.41 23.9059V26.347C219.41 30.7241 221.925 34.0069 226.704 34.0069C231.483 34.0069 233.999 30.7241 233.999 26.347ZM229.974 26.347C229.974 28.8722 228.884 30.4715 226.704 30.4715C224.608 30.4715 223.435 28.8722 223.435 26.347V23.9059C223.435 21.3806 224.608 19.7813 226.704 19.7813C228.884 19.7813 229.974 21.3806 229.974 23.9059V26.347Z" fill="#94A2F2"/>
<path fill-rule="evenodd" clip-rule="evenodd" d="M19.4511 16.2461C9.05482 20.539 1.34145 30.2192 0 42.172C0 45.034 1.4253 47.5592 3.85668 48.9902C6.37191 50.4212 9.2225 50.4212 11.6539 48.9902C19.2834 42.5087 22.8886 32.5761 21.2956 22.8118C20.9602 20.539 20.2895 18.3505 19.4511 16.2461Z" fill="#94A2F2"/>
<path fill-rule="evenodd" clip-rule="evenodd" d="M21.294 22.8081C22.887 32.5724 19.2819 42.5051 11.6523 48.9865L26.4922 40.4007L41.332 31.8148C43.7634 30.3838 45.1887 27.8586 45.1887 24.9966C45.1887 22.1347 43.7634 19.6936 41.332 18.2626L33.8702 13.9697C28.7559 13.5488 23.8931 14.3906 19.4495 16.2424C20.288 18.3468 20.9587 20.5354 21.294 22.8081Z" fill="#94A2F2"/>
<path fill-rule="evenodd" clip-rule="evenodd" d="M0 42.1712C1.34145 30.2183 9.05482 20.5382 19.4511 16.2453C16.5167 9.42708 10.9832 3.87153 3.85668 1.09375C1.4253 2.52473 0 4.9658 0 7.82776V24.9995V42.1712Z" fill="#AEBFF2"/>
<path fill-rule="evenodd" clip-rule="evenodd" d="M3.85547 1.09276C10.9819 3.87054 16.5154 9.4261 19.4499 16.2443C23.8934 14.3924 28.7562 13.5507 33.8705 13.9716L26.4925 9.67862L11.6527 1.09276C9.22129 -0.338213 6.3707 -0.338213 3.85547 1.09276Z" fill="#CEDEF2"/>
</g>
<line y1="59.5" x2="274" y2="59.5" stroke="#CEDEF2"/>
<path d="M256.963 32.037L271.037 17.9629" stroke="#E7EEF9" stroke-linecap="round" stroke-linejoin="round"/>
<path d="M271.037 32.037L256.963 17.9629" stroke="#E7EEF9" stroke-linecap="round" stroke-linejoin="round"/>
<defs>
<clipPath id="clip0_689_120498">
<rect width="234" height="50" fill="white"/>
</clipPath>
</defs>
</svg>
