<svg width="18" height="18" viewBox="0 0 18 18" fill="none" xmlns="http://www.w3.org/2000/svg">
<path d="M1.49609 6.37451H8.62109" stroke="#3A37A6" stroke-width="1.5" stroke-miterlimit="10" stroke-linecap="round" stroke-linejoin="round"/>
<path d="M4.49609 12.3745H5.99609" stroke="#3A37A6" stroke-width="1.5" stroke-miterlimit="10" stroke-linecap="round" stroke-linejoin="round"/>
<path d="M7.87109 12.3745H10.8711" stroke="#3A37A6" stroke-width="1.5" stroke-miterlimit="10" stroke-linecap="round" stroke-linejoin="round"/>
<path d="M16.4961 9.01811V12.0781C16.4961 14.7106 15.8286 15.3706 13.1661 15.3706H4.82609C2.16359 15.3706 1.49609 14.7106 1.49609 12.0781V5.91311C1.49609 3.28061 2.16359 2.62061 4.82609 2.62061H10.8711" stroke="#3A37A6" stroke-width="1.5" stroke-linecap="round" stroke-linejoin="round"/>
<path d="M14.3082 3.09895L11.5257 5.88145C11.4207 5.98645 11.3157 6.19645 11.2932 6.34645L11.1432 7.41145C11.0907 7.79395 11.3607 8.06395 11.7432 8.01145L12.8082 7.86145C12.9582 7.83895 13.1682 7.73395 13.2732 7.62895L16.0557 4.84645C16.5357 4.36645 16.7607 3.81145 16.0557 3.10645C15.3432 2.39395 14.7882 2.61895 14.3082 3.09895Z" stroke="#3A37A6" stroke-width="1.5" stroke-miterlimit="10" stroke-linecap="round" stroke-linejoin="round"/>
<path d="M13.9102 3.49951C14.1502 4.34701 14.8102 5.00701 15.6502 5.23951" stroke="#3A37A6" stroke-width="1.5" stroke-miterlimit="10" stroke-linecap="round" stroke-linejoin="round"/>
</svg>
