<svg width="114" height="144" viewBox="0 0 114 144" fill="none" xmlns="http://www.w3.org/2000/svg">
<g filter="url(#filter0_d_1517_267976)">
<rect x="17" y="10" width="80" height="110" rx="8" fill="white"/>
<rect x="17.5" y="10.5" width="79" height="109" rx="7.5" stroke="#EBEBEB"/>
</g>
<g opacity="0.49">
<path d="M82.0018 65.2344H80.7891V65.6232H82.0018V65.2344Z" fill="#A0A0A0"/>
</g>
<g opacity="0.4">
<path d="M71.0331 65.2344H69.8203V66.5827H71.0331V65.2344Z" fill="#A0A0A0"/>
</g>
<g opacity="0.4">
<path d="M80.0448 65.2344H78.832V66.5827H80.0448V65.2344Z" fill="#A0A0A0"/>
</g>
<g opacity="0.43">
<path d="M69.2206 65.2344H68.0078V66.1608H69.2206V65.2344Z" fill="#A0A0A0"/>
</g>
<g opacity="0.31">
<path d="M67.4315 65.2344H66.2188V67.2196H67.4315V65.2344Z" fill="#A0A0A0"/>
</g>
<g opacity="0.6">
<path d="M65.6268 65.2344H64.4141V69.1139H65.6268V65.2344Z" fill="#A0A0A0"/>
</g>
<g opacity="0.6">
<path d="M63.8143 65.2344H62.6016V67.7242H63.8143V65.2344Z" fill="#A0A0A0"/>
</g>
<g opacity="0.6">
<path d="M78.1503 65.2344H76.9375V67.7242H78.1503V65.2344Z" fill="#A0A0A0"/>
</g>
<g opacity="0.39">
<path d="M62.0292 65.2344H60.8164V68.1626H62.0292V65.2344Z" fill="#A0A0A0"/>
</g>
<g opacity="0.39">
<path d="M76.3612 65.2344H75.1484V68.1626H76.3612V65.2344Z" fill="#A0A0A0"/>
</g>
<g opacity="0.59">
<path d="M60.2206 65.2344H59.0078V67.2196H60.2206V65.2344Z" fill="#A0A0A0"/>
</g>
<g opacity="0.59">
<path d="M74.5565 65.2344H73.3438V67.2196H74.5565V65.2344Z" fill="#A0A0A0"/>
</g>
<g opacity="0.39">
<path d="M58.4315 65.2344H57.2188V66.5331H58.4315V65.2344Z" fill="#A0A0A0"/>
</g>
<g opacity="0.39">
<path d="M72.7675 65.2344H71.5547V66.5331H72.7675V65.2344Z" fill="#A0A0A0"/>
</g>
<g opacity="0.38">
<path d="M56.6229 65.2344H55.4102V68.4852H56.6229V65.2344Z" fill="#A0A0A0"/>
</g>
<g opacity="0.36">
<path d="M54.8143 65.2344H53.6016V67.749H54.8143V65.2344Z" fill="#A0A0A0"/>
</g>
<g opacity="0.39">
<path d="M53.0253 65.2344H51.8125V67.3024H53.0253V65.2344Z" fill="#A0A0A0"/>
</g>
<g opacity="0.33">
<path d="M51.2206 65.2344H50.0078V66.0781H51.2206V65.2344Z" fill="#A0A0A0"/>
</g>
<g opacity="0.37">
<path d="M49.4081 65.2344H48.1953V68.2702H49.4081V65.2344Z" fill="#A0A0A0"/>
</g>
<g opacity="0.42">
<path d="M47.619 65.2344H46.4062V68.8161H47.619V65.2344Z" fill="#A0A0A0"/>
</g>
<g opacity="0.5">
<path d="M45.8143 65.2344H44.6016V67.3851H45.8143V65.2344Z" fill="#A0A0A0"/>
</g>
<g opacity="0.54">
<path d="M44.0214 65.2344H42.8086V67.6001H44.0214V65.2344Z" fill="#A0A0A0"/>
</g>
<g opacity="0.54">
<path d="M42.2128 65.2344H41V68.1874H42.2128V65.2344Z" fill="#A0A0A0"/>
</g>
<g opacity="0.34">
<path d="M40.4081 65.2344H39.1953V67.3024H40.4081V65.2344Z" fill="#A0A0A0"/>
</g>
<g opacity="0.55">
<path d="M38.619 65.2344H37.4062V68.7334H38.619V65.2344Z" fill="#A0A0A0"/>
</g>
<g opacity="0.42">
<path d="M36.8065 65.2344H35.5938V67.7573H36.8065V65.2344Z" fill="#A0A0A0"/>
</g>
<g opacity="0.54">
<path d="M35.0214 65.2344H33.8086V66.4173H35.0214V65.2344Z" fill="#A0A0A0"/>
</g>
<g opacity="0.43">
<path d="M33.2128 65.2344H32V65.9871H33.2128V65.2344Z" fill="#A0A0A0"/>
</g>
<g opacity="0.74">
<path d="M82.0018 66.1016H80.7891V66.4903H82.0018V66.1016Z" fill="#A0A0A0"/>
</g>
<g opacity="0.7">
<path d="M71.0331 66.9453H69.8203V67.4334H71.0331V66.9453Z" fill="#A0A0A0"/>
</g>
<g opacity="0.7">
<path d="M80.0448 66.9453H78.832V67.4334H80.0448V66.9453Z" fill="#A0A0A0"/>
</g>
<g opacity="0.73">
<path d="M69.2206 66.5391H68.0078V67.0271H69.2206V66.5391Z" fill="#A0A0A0"/>
</g>
<g opacity="0.73">
<path d="M67.4315 67.5859H66.2188V68.074H67.4315V67.5859Z" fill="#A0A0A0"/>
</g>
<g opacity="0.73">
<path d="M65.6268 69.4766H64.4141V69.9646H65.6268V69.4766Z" fill="#A0A0A0"/>
</g>
<g opacity="0.72">
<path d="M63.8143 68.0938H62.6016V68.5818H63.8143V68.0938Z" fill="#A0A0A0"/>
</g>
<g opacity="0.72">
<path d="M78.1503 68.0938H76.9375V68.5818H78.1503V68.0938Z" fill="#A0A0A0"/>
</g>
<g opacity="0.88">
<path d="M62.0292 68.5312H60.8164V69.0193H62.0292V68.5312Z" fill="#A0A0A0"/>
</g>
<g opacity="0.88">
<path d="M76.3612 68.5312H75.1484V69.0193H76.3612V68.5312Z" fill="#A0A0A0"/>
</g>
<g opacity="0.7">
<path d="M60.2206 67.5859H59.0078V68.074H60.2206V67.5859Z" fill="#A0A0A0"/>
</g>
<g opacity="0.7">
<path d="M74.5565 67.5859H73.3438V68.074H74.5565V67.5859Z" fill="#A0A0A0"/>
</g>
<g opacity="0.98">
<path d="M58.4315 66.9062H57.2188V67.3943H58.4315V66.9062Z" fill="#A0A0A0"/>
</g>
<g opacity="0.98">
<path d="M72.7675 66.9062H71.5547V67.3943H72.7675V66.9062Z" fill="#A0A0A0"/>
</g>
<g opacity="0.96">
<path d="M56.6229 68.8516H55.4102V69.3396H56.6229V68.8516Z" fill="#A0A0A0"/>
</g>
<g opacity="0.77">
<path d="M54.8143 68.1172H53.6016V68.6052H54.8143V68.1172Z" fill="#A0A0A0"/>
</g>
<g opacity="0.9">
<path d="M53.0253 67.6719H51.8125V68.1599H53.0253V67.6719Z" fill="#A0A0A0"/>
</g>
<g opacity="0.77">
<path d="M51.2206 66.4453H50.0078V66.9334H51.2206V66.4453Z" fill="#A0A0A0"/>
</g>
<g opacity="0.86">
<path d="M49.4081 68.6406H48.1953V69.1287H49.4081V68.6406Z" fill="#A0A0A0"/>
</g>
<g opacity="0.96">
<path d="M47.619 69.1875H46.4062V69.6755H47.619V69.1875Z" fill="#A0A0A0"/>
</g>
<g opacity="0.82">
<path d="M45.8143 67.75H44.6016V68.238H45.8143V67.75Z" fill="#A0A0A0"/>
</g>
<path d="M44.0253 67.9688H42.8125V68.4568H44.0253V67.9688Z" fill="#A0A0A0"/>
<g opacity="0.83">
<path d="M42.2128 68.5547H41V69.0427H42.2128V68.5547Z" fill="#A0A0A0"/>
</g>
<g opacity="0.82">
<path d="M40.4081 67.6719H39.1953V68.1599H40.4081V67.6719Z" fill="#A0A0A0"/>
</g>
<g opacity="0.72">
<path d="M38.619 69.1094H37.4062V69.5974H38.619V69.1094Z" fill="#A0A0A0"/>
</g>
<g opacity="0.78">
<path d="M36.8065 68.1328H35.5938V68.6209H36.8065V68.1328Z" fill="#A0A0A0"/>
</g>
<g opacity="0.87">
<path d="M35.0214 66.7812H33.8086V67.2693H35.0214V66.7812Z" fill="#A0A0A0"/>
</g>
<g opacity="0.82">
<path d="M33.2128 66.3672H32V66.8552H33.2128V66.3672Z" fill="#A0A0A0"/>
</g>
<g opacity="0.49">
<path d="M82.0018 64.3516H80.7891V64.7403H82.0018V64.3516Z" fill="#A0A0A0"/>
</g>
<g opacity="0.4">
<path d="M71.0331 63.3984H69.8203V64.7468H71.0331V63.3984Z" fill="#A0A0A0"/>
</g>
<g opacity="0.4">
<path d="M80.0448 63.3984H78.832V64.7468H80.0448V63.3984Z" fill="#A0A0A0"/>
</g>
<g opacity="0.43">
<path d="M69.2206 63.8125H68.0078V64.739H69.2206V63.8125Z" fill="#A0A0A0"/>
</g>
<g opacity="0.31">
<path d="M67.4315 62.7578H66.2188V64.7431H67.4315V62.7578Z" fill="#A0A0A0"/>
</g>
<g opacity="0.6">
<path d="M65.6268 60.8594H64.4141V64.7389H65.6268V60.8594Z" fill="#A0A0A0"/>
</g>
<g opacity="0.6">
<path d="M63.8143 62.2578H62.6016V64.7477H63.8143V62.2578Z" fill="#A0A0A0"/>
</g>
<g opacity="0.6">
<path d="M78.1503 62.2578H76.9375V64.7477H78.1503V62.2578Z" fill="#A0A0A0"/>
</g>
<g opacity="0.39">
<path d="M62.0292 61.8203H60.8164V64.7486H62.0292V61.8203Z" fill="#A0A0A0"/>
</g>
<g opacity="0.39">
<path d="M76.3612 61.8203H75.1484V64.7486H76.3612V61.8203Z" fill="#A0A0A0"/>
</g>
<g opacity="0.59">
<path d="M60.2206 62.7578H59.0078V64.7431H60.2206V62.7578Z" fill="#A0A0A0"/>
</g>
<g opacity="0.59">
<path d="M74.5565 62.7578H73.3438V64.7431H74.5565V62.7578Z" fill="#A0A0A0"/>
</g>
<g opacity="0.39">
<path d="M58.4315 63.4453H57.2188V64.744H58.4315V63.4453Z" fill="#A0A0A0"/>
</g>
<g opacity="0.39">
<path d="M72.7675 63.4453H71.5547V64.744H72.7675V63.4453Z" fill="#A0A0A0"/>
</g>
<g opacity="0.38">
<path d="M56.6229 61.5H55.4102V64.7509H56.6229V61.5Z" fill="#A0A0A0"/>
</g>
<g opacity="0.36">
<path d="M54.8143 62.2344H53.6016V64.749H54.8143V62.2344Z" fill="#A0A0A0"/>
</g>
<g opacity="0.39">
<path d="M53.0253 62.6797H51.8125V64.7477H53.0253V62.6797Z" fill="#A0A0A0"/>
</g>
<g opacity="0.33">
<path d="M51.2206 63.8984H50.0078V64.7422H51.2206V63.8984Z" fill="#A0A0A0"/>
</g>
<g opacity="0.37">
<path d="M49.4081 61.7031H48.1953V64.7389H49.4081V61.7031Z" fill="#A0A0A0"/>
</g>
<g opacity="0.42">
<path d="M47.619 61.1641H46.4062V64.7458H47.619V61.1641Z" fill="#A0A0A0"/>
</g>
<g opacity="0.5">
<path d="M45.8143 62.5859H44.6016V64.7366H45.8143V62.5859Z" fill="#A0A0A0"/>
</g>
<g opacity="0.54">
<path d="M44.0214 62.3828H42.8086V64.7486H44.0214V62.3828Z" fill="#A0A0A0"/>
</g>
<g opacity="0.54">
<path d="M42.2128 61.7891H41V64.7421H42.2128V61.7891Z" fill="#A0A0A0"/>
</g>
<g opacity="0.34">
<path d="M40.4081 62.6797H39.1953V64.7477H40.4081V62.6797Z" fill="#A0A0A0"/>
</g>
<g opacity="0.55">
<path d="M38.619 61.2422H37.4062V64.7412H38.619V61.2422Z" fill="#A0A0A0"/>
</g>
<g opacity="0.42">
<path d="M36.8065 62.2188H35.5938V64.7417H36.8065V62.2188Z" fill="#A0A0A0"/>
</g>
<g opacity="0.54">
<path d="M35.0214 63.5625H33.8086V64.7454H35.0214V63.5625Z" fill="#A0A0A0"/>
</g>
<g opacity="0.43">
<path d="M33.2128 63.9922H32V64.7449H33.2128V63.9922Z" fill="#A0A0A0"/>
</g>
<g opacity="0.74">
<path d="M82.0018 63.4922H80.7891V63.881H82.0018V63.4922Z" fill="#A0A0A0"/>
</g>
<g opacity="0.7">
<path d="M71.0331 62.5391H69.8203V63.0271H71.0331V62.5391Z" fill="#A0A0A0"/>
</g>
<g opacity="0.7">
<path d="M80.0448 62.5391H78.832V63.0271H80.0448V62.5391Z" fill="#A0A0A0"/>
</g>
<g opacity="0.73">
<path d="M69.2206 62.9531H68.0078V63.4412H69.2206V62.9531Z" fill="#A0A0A0"/>
</g>
<g opacity="0.73">
<path d="M67.4315 61.9062H66.2188V62.3943H67.4315V61.9062Z" fill="#A0A0A0"/>
</g>
<g opacity="0.73">
<path d="M65.6268 60H64.4141V60.488H65.6268V60Z" fill="#A0A0A0"/>
</g>
<g opacity="0.72">
<path d="M63.8143 61.3984H62.6016V61.8865H63.8143V61.3984Z" fill="#A0A0A0"/>
</g>
<g opacity="0.72">
<path d="M78.1503 61.3984H76.9375V61.8865H78.1503V61.3984Z" fill="#A0A0A0"/>
</g>
<g opacity="0.88">
<path d="M62.0292 60.9609H60.8164V61.449H62.0292V60.9609Z" fill="#A0A0A0"/>
</g>
<g opacity="0.88">
<path d="M76.3612 60.9609H75.1484V61.449H76.3612V60.9609Z" fill="#A0A0A0"/>
</g>
<g opacity="0.7">
<path d="M60.2206 61.9062H59.0078V62.3943H60.2206V61.9062Z" fill="#A0A0A0"/>
</g>
<g opacity="0.7">
<path d="M74.5565 61.9062H73.3438V62.3943H74.5565V61.9062Z" fill="#A0A0A0"/>
</g>
<g opacity="0.98">
<path d="M58.4315 62.5859H57.2188V63.074H58.4315V62.5859Z" fill="#A0A0A0"/>
</g>
<g opacity="0.98">
<path d="M72.7675 62.5859H71.5547V63.074H72.7675V62.5859Z" fill="#A0A0A0"/>
</g>
<g opacity="0.96">
<path d="M56.6229 60.6328H55.4102V61.1209H56.6229V60.6328Z" fill="#A0A0A0"/>
</g>
<g opacity="0.77">
<path d="M54.8143 61.375H53.6016V61.863H54.8143V61.375Z" fill="#A0A0A0"/>
</g>
<g opacity="0.9">
<path d="M53.0253 61.8203H51.8125V62.3084H53.0253V61.8203Z" fill="#A0A0A0"/>
</g>
<g opacity="0.77">
<path d="M51.2206 63.0391H50.0078V63.5271H51.2206V63.0391Z" fill="#A0A0A0"/>
</g>
<g opacity="0.86">
<path d="M49.4081 60.8438H48.1953V61.3318H49.4081V60.8438Z" fill="#A0A0A0"/>
</g>
<g opacity="0.96">
<path d="M47.619 60.2969H46.4062V60.7849H47.619V60.2969Z" fill="#A0A0A0"/>
</g>
<g opacity="0.82">
<path d="M45.8143 61.7266H44.6016V62.2146H45.8143V61.7266Z" fill="#A0A0A0"/>
</g>
<path d="M44.0253 61.5234H42.8125V62.0115H44.0253V61.5234Z" fill="#A0A0A0"/>
<g opacity="0.83">
<path d="M42.2128 60.9219H41V61.4099H42.2128V60.9219Z" fill="#A0A0A0"/>
</g>
<g opacity="0.82">
<path d="M40.4081 61.8203H39.1953V62.3084H40.4081V61.8203Z" fill="#A0A0A0"/>
</g>
<g opacity="0.72">
<path d="M38.619 60.3828H37.4062V60.8709H38.619V60.3828Z" fill="#A0A0A0"/>
</g>
<g opacity="0.78">
<path d="M36.8065 61.3594H35.5938V61.8474H36.8065V61.3594Z" fill="#A0A0A0"/>
</g>
<g opacity="0.87">
<path d="M35.0214 62.7031H33.8086V63.1912H35.0214V62.7031Z" fill="#A0A0A0"/>
</g>
<g opacity="0.82">
<path d="M33.2128 63.125H32V63.613H33.2128V63.125Z" fill="#A0A0A0"/>
</g>
<g opacity="0.36">
<path d="M54.769 65.1641H53.5586V67.6814H54.769V65.1641Z" fill="#3A37A6"/>
</g>
<g opacity="0.39">
<path d="M52.9838 65.1641H51.7734V67.2342H52.9838V65.1641Z" fill="#3A37A6"/>
</g>
<g opacity="0.33">
<path d="M51.1791 65.1641H49.9688V66.0087H51.1791V65.1641Z" fill="#3A37A6"/>
</g>
<g opacity="0.37">
<path d="M49.3744 65.1641H48.1641V68.203H49.3744V65.1641Z" fill="#3A37A6"/>
</g>
<g opacity="0.42">
<path d="M47.5893 65.1641H46.3789V68.7496H47.5893V65.1641Z" fill="#3A37A6"/>
</g>
<g opacity="0.5">
<path d="M45.7846 65.1641H44.5742V67.317H45.7846V65.1641Z" fill="#3A37A6"/>
</g>
<g opacity="0.54">
<path d="M43.9994 65.1641H42.7891V67.5323H43.9994V65.1641Z" fill="#3A37A6"/>
</g>
<g opacity="0.54">
<path d="M42.1947 65.1641H40.9844V68.1202H42.1947V65.1641Z" fill="#3A37A6"/>
</g>
<g opacity="0.34">
<path d="M40.39 65.1641H39.1797V67.2342H40.39V65.1641Z" fill="#3A37A6"/>
</g>
<g opacity="0.55">
<path d="M38.6049 65.1641H37.3945V68.6668H38.6049V65.1641Z" fill="#3A37A6"/>
</g>
<g opacity="0.42">
<path d="M36.8002 65.1641H35.5898V67.6896H36.8002V65.1641Z" fill="#3A37A6"/>
</g>
<g opacity="0.54">
<path d="M35.015 65.1641H33.8047V66.3482H35.015V65.1641Z" fill="#3A37A6"/>
</g>
<g opacity="0.43">
<path d="M33.2104 65.1641H32V65.9176H33.2104V65.1641Z" fill="#3A37A6"/>
</g>
<g opacity="0.77">
<path d="M54.769 68.0391H53.5586V68.5276H54.769V68.0391Z" fill="#3A37A6"/>
</g>
<g opacity="0.9">
<path d="M52.9838 67.6016H51.7734V68.0901H52.9838V67.6016Z" fill="#3A37A6"/>
</g>
<g opacity="0.77">
<path d="M51.1791 66.375H49.9688V66.8636H51.1791V66.375Z" fill="#3A37A6"/>
</g>
<g opacity="0.86">
<path d="M49.3744 68.5703H48.1641V69.0589H49.3744V68.5703Z" fill="#3A37A6"/>
</g>
<g opacity="0.96">
<path d="M47.5893 69.1172H46.3789V69.6057H47.5893V69.1172Z" fill="#3A37A6"/>
</g>
<g opacity="0.82">
<path d="M45.7846 67.6797H44.5742V68.1682H45.7846V67.6797Z" fill="#3A37A6"/>
</g>
<path d="M43.9994 67.8906H42.7891V68.3792H43.9994V67.8906Z" fill="#3A37A6"/>
<g opacity="0.83">
<path d="M42.1947 68.4844H40.9844V68.9729H42.1947V68.4844Z" fill="#3A37A6"/>
</g>
<g opacity="0.82">
<path d="M40.39 67.6016H39.1797V68.0901H40.39V67.6016Z" fill="#3A37A6"/>
</g>
<g opacity="0.72">
<path d="M38.6049 69.0391H37.3945V69.5276H38.6049V69.0391Z" fill="#3A37A6"/>
</g>
<g opacity="0.78">
<path d="M36.8002 68.0625H35.5898V68.5511H36.8002V68.0625Z" fill="#3A37A6"/>
</g>
<g opacity="0.87">
<path d="M35.015 66.7109H33.8047V67.1995H35.015V66.7109Z" fill="#3A37A6"/>
</g>
<g opacity="0.82">
<path d="M33.2104 66.2891H32V66.7776H33.2104V66.2891Z" fill="#3A37A6"/>
</g>
<g opacity="0.36">
<path d="M54.769 62.1562H53.5586V64.6735H54.769V62.1562Z" fill="#3A37A6"/>
</g>
<g opacity="0.39">
<path d="M52.9838 62.6016H51.7734V64.6717H52.9838V62.6016Z" fill="#3A37A6"/>
</g>
<g opacity="0.33">
<path d="M51.1791 63.8203H49.9688V64.6649H51.1791V63.8203Z" fill="#3A37A6"/>
</g>
<g opacity="0.37">
<path d="M49.3744 61.625H48.1641V64.664H49.3744V61.625Z" fill="#3A37A6"/>
</g>
<g opacity="0.42">
<path d="M47.5893 61.0781H46.3789V64.6636H47.5893V61.0781Z" fill="#3A37A6"/>
</g>
<g opacity="0.5">
<path d="M45.7846 62.5078H44.5742V64.6608H45.7846V62.5078Z" fill="#3A37A6"/>
</g>
<g opacity="0.54">
<path d="M43.9994 62.3047H42.7891V64.6729H43.9994V62.3047Z" fill="#3A37A6"/>
</g>
<g opacity="0.54">
<path d="M42.1947 61.7031H40.9844V64.6593H42.1947V61.7031Z" fill="#3A37A6"/>
</g>
<g opacity="0.34">
<path d="M40.39 62.6016H39.1797V64.6717H40.39V62.6016Z" fill="#3A37A6"/>
</g>
<g opacity="0.55">
<path d="M38.6049 61.1641H37.3945V64.6668H38.6049V61.1641Z" fill="#3A37A6"/>
</g>
<g opacity="0.42">
<path d="M36.8002 62.1406H35.5898V64.6662H36.8002V62.1406Z" fill="#3A37A6"/>
</g>
<g opacity="0.54">
<path d="M35.015 63.4922H33.8047V64.6763H35.015V63.4922Z" fill="#3A37A6"/>
</g>
<g opacity="0.43">
<path d="M33.2104 63.9062H32V64.6598H33.2104V63.9062Z" fill="#3A37A6"/>
</g>
<g opacity="0.77">
<path d="M54.769 61.2969H53.5586V61.7854H54.769V61.2969Z" fill="#3A37A6"/>
</g>
<g opacity="0.9">
<path d="M52.9838 61.7422H51.7734V62.2307H52.9838V61.7422Z" fill="#3A37A6"/>
</g>
<g opacity="0.77">
<path d="M51.1791 62.9531H49.9688V63.4417H51.1791V62.9531Z" fill="#3A37A6"/>
</g>
<g opacity="0.86">
<path d="M49.3744 60.7656H48.1641V61.2542H49.3744V60.7656Z" fill="#3A37A6"/>
</g>
<g opacity="0.96">
<path d="M47.5893 60.2188H46.3789V60.7073H47.5893V60.2188Z" fill="#3A37A6"/>
</g>
<path d="M43.9994 61.4453H42.7891V61.9339H43.9994V61.4453Z" fill="#3A37A6"/>
<g opacity="0.83">
<path d="M42.1947 60.8516H40.9844V61.3401H42.1947V60.8516Z" fill="#3A37A6"/>
</g>
<g opacity="0.82">
<path d="M40.39 61.7422H39.1797V62.2307H40.39V61.7422Z" fill="#3A37A6"/>
</g>
<g opacity="0.72">
<path d="M38.6049 60.3047H37.3945V60.7932H38.6049V60.3047Z" fill="#3A37A6"/>
</g>
<g opacity="0.78">
<path d="M36.8002 61.2812H35.5898V61.7698H36.8002V61.2812Z" fill="#3A37A6"/>
</g>
<g opacity="0.87">
<path d="M35.015 62.625H33.8047V63.1136H35.015V62.625Z" fill="#3A37A6"/>
</g>
<g opacity="0.82">
<path d="M33.2104 63.0547H32V63.5432H33.2104V63.0547Z" fill="#3A37A6"/>
</g>
<defs>
<filter id="filter0_d_1517_267976" x="0" y="0" width="114" height="144" filterUnits="userSpaceOnUse" color-interpolation-filters="sRGB">
<feFlood flood-opacity="0" result="BackgroundImageFix"/>
<feColorMatrix in="SourceAlpha" type="matrix" values="0 0 0 0 0 0 0 0 0 0 0 0 0 0 0 0 0 0 127 0" result="hardAlpha"/>
<feMorphology radius="3" operator="dilate" in="SourceAlpha" result="effect1_dropShadow_1517_267976"/>
<feOffset dy="7"/>
<feGaussianBlur stdDeviation="7"/>
<feComposite in2="hardAlpha" operator="out"/>
<feColorMatrix type="matrix" values="0 0 0 0 0 0 0 0 0 0 0 0 0 0 0 0 0 0 0.03 0"/>
<feBlend mode="normal" in2="BackgroundImageFix" result="effect1_dropShadow_1517_267976"/>
<feBlend mode="normal" in="SourceGraphic" in2="effect1_dropShadow_1517_267976" result="shape"/>
</filter>
</defs>
</svg>
