<svg width="18" height="18" viewBox="0 0 18 18" fill="none" xmlns="http://www.w3.org/2000/svg">
<path d="M1.5 6.375H8.625" stroke="#3A37A6" stroke-width="1.5" stroke-miterlimit="10" stroke-linecap="round" stroke-linejoin="round"/>
<path d="M4.5 12.375H6" stroke="#3A37A6" stroke-width="1.5" stroke-miterlimit="10" stroke-linecap="round" stroke-linejoin="round"/>
<path d="M7.875 12.375H10.875" stroke="#3A37A6" stroke-width="1.5" stroke-miterlimit="10" stroke-linecap="round" stroke-linejoin="round"/>
<path d="M16.5 9.01859V12.0786C16.5 14.7111 15.8325 15.3711 13.17 15.3711H4.83C2.1675 15.3711 1.5 14.7111 1.5 12.0786V5.91359C1.5 3.28109 2.1675 2.62109 4.83 2.62109H10.875" stroke="#3A37A6" stroke-width="1.5" stroke-linecap="round" stroke-linejoin="round"/>
<path d="M14.3122 3.09944L11.5297 5.88194C11.4247 5.98694 11.3197 6.19694 11.2972 6.34694L11.1472 7.41194C11.0947 7.79444 11.3647 8.06444 11.7472 8.01194L12.8122 7.86194C12.9622 7.83944 13.1722 7.73444 13.2772 7.62944L16.0597 4.84694C16.5397 4.36694 16.7647 3.81194 16.0597 3.10694C15.3472 2.39444 14.7922 2.61944 14.3122 3.09944Z" stroke="#3A37A6" stroke-width="1.5" stroke-miterlimit="10" stroke-linecap="round" stroke-linejoin="round"/>
<path d="M13.9062 3.5C14.1462 4.3475 14.8063 5.0075 15.6463 5.24" stroke="#3A37A6" stroke-width="1.5" stroke-miterlimit="10" stroke-linecap="round" stroke-linejoin="round"/>
</svg>
