<svg width="18" height="18" viewBox="0 0 18 18" fill="none" xmlns="http://www.w3.org/2000/svg">
<path d="M3.75 7.4989H5.25C6.75 7.4989 7.5 6.7489 7.5 5.2489V3.7489C7.5 2.2489 6.75 1.4989 5.25 1.4989H3.75C2.25 1.4989 1.5 2.2489 1.5 3.7489V5.2489C1.5 6.7489 2.25 7.4989 3.75 7.4989Z" stroke="#3A37A6" stroke-miterlimit="10" stroke-linecap="round" stroke-linejoin="round"/>
<path d="M12.75 7.4989H14.25C15.75 7.4989 16.5 6.7489 16.5 5.2489V3.7489C16.5 2.2489 15.75 1.4989 14.25 1.4989H12.75C11.25 1.4989 10.5 2.2489 10.5 3.7489V5.2489C10.5 6.7489 11.25 7.4989 12.75 7.4989Z" stroke="#3A37A6" stroke-miterlimit="10" stroke-linecap="round" stroke-linejoin="round"/>
<path d="M12.75 16.4989H14.25C15.75 16.4989 16.5 15.7489 16.5 14.2489V12.7489C16.5 11.2489 15.75 10.4989 14.25 10.4989H12.75C11.25 10.4989 10.5 11.2489 10.5 12.7489V14.2489C10.5 15.7489 11.25 16.4989 12.75 16.4989Z" stroke="#3A37A6" stroke-miterlimit="10" stroke-linecap="round" stroke-linejoin="round"/>
<path d="M3.75 16.4989H5.25C6.75 16.4989 7.5 15.7489 7.5 14.2489V12.7489C7.5 11.2489 6.75 10.4989 5.25 10.4989H3.75C2.25 10.4989 1.5 11.2489 1.5 12.7489V14.2489C1.5 15.7489 2.25 16.4989 3.75 16.4989Z" stroke="#3A37A6" stroke-miterlimit="10" stroke-linecap="round" stroke-linejoin="round"/>
</svg>
