<svg width="24" height="20" viewBox="0 0 24 20" fill="none" xmlns="http://www.w3.org/2000/svg">
<path d="M21.7 1H1.9C1.40294 1 1 1.40294 1 1.9V18.1C1 18.5971 1.40294 19 1.9 19H21.7C22.1971 19 22.6 18.5971 22.6 18.1V1.9C22.6 1.40294 22.1971 1 21.7 1Z" stroke="#3A37A6" stroke-width="1.5" stroke-linecap="round" stroke-linejoin="round"/>
<path d="M10.4508 12.2041C10.0129 12.6511 9.45173 12.9575 8.83895 13.0843C8.22618 13.2111 7.58953 13.1525 7.0102 12.9159C6.43086 12.6794 5.9351 12.2757 5.58612 11.7563C5.23715 11.2369 5.05078 10.6254 5.05078 9.9996C5.05078 9.37385 5.23716 8.76228 5.58613 8.24288C5.93511 7.72347 6.43088 7.31978 7.01021 7.08327C7.58955 6.84676 8.2262 6.78816 8.83897 6.91494C9.45174 7.04171 10.0129 7.34812 10.4508 7.79509M18.5508 12.2041C18.1129 12.6511 17.5517 12.9575 16.939 13.0843C16.3262 13.2111 15.6895 13.1525 15.1102 12.9159C14.5309 12.6794 14.0351 12.2757 13.6861 11.7563C13.3371 11.2369 13.1508 10.6254 13.1508 9.9996C13.1508 9.37385 13.3372 8.76228 13.6861 8.24288C14.0351 7.72347 14.5309 7.31978 15.1102 7.08327C15.6895 6.84676 16.3262 6.78816 16.939 6.91494C17.5517 7.04171 18.1129 7.34812 18.5508 7.79509" stroke="#3A37A6" stroke-width="1.5" stroke-linecap="round" stroke-linejoin="round"/>
</svg>
