<svg width="698" height="142" viewBox="0 0 698 142" fill="none" xmlns="http://www.w3.org/2000/svg">
<g opacity="0.49">
<path d="M697.436 74.2266H680.52V79.7369H697.436V74.2266Z" fill="#A0A0A0"/>
</g>
<g opacity="0.4">
<path d="M544.411 74.2266H527.494V93.3369H544.411V74.2266Z" fill="#A0A0A0"/>
</g>
<g opacity="0.4">
<path d="M670.145 74.2266H653.229V93.3369H670.145V74.2266Z" fill="#A0A0A0"/>
</g>
<g opacity="0.43">
<path d="M519.188 74.2266H502.271V87.3576H519.188V74.2266Z" fill="#A0A0A0"/>
</g>
<g opacity="0.31">
<path d="M494.249 74.2266H477.332V102.365H494.249V74.2266Z" fill="#A0A0A0"/>
</g>
<g opacity="0.6">
<path d="M469.032 74.2266H452.115V129.213H469.032V74.2266Z" fill="#A0A0A0"/>
</g>
<g opacity="0.6">
<path d="M443.788 74.2266H426.871V109.516H443.788V74.2266Z" fill="#A0A0A0"/>
</g>
<g opacity="0.6">
<path d="M643.727 74.2266H626.811V109.516H643.727V74.2266Z" fill="#A0A0A0"/>
</g>
<g opacity="0.39">
<path d="M418.848 74.2266H401.932V115.73H418.848V74.2266Z" fill="#A0A0A0"/>
</g>
<g opacity="0.39">
<path d="M618.782 74.2266H601.865V115.73H618.782V74.2266Z" fill="#A0A0A0"/>
</g>
<g opacity="0.59">
<path d="M393.637 74.2266H376.721V102.365H393.637V74.2266Z" fill="#A0A0A0"/>
</g>
<g opacity="0.59">
<path d="M593.577 74.2266H576.66V102.365H593.577V74.2266Z" fill="#A0A0A0"/>
</g>
<g opacity="0.39">
<path d="M368.688 74.2266H351.771V92.6335H368.688V74.2266Z" fill="#A0A0A0"/>
</g>
<g opacity="0.39">
<path d="M568.62 74.2266H551.703V92.6335H568.62V74.2266Z" fill="#A0A0A0"/>
</g>
<g opacity="0.38">
<path d="M343.456 74.2266H326.539V120.302H343.456V74.2266Z" fill="#A0A0A0"/>
</g>
<g opacity="0.36">
<path d="M318.221 74.2266H301.305V109.868H318.221V74.2266Z" fill="#A0A0A0"/>
</g>
<g opacity="0.39">
<path d="M293.27 74.2266H276.354V103.537H293.27V74.2266Z" fill="#A0A0A0"/>
</g>
<g opacity="0.33">
<path d="M268.059 74.2266H251.143V86.1852H268.059V74.2266Z" fill="#A0A0A0"/>
</g>
<g opacity="0.37">
<path d="M242.844 74.2266H225.928V117.254H242.844V74.2266Z" fill="#A0A0A0"/>
</g>
<g opacity="0.42">
<path d="M217.881 74.2266H200.965V124.992H217.881V74.2266Z" fill="#A0A0A0"/>
</g>
<g opacity="0.5">
<path d="M192.665 74.2266H175.748V104.709H192.665V74.2266Z" fill="#A0A0A0"/>
</g>
<g opacity="0.54">
<path d="M167.7 74.2266H150.783V107.758H167.7V74.2266Z" fill="#A0A0A0"/>
</g>
<g opacity="0.54">
<path d="M142.479 74.2266H125.562V116.082H142.479V74.2266Z" fill="#A0A0A0"/>
</g>
<g opacity="0.34">
<path d="M117.272 74.2266H100.355V103.537H117.272V74.2266Z" fill="#A0A0A0"/>
</g>
<g opacity="0.55">
<path d="M92.317 74.2266H75.4004V123.82H92.317V74.2266Z" fill="#A0A0A0"/>
</g>
<g opacity="0.42">
<path d="M67.0924 74.2266H50.1758V109.985H67.0924V74.2266Z" fill="#A0A0A0"/>
</g>
<g opacity="0.54">
<path d="M42.1432 74.2266H25.2266V90.9921H42.1432V74.2266Z" fill="#A0A0A0"/>
</g>
<g opacity="0.43">
<path d="M16.9166 74.2266H0V84.8955H16.9166V74.2266Z" fill="#A0A0A0"/>
</g>
<g opacity="0.74">
<path d="M697.436 86.4258H680.52V91.9361H697.436V86.4258Z" fill="#A0A0A0"/>
</g>
<g opacity="0.7">
<path d="M544.411 98.4844H527.494V105.402H544.411V98.4844Z" fill="#A0A0A0"/>
</g>
<g opacity="0.7">
<path d="M670.145 98.4844H653.229V105.402H670.145V98.4844Z" fill="#A0A0A0"/>
</g>
<g opacity="0.73">
<path d="M519.188 92.6289H502.271V99.5462H519.188V92.6289Z" fill="#A0A0A0"/>
</g>
<g opacity="0.73">
<path d="M494.249 107.508H477.332V114.425H494.249V107.508Z" fill="#A0A0A0"/>
</g>
<g opacity="0.73">
<path d="M469.032 134.336H452.115V141.253H469.032V134.336Z" fill="#A0A0A0"/>
</g>
<g opacity="0.72">
<path d="M443.788 114.668H426.871V121.585H443.788V114.668Z" fill="#A0A0A0"/>
</g>
<g opacity="0.72">
<path d="M643.727 114.668H626.811V121.585H643.727V114.668Z" fill="#A0A0A0"/>
</g>
<g opacity="0.88">
<path d="M418.848 120.891H401.932V127.808H418.848V120.891Z" fill="#A0A0A0"/>
</g>
<g opacity="0.88">
<path d="M618.782 120.891H601.865V127.808H618.782V120.891Z" fill="#A0A0A0"/>
</g>
<g opacity="0.7">
<path d="M393.637 107.508H376.721V114.425H393.637V107.508Z" fill="#A0A0A0"/>
</g>
<g opacity="0.7">
<path d="M593.577 107.508H576.66V114.425H593.577V107.508Z" fill="#A0A0A0"/>
</g>
<g opacity="0.98">
<path d="M368.688 97.8711H351.771V104.788H368.688V97.8711Z" fill="#A0A0A0"/>
</g>
<g opacity="0.98">
<path d="M568.62 97.8711H551.703V104.788H568.62V97.8711Z" fill="#A0A0A0"/>
</g>
<g opacity="0.96">
<path d="M343.456 125.453H326.539V132.37H343.456V125.453Z" fill="#A0A0A0"/>
</g>
<g opacity="0.77">
<path d="M318.227 115.008H301.311V121.925H318.227V115.008Z" fill="#A0A0A0"/>
</g>
<g opacity="0.9">
<path d="M293.27 108.68H276.354V115.597H293.27V108.68Z" fill="#A0A0A0"/>
</g>
<g opacity="0.77">
<path d="M268.059 91.3281H251.143V98.2454H268.059V91.3281Z" fill="#A0A0A0"/>
</g>
<g opacity="0.86">
<path d="M242.844 122.516H225.928V129.433H242.844V122.516Z" fill="#A0A0A0"/>
</g>
<g opacity="0.96">
<path d="M217.881 130.266H200.965V137.183H217.881V130.266Z" fill="#A0A0A0"/>
</g>
<g opacity="0.82">
<path d="M192.665 109.871H175.748V116.788H192.665V109.871Z" fill="#A0A0A0"/>
</g>
<path d="M167.719 112.906H150.803V119.823H167.719V112.906Z" fill="#A0A0A0"/>
<g opacity="0.83">
<path d="M142.479 121.215H125.562V128.132H142.479V121.215Z" fill="#A0A0A0"/>
</g>
<g opacity="0.82">
<path d="M117.272 108.68H100.355V115.597H117.272V108.68Z" fill="#A0A0A0"/>
</g>
<g opacity="0.72">
<path d="M92.317 129.082H75.4004V135.999H92.317V129.082Z" fill="#A0A0A0"/>
</g>
<g opacity="0.78">
<path d="M67.0924 115.25H50.1758V122.167H67.0924V115.25Z" fill="#A0A0A0"/>
</g>
<g opacity="0.87">
<path d="M42.1432 96.1289H25.2266V103.046H42.1432V96.1289Z" fill="#A0A0A0"/>
</g>
<g opacity="0.82">
<path d="M16.9166 90.1836H0V97.1008H16.9166V90.1836Z" fill="#A0A0A0"/>
</g>
<g opacity="0.49">
<path d="M697.436 61.6758H680.52V67.1861H697.436V61.6758Z" fill="#A0A0A0"/>
</g>
<g opacity="0.4">
<path d="M544.411 48.1992H527.494V67.3096H544.411V48.1992Z" fill="#A0A0A0"/>
</g>
<g opacity="0.4">
<path d="M670.145 48.1992H653.229V67.3096H670.145V48.1992Z" fill="#A0A0A0"/>
</g>
<g opacity="0.43">
<path d="M519.188 54.0547H502.271V67.1857H519.188V54.0547Z" fill="#A0A0A0"/>
</g>
<g opacity="0.31">
<path d="M494.249 39.1562H477.332V67.2942H494.249V39.1562Z" fill="#A0A0A0"/>
</g>
<g opacity="0.6">
<path d="M469.032 12.1875H452.115V67.1737H469.032V12.1875Z" fill="#A0A0A0"/>
</g>
<g opacity="0.6">
<path d="M443.788 32H426.871V67.2897H443.788V32Z" fill="#A0A0A0"/>
</g>
<g opacity="0.6">
<path d="M643.727 32H626.811V67.2897H643.727V32Z" fill="#A0A0A0"/>
</g>
<g opacity="0.39">
<path d="M418.848 25.7969H401.932V67.3004H418.848V25.7969Z" fill="#A0A0A0"/>
</g>
<g opacity="0.39">
<path d="M618.782 25.7969H601.865V67.3004H618.782V25.7969Z" fill="#A0A0A0"/>
</g>
<g opacity="0.59">
<path d="M393.637 39.1562H376.721V67.2942H393.637V39.1562Z" fill="#A0A0A0"/>
</g>
<g opacity="0.59">
<path d="M593.577 39.1562H576.66V67.2942H593.577V39.1562Z" fill="#A0A0A0"/>
</g>
<g opacity="0.39">
<path d="M368.688 48.7891H351.771V67.196H368.688V48.7891Z" fill="#A0A0A0"/>
</g>
<g opacity="0.39">
<path d="M568.62 48.7891H551.703V67.196H568.62V48.7891Z" fill="#A0A0A0"/>
</g>
<g opacity="0.38">
<path d="M343.456 21.2305H326.539V67.3064H343.456V21.2305Z" fill="#A0A0A0"/>
</g>
<g opacity="0.36">
<path d="M318.227 31.6602H301.311V67.3016H318.227V31.6602Z" fill="#A0A0A0"/>
</g>
<g opacity="0.39">
<path d="M293.27 37.9648H276.354V67.2752H293.27V37.9648Z" fill="#A0A0A0"/>
</g>
<g opacity="0.33">
<path d="M268.059 55.2344H251.143V67.193H268.059V55.2344Z" fill="#A0A0A0"/>
</g>
<g opacity="0.37">
<path d="M242.844 24.1367H225.928V67.1643H242.844V24.1367Z" fill="#A0A0A0"/>
</g>
<g opacity="0.42">
<path d="M217.881 16.4336H200.965V67.1992H217.881V16.4336Z" fill="#A0A0A0"/>
</g>
<g opacity="0.5">
<path d="M192.665 36.7031H175.748V67.1859H192.665V36.7031Z" fill="#A0A0A0"/>
</g>
<g opacity="0.54">
<path d="M167.7 33.7812H150.783V67.3123H167.7V33.7812Z" fill="#A0A0A0"/>
</g>
<g opacity="0.54">
<path d="M142.479 25.3164H125.562V67.1716H142.479V25.3164Z" fill="#A0A0A0"/>
</g>
<g opacity="0.34">
<path d="M117.272 37.9648H100.355V67.2752H117.272V37.9648Z" fill="#A0A0A0"/>
</g>
<g opacity="0.55">
<path d="M92.317 17.5938H75.4004V67.1869H92.317V17.5938Z" fill="#A0A0A0"/>
</g>
<g opacity="0.42">
<path d="M67.0924 31.4375H50.1758V67.1962H67.0924V31.4375Z" fill="#A0A0A0"/>
</g>
<g opacity="0.54">
<path d="M42.1432 50.5195H25.2266V67.2851H42.1432V50.5195Z" fill="#A0A0A0"/>
</g>
<g opacity="0.43">
<path d="M16.9166 56.5234H0V67.1924H16.9166V56.5234Z" fill="#A0A0A0"/>
</g>
<g opacity="0.74">
<path d="M697.436 49.4844H680.52V54.9947H697.436V49.4844Z" fill="#A0A0A0"/>
</g>
<g opacity="0.7">
<path d="M544.411 36H527.494V42.9172H544.411V36Z" fill="#A0A0A0"/>
</g>
<g opacity="0.7">
<path d="M670.145 36H653.229V42.9172H670.145V36Z" fill="#A0A0A0"/>
</g>
<g opacity="0.73">
<path d="M519.188 41.8281H502.271V48.7454H519.188V41.8281Z" fill="#A0A0A0"/>
</g>
<g opacity="0.73">
<path d="M494.249 26.9688H477.332V33.886H494.249V26.9688Z" fill="#A0A0A0"/>
</g>
<g opacity="0.73">
<path d="M469.032 0H452.115V6.91725H469.032V0Z" fill="#A0A0A0"/>
</g>
<g opacity="0.72">
<path d="M443.788 19.8008H426.871V26.718H443.788V19.8008Z" fill="#A0A0A0"/>
</g>
<g opacity="0.72">
<path d="M643.727 19.8008H626.811V26.718H643.727V19.8008Z" fill="#A0A0A0"/>
</g>
<g opacity="0.88">
<path d="M418.848 13.6133H401.932V20.5305H418.848V13.6133Z" fill="#A0A0A0"/>
</g>
<g opacity="0.88">
<path d="M618.782 13.6133H601.865V20.5305H618.782V13.6133Z" fill="#A0A0A0"/>
</g>
<g opacity="0.7">
<path d="M393.637 26.9688H376.721V33.886H393.637V26.9688Z" fill="#A0A0A0"/>
</g>
<g opacity="0.7">
<path d="M593.577 26.9688H576.66V33.886H593.577V26.9688Z" fill="#A0A0A0"/>
</g>
<g opacity="0.98">
<path d="M368.688 36.6055H351.771V43.5227H368.688V36.6055Z" fill="#A0A0A0"/>
</g>
<g opacity="0.98">
<path d="M568.62 36.6055H551.703V43.5227H568.62V36.6055Z" fill="#A0A0A0"/>
</g>
<g opacity="0.96">
<path d="M343.456 9.03906H326.539V15.9563H343.456V9.03906Z" fill="#A0A0A0"/>
</g>
<g opacity="0.77">
<path d="M318.227 19.4766H301.311V26.3938H318.227V19.4766Z" fill="#A0A0A0"/>
</g>
<g opacity="0.9">
<path d="M293.27 25.7969H276.354V32.7141H293.27V25.7969Z" fill="#A0A0A0"/>
</g>
<g opacity="0.77">
<path d="M268.059 43.0391H251.143V49.9563H268.059V43.0391Z" fill="#A0A0A0"/>
</g>
<g opacity="0.86">
<path d="M242.844 11.9297H225.928V18.8469H242.844V11.9297Z" fill="#A0A0A0"/>
</g>
<g opacity="0.96">
<path d="M217.881 4.22656H200.965V11.1438H217.881V4.22656Z" fill="#A0A0A0"/>
</g>
<g opacity="0.82">
<path d="M192.665 24.5195H175.748V31.4368H192.665V24.5195Z" fill="#A0A0A0"/>
</g>
<path d="M167.719 21.5859H150.803V28.5032H167.719V21.5859Z" fill="#A0A0A0"/>
<g opacity="0.83">
<path d="M142.479 13.1211H125.562V20.0383H142.479V13.1211Z" fill="#A0A0A0"/>
</g>
<g opacity="0.82">
<path d="M117.272 25.7969H100.355V32.7141H117.272V25.7969Z" fill="#A0A0A0"/>
</g>
<g opacity="0.72">
<path d="M92.317 5.39844H75.4004V12.3157H92.317V5.39844Z" fill="#A0A0A0"/>
</g>
<g opacity="0.78">
<path d="M67.0924 19.2266H50.1758V26.1438H67.0924V19.2266Z" fill="#A0A0A0"/>
</g>
<g opacity="0.87">
<path d="M42.1432 38.3477H25.2266V45.2649H42.1432V38.3477Z" fill="#A0A0A0"/>
</g>
<g opacity="0.82">
<path d="M16.9166 44.3086H0V51.2258H16.9166V44.3086Z" fill="#A0A0A0"/>
</g>
<g opacity="0.36">
<path d="M317.582 73.1211H300.699V108.8H317.582V73.1211Z" fill="#3A37A6"/>
</g>
<g opacity="0.39">
<path d="M292.682 73.1211H275.799V102.462H292.682V73.1211Z" fill="#3A37A6"/>
</g>
<g opacity="0.33">
<path d="M267.529 73.1211H250.646V85.0923H267.529V73.1211Z" fill="#3A37A6"/>
</g>
<g opacity="0.37">
<path d="M242.359 73.1211H225.477V116.194H242.359V73.1211Z" fill="#3A37A6"/>
</g>
<g opacity="0.42">
<path d="M217.451 73.1211H200.568V123.94H217.451V73.1211Z" fill="#3A37A6"/>
</g>
<g opacity="0.5">
<path d="M192.277 73.1211H175.395V103.636H192.277V73.1211Z" fill="#3A37A6"/>
</g>
<g opacity="0.54">
<path d="M167.379 73.1211H150.496V106.687H167.379V73.1211Z" fill="#3A37A6"/>
</g>
<g opacity="0.54">
<path d="M142.186 73.1211H125.303V115.02H142.186V73.1211Z" fill="#3A37A6"/>
</g>
<g opacity="0.34">
<path d="M117.035 73.1211H100.152V102.462H117.035V73.1211Z" fill="#3A37A6"/>
</g>
<g opacity="0.55">
<path d="M92.1466 73.1211H75.2637V122.766H92.1466V73.1211Z" fill="#3A37A6"/>
</g>
<g opacity="0.42">
<path d="M66.9454 73.1211H50.0625V108.917H66.9454V73.1211Z" fill="#3A37A6"/>
</g>
<g opacity="0.54">
<path d="M42.0567 73.1211H25.1738V89.9042H42.0567V73.1211Z" fill="#3A37A6"/>
</g>
<g opacity="0.43">
<path d="M16.8829 73.1211H0V83.8012H16.8829V73.1211Z" fill="#3A37A6"/>
</g>
<g opacity="0.77">
<path d="M317.582 113.938H300.699V120.862H317.582V113.938Z" fill="#3A37A6"/>
</g>
<g opacity="0.9">
<path d="M292.682 107.641H275.799V114.565H292.682V107.641Z" fill="#3A37A6"/>
</g>
<g opacity="0.77">
<path d="M267.529 90.2617H250.646V97.1862H267.529V90.2617Z" fill="#3A37A6"/>
</g>
<g opacity="0.86">
<path d="M242.359 121.484H225.477V128.409H242.359V121.484Z" fill="#3A37A6"/>
</g>
<g opacity="0.96">
<path d="M217.451 129.195H200.568V136.12H217.451V129.195Z" fill="#3A37A6"/>
</g>
<g opacity="0.82">
<path d="M192.277 108.781H175.395V115.706H192.277V108.781Z" fill="#3A37A6"/>
</g>
<path d="M167.387 111.852H150.504V118.776H167.387V111.852Z" fill="#3A37A6"/>
<g opacity="0.83">
<path d="M142.186 120.199H125.303V127.124H142.186V120.199Z" fill="#3A37A6"/>
</g>
<g opacity="0.82">
<path d="M117.035 107.641H100.152V114.565H117.035V107.641Z" fill="#3A37A6"/>
</g>
<g opacity="0.72">
<path d="M92.1466 128.039H75.2637V134.964H92.1466V128.039Z" fill="#3A37A6"/>
</g>
<g opacity="0.78">
<path d="M66.9454 114.195H50.0625V121.12H66.9454V114.195Z" fill="#3A37A6"/>
</g>
<g opacity="0.87">
<path d="M42.0567 95.0938H25.1738V102.018H42.0567V95.0938Z" fill="#3A37A6"/>
</g>
<g opacity="0.82">
<path d="M16.8829 89.0703H0V95.9948H16.8829V89.0703Z" fill="#3A37A6"/>
</g>
<g opacity="0.36">
<path d="M317.582 30.5391H300.699V66.2178H317.582V30.5391Z" fill="#3A37A6"/>
</g>
<g opacity="0.39">
<path d="M292.682 36.8438H275.799V66.1848H292.682V36.8438Z" fill="#3A37A6"/>
</g>
<g opacity="0.33">
<path d="M267.529 54.0859H250.646V66.0571H267.529V54.0859Z" fill="#3A37A6"/>
</g>
<g opacity="0.37">
<path d="M242.359 23.0195H225.477V66.0923H242.359V23.0195Z" fill="#3A37A6"/>
</g>
<g opacity="0.42">
<path d="M217.451 15.2578H200.568V66.0766H217.451V15.2578Z" fill="#3A37A6"/>
</g>
<g opacity="0.5">
<path d="M192.277 35.5703H175.395V66.0851H192.277V35.5703Z" fill="#3A37A6"/>
</g>
<g opacity="0.54">
<path d="M167.379 32.6367H150.496V66.2029H167.379V32.6367Z" fill="#3A37A6"/>
</g>
<g opacity="0.54">
<path d="M142.186 24.168H125.303V66.067H142.186V24.168Z" fill="#3A37A6"/>
</g>
<g opacity="0.34">
<path d="M117.035 36.8438H100.152V66.1848H117.035V36.8438Z" fill="#3A37A6"/>
</g>
<g opacity="0.55">
<path d="M92.1466 16.4375H75.2637V66.0826H92.1466V16.4375Z" fill="#3A37A6"/>
</g>
<g opacity="0.42">
<path d="M66.9454 30.2969H50.0625V66.093H66.9454V30.2969Z" fill="#3A37A6"/>
</g>
<g opacity="0.54">
<path d="M42.0567 49.4531H25.1738V66.2362H42.0567V49.4531Z" fill="#3A37A6"/>
</g>
<g opacity="0.43">
<path d="M16.8829 55.3789H0V66.0591H16.8829V55.3789Z" fill="#3A37A6"/>
</g>
<g opacity="0.77">
<path d="M317.582 18.3438H300.699V25.2682H317.582V18.3438Z" fill="#3A37A6"/>
</g>
<g opacity="0.9">
<path d="M292.682 24.6523H275.799V31.5768H292.682V24.6523Z" fill="#3A37A6"/>
</g>
<g opacity="0.77">
<path d="M267.529 41.8945H250.646V48.819H267.529V41.8945Z" fill="#3A37A6"/>
</g>
<g opacity="0.86">
<path d="M242.359 10.8086H225.477V17.7331H242.359V10.8086Z" fill="#3A37A6"/>
</g>
<g opacity="0.96">
<path d="M217.451 3.0625H200.568V9.987H217.451V3.0625Z" fill="#3A37A6"/>
</g>
<path d="M167.387 20.4258H150.504V27.3503H167.387V20.4258Z" fill="#3A37A6"/>
<g opacity="0.83">
<path d="M142.186 11.9766H125.303V18.9011H142.186V11.9766Z" fill="#3A37A6"/>
</g>
<g opacity="0.82">
<path d="M117.035 24.6523H100.152V31.5768H117.035V24.6523Z" fill="#3A37A6"/>
</g>
<g opacity="0.72">
<path d="M92.1466 4.23828H75.2637V11.1628H92.1466V4.23828Z" fill="#3A37A6"/>
</g>
<g opacity="0.78">
<path d="M66.9454 18.0977H50.0625V25.0222H66.9454V18.0977Z" fill="#3A37A6"/>
</g>
<g opacity="0.87">
<path d="M42.0567 37.2383H25.1738V44.1628H42.0567V37.2383Z" fill="#3A37A6"/>
</g>
<g opacity="0.82">
<path d="M16.8829 43.2227H0V50.1472H16.8829V43.2227Z" fill="#3A37A6"/>
</g>
<g filter="url(#filter0_b_3311_254581)">
<rect x="285" y="7" width="128" height="128" rx="64" fill="url(#paint0_linear_3311_254581)"/>
</g>
<path d="M336.189 70.9972V64.4605C336.189 56.0247 342.152 52.6238 349.439 56.8197L355.093 60.088L360.746 63.3563C368.034 67.5522 368.034 74.4421 360.746 78.638L355.093 81.9063L349.439 85.1747C342.152 89.3705 336.189 85.9255 336.189 77.5338V70.9972Z" fill="white" stroke="white" stroke-width="1.5" stroke-miterlimit="10" stroke-linecap="round" stroke-linejoin="round"/>
<path d="M349.001 115.165C373.393 115.165 393.167 95.3913 393.167 70.9987C393.167 46.6061 373.393 26.832 349.001 26.832C324.608 26.832 304.834 46.6061 304.834 70.9987C304.834 95.3913 324.608 115.165 349.001 115.165Z" stroke="white" stroke-width="1.5" stroke-linecap="round" stroke-linejoin="round"/>
<defs>
<filter id="filter0_b_3311_254581" x="260" y="-18" width="178" height="178" filterUnits="userSpaceOnUse" color-interpolation-filters="sRGB">
<feFlood flood-opacity="0" result="BackgroundImageFix"/>
<feGaussianBlur in="BackgroundImageFix" stdDeviation="12.5"/>
<feComposite in2="SourceAlpha" operator="in" result="effect1_backgroundBlur_3311_254581"/>
<feBlend mode="normal" in="SourceGraphic" in2="effect1_backgroundBlur_3311_254581" result="shape"/>
</filter>
<linearGradient id="paint0_linear_3311_254581" x1="285" y1="7" x2="437.129" y2="50.239" gradientUnits="userSpaceOnUse">
<stop offset="0.0303834" stop-color="white" stop-opacity="0.4"/>
<stop offset="0.960276" stop-color="white" stop-opacity="0"/>
</linearGradient>
</defs>
</svg>
