<svg width="31" height="27" viewBox="0 0 31 27" fill="none" xmlns="http://www.w3.org/2000/svg">
<path d="M0.917969 14.0104H9.37628C11.6075 14.0104 13.1388 15.7021 13.1388 17.7729V22.4688C13.1388 24.5396 11.6075 26.2312 9.37628 26.2312H4.68049C2.60966 26.2312 0.917969 24.5396 0.917969 22.4688V14.0104" stroke="#262626" stroke-width="1.5" stroke-linecap="round" stroke-linejoin="round"/>
<path d="M0.917969 14.0103C0.917969 5.18741 2.56593 3.72916 7.52426 0.783325" stroke="#262626" stroke-width="1.5" stroke-linecap="round" stroke-linejoin="round"/>
<path d="M17.8789 14.0104H26.3372C28.5685 14.0104 30.0997 15.7021 30.0997 17.7729V22.4688C30.0997 24.5396 28.5685 26.2312 26.3372 26.2312H21.6414C19.5706 26.2312 17.8789 24.5396 17.8789 22.4688V14.0104" stroke="#262626" stroke-width="1.5" stroke-linecap="round" stroke-linejoin="round"/>
<path d="M17.8789 14.0103C17.8789 5.18741 19.5268 3.72916 24.4851 0.783325" stroke="#262626" stroke-width="1.5" stroke-linecap="round" stroke-linejoin="round"/>
</svg>
