<svg width="40" height="40" viewBox="0 0 40 40" fill="none" xmlns="http://www.w3.org/2000/svg">
<rect width="40" height="40" rx="8" fill="#E7EEF9"/>
<path d="M17 30H23C28 30 30 28 30 23V17C30 12 28 10 23 10H17C12 10 10 12 10 17V23C10 28 12 30 17 30Z" stroke="#3A37A6" stroke-width="1.5" stroke-linecap="round" stroke-linejoin="round"/>
<path d="M26 15.75V22.5C26 21.4 25.1 20.5 24 20.5H16C14.9 20.5 14 21.4 14 22.5V15.75C14 14.65 14.9 13.75 16 13.75H24C25.1 13.75 26 14.65 26 15.75Z" stroke="#3A37A6" stroke-width="1.5" stroke-linecap="round" stroke-linejoin="round"/>
<path d="M27 23.75H26" stroke="#3A37A6" stroke-width="1.5" stroke-linecap="round" stroke-linejoin="round"/>
<path d="M14 23.75H13" stroke="#3A37A6" stroke-width="1.5" stroke-linecap="round" stroke-linejoin="round"/>
<path d="M26 22V19C26 17.9 25.1 17 24 17H16C14.9 17 14 17.9 14 19V22" stroke="#3A37A6" stroke-width="1.5" stroke-linecap="round" stroke-linejoin="round"/>
<path d="M26 22.5V23.75H22.5C22.5 25.13 21.38 26.25 20 26.25C18.62 26.25 17.5 25.13 17.5 23.75H14V22.5C14 21.4 14.9 20.5 16 20.5H24C25.1 20.5 26 21.4 26 22.5Z" stroke="#3A37A6" stroke-width="1.5" stroke-linecap="round" stroke-linejoin="round"/>
</svg>
