<svg width="20" height="20" viewBox="0 0 20 20" fill="none" xmlns="http://www.w3.org/2000/svg">
<path fill-rule="evenodd" clip-rule="evenodd" d="M9.71184 0.833374C14.6245 0.833374 18.6205 4.83737 18.6205 9.75987C18.6205 12.0823 17.731 14.2005 16.2755 15.7902L19.1396 18.654C19.4077 18.9226 19.4086 19.3571 19.1405 19.6257C19.007 19.7613 18.8304 19.8283 18.6547 19.8283C18.48 19.8283 18.3044 19.7613 18.1699 19.6275L15.2712 16.7311C13.7463 17.9547 11.8129 18.6873 9.71184 18.6873C4.79917 18.6873 0.802246 14.6824 0.802246 9.75987C0.802246 4.83737 4.79917 0.833374 9.71184 0.833374ZM9.71184 2.20837C5.55574 2.20837 2.1745 5.59546 2.1745 9.75987C2.1745 13.9243 5.55574 17.3123 9.71184 17.3123C13.867 17.3123 17.2483 13.9243 17.2483 9.75987C17.2483 5.59546 13.867 2.20837 9.71184 2.20837Z" fill="#A0A0A0"/>
</svg>
