<svg width="26" height="26" viewBox="0 0 26 26" fill="none" xmlns="http://www.w3.org/2000/svg">
<path d="M19.5026 2.16669C20.9984 2.16669 22.2109 3.37925 22.2109 4.87502V20.3125C22.2109 20.7612 21.8472 21.125 21.3984 21.125H5.96094C5.96094 21.7233 6.44597 22.2084 7.04427 22.2084H21.3984C21.8472 22.2084 22.2109 22.5721 22.2109 23.0209C22.2109 23.4696 21.8472 23.8334 21.3984 23.8334H7.04427C5.5485 23.8334 4.33594 22.6208 4.33594 21.125V4.87502C4.33594 3.37925 5.5485 2.16669 7.04427 2.16669H19.5026ZM19.5026 3.79169H7.04427C6.44597 3.79169 5.96094 4.27672 5.96094 4.87502V19.5H20.5859V4.87502C20.5859 4.27672 20.1009 3.79169 19.5026 3.79169ZM15.9818 12.4584C16.3931 12.4584 16.7331 12.764 16.7869 13.1606L16.7943 13.2709V13.812C16.7943 14.8959 15.2958 15.7084 13.2734 15.7084C11.3288 15.7084 9.86864 14.9572 9.7592 13.9358L9.7526 13.812V13.2709C9.7526 12.8595 10.0583 12.5196 10.4549 12.4658L10.5651 12.4584H15.9818ZM13.2734 7.58335C14.3208 7.58335 15.1693 8.42687 15.1693 9.47428C15.1693 10.5217 14.3208 11.3708 13.2734 11.3708C12.2261 11.3708 11.3776 10.5217 11.3776 9.47428C11.3776 8.42687 12.2261 7.58335 13.2734 7.58335Z" fill="#3A37A6"/>
</svg>
