<svg width="26" height="26" viewBox="0 0 26 26" fill="none" xmlns="http://www.w3.org/2000/svg">
<path d="M19.5026 2.16663C20.9984 2.16663 22.2109 3.37919 22.2109 4.87496V20.3125C22.2109 20.7612 21.8472 21.125 21.3984 21.125H5.96094C5.96094 21.7233 6.44597 22.2083 7.04427 22.2083H21.3984C21.8472 22.2083 22.2109 22.5721 22.2109 23.0208C22.2109 23.4695 21.8472 23.8333 21.3984 23.8333H7.04427C5.5485 23.8333 4.33594 22.6207 4.33594 21.125V4.87496C4.33594 3.37919 5.5485 2.16663 7.04427 2.16663H19.5026ZM19.5026 3.79163H7.04427C6.44597 3.79163 5.96094 4.27666 5.96094 4.87496V19.5H20.5859V4.87496C20.5859 4.27666 20.1009 3.79163 19.5026 3.79163ZM15.9818 12.4583C16.3931 12.4583 16.7331 12.764 16.7869 13.1605L16.7943 13.2708V13.8119C16.7943 14.8958 15.2958 15.7083 13.2734 15.7083C11.3288 15.7083 9.86864 14.9571 9.7592 13.9357L9.7526 13.8119V13.2708C9.7526 12.8595 10.0583 12.5195 10.4549 12.4657L10.5651 12.4583H15.9818ZM13.2734 7.58329C14.3208 7.58329 15.1693 8.42681 15.1693 9.47422C15.1693 10.5216 14.3208 11.3707 13.2734 11.3707C12.2261 11.3707 11.3776 10.5216 11.3776 9.47422C11.3776 8.42681 12.2261 7.58329 13.2734 7.58329Z" fill="#A0A0A0"/>
</svg>
