<svg width="30" height="30" viewBox="0 0 30 30" fill="none" xmlns="http://www.w3.org/2000/svg">
<rect width="30" height="30" rx="8" fill="#E7EEF9"/>
<path d="M10.332 17.0002V12.3335" stroke="#3A37A6" stroke-linecap="round" stroke-linejoin="round"/>
<path d="M10.4987 21.6668C11.6953 21.6668 12.6654 20.6968 12.6654 19.5002C12.6654 18.3035 11.6953 17.3335 10.4987 17.3335C9.30208 17.3335 8.33203 18.3035 8.33203 19.5002C8.33203 20.6968 9.30208 21.6668 10.4987 21.6668Z" stroke="#3A37A6" stroke-linecap="round" stroke-linejoin="round"/>
<path d="M10.332 12.3335C11.4366 12.3335 12.332 11.4381 12.332 10.3335C12.332 9.22893 11.4366 8.3335 10.332 8.3335C9.22746 8.3335 8.33203 9.22893 8.33203 10.3335C8.33203 11.4381 9.22746 12.3335 10.332 12.3335Z" stroke="#3A37A6" stroke-linecap="round" stroke-linejoin="round"/>
<path d="M19.668 12.3335C20.7725 12.3335 21.668 11.4381 21.668 10.3335C21.668 9.22893 20.7725 8.3335 19.668 8.3335C18.5634 8.3335 17.668 9.22893 17.668 10.3335C17.668 11.4381 18.5634 12.3335 19.668 12.3335Z" stroke="#3A37A6" stroke-linecap="round" stroke-linejoin="round"/>
<path d="M10.4219 17C10.7219 15.8333 11.7885 14.9666 13.0485 14.9733L15.3352 14.98C17.0819 14.9866 18.5685 13.8666 19.1152 12.3066" stroke="#3A37A6" stroke-linecap="round" stroke-linejoin="round"/>
</svg>
