<svg width="20" height="21" viewBox="0 0 20 21" fill="none" xmlns="http://www.w3.org/2000/svg">
<rect width="20" height="21" fill="#F3F2F3"/>
<rect x="-2425" y="-2606" width="27085" height="9976" stroke="#262626" stroke-width="20"/>
<rect x="-16.5" y="-560.5" width="309" height="646" rx="9.5" fill="white" stroke="#EBEBEB"/>
<path d="M6 0V3" stroke="#262626" stroke-width="1.5" stroke-miterlimit="10" stroke-linecap="round" stroke-linejoin="round"/>
<path d="M14 0V3" stroke="#262626" stroke-width="1.5" stroke-miterlimit="10" stroke-linecap="round" stroke-linejoin="round"/>
<path d="M1.5 7.08984H18.5" stroke="#262626" stroke-width="1.5" stroke-miterlimit="10" stroke-linecap="round" stroke-linejoin="round"/>
<path d="M19 6.5V15C19 18 17.5 20 14 20H6C2.5 20 1 18 1 15V6.5C1 3.5 2.5 1.5 6 1.5H14C17.5 1.5 19 3.5 19 6.5Z" stroke="#262626" stroke-width="1.5" stroke-miterlimit="10" stroke-linecap="round" stroke-linejoin="round"/>
<path d="M13.6976 11.6992H13.7066" stroke="#262626" stroke-width="2" stroke-linecap="round" stroke-linejoin="round"/>
<path d="M13.6976 14.6992H13.7066" stroke="#262626" stroke-width="2" stroke-linecap="round" stroke-linejoin="round"/>
<path d="M9.99451 11.6992H10.0035" stroke="#262626" stroke-width="2" stroke-linecap="round" stroke-linejoin="round"/>
<path d="M9.99219 14.6992H10.0012" stroke="#262626" stroke-width="2" stroke-linecap="round" stroke-linejoin="round"/>
<path d="M6.29138 11.6992H6.30036" stroke="#262626" stroke-width="2" stroke-linecap="round" stroke-linejoin="round"/>
<path d="M6.29138 14.6992H6.30036" stroke="#262626" stroke-width="2" stroke-linecap="round" stroke-linejoin="round"/>
<rect x="-16.5" y="-560.5" width="309" height="475" rx="9.5" stroke="#EBEBEB"/>
</svg>
