<svg width="28" height="28" viewBox="0 0 28 28" fill="none" xmlns="http://www.w3.org/2000/svg">
<circle cx="14" cy="14" r="14" fill="#3A37A6"/>
<path d="M10.242 19.14C9.49533 19.14 8.85133 18.9347 8.31 18.524C7.778 18.1133 7.36733 17.5347 7.078 16.788C6.78867 16.032 6.644 15.136 6.644 14.1C6.644 13.064 6.78867 12.1727 7.078 11.426C7.36733 10.67 7.778 10.0867 8.31 9.676C8.85133 9.26533 9.49533 9.06 10.242 9.06C10.9887 9.06 11.6327 9.26533 12.174 9.676C12.7153 10.0867 13.1307 10.67 13.42 11.426C13.7093 12.1727 13.854 13.064 13.854 14.1C13.854 15.136 13.7093 16.032 13.42 16.788C13.1307 17.5347 12.7153 18.1133 12.174 18.524C11.6327 18.9347 10.9887 19.14 10.242 19.14ZM10.242 17.768C10.9233 17.768 11.4507 17.4507 11.824 16.816C12.1973 16.172 12.384 15.2667 12.384 14.1C12.384 12.9333 12.1973 12.0327 11.824 11.398C11.4507 10.754 10.9233 10.432 10.242 10.432C9.56067 10.432 9.03333 10.754 8.66 11.398C8.28667 12.0327 8.1 12.9333 8.1 14.1C8.1 15.2667 8.28667 16.172 8.66 16.816C9.03333 17.4507 9.56067 17.768 10.242 17.768ZM18.0179 19.14C17.3272 19.14 16.7252 18.9813 16.2119 18.664C15.7079 18.3467 15.2319 17.8147 14.7839 17.068L15.9599 16.326C16.1932 16.6713 16.4219 16.956 16.6459 17.18C16.8792 17.3947 17.1172 17.5533 17.3599 17.656C17.6026 17.7587 17.8592 17.81 18.1299 17.81C18.4566 17.81 18.7599 17.7307 19.0399 17.572C19.3199 17.404 19.5439 17.1753 19.7119 16.886C19.8799 16.5967 19.9639 16.27 19.9639 15.906C19.9639 15.542 19.8986 15.234 19.7679 14.982C19.6372 14.7207 19.4459 14.5247 19.1939 14.394C18.9419 14.254 18.6432 14.184 18.2979 14.184C18.1392 14.184 17.9712 14.2027 17.7939 14.24C17.6259 14.268 17.4439 14.3147 17.2479 14.38C17.0519 14.436 16.8372 14.5107 16.6039 14.604L16.1839 13.498L19.2079 10.166L19.5019 10.6H15.3299V9.2H20.9439L21.2239 9.76L18.0179 13.316L17.6679 12.952C17.7426 12.9147 17.8639 12.882 18.0319 12.854C18.2092 12.8167 18.3539 12.798 18.4659 12.798C18.8766 12.798 19.2592 12.8773 19.6139 13.036C19.9779 13.1853 20.2906 13.4 20.5519 13.68C20.8226 13.9507 21.0326 14.2727 21.1819 14.646C21.3406 15.01 21.4199 15.402 21.4199 15.822C21.4199 16.4567 21.2659 17.026 20.9579 17.53C20.6592 18.0247 20.2532 18.4167 19.7399 18.706C19.2266 18.9953 18.6526 19.14 18.0179 19.14Z" fill="white"/>
</svg>
