<svg width="32" height="28" viewBox="0 0 32 28" fill="none" xmlns="http://www.w3.org/2000/svg">
<path d="M1 14.5249H9.69998C11.995 14.5249 13.57 16.2649 13.57 18.3949V23.225C13.57 25.355 11.995 27.0949 9.69998 27.0949H4.87003C2.74003 27.0949 1 25.355 1 23.225V14.5249" stroke="#262626" stroke-width="1.5" stroke-linecap="round" stroke-linejoin="round"/>
<path d="M1 14.525C1 5.44996 2.69504 3.95004 7.79504 0.920044" stroke="#262626" stroke-width="1.5" stroke-linecap="round" stroke-linejoin="round"/>
<path d="M18.4453 14.5249H27.1453C29.4403 14.5249 31.0153 16.2649 31.0153 18.3949V23.225C31.0153 25.355 29.4403 27.0949 27.1453 27.0949H22.3153C20.1853 27.0949 18.4453 25.355 18.4453 23.225V14.5249" stroke="#262626" stroke-width="1.5" stroke-linecap="round" stroke-linejoin="round"/>
<path d="M18.4453 14.525C18.4453 5.44996 20.1403 3.95004 25.2403 0.920044" stroke="#262626" stroke-width="1.5" stroke-linecap="round" stroke-linejoin="round"/>
</svg>
