<svg width="26" height="26" viewBox="0 0 26 26" fill="none" xmlns="http://www.w3.org/2000/svg">
<path d="M16.8817 13C16.8817 15.145 15.1483 16.8784 13.0033 16.8784C10.8583 16.8784 9.125 15.145 9.125 13C9.125 10.855 10.8583 9.1217 13.0033 9.1217C15.1483 9.1217 16.8817 10.855 16.8817 13Z" stroke="#3A37A6" stroke-width="1.5" stroke-linecap="round" stroke-linejoin="round"/>
<path d="M12.9989 21.9592C16.823 21.9592 20.3872 19.7059 22.868 15.8059C23.843 14.2784 23.843 11.7109 22.868 10.1834C20.3872 6.28336 16.823 4.03003 12.9989 4.03003C9.17469 4.03003 5.61052 6.28336 3.12969 10.1834C2.15469 11.7109 2.15469 14.2784 3.12969 15.8059C5.61052 19.7059 9.17469 21.9592 12.9989 21.9592Z" stroke="#3A37A6" stroke-width="1.5" stroke-linecap="round" stroke-linejoin="round"/>
</svg>
