<svg width="40" height="40" viewBox="0 0 40 40" fill="none" xmlns="http://www.w3.org/2000/svg">
<rect width="40" height="40" rx="8" fill="#E7EEF9"/>
<path d="M23.8778 19.9999C23.8778 22.1449 22.1444 23.8782 19.9994 23.8782C17.8544 23.8782 16.1211 22.1449 16.1211 19.9999C16.1211 17.8549 17.8544 16.1216 19.9994 16.1216C22.1444 16.1216 23.8778 17.8549 23.8778 19.9999Z" stroke="#3A37A6" stroke-width="1.5" stroke-linecap="round" stroke-linejoin="round"/>
<path d="M19.9989 28.959C23.823 28.959 27.3872 26.7056 29.868 22.8056C30.843 21.2781 30.843 18.7106 29.868 17.1831C27.3872 13.2831 23.823 11.0298 19.9989 11.0298C16.1747 11.0298 12.6105 13.2831 10.1297 17.1831C9.15469 18.7106 9.15469 21.2781 10.1297 22.8056C12.6105 26.7056 16.1747 28.959 19.9989 28.959Z" stroke="#3A37A6" stroke-width="1.5" stroke-linecap="round" stroke-linejoin="round"/>
</svg>
