<svg width="24" height="24" viewBox="0 0 24 24" fill="none" xmlns="http://www.w3.org/2000/svg">
<path d="M15.5819 12C15.5819 13.98 13.9819 15.58 12.0019 15.58C10.0219 15.58 8.42188 13.98 8.42188 12C8.42188 10.02 10.0219 8.41998 12.0019 8.41998C13.9819 8.41998 15.5819 10.02 15.5819 12Z" stroke="#A0A0A0" stroke-width="1.5" stroke-linecap="round" stroke-linejoin="round"/>
<path d="M12.0037 20.27C15.5337 20.27 18.8238 18.19 21.1138 14.59C22.0138 13.18 22.0138 10.81 21.1138 9.39997C18.8238 5.79997 15.5337 3.71997 12.0037 3.71997C8.47375 3.71997 5.18375 5.79997 2.89375 9.39997C1.99375 10.81 1.99375 13.18 2.89375 14.59C5.18375 18.19 8.47375 20.27 12.0037 20.27Z" stroke="#A0A0A0" stroke-width="1.5" stroke-linecap="round" stroke-linejoin="round"/>
</svg>
