<svg width="40" height="40" viewBox="0 0 40 40" fill="none" xmlns="http://www.w3.org/2000/svg">
<rect width="40" height="40" rx="8" fill="#E7EEF9"/>
<path d="M12.8464 9.27502H27.1464C28.338 9.27502 29.313 10.25 29.313 11.4417V13.825C29.313 14.6917 28.7714 15.775 28.2297 16.3167L23.5714 20.4334C22.9214 20.975 22.488 22.0584 22.488 22.925V27.5834C22.488 28.2334 22.0547 29.1 21.513 29.425L19.9964 30.4C18.588 31.2667 16.638 30.2917 16.638 28.5584V22.8167C16.638 22.0584 16.2047 21.0834 15.7714 20.5417L11.6547 16.2084C11.113 15.6667 10.6797 14.6917 10.6797 14.0417V11.55C10.6797 10.25 11.6547 9.27502 12.8464 9.27502Z" stroke="#3A37A6" stroke-width="1.5" stroke-miterlimit="10" stroke-linecap="round" stroke-linejoin="round"/>
<path d="M18.8408 9.27502L13.5 17.8334" stroke="#3A37A6" stroke-width="1.5" stroke-miterlimit="10" stroke-linecap="round" stroke-linejoin="round"/>
</svg>
