<svg width="24" height="26" viewBox="0 0 24 26" fill="none" xmlns="http://www.w3.org/2000/svg">
<path d="M21.6707 15.4915L21.2707 20.9082C21.1207 22.5657 21.0007 23.8332 18.2907 23.8332H5.71074C3.00074 23.8332 2.88074 22.5657 2.73074 20.9082L2.33074 15.4915C2.25074 14.5923 2.51074 13.7582 2.98074 13.119C2.99074 13.1082 2.99074 13.1082 3.00074 13.0973C3.55074 12.3715 4.38074 11.9165 5.31074 11.9165H18.6907C19.6207 11.9165 20.4407 12.3715 20.9807 13.0757C20.9907 13.0865 21.0007 13.0973 21.0007 13.1082C21.4907 13.7473 21.7607 14.5815 21.6707 15.4915Z" stroke="#3A37A6" stroke-width="1.5" stroke-miterlimit="10"/>
<path d="M3.5 12.3826V6.80339C3.5 3.12005 4.35 2.19922 7.75 2.19922H9.02C10.29 2.19922 10.58 2.61089 11.06 3.30422L12.33 5.14589C12.65 5.60089 12.84 5.88255 13.69 5.88255H16.24C19.64 5.88255 20.49 6.80339 20.49 10.4867V12.4259" stroke="#3A37A6" stroke-width="1.5" stroke-miterlimit="10" stroke-linecap="round" stroke-linejoin="round"/>
<path d="M9.42969 18.4165H14.5697" stroke="#3A37A6" stroke-width="1.5" stroke-miterlimit="10" stroke-linecap="round" stroke-linejoin="round"/>
</svg>
