<svg width="222" height="62" viewBox="0 0 222 62" fill="none" xmlns="http://www.w3.org/2000/svg">
<path d="M222 12C222 7.58172 218.418 4 214 4H16.8222C12.4039 4 8.82222 7.57367 8.82222 11.992C8.82222 21.9128 8.82222 38.1138 8.82222 42.9186C8.82222 50 -6.52777 50 8.82222 50C24.1722 50 23.3195 50 23.3195 50H222V12Z" fill="#E7EEF9"/>
<g opacity="0.49">
<path d="M214.071 29.6172H210.207V30.8715H214.071V29.6172Z" fill="#A0A0A0"/>
</g>
<g opacity="0.4">
<path d="M179.116 29.6172H175.252V33.9672H179.116V29.6172Z" fill="#A0A0A0"/>
</g>
<g opacity="0.4">
<path d="M207.835 29.6172H203.971V33.9672H207.835V29.6172Z" fill="#A0A0A0"/>
</g>
<g opacity="0.43">
<path d="M173.356 29.6172H169.492V32.6062H173.356V29.6172Z" fill="#A0A0A0"/>
</g>
<g opacity="0.31">
<path d="M167.659 29.6172H163.795V36.0221H167.659V29.6172Z" fill="#A0A0A0"/>
</g>
<g opacity="0.6">
<path d="M161.899 29.6172H158.035V42.1335H161.899V29.6172Z" fill="#A0A0A0"/>
</g>
<g opacity="0.6">
<path d="M156.132 29.6172H152.268V37.65H156.132V29.6172Z" fill="#A0A0A0"/>
</g>
<g opacity="0.6">
<path d="M201.804 29.6172H197.939V37.65H201.804V29.6172Z" fill="#A0A0A0"/>
</g>
<g opacity="0.39">
<path d="M150.434 29.6172H146.57V39.0644H150.434V29.6172Z" fill="#A0A0A0"/>
</g>
<g opacity="0.39">
<path d="M196.106 29.6172H192.242V39.0644H196.106V29.6172Z" fill="#A0A0A0"/>
</g>
<g opacity="0.59">
<path d="M144.677 29.6172H140.812V36.0221H144.677V29.6172Z" fill="#A0A0A0"/>
</g>
<g opacity="0.59">
<path d="M190.347 29.6172H186.482V36.0221H190.347V29.6172Z" fill="#A0A0A0"/>
</g>
<g opacity="0.39">
<path d="M138.977 29.6172H135.113V33.8071H138.977V29.6172Z" fill="#A0A0A0"/>
</g>
<g opacity="0.39">
<path d="M184.647 29.6172H180.783V33.8071H184.647V29.6172Z" fill="#A0A0A0"/>
</g>
<g opacity="0.38">
<path d="M133.214 29.6172H129.35V40.1052H133.214V29.6172Z" fill="#A0A0A0"/>
</g>
<g opacity="0.36">
<path d="M127.45 29.6172H123.586V37.7301H127.45V29.6172Z" fill="#A0A0A0"/>
</g>
<g opacity="0.39">
<path d="M121.751 29.6172H117.887V36.289H121.751V29.6172Z" fill="#A0A0A0"/>
</g>
<g opacity="0.33">
<path d="M115.993 29.6172H112.129V32.3393H115.993V29.6172Z" fill="#A0A0A0"/>
</g>
<g opacity="0.37">
<path d="M110.233 29.6172H106.369V39.4114H110.233V29.6172Z" fill="#A0A0A0"/>
</g>
<g opacity="0.42">
<path d="M104.532 29.6172H100.668V41.1727H104.532V29.6172Z" fill="#A0A0A0"/>
</g>
<g opacity="0.5">
<path d="M98.7704 29.6172H94.9062V36.5559H98.7704V29.6172Z" fill="#A0A0A0"/>
</g>
<g opacity="0.54">
<path d="M93.0692 29.6172H89.2051V37.2497H93.0692V29.6172Z" fill="#A0A0A0"/>
</g>
<g opacity="0.54">
<path d="M87.3075 29.6172H83.4434V39.1445H87.3075V29.6172Z" fill="#A0A0A0"/>
</g>
<g opacity="0.34">
<path d="M81.5477 29.6172H77.6836V36.289H81.5477V29.6172Z" fill="#A0A0A0"/>
</g>
<g opacity="0.55">
<path d="M75.8504 29.6172H71.9863V40.9059H75.8504V29.6172Z" fill="#A0A0A0"/>
</g>
<g opacity="0.42">
<path d="M70.0868 29.6172H66.2227V37.7568H70.0868V29.6172Z" fill="#A0A0A0"/>
</g>
<g opacity="0.54">
<path d="M64.3895 29.6172H60.5254V33.4335H64.3895V29.6172Z" fill="#A0A0A0"/>
</g>
<g opacity="0.43">
<path d="M58.6258 29.6172H54.7617V32.0457H58.6258V29.6172Z" fill="#A0A0A0"/>
</g>
<g opacity="0.74">
<path d="M214.071 32.3906H210.207V33.6449H214.071V32.3906Z" fill="#A0A0A0"/>
</g>
<g opacity="0.7">
<path d="M179.116 35.1367H175.252V36.7113H179.116V35.1367Z" fill="#A0A0A0"/>
</g>
<g opacity="0.7">
<path d="M207.835 35.1367H203.971V36.7113H207.835V35.1367Z" fill="#A0A0A0"/>
</g>
<g opacity="0.73">
<path d="M173.356 33.8047H169.492V35.3792H173.356V33.8047Z" fill="#A0A0A0"/>
</g>
<g opacity="0.73">
<path d="M167.659 37.1914H163.795V38.766H167.659V37.1914Z" fill="#A0A0A0"/>
</g>
<g opacity="0.73">
<path d="M161.899 43.2969H158.035V44.8714H161.899V43.2969Z" fill="#A0A0A0"/>
</g>
<g opacity="0.72">
<path d="M156.132 38.8203H152.268V40.3949H156.132V38.8203Z" fill="#A0A0A0"/>
</g>
<g opacity="0.72">
<path d="M201.804 38.8203H197.939V40.3949H201.804V38.8203Z" fill="#A0A0A0"/>
</g>
<g opacity="0.88">
<path d="M150.434 40.2344H146.57V41.8089H150.434V40.2344Z" fill="#A0A0A0"/>
</g>
<g opacity="0.88">
<path d="M196.106 40.2344H192.242V41.8089H196.106V40.2344Z" fill="#A0A0A0"/>
</g>
<g opacity="0.7">
<path d="M144.677 37.1914H140.812V38.766H144.677V37.1914Z" fill="#A0A0A0"/>
</g>
<g opacity="0.7">
<path d="M190.347 37.1914H186.482V38.766H190.347V37.1914Z" fill="#A0A0A0"/>
</g>
<g opacity="0.98">
<path d="M138.977 34.9961H135.113V36.5706H138.977V34.9961Z" fill="#A0A0A0"/>
</g>
<g opacity="0.98">
<path d="M184.647 34.9961H180.783V36.5706H184.647V34.9961Z" fill="#A0A0A0"/>
</g>
<g opacity="0.96">
<path d="M133.214 41.2773H129.35V42.8519H133.214V41.2773Z" fill="#A0A0A0"/>
</g>
<g opacity="0.77">
<path d="M127.452 38.8984H123.588V40.473H127.452V38.8984Z" fill="#A0A0A0"/>
</g>
<g opacity="0.9">
<path d="M121.751 37.457H117.887V39.0316H121.751V37.457Z" fill="#A0A0A0"/>
</g>
<g opacity="0.77">
<path d="M115.993 33.5078H112.129V35.0824H115.993V33.5078Z" fill="#A0A0A0"/>
</g>
<g opacity="0.86">
<path d="M110.233 40.6055H106.369V42.18H110.233V40.6055Z" fill="#A0A0A0"/>
</g>
<g opacity="0.96">
<path d="M104.532 42.3711H100.668V43.9456H104.532V42.3711Z" fill="#A0A0A0"/>
</g>
<g opacity="0.82">
<path d="M98.7704 37.7266H94.9062V39.3011H98.7704V37.7266Z" fill="#A0A0A0"/>
</g>
<path d="M93.0731 38.418H89.209V39.9925H93.0731V38.418Z" fill="#A0A0A0"/>
<g opacity="0.83">
<path d="M87.3075 40.3125H83.4434V41.887H87.3075V40.3125Z" fill="#A0A0A0"/>
</g>
<g opacity="0.82">
<path d="M81.5477 37.457H77.6836V39.0316H81.5477V37.457Z" fill="#A0A0A0"/>
</g>
<g opacity="0.72">
<path d="M75.8504 42.1016H71.9863V43.6761H75.8504V42.1016Z" fill="#A0A0A0"/>
</g>
<g opacity="0.78">
<path d="M70.0868 38.9531H66.2227V40.5277H70.0868V38.9531Z" fill="#A0A0A0"/>
</g>
<g opacity="0.87">
<path d="M64.3895 34.6016H60.5254V36.1761H64.3895V34.6016Z" fill="#A0A0A0"/>
</g>
<g opacity="0.82">
<path d="M58.6258 33.2461H54.7617V34.8206H58.6258V33.2461Z" fill="#A0A0A0"/>
</g>
<g opacity="0.49">
<path d="M214.071 26.7578H210.207V28.0121H214.071V26.7578Z" fill="#A0A0A0"/>
</g>
<g opacity="0.4">
<path d="M179.116 23.6875H175.252V28.0375H179.116V23.6875Z" fill="#A0A0A0"/>
</g>
<g opacity="0.4">
<path d="M207.835 23.6875H203.971V28.0375H207.835V23.6875Z" fill="#A0A0A0"/>
</g>
<g opacity="0.43">
<path d="M173.356 25.0234H169.492V28.0124H173.356V25.0234Z" fill="#A0A0A0"/>
</g>
<g opacity="0.31">
<path d="M167.659 21.6328H163.795V28.0377H167.659V21.6328Z" fill="#A0A0A0"/>
</g>
<g opacity="0.6">
<path d="M161.899 15.4922H158.035V28.0085H161.899V15.4922Z" fill="#A0A0A0"/>
</g>
<g opacity="0.6">
<path d="M156.132 20.0039H152.268V28.0367H156.132V20.0039Z" fill="#A0A0A0"/>
</g>
<g opacity="0.6">
<path d="M201.804 20.0039H197.939V28.0367H201.804V20.0039Z" fill="#A0A0A0"/>
</g>
<g opacity="0.39">
<path d="M150.434 18.5898H146.57V28.0371H150.434V18.5898Z" fill="#A0A0A0"/>
</g>
<g opacity="0.39">
<path d="M196.106 18.5898H192.242V28.0371H196.106V18.5898Z" fill="#A0A0A0"/>
</g>
<g opacity="0.59">
<path d="M144.677 21.6328H140.812V28.0377H144.677V21.6328Z" fill="#A0A0A0"/>
</g>
<g opacity="0.59">
<path d="M190.347 21.6328H186.482V28.0377H190.347V21.6328Z" fill="#A0A0A0"/>
</g>
<g opacity="0.39">
<path d="M138.977 23.8281H135.113V28.018H138.977V23.8281Z" fill="#A0A0A0"/>
</g>
<g opacity="0.39">
<path d="M184.647 23.8281H180.783V28.018H184.647V23.8281Z" fill="#A0A0A0"/>
</g>
<g opacity="0.38">
<path d="M133.214 17.5508H129.35V28.0388H133.214V17.5508Z" fill="#A0A0A0"/>
</g>
<g opacity="0.36">
<path d="M127.452 19.9258H123.588V28.0387H127.452V19.9258Z" fill="#A0A0A0"/>
</g>
<g opacity="0.39">
<path d="M121.751 21.3633H117.887V28.0351H121.751V21.3633Z" fill="#A0A0A0"/>
</g>
<g opacity="0.33">
<path d="M115.993 25.2891H112.129V28.0112H115.993V25.2891Z" fill="#A0A0A0"/>
</g>
<g opacity="0.37">
<path d="M110.233 18.2148H106.369V28.009H110.233V18.2148Z" fill="#A0A0A0"/>
</g>
<g opacity="0.42">
<path d="M104.532 16.4609H100.668V28.0165H104.532V16.4609Z" fill="#A0A0A0"/>
</g>
<g opacity="0.5">
<path d="M98.7704 21.0742H94.9062V28.0129H98.7704V21.0742Z" fill="#A0A0A0"/>
</g>
<g opacity="0.54">
<path d="M93.0692 20.4062H89.2051V28.0388H93.0692V20.4062Z" fill="#A0A0A0"/>
</g>
<g opacity="0.54">
<path d="M87.3075 18.4805H83.4434V28.0078H87.3075V18.4805Z" fill="#A0A0A0"/>
</g>
<g opacity="0.34">
<path d="M81.5477 21.3633H77.6836V28.0351H81.5477V21.3633Z" fill="#A0A0A0"/>
</g>
<g opacity="0.55">
<path d="M75.8504 16.7227H71.9863V28.0113H75.8504V16.7227Z" fill="#A0A0A0"/>
</g>
<g opacity="0.42">
<path d="M70.0868 19.875H66.2227V28.0146H70.0868V19.875Z" fill="#A0A0A0"/>
</g>
<g opacity="0.54">
<path d="M64.3895 24.2188H60.5254V28.035H64.3895V24.2188Z" fill="#A0A0A0"/>
</g>
<g opacity="0.43">
<path d="M58.6258 25.5859H54.7617V28.0145H58.6258V25.5859Z" fill="#A0A0A0"/>
</g>
<g opacity="0.74">
<path d="M214.071 23.9844H210.207V25.2387H214.071V23.9844Z" fill="#A0A0A0"/>
</g>
<g opacity="0.7">
<path d="M179.116 20.9141H175.252V22.4886H179.116V20.9141Z" fill="#A0A0A0"/>
</g>
<g opacity="0.7">
<path d="M207.835 20.9141H203.971V22.4886H207.835V20.9141Z" fill="#A0A0A0"/>
</g>
<g opacity="0.73">
<path d="M173.356 22.2422H169.492V23.8167H173.356V22.2422Z" fill="#A0A0A0"/>
</g>
<g opacity="0.73">
<path d="M167.659 18.8555H163.795V20.43H167.659V18.8555Z" fill="#A0A0A0"/>
</g>
<g opacity="0.73">
<path d="M161.899 12.7188H158.035V14.2933H161.899V12.7188Z" fill="#A0A0A0"/>
</g>
<g opacity="0.72">
<path d="M156.132 17.2227H152.268V18.7972H156.132V17.2227Z" fill="#A0A0A0"/>
</g>
<g opacity="0.72">
<path d="M201.804 17.2227H197.939V18.7972H201.804V17.2227Z" fill="#A0A0A0"/>
</g>
<g opacity="0.88">
<path d="M150.434 15.8164H146.57V17.391H150.434V15.8164Z" fill="#A0A0A0"/>
</g>
<g opacity="0.88">
<path d="M196.106 15.8164H192.242V17.391H196.106V15.8164Z" fill="#A0A0A0"/>
</g>
<g opacity="0.7">
<path d="M144.677 18.8555H140.812V20.43H144.677V18.8555Z" fill="#A0A0A0"/>
</g>
<g opacity="0.7">
<path d="M190.347 18.8555H186.482V20.43H190.347V18.8555Z" fill="#A0A0A0"/>
</g>
<g opacity="0.98">
<path d="M138.977 21.0508H135.113V22.6253H138.977V21.0508Z" fill="#A0A0A0"/>
</g>
<g opacity="0.98">
<path d="M184.647 21.0508H180.783V22.6253H184.647V21.0508Z" fill="#A0A0A0"/>
</g>
<g opacity="0.96">
<path d="M133.214 14.7773H129.35V16.3519H133.214V14.7773Z" fill="#A0A0A0"/>
</g>
<g opacity="0.77">
<path d="M127.452 17.1523H123.588V18.7269H127.452V17.1523Z" fill="#A0A0A0"/>
</g>
<g opacity="0.9">
<path d="M121.751 18.5898H117.887V20.1644H121.751V18.5898Z" fill="#A0A0A0"/>
</g>
<g opacity="0.77">
<path d="M115.993 22.5156H112.129V24.0902H115.993V22.5156Z" fill="#A0A0A0"/>
</g>
<g opacity="0.86">
<path d="M110.233 15.4336H106.369V17.0081H110.233V15.4336Z" fill="#A0A0A0"/>
</g>
<g opacity="0.96">
<path d="M104.532 13.6797H100.668V15.2542H104.532V13.6797Z" fill="#A0A0A0"/>
</g>
<g opacity="0.82">
<path d="M98.7704 18.3008H94.9062V19.8753H98.7704V18.3008Z" fill="#A0A0A0"/>
</g>
<path d="M93.0731 17.6328H89.209V19.2074H93.0731V17.6328Z" fill="#A0A0A0"/>
<g opacity="0.83">
<path d="M87.3075 15.707H83.4434V17.2816H87.3075V15.707Z" fill="#A0A0A0"/>
</g>
<g opacity="0.82">
<path d="M81.5477 18.5898H77.6836V20.1644H81.5477V18.5898Z" fill="#A0A0A0"/>
</g>
<g opacity="0.72">
<path d="M75.8504 13.9453H71.9863V15.5199H75.8504V13.9453Z" fill="#A0A0A0"/>
</g>
<g opacity="0.78">
<path d="M70.0868 17.0938H66.2227V18.6683H70.0868V17.0938Z" fill="#A0A0A0"/>
</g>
<g opacity="0.87">
<path d="M64.3895 21.4492H60.5254V23.0238H64.3895V21.4492Z" fill="#A0A0A0"/>
</g>
<g opacity="0.82">
<path d="M58.6258 22.8047H54.7617V24.3792H58.6258V22.8047Z" fill="#A0A0A0"/>
</g>
<g opacity="0.36">
<path d="M127.306 29.3633H123.449V37.4847H127.306V29.3633Z" fill="#3A37A6"/>
</g>
<g opacity="0.39">
<path d="M121.616 29.3633H117.76V36.0421H121.616V29.3633Z" fill="#3A37A6"/>
</g>
<g opacity="0.33">
<path d="M115.87 29.3633H112.014V32.0882H115.87V29.3633Z" fill="#3A37A6"/>
</g>
<g opacity="0.37">
<path d="M110.122 29.3633H106.266V39.1677H110.122V29.3633Z" fill="#3A37A6"/>
</g>
<g opacity="0.42">
<path d="M104.431 29.3633H100.574V40.9309H104.431V29.3633Z" fill="#3A37A6"/>
</g>
<g opacity="0.5">
<path d="M98.6826 29.3633H94.8262V36.3092H98.6826V29.3633Z" fill="#3A37A6"/>
</g>
<g opacity="0.54">
<path d="M92.9931 29.3633H89.1367V37.0038H92.9931V29.3633Z" fill="#3A37A6"/>
</g>
<g opacity="0.54">
<path d="M87.2412 29.3633H83.3848V38.9006H87.2412V29.3633Z" fill="#3A37A6"/>
</g>
<g opacity="0.34">
<path d="M81.4951 29.3633H77.6387V36.0421H81.4951V29.3633Z" fill="#3A37A6"/>
</g>
<g opacity="0.55">
<path d="M75.8095 29.3633H71.9531V40.6638H75.8095V29.3633Z" fill="#3A37A6"/>
</g>
<g opacity="0.42">
<path d="M70.0537 29.3633H66.1973V37.5114H70.0537V29.3633Z" fill="#3A37A6"/>
</g>
<g opacity="0.54">
<path d="M64.3701 29.3633H60.5137V33.1835H64.3701V29.3633Z" fill="#3A37A6"/>
</g>
<g opacity="0.43">
<path d="M58.6181 29.3633H54.7617V31.7944H58.6181V29.3633Z" fill="#3A37A6"/>
</g>
<g opacity="0.77">
<path d="M127.306 38.6562H123.449V40.2324H127.306V38.6562Z" fill="#3A37A6"/>
</g>
<g opacity="0.9">
<path d="M121.616 37.2227H117.76V38.7989H121.616V37.2227Z" fill="#3A37A6"/>
</g>
<g opacity="0.77">
<path d="M115.87 33.2656H112.014V34.8418H115.87V33.2656Z" fill="#3A37A6"/>
</g>
<g opacity="0.86">
<path d="M110.122 40.375H106.266V41.9512H110.122V40.375Z" fill="#3A37A6"/>
</g>
<g opacity="0.96">
<path d="M104.431 42.1289H100.574V43.7051H104.431V42.1289Z" fill="#3A37A6"/>
</g>
<g opacity="0.82">
<path d="M98.6826 37.4805H94.8262V39.0567H98.6826V37.4805Z" fill="#3A37A6"/>
</g>
<path d="M92.997 38.1797H89.1406V39.7559H92.997V38.1797Z" fill="#3A37A6"/>
<g opacity="0.83">
<path d="M87.2412 40.0781H83.3848V41.6543H87.2412V40.0781Z" fill="#3A37A6"/>
</g>
<g opacity="0.82">
<path d="M81.4951 37.2227H77.6387V38.7989H81.4951V37.2227Z" fill="#3A37A6"/>
</g>
<g opacity="0.72">
<path d="M75.8095 41.8672H71.9531V43.4434H75.8095V41.8672Z" fill="#3A37A6"/>
</g>
<g opacity="0.78">
<path d="M70.0537 38.7148H66.1973V40.291H70.0537V38.7148Z" fill="#3A37A6"/>
</g>
<g opacity="0.87">
<path d="M64.3701 34.3633H60.5137V35.9395H64.3701V34.3633Z" fill="#3A37A6"/>
</g>
<g opacity="0.82">
<path d="M58.6181 32.9961H54.7617V34.5723H58.6181V32.9961Z" fill="#3A37A6"/>
</g>
<g opacity="0.36">
<path d="M127.306 19.6719H123.449V27.7933H127.306V19.6719Z" fill="#3A37A6"/>
</g>
<g opacity="0.39">
<path d="M121.616 21.1055H117.76V27.7843H121.616V21.1055Z" fill="#3A37A6"/>
</g>
<g opacity="0.33">
<path d="M115.87 25.0312H112.014V27.7562H115.87V25.0312Z" fill="#3A37A6"/>
</g>
<g opacity="0.37">
<path d="M110.122 17.9609H106.266V27.7654H110.122V17.9609Z" fill="#3A37A6"/>
</g>
<g opacity="0.42">
<path d="M104.431 16.1914H100.574V27.7591H104.431V16.1914Z" fill="#3A37A6"/>
</g>
<g opacity="0.5">
<path d="M98.6826 20.8164H94.8262V27.7623H98.6826V20.8164Z" fill="#3A37A6"/>
</g>
<g opacity="0.54">
<path d="M92.9931 20.1484H89.1367V27.789H92.9931V20.1484Z" fill="#3A37A6"/>
</g>
<g opacity="0.54">
<path d="M87.2412 18.2227H83.3848V27.76H87.2412V18.2227Z" fill="#3A37A6"/>
</g>
<g opacity="0.34">
<path d="M81.4951 21.1055H77.6387V27.7843H81.4951V21.1055Z" fill="#3A37A6"/>
</g>
<g opacity="0.55">
<path d="M75.8095 16.4648H71.9531V27.7654H75.8095V16.4648Z" fill="#3A37A6"/>
</g>
<g opacity="0.42">
<path d="M70.0537 19.6172H66.1973V27.7653H70.0537V19.6172Z" fill="#3A37A6"/>
</g>
<g opacity="0.54">
<path d="M64.3701 23.9766H60.5137V27.7968H64.3701V23.9766Z" fill="#3A37A6"/>
</g>
<g opacity="0.43">
<path d="M58.6181 25.3242H54.7617V27.7553H58.6181V25.3242Z" fill="#3A37A6"/>
</g>
<g opacity="0.77">
<path d="M127.306 16.8945H123.449V18.4707H127.306V16.8945Z" fill="#3A37A6"/>
</g>
<g opacity="0.9">
<path d="M121.616 18.332H117.76V19.9082H121.616V18.332Z" fill="#3A37A6"/>
</g>
<g opacity="0.77">
<path d="M115.87 22.2578H112.014V23.834H115.87V22.2578Z" fill="#3A37A6"/>
</g>
<g opacity="0.86">
<path d="M110.122 15.1797H106.266V16.7559H110.122V15.1797Z" fill="#3A37A6"/>
</g>
<g opacity="0.96">
<path d="M104.431 13.418H100.574V14.9942H104.431V13.418Z" fill="#3A37A6"/>
</g>
<g opacity="0.82">
<path d="M98.6826 18.043H94.8262V19.6192H98.6826V18.043Z" fill="#3A37A6"/>
</g>
<path d="M92.997 17.3711H89.1406V18.9473H92.997V17.3711Z" fill="#3A37A6"/>
<g opacity="0.83">
<path d="M87.2412 15.4453H83.3848V17.0215H87.2412V15.4453Z" fill="#3A37A6"/>
</g>
<g opacity="0.82">
<path d="M81.4951 18.332H77.6387V19.9082H81.4951V18.332Z" fill="#3A37A6"/>
</g>
<g opacity="0.72">
<path d="M75.8095 13.6836H71.9531V15.2598H75.8095V13.6836Z" fill="#3A37A6"/>
</g>
<g opacity="0.78">
<path d="M70.0537 16.8398H66.1973V18.416H70.0537V16.8398Z" fill="#3A37A6"/>
</g>
<g opacity="0.87">
<path d="M64.3701 21.1953H60.5137V22.7715H64.3701V21.1953Z" fill="#3A37A6"/>
</g>
<g opacity="0.82">
<path d="M58.6181 22.5586H54.7617V24.1348H58.6181V22.5586Z" fill="#3A37A6"/>
</g>
<g filter="url(#filter0_d_3309_254580)">
<rect x="14" y="10" width="34" height="34" rx="17" fill="#94A2F2"/>
</g>
<path d="M28.3418 26.9989V25.6422C28.3418 23.8914 29.5793 23.1856 31.0918 24.0564L32.2651 24.7347L33.4385 25.4131C34.951 26.2839 34.951 27.7139 33.4385 28.5847L32.2651 29.2631L31.0918 29.9414C29.5793 30.8122 28.3418 30.0972 28.3418 28.3556V26.9989Z" fill="white" stroke="white" stroke-width="1.5" stroke-miterlimit="10" stroke-linecap="round" stroke-linejoin="round"/>
<path d="M31.0007 36.1654C36.0633 36.1654 40.1673 32.0613 40.1673 26.9987C40.1673 21.9361 36.0633 17.832 31.0007 17.832C25.938 17.832 21.834 21.9361 21.834 26.9987C21.834 32.0613 25.938 36.1654 31.0007 36.1654Z" stroke="white" stroke-width="1.5" stroke-linecap="round" stroke-linejoin="round"/>
<defs>
<filter id="filter0_d_3309_254580" x="0" y="0" width="62" height="62" filterUnits="userSpaceOnUse" color-interpolation-filters="sRGB">
<feFlood flood-opacity="0" result="BackgroundImageFix"/>
<feColorMatrix in="SourceAlpha" type="matrix" values="0 0 0 0 0 0 0 0 0 0 0 0 0 0 0 0 0 0 127 0" result="hardAlpha"/>
<feOffset dy="4"/>
<feGaussianBlur stdDeviation="7"/>
<feColorMatrix type="matrix" values="0 0 0 0 0.34902 0 0 0 0 0.341176 0 0 0 0 0.584314 0 0 0 0.3 0"/>
<feBlend mode="normal" in2="BackgroundImageFix" result="effect1_dropShadow_3309_254580"/>
<feBlend mode="normal" in="SourceGraphic" in2="effect1_dropShadow_3309_254580" result="shape"/>
</filter>
</defs>
</svg>
