<svg width="16" height="15" viewBox="0 0 16 15" fill="none" xmlns="http://www.w3.org/2000/svg">
<path fill-rule="evenodd" clip-rule="evenodd" d="M6.80003 0.0176026C5.34046 0.1588 3.89373 0.752211 2.7593 1.67501C2.42561 1.94646 1.89728 2.47893 1.63115 2.81208C0.958236 3.65439 0.406802 4.79375 0.178102 5.81421C0.0344819 6.45521 0.00195312 6.76681 0.00195312 7.50212C0.00195312 8.23744 0.0344819 8.54904 0.178102 9.19003C0.411793 10.2328 0.977612 11.3884 1.6729 12.243C1.94437 12.5766 2.4769 13.1049 2.81009 13.371C3.65249 14.0438 4.79197 14.5952 5.81254 14.8239C6.45361 14.9675 6.76524 15 7.50064 15C8.23603 15 8.54766 14.9675 9.18873 14.8239C9.95606 14.6519 10.9594 14.2232 11.6187 13.7856C12.7622 13.0265 13.6404 12.0278 14.2401 10.8046C14.6074 10.0553 14.816 9.38422 14.9474 8.52955C15.0201 8.05664 15.0201 6.94761 14.9474 6.4747C14.816 5.62003 14.6074 4.94897 14.2401 4.19969C13.8481 3.40012 13.4112 2.79182 12.7805 2.16753C12.1612 1.5546 11.5939 1.15182 10.8034 0.763806C10.063 0.400333 9.3775 0.185983 8.55753 0.0614883C8.18879 0.00550839 7.18424 -0.0195901 6.80003 0.0176026ZM8.44009 0.738942C9.93114 0.955494 11.2789 1.6269 12.3277 2.67561C13.3797 3.72754 14.0317 5.03739 14.2697 6.57744C14.3045 6.80289 14.3196 7.08197 14.3196 7.50212C14.3196 8.6125 14.1015 9.55148 13.616 10.5316C12.6085 12.5654 10.7375 13.9132 8.42542 14.2704C7.98202 14.339 7.01925 14.339 6.57585 14.2704C5.03564 14.0325 3.72565 13.3806 2.6736 12.3286C1.62152 11.2767 0.969597 9.96686 0.731591 8.4268C0.663069 7.98346 0.663069 7.02079 0.731591 6.57744C0.852605 5.79451 1.05785 5.13365 1.38525 4.47266C2.37471 2.4752 4.23246 1.11548 6.47216 0.749481C7.03845 0.656954 7.84586 0.652609 8.44009 0.738942ZM7.94447 3.78699C7.66865 3.87672 7.40325 4.12745 7.32452 4.37262C7.23236 4.65965 7.33966 5.03211 7.57374 5.23759C8.08974 5.6906 8.95762 5.49688 9.16148 4.88316C9.34494 4.33091 8.92377 3.78082 8.29739 3.75455C8.15796 3.74871 8.02444 3.76098 7.94447 3.78699ZM6.97366 6.30089C6.77279 6.33635 5.97052 6.61108 5.92754 6.65914C5.89448 6.69609 5.78803 7.06174 5.80529 7.07903C5.81066 7.0844 5.90038 7.062 6.00463 7.0293C6.41389 6.90085 6.79551 6.96038 6.89457 7.16809C6.99982 7.38875 6.94882 7.69584 6.62133 8.81406C6.36832 9.67797 6.32428 9.88293 6.31971 10.2175C6.31674 10.4336 6.32828 10.5095 6.38306 10.6347C6.46955 10.8322 6.68401 11.0322 6.93581 11.15C7.11328 11.2331 7.16654 11.2434 7.47553 11.2544C7.88711 11.2691 8.08251 11.2312 8.63092 11.0306L9.01258 10.891L9.06927 10.6941C9.10045 10.5858 9.119 10.4902 9.11055 10.4817C9.10206 10.4733 9.03692 10.4881 8.96578 10.5148C8.77548 10.5861 8.28156 10.5874 8.15256 10.5169C7.84603 10.3496 7.86491 10.0673 8.2771 8.65522C8.53475 7.77251 8.55762 7.66466 8.56032 7.3203C8.56413 6.8313 8.40563 6.57785 7.97037 6.37706C7.8007 6.2988 7.74369 6.28812 7.4566 6.28084C7.27898 6.27632 7.06167 6.28536 6.97366 6.30089Z" fill="#262626"/>
</svg>
