<svg width="120" height="49" viewBox="0 0 120 49" fill="none" xmlns="http://www.w3.org/2000/svg">
<g filter="url(#filter0_b_3954_22155)">
<rect width="120" height="49" rx="8" fill="#E7EEF9"/>
</g>
<path d="M0 16C0 8.45753 0 4.68629 2.34315 2.34315C4.68629 0 8.45753 0 16 0H60V49H16C8.45753 49 4.68629 49 2.34315 46.6569C0 44.3137 0 40.5425 0 33V16Z" fill="#94A2F2"/>
<path fill-rule="evenodd" clip-rule="evenodd" d="M20.2087 14.0783C19.1738 14.3055 18.2963 15.2081 18.0773 16.2705C17.9742 16.7704 17.9742 28.4161 18.0773 28.9159C18.2987 29.99 19.1776 30.8852 20.2321 31.1108C20.5065 31.1694 21.2537 31.181 24.8115 31.1817L29.063 31.1825V32.1369V33.0913H26.6269H24.1908V34.0456V35H30H35.8092V34.0456V33.0913H33.3731H30.937V32.1369V31.1825L35.1885 31.1817C38.7463 31.181 39.4935 31.1694 39.7679 31.1108C40.8224 30.8852 41.7013 29.99 41.9227 28.9159C42.0258 28.4161 42.0258 16.7704 41.9227 16.2705C41.7013 15.1965 40.8224 14.3012 39.7679 14.0757C39.288 13.9731 20.6767 13.9756 20.2087 14.0783ZM39.6667 16.0558C39.7619 16.1214 39.8973 16.2592 39.9678 16.3619L40.0958 16.5487V22.5932V28.6378L39.9678 28.8245C39.8973 28.9273 39.7619 29.065 39.6667 29.1306L39.4937 29.2499H30H20.5063L20.3333 29.1306C20.2381 29.065 20.1027 28.9273 20.0322 28.8246L19.9042 28.6378L19.8918 22.7006C19.8835 18.7572 19.8954 16.7024 19.9273 16.5818C19.9852 16.3627 20.3021 16.0252 20.5071 15.9643C20.5937 15.9386 24.5112 15.924 30.0737 15.9286L39.4937 15.9365L39.6667 16.0558Z" fill="white"/>
<path fill-rule="evenodd" clip-rule="evenodd" d="M85.6373 15.0742C84.8674 15.2713 84.2739 15.8562 84.0758 16.6132C84.0013 16.8982 84 17.0281 84 24.4992C84 31.9703 84.0013 32.1002 84.0758 32.3852C84.2758 33.1495 84.8703 33.7304 85.6523 33.9259C85.9396 33.9977 86.0751 34 90 34C93.9101 34 94.0614 33.9974 94.3445 33.9267C95.133 33.7296 95.723 33.1538 95.9242 32.3852C95.9987 32.1002 96 31.9703 96 24.4992C96 17.0281 95.9987 16.8982 95.9242 16.6132C95.8239 16.2299 95.6241 15.89 95.3361 15.6127C95.0547 15.3417 94.7417 15.171 94.3445 15.0717C94.0611 15.0009 93.9137 14.9984 89.9844 15.0004C86.0898 15.0024 85.9058 15.0055 85.6373 15.0742ZM94.1865 16.1856C94.443 16.2794 94.6866 16.5183 94.7858 16.7732C94.8594 16.9626 94.8608 17.083 94.8608 23.312V29.6578H90H85.1392V23.313C85.1392 17.0691 85.1405 16.965 85.2148 16.7707C85.309 16.5247 85.5537 16.2831 85.8063 16.1867C85.9869 16.1178 86.1366 16.1152 89.9891 16.1135C93.8874 16.1118 93.9894 16.1135 94.1865 16.1856ZM94.8608 31.4017C94.8608 31.9397 94.8497 32.0605 94.7858 32.2251C94.6866 32.48 94.443 32.719 94.1865 32.8128C93.9895 32.8848 93.8851 32.8866 89.999 32.8866C86.1224 32.8866 86.0081 32.8846 85.8161 32.8133C85.5553 32.7165 85.3108 32.4783 85.2148 32.2277C85.1503 32.059 85.1392 31.9384 85.1392 31.4007V30.7712H90H94.8608V31.4017ZM89.7251 31.2931C89.3339 31.4949 89.3389 32.1329 89.7332 32.3295C89.8156 32.3705 89.9357 32.4042 90 32.4042C90.1884 32.4042 90.4072 32.2729 90.4932 32.1082C90.7695 31.5789 90.2467 31.024 89.7251 31.2931Z" fill="#A0A0A0"/>
<defs>
<filter id="filter0_b_3954_22155" x="-8" y="-8" width="136" height="65" filterUnits="userSpaceOnUse" color-interpolation-filters="sRGB">
<feFlood flood-opacity="0" result="BackgroundImageFix"/>
<feGaussianBlur in="BackgroundImageFix" stdDeviation="4"/>
<feComposite in2="SourceAlpha" operator="in" result="effect1_backgroundBlur_3954_22155"/>
<feBlend mode="normal" in="SourceGraphic" in2="effect1_backgroundBlur_3954_22155" result="shape"/>
</filter>
</defs>
</svg>
