<svg width="244" height="50" viewBox="0 0 244 50" fill="none" xmlns="http://www.w3.org/2000/svg">
<rect width="244" height="50" fill="#F3F2F3"/>
<g clip-path="url(#clip0_221_7147)">
<rect width="1920" height="1080" transform="translate(-883 -474)" fill="white"/>
<g filter="url(#filter0_d_221_7147)">
<rect x="-763" y="-354" width="1770" height="930" rx="10" fill="white"/>
<rect x="-762.5" y="-353.5" width="1769" height="929" rx="9.5" stroke="#EBEBEB"/>
</g>
<g filter="url(#filter1_d_221_7147)">
<rect x="-41" y="-151" width="326" height="294" rx="8" fill="white"/>
<rect x="-40.5" y="-150.5" width="325" height="293" rx="7.5" stroke="#EBEBEB"/>
</g>
<g opacity="0.49">
<path d="M243.996 26.2695H238.078V28.2201H243.996V26.2695Z" fill="#A0A0A0"/>
</g>
<g opacity="0.4">
<path d="M190.449 26.2695H184.531V33.0341H190.449V26.2695Z" fill="#A0A0A0"/>
</g>
<g opacity="0.4">
<path d="M234.442 26.2695H228.523V33.0341H234.442V26.2695Z" fill="#A0A0A0"/>
</g>
<g opacity="0.43">
<path d="M181.637 26.2695H175.719V30.9176H181.637V26.2695Z" fill="#A0A0A0"/>
</g>
<g opacity="0.31">
<path d="M172.918 26.2695H167V36.2296H172.918V26.2695Z" fill="#A0A0A0"/>
</g>
<g opacity="0.6">
<path d="M164.09 26.2695H158.172V45.7332H164.09V26.2695Z" fill="#A0A0A0"/>
</g>
<g opacity="0.6">
<path d="M155.262 26.2695H149.344V38.7612H155.262V26.2695Z" fill="#A0A0A0"/>
</g>
<g opacity="0.6">
<path d="M225.215 26.2695H219.297V38.7612H225.215V26.2695Z" fill="#A0A0A0"/>
</g>
<g opacity="0.39">
<path d="M146.528 26.2695H140.609V40.9607H146.528V26.2695Z" fill="#A0A0A0"/>
</g>
<g opacity="0.39">
<path d="M216.481 26.2695H210.562V40.9607H216.481V26.2695Z" fill="#A0A0A0"/>
</g>
<g opacity="0.59">
<path d="M137.715 26.2695H131.797V36.2296H137.715V26.2695Z" fill="#A0A0A0"/>
</g>
<g opacity="0.59">
<path d="M207.66 26.2695H201.742V36.2296H207.66V26.2695Z" fill="#A0A0A0"/>
</g>
<g opacity="0.39">
<path d="M128.981 26.2695H123.062V32.7851H128.981V26.2695Z" fill="#A0A0A0"/>
</g>
<g opacity="0.39">
<path d="M198.934 26.2695H193.016V32.7851H198.934V26.2695Z" fill="#A0A0A0"/>
</g>
<g opacity="0.38">
<path d="M120.153 26.2695H114.234V42.5792H120.153V26.2695Z" fill="#A0A0A0"/>
</g>
<g opacity="0.36">
<path d="M111.332 26.2695H105.414V38.8857H111.332V26.2695Z" fill="#A0A0A0"/>
</g>
<g opacity="0.39">
<path d="M102.606 26.2695H96.6875V36.6446H102.606V26.2695Z" fill="#A0A0A0"/>
</g>
<g opacity="0.33">
<path d="M93.7776 26.2695H87.8594V30.5026H93.7776V26.2695Z" fill="#A0A0A0"/>
</g>
<g opacity="0.37">
<path d="M84.9651 26.2695H79.0469V41.5002H84.9651V26.2695Z" fill="#A0A0A0"/>
</g>
<g opacity="0.42">
<path d="M76.2307 26.2695H70.3125V44.2392H76.2307V26.2695Z" fill="#A0A0A0"/>
</g>
<g opacity="0.5">
<path d="M67.4182 26.2695H61.5V37.0596H67.4182V26.2695Z" fill="#A0A0A0"/>
</g>
<g opacity="0.54">
<path d="M58.6682 26.2695H52.75V38.1387H58.6682V26.2695Z" fill="#A0A0A0"/>
</g>
<g opacity="0.54">
<path d="M49.8479 26.2695H43.9297V41.0852H49.8479V26.2695Z" fill="#A0A0A0"/>
</g>
<g opacity="0.34">
<path d="M41.0276 26.2695H35.1094V36.6446H41.0276V26.2695Z" fill="#A0A0A0"/>
</g>
<g opacity="0.55">
<path d="M32.3088 26.2695H26.3906V43.8242H32.3088V26.2695Z" fill="#A0A0A0"/>
</g>
<g opacity="0.42">
<path d="M23.4885 26.2695H17.5703V38.9272H23.4885V26.2695Z" fill="#A0A0A0"/>
</g>
<g opacity="0.54">
<path d="M14.7463 26.2695H8.82812V32.2041H14.7463V26.2695Z" fill="#A0A0A0"/>
</g>
<g opacity="0.43">
<path d="M5.91818 26.2695H0V30.0461H5.91818V26.2695Z" fill="#A0A0A0"/>
</g>
<g opacity="0.74">
<path d="M243.996 30.582H238.078V32.5326H243.996V30.582Z" fill="#A0A0A0"/>
</g>
<g opacity="0.7">
<path d="M190.449 34.8633H184.531V37.3118H190.449V34.8633Z" fill="#A0A0A0"/>
</g>
<g opacity="0.7">
<path d="M234.442 34.8633H228.523V37.3118H234.442V34.8633Z" fill="#A0A0A0"/>
</g>
<g opacity="0.73">
<path d="M181.637 32.7852H175.719V35.2337H181.637V32.7852Z" fill="#A0A0A0"/>
</g>
<g opacity="0.73">
<path d="M172.918 38.0586H167V40.5071H172.918V38.0586Z" fill="#A0A0A0"/>
</g>
<g opacity="0.73">
<path d="M164.09 47.5508H158.172V49.9993H164.09V47.5508Z" fill="#A0A0A0"/>
</g>
<g opacity="0.72">
<path d="M155.262 40.5781H149.344V43.0267H155.262V40.5781Z" fill="#A0A0A0"/>
</g>
<g opacity="0.72">
<path d="M225.215 40.5781H219.297V43.0267H225.215V40.5781Z" fill="#A0A0A0"/>
</g>
<g opacity="0.88">
<path d="M146.528 42.793H140.609V45.2415H146.528V42.793Z" fill="#A0A0A0"/>
</g>
<g opacity="0.88">
<path d="M216.481 42.793H210.562V45.2415H216.481V42.793Z" fill="#A0A0A0"/>
</g>
<g opacity="0.7">
<path d="M137.715 38.0586H131.797V40.5071H137.715V38.0586Z" fill="#A0A0A0"/>
</g>
<g opacity="0.7">
<path d="M207.66 38.0586H201.742V40.5071H207.66V38.0586Z" fill="#A0A0A0"/>
</g>
<g opacity="0.98">
<path d="M128.981 34.6484H123.062V37.097H128.981V34.6484Z" fill="#A0A0A0"/>
</g>
<g opacity="0.98">
<path d="M198.934 34.6484H193.016V37.097H198.934V34.6484Z" fill="#A0A0A0"/>
</g>
<g opacity="0.96">
<path d="M120.153 44.4141H114.234V46.8626H120.153V44.4141Z" fill="#A0A0A0"/>
</g>
<g opacity="0.77">
<path d="M111.332 40.7109H105.414V43.1595H111.332V40.7109Z" fill="#A0A0A0"/>
</g>
<g opacity="0.9">
<path d="M102.606 38.4648H96.6875V40.9134H102.606V38.4648Z" fill="#A0A0A0"/>
</g>
<g opacity="0.77">
<path d="M93.7776 32.3281H87.8594V34.7767H93.7776V32.3281Z" fill="#A0A0A0"/>
</g>
<g opacity="0.86">
<path d="M84.9651 43.3555H79.0469V45.804H84.9651V43.3555Z" fill="#A0A0A0"/>
</g>
<g opacity="0.96">
<path d="M76.2307 46.1055H70.3125V48.554H76.2307V46.1055Z" fill="#A0A0A0"/>
</g>
<g opacity="0.82">
<path d="M67.4182 38.8945H61.5V41.3431H67.4182V38.8945Z" fill="#A0A0A0"/>
</g>
<path d="M58.6838 39.957H52.7656V42.4056H58.6838V39.957Z" fill="#A0A0A0"/>
<g opacity="0.83">
<path d="M49.8479 42.8984H43.9297V45.347H49.8479V42.8984Z" fill="#A0A0A0"/>
</g>
<g opacity="0.82">
<path d="M41.0276 38.4648H35.1094V40.9134H41.0276V38.4648Z" fill="#A0A0A0"/>
</g>
<g opacity="0.72">
<path d="M32.3088 45.6836H26.3906V48.1321H32.3088V45.6836Z" fill="#A0A0A0"/>
</g>
<g opacity="0.78">
<path d="M23.4885 40.7969H17.5703V43.2454H23.4885V40.7969Z" fill="#A0A0A0"/>
</g>
<g opacity="0.87">
<path d="M14.7463 34.0234H8.82812V36.472H14.7463V34.0234Z" fill="#A0A0A0"/>
</g>
<g opacity="0.82">
<path d="M5.91818 31.9219H0V34.3704H5.91818V31.9219Z" fill="#A0A0A0"/>
</g>
<g opacity="0.49">
<path d="M243.996 21.832H238.078V23.7826H243.996V21.832Z" fill="#A0A0A0"/>
</g>
<g opacity="0.4">
<path d="M190.449 17.0586H184.531V23.8232H190.449V17.0586Z" fill="#A0A0A0"/>
</g>
<g opacity="0.4">
<path d="M234.442 17.0586H228.523V23.8232H234.442V17.0586Z" fill="#A0A0A0"/>
</g>
<g opacity="0.43">
<path d="M181.637 19.1328H175.719V23.7809H181.637V19.1328Z" fill="#A0A0A0"/>
</g>
<g opacity="0.31">
<path d="M172.918 13.8555H167V23.8156H172.918V13.8555Z" fill="#A0A0A0"/>
</g>
<g opacity="0.6">
<path d="M164.09 4.30859H158.172V23.7723H164.09V4.30859Z" fill="#A0A0A0"/>
</g>
<g opacity="0.6">
<path d="M155.262 11.3281H149.344V23.8198H155.262V11.3281Z" fill="#A0A0A0"/>
</g>
<g opacity="0.6">
<path d="M225.215 11.3281H219.297V23.8198H225.215V11.3281Z" fill="#A0A0A0"/>
</g>
<g opacity="0.39">
<path d="M146.528 9.11719H140.609V23.8083H146.528V9.11719Z" fill="#A0A0A0"/>
</g>
<g opacity="0.39">
<path d="M216.481 9.11719H210.562V23.8083H216.481V9.11719Z" fill="#A0A0A0"/>
</g>
<g opacity="0.59">
<path d="M137.715 13.8555H131.797V23.8156H137.715V13.8555Z" fill="#A0A0A0"/>
</g>
<g opacity="0.59">
<path d="M207.66 13.8555H201.742V23.8156H207.66V13.8555Z" fill="#A0A0A0"/>
</g>
<g opacity="0.39">
<path d="M128.981 17.2695H123.062V23.7851H128.981V17.2695Z" fill="#A0A0A0"/>
</g>
<g opacity="0.39">
<path d="M198.934 17.2695H193.016V23.7851H198.934V17.2695Z" fill="#A0A0A0"/>
</g>
<g opacity="0.38">
<path d="M120.153 7.50781H114.234V23.8175H120.153V7.50781Z" fill="#A0A0A0"/>
</g>
<g opacity="0.36">
<path d="M111.332 11.207H105.414V23.8232H111.332V11.207Z" fill="#A0A0A0"/>
</g>
<g opacity="0.39">
<path d="M102.606 13.4414H96.6875V23.8165H102.606V13.4414Z" fill="#A0A0A0"/>
</g>
<g opacity="0.33">
<path d="M93.7776 19.5391H87.8594V23.7721H93.7776V19.5391Z" fill="#A0A0A0"/>
</g>
<g opacity="0.37">
<path d="M84.9651 8.54688H79.0469V23.7775H84.9651V8.54688Z" fill="#A0A0A0"/>
</g>
<g opacity="0.42">
<path d="M76.2307 5.80469H70.3125V23.7744H76.2307V5.80469Z" fill="#A0A0A0"/>
</g>
<g opacity="0.5">
<path d="M67.4182 12.9844H61.5V23.7745H67.4182V12.9844Z" fill="#A0A0A0"/>
</g>
<g opacity="0.54">
<path d="M58.6682 11.9531H52.75V23.8223H58.6682V11.9531Z" fill="#A0A0A0"/>
</g>
<g opacity="0.54">
<path d="M49.8479 8.95312H43.9297V23.7688H49.8479V8.95312Z" fill="#A0A0A0"/>
</g>
<g opacity="0.34">
<path d="M41.0276 13.4414H35.1094V23.8165H41.0276V13.4414Z" fill="#A0A0A0"/>
</g>
<g opacity="0.55">
<path d="M32.3088 6.22656H26.3906V23.7813H32.3088V6.22656Z" fill="#A0A0A0"/>
</g>
<g opacity="0.42">
<path d="M23.4885 11.1211H17.5703V23.7787H23.4885V11.1211Z" fill="#A0A0A0"/>
</g>
<g opacity="0.54">
<path d="M14.7463 17.8828H8.82812V23.8174H14.7463V17.8828Z" fill="#A0A0A0"/>
</g>
<g opacity="0.43">
<path d="M5.91818 20.0039H0V23.7804H5.91818V20.0039Z" fill="#A0A0A0"/>
</g>
<g opacity="0.74">
<path d="M243.996 17.5117H238.078V19.4622H243.996V17.5117Z" fill="#A0A0A0"/>
</g>
<g opacity="0.7">
<path d="M190.449 12.7344H184.531V15.1829H190.449V12.7344Z" fill="#A0A0A0"/>
</g>
<g opacity="0.7">
<path d="M234.442 12.7344H228.523V15.1829H234.442V12.7344Z" fill="#A0A0A0"/>
</g>
<g opacity="0.73">
<path d="M181.637 14.8047H175.719V17.2532H181.637V14.8047Z" fill="#A0A0A0"/>
</g>
<g opacity="0.73">
<path d="M172.918 9.54688H167V11.9954H172.918V9.54688Z" fill="#A0A0A0"/>
</g>
<g opacity="0.73">
<path d="M164.09 0H158.172V2.44853H164.09V0Z" fill="#A0A0A0"/>
</g>
<g opacity="0.72">
<path d="M155.262 7.01562H149.344V9.46415H155.262V7.01562Z" fill="#A0A0A0"/>
</g>
<g opacity="0.72">
<path d="M225.215 7.01562H219.297V9.46415H225.215V7.01562Z" fill="#A0A0A0"/>
</g>
<g opacity="0.88">
<path d="M146.528 4.80859H140.609V7.25712H146.528V4.80859Z" fill="#A0A0A0"/>
</g>
<g opacity="0.88">
<path d="M216.481 4.80859H210.562V7.25712H216.481V4.80859Z" fill="#A0A0A0"/>
</g>
<g opacity="0.7">
<path d="M137.715 9.54688H131.797V11.9954H137.715V9.54688Z" fill="#A0A0A0"/>
</g>
<g opacity="0.7">
<path d="M207.66 9.54688H201.742V11.9954H207.66V9.54688Z" fill="#A0A0A0"/>
</g>
<g opacity="0.98">
<path d="M128.981 12.957H123.062V15.4056H128.981V12.957Z" fill="#A0A0A0"/>
</g>
<g opacity="0.98">
<path d="M198.934 12.957H193.016V15.4056H198.934V12.957Z" fill="#A0A0A0"/>
</g>
<g opacity="0.96">
<path d="M120.153 3.19141H114.234V5.63993H120.153V3.19141Z" fill="#A0A0A0"/>
</g>
<g opacity="0.77">
<path d="M111.332 6.89844H105.414V9.34696H111.332V6.89844Z" fill="#A0A0A0"/>
</g>
<g opacity="0.9">
<path d="M102.606 9.11719H96.6875V11.5657H102.606V9.11719Z" fill="#A0A0A0"/>
</g>
<g opacity="0.77">
<path d="M93.7776 15.2305H87.8594V17.679H93.7776V15.2305Z" fill="#A0A0A0"/>
</g>
<g opacity="0.86">
<path d="M84.9651 4.21094H79.0469V6.65946H84.9651V4.21094Z" fill="#A0A0A0"/>
</g>
<g opacity="0.96">
<path d="M76.2307 1.49609H70.3125V3.94462H76.2307V1.49609Z" fill="#A0A0A0"/>
</g>
<g opacity="0.82">
<path d="M67.4182 8.67969H61.5V11.1282H67.4182V8.67969Z" fill="#A0A0A0"/>
</g>
<path d="M58.6838 7.64453H52.7656V10.0931H58.6838V7.64453Z" fill="#A0A0A0"/>
<g opacity="0.83">
<path d="M49.8479 4.64844H43.9297V7.09696H49.8479V4.64844Z" fill="#A0A0A0"/>
</g>
<g opacity="0.82">
<path d="M41.0276 9.11719H35.1094V11.5657H41.0276V9.11719Z" fill="#A0A0A0"/>
</g>
<g opacity="0.72">
<path d="M32.3088 1.90234H26.3906V4.35087H32.3088V1.90234Z" fill="#A0A0A0"/>
</g>
<g opacity="0.78">
<path d="M23.4885 6.79688H17.5703V9.2454H23.4885V6.79688Z" fill="#A0A0A0"/>
</g>
<g opacity="0.87">
<path d="M14.7463 13.5859H8.82812V16.0345H14.7463V13.5859Z" fill="#A0A0A0"/>
</g>
<g opacity="0.82">
<path d="M5.91818 15.6875H0V18.136H5.91818V15.6875Z" fill="#A0A0A0"/>
</g>
<g opacity="0.36">
<path d="M111.11 25.875H105.203V38.5044H111.11V25.875Z" fill="#3A37A6"/>
</g>
<g opacity="0.39">
<path d="M102.406 25.875H96.5V36.261H102.406V25.875Z" fill="#3A37A6"/>
</g>
<g opacity="0.33">
<path d="M93.6017 25.875H87.6953V30.1125H93.6017V25.875Z" fill="#3A37A6"/>
</g>
<g opacity="0.37">
<path d="M84.797 25.875H78.8906V41.1216H84.797V25.875Z" fill="#3A37A6"/>
</g>
<g opacity="0.42">
<path d="M76.0782 25.875H70.1719V43.8635H76.0782V25.875Z" fill="#3A37A6"/>
</g>
<g opacity="0.5">
<path d="M67.2736 25.875H61.3672V36.6764H67.2736V25.875Z" fill="#3A37A6"/>
</g>
<g opacity="0.54">
<path d="M58.5626 25.875H52.6562V37.7566H58.5626V25.875Z" fill="#3A37A6"/>
</g>
<g opacity="0.54">
<path d="M49.7423 25.875H43.8359V40.7062H49.7423V25.875Z" fill="#3A37A6"/>
</g>
<g opacity="0.34">
<path d="M40.9454 25.875H35.0391V36.261H40.9454V25.875Z" fill="#3A37A6"/>
</g>
<g opacity="0.55">
<path d="M32.2423 25.875H26.3359V43.4481H32.2423V25.875Z" fill="#3A37A6"/>
</g>
<g opacity="0.42">
<path d="M23.422 25.875H17.5156V38.5459H23.422V25.875Z" fill="#3A37A6"/>
</g>
<g opacity="0.54">
<path d="M14.7111 25.875H8.80469V31.8158H14.7111V25.875Z" fill="#3A37A6"/>
</g>
<g opacity="0.43">
<path d="M5.90638 25.875H0V29.6555H5.90638V25.875Z" fill="#3A37A6"/>
</g>
<g opacity="0.77">
<path d="M111.11 40.3125H105.203V42.7636H111.11V40.3125Z" fill="#3A37A6"/>
</g>
<g opacity="0.9">
<path d="M102.406 38.0781H96.5V40.5292H102.406V38.0781Z" fill="#3A37A6"/>
</g>
<g opacity="0.77">
<path d="M93.6017 31.9297H87.6953V34.3808H93.6017V31.9297Z" fill="#3A37A6"/>
</g>
<g opacity="0.86">
<path d="M84.797 42.9844H78.8906V45.4355H84.797V42.9844Z" fill="#3A37A6"/>
</g>
<g opacity="0.96">
<path d="M76.0782 45.7109H70.1719V48.162H76.0782V45.7109Z" fill="#3A37A6"/>
</g>
<g opacity="0.82">
<path d="M67.2736 38.4883H61.3672V40.9394H67.2736V38.4883Z" fill="#3A37A6"/>
</g>
<path d="M58.5626 39.5742H52.6562V42.0253H58.5626V39.5742Z" fill="#3A37A6"/>
<g opacity="0.83">
<path d="M49.7423 42.5234H43.8359V44.9745H49.7423V42.5234Z" fill="#3A37A6"/>
</g>
<g opacity="0.82">
<path d="M40.9454 38.0781H35.0391V40.5292H40.9454V38.0781Z" fill="#3A37A6"/>
</g>
<g opacity="0.72">
<path d="M32.2423 45.3125H26.3359V47.7636H32.2423V45.3125Z" fill="#3A37A6"/>
</g>
<g opacity="0.78">
<path d="M23.422 40.4023H17.5156V42.8534H23.422V40.4023Z" fill="#3A37A6"/>
</g>
<g opacity="0.87">
<path d="M14.7111 33.6406H8.80469V36.0917H14.7111V33.6406Z" fill="#3A37A6"/>
</g>
<g opacity="0.82">
<path d="M5.90638 31.5195H0V33.9706H5.90638V31.5195Z" fill="#3A37A6"/>
</g>
<g opacity="0.36">
<path d="M111.11 10.7852H105.203V23.4145H111.11V10.7852Z" fill="#3A37A6"/>
</g>
<g opacity="0.39">
<path d="M102.406 13.0117H96.5V23.3977H102.406V13.0117Z" fill="#3A37A6"/>
</g>
<g opacity="0.33">
<path d="M93.6017 19.1172H87.6953V23.3547H93.6017V19.1172Z" fill="#3A37A6"/>
</g>
<g opacity="0.37">
<path d="M84.797 8.125H78.8906V23.3716H84.797V8.125Z" fill="#3A37A6"/>
</g>
<g opacity="0.42">
<path d="M76.0782 5.38281H70.1719V23.3713H76.0782V5.38281Z" fill="#3A37A6"/>
</g>
<g opacity="0.5">
<path d="M67.2736 12.5742H61.3672V23.3756H67.2736V12.5742Z" fill="#3A37A6"/>
</g>
<g opacity="0.54">
<path d="M58.5626 11.5312H52.6562V23.4128H58.5626V11.5312Z" fill="#3A37A6"/>
</g>
<g opacity="0.54">
<path d="M49.7423 8.54297H43.8359V23.3742H49.7423V8.54297Z" fill="#3A37A6"/>
</g>
<g opacity="0.34">
<path d="M40.9454 13.0117H35.0391V23.3977H40.9454V13.0117Z" fill="#3A37A6"/>
</g>
<g opacity="0.55">
<path d="M32.2423 5.78906H26.3359V23.3622H32.2423V5.78906Z" fill="#3A37A6"/>
</g>
<g opacity="0.42">
<path d="M23.422 10.707H17.5156V23.3779H23.422V10.707Z" fill="#3A37A6"/>
</g>
<g opacity="0.54">
<path d="M14.7111 17.4883H8.80469V23.4291H14.7111V17.4883Z" fill="#3A37A6"/>
</g>
<g opacity="0.43">
<path d="M5.90638 19.582H0V23.3625H5.90638V19.582Z" fill="#3A37A6"/>
</g>
<g opacity="0.77">
<path d="M111.11 6.47266H105.203V8.92375H111.11V6.47266Z" fill="#3A37A6"/>
</g>
<g opacity="0.9">
<path d="M102.406 8.70703H96.5V11.1581H102.406V8.70703Z" fill="#3A37A6"/>
</g>
<g opacity="0.77">
<path d="M93.6017 14.8086H87.6953V17.2597H93.6017V14.8086Z" fill="#3A37A6"/>
</g>
<g opacity="0.86">
<path d="M84.797 3.80078H78.8906V6.25187H84.797V3.80078Z" fill="#3A37A6"/>
</g>
<g opacity="0.96">
<path d="M76.0782 1.05859H70.1719V3.50969H76.0782V1.05859Z" fill="#3A37A6"/>
</g>
<g opacity="0.82">
<path d="M67.2736 8.25781H61.3672V10.7089H67.2736V8.25781Z" fill="#3A37A6"/>
</g>
<path d="M58.5626 7.21484H52.6562V9.66594H58.5626V7.21484Z" fill="#3A37A6"/>
<g opacity="0.83">
<path d="M49.7423 4.21484H43.8359V6.66594H49.7423V4.21484Z" fill="#3A37A6"/>
</g>
<g opacity="0.82">
<path d="M40.9454 8.70703H35.0391V11.1581H40.9454V8.70703Z" fill="#3A37A6"/>
</g>
<g opacity="0.72">
<path d="M32.2423 1.48047H26.3359V3.93156H32.2423V1.48047Z" fill="#3A37A6"/>
</g>
<g opacity="0.78">
<path d="M23.422 6.375H17.5156V8.82609H23.422V6.375Z" fill="#3A37A6"/>
</g>
<g opacity="0.87">
<path d="M14.7111 13.1562H8.80469V15.6073H14.7111V13.1562Z" fill="#3A37A6"/>
</g>
<g opacity="0.82">
<path d="M5.90638 15.2812H0V17.7323H5.90638V15.2812Z" fill="#3A37A6"/>
</g>
<g filter="url(#filter2_d_221_7147)">
<path d="M99 25C99 12.2975 109.297 2 122 2C134.703 2 145 12.2975 145 25C145 37.7025 134.703 48 122 48C109.297 48 99 37.7025 99 25Z" fill="#94A2F2"/>
</g>
<path d="M118.398 24.9893V23.1538C118.398 20.785 120.073 19.8301 122.119 21.0083L123.706 21.926L125.294 22.8438C127.34 24.022 127.34 25.9567 125.294 27.1348L123.706 28.0526L122.119 28.9703C120.073 30.1485 118.398 29.1812 118.398 26.8248V24.9893Z" fill="white" stroke="white" stroke-width="1.5" stroke-miterlimit="10" stroke-linecap="round" stroke-linejoin="round"/>
<path d="M121.988 37.3938C128.837 37.3938 134.39 31.8412 134.39 24.9918C134.39 18.1424 128.837 12.5898 121.988 12.5898C115.138 12.5898 109.586 18.1424 109.586 24.9918C109.586 31.8412 115.138 37.3938 121.988 37.3938Z" stroke="white" stroke-width="1.5" stroke-linecap="round" stroke-linejoin="round"/>
</g>
<rect x="-6070" y="-929" width="24623" height="3059" stroke="#262626" stroke-width="20"/>
<defs>
<filter id="filter0_d_221_7147" x="-780" y="-364" width="1804" height="964" filterUnits="userSpaceOnUse" color-interpolation-filters="sRGB">
<feFlood flood-opacity="0" result="BackgroundImageFix"/>
<feColorMatrix in="SourceAlpha" type="matrix" values="0 0 0 0 0 0 0 0 0 0 0 0 0 0 0 0 0 0 127 0" result="hardAlpha"/>
<feMorphology radius="3" operator="dilate" in="SourceAlpha" result="effect1_dropShadow_221_7147"/>
<feOffset dy="7"/>
<feGaussianBlur stdDeviation="7"/>
<feComposite in2="hardAlpha" operator="out"/>
<feColorMatrix type="matrix" values="0 0 0 0 0 0 0 0 0 0 0 0 0 0 0 0 0 0 0.03 0"/>
<feBlend mode="normal" in2="BackgroundImageFix" result="effect1_dropShadow_221_7147"/>
<feBlend mode="normal" in="SourceGraphic" in2="effect1_dropShadow_221_7147" result="shape"/>
</filter>
<filter id="filter1_d_221_7147" x="-58" y="-161" width="360" height="328" filterUnits="userSpaceOnUse" color-interpolation-filters="sRGB">
<feFlood flood-opacity="0" result="BackgroundImageFix"/>
<feColorMatrix in="SourceAlpha" type="matrix" values="0 0 0 0 0 0 0 0 0 0 0 0 0 0 0 0 0 0 127 0" result="hardAlpha"/>
<feMorphology radius="3" operator="dilate" in="SourceAlpha" result="effect1_dropShadow_221_7147"/>
<feOffset dy="7"/>
<feGaussianBlur stdDeviation="7"/>
<feComposite in2="hardAlpha" operator="out"/>
<feColorMatrix type="matrix" values="0 0 0 0 0 0 0 0 0 0 0 0 0 0 0 0 0 0 0.03 0"/>
<feBlend mode="normal" in2="BackgroundImageFix" result="effect1_dropShadow_221_7147"/>
<feBlend mode="normal" in="SourceGraphic" in2="effect1_dropShadow_221_7147" result="shape"/>
</filter>
<filter id="filter2_d_221_7147" x="85" y="-8" width="74" height="74" filterUnits="userSpaceOnUse" color-interpolation-filters="sRGB">
<feFlood flood-opacity="0" result="BackgroundImageFix"/>
<feColorMatrix in="SourceAlpha" type="matrix" values="0 0 0 0 0 0 0 0 0 0 0 0 0 0 0 0 0 0 127 0" result="hardAlpha"/>
<feOffset dy="4"/>
<feGaussianBlur stdDeviation="7"/>
<feColorMatrix type="matrix" values="0 0 0 0 0.34902 0 0 0 0 0.341176 0 0 0 0 0.584314 0 0 0 0.3 0"/>
<feBlend mode="normal" in2="BackgroundImageFix" result="effect1_dropShadow_221_7147"/>
<feBlend mode="normal" in="SourceGraphic" in2="effect1_dropShadow_221_7147" result="shape"/>
</filter>
<clipPath id="clip0_221_7147">
<rect width="1920" height="1080" fill="white" transform="translate(-883 -474)"/>
</clipPath>
</defs>
</svg>
