<svg width="294" height="235" viewBox="0 0 294 235" fill="none" xmlns="http://www.w3.org/2000/svg">
<rect width="294" height="235" fill="#F3F2F3"/>
<g clip-path="url(#clip0_221_7147)">
<rect width="1920" height="1080" transform="translate(-973 -417)" fill="white"/>
<g filter="url(#filter0_d_221_7147)">
<rect x="-853" y="-227" width="1770" height="860" rx="10" fill="white"/>
<rect x="-852.5" y="-226.5" width="1769" height="859" rx="9.5" stroke="#EBEBEB"/>
</g>
<g filter="url(#filter1_d_221_7147)">
<rect x="17" y="10" width="260" height="201" rx="8" fill="white"/>
<rect x="17.5" y="10.5" width="259" height="200" rx="7.5" stroke="#EBEBEB"/>
</g>
<g opacity="0.49">
<path d="M236.001 111.967H231.684V113.449H236.001V111.967Z" fill="#A0A0A0"/>
</g>
<g opacity="0.4">
<path d="M196.938 111.967H192.621V117.108H196.938V111.967Z" fill="#A0A0A0"/>
</g>
<g opacity="0.4">
<path d="M229.028 111.967H224.711V117.108H229.028V111.967Z" fill="#A0A0A0"/>
</g>
<g opacity="0.43">
<path d="M190.509 111.967H186.191V115.5H190.509V111.967Z" fill="#A0A0A0"/>
</g>
<g opacity="0.31">
<path d="M184.145 111.967H179.828V119.537H184.145V111.967Z" fill="#A0A0A0"/>
</g>
<g opacity="0.6">
<path d="M177.704 111.967H173.387V126.761H177.704V111.967Z" fill="#A0A0A0"/>
</g>
<g opacity="0.6">
<path d="M171.263 111.967H166.945V121.461H171.263V111.967Z" fill="#A0A0A0"/>
</g>
<g opacity="0.6">
<path d="M222.294 111.967H217.977V121.461H222.294V111.967Z" fill="#A0A0A0"/>
</g>
<g opacity="0.39">
<path d="M164.899 111.967H160.582V123.133H164.899V111.967Z" fill="#A0A0A0"/>
</g>
<g opacity="0.39">
<path d="M215.923 111.967H211.605V123.133H215.923V111.967Z" fill="#A0A0A0"/>
</g>
<g opacity="0.59">
<path d="M158.462 111.967H154.145V119.537H158.462V111.967Z" fill="#A0A0A0"/>
</g>
<g opacity="0.59">
<path d="M209.493 111.967H205.176V119.537H209.493V111.967Z" fill="#A0A0A0"/>
</g>
<g opacity="0.39">
<path d="M152.095 111.967H147.777V116.919H152.095V111.967Z" fill="#A0A0A0"/>
</g>
<g opacity="0.39">
<path d="M203.122 111.967H198.805V116.919H203.122V111.967Z" fill="#A0A0A0"/>
</g>
<g opacity="0.38">
<path d="M145.653 111.967H141.336V124.363H145.653V111.967Z" fill="#A0A0A0"/>
</g>
<g opacity="0.36">
<path d="M139.216 111.967H134.898V121.556H139.216V111.967Z" fill="#A0A0A0"/>
</g>
<g opacity="0.39">
<path d="M132.853 111.967H128.535V119.853H132.853V111.967Z" fill="#A0A0A0"/>
</g>
<g opacity="0.33">
<path d="M126.415 111.967H122.098V115.184H126.415V111.967Z" fill="#A0A0A0"/>
</g>
<g opacity="0.37">
<path d="M119.981 111.967H115.664V123.543H119.981V111.967Z" fill="#A0A0A0"/>
</g>
<g opacity="0.42">
<path d="M113.614 111.967H109.297V125.625H113.614V111.967Z" fill="#A0A0A0"/>
</g>
<g opacity="0.5">
<path d="M107.181 111.967H102.863V120.168H107.181V111.967Z" fill="#A0A0A0"/>
</g>
<g opacity="0.54">
<path d="M100.798 111.967H96.4805V120.988H100.798V111.967Z" fill="#A0A0A0"/>
</g>
<g opacity="0.54">
<path d="M94.3642 111.967H90.0469V123.228H94.3642V111.967Z" fill="#A0A0A0"/>
</g>
<g opacity="0.34">
<path d="M87.9306 111.967H83.6133V119.853H87.9306V111.967Z" fill="#A0A0A0"/>
</g>
<g opacity="0.55">
<path d="M81.5674 111.967H77.25V125.31H81.5674V111.967Z" fill="#A0A0A0"/>
</g>
<g opacity="0.42">
<path d="M75.1338 111.967H70.8164V121.588H75.1338V111.967Z" fill="#A0A0A0"/>
</g>
<g opacity="0.54">
<path d="M68.7588 111.967H64.4414V116.477H68.7588V111.967Z" fill="#A0A0A0"/>
</g>
<g opacity="0.43">
<path d="M62.3174 111.967H58V114.837H62.3174V111.967Z" fill="#A0A0A0"/>
</g>
<g opacity="0.74">
<path d="M236.001 115.247H231.684V116.729H236.001V115.247Z" fill="#A0A0A0"/>
</g>
<g opacity="0.7">
<path d="M196.938 118.496H192.621V120.357H196.938V118.496Z" fill="#A0A0A0"/>
</g>
<g opacity="0.7">
<path d="M229.028 118.496H224.711V120.357H229.028V118.496Z" fill="#A0A0A0"/>
</g>
<g opacity="0.73">
<path d="M190.509 116.919H186.191V118.78H190.509V116.919Z" fill="#A0A0A0"/>
</g>
<g opacity="0.73">
<path d="M184.145 120.927H179.828V122.788H184.145V120.927Z" fill="#A0A0A0"/>
</g>
<g opacity="0.73">
<path d="M177.704 128.139H173.387V130H177.704V128.139Z" fill="#A0A0A0"/>
</g>
<g opacity="0.72">
<path d="M171.263 122.844H166.945V124.705H171.263V122.844Z" fill="#A0A0A0"/>
</g>
<g opacity="0.72">
<path d="M222.294 122.844H217.977V124.705H222.294V122.844Z" fill="#A0A0A0"/>
</g>
<g opacity="0.88">
<path d="M164.899 124.523H160.582V126.384H164.899V124.523Z" fill="#A0A0A0"/>
</g>
<g opacity="0.88">
<path d="M215.923 124.523H211.605V126.384H215.923V124.523Z" fill="#A0A0A0"/>
</g>
<g opacity="0.7">
<path d="M158.462 120.927H154.145V122.788H158.462V120.927Z" fill="#A0A0A0"/>
</g>
<g opacity="0.7">
<path d="M209.493 120.927H205.176V122.788H209.493V120.927Z" fill="#A0A0A0"/>
</g>
<g opacity="0.98">
<path d="M152.095 118.331H147.777V120.192H152.095V118.331Z" fill="#A0A0A0"/>
</g>
<g opacity="0.98">
<path d="M203.122 118.331H198.805V120.192H203.122V118.331Z" fill="#A0A0A0"/>
</g>
<g opacity="0.96">
<path d="M145.653 125.756H141.336V127.617H145.653V125.756Z" fill="#A0A0A0"/>
</g>
<g opacity="0.77">
<path d="M139.216 122.938H134.898V124.799H139.216V122.938Z" fill="#A0A0A0"/>
</g>
<g opacity="0.9">
<path d="M132.853 121.237H128.535V123.098H132.853V121.237Z" fill="#A0A0A0"/>
</g>
<g opacity="0.77">
<path d="M126.415 116.57H122.098V118.431H126.415V116.57Z" fill="#A0A0A0"/>
</g>
<g opacity="0.86">
<path d="M119.981 124.953H115.664V126.814H119.981V124.953Z" fill="#A0A0A0"/>
</g>
<g opacity="0.96">
<path d="M113.614 127.045H109.297V128.906H113.614V127.045Z" fill="#A0A0A0"/>
</g>
<g opacity="0.82">
<path d="M107.181 121.561H102.863V123.422H107.181V121.561Z" fill="#A0A0A0"/>
</g>
<path d="M100.81 122.373H96.4922V124.234H100.81V122.373Z" fill="#A0A0A0"/>
<g opacity="0.83">
<path d="M94.3642 124.608H90.0469V126.469H94.3642V124.608Z" fill="#A0A0A0"/>
</g>
<g opacity="0.82">
<path d="M87.9306 121.237H83.6133V123.098H87.9306V121.237Z" fill="#A0A0A0"/>
</g>
<g opacity="0.72">
<path d="M81.5674 126.726H77.25V128.587H81.5674V126.726Z" fill="#A0A0A0"/>
</g>
<g opacity="0.78">
<path d="M75.1338 123.008H70.8164V124.869H75.1338V123.008Z" fill="#A0A0A0"/>
</g>
<g opacity="0.87">
<path d="M68.7588 117.858H64.4414V119.719H68.7588V117.858Z" fill="#A0A0A0"/>
</g>
<g opacity="0.82">
<path d="M62.3174 116.26H58V118.121H62.3174V116.26Z" fill="#A0A0A0"/>
</g>
<g opacity="0.49">
<path d="M236.001 108.594H231.684V110.076H236.001V108.594Z" fill="#A0A0A0"/>
</g>
<g opacity="0.4">
<path d="M196.938 104.965H192.621V110.106H196.938V104.965Z" fill="#A0A0A0"/>
</g>
<g opacity="0.4">
<path d="M229.028 104.965H224.711V110.106H229.028V104.965Z" fill="#A0A0A0"/>
</g>
<g opacity="0.43">
<path d="M190.509 106.542H186.191V110.075H190.509V106.542Z" fill="#A0A0A0"/>
</g>
<g opacity="0.31">
<path d="M184.145 102.533H179.828V110.103H184.145V102.533Z" fill="#A0A0A0"/>
</g>
<g opacity="0.6">
<path d="M177.704 95.2754H173.387V110.069H177.704V95.2754Z" fill="#A0A0A0"/>
</g>
<g opacity="0.6">
<path d="M171.263 100.611H166.945V110.105H171.263V100.611Z" fill="#A0A0A0"/>
</g>
<g opacity="0.6">
<path d="M222.294 100.611H217.977V110.105H222.294V100.611Z" fill="#A0A0A0"/>
</g>
<g opacity="0.39">
<path d="M164.899 98.9336H160.582V110.1H164.899V98.9336Z" fill="#A0A0A0"/>
</g>
<g opacity="0.39">
<path d="M215.923 98.9336H211.605V110.1H215.923V98.9336Z" fill="#A0A0A0"/>
</g>
<g opacity="0.59">
<path d="M158.462 102.533H154.145V110.103H158.462V102.533Z" fill="#A0A0A0"/>
</g>
<g opacity="0.59">
<path d="M209.493 102.533H205.176V110.103H209.493V102.533Z" fill="#A0A0A0"/>
</g>
<g opacity="0.39">
<path d="M152.095 105.127H147.777V110.079H152.095V105.127Z" fill="#A0A0A0"/>
</g>
<g opacity="0.39">
<path d="M203.122 105.127H198.805V110.079H203.122V105.127Z" fill="#A0A0A0"/>
</g>
<g opacity="0.38">
<path d="M145.653 97.7056H141.336V110.102H145.653V97.7056Z" fill="#A0A0A0"/>
</g>
<g opacity="0.36">
<path d="M139.216 100.517H134.898V110.106H139.216V100.517Z" fill="#A0A0A0"/>
</g>
<g opacity="0.39">
<path d="M132.853 102.215H128.535V110.101H132.853V102.215Z" fill="#A0A0A0"/>
</g>
<g opacity="0.33">
<path d="M126.415 106.855H122.098V110.072H126.415V106.855Z" fill="#A0A0A0"/>
</g>
<g opacity="0.37">
<path d="M119.981 98.4976H115.664V110.074H119.981V98.4976Z" fill="#A0A0A0"/>
</g>
<g opacity="0.42">
<path d="M113.614 96.418H109.297V110.076H113.614V96.418Z" fill="#A0A0A0"/>
</g>
<g opacity="0.5">
<path d="M107.181 101.869H102.863V110.07H107.181V101.869Z" fill="#A0A0A0"/>
</g>
<g opacity="0.54">
<path d="M100.798 101.087H96.4805V110.109H100.798V101.087Z" fill="#A0A0A0"/>
</g>
<g opacity="0.54">
<path d="M94.3642 98.8037H90.0469V110.065H94.3642V98.8037Z" fill="#A0A0A0"/>
</g>
<g opacity="0.34">
<path d="M87.9306 102.215H83.6133V110.101H87.9306V102.215Z" fill="#A0A0A0"/>
</g>
<g opacity="0.55">
<path d="M81.5674 96.729H77.25V110.072H81.5674V96.729Z" fill="#A0A0A0"/>
</g>
<g opacity="0.42">
<path d="M75.1338 100.457H70.8164V110.078H75.1338V100.457Z" fill="#A0A0A0"/>
</g>
<g opacity="0.54">
<path d="M68.7588 105.589H64.4414V110.1H68.7588V105.589Z" fill="#A0A0A0"/>
</g>
<g opacity="0.43">
<path d="M62.3174 107.208H58V110.078H62.3174V107.208Z" fill="#A0A0A0"/>
</g>
<g opacity="0.74">
<path d="M236.001 105.312H231.684V106.795H236.001V105.312Z" fill="#A0A0A0"/>
</g>
<g opacity="0.7">
<path d="M196.938 101.682H192.621V103.543H196.938V101.682Z" fill="#A0A0A0"/>
</g>
<g opacity="0.7">
<path d="M229.028 101.682H224.711V103.543H229.028V101.682Z" fill="#A0A0A0"/>
</g>
<g opacity="0.73">
<path d="M190.509 103.25H186.191V105.111H190.509V103.25Z" fill="#A0A0A0"/>
</g>
<g opacity="0.73">
<path d="M184.145 99.2549H179.828V101.116H184.145V99.2549Z" fill="#A0A0A0"/>
</g>
<g opacity="0.73">
<path d="M177.704 92H173.387V93.8611H177.704V92Z" fill="#A0A0A0"/>
</g>
<g opacity="0.72">
<path d="M171.263 97.3267H166.945V99.1877H171.263V97.3267Z" fill="#A0A0A0"/>
</g>
<g opacity="0.72">
<path d="M222.294 97.3267H217.977V99.1877H222.294V97.3267Z" fill="#A0A0A0"/>
</g>
<g opacity="0.88">
<path d="M164.899 95.6602H160.582V97.5212H164.899V95.6602Z" fill="#A0A0A0"/>
</g>
<g opacity="0.88">
<path d="M215.923 95.6602H211.605V97.5212H215.923V95.6602Z" fill="#A0A0A0"/>
</g>
<g opacity="0.7">
<path d="M158.462 99.2549H154.145V101.116H158.462V99.2549Z" fill="#A0A0A0"/>
</g>
<g opacity="0.7">
<path d="M209.493 99.2549H205.176V101.116H209.493V99.2549Z" fill="#A0A0A0"/>
</g>
<g opacity="0.98">
<path d="M152.095 101.849H147.777V103.71H152.095V101.849Z" fill="#A0A0A0"/>
</g>
<g opacity="0.98">
<path d="M203.122 101.849H198.805V103.71H203.122V101.849Z" fill="#A0A0A0"/>
</g>
<g opacity="0.96">
<path d="M145.653 94.4258H141.336V96.2868H145.653V94.4258Z" fill="#A0A0A0"/>
</g>
<g opacity="0.77">
<path d="M139.216 97.2417H134.898V99.1028H139.216V97.2417Z" fill="#A0A0A0"/>
</g>
<g opacity="0.9">
<path d="M132.853 98.9336H128.535V100.795H132.853V98.9336Z" fill="#A0A0A0"/>
</g>
<g opacity="0.77">
<path d="M126.415 103.58H122.098V105.441H126.415V103.58Z" fill="#A0A0A0"/>
</g>
<g opacity="0.86">
<path d="M119.981 95.2051H115.664V97.0661H119.981V95.2051Z" fill="#A0A0A0"/>
</g>
<g opacity="0.96">
<path d="M113.614 93.1367H109.297V94.9978H113.614V93.1367Z" fill="#A0A0A0"/>
</g>
<g opacity="0.82">
<path d="M107.181 98.5957H102.863V100.457H107.181V98.5957Z" fill="#A0A0A0"/>
</g>
<path d="M100.81 97.8071H96.4922V99.6682H100.81V97.8071Z" fill="#A0A0A0"/>
<g opacity="0.83">
<path d="M94.3642 95.5308H90.0469V97.3918H94.3642V95.5308Z" fill="#A0A0A0"/>
</g>
<g opacity="0.82">
<path d="M87.9306 98.9336H83.6133V100.795H87.9306V98.9336Z" fill="#A0A0A0"/>
</g>
<g opacity="0.72">
<path d="M81.5674 93.4473H77.25V95.3083H81.5674V93.4473Z" fill="#A0A0A0"/>
</g>
<g opacity="0.78">
<path d="M75.1338 97.1675H70.8164V99.0285H75.1338V97.1675Z" fill="#A0A0A0"/>
</g>
<g opacity="0.87">
<path d="M68.7588 102.32H64.4414V104.181H68.7588V102.32Z" fill="#A0A0A0"/>
</g>
<g opacity="0.82">
<path d="M62.3174 103.918H58V105.779H62.3174V103.918Z" fill="#A0A0A0"/>
</g>
<g opacity="0.36">
<path d="M139.055 111.665H134.746V121.264H139.055V111.665Z" fill="#3A37A6"/>
</g>
<g opacity="0.39">
<path d="M132.703 111.665H128.395V119.559H132.703V111.665Z" fill="#3A37A6"/>
</g>
<g opacity="0.33">
<path d="M126.281 111.665H121.973V114.885H126.281V111.665Z" fill="#3A37A6"/>
</g>
<g opacity="0.37">
<path d="M119.856 111.665H115.547V123.253H119.856V111.665Z" fill="#3A37A6"/>
</g>
<g opacity="0.42">
<path d="M113.5 111.665H109.191V125.337H113.5V111.665Z" fill="#3A37A6"/>
</g>
<g opacity="0.5">
<path d="M107.074 111.665H102.766V119.874H107.074V111.665Z" fill="#3A37A6"/>
</g>
<g opacity="0.54">
<path d="M100.723 111.665H96.4141V120.695H100.723V111.665Z" fill="#3A37A6"/>
</g>
<g opacity="0.54">
<path d="M94.2853 111.665H89.9766V122.937H94.2853V111.665Z" fill="#3A37A6"/>
</g>
<g opacity="0.34">
<path d="M87.8713 111.665H83.5625V119.559H87.8713V111.665Z" fill="#3A37A6"/>
</g>
<g opacity="0.55">
<path d="M81.5236 111.665H77.2148V125.021H81.5236V111.665Z" fill="#3A37A6"/>
</g>
<g opacity="0.42">
<path d="M75.09 111.665H70.7812V121.295H75.09V111.665Z" fill="#3A37A6"/>
</g>
<g opacity="0.54">
<path d="M68.7345 111.665H64.4258V116.18H68.7345V111.665Z" fill="#3A37A6"/>
</g>
<g opacity="0.43">
<path d="M62.3087 111.665H58V114.538H62.3087V111.665Z" fill="#3A37A6"/>
</g>
<g opacity="0.77">
<path d="M139.055 122.642H134.746V124.505H139.055V122.642Z" fill="#3A37A6"/>
</g>
<g opacity="0.9">
<path d="M132.703 120.946H128.395V122.809H132.703V120.946Z" fill="#3A37A6"/>
</g>
<g opacity="0.77">
<path d="M126.281 116.27H121.973V118.133H126.281V116.27Z" fill="#3A37A6"/>
</g>
<g opacity="0.86">
<path d="M119.856 124.67H115.547V126.533H119.856V124.67Z" fill="#3A37A6"/>
</g>
<g opacity="0.96">
<path d="M113.5 126.741H109.191V128.604H113.5V126.741Z" fill="#3A37A6"/>
</g>
<g opacity="0.82">
<path d="M107.074 121.256H102.766V123.119H107.074V121.256Z" fill="#3A37A6"/>
</g>
<path d="M100.723 122.081H96.4141V123.944H100.723V122.081Z" fill="#3A37A6"/>
<g opacity="0.83">
<path d="M94.2853 124.323H89.9766V126.186H94.2853V124.323Z" fill="#3A37A6"/>
</g>
<g opacity="0.82">
<path d="M87.8713 120.946H83.5625V122.809H87.8713V120.946Z" fill="#3A37A6"/>
</g>
<g opacity="0.72">
<path d="M81.5236 126.443H77.2148V128.306H81.5236V126.443Z" fill="#3A37A6"/>
</g>
<g opacity="0.78">
<path d="M75.09 122.71H70.7812V124.573H75.09V122.71Z" fill="#3A37A6"/>
</g>
<g opacity="0.87">
<path d="M68.7345 117.573H64.4258V119.436H68.7345V117.573Z" fill="#3A37A6"/>
</g>
<g opacity="0.82">
<path d="M62.3087 115.953H58V117.816H62.3087V115.953Z" fill="#3A37A6"/>
</g>
<g opacity="0.36">
<path d="M139.055 100.2H134.746V109.799H139.055V100.2Z" fill="#3A37A6"/>
</g>
<g opacity="0.39">
<path d="M132.703 101.898H128.395V109.793H132.703V101.898Z" fill="#3A37A6"/>
</g>
<g opacity="0.33">
<path d="M126.281 106.536H121.973V109.756H126.281V106.536Z" fill="#3A37A6"/>
</g>
<g opacity="0.37">
<path d="M119.856 98.1802H115.547V109.769H119.856V98.1802Z" fill="#3A37A6"/>
</g>
<g opacity="0.42">
<path d="M113.5 96.0923H109.191V109.765H113.5V96.0923Z" fill="#3A37A6"/>
</g>
<g opacity="0.5">
<path d="M107.074 101.558H102.766V109.767H107.074V101.558Z" fill="#3A37A6"/>
</g>
<g opacity="0.54">
<path d="M100.723 100.766H96.4141V109.797H100.723V100.766Z" fill="#3A37A6"/>
</g>
<g opacity="0.54">
<path d="M94.2853 98.4932H89.9766V109.766H94.2853V98.4932Z" fill="#3A37A6"/>
</g>
<g opacity="0.34">
<path d="M87.8713 101.898H83.5625V109.793H87.8713V101.898Z" fill="#3A37A6"/>
</g>
<g opacity="0.55">
<path d="M81.5236 96.4102H77.2148V109.767H81.5236V96.4102Z" fill="#3A37A6"/>
</g>
<g opacity="0.42">
<path d="M75.09 100.14H70.7812V109.771H75.09V100.14Z" fill="#3A37A6"/>
</g>
<g opacity="0.54">
<path d="M68.7345 105.293H64.4258V109.808H68.7345V105.293Z" fill="#3A37A6"/>
</g>
<g opacity="0.43">
<path d="M62.3087 106.885H58V109.758H62.3087V106.885Z" fill="#3A37A6"/>
</g>
<g opacity="0.77">
<path d="M139.055 96.916H134.746V98.779H139.055V96.916Z" fill="#3A37A6"/>
</g>
<g opacity="0.9">
<path d="M132.703 98.6206H128.395V100.484H132.703V98.6206Z" fill="#3A37A6"/>
</g>
<g opacity="0.77">
<path d="M126.281 103.258H121.973V105.121H126.281V103.258Z" fill="#3A37A6"/>
</g>
<g opacity="0.86">
<path d="M119.856 94.8926H115.547V96.7556H119.856V94.8926Z" fill="#3A37A6"/>
</g>
<g opacity="0.96">
<path d="M113.5 92.8086H109.191V94.6716H113.5V92.8086Z" fill="#3A37A6"/>
</g>
<g opacity="0.82">
<path d="M107.074 98.2783H102.766V100.141H107.074V98.2783Z" fill="#3A37A6"/>
</g>
<path d="M100.723 97.4854H96.4141V99.3484H100.723V97.4854Z" fill="#3A37A6"/>
<g opacity="0.83">
<path d="M94.2853 95.2075H89.9766V97.0705H94.2853V95.2075Z" fill="#3A37A6"/>
</g>
<g opacity="0.82">
<path d="M87.8713 98.6206H83.5625V100.484H87.8713V98.6206Z" fill="#3A37A6"/>
</g>
<g opacity="0.72">
<path d="M81.5236 93.1279H77.2148V94.9909H81.5236V93.1279Z" fill="#3A37A6"/>
</g>
<g opacity="0.78">
<path d="M75.09 96.8564H70.7812V98.7195H75.09V96.8564Z" fill="#3A37A6"/>
</g>
<g opacity="0.87">
<path d="M68.7345 102H64.4258V103.863H68.7345V102Z" fill="#3A37A6"/>
</g>
<g opacity="0.82">
<path d="M62.3087 103.616H58V105.479H62.3087V103.616Z" fill="#3A37A6"/>
</g>
<g filter="url(#filter2_d_221_7147)">
<rect x="130" y="94" width="34" height="34" rx="17" fill="#94A2F2"/>
</g>
<path d="M144.34 110.999V109.643C144.34 107.892 145.577 107.186 147.09 108.057L148.263 108.735L149.437 109.414C150.949 110.284 150.949 111.714 149.437 112.585L148.263 113.264L147.09 113.942C145.577 114.813 144.34 114.098 144.34 112.356V110.999Z" fill="white" stroke="white" stroke-width="1.5" stroke-miterlimit="10" stroke-linecap="round" stroke-linejoin="round"/>
<path d="M146.999 120.167C152.061 120.167 156.165 116.063 156.165 111C156.165 105.938 152.061 101.833 146.999 101.833C141.936 101.833 137.832 105.938 137.832 111C137.832 116.063 141.936 120.167 146.999 120.167Z" stroke="white" stroke-width="1.5" stroke-linecap="round" stroke-linejoin="round"/>
</g>
<rect x="-54731" y="-2180" width="187385" height="9838" stroke="#262626" stroke-width="20"/>
<defs>
<filter id="filter0_d_221_7147" x="-870" y="-237" width="1804" height="894" filterUnits="userSpaceOnUse" color-interpolation-filters="sRGB">
<feFlood flood-opacity="0" result="BackgroundImageFix"/>
<feColorMatrix in="SourceAlpha" type="matrix" values="0 0 0 0 0 0 0 0 0 0 0 0 0 0 0 0 0 0 127 0" result="hardAlpha"/>
<feMorphology radius="3" operator="dilate" in="SourceAlpha" result="effect1_dropShadow_221_7147"/>
<feOffset dy="7"/>
<feGaussianBlur stdDeviation="7"/>
<feComposite in2="hardAlpha" operator="out"/>
<feColorMatrix type="matrix" values="0 0 0 0 0 0 0 0 0 0 0 0 0 0 0 0 0 0 0.03 0"/>
<feBlend mode="normal" in2="BackgroundImageFix" result="effect1_dropShadow_221_7147"/>
<feBlend mode="normal" in="SourceGraphic" in2="effect1_dropShadow_221_7147" result="shape"/>
</filter>
<filter id="filter1_d_221_7147" x="0" y="0" width="294" height="235" filterUnits="userSpaceOnUse" color-interpolation-filters="sRGB">
<feFlood flood-opacity="0" result="BackgroundImageFix"/>
<feColorMatrix in="SourceAlpha" type="matrix" values="0 0 0 0 0 0 0 0 0 0 0 0 0 0 0 0 0 0 127 0" result="hardAlpha"/>
<feMorphology radius="3" operator="dilate" in="SourceAlpha" result="effect1_dropShadow_221_7147"/>
<feOffset dy="7"/>
<feGaussianBlur stdDeviation="7"/>
<feComposite in2="hardAlpha" operator="out"/>
<feColorMatrix type="matrix" values="0 0 0 0 0 0 0 0 0 0 0 0 0 0 0 0 0 0 0.03 0"/>
<feBlend mode="normal" in2="BackgroundImageFix" result="effect1_dropShadow_221_7147"/>
<feBlend mode="normal" in="SourceGraphic" in2="effect1_dropShadow_221_7147" result="shape"/>
</filter>
<filter id="filter2_d_221_7147" x="116" y="84" width="62" height="62" filterUnits="userSpaceOnUse" color-interpolation-filters="sRGB">
<feFlood flood-opacity="0" result="BackgroundImageFix"/>
<feColorMatrix in="SourceAlpha" type="matrix" values="0 0 0 0 0 0 0 0 0 0 0 0 0 0 0 0 0 0 127 0" result="hardAlpha"/>
<feOffset dy="4"/>
<feGaussianBlur stdDeviation="7"/>
<feColorMatrix type="matrix" values="0 0 0 0 0.34902 0 0 0 0 0.341176 0 0 0 0 0.584314 0 0 0 0.3 0"/>
<feBlend mode="normal" in2="BackgroundImageFix" result="effect1_dropShadow_221_7147"/>
<feBlend mode="normal" in="SourceGraphic" in2="effect1_dropShadow_221_7147" result="shape"/>
</filter>
<clipPath id="clip0_221_7147">
<rect width="1920" height="1080" fill="white" transform="translate(-973 -417)"/>
</clipPath>
</defs>
</svg>
