<svg width="25" height="26" viewBox="0 0 25 26" fill="none" xmlns="http://www.w3.org/2000/svg">
<mask id="path-1-outside-1_3337_254583" maskUnits="userSpaceOnUse" x="0" y="6.90234" width="25" height="19" fill="black">
<rect fill="white" y="6.90234" width="25" height="19"/>
<path d="M23.1537 8.21306V9.57732V12.837V16.7788V20.1869V21.3064C23.1537 21.4835 23.1407 21.6657 23.1537 21.8428V21.8428C23.1537 21.8514 23.1642 21.8558 23.1703 21.8497C23.2101 21.8099 23.2504 21.7696 23.2906 21.7293C23.3391 21.6809 23.3083 21.5981 23.2399 21.5936C21.6801 21.4911 20.1077 21.5964 18.5743 21.9027C16.9861 22.2203 15.4448 22.7592 13.9998 23.4935C13.424 23.7862 12.862 24.1087 12.3244 24.463C12.2918 24.4845 12.3071 24.5349 12.3461 24.5349V24.5349C12.3855 24.5349 12.4006 24.4838 12.3675 24.4626C11.2211 23.7264 10.0111 23.1085 8.73276 22.6395C7.21225 22.0824 5.61628 21.7361 4.00208 21.6085C3.15141 21.5403 2.29845 21.5359 1.44753 21.5933C1.37912 21.5979 1.34838 21.6807 1.39686 21.7292V21.7292C1.44743 21.7798 1.53392 21.744 1.53392 21.6725V20.502V17.2423V13.3005V9.89243V8.77288C1.53392 8.59583 1.54694 8.41359 1.53392 8.23653V8.23653C1.53392 8.22788 1.52347 8.22355 1.51735 8.22966C1.48217 8.26485 1.44661 8.30041 1.41102 8.336C1.36378 8.38324 1.4008 8.4641 1.46747 8.45976C2.97634 8.36154 4.49514 8.45744 5.97563 8.75204C7.51956 9.06186 9.02441 9.57737 10.4278 10.2907C11.0448 10.6032 11.6332 10.9624 12.2164 11.3322C12.2919 11.379 12.4038 11.3816 12.4794 11.3322C13.6301 10.5823 14.846 9.94448 16.1374 9.4732C17.6136 8.93428 19.1627 8.59322 20.7275 8.47343C21.6205 8.40574 22.5187 8.40574 23.4091 8.47343C23.5497 8.48385 23.6695 8.34586 23.6695 8.21307C23.6695 8.06207 23.5497 7.96313 23.4091 7.95271C21.8001 7.83035 20.1755 7.93189 18.5926 8.24692C17.0123 8.56195 15.4761 9.09568 14.0364 9.82208C13.4451 10.1202 12.879 10.455 12.3231 10.8135C12.2907 10.8344 12.3055 10.8843 12.344 10.8843V10.8843C12.3827 10.8843 12.3973 10.8339 12.3646 10.8133C11.204 10.0832 9.99819 9.45275 8.70685 8.98108C7.1942 8.42654 5.60337 8.08548 3.99698 7.95789C3.08833 7.88499 2.17706 7.88499 1.26846 7.95529C1.12787 7.9657 1.0081 8.06464 1.0081 8.21565V9.5799V12.8396V16.7814V20.1895C1.0081 20.7414 0.989875 21.296 1.0081 21.8453V21.8688C1.0081 22.0016 1.12786 22.1395 1.26846 22.1291C2.84881 22.0094 4.43959 22.1005 5.99395 22.4129C7.54569 22.7253 9.05572 23.2461 10.4643 23.9672C11.0657 24.2744 11.6463 24.6207 12.2112 24.9878C12.2841 25.0347 12.4013 25.0373 12.4742 24.9878C13.6041 24.2276 14.8357 23.6054 16.114 23.1367C17.5954 22.5952 19.1523 22.2489 20.7249 22.1291C21.618 22.0614 22.5162 22.0614 23.4066 22.1291C23.5472 22.1395 23.667 22.0015 23.667 21.8688V20.5045V17.2448V13.303V9.89493C23.667 9.34296 23.6852 8.78842 23.667 8.23907V8.21564C23.6748 7.87717 23.1537 7.8772 23.1537 8.21306Z"/>
</mask>
<path d="M23.1537 8.21306V9.57732V12.837V16.7788V20.1869V21.3064C23.1537 21.4835 23.1407 21.6657 23.1537 21.8428V21.8428C23.1537 21.8514 23.1642 21.8558 23.1703 21.8497C23.2101 21.8099 23.2504 21.7696 23.2906 21.7293C23.3391 21.6809 23.3083 21.5981 23.2399 21.5936C21.6801 21.4911 20.1077 21.5964 18.5743 21.9027C16.9861 22.2203 15.4448 22.7592 13.9998 23.4935C13.424 23.7862 12.862 24.1087 12.3244 24.463C12.2918 24.4845 12.3071 24.5349 12.3461 24.5349V24.5349C12.3855 24.5349 12.4006 24.4838 12.3675 24.4626C11.2211 23.7264 10.0111 23.1085 8.73276 22.6395C7.21225 22.0824 5.61628 21.7361 4.00208 21.6085C3.15141 21.5403 2.29845 21.5359 1.44753 21.5933C1.37912 21.5979 1.34838 21.6807 1.39686 21.7292V21.7292C1.44743 21.7798 1.53392 21.744 1.53392 21.6725V20.502V17.2423V13.3005V9.89243V8.77288C1.53392 8.59583 1.54694 8.41359 1.53392 8.23653V8.23653C1.53392 8.22788 1.52347 8.22355 1.51735 8.22966C1.48217 8.26485 1.44661 8.30041 1.41102 8.336C1.36378 8.38324 1.4008 8.4641 1.46747 8.45976C2.97634 8.36154 4.49514 8.45744 5.97563 8.75204C7.51956 9.06186 9.02441 9.57737 10.4278 10.2907C11.0448 10.6032 11.6332 10.9624 12.2164 11.3322C12.2919 11.379 12.4038 11.3816 12.4794 11.3322C13.6301 10.5823 14.846 9.94448 16.1374 9.4732C17.6136 8.93428 19.1627 8.59322 20.7275 8.47343C21.6205 8.40574 22.5187 8.40574 23.4091 8.47343C23.5497 8.48385 23.6695 8.34586 23.6695 8.21307C23.6695 8.06207 23.5497 7.96313 23.4091 7.95271C21.8001 7.83035 20.1755 7.93189 18.5926 8.24692C17.0123 8.56195 15.4761 9.09568 14.0364 9.82208C13.4451 10.1202 12.879 10.455 12.3231 10.8135C12.2907 10.8344 12.3055 10.8843 12.344 10.8843V10.8843C12.3827 10.8843 12.3973 10.8339 12.3646 10.8133C11.204 10.0832 9.99819 9.45275 8.70685 8.98108C7.1942 8.42654 5.60337 8.08548 3.99698 7.95789C3.08833 7.88499 2.17706 7.88499 1.26846 7.95529C1.12787 7.9657 1.0081 8.06464 1.0081 8.21565V9.5799V12.8396V16.7814V20.1895C1.0081 20.7414 0.989875 21.296 1.0081 21.8453V21.8688C1.0081 22.0016 1.12786 22.1395 1.26846 22.1291C2.84881 22.0094 4.43959 22.1005 5.99395 22.4129C7.54569 22.7253 9.05572 23.2461 10.4643 23.9672C11.0657 24.2744 11.6463 24.6207 12.2112 24.9878C12.2841 25.0347 12.4013 25.0373 12.4742 24.9878C13.6041 24.2276 14.8357 23.6054 16.114 23.1367C17.5954 22.5952 19.1523 22.2489 20.7249 22.1291C21.618 22.0614 22.5162 22.0614 23.4066 22.1291C23.5472 22.1395 23.667 22.0015 23.667 21.8688V20.5045V17.2448V13.303V9.89493C23.667 9.34296 23.6852 8.78842 23.667 8.23907V8.21564C23.6748 7.87717 23.1537 7.8772 23.1537 8.21306Z" fill="#3A37A6"/>
<path d="M23.1537 8.21306V9.57732V12.837V16.7788V20.1869V21.3064C23.1537 21.4835 23.1407 21.6657 23.1537 21.8428V21.8428C23.1537 21.8514 23.1642 21.8558 23.1703 21.8497C23.2101 21.8099 23.2504 21.7696 23.2906 21.7293C23.3391 21.6809 23.3083 21.5981 23.2399 21.5936C21.6801 21.4911 20.1077 21.5964 18.5743 21.9027C16.9861 22.2203 15.4448 22.7592 13.9998 23.4935C13.424 23.7862 12.862 24.1087 12.3244 24.463C12.2918 24.4845 12.3071 24.5349 12.3461 24.5349V24.5349C12.3855 24.5349 12.4006 24.4838 12.3675 24.4626C11.2211 23.7264 10.0111 23.1085 8.73276 22.6395C7.21225 22.0824 5.61628 21.7361 4.00208 21.6085C3.15141 21.5403 2.29845 21.5359 1.44753 21.5933C1.37912 21.5979 1.34838 21.6807 1.39686 21.7292V21.7292C1.44743 21.7798 1.53392 21.744 1.53392 21.6725V20.502V17.2423V13.3005V9.89243V8.77288C1.53392 8.59583 1.54694 8.41359 1.53392 8.23653V8.23653C1.53392 8.22788 1.52347 8.22355 1.51735 8.22966C1.48217 8.26485 1.44661 8.30041 1.41102 8.336C1.36378 8.38324 1.4008 8.4641 1.46747 8.45976C2.97634 8.36154 4.49514 8.45744 5.97563 8.75204C7.51956 9.06186 9.02441 9.57737 10.4278 10.2907C11.0448 10.6032 11.6332 10.9624 12.2164 11.3322C12.2919 11.379 12.4038 11.3816 12.4794 11.3322C13.6301 10.5823 14.846 9.94448 16.1374 9.4732C17.6136 8.93428 19.1627 8.59322 20.7275 8.47343C21.6205 8.40574 22.5187 8.40574 23.4091 8.47343C23.5497 8.48385 23.6695 8.34586 23.6695 8.21307C23.6695 8.06207 23.5497 7.96313 23.4091 7.95271C21.8001 7.83035 20.1755 7.93189 18.5926 8.24692C17.0123 8.56195 15.4761 9.09568 14.0364 9.82208C13.4451 10.1202 12.879 10.455 12.3231 10.8135C12.2907 10.8344 12.3055 10.8843 12.344 10.8843V10.8843C12.3827 10.8843 12.3973 10.8339 12.3646 10.8133C11.204 10.0832 9.99819 9.45275 8.70685 8.98108C7.1942 8.42654 5.60337 8.08548 3.99698 7.95789C3.08833 7.88499 2.17706 7.88499 1.26846 7.95529C1.12787 7.9657 1.0081 8.06464 1.0081 8.21565V9.5799V12.8396V16.7814V20.1895C1.0081 20.7414 0.989875 21.296 1.0081 21.8453V21.8688C1.0081 22.0016 1.12786 22.1395 1.26846 22.1291C2.84881 22.0094 4.43959 22.1005 5.99395 22.4129C7.54569 22.7253 9.05572 23.2461 10.4643 23.9672C11.0657 24.2744 11.6463 24.6207 12.2112 24.9878C12.2841 25.0347 12.4013 25.0373 12.4742 24.9878C13.6041 24.2276 14.8357 23.6054 16.114 23.1367C17.5954 22.5952 19.1523 22.2489 20.7249 22.1291C21.618 22.0614 22.5162 22.0614 23.4066 22.1291C23.5472 22.1395 23.667 22.0015 23.667 21.8688V20.5045V17.2448V13.303V9.89493C23.667 9.34296 23.6852 8.78842 23.667 8.23907V8.21564C23.6748 7.87717 23.1537 7.8772 23.1537 8.21306Z" stroke="#3A37A6" mask="url(#path-1-outside-1_3337_254583)"/>
<mask id="path-2-outside-2_3337_254583" maskUnits="userSpaceOnUse" x="7.67188" y="0" width="9" height="9" fill="black">
<rect fill="white" x="7.67188" width="9" height="9"/>
<path d="M15.4955 4.6726C15.4877 5.97178 14.6702 7.18503 13.4387 7.63288C12.1786 8.0911 10.7596 7.70577 9.90303 6.67738C9.05689 5.66461 8.96053 4.17276 9.63746 3.0454C10.3144 1.92328 11.663 1.31665 12.9518 1.5744C14.2432 1.83476 15.2481 2.88401 15.4617 4.18319C15.4851 4.34461 15.4929 4.50863 15.4955 4.67265C15.4981 5.00851 16.0188 5.00851 16.0162 4.67265C16.0084 3.13395 15.0347 1.75146 13.5949 1.21772C12.163 0.689178 10.4785 1.14743 9.51254 2.32685C8.531 3.52448 8.38779 5.24804 9.1949 6.5785C9.99681 7.89591 11.5615 8.57285 13.0716 8.27601C14.5426 7.98441 15.7377 6.7477 15.9668 5.2637C15.998 5.06843 16.0136 4.87056 16.0162 4.67269C16.0162 4.33683 15.4955 4.33683 15.4955 4.67269L15.4955 4.6726Z"/>
</mask>
<path d="M15.4955 4.6726C15.4877 5.97178 14.6702 7.18503 13.4387 7.63288C12.1786 8.0911 10.7596 7.70577 9.90303 6.67738C9.05689 5.66461 8.96053 4.17276 9.63746 3.0454C10.3144 1.92328 11.663 1.31665 12.9518 1.5744C14.2432 1.83476 15.2481 2.88401 15.4617 4.18319C15.4851 4.34461 15.4929 4.50863 15.4955 4.67265C15.4981 5.00851 16.0188 5.00851 16.0162 4.67265C16.0084 3.13395 15.0347 1.75146 13.5949 1.21772C12.163 0.689178 10.4785 1.14743 9.51254 2.32685C8.531 3.52448 8.38779 5.24804 9.1949 6.5785C9.99681 7.89591 11.5615 8.57285 13.0716 8.27601C14.5426 7.98441 15.7377 6.7477 15.9668 5.2637C15.998 5.06843 16.0136 4.87056 16.0162 4.67269C16.0162 4.33683 15.4955 4.33683 15.4955 4.67269L15.4955 4.6726Z" fill="#3A37A6"/>
<path d="M15.4955 4.6726C15.4877 5.97178 14.6702 7.18503 13.4387 7.63288C12.1786 8.0911 10.7596 7.70577 9.90303 6.67738C9.05689 5.66461 8.96053 4.17276 9.63746 3.0454C10.3144 1.92328 11.663 1.31665 12.9518 1.5744C14.2432 1.83476 15.2481 2.88401 15.4617 4.18319C15.4851 4.34461 15.4929 4.50863 15.4955 4.67265C15.4981 5.00851 16.0188 5.00851 16.0162 4.67265C16.0084 3.13395 15.0347 1.75146 13.5949 1.21772C12.163 0.689178 10.4785 1.14743 9.51254 2.32685C8.531 3.52448 8.38779 5.24804 9.1949 6.5785C9.99681 7.89591 11.5615 8.57285 13.0716 8.27601C14.5426 7.98441 15.7377 6.7477 15.9668 5.2637C15.998 5.06843 16.0136 4.87056 16.0162 4.67269C16.0162 4.33683 15.4955 4.33683 15.4955 4.67269L15.4955 4.6726Z" stroke="#3A37A6" mask="url(#path-2-outside-2_3337_254583)"/>
<mask id="path-3-outside-3_3337_254583" maskUnits="userSpaceOnUse" x="11.0859" y="9.85938" width="3" height="16" fill="black">
<rect fill="white" x="11.0859" y="9.85938" width="3" height="16"/>
<path d="M12.094 11.1113V12.4755V15.7352V19.677V23.0851C12.094 23.6371 12.0758 24.1916 12.094 24.741V24.7644C12.094 25.1003 12.6148 25.1003 12.6148 24.7644V23.4001V20.1405V16.1986V12.7906C12.6148 12.2386 12.633 11.6841 12.6148 11.1347V11.1113C12.6148 10.7754 12.094 10.7754 12.094 11.1113Z"/>
</mask>
<path d="M12.094 11.1113V12.4755V15.7352V19.677V23.0851C12.094 23.6371 12.0758 24.1916 12.094 24.741V24.7644C12.094 25.1003 12.6148 25.1003 12.6148 24.7644V23.4001V20.1405V16.1986V12.7906C12.6148 12.2386 12.633 11.6841 12.6148 11.1347V11.1113C12.6148 10.7754 12.094 10.7754 12.094 11.1113Z" fill="#3A37A6"/>
<path d="M12.094 11.1113V12.4755V15.7352V19.677V23.0851C12.094 23.6371 12.0758 24.1916 12.094 24.741V24.7644C12.094 25.1003 12.6148 25.1003 12.6148 24.7644V23.4001V20.1405V16.1986V12.7906C12.6148 12.2386 12.633 11.6841 12.6148 11.1347V11.1113C12.6148 10.7754 12.094 10.7754 12.094 11.1113Z" stroke="#3A37A6" mask="url(#path-3-outside-3_3337_254583)"/>
</svg>
