<svg width="24" height="24" viewBox="0 0 24 24" fill="none" xmlns="http://www.w3.org/2000/svg">
<path d="M5.44819 24V7.80724H0.303533V24H5.44819ZM2.87653 5.59507C4.67056 5.59507 5.78726 4.35165 5.78726 2.7978C5.75384 1.2089 4.67063 0 2.91057 0C1.15079 0 0 1.20893 0 2.7978C0 4.35172 1.11642 5.59507 2.84294 5.59507H2.87653ZM8.29575 24H13.4404V14.9572C13.4404 14.4732 13.4738 13.9898 13.6097 13.6438C13.9816 12.6769 14.8281 11.6754 16.2493 11.6754C18.1109 11.6754 18.8557 13.1603 18.8557 15.3371V23.9999H24V14.7151C24 9.74133 21.4619 7.42708 18.077 7.42708C15.3017 7.42708 14.0831 9.05001 13.4062 10.1554H13.4405V7.8069H8.29586C8.36338 9.32634 8.29575 24 8.29575 24Z" fill="#3A37A6"/>
</svg>
