<svg width="20" height="20" viewBox="0 0 20 20" fill="none" xmlns="http://www.w3.org/2000/svg">
<path d="M15 8.95829C14.6583 8.95829 14.375 8.67496 14.375 8.33329V6.66663C14.375 4.04163 13.6333 2.29163 10 2.29163C6.36667 2.29163 5.625 4.04163 5.625 6.66663V8.33329C5.625 8.67496 5.34167 8.95829 5 8.95829C4.65833 8.95829 4.375 8.67496 4.375 8.33329V6.66663C4.375 4.24996 4.95833 1.04163 10 1.04163C15.0417 1.04163 15.625 4.24996 15.625 6.66663V8.33329C15.625 8.67496 15.3417 8.95829 15 8.95829Z" fill="#3A37A6"/>
<path d="M10.0013 16.0417C8.50964 16.0417 7.29297 14.825 7.29297 13.3333C7.29297 11.8417 8.50964 10.625 10.0013 10.625C11.493 10.625 12.7096 11.8417 12.7096 13.3333C12.7096 14.825 11.493 16.0417 10.0013 16.0417ZM10.0013 11.875C9.2013 11.875 8.54297 12.5333 8.54297 13.3333C8.54297 14.1333 9.2013 14.7917 10.0013 14.7917C10.8013 14.7917 11.4596 14.1333 11.4596 13.3333C11.4596 12.5333 10.8013 11.875 10.0013 11.875Z" fill="#3A37A6"/>
<path d="M14.168 18.9584H5.83464C2.15964 18.9584 1.04297 17.8417 1.04297 14.1667V12.5C1.04297 8.82504 2.15964 7.70837 5.83464 7.70837H14.168C17.843 7.70837 18.9596 8.82504 18.9596 12.5V14.1667C18.9596 17.8417 17.843 18.9584 14.168 18.9584ZM5.83464 8.95837C2.8513 8.95837 2.29297 9.52504 2.29297 12.5V14.1667C2.29297 17.1417 2.8513 17.7084 5.83464 17.7084H14.168C17.1513 17.7084 17.7096 17.1417 17.7096 14.1667V12.5C17.7096 9.52504 17.1513 8.95837 14.168 8.95837H5.83464Z" fill="#3A37A6"/>
</svg>
