<svg width="70" height="72" viewBox="0 0 70 72" fill="none" xmlns="http://www.w3.org/2000/svg">
<path fill-rule="evenodd" clip-rule="evenodd" d="M31.5047 16.873C20.0246 21.339 11.4555 31.4308 10 43.8425C10 46.8198 11.558 49.3717 14.305 50.8797C17.0521 52.3683 20.1886 52.3683 22.9151 50.8797C31.2997 44.2098 35.3587 33.886 33.5957 23.6782C33.1857 21.3196 32.4682 19.0383 31.5047 16.873Z" fill="#3A37A6"/>
<path fill-rule="evenodd" clip-rule="evenodd" d="M33.5947 23.6796C35.3577 33.8874 31.2986 44.2112 22.9141 50.8811L39.3142 41.9493L55.6939 33.0368C58.4409 31.5288 59.9989 28.9769 59.9989 25.9996C59.9989 23.003 58.4409 20.451 55.6939 18.9624L47.4938 14.4965C41.8563 14.0905 36.4032 14.9798 31.5036 16.8744C32.4672 19.0397 33.1847 21.321 33.5947 23.6796Z" fill="#94A2F2"/>
<path fill-rule="evenodd" clip-rule="evenodd" d="M10 43.843C11.4555 31.4313 20.0246 21.3395 31.5047 16.8735C28.2657 9.75902 22.1361 4.03646 14.305 1.11719C11.558 2.60583 10 5.15777 10 8.15438V25.9987V43.843Z" fill="#AEBFF2"/>
<path fill-rule="evenodd" clip-rule="evenodd" d="M14.3047 1.11648C22.1358 4.03575 28.2653 9.75831 31.5044 16.8728C36.4039 14.9782 41.857 14.0889 47.4945 14.4949L39.3149 10.029L22.9148 1.11648C20.1882 -0.372159 17.0517 -0.372159 14.3047 1.11648Z" fill="#CEDEF2"/>
<line y1="71.5" x2="70" y2="71.5" stroke="#CEDEF2"/>
</svg>
