<svg width="40" height="40" viewBox="0 0 40 40" fill="none" xmlns="http://www.w3.org/2000/svg">
<rect width="40" height="40" fill="#F3F2F3"/>
<g clip-path="url(#clip0_221_7147)">
<rect width="1920" height="1080" transform="translate(-1680 -743)" fill="white"/>
<path d="M-1119.5 -562.5H200C205.247 -562.5 209.5 -558.247 209.5 -553V297C209.5 302.247 205.247 306.5 200 306.5H-1119.5V-562.5Z" fill="white" stroke="#EBEBEB"/>
<path d="M-1089.5 -525C-1089.5 -529.142 -1086.14 -532.5 -1082 -532.5H172C176.142 -532.5 179.5 -529.142 179.5 -525V259C179.5 263.142 176.142 266.5 172 266.5H-1082C-1086.14 266.5 -1089.5 263.142 -1089.5 259V-525Z" fill="white" stroke="#EBEBEB"/>
<rect x="-1049.5" y="-49.5" width="1189" height="139" rx="7.5" fill="white" stroke="#EBEBEB"/>
<rect width="40" height="40" rx="8" fill="#E7EEF9"/>
<path d="M25.416 30.832H14.5827C10.2493 30.832 9.16602 29.7487 9.16602 25.4154V23.2487C9.16602 18.9154 10.2493 17.832 14.5827 17.832H25.416C29.7493 17.832 30.8327 18.9154 30.8327 23.2487V25.4154C30.8327 29.7487 29.7493 30.832 25.416 30.832Z" stroke="#3A37A6" stroke-width="1.5" stroke-linecap="round" stroke-linejoin="round"/>
<path d="M13.5 17.8346V15.668C13.5 12.0821 14.5833 9.16797 20 9.16797C24.875 9.16797 26.5 11.3346 26.5 14.5846" stroke="#3A37A6" stroke-width="1.5" stroke-linecap="round" stroke-linejoin="round"/>
<path d="M19.9993 27.0417C21.4951 27.0417 22.7077 25.8291 22.7077 24.3333C22.7077 22.8376 21.4951 21.625 19.9993 21.625C18.5036 21.625 17.291 22.8376 17.291 24.3333C17.291 25.8291 18.5036 27.0417 19.9993 27.0417Z" stroke="#3A37A6" stroke-width="1.5" stroke-linecap="round" stroke-linejoin="round"/>
</g>
<rect x="-56957" y="-2923" width="57193" height="6710" stroke="#262626" stroke-width="20"/>
<defs>
<clipPath id="clip0_221_7147">
<rect width="1920" height="1080" fill="white" transform="translate(-1680 -743)"/>
</clipPath>
</defs>
</svg>
