<svg width="274" height="550" viewBox="0 0 274 550" fill="none" xmlns="http://www.w3.org/2000/svg">
<path d="M269.717 86.9702H269.202V32.626C269.202 28.3413 268.354 24.0985 266.706 20.14C265.057 16.1814 262.641 12.5847 259.595 9.55503C256.55 6.52539 252.934 4.12223 248.954 2.48277C244.975 0.843312 240.71 -0.000336325 236.402 1.00579e-07H37.5977C28.8997 0.000679474 20.5582 3.43835 14.408 9.55684C8.25782 15.6753 4.80272 23.9735 4.80272 32.626V86.9702H4.28769C3.72477 86.9692 3.16718 87.0786 2.64685 87.2923C2.12652 87.506 1.65367 87.8197 1.25539 88.2154C0.857105 88.6111 0.541209 89.0811 0.325789 89.5984C0.11037 90.1158 -0.000338839 90.6703 7.79009e-07 91.2303V128.821C-0.000337762 129.38 0.110204 129.935 0.325302 130.452C0.5404 130.969 0.855836 131.438 1.25357 131.834C1.65131 132.23 2.12354 132.543 2.64328 132.757C3.16301 132.971 3.72005 133.081 4.28254 133.081H4.79758V142.047H4.28254C3.72005 142.047 3.16301 142.157 2.64328 142.371C2.12354 142.585 1.65131 142.898 1.25357 143.294C0.855836 143.69 0.5404 144.159 0.325302 144.676C0.110204 145.194 -0.000337762 145.748 7.79009e-07 146.307V183.898C-0.000337762 184.457 0.110204 185.011 0.325302 185.528C0.5404 186.045 0.855836 186.515 1.25357 186.911C1.65131 187.307 2.12354 187.62 2.64328 187.834C3.16301 188.048 3.72005 188.158 4.28254 188.158H4.79758V517.374C4.79758 521.659 5.646 525.901 7.29439 529.86C8.94278 533.819 11.3589 537.415 14.4047 540.445C17.4505 543.475 21.0664 545.878 25.0459 547.517C29.0253 549.157 33.2905 550 37.5977 550H236.402C245.101 550 253.443 546.563 259.594 540.444C265.744 534.326 269.2 526.027 269.2 517.374V156.136H269.715C270.277 156.137 270.835 156.027 271.355 155.813C271.874 155.599 272.347 155.285 272.745 154.89C273.143 154.494 273.458 154.024 273.674 153.507C273.889 152.99 274 152.436 274 151.876V91.2303C274 90.1005 273.549 89.0169 272.746 88.2179C271.943 87.419 270.853 86.9702 269.717 86.9702Z" fill="#262626"/>
<path d="M232.508 8.00119H41.4997C26.8665 8.00119 15.0039 19.868 15.0039 34.5065V515.496C15.0039 530.134 26.8665 542.001 41.4997 542.001H232.508C247.141 542.001 259.004 530.134 259.004 515.496V34.5065C259.004 19.868 247.141 8.00119 232.508 8.00119Z" fill="white"/>
<g filter="url(#filter0_b_1517_274767)">
<rect x="106" y="245" width="60" height="60" rx="30" fill="url(#paint0_linear_1517_274767)"/>
</g>
<path d="M130.109 275V271.994C130.109 268.114 132.852 266.55 136.203 268.48L138.803 269.983L141.403 271.486C144.755 273.416 144.755 276.584 141.403 278.514L138.803 280.017L136.203 281.52C132.852 283.45 130.109 281.866 130.109 278.006V275Z" fill="white" stroke="white" stroke-width="1.5" stroke-miterlimit="10" stroke-linecap="round" stroke-linejoin="round"/>
<path d="M136 295.313C147.218 295.313 156.312 286.219 156.312 275.001C156.312 263.783 147.218 254.688 136 254.688C124.782 254.688 115.688 263.783 115.688 275.001C115.688 286.219 124.782 295.313 136 295.313Z" stroke="white" stroke-width="1.5" stroke-linecap="round" stroke-linejoin="round"/>
<rect x="25" y="497" width="4" height="224" rx="2" transform="rotate(-90 25 497)" fill="#CEDEF2"/>
<rect x="25" y="497" width="4" height="53.8982" rx="2" transform="rotate(-90 25 497)" fill="#3A37A6"/>
<path d="M96.236 520V511.6H97.148L100.376 516.844L99.944 516.832L103.208 511.6H104.06V520H103.124V516.16C103.124 515.44 103.136 514.792 103.16 514.216C103.184 513.64 103.228 513.068 103.292 512.5L103.46 512.836L100.448 517.564H99.8L96.872 512.896L97.004 512.5C97.068 513.036 97.112 513.588 97.136 514.156C97.16 514.716 97.172 515.384 97.172 516.16V520H96.236ZM108.625 520.12C108.081 520.12 107.589 519.98 107.149 519.7C106.709 519.412 106.361 519.024 106.105 518.536C105.849 518.04 105.721 517.48 105.721 516.856C105.721 516.224 105.853 515.664 106.117 515.176C106.381 514.688 106.733 514.304 107.173 514.024C107.621 513.744 108.121 513.604 108.673 513.604C109.001 513.604 109.305 513.652 109.585 513.748C109.865 513.844 110.113 513.98 110.329 514.156C110.553 514.324 110.737 514.524 110.881 514.756C111.033 514.98 111.137 515.224 111.193 515.488L110.929 515.356L110.965 513.736H111.865V520H110.953V518.464L111.193 518.308C111.137 518.548 111.029 518.78 110.869 519.004C110.709 519.22 110.513 519.412 110.281 519.58C110.057 519.748 109.801 519.88 109.513 519.976C109.233 520.072 108.937 520.12 108.625 520.12ZM108.829 519.256C109.245 519.256 109.617 519.156 109.945 518.956C110.273 518.748 110.529 518.464 110.713 518.104C110.905 517.736 111.001 517.32 111.001 516.856C111.001 516.392 110.905 515.98 110.713 515.62C110.529 515.26 110.273 514.976 109.945 514.768C109.617 514.56 109.245 514.456 108.829 514.456C108.405 514.456 108.029 514.56 107.701 514.768C107.381 514.976 107.125 515.26 106.933 515.62C106.749 515.98 106.657 516.392 106.657 516.856C106.657 517.312 106.749 517.724 106.933 518.092C107.117 518.452 107.373 518.736 107.701 518.944C108.029 519.152 108.405 519.256 108.829 519.256ZM113.618 520V513.736H114.518L114.542 515.404L114.446 515.176C114.534 514.896 114.674 514.636 114.866 514.396C115.066 514.156 115.302 513.964 115.574 513.82C115.846 513.676 116.146 513.604 116.474 513.604C116.61 513.604 116.738 513.616 116.858 513.64C116.978 513.656 117.078 513.68 117.158 513.712L116.906 514.72C116.802 514.672 116.694 514.64 116.582 514.624C116.478 514.6 116.378 514.588 116.282 514.588C116.01 514.588 115.766 514.636 115.55 514.732C115.334 514.828 115.15 514.964 114.998 515.14C114.846 515.308 114.73 515.504 114.65 515.728C114.57 515.952 114.53 516.192 114.53 516.448V520H113.618ZM120.465 520.12C119.873 520.12 119.345 519.98 118.881 519.7C118.417 519.412 118.049 519.024 117.777 518.536C117.513 518.04 117.381 517.48 117.381 516.856C117.381 516.232 117.513 515.676 117.777 515.188C118.049 514.692 118.417 514.304 118.881 514.024C119.345 513.744 119.877 513.604 120.477 513.604C121.013 513.604 121.501 513.712 121.941 513.928C122.381 514.136 122.733 514.428 122.997 514.804L122.469 515.452C122.317 515.252 122.133 515.076 121.917 514.924C121.709 514.772 121.481 514.656 121.233 514.576C120.993 514.488 120.753 514.444 120.513 514.444C120.089 514.444 119.709 514.552 119.373 514.768C119.037 514.976 118.769 515.26 118.569 515.62C118.377 515.98 118.281 516.392 118.281 516.856C118.281 517.32 118.377 517.736 118.569 518.104C118.769 518.464 119.037 518.748 119.373 518.956C119.709 519.164 120.085 519.268 120.501 519.268C120.741 519.268 120.977 519.232 121.209 519.16C121.441 519.08 121.661 518.968 121.869 518.824C122.077 518.68 122.269 518.5 122.445 518.284L122.973 518.932C122.701 519.292 122.337 519.58 121.881 519.796C121.425 520.012 120.953 520.12 120.465 520.12ZM124.142 520V511.12H125.042V515.104L124.862 515.284C124.95 514.956 125.114 514.668 125.354 514.42C125.594 514.164 125.874 513.964 126.194 513.82C126.522 513.676 126.854 513.604 127.19 513.604C127.67 513.604 128.07 513.696 128.39 513.88C128.71 514.064 128.946 514.348 129.098 514.732C129.258 515.116 129.338 515.604 129.338 516.196V520H128.426V516.244C128.426 515.828 128.37 515.488 128.258 515.224C128.154 514.952 127.99 514.752 127.766 514.624C127.542 514.496 127.262 514.436 126.926 514.444C126.662 514.444 126.414 514.492 126.182 514.588C125.95 514.676 125.75 514.8 125.582 514.96C125.414 515.12 125.282 515.304 125.186 515.512C125.09 515.72 125.042 515.944 125.042 516.184V520H124.598C124.542 520 124.478 520 124.406 520C124.334 520 124.246 520 124.142 520ZM131.176 521.98L130.84 521.548C131.096 521.396 131.296 521.232 131.44 521.056C131.584 520.88 131.656 520.712 131.656 520.552C131.656 520.464 131.64 520.38 131.608 520.3C131.576 520.22 131.496 520.12 131.368 520C131.256 519.896 131.172 519.796 131.116 519.7C131.068 519.604 131.044 519.504 131.044 519.4C131.044 519.24 131.1 519.112 131.212 519.016C131.324 518.912 131.472 518.86 131.656 518.86C131.84 518.86 132 518.908 132.136 519.004C132.272 519.1 132.376 519.236 132.448 519.412C132.528 519.58 132.568 519.78 132.568 520.012C132.568 520.228 132.536 520.428 132.472 520.612C132.408 520.804 132.316 520.984 132.196 521.152C132.076 521.32 131.932 521.472 131.764 521.608C131.596 521.744 131.4 521.868 131.176 521.98ZM136.252 520.084C135.7 520.084 135.2 519.96 134.752 519.712C134.304 519.456 133.932 519.092 133.636 518.62L134.2 518.008C134.536 518.456 134.872 518.768 135.208 518.944C135.552 519.112 135.904 519.196 136.264 519.196C136.648 519.196 136.996 519.108 137.308 518.932C137.628 518.748 137.88 518.504 138.064 518.2C138.248 517.896 138.34 517.56 138.34 517.192C138.34 516.832 138.256 516.508 138.088 516.22C137.92 515.924 137.692 515.692 137.404 515.524C137.116 515.348 136.784 515.26 136.408 515.26C136.208 515.26 136.008 515.284 135.808 515.332C135.608 515.372 135.4 515.44 135.184 515.536C134.976 515.624 134.752 515.736 134.512 515.872L133.984 515.164L134.476 511.6H139.012V512.476H134.968L135.268 512.26L134.824 515.2L134.548 515.008C134.676 514.904 134.848 514.804 135.064 514.708C135.28 514.612 135.516 514.536 135.772 514.48C136.036 514.416 136.292 514.384 136.54 514.384C137.06 514.384 137.524 514.504 137.932 514.744C138.34 514.976 138.664 515.3 138.904 515.716C139.144 516.124 139.264 516.596 139.264 517.132C139.264 517.692 139.132 518.196 138.868 518.644C138.604 519.084 138.244 519.436 137.788 519.7C137.332 519.956 136.82 520.084 136.252 520.084ZM140.984 521.98L140.648 521.548C140.904 521.396 141.104 521.232 141.248 521.056C141.392 520.88 141.464 520.712 141.464 520.552C141.464 520.464 141.448 520.38 141.416 520.3C141.384 520.22 141.304 520.12 141.176 520C141.064 519.896 140.98 519.796 140.924 519.7C140.876 519.604 140.852 519.504 140.852 519.4C140.852 519.24 140.908 519.112 141.02 519.016C141.132 518.912 141.28 518.86 141.464 518.86C141.648 518.86 141.808 518.908 141.944 519.004C142.08 519.1 142.184 519.236 142.256 519.412C142.336 519.58 142.376 519.78 142.376 520.012C142.376 520.228 142.344 520.428 142.28 520.612C142.216 520.804 142.124 520.984 142.004 521.152C141.884 521.32 141.74 521.472 141.572 521.608C141.404 521.744 141.208 521.868 140.984 521.98ZM144.093 520L143.805 519.304L146.637 516.124C146.773 515.972 146.913 515.8 147.057 515.608C147.209 515.416 147.349 515.216 147.477 515.008C147.613 514.792 147.721 514.58 147.801 514.372C147.881 514.164 147.921 513.96 147.921 513.76C147.921 513.464 147.857 513.216 147.729 513.016C147.601 512.808 147.417 512.648 147.177 512.536C146.945 512.424 146.673 512.368 146.361 512.368C146.089 512.368 145.821 512.432 145.557 512.56C145.293 512.688 145.053 512.884 144.837 513.148C144.621 513.412 144.453 513.748 144.333 514.156L143.589 513.712C143.733 513.224 143.945 512.816 144.225 512.488C144.505 512.152 144.837 511.9 145.221 511.732C145.605 511.564 146.017 511.48 146.457 511.48C146.921 511.48 147.337 511.576 147.705 511.768C148.073 511.952 148.365 512.216 148.581 512.56C148.797 512.896 148.905 513.284 148.905 513.724C148.905 513.916 148.881 514.108 148.833 514.3C148.793 514.492 148.729 514.684 148.641 514.876C148.553 515.068 148.445 515.264 148.317 515.464C148.197 515.664 148.053 515.868 147.885 516.076C147.725 516.284 147.545 516.5 147.345 516.724L144.933 519.412L144.789 519.1H149.169V520H144.093ZM153.223 520.12C152.567 520.12 152.007 519.948 151.543 519.604C151.087 519.26 150.735 518.768 150.487 518.128C150.247 517.48 150.127 516.704 150.127 515.8C150.127 514.896 150.247 514.124 150.487 513.484C150.735 512.836 151.087 512.34 151.543 511.996C152.007 511.652 152.567 511.48 153.223 511.48C153.871 511.48 154.427 511.652 154.891 511.996C155.355 512.34 155.707 512.836 155.947 513.484C156.195 514.124 156.319 514.896 156.319 515.8C156.319 516.704 156.195 517.48 155.947 518.128C155.707 518.768 155.355 519.26 154.891 519.604C154.427 519.948 153.871 520.12 153.223 520.12ZM153.223 519.244C153.911 519.244 154.439 518.944 154.807 518.344C155.183 517.744 155.371 516.896 155.371 515.8C155.371 514.704 155.183 513.856 154.807 513.256C154.439 512.656 153.911 512.356 153.223 512.356C152.527 512.356 151.991 512.656 151.615 513.256C151.247 513.856 151.063 514.704 151.063 515.8C151.063 516.896 151.247 517.744 151.615 518.344C151.991 518.944 152.527 519.244 153.223 519.244ZM158.014 520L157.726 519.304L160.558 516.124C160.694 515.972 160.834 515.8 160.978 515.608C161.13 515.416 161.27 515.216 161.398 515.008C161.534 514.792 161.642 514.58 161.722 514.372C161.802 514.164 161.842 513.96 161.842 513.76C161.842 513.464 161.778 513.216 161.65 513.016C161.522 512.808 161.338 512.648 161.098 512.536C160.866 512.424 160.594 512.368 160.282 512.368C160.01 512.368 159.742 512.432 159.478 512.56C159.214 512.688 158.974 512.884 158.758 513.148C158.542 513.412 158.374 513.748 158.254 514.156L157.51 513.712C157.654 513.224 157.866 512.816 158.146 512.488C158.426 512.152 158.758 511.9 159.142 511.732C159.526 511.564 159.938 511.48 160.378 511.48C160.842 511.48 161.258 511.576 161.626 511.768C161.994 511.952 162.286 512.216 162.502 512.56C162.718 512.896 162.826 513.284 162.826 513.724C162.826 513.916 162.802 514.108 162.754 514.3C162.714 514.492 162.65 514.684 162.562 514.876C162.474 515.068 162.366 515.264 162.238 515.464C162.118 515.664 161.974 515.868 161.806 516.076C161.646 516.284 161.466 516.5 161.266 516.724L158.854 519.412L158.71 519.1H163.09V520H158.014ZM164.589 520L164.301 519.304L167.133 516.124C167.269 515.972 167.409 515.8 167.553 515.608C167.705 515.416 167.845 515.216 167.973 515.008C168.109 514.792 168.217 514.58 168.297 514.372C168.377 514.164 168.417 513.96 168.417 513.76C168.417 513.464 168.353 513.216 168.225 513.016C168.097 512.808 167.913 512.648 167.673 512.536C167.441 512.424 167.169 512.368 166.857 512.368C166.585 512.368 166.317 512.432 166.053 512.56C165.789 512.688 165.549 512.884 165.333 513.148C165.117 513.412 164.949 513.748 164.829 514.156L164.085 513.712C164.229 513.224 164.441 512.816 164.721 512.488C165.001 512.152 165.333 511.9 165.717 511.732C166.101 511.564 166.513 511.48 166.953 511.48C167.417 511.48 167.833 511.576 168.201 511.768C168.569 511.952 168.861 512.216 169.077 512.56C169.293 512.896 169.401 513.284 169.401 513.724C169.401 513.916 169.377 514.108 169.329 514.3C169.289 514.492 169.225 514.684 169.137 514.876C169.049 515.068 168.941 515.264 168.813 515.464C168.693 515.664 168.549 515.868 168.381 516.076C168.221 516.284 168.041 516.5 167.841 516.724L165.429 519.412L165.285 519.1H169.665V520H164.589Z" fill="#3A37A6"/>
<path d="M28.672 520.12C28.016 520.12 27.456 519.948 26.992 519.604C26.536 519.26 26.184 518.768 25.936 518.128C25.696 517.48 25.576 516.704 25.576 515.8C25.576 514.896 25.696 514.124 25.936 513.484C26.184 512.836 26.536 512.34 26.992 511.996C27.456 511.652 28.016 511.48 28.672 511.48C29.32 511.48 29.876 511.652 30.34 511.996C30.804 512.34 31.156 512.836 31.396 513.484C31.644 514.124 31.768 514.896 31.768 515.8C31.768 516.704 31.644 517.48 31.396 518.128C31.156 518.768 30.804 519.26 30.34 519.604C29.876 519.948 29.32 520.12 28.672 520.12ZM28.672 519.244C29.36 519.244 29.888 518.944 30.256 518.344C30.632 517.744 30.82 516.896 30.82 515.8C30.82 514.704 30.632 513.856 30.256 513.256C29.888 512.656 29.36 512.356 28.672 512.356C27.976 512.356 27.44 512.656 27.064 513.256C26.696 513.856 26.512 514.704 26.512 515.8C26.512 516.896 26.696 517.744 27.064 518.344C27.44 518.944 27.976 519.244 28.672 519.244ZM36.0197 520.12C35.3637 520.12 34.8037 519.948 34.3397 519.604C33.8837 519.26 33.5317 518.768 33.2837 518.128C33.0437 517.48 32.9237 516.704 32.9237 515.8C32.9237 514.896 33.0437 514.124 33.2837 513.484C33.5317 512.836 33.8837 512.34 34.3397 511.996C34.8037 511.652 35.3637 511.48 36.0197 511.48C36.6677 511.48 37.2237 511.652 37.6877 511.996C38.1517 512.34 38.5037 512.836 38.7437 513.484C38.9917 514.124 39.1157 514.896 39.1157 515.8C39.1157 516.704 38.9917 517.48 38.7437 518.128C38.5037 518.768 38.1517 519.26 37.6877 519.604C37.2237 519.948 36.6677 520.12 36.0197 520.12ZM36.0197 519.244C36.7077 519.244 37.2357 518.944 37.6037 518.344C37.9797 517.744 38.1677 516.896 38.1677 515.8C38.1677 514.704 37.9797 513.856 37.6037 513.256C37.2357 512.656 36.7077 512.356 36.0197 512.356C35.3237 512.356 34.7877 512.656 34.4117 513.256C34.0437 513.856 33.8597 514.704 33.8597 515.8C33.8597 516.896 34.0437 517.744 34.4117 518.344C34.7877 518.944 35.3237 519.244 36.0197 519.244ZM41.0633 520.12C40.8473 520.12 40.6793 520.056 40.5593 519.928C40.4473 519.8 40.3913 519.616 40.3913 519.376C40.3913 519.16 40.4513 518.984 40.5713 518.848C40.6993 518.704 40.8633 518.632 41.0633 518.632C41.2793 518.632 41.4433 518.7 41.5553 518.836C41.6753 518.964 41.7353 519.144 41.7353 519.376C41.7353 519.6 41.6713 519.78 41.5433 519.916C41.4233 520.052 41.2633 520.12 41.0633 520.12ZM41.0633 515.092C40.8473 515.092 40.6793 515.028 40.5593 514.9C40.4473 514.772 40.3913 514.588 40.3913 514.348C40.3913 514.132 40.4513 513.956 40.5713 513.82C40.6993 513.676 40.8633 513.604 41.0633 513.604C41.2793 513.604 41.4433 513.672 41.5553 513.808C41.6753 513.936 41.7353 514.116 41.7353 514.348C41.7353 514.572 41.6713 514.752 41.5433 514.888C41.4233 515.024 41.2633 515.092 41.0633 515.092ZM46.9858 520V512.716L47.2498 512.8L43.7698 517.048L43.6738 516.832H49.3618V517.72H43.3258L42.8818 516.832L47.1658 511.6H47.8978V520H46.9858ZM53.3712 520.06C52.9552 520.06 52.5672 519.988 52.2072 519.844C51.8552 519.7 51.5472 519.496 51.2832 519.232C51.0272 518.96 50.8272 518.644 50.6832 518.284C50.5392 517.916 50.4672 517.516 50.4672 517.084C50.4672 516.876 50.4952 516.648 50.5512 516.4C50.6072 516.144 50.6912 515.868 50.8032 515.572C50.9152 515.268 51.0512 514.952 51.2112 514.624C51.3712 514.296 51.5552 513.956 51.7632 513.604L52.9872 511.528H53.8992L53.9472 511.648L52.5912 513.928C52.3992 514.248 52.2232 514.564 52.0632 514.876C51.9112 515.188 51.7672 515.504 51.6312 515.824C51.4952 516.136 51.3632 516.456 51.2352 516.784L51.0672 515.92C51.2192 515.664 51.3832 515.44 51.5592 515.248C51.7432 515.056 51.9392 514.892 52.1472 514.756C52.3552 514.612 52.5752 514.508 52.8072 514.444C53.0472 514.372 53.2912 514.336 53.5392 514.336C54.0272 514.336 54.4672 514.464 54.8592 514.72C55.2592 514.968 55.5792 515.3 55.8192 515.716C56.0592 516.132 56.1792 516.596 56.1792 517.108C56.1792 517.668 56.0552 518.172 55.8072 518.62C55.5592 519.068 55.2192 519.42 54.7872 519.676C54.3632 519.932 53.8912 520.06 53.3712 520.06ZM53.3352 519.184C53.6952 519.184 54.0192 519.096 54.3072 518.92C54.5952 518.744 54.8232 518.508 54.9912 518.212C55.1592 517.908 55.2432 517.568 55.2432 517.192C55.2432 516.84 55.1592 516.516 54.9912 516.22C54.8232 515.916 54.5952 515.676 54.3072 515.5C54.0192 515.316 53.6992 515.224 53.3472 515.224C52.9712 515.224 52.6352 515.312 52.3392 515.488C52.0512 515.664 51.8232 515.9 51.6552 516.196C51.4872 516.492 51.4032 516.82 51.4032 517.18C51.4032 517.556 51.4872 517.896 51.6552 518.2C51.8232 518.496 52.0512 518.736 52.3392 518.92C52.6352 519.096 52.9672 519.184 53.3352 519.184ZM57.2018 521.428L62.0738 511.6H62.9738L58.1258 521.428H57.2018ZM65.5934 519.592V512.344L65.9414 512.608L64.3814 513.544L64.1054 512.704L66.1814 511.48H66.5414V519.592H65.5934ZM64.3574 520V519.088H67.8014V520H64.3574ZM69.9735 520.12C69.7575 520.12 69.5895 520.056 69.4695 519.928C69.3575 519.8 69.3015 519.616 69.3015 519.376C69.3015 519.16 69.3615 518.984 69.4815 518.848C69.6095 518.704 69.7735 518.632 69.9735 518.632C70.1895 518.632 70.3535 518.7 70.4655 518.836C70.5855 518.964 70.6455 519.144 70.6455 519.376C70.6455 519.6 70.5815 519.78 70.4535 519.916C70.3335 520.052 70.1735 520.12 69.9735 520.12ZM69.9735 515.092C69.7575 515.092 69.5895 515.028 69.4695 514.9C69.3575 514.772 69.3015 514.588 69.3015 514.348C69.3015 514.132 69.3615 513.956 69.4815 513.82C69.6095 513.676 69.7735 513.604 69.9735 513.604C70.1895 513.604 70.3535 513.672 70.4655 513.808C70.5855 513.936 70.6455 514.116 70.6455 514.348C70.6455 514.572 70.5815 514.752 70.4535 514.888C70.3335 515.024 70.1735 515.092 69.9735 515.092ZM72.4519 520L72.1639 519.304L74.9959 516.124C75.1319 515.972 75.2719 515.8 75.4159 515.608C75.5679 515.416 75.7079 515.216 75.8359 515.008C75.9719 514.792 76.0799 514.58 76.1599 514.372C76.2399 514.164 76.2799 513.96 76.2799 513.76C76.2799 513.464 76.2159 513.216 76.0879 513.016C75.9599 512.808 75.7759 512.648 75.5359 512.536C75.3039 512.424 75.0319 512.368 74.7199 512.368C74.4479 512.368 74.1799 512.432 73.9159 512.56C73.6519 512.688 73.4119 512.884 73.1959 513.148C72.9799 513.412 72.8119 513.748 72.6919 514.156L71.9479 513.712C72.0919 513.224 72.3039 512.816 72.5839 512.488C72.8639 512.152 73.1959 511.9 73.5799 511.732C73.9639 511.564 74.3759 511.48 74.8159 511.48C75.2799 511.48 75.6959 511.576 76.0639 511.768C76.4319 511.952 76.7239 512.216 76.9399 512.56C77.1559 512.896 77.2639 513.284 77.2639 513.724C77.2639 513.916 77.2399 514.108 77.1919 514.3C77.1519 514.492 77.0879 514.684 76.9999 514.876C76.9119 515.068 76.8039 515.264 76.6759 515.464C76.5559 515.664 76.4119 515.868 76.2439 516.076C76.0839 516.284 75.9039 516.5 75.7039 516.724L73.2919 519.412L73.1479 519.1H77.5279V520H72.4519ZM81.4142 520.06C80.9982 520.06 80.6102 519.988 80.2502 519.844C79.8982 519.7 79.5902 519.496 79.3262 519.232C79.0702 518.96 78.8702 518.644 78.7262 518.284C78.5822 517.916 78.5102 517.516 78.5102 517.084C78.5102 516.876 78.5382 516.648 78.5942 516.4C78.6502 516.144 78.7342 515.868 78.8462 515.572C78.9582 515.268 79.0942 514.952 79.2542 514.624C79.4142 514.296 79.5982 513.956 79.8062 513.604L81.0302 511.528H81.9422L81.9902 511.648L80.6342 513.928C80.4422 514.248 80.2662 514.564 80.1062 514.876C79.9542 515.188 79.8102 515.504 79.6742 515.824C79.5382 516.136 79.4062 516.456 79.2782 516.784L79.1102 515.92C79.2622 515.664 79.4262 515.44 79.6022 515.248C79.7862 515.056 79.9822 514.892 80.1902 514.756C80.3982 514.612 80.6182 514.508 80.8502 514.444C81.0902 514.372 81.3342 514.336 81.5822 514.336C82.0702 514.336 82.5102 514.464 82.9022 514.72C83.3022 514.968 83.6222 515.3 83.8622 515.716C84.1022 516.132 84.2222 516.596 84.2222 517.108C84.2222 517.668 84.0982 518.172 83.8502 518.62C83.6022 519.068 83.2622 519.42 82.8302 519.676C82.4062 519.932 81.9342 520.06 81.4142 520.06ZM81.3782 519.184C81.7382 519.184 82.0622 519.096 82.3502 518.92C82.6382 518.744 82.8662 518.508 83.0342 518.212C83.2022 517.908 83.2862 517.568 83.2862 517.192C83.2862 516.84 83.2022 516.516 83.0342 516.22C82.8662 515.916 82.6382 515.676 82.3502 515.5C82.0622 515.316 81.7422 515.224 81.3902 515.224C81.0142 515.224 80.6782 515.312 80.3822 515.488C80.0942 515.664 79.8662 515.9 79.6982 516.196C79.5302 516.492 79.4462 516.82 79.4462 517.18C79.4462 517.556 79.5302 517.896 79.6982 518.2C79.8662 518.496 80.0942 518.736 80.3822 518.92C80.6782 519.096 81.0102 519.184 81.3782 519.184Z" fill="#3A37A6"/>
<path d="M230.656 512.486V510.402C230.656 508.327 232.331 506.652 234.406 506.652H236.49" stroke="#3A37A6" stroke-width="1.5" stroke-linecap="round" stroke-linejoin="round"/>
<path d="M241.453 506.652H243.536C245.611 506.652 247.286 508.327 247.286 510.402V512.486" stroke="#3A37A6" stroke-width="1.5" stroke-linecap="round" stroke-linejoin="round"/>
<path d="M247.359 518.355V519.605C247.359 521.68 245.684 523.355 243.609 523.355H242.359" stroke="#3A37A6" stroke-width="1.5" stroke-linecap="round" stroke-linejoin="round"/>
<path d="M236.49 523.283H234.406C232.331 523.283 230.656 521.608 230.656 519.533V517.449" stroke="#3A37A6" stroke-width="1.5" stroke-linecap="round" stroke-linejoin="round"/>
<path d="M218.167 508H199.833C199.373 508 199 508.336 199 508.75V522.25C199 522.664 199.373 523 199.833 523H218.167C218.627 523 219 522.664 219 522.25V508.75C219 508.336 218.627 508 218.167 508Z" stroke="#3A37A6" stroke-width="1.5" stroke-linecap="round" stroke-linejoin="round"/>
<path d="M207.75 517.337C207.345 517.71 206.825 517.965 206.258 518.071C205.69 518.176 205.101 518.127 204.564 517.93C204.028 517.733 203.569 517.397 203.246 516.964C202.923 516.531 202.75 516.021 202.75 515.5C202.75 514.979 202.923 514.469 203.246 514.036C203.569 513.603 204.028 513.267 204.564 513.07C205.101 512.873 205.69 512.824 206.258 512.929C206.825 513.035 207.345 513.29 207.75 513.663M215.25 517.337C214.845 517.71 214.325 517.965 213.758 518.071C213.19 518.176 212.601 518.127 212.064 517.93C211.528 517.733 211.069 517.397 210.746 516.964C210.423 516.531 210.25 516.021 210.25 515.5C210.25 514.979 210.423 514.469 210.746 514.036C211.069 513.603 211.528 513.267 212.064 513.07C212.601 512.873 213.19 512.824 213.758 512.929C214.325 513.035 214.845 513.29 215.25 513.663" stroke="#3A37A6" stroke-width="1.5" stroke-linecap="round" stroke-linejoin="round"/>
<path d="M213.439 480.135V479.731C213.439 479.664 213.385 479.647 213.313 479.647C213.313 479.647 213.313 479.647 213.295 479.647C213.045 479.664 212.883 479.68 212.453 479.68C212.149 479.68 211.844 479.512 211.844 478.89V478.318C211.844 477.679 212.149 477.51 212.453 477.51C212.883 477.51 213.045 477.527 213.295 477.561C213.313 477.561 213.313 477.561 213.313 477.561C213.385 477.561 213.439 477.527 213.439 477.46V477.073C213.439 476.972 213.403 476.939 213.295 476.905C213.152 476.871 212.865 476.838 212.453 476.838C211.611 476.838 210.984 477.325 210.984 478.318V478.89C210.984 479.882 211.611 480.37 212.453 480.37C212.865 480.37 213.152 480.32 213.295 480.286C213.403 480.269 213.439 480.219 213.439 480.135ZM216.878 480.202V477.998C216.878 477.208 216.359 476.838 215.445 476.838C214.997 476.838 214.621 476.871 214.352 476.922C214.263 476.939 214.227 476.989 214.227 477.056V477.443C214.227 477.527 214.281 477.544 214.352 477.544C214.352 477.544 214.37 477.544 214.388 477.544C214.603 477.527 215.033 477.494 215.445 477.494C215.821 477.494 216.019 477.595 216.019 477.998V478.267H215.606C214.478 478.267 214.012 478.621 214.012 479.327V479.344C214.012 480.168 214.603 480.37 215.141 480.37C215.463 480.37 215.768 480.269 216.054 480.101V480.202C216.054 480.269 216.126 480.32 216.198 480.32H216.735C216.807 480.32 216.878 480.269 216.878 480.202ZM216.019 479.546C215.821 479.647 215.589 479.731 215.356 479.731C215.033 479.731 214.89 479.647 214.89 479.344V479.327C214.89 478.974 215.015 478.806 215.606 478.806H216.019V479.546ZM220.73 480.185V478.2C220.73 477.426 220.533 476.838 219.602 476.838C219.172 476.838 218.921 476.888 218.545 477.124V476.989C218.545 476.922 218.491 476.871 218.419 476.871H217.846C217.774 476.871 217.72 476.922 217.72 476.989V480.185C217.72 480.252 217.774 480.32 217.846 480.32H218.455C218.527 480.32 218.58 480.252 218.58 480.185V477.729C218.849 477.595 219.1 477.51 219.315 477.51C219.817 477.51 219.87 477.662 219.87 478.2V480.185C219.87 480.252 219.924 480.32 219.996 480.32H220.587C220.659 480.32 220.73 480.252 220.73 480.185ZM224.475 480.05V475.795C224.475 475.727 224.421 475.66 224.349 475.66H223.758C223.686 475.66 223.615 475.727 223.615 475.795V476.871C223.382 476.838 223.149 476.838 222.988 476.838C221.948 476.838 221.447 477.41 221.447 478.368V478.839C221.447 479.781 221.948 480.37 222.988 480.37C223.418 480.37 223.901 480.303 224.295 480.202C224.457 480.168 224.475 480.135 224.475 480.05ZM223.615 479.664C223.489 479.68 223.238 479.714 222.988 479.714C222.432 479.714 222.307 479.327 222.307 478.839V478.368C222.307 477.864 222.432 477.494 222.988 477.494C223.149 477.494 223.435 477.51 223.615 477.527V479.664ZM228.326 478.839V478.352C228.326 477.477 227.789 476.838 226.768 476.838C225.747 476.838 225.209 477.477 225.209 478.352V478.839C225.209 479.714 225.747 480.37 226.768 480.37C227.789 480.37 228.326 479.714 228.326 478.839ZM227.466 478.839C227.466 479.344 227.216 479.664 226.768 479.664C226.32 479.664 226.069 479.344 226.069 478.839V478.352C226.069 477.847 226.32 477.527 226.768 477.527C227.216 477.527 227.466 477.847 227.466 478.352V478.839ZM230.942 477.393V476.955C230.942 476.888 230.888 476.838 230.817 476.838C230.548 476.838 230.207 476.888 229.885 477.124V476.989C229.885 476.922 229.831 476.871 229.76 476.871H229.186C229.115 476.871 229.061 476.922 229.061 476.989V480.185C229.061 480.252 229.115 480.32 229.186 480.32H229.795C229.867 480.32 229.921 480.252 229.921 480.185V477.729C230.189 477.595 230.458 477.51 230.817 477.51C230.888 477.51 230.942 477.46 230.942 477.393Z" fill="#3A37A6"/>
<path d="M232.334 480.2V479.511C232.334 479.443 232.28 479.393 232.209 479.393H231.618C231.546 479.393 231.492 479.443 231.492 479.511V480.2C231.492 480.268 231.546 480.318 231.618 480.318H232.209C232.28 480.318 232.334 480.268 232.334 480.2ZM236.186 476.971C236.186 476.92 236.132 476.87 236.078 476.87H235.434C235.38 476.87 235.308 476.92 235.29 476.987L234.663 479.544C234.645 479.662 234.592 479.712 234.538 479.712C234.502 479.712 234.448 479.662 234.43 479.544L233.803 476.987C233.785 476.92 233.732 476.87 233.66 476.87H233.015C232.961 476.87 232.907 476.92 232.907 476.971C232.907 476.987 232.907 477.004 232.925 477.004L233.732 479.797C233.875 480.251 234.215 480.369 234.538 480.369C234.878 480.369 235.236 480.251 235.362 479.797L236.186 477.004C236.186 477.004 236.186 476.987 236.186 476.971ZM237.655 476.298V475.76C237.655 475.692 237.601 475.625 237.53 475.625H236.903C236.831 475.625 236.759 475.692 236.759 475.76V476.298C236.759 476.365 236.831 476.416 236.903 476.416H237.53C237.601 476.416 237.655 476.365 237.655 476.298ZM237.637 480.183V476.987C237.637 476.92 237.583 476.87 237.512 476.87H236.92C236.849 476.87 236.777 476.92 236.777 476.987V480.183C236.777 480.251 236.849 480.318 236.92 480.318H237.512C237.583 480.318 237.637 480.251 237.637 480.183ZM241.417 480.049V475.793C241.417 475.726 241.363 475.659 241.292 475.659H240.683C240.611 475.659 240.557 475.726 240.557 475.793V476.87C240.324 476.836 240.091 476.836 239.93 476.836C238.891 476.836 238.372 477.408 238.372 478.367V478.838C238.372 479.78 238.891 480.369 239.93 480.369C240.342 480.369 240.844 480.301 241.238 480.2C241.381 480.167 241.417 480.133 241.417 480.049ZM240.557 479.662C240.432 479.679 240.163 479.712 239.93 479.712C239.375 479.712 239.232 479.326 239.232 478.838V478.367C239.232 477.862 239.375 477.492 239.93 477.492C240.091 477.492 240.378 477.509 240.557 477.526V479.662ZM245.269 478.72V478.384C245.269 477.475 244.714 476.836 243.71 476.836C242.725 476.836 242.152 477.425 242.152 478.384V478.838C242.152 480.032 243.083 480.369 243.728 480.369C244.319 480.369 244.57 480.335 244.982 480.268C245.108 480.251 245.126 480.2 245.126 480.099V479.696C245.126 479.645 245.072 479.612 245 479.612C245 479.612 245 479.612 244.982 479.612C244.714 479.628 244.266 479.662 243.782 479.662C243.173 479.662 243.012 479.241 243.012 478.888V478.871H245.126C245.215 478.871 245.269 478.821 245.269 478.72ZM244.391 478.3H243.012V478.283C243.012 477.795 243.316 477.526 243.71 477.526C244.122 477.526 244.391 477.795 244.391 478.283V478.3ZM248.995 478.838V478.35C248.995 477.475 248.458 476.836 247.437 476.836C246.416 476.836 245.878 477.475 245.878 478.35V478.838C245.878 479.712 246.416 480.369 247.437 480.369C248.458 480.369 248.995 479.712 248.995 478.838ZM248.135 478.838C248.135 479.342 247.903 479.662 247.437 479.662C246.989 479.662 246.738 479.342 246.738 478.838V478.35C246.738 477.845 246.989 477.526 247.437 477.526C247.903 477.526 248.135 477.845 248.135 478.35V478.838Z" fill="#94A2F2"/>
<path fill-rule="evenodd" clip-rule="evenodd" d="M203.156 476.242C200.935 477.1 199.287 479.034 199 481.423C199 481.995 199.305 482.5 199.824 482.786C200.362 483.071 200.971 483.071 201.49 482.786C203.12 481.49 203.891 479.505 203.55 477.554C203.479 477.1 203.335 476.663 203.156 476.242Z" fill="#3A37A6"/>
<path fill-rule="evenodd" clip-rule="evenodd" d="M203.552 477.553C203.893 479.504 203.122 481.489 201.492 482.784L204.663 481.069L207.834 479.353C208.354 479.067 208.658 478.562 208.658 477.99C208.658 477.419 208.354 476.931 207.834 476.645L206.24 475.787C205.147 475.703 204.108 475.871 203.158 476.241C203.337 476.662 203.481 477.099 203.552 477.553Z" fill="#94A2F2"/>
<path fill-rule="evenodd" clip-rule="evenodd" d="M199 481.423C199.287 479.035 200.935 477.1 203.156 476.243C202.529 474.88 201.347 473.77 199.824 473.215C199.305 473.501 199 473.989 199 474.561V477.992V481.423Z" fill="#94A2F2"/>
<path fill-rule="evenodd" clip-rule="evenodd" d="M199.828 473.214C201.351 473.77 202.533 474.88 203.16 476.242C204.11 475.872 205.149 475.704 206.242 475.788L204.665 474.93L201.494 473.214C200.975 472.929 200.366 472.929 199.828 473.214Z" fill="#E7EEF9"/>
<g opacity="0.49">
<path d="M236.002 252.016H231.199V253.576H236.002V252.016Z" fill="#A0A0A0"/>
</g>
<g opacity="0.4">
<path d="M192.556 252.016H187.754V257.427H192.556V252.016Z" fill="#A0A0A0"/>
</g>
<g opacity="0.4">
<path d="M228.244 252.016H223.441V257.427H228.244V252.016Z" fill="#A0A0A0"/>
</g>
<g opacity="0.43">
<path d="M185.392 252.016H180.59V255.734H185.392V252.016Z" fill="#A0A0A0"/>
</g>
<g opacity="0.31">
<path d="M178.314 252.016H173.512V259.983H178.314V252.016Z" fill="#A0A0A0"/>
</g>
<g opacity="0.6">
<path d="M171.154 252.016H166.352V267.586H171.154V252.016Z" fill="#A0A0A0"/>
</g>
<g opacity="0.6">
<path d="M163.982 252.016H159.18V262.008H163.982V252.016Z" fill="#A0A0A0"/>
</g>
<g opacity="0.6">
<path d="M220.74 252.016H215.938V262.008H220.74V252.016Z" fill="#A0A0A0"/>
</g>
<g opacity="0.39">
<path d="M156.92 252.016H152.117V263.768H156.92V252.016Z" fill="#A0A0A0"/>
</g>
<g opacity="0.39">
<path d="M213.678 252.016H208.875V263.768H213.678V252.016Z" fill="#A0A0A0"/>
</g>
<g opacity="0.59">
<path d="M149.736 252.016H144.934V259.983H149.736V252.016Z" fill="#A0A0A0"/>
</g>
<g opacity="0.59">
<path d="M206.525 252.016H201.723V259.983H206.525V252.016Z" fill="#A0A0A0"/>
</g>
<g opacity="0.39">
<path d="M142.666 252.016H137.863V257.228H142.666V252.016Z" fill="#A0A0A0"/>
</g>
<g opacity="0.39">
<path d="M199.424 252.016H194.621V257.228H199.424V252.016Z" fill="#A0A0A0"/>
</g>
<g opacity="0.38">
<path d="M135.51 252.016H130.707V265.063H135.51V252.016Z" fill="#A0A0A0"/>
</g>
<g opacity="0.36">
<path d="M128.342 252.016H123.539V262.108H128.342V252.016Z" fill="#A0A0A0"/>
</g>
<g opacity="0.39">
<path d="M121.271 252.016H116.469V260.315H121.271V252.016Z" fill="#A0A0A0"/>
</g>
<g opacity="0.33">
<path d="M114.096 252.016H109.293V255.402H114.096V252.016Z" fill="#A0A0A0"/>
</g>
<g opacity="0.37">
<path d="M106.947 252.016H102.145V264.199H106.947V252.016Z" fill="#A0A0A0"/>
</g>
<g opacity="0.42">
<path d="M99.8533 252.016H95.0508V266.39H99.8533V252.016Z" fill="#A0A0A0"/>
</g>
<g opacity="0.5">
<path d="M92.701 252.016H87.8984V260.647H92.701V252.016Z" fill="#A0A0A0"/>
</g>
<g opacity="0.54">
<path d="M85.6151 252.016H80.8125V261.51H85.6151V252.016Z" fill="#A0A0A0"/>
</g>
<g opacity="0.54">
<path d="M78.4432 252.016H73.6406V263.867H78.4432V252.016Z" fill="#A0A0A0"/>
</g>
<g opacity="0.34">
<path d="M71.283 252.016H66.4805V260.315H71.283V252.016Z" fill="#A0A0A0"/>
</g>
<g opacity="0.55">
<path d="M64.1971 252.016H59.3945V266.058H64.1971V252.016Z" fill="#A0A0A0"/>
</g>
<g opacity="0.42">
<path d="M57.0486 252.016H52.2461V262.141H57.0486V252.016Z" fill="#A0A0A0"/>
</g>
<g opacity="0.54">
<path d="M49.9666 252.016H45.1641V256.763H49.9666V252.016Z" fill="#A0A0A0"/>
</g>
<g opacity="0.43">
<path d="M42.8026 252.015H38V255.037H42.8026V252.015Z" fill="#A0A0A0"/>
</g>
<g opacity="0.74">
<path d="M236.002 255.469H231.199V257.029H236.002V255.469Z" fill="#A0A0A0"/>
</g>
<g opacity="0.7">
<path d="M192.556 258.887H187.754V260.845H192.556V258.887Z" fill="#A0A0A0"/>
</g>
<g opacity="0.7">
<path d="M228.244 258.887H223.441V260.845H228.244V258.887Z" fill="#A0A0A0"/>
</g>
<g opacity="0.73">
<path d="M185.392 257.23H180.59V259.189H185.392V257.23Z" fill="#A0A0A0"/>
</g>
<g opacity="0.73">
<path d="M178.314 261.43H173.512V263.388H178.314V261.43Z" fill="#A0A0A0"/>
</g>
<g opacity="0.73">
<path d="M171.154 269.039H166.352V270.998H171.154V269.039Z" fill="#A0A0A0"/>
</g>
<g opacity="0.72">
<path d="M163.982 263.465H159.18V265.424H163.982V263.465Z" fill="#A0A0A0"/>
</g>
<g opacity="0.72">
<path d="M220.74 263.465H215.938V265.424H220.74V263.465Z" fill="#A0A0A0"/>
</g>
<g opacity="0.88">
<path d="M156.92 265.23H152.117V267.189H156.92V265.23Z" fill="#A0A0A0"/>
</g>
<g opacity="0.88">
<path d="M213.678 265.23H208.875V267.189H213.678V265.23Z" fill="#A0A0A0"/>
</g>
<g opacity="0.7">
<path d="M149.736 261.43H144.934V263.388H149.736V261.43Z" fill="#A0A0A0"/>
</g>
<g opacity="0.7">
<path d="M206.525 261.43H201.723V263.388H206.525V261.43Z" fill="#A0A0A0"/>
</g>
<g opacity="0.98">
<path d="M142.666 258.715H137.863V260.674H142.666V258.715Z" fill="#A0A0A0"/>
</g>
<g opacity="0.98">
<path d="M199.424 258.715H194.621V260.674H199.424V258.715Z" fill="#A0A0A0"/>
</g>
<g opacity="0.96">
<path d="M135.51 266.52H130.707V268.478H135.51V266.52Z" fill="#A0A0A0"/>
</g>
<g opacity="0.77">
<path d="M128.342 263.562H123.539V265.521H128.342V263.562Z" fill="#A0A0A0"/>
</g>
<g opacity="0.9">
<path d="M121.271 261.777H116.469V263.736H121.271V261.777Z" fill="#A0A0A0"/>
</g>
<g opacity="0.77">
<path d="M114.096 256.859H109.293V258.818H114.096V256.859Z" fill="#A0A0A0"/>
</g>
<g opacity="0.86">
<path d="M106.947 265.684H102.145V267.642H106.947V265.684Z" fill="#A0A0A0"/>
</g>
<g opacity="0.96">
<path d="M99.8533 267.883H95.0508V269.842H99.8533V267.883Z" fill="#A0A0A0"/>
</g>
<g opacity="0.82">
<path d="M92.701 262.109H87.8984V264.068H92.701V262.109Z" fill="#A0A0A0"/>
</g>
<path d="M85.6033 262.973H80.8008V264.931H85.6033V262.973Z" fill="#A0A0A0"/>
<g opacity="0.83">
<path d="M78.4432 265.324H73.6406V267.283H78.4432V265.324Z" fill="#A0A0A0"/>
</g>
<g opacity="0.82">
<path d="M71.283 261.777H66.4805V263.736H71.283V261.777Z" fill="#A0A0A0"/>
</g>
<g opacity="0.72">
<path d="M64.1971 267.559H59.3945V269.517H64.1971V267.559Z" fill="#A0A0A0"/>
</g>
<g opacity="0.78">
<path d="M57.0486 263.633H52.2461V265.592H57.0486V263.633Z" fill="#A0A0A0"/>
</g>
<g opacity="0.87">
<path d="M49.9666 258.211H45.1641V260.17H49.9666V258.211Z" fill="#A0A0A0"/>
</g>
<g opacity="0.82">
<path d="M42.8026 256.535H38V258.494H42.8026V256.535Z" fill="#A0A0A0"/>
</g>
<g opacity="0.49">
<path d="M236.002 248.469H231.199V250.029H236.002V248.469Z" fill="#A0A0A0"/>
</g>
<g opacity="0.4">
<path d="M192.556 244.641H187.754V250.052H192.556V244.641Z" fill="#A0A0A0"/>
</g>
<g opacity="0.4">
<path d="M228.244 244.641H223.441V250.052H228.244V244.641Z" fill="#A0A0A0"/>
</g>
<g opacity="0.43">
<path d="M185.392 246.309H180.59V250.027H185.392V246.309Z" fill="#A0A0A0"/>
</g>
<g opacity="0.31">
<path d="M178.314 242.078H173.512V250.046H178.314V242.078Z" fill="#A0A0A0"/>
</g>
<g opacity="0.6">
<path d="M171.154 234.453H166.352V250.023H171.154V234.453Z" fill="#A0A0A0"/>
</g>
<g opacity="0.6">
<path d="M163.982 240.062H159.18V250.055H163.982V240.062Z" fill="#A0A0A0"/>
</g>
<g opacity="0.6">
<path d="M220.74 240.062H215.938V250.055H220.74V240.062Z" fill="#A0A0A0"/>
</g>
<g opacity="0.39">
<path d="M156.92 238.309H152.117V250.061H156.92V238.309Z" fill="#A0A0A0"/>
</g>
<g opacity="0.39">
<path d="M213.678 238.309H208.875V250.061H213.678V238.309Z" fill="#A0A0A0"/>
</g>
<g opacity="0.59">
<path d="M149.736 242.078H144.934V250.046H149.736V242.078Z" fill="#A0A0A0"/>
</g>
<g opacity="0.59">
<path d="M206.525 242.078H201.723V250.046H206.525V242.078Z" fill="#A0A0A0"/>
</g>
<g opacity="0.39">
<path d="M142.666 244.812H137.863V250.025H142.666V244.812Z" fill="#A0A0A0"/>
</g>
<g opacity="0.39">
<path d="M199.424 244.812H194.621V250.025H199.424V244.812Z" fill="#A0A0A0"/>
</g>
<g opacity="0.38">
<path d="M135.51 237.016H130.707V250.063H135.51V237.016Z" fill="#A0A0A0"/>
</g>
<g opacity="0.36">
<path d="M128.342 239.965H123.539V250.057H128.342V239.965Z" fill="#A0A0A0"/>
</g>
<g opacity="0.39">
<path d="M121.271 241.746H116.469V250.046H121.271V241.746Z" fill="#A0A0A0"/>
</g>
<g opacity="0.33">
<path d="M114.096 246.637H109.293V250.023H114.096V246.637Z" fill="#A0A0A0"/>
</g>
<g opacity="0.37">
<path d="M106.947 237.832H102.145V250.016H106.947V237.832Z" fill="#A0A0A0"/>
</g>
<g opacity="0.42">
<path d="M99.8533 235.656H95.0508V250.031H99.8533V235.656Z" fill="#A0A0A0"/>
</g>
<g opacity="0.5">
<path d="M92.701 241.391H87.8984V250.022H92.701V241.391Z" fill="#A0A0A0"/>
</g>
<g opacity="0.54">
<path d="M85.6151 240.562H80.8125V250.057H85.6151V240.562Z" fill="#A0A0A0"/>
</g>
<g opacity="0.54">
<path d="M78.4432 238.172H73.6406V250.024H78.4432V238.172Z" fill="#A0A0A0"/>
</g>
<g opacity="0.34">
<path d="M71.283 241.746H66.4805V250.046H71.283V241.746Z" fill="#A0A0A0"/>
</g>
<g opacity="0.55">
<path d="M64.1971 235.98H59.3945V250.023H64.1971V235.98Z" fill="#A0A0A0"/>
</g>
<g opacity="0.42">
<path d="M57.0486 239.902H52.2461V250.028H57.0486V239.902Z" fill="#A0A0A0"/>
</g>
<g opacity="0.54">
<path d="M49.9666 245.309H45.1641V250.056H49.9666V245.309Z" fill="#A0A0A0"/>
</g>
<g opacity="0.43">
<path d="M42.8026 247.004H38V250.025H42.8026V247.004Z" fill="#A0A0A0"/>
</g>
<g opacity="0.74">
<path d="M236.002 245.012H231.199V246.572H236.002V245.012Z" fill="#A0A0A0"/>
</g>
<g opacity="0.7">
<path d="M192.556 241.188H187.754V243.146H192.556V241.188Z" fill="#A0A0A0"/>
</g>
<g opacity="0.7">
<path d="M228.244 241.188H223.441V243.146H228.244V241.188Z" fill="#A0A0A0"/>
</g>
<g opacity="0.73">
<path d="M185.392 242.836H180.59V244.795H185.392V242.836Z" fill="#A0A0A0"/>
</g>
<g opacity="0.73">
<path d="M178.314 238.641H173.512V240.599H178.314V238.641Z" fill="#A0A0A0"/>
</g>
<g opacity="0.73">
<path d="M171.154 231H166.352V232.959H171.154V231Z" fill="#A0A0A0"/>
</g>
<g opacity="0.72">
<path d="M163.982 236.617H159.18V238.576H163.982V236.617Z" fill="#A0A0A0"/>
</g>
<g opacity="0.72">
<path d="M220.74 236.617H215.938V238.576H220.74V236.617Z" fill="#A0A0A0"/>
</g>
<g opacity="0.88">
<path d="M156.92 234.859H152.117V236.818H156.92V234.859Z" fill="#A0A0A0"/>
</g>
<g opacity="0.88">
<path d="M213.678 234.859H208.875V236.818H213.678V234.859Z" fill="#A0A0A0"/>
</g>
<g opacity="0.7">
<path d="M149.736 238.641H144.934V240.599H149.736V238.641Z" fill="#A0A0A0"/>
</g>
<g opacity="0.7">
<path d="M206.525 238.641H201.723V240.599H206.525V238.641Z" fill="#A0A0A0"/>
</g>
<g opacity="0.98">
<path d="M142.666 241.363H137.863V243.322H142.666V241.363Z" fill="#A0A0A0"/>
</g>
<g opacity="0.98">
<path d="M199.424 241.363H194.621V243.322H199.424V241.363Z" fill="#A0A0A0"/>
</g>
<g opacity="0.96">
<path d="M135.51 233.559H130.707V235.517H135.51V233.559Z" fill="#A0A0A0"/>
</g>
<g opacity="0.77">
<path d="M128.342 236.512H123.539V238.47H128.342V236.512Z" fill="#A0A0A0"/>
</g>
<g opacity="0.9">
<path d="M121.271 238.309H116.469V240.267H121.271V238.309Z" fill="#A0A0A0"/>
</g>
<g opacity="0.77">
<path d="M114.096 243.195H109.293V245.154H114.096V243.195Z" fill="#A0A0A0"/>
</g>
<g opacity="0.86">
<path d="M106.947 234.371H102.145V236.33H106.947V234.371Z" fill="#A0A0A0"/>
</g>
<g opacity="0.96">
<path d="M99.8533 232.203H95.0508V234.162H99.8533V232.203Z" fill="#A0A0A0"/>
</g>
<g opacity="0.82">
<path d="M92.701 237.953H87.8984V239.912H92.701V237.953Z" fill="#A0A0A0"/>
</g>
<path d="M85.6033 237.109H80.8008V239.068H85.6033V237.109Z" fill="#A0A0A0"/>
<g opacity="0.83">
<path d="M78.4432 234.719H73.6406V236.677H78.4432V234.719Z" fill="#A0A0A0"/>
</g>
<g opacity="0.82">
<path d="M71.283 238.309H66.4805V240.267H71.283V238.309Z" fill="#A0A0A0"/>
</g>
<g opacity="0.72">
<path d="M64.1971 232.531H59.3945V234.49H64.1971V232.531Z" fill="#A0A0A0"/>
</g>
<g opacity="0.78">
<path d="M57.0486 236.449H52.2461V238.408H57.0486V236.449Z" fill="#A0A0A0"/>
</g>
<g opacity="0.87">
<path d="M49.9666 241.848H45.1641V243.806H49.9666V241.848Z" fill="#A0A0A0"/>
</g>
<g opacity="0.82">
<path d="M42.8026 243.551H38V245.509H42.8026V243.551Z" fill="#A0A0A0"/>
</g>
<g opacity="0.36">
<path d="M128.16 251.707H123.367V261.81H128.16V251.707Z" fill="#3A37A6"/>
</g>
<g opacity="0.39">
<path d="M121.086 251.707H116.293V260.015H121.086V251.707Z" fill="#3A37A6"/>
</g>
<g opacity="0.33">
<path d="M113.938 251.707H109.145V255.097H113.938V251.707Z" fill="#3A37A6"/>
</g>
<g opacity="0.37">
<path d="M106.805 251.707H102.012V263.904H106.805V251.707Z" fill="#3A37A6"/>
</g>
<g opacity="0.42">
<path d="M99.7227 251.707H94.9297V266.097H99.7227V251.707Z" fill="#3A37A6"/>
</g>
<g opacity="0.5">
<path d="M92.6055 251.707H87.8125V260.348H92.6055V251.707Z" fill="#3A37A6"/>
</g>
<g opacity="0.54">
<path d="M85.5195 251.707H80.7266V261.212H85.5195V251.707Z" fill="#3A37A6"/>
</g>
<g opacity="0.54">
<path d="M78.3711 251.707H73.5781V263.571H78.3711V251.707Z" fill="#3A37A6"/>
</g>
<g opacity="0.34">
<path d="M71.2188 251.707H66.4258V260.015H71.2188V251.707Z" fill="#3A37A6"/>
</g>
<g opacity="0.55">
<path d="M64.1484 251.707H59.3555V265.765H64.1484V251.707Z" fill="#3A37A6"/>
</g>
<g opacity="0.42">
<path d="M57.0156 251.707H52.2227V261.843H57.0156V251.707Z" fill="#3A37A6"/>
</g>
<g opacity="0.54">
<path d="M49.9414 251.707H45.1484V256.459H49.9414V251.707Z" fill="#3A37A6"/>
</g>
<g opacity="0.43">
<path d="M42.793 251.707H38V254.731H42.793V251.707Z" fill="#3A37A6"/>
</g>
<g opacity="0.77">
<path d="M128.16 263.258H123.367V265.219H128.16V263.258Z" fill="#3A37A6"/>
</g>
<g opacity="0.9">
<path d="M121.086 261.473H116.293V263.433H121.086V261.473Z" fill="#3A37A6"/>
</g>
<g opacity="0.77">
<path d="M113.938 256.547H109.145V258.508H113.938V256.547Z" fill="#3A37A6"/>
</g>
<g opacity="0.86">
<path d="M106.805 265.406H102.012V267.367H106.805V265.406Z" fill="#3A37A6"/>
</g>
<g opacity="0.96">
<path d="M99.7227 267.582H94.9297V269.543H99.7227V267.582Z" fill="#3A37A6"/>
</g>
<g opacity="0.82">
<path d="M92.6055 261.801H87.8125V263.762H92.6055V261.801Z" fill="#3A37A6"/>
</g>
<path d="M85.5156 262.668H80.7227V264.629H85.5156V262.668Z" fill="#3A37A6"/>
<g opacity="0.83">
<path d="M78.3711 265.035H73.5781V266.996H78.3711V265.035Z" fill="#3A37A6"/>
</g>
<g opacity="0.82">
<path d="M71.2188 261.473H66.4258V263.433H71.2188V261.473Z" fill="#3A37A6"/>
</g>
<g opacity="0.72">
<path d="M64.1484 267.25H59.3555V269.211H64.1484V267.25Z" fill="#3A37A6"/>
</g>
<g opacity="0.78">
<path d="M57.0156 263.336H52.2227V265.297H57.0156V263.336Z" fill="#3A37A6"/>
</g>
<g opacity="0.87">
<path d="M49.9414 257.926H45.1484V259.887H49.9414V257.926Z" fill="#3A37A6"/>
</g>
<g opacity="0.82">
<path d="M42.793 256.215H38V258.176H42.793V256.215Z" fill="#3A37A6"/>
</g>
<g opacity="0.36">
<path d="M128.16 239.641H123.367V249.743H128.16V239.641Z" fill="#3A37A6"/>
</g>
<g opacity="0.39">
<path d="M121.086 241.434H116.293V249.742H121.086V241.434Z" fill="#3A37A6"/>
</g>
<g opacity="0.33">
<path d="M113.938 246.316H109.145V249.706H113.938V246.316Z" fill="#3A37A6"/>
</g>
<g opacity="0.37">
<path d="M106.805 237.52H102.012V249.716H106.805V237.52Z" fill="#3A37A6"/>
</g>
<g opacity="0.42">
<path d="M99.7227 235.32H94.9297V249.71H99.7227V235.32Z" fill="#3A37A6"/>
</g>
<g opacity="0.5">
<path d="M92.6055 241.066H87.8125V249.707H92.6055V241.066Z" fill="#3A37A6"/>
</g>
<g opacity="0.54">
<path d="M85.5195 240.238H80.7266V249.743H85.5195V240.238Z" fill="#3A37A6"/>
</g>
<g opacity="0.54">
<path d="M78.3711 237.844H73.5781V249.708H78.3711V237.844Z" fill="#3A37A6"/>
</g>
<g opacity="0.34">
<path d="M71.2188 241.434H66.4258V249.742H71.2188V241.434Z" fill="#3A37A6"/>
</g>
<g opacity="0.55">
<path d="M64.1484 235.648H59.3555V249.706H64.1484V235.648Z" fill="#3A37A6"/>
</g>
<g opacity="0.42">
<path d="M57.0156 239.574H52.2227V249.71H57.0156V239.574Z" fill="#3A37A6"/>
</g>
<g opacity="0.54">
<path d="M49.9414 245.004H45.1484V249.756H49.9414V245.004Z" fill="#3A37A6"/>
</g>
<g opacity="0.43">
<path d="M42.793 246.68H38V249.704H42.793V246.68Z" fill="#3A37A6"/>
</g>
<g opacity="0.77">
<path d="M128.16 236.199H123.367V238.16H128.16V236.199Z" fill="#3A37A6"/>
</g>
<g opacity="0.9">
<path d="M121.086 237.973H116.293V239.933H121.086V237.973Z" fill="#3A37A6"/>
</g>
<g opacity="0.77">
<path d="M113.938 242.855H109.145V244.816H113.938V242.855Z" fill="#3A37A6"/>
</g>
<g opacity="0.86">
<path d="M106.805 234.059H102.012V236.019H106.805V234.059Z" fill="#3A37A6"/>
</g>
<g opacity="0.96">
<path d="M99.7227 231.863H94.9297V233.824H99.7227V231.863Z" fill="#3A37A6"/>
</g>
<path d="M85.5156 236.781H80.7227V238.742H85.5156V236.781Z" fill="#3A37A6"/>
<g opacity="0.83">
<path d="M78.3711 234.383H73.5781V236.344H78.3711V234.383Z" fill="#3A37A6"/>
</g>
<g opacity="0.82">
<path d="M71.2188 237.973H66.4258V239.933H71.2188V237.973Z" fill="#3A37A6"/>
</g>
<g opacity="0.72">
<path d="M64.1484 232.203H59.3555V234.164H64.1484V232.203Z" fill="#3A37A6"/>
</g>
<g opacity="0.78">
<path d="M57.0156 236.129H52.2227V238.09H57.0156V236.129Z" fill="#3A37A6"/>
</g>
<g opacity="0.87">
<path d="M49.9414 241.543H45.1484V243.504H49.9414V241.543Z" fill="#3A37A6"/>
</g>
<g opacity="0.82">
<path d="M42.793 243.246H38V245.207H42.793V243.246Z" fill="#3A37A6"/>
</g>
<g filter="url(#filter1_b_1517_274767)">
<rect x="117" y="231" width="40" height="40" rx="20" fill="url(#paint1_linear_1517_274767)"/>
</g>
<path d="M133.074 250.999V248.995C133.074 246.409 134.902 245.366 137.137 246.652L138.87 247.655L140.603 248.657C142.838 249.943 142.838 252.056 140.603 253.342L138.87 254.344L137.137 255.346C134.902 256.633 133.074 255.576 133.074 253.003V250.999Z" fill="white" stroke="white" stroke-width="1.5" stroke-miterlimit="10" stroke-linecap="round" stroke-linejoin="round"/>
<path d="M136.999 264.542C144.478 264.542 150.54 258.479 150.54 251C150.54 243.521 144.478 237.458 136.999 237.458C129.52 237.458 123.457 243.521 123.457 251C123.457 258.479 129.52 264.542 136.999 264.542Z" stroke="white" stroke-width="1.5" stroke-linecap="round" stroke-linejoin="round"/>
<defs>
<filter id="filter0_b_1517_274767" x="81" y="220" width="110" height="110" filterUnits="userSpaceOnUse" color-interpolation-filters="sRGB">
<feFlood flood-opacity="0" result="BackgroundImageFix"/>
<feGaussianBlur in="BackgroundImageFix" stdDeviation="12.5"/>
<feComposite in2="SourceAlpha" operator="in" result="effect1_backgroundBlur_1517_274767"/>
<feBlend mode="normal" in="SourceGraphic" in2="effect1_backgroundBlur_1517_274767" result="shape"/>
</filter>
<filter id="filter1_b_1517_274767" x="92" y="206" width="90" height="90" filterUnits="userSpaceOnUse" color-interpolation-filters="sRGB">
<feFlood flood-opacity="0" result="BackgroundImageFix"/>
<feGaussianBlur in="BackgroundImageFix" stdDeviation="12.5"/>
<feComposite in2="SourceAlpha" operator="in" result="effect1_backgroundBlur_1517_274767"/>
<feBlend mode="normal" in="SourceGraphic" in2="effect1_backgroundBlur_1517_274767" result="shape"/>
</filter>
<linearGradient id="paint0_linear_1517_274767" x1="106" y1="245" x2="177.311" y2="265.268" gradientUnits="userSpaceOnUse">
<stop offset="0.0303834" stop-color="white" stop-opacity="0.4"/>
<stop offset="0.960276" stop-color="white" stop-opacity="0"/>
</linearGradient>
<linearGradient id="paint1_linear_1517_274767" x1="117" y1="231" x2="164.54" y2="244.512" gradientUnits="userSpaceOnUse">
<stop offset="0.0303834" stop-color="white" stop-opacity="0.4"/>
<stop offset="0.960276" stop-color="white" stop-opacity="0"/>
</linearGradient>
</defs>
</svg>
