<svg width="377" height="760" viewBox="0 0 377 760" fill="none" xmlns="http://www.w3.org/2000/svg">
<g clip-path="url(#clip0_1732_224062)">
<path d="M371.108 120.177H370.399V45.0832C370.399 39.1625 369.232 33.2998 366.964 27.8298C364.695 22.3598 361.371 17.3897 357.18 13.2033C352.99 9.0169 348.014 5.69617 342.539 3.43074C337.064 1.1653 331.195 -0.000464741 325.269 1.38982e-07H51.7312C39.7635 0.00093891 28.2863 4.75118 19.8242 13.2058C11.362 21.6604 6.60813 33.127 6.60813 45.0832V120.177H5.89948C5.12495 120.176 4.35777 120.327 3.64184 120.622C2.92591 120.917 2.27531 121.351 1.72731 121.898C1.1793 122.444 0.744656 123.094 0.448258 123.809C0.151859 124.524 -0.000466212 125.29 1.07185e-06 126.064V178.007C-0.000464731 178.78 0.151632 179.546 0.447587 180.26C0.743543 180.975 1.17756 181.624 1.72481 182.171C2.27206 182.717 2.92181 183.151 3.63692 183.447C4.35203 183.742 5.11847 183.894 5.8924 183.894H6.60105V196.283H5.8924C5.11847 196.283 4.35203 196.435 3.63692 196.73C2.92181 197.026 2.27206 197.46 1.72481 198.006C1.17756 198.553 0.743543 199.202 0.447587 199.917C0.151632 200.631 -0.000464731 201.397 1.07185e-06 202.17V254.113C-0.000464731 254.886 0.151632 255.652 0.447587 256.367C0.743543 257.081 1.17756 257.73 1.72481 258.277C2.27206 258.824 2.92181 259.257 3.63692 259.553C4.35203 259.849 5.11847 260 5.8924 260H6.60105V714.917C6.60105 720.837 7.76839 726.7 10.0364 732.17C12.3045 737.64 15.6288 742.61 19.8196 746.797C24.0103 750.983 28.9855 754.304 34.4609 756.569C39.9363 758.835 45.8048 760 51.7312 760H325.269C337.237 760 348.715 755.25 357.178 746.795C365.641 738.341 370.395 726.874 370.395 714.917V215.752H371.104C371.878 215.753 372.645 215.601 373.36 215.305C374.075 215.01 374.725 214.576 375.273 214.029C375.82 213.483 376.255 212.833 376.551 212.119C376.847 211.405 377 210.639 377 209.865V126.064C377 124.502 376.379 123.005 375.274 121.901C374.169 120.797 372.67 120.177 371.108 120.177Z" fill="#262626"/>
<path d="M320.405 11H56.5946C36.384 11 20 27.378 20 47.5812V711.419C20 731.622 36.384 748 56.5946 748H320.405C340.616 748 357 731.622 357 711.419V47.5812C357 27.378 340.616 11 320.405 11Z" fill="#3A37A6"/>
<path d="M122.282 374V358.504H117.186V355.8H130.342V358.504H125.09V374H122.282ZM133.129 374V354.76H135.807V363.158L135.339 363.47C135.512 362.863 135.85 362.309 136.353 361.806C136.856 361.286 137.454 360.87 138.147 360.558C138.84 360.229 139.551 360.064 140.279 360.064C141.319 360.064 142.186 360.272 142.879 360.688C143.572 361.087 144.092 361.702 144.439 362.534C144.786 363.366 144.959 364.415 144.959 365.68V374H142.281V365.862C142.281 365.082 142.177 364.441 141.969 363.938C141.761 363.418 141.44 363.045 141.007 362.82C140.574 362.577 140.036 362.473 139.395 362.508C138.875 362.508 138.398 362.595 137.965 362.768C137.532 362.924 137.15 363.149 136.821 363.444C136.509 363.739 136.258 364.085 136.067 364.484C135.894 364.865 135.807 365.281 135.807 365.732V374H134.481C134.256 374 134.03 374 133.805 374C133.58 374 133.354 374 133.129 374ZM153.844 374.26C152.717 374.26 151.686 373.948 150.75 373.324C149.831 372.7 149.094 371.851 148.54 370.776C147.985 369.701 147.708 368.488 147.708 367.136C147.708 365.767 147.985 364.553 148.54 363.496C149.112 362.421 149.874 361.581 150.828 360.974C151.798 360.367 152.882 360.064 154.078 360.064C154.788 360.064 155.438 360.168 156.028 360.376C156.617 360.584 157.128 360.879 157.562 361.26C158.012 361.624 158.376 362.049 158.654 362.534C158.948 363.019 159.13 363.539 159.2 364.094L158.602 363.886V360.35H161.306V374H158.602V370.75L159.226 370.568C159.122 371.036 158.905 371.495 158.576 371.946C158.264 372.379 157.856 372.769 157.354 373.116C156.868 373.463 156.322 373.74 155.716 373.948C155.126 374.156 154.502 374.26 153.844 374.26ZM154.546 371.79C155.36 371.79 156.08 371.591 156.704 371.192C157.328 370.793 157.813 370.247 158.16 369.554C158.524 368.843 158.706 368.037 158.706 367.136C158.706 366.252 158.524 365.463 158.16 364.77C157.813 364.077 157.328 363.531 156.704 363.132C156.08 362.733 155.36 362.534 154.546 362.534C153.748 362.534 153.038 362.733 152.414 363.132C151.807 363.531 151.322 364.077 150.958 364.77C150.611 365.463 150.438 366.252 150.438 367.136C150.438 368.037 150.611 368.843 150.958 369.554C151.322 370.247 151.807 370.793 152.414 371.192C153.038 371.591 153.748 371.79 154.546 371.79ZM165.045 374V360.35H167.723V363.158L167.255 363.47C167.428 362.863 167.766 362.309 168.269 361.806C168.772 361.286 169.37 360.87 170.063 360.558C170.756 360.229 171.467 360.064 172.195 360.064C173.235 360.064 174.102 360.272 174.795 360.688C175.488 361.087 176.008 361.702 176.355 362.534C176.702 363.366 176.875 364.415 176.875 365.68V374H174.197V365.862C174.197 365.082 174.093 364.441 173.885 363.938C173.677 363.418 173.356 363.045 172.923 362.82C172.49 362.577 171.952 362.473 171.311 362.508C170.791 362.508 170.314 362.595 169.881 362.768C169.448 362.924 169.066 363.149 168.737 363.444C168.425 363.739 168.174 364.085 167.983 364.484C167.81 364.865 167.723 365.281 167.723 365.732V374H166.397C166.172 374 165.946 374 165.721 374C165.496 374 165.27 374 165.045 374ZM182.952 369.736L182.822 366.824L189.348 360.35H192.962L182.952 369.736ZM180.508 374V354.76H183.186V374H180.508ZM189.712 374L184.564 367.994L186.462 366.252L193.144 374H189.712ZM204.86 379.98L207.616 373.61L207.642 375.742L200.83 360.35H203.95L208.214 370.386C208.301 370.559 208.405 370.828 208.526 371.192C208.648 371.539 208.752 371.885 208.838 372.232L208.162 372.388C208.301 372.024 208.431 371.66 208.552 371.296C208.691 370.932 208.821 370.568 208.942 370.204L212.504 360.35H215.676L210.06 374L207.746 379.98H204.86ZM223.562 374.26C222.227 374.26 221.031 373.957 219.974 373.35C218.934 372.726 218.11 371.885 217.504 370.828C216.897 369.753 216.594 368.531 216.594 367.162C216.594 365.793 216.897 364.579 217.504 363.522C218.11 362.447 218.934 361.607 219.974 361C221.031 360.376 222.227 360.064 223.562 360.064C224.879 360.064 226.058 360.376 227.098 361C228.155 361.607 228.987 362.447 229.594 363.522C230.2 364.579 230.504 365.793 230.504 367.162C230.504 368.531 230.2 369.753 229.594 370.828C228.987 371.885 228.155 372.726 227.098 373.35C226.058 373.957 224.879 374.26 223.562 374.26ZM223.562 371.816C224.376 371.816 225.104 371.617 225.746 371.218C226.387 370.802 226.89 370.247 227.254 369.554C227.618 368.843 227.791 368.046 227.774 367.162C227.791 366.261 227.618 365.463 227.254 364.77C226.89 364.059 226.387 363.505 225.746 363.106C225.104 362.707 224.376 362.508 223.562 362.508C222.747 362.508 222.01 362.716 221.352 363.132C220.71 363.531 220.208 364.085 219.844 364.796C219.48 365.489 219.306 366.278 219.324 367.162C219.306 368.046 219.48 368.843 219.844 369.554C220.208 370.247 220.71 370.802 221.352 371.218C222.01 371.617 222.747 371.816 223.562 371.816ZM238.206 374.26C237.235 374.26 236.386 374.035 235.658 373.584C234.947 373.133 234.392 372.501 233.994 371.686C233.612 370.871 233.422 369.901 233.422 368.774V360.35H236.1V368.046C236.1 368.843 236.221 369.537 236.464 370.126C236.724 370.698 237.088 371.14 237.556 371.452C238.041 371.764 238.622 371.92 239.298 371.92C239.8 371.92 240.26 371.842 240.676 371.686C241.092 371.513 241.447 371.279 241.742 370.984C242.054 370.689 242.296 370.334 242.47 369.918C242.643 369.502 242.73 369.051 242.73 368.566V360.35H245.408V374H242.73V371.14L243.198 370.828C242.99 371.469 242.634 372.05 242.132 372.57C241.646 373.09 241.066 373.506 240.39 373.818C239.714 374.113 238.986 374.26 238.206 374.26ZM256.841 367.734C256.72 366.642 256.607 365.515 256.503 364.354C256.416 363.175 256.347 362.014 256.295 360.87C256.243 359.726 256.217 358.643 256.217 357.62V355.8H259.025V357.62C259.025 358.695 258.999 359.821 258.947 361C258.895 362.179 258.817 363.349 258.713 364.51C258.626 365.654 258.522 366.729 258.401 367.734H256.841ZM257.543 374.286C256.971 374.286 256.529 374.121 256.217 373.792C255.905 373.445 255.749 372.96 255.749 372.336C255.749 371.764 255.914 371.296 256.243 370.932C256.572 370.568 257.006 370.386 257.543 370.386C258.115 370.386 258.557 370.559 258.869 370.906C259.181 371.235 259.337 371.712 259.337 372.336C259.337 372.908 259.172 373.376 258.843 373.74C258.514 374.104 258.08 374.286 257.543 374.286Z" fill="white"/>
<path d="M73.5916 407V401.416L73.7036 402.2L69.1756 395.8H71.2556L74.7116 400.76L74.3116 400.712L77.4316 395.8H79.4156L75.0796 402.376L75.3196 401.288V407H73.5916ZM83.2249 407.16C82.4035 407.16 81.6675 406.973 81.0169 406.6C80.3769 406.216 79.8702 405.699 79.4969 405.048C79.1235 404.387 78.9369 403.635 78.9369 402.792C78.9369 401.949 79.1235 401.203 79.4969 400.552C79.8702 399.891 80.3769 399.373 81.0169 399C81.6675 398.616 82.4035 398.424 83.2249 398.424C84.0355 398.424 84.7609 398.616 85.4009 399C86.0515 399.373 86.5635 399.891 86.9369 400.552C87.3102 401.203 87.4969 401.949 87.4969 402.792C87.4969 403.635 87.3102 404.387 86.9369 405.048C86.5635 405.699 86.0515 406.216 85.4009 406.6C84.7609 406.973 84.0355 407.16 83.2249 407.16ZM83.2249 405.656C83.7262 405.656 84.1742 405.533 84.5689 405.288C84.9635 405.032 85.2729 404.691 85.4969 404.264C85.7209 403.827 85.8275 403.336 85.8169 402.792C85.8275 402.237 85.7209 401.747 85.4969 401.32C85.2729 400.883 84.9635 400.541 84.5689 400.296C84.1742 400.051 83.7262 399.928 83.2249 399.928C82.7235 399.928 82.2702 400.056 81.8649 400.312C81.4702 400.557 81.1609 400.899 80.9369 401.336C80.7129 401.763 80.6062 402.248 80.6169 402.792C80.6062 403.336 80.7129 403.827 80.9369 404.264C81.1609 404.691 81.4702 405.032 81.8649 405.288C82.2702 405.533 82.7235 405.656 83.2249 405.656ZM92.2366 407.16C91.6393 407.16 91.1166 407.021 90.6686 406.744C90.2313 406.467 89.89 406.077 89.6446 405.576C89.41 405.075 89.2926 404.477 89.2926 403.784V398.6H90.9406V403.336C90.9406 403.827 91.0153 404.253 91.1646 404.616C91.3246 404.968 91.5486 405.24 91.8366 405.432C92.1353 405.624 92.4926 405.72 92.9086 405.72C93.218 405.72 93.5006 405.672 93.7566 405.576C94.0126 405.469 94.2313 405.325 94.4126 405.144C94.6046 404.963 94.754 404.744 94.8606 404.488C94.9673 404.232 95.0206 403.955 95.0206 403.656V398.6H96.6686V407H95.0206V405.24L95.3086 405.048C95.1806 405.443 94.962 405.8 94.6526 406.12C94.354 406.44 93.9966 406.696 93.5806 406.888C93.1646 407.069 92.7166 407.16 92.2366 407.16ZM98.9801 407V398.6H100.644V401.24L100.484 400.6C100.601 400.195 100.799 399.827 101.076 399.496C101.364 399.165 101.689 398.904 102.052 398.712C102.425 398.52 102.809 398.424 103.204 398.424C103.385 398.424 103.556 398.44 103.716 398.472C103.887 398.504 104.02 398.541 104.116 398.584L103.684 400.376C103.556 400.323 103.412 400.28 103.252 400.248C103.103 400.205 102.953 400.184 102.804 400.184C102.516 400.184 102.239 400.243 101.972 400.36C101.716 400.467 101.487 400.621 101.284 400.824C101.092 401.016 100.937 401.245 100.82 401.512C100.703 401.768 100.644 402.051 100.644 402.36V407H98.9801ZM109.918 407V395.16H111.566V400.328L111.278 400.52C111.384 400.147 111.592 399.805 111.902 399.496C112.211 399.176 112.579 398.92 113.006 398.728C113.432 398.525 113.87 398.424 114.318 398.424C114.958 398.424 115.491 398.552 115.918 398.808C116.344 399.053 116.664 399.432 116.878 399.944C117.091 400.456 117.198 401.101 117.198 401.88V407H115.55V401.992C115.55 401.512 115.486 401.117 115.358 400.808C115.23 400.488 115.032 400.259 114.766 400.12C114.499 399.971 114.168 399.907 113.774 399.928C113.454 399.928 113.16 399.981 112.894 400.088C112.627 400.184 112.392 400.323 112.19 400.504C111.998 400.685 111.843 400.899 111.726 401.144C111.619 401.379 111.566 401.635 111.566 401.912V407H110.75C110.611 407 110.472 407 110.334 407C110.195 407 110.056 407 109.918 407ZM123.353 407.16C122.489 407.16 121.721 406.979 121.049 406.616C120.388 406.243 119.865 405.736 119.481 405.096C119.108 404.456 118.921 403.72 118.921 402.888C118.921 402.227 119.028 401.624 119.241 401.08C119.455 400.536 119.748 400.067 120.121 399.672C120.505 399.267 120.959 398.957 121.481 398.744C122.015 398.52 122.591 398.408 123.209 398.408C123.753 398.408 124.26 398.515 124.729 398.728C125.199 398.931 125.604 399.213 125.945 399.576C126.297 399.939 126.564 400.371 126.745 400.872C126.937 401.363 127.028 401.901 127.017 402.488L127.001 403.192H120.137L119.769 401.88H125.577L125.337 402.152V401.768C125.305 401.416 125.188 401.101 124.985 400.824C124.783 400.547 124.527 400.328 124.217 400.168C123.908 400.008 123.572 399.928 123.209 399.928C122.633 399.928 122.148 400.04 121.753 400.264C121.359 400.477 121.06 400.797 120.857 401.224C120.655 401.64 120.553 402.157 120.553 402.776C120.553 403.363 120.676 403.875 120.921 404.312C121.167 404.739 121.513 405.069 121.961 405.304C122.409 405.539 122.927 405.656 123.513 405.656C123.929 405.656 124.313 405.587 124.665 405.448C125.028 405.309 125.417 405.059 125.833 404.696L126.665 405.864C126.409 406.12 126.095 406.344 125.721 406.536C125.359 406.728 124.969 406.883 124.553 407C124.148 407.107 123.748 407.16 123.353 407.16ZM128.84 407V395.16H130.488V407H128.84ZM132.824 410.52V398.6H134.488V400.52L134.232 400.376C134.296 400.056 134.477 399.752 134.776 399.464C135.075 399.165 135.437 398.925 135.864 398.744C136.301 398.552 136.749 398.456 137.208 398.456C137.965 398.456 138.637 398.643 139.224 399.016C139.811 399.389 140.275 399.901 140.616 400.552C140.957 401.203 141.128 401.949 141.128 402.792C141.128 403.624 140.957 404.371 140.616 405.032C140.285 405.683 139.827 406.2 139.24 406.584C138.653 406.957 137.992 407.144 137.256 407.144C136.765 407.144 136.291 407.048 135.832 406.856C135.373 406.653 134.984 406.397 134.664 406.088C134.344 405.779 134.147 405.459 134.072 405.128L134.488 404.904V410.52H132.824ZM136.984 405.624C137.475 405.624 137.912 405.501 138.296 405.256C138.68 405.011 138.984 404.675 139.208 404.248C139.432 403.821 139.544 403.336 139.544 402.792C139.544 402.248 139.432 401.768 139.208 401.352C138.995 400.925 138.696 400.589 138.312 400.344C137.928 400.099 137.485 399.976 136.984 399.976C136.483 399.976 136.04 400.099 135.656 400.344C135.272 400.579 134.968 400.909 134.744 401.336C134.52 401.763 134.408 402.248 134.408 402.792C134.408 403.336 134.52 403.821 134.744 404.248C134.968 404.675 135.272 405.011 135.656 405.256C136.04 405.501 136.483 405.624 136.984 405.624ZM147.674 407V398.6H149.322V407H147.674ZM148.474 396.744C148.122 396.744 147.85 396.653 147.658 396.472C147.466 396.291 147.37 396.035 147.37 395.704C147.37 395.395 147.466 395.144 147.658 394.952C147.861 394.76 148.133 394.664 148.474 394.664C148.826 394.664 149.098 394.755 149.29 394.936C149.482 395.117 149.578 395.373 149.578 395.704C149.578 396.013 149.477 396.264 149.274 396.456C149.082 396.648 148.815 396.744 148.474 396.744ZM154.655 407.16C153.951 407.16 153.316 407.037 152.751 406.792C152.186 406.547 151.716 406.184 151.343 405.704L152.463 404.744C152.783 405.117 153.13 405.389 153.503 405.56C153.887 405.72 154.319 405.8 154.799 405.8C154.991 405.8 155.167 405.779 155.327 405.736C155.498 405.683 155.642 405.608 155.759 405.512C155.887 405.416 155.983 405.304 156.047 405.176C156.111 405.037 156.143 404.888 156.143 404.728C156.143 404.451 156.042 404.227 155.839 404.056C155.732 403.981 155.562 403.901 155.327 403.816C155.103 403.72 154.81 403.624 154.447 403.528C153.828 403.368 153.322 403.187 152.927 402.984C152.532 402.781 152.228 402.552 152.015 402.296C151.855 402.093 151.738 401.875 151.663 401.64C151.588 401.395 151.551 401.128 151.551 400.84C151.551 400.488 151.626 400.168 151.775 399.88C151.935 399.581 152.148 399.325 152.415 399.112C152.692 398.888 153.012 398.717 153.375 398.6C153.748 398.483 154.143 398.424 154.559 398.424C154.954 398.424 155.343 398.477 155.727 398.584C156.122 398.691 156.484 398.845 156.815 399.048C157.146 399.251 157.423 399.491 157.647 399.768L156.703 400.808C156.5 400.605 156.276 400.429 156.031 400.28C155.796 400.12 155.556 399.997 155.311 399.912C155.066 399.827 154.842 399.784 154.639 399.784C154.415 399.784 154.212 399.805 154.031 399.848C153.85 399.891 153.695 399.955 153.567 400.04C153.45 400.125 153.359 400.232 153.295 400.36C153.231 400.488 153.199 400.632 153.199 400.792C153.21 400.931 153.242 401.064 153.295 401.192C153.359 401.309 153.444 401.411 153.551 401.496C153.668 401.581 153.844 401.672 154.079 401.768C154.314 401.864 154.612 401.955 154.975 402.04C155.508 402.179 155.946 402.333 156.287 402.504C156.639 402.664 156.916 402.851 157.119 403.064C157.332 403.267 157.482 403.501 157.567 403.768C157.652 404.035 157.695 404.333 157.695 404.664C157.695 405.144 157.556 405.576 157.279 405.96C157.012 406.333 156.65 406.627 156.191 406.84C155.732 407.053 155.22 407.16 154.655 407.16ZM167.756 410.68C167.158 410.68 166.561 410.584 165.964 410.392C165.377 410.211 164.902 409.971 164.54 409.672L165.148 408.392C165.361 408.552 165.612 408.691 165.9 408.808C166.188 408.936 166.492 409.032 166.812 409.096C167.132 409.171 167.446 409.208 167.756 409.208C168.342 409.208 168.833 409.112 169.228 408.92C169.622 408.728 169.921 408.445 170.124 408.072C170.326 407.699 170.428 407.235 170.428 406.68V405.064L170.604 405.176C170.55 405.507 170.374 405.827 170.076 406.136C169.788 406.435 169.425 406.68 168.988 406.872C168.55 407.064 168.102 407.16 167.644 407.16C166.844 407.16 166.129 406.973 165.5 406.6C164.881 406.216 164.39 405.699 164.028 405.048C163.665 404.387 163.484 403.635 163.484 402.792C163.484 401.949 163.66 401.203 164.012 400.552C164.374 399.891 164.865 399.373 165.484 399C166.113 398.616 166.817 398.424 167.596 398.424C167.916 398.424 168.225 398.467 168.524 398.552C168.822 398.627 169.1 398.739 169.356 398.888C169.612 399.027 169.841 399.181 170.044 399.352C170.246 399.523 170.412 399.704 170.54 399.896C170.668 400.088 170.748 400.269 170.78 400.44L170.428 400.568V398.6H172.076V406.488C172.076 407.16 171.974 407.752 171.772 408.264C171.58 408.787 171.297 409.224 170.924 409.576C170.55 409.939 170.097 410.211 169.564 410.392C169.03 410.584 168.428 410.68 167.756 410.68ZM167.82 405.64C168.342 405.64 168.806 405.517 169.212 405.272C169.617 405.027 169.932 404.691 170.156 404.264C170.38 403.837 170.492 403.347 170.492 402.792C170.492 402.237 170.374 401.747 170.14 401.32C169.916 400.883 169.601 400.541 169.196 400.296C168.801 400.051 168.342 399.928 167.82 399.928C167.308 399.928 166.849 400.056 166.444 400.312C166.049 400.557 165.734 400.899 165.5 401.336C165.276 401.763 165.164 402.248 165.164 402.792C165.164 403.336 165.276 403.827 165.5 404.264C165.734 404.691 166.049 405.027 166.444 405.272C166.849 405.517 167.308 405.64 167.82 405.64ZM174.386 407V398.6H176.05V401.24L175.89 400.6C176.008 400.195 176.205 399.827 176.482 399.496C176.77 399.165 177.096 398.904 177.458 398.712C177.832 398.52 178.216 398.424 178.61 398.424C178.792 398.424 178.962 398.44 179.122 398.472C179.293 398.504 179.426 398.541 179.522 398.584L179.09 400.376C178.962 400.323 178.818 400.28 178.658 400.248C178.509 400.205 178.36 400.184 178.21 400.184C177.922 400.184 177.645 400.243 177.378 400.36C177.122 400.467 176.893 400.621 176.69 400.824C176.498 401.016 176.344 401.245 176.226 401.512C176.109 401.768 176.05 402.051 176.05 402.36V407H174.386ZM184.4 407.16C183.536 407.16 182.768 406.979 182.096 406.616C181.435 406.243 180.912 405.736 180.528 405.096C180.155 404.456 179.968 403.72 179.968 402.888C179.968 402.227 180.075 401.624 180.288 401.08C180.501 400.536 180.795 400.067 181.168 399.672C181.552 399.267 182.005 398.957 182.528 398.744C183.061 398.52 183.637 398.408 184.256 398.408C184.8 398.408 185.307 398.515 185.776 398.728C186.245 398.931 186.651 399.213 186.992 399.576C187.344 399.939 187.611 400.371 187.792 400.872C187.984 401.363 188.075 401.901 188.064 402.488L188.048 403.192H181.184L180.816 401.88H186.624L186.384 402.152V401.768C186.352 401.416 186.235 401.101 186.032 400.824C185.829 400.547 185.573 400.328 185.264 400.168C184.955 400.008 184.619 399.928 184.256 399.928C183.68 399.928 183.195 400.04 182.8 400.264C182.405 400.477 182.107 400.797 181.904 401.224C181.701 401.64 181.6 402.157 181.6 402.776C181.6 403.363 181.723 403.875 181.968 404.312C182.213 404.739 182.56 405.069 183.008 405.304C183.456 405.539 183.973 405.656 184.56 405.656C184.976 405.656 185.36 405.587 185.712 405.448C186.075 405.309 186.464 405.059 186.88 404.696L187.712 405.864C187.456 406.12 187.141 406.344 186.768 406.536C186.405 406.728 186.016 406.883 185.6 407C185.195 407.107 184.795 407.16 184.4 407.16ZM190.895 407V396.456H192.543V407H190.895ZM189.151 400.2V398.6H194.495V400.2H189.151ZM196.028 407V395.16H197.676V407H196.028ZM201.185 410.68L202.881 406.76L202.897 408.072L198.705 398.6H200.625L203.249 404.776C203.302 404.883 203.366 405.048 203.441 405.272C203.516 405.485 203.58 405.699 203.633 405.912L203.217 406.008C203.302 405.784 203.382 405.56 203.457 405.336C203.542 405.112 203.622 404.888 203.697 404.664L205.889 398.6H207.841L204.385 407L202.961 410.68H201.185ZM212.806 407L217.142 395.8H218.902L223.206 407H221.366L218.806 400.248C218.774 400.173 218.71 399.992 218.614 399.704C218.529 399.416 218.428 399.096 218.31 398.744C218.193 398.392 218.086 398.072 217.99 397.784C217.894 397.485 217.83 397.293 217.798 397.208L218.166 397.192C218.102 397.373 218.022 397.603 217.926 397.88C217.841 398.157 217.745 398.451 217.638 398.76C217.542 399.069 217.446 399.363 217.35 399.64C217.254 399.907 217.174 400.131 217.11 400.312L214.566 407H212.806ZM214.726 404.216L215.366 402.552H220.454L221.19 404.216H214.726ZM224.761 410.52V398.6H226.425V400.52L226.169 400.376C226.233 400.056 226.415 399.752 226.713 399.464C227.012 399.165 227.375 398.925 227.801 398.744C228.239 398.552 228.687 398.456 229.145 398.456C229.903 398.456 230.575 398.643 231.161 399.016C231.748 399.389 232.212 399.901 232.553 400.552C232.895 401.203 233.065 401.949 233.065 402.792C233.065 403.624 232.895 404.371 232.553 405.032C232.223 405.683 231.764 406.2 231.177 406.584C230.591 406.957 229.929 407.144 229.193 407.144C228.703 407.144 228.228 407.048 227.769 406.856C227.311 406.653 226.921 406.397 226.601 406.088C226.281 405.779 226.084 405.459 226.009 405.128L226.425 404.904V410.52H224.761ZM228.921 405.624C229.412 405.624 229.849 405.501 230.233 405.256C230.617 405.011 230.921 404.675 231.145 404.248C231.369 403.821 231.481 403.336 231.481 402.792C231.481 402.248 231.369 401.768 231.145 401.352C230.932 400.925 230.633 400.589 230.249 400.344C229.865 400.099 229.423 399.976 228.921 399.976C228.42 399.976 227.977 400.099 227.593 400.344C227.209 400.579 226.905 400.909 226.681 401.336C226.457 401.763 226.345 402.248 226.345 402.792C226.345 403.336 226.457 403.821 226.681 404.248C226.905 404.675 227.209 405.011 227.593 405.256C227.977 405.501 228.42 405.624 228.921 405.624ZM234.855 410.52V398.6H236.519V400.52L236.263 400.376C236.327 400.056 236.508 399.752 236.807 399.464C237.106 399.165 237.468 398.925 237.895 398.744C238.332 398.552 238.78 398.456 239.239 398.456C239.996 398.456 240.668 398.643 241.255 399.016C241.842 399.389 242.306 399.901 242.647 400.552C242.988 401.203 243.159 401.949 243.159 402.792C243.159 403.624 242.988 404.371 242.647 405.032C242.316 405.683 241.858 406.2 241.271 406.584C240.684 406.957 240.023 407.144 239.287 407.144C238.796 407.144 238.322 407.048 237.863 406.856C237.404 406.653 237.015 406.397 236.695 406.088C236.375 405.779 236.178 405.459 236.103 405.128L236.519 404.904V410.52H234.855ZM239.015 405.624C239.506 405.624 239.943 405.501 240.327 405.256C240.711 405.011 241.015 404.675 241.239 404.248C241.463 403.821 241.575 403.336 241.575 402.792C241.575 402.248 241.463 401.768 241.239 401.352C241.026 400.925 240.727 400.589 240.343 400.344C239.959 400.099 239.516 399.976 239.015 399.976C238.514 399.976 238.071 400.099 237.687 400.344C237.303 400.579 236.999 400.909 236.775 401.336C236.551 401.763 236.439 402.248 236.439 402.792C236.439 403.336 236.551 403.821 236.775 404.248C236.999 404.675 237.303 405.011 237.687 405.256C238.071 405.501 238.514 405.624 239.015 405.624ZM244.949 407V398.6H246.613V401.24L246.453 400.6C246.57 400.195 246.768 399.827 247.045 399.496C247.333 399.165 247.658 398.904 248.021 398.712C248.394 398.52 248.778 398.424 249.173 398.424C249.354 398.424 249.525 398.44 249.685 398.472C249.856 398.504 249.989 398.541 250.085 398.584L249.653 400.376C249.525 400.323 249.381 400.28 249.221 400.248C249.072 400.205 248.922 400.184 248.773 400.184C248.485 400.184 248.208 400.243 247.941 400.36C247.685 400.467 247.456 400.621 247.253 400.824C247.061 401.016 246.906 401.245 246.789 401.512C246.672 401.768 246.613 402.051 246.613 402.36V407H244.949ZM254.963 407.16C254.099 407.16 253.331 406.979 252.659 406.616C251.997 406.243 251.475 405.736 251.091 405.096C250.717 404.456 250.531 403.72 250.531 402.888C250.531 402.227 250.637 401.624 250.851 401.08C251.064 400.536 251.357 400.067 251.731 399.672C252.115 399.267 252.568 398.957 253.091 398.744C253.624 398.52 254.2 398.408 254.819 398.408C255.363 398.408 255.869 398.515 256.339 398.728C256.808 398.931 257.213 399.213 257.555 399.576C257.907 399.939 258.173 400.371 258.355 400.872C258.547 401.363 258.637 401.901 258.627 402.488L258.611 403.192H251.747L251.379 401.88H257.187L256.947 402.152V401.768C256.915 401.416 256.797 401.101 256.595 400.824C256.392 400.547 256.136 400.328 255.827 400.168C255.517 400.008 255.181 399.928 254.819 399.928C254.243 399.928 253.757 400.04 253.363 400.264C252.968 400.477 252.669 400.797 252.467 401.224C252.264 401.64 252.163 402.157 252.163 402.776C252.163 403.363 252.285 403.875 252.531 404.312C252.776 404.739 253.123 405.069 253.571 405.304C254.019 405.539 254.536 405.656 255.123 405.656C255.539 405.656 255.923 405.587 256.275 405.448C256.637 405.309 257.027 405.059 257.443 404.696L258.275 405.864C258.019 406.12 257.704 406.344 257.331 406.536C256.968 406.728 256.579 406.883 256.163 407C255.757 407.107 255.357 407.16 254.963 407.16ZM263.986 407.16C263.207 407.16 262.508 406.968 261.89 406.584C261.282 406.2 260.796 405.677 260.434 405.016C260.082 404.355 259.906 403.613 259.906 402.792C259.906 401.971 260.082 401.229 260.434 400.568C260.796 399.907 261.282 399.384 261.89 399C262.508 398.616 263.207 398.424 263.986 398.424C264.732 398.424 265.41 398.579 266.018 398.888C266.636 399.187 267.106 399.597 267.426 400.12L266.514 401.24C266.343 400.995 266.124 400.771 265.858 400.568C265.591 400.365 265.308 400.205 265.01 400.088C264.711 399.971 264.423 399.912 264.146 399.912C263.634 399.912 263.175 400.04 262.77 400.296C262.375 400.541 262.06 400.883 261.826 401.32C261.591 401.757 261.474 402.248 261.474 402.792C261.474 403.336 261.596 403.827 261.842 404.264C262.087 404.691 262.412 405.032 262.818 405.288C263.223 405.544 263.671 405.672 264.162 405.672C264.45 405.672 264.727 405.624 264.994 405.528C265.271 405.432 265.538 405.288 265.794 405.096C266.05 404.904 266.29 404.669 266.514 404.392L267.426 405.512C267.084 405.992 266.594 406.387 265.954 406.696C265.324 407.005 264.668 407.16 263.986 407.16ZM269.252 407V398.6H270.9V407H269.252ZM270.052 396.744C269.7 396.744 269.428 396.653 269.236 396.472C269.044 396.291 268.948 396.035 268.948 395.704C268.948 395.395 269.044 395.144 269.236 394.952C269.439 394.76 269.711 394.664 270.052 394.664C270.404 394.664 270.676 394.755 270.868 394.936C271.06 395.117 271.156 395.373 271.156 395.704C271.156 396.013 271.055 396.264 270.852 396.456C270.66 396.648 270.393 396.744 270.052 396.744ZM276.665 407.16C275.972 407.16 275.337 406.968 274.761 406.584C274.196 406.2 273.743 405.677 273.401 405.016C273.06 404.355 272.889 403.608 272.889 402.776C272.889 401.933 273.06 401.187 273.401 400.536C273.753 399.875 274.223 399.357 274.809 398.984C275.407 398.611 276.073 398.424 276.809 398.424C277.247 398.424 277.647 398.488 278.009 398.616C278.372 398.744 278.687 398.925 278.953 399.16C279.231 399.384 279.455 399.645 279.625 399.944C279.807 400.243 279.919 400.563 279.961 400.904L279.593 400.776V398.6H281.257V407H279.593V405L279.977 404.888C279.913 405.176 279.78 405.459 279.577 405.736C279.385 406.003 279.135 406.243 278.825 406.456C278.527 406.669 278.191 406.84 277.817 406.968C277.455 407.096 277.071 407.16 276.665 407.16ZM277.097 405.64C277.599 405.64 278.041 405.517 278.425 405.272C278.809 405.027 279.108 404.691 279.321 404.264C279.545 403.827 279.657 403.331 279.657 402.776C279.657 402.232 279.545 401.747 279.321 401.32C279.108 400.893 278.809 400.557 278.425 400.312C278.041 400.067 277.599 399.944 277.097 399.944C276.607 399.944 276.169 400.067 275.785 400.312C275.412 400.557 275.113 400.893 274.889 401.32C274.676 401.747 274.569 402.232 274.569 402.776C274.569 403.331 274.676 403.827 274.889 404.264C275.113 404.691 275.412 405.027 275.785 405.272C276.169 405.517 276.607 405.64 277.097 405.64ZM284.598 407V396.456H286.246V407H284.598ZM282.854 400.2V398.6H288.198V400.2H282.854ZM293.541 407.16C292.677 407.16 291.909 406.979 291.237 406.616C290.575 406.243 290.053 405.736 289.669 405.096C289.295 404.456 289.109 403.72 289.109 402.888C289.109 402.227 289.215 401.624 289.429 401.08C289.642 400.536 289.935 400.067 290.309 399.672C290.693 399.267 291.146 398.957 291.669 398.744C292.202 398.52 292.778 398.408 293.397 398.408C293.941 398.408 294.447 398.515 294.917 398.728C295.386 398.931 295.791 399.213 296.133 399.576C296.485 399.939 296.751 400.371 296.933 400.872C297.125 401.363 297.215 401.901 297.205 402.488L297.189 403.192H290.325L289.957 401.88H295.765L295.525 402.152V401.768C295.493 401.416 295.375 401.101 295.173 400.824C294.97 400.547 294.714 400.328 294.405 400.168C294.095 400.008 293.759 399.928 293.397 399.928C292.821 399.928 292.335 400.04 291.941 400.264C291.546 400.477 291.247 400.797 291.045 401.224C290.842 401.64 290.741 402.157 290.741 402.776C290.741 403.363 290.863 403.875 291.109 404.312C291.354 404.739 291.701 405.069 292.149 405.304C292.597 405.539 293.114 405.656 293.701 405.656C294.117 405.656 294.501 405.587 294.853 405.448C295.215 405.309 295.605 405.059 296.021 404.696L296.853 405.864C296.597 406.12 296.282 406.344 295.909 406.536C295.546 406.728 295.157 406.883 294.741 407C294.335 407.107 293.935 407.16 293.541 407.16ZM302.5 407.16C301.732 407.16 301.044 406.973 300.436 406.6C299.838 406.216 299.364 405.699 299.012 405.048C298.66 404.387 298.484 403.635 298.484 402.792C298.484 401.949 298.654 401.203 298.996 400.552C299.348 399.891 299.822 399.373 300.42 399C301.017 398.616 301.694 398.424 302.452 398.424C302.868 398.424 303.268 398.493 303.652 398.632C304.046 398.76 304.398 398.941 304.708 399.176C305.017 399.4 305.257 399.651 305.428 399.928C305.609 400.195 305.7 400.467 305.7 400.744L305.22 400.776V395.16H306.868V407H305.22V405H305.54C305.54 405.256 305.454 405.512 305.284 405.768C305.113 406.013 304.884 406.243 304.596 406.456C304.318 406.669 303.993 406.84 303.62 406.968C303.257 407.096 302.884 407.16 302.5 407.16ZM302.724 405.736C303.225 405.736 303.668 405.608 304.052 405.352C304.436 405.096 304.734 404.749 304.948 404.312C305.172 403.864 305.284 403.357 305.284 402.792C305.284 402.227 305.172 401.725 304.948 401.288C304.734 400.84 304.436 400.488 304.052 400.232C303.668 399.976 303.225 399.848 302.724 399.848C302.222 399.848 301.78 399.976 301.396 400.232C301.012 400.488 300.708 400.84 300.484 401.288C300.27 401.725 300.164 402.227 300.164 402.792C300.164 403.357 300.27 403.864 300.484 404.312C300.708 404.749 301.012 405.096 301.396 405.352C301.78 405.608 302.222 405.736 302.724 405.736Z" fill="white"/>
</g>
<defs>
<clipPath id="clip0_1732_224062">
<rect width="377" height="760" fill="white"/>
</clipPath>
</defs>
</svg>
