<svg width="101" height="24" viewBox="0 0 101 24" fill="none" xmlns="http://www.w3.org/2000/svg">
<rect width="101" height="24" fill="#F3F2F3"/>
<rect width="375" height="808" transform="translate(-137 -40)" fill="white"/>
<g clip-path="url(#clip0_221_7147)">
<path fill-rule="evenodd" clip-rule="evenodd" d="M9.46207 7.79297C4.41082 9.85394 0.640426 14.5112 0 20.2391C0 21.613 0.685527 22.7907 1.89422 23.4866C3.10291 24.1736 4.48298 24.1736 5.68266 23.4866C9.37187 20.4086 11.1579 15.6443 10.3821 10.9335C10.2017 9.84501 9.88602 8.79223 9.46207 7.79297Z" fill="#3A37A6"/>
<path fill-rule="evenodd" clip-rule="evenodd" d="M10.387 10.9348C11.1627 15.6456 9.37672 20.4099 5.6875 23.488L12.9036 19.3661L20.1106 15.2531C21.3193 14.5571 22.0048 13.3794 22.0048 12.0055C22.0048 10.6226 21.3193 9.44487 20.1106 8.75788L16.5026 6.69692C14.0221 6.50956 11.6227 6.91996 9.46692 7.79431C9.89086 8.79357 10.2066 9.84636 10.387 10.9348Z" fill="#94A2F2"/>
<path fill-rule="evenodd" clip-rule="evenodd" d="M0 20.2409C0.640426 14.513 4.41082 9.85578 9.46208 7.79481C8.0369 4.51154 5.33989 1.87065 1.89422 0.523438C0.685527 1.21043 0 2.38812 0 3.77102V12.006V20.2409Z" fill="#AEBFF2"/>
<path fill-rule="evenodd" clip-rule="evenodd" d="M1.89062 0.523054C5.3363 1.87027 8.03331 4.51116 9.45848 7.79443C11.6143 6.92008 14.0136 6.50967 16.4942 6.69703L12.8951 4.63607L5.67906 0.523054C4.47939 -0.163935 3.09932 -0.163935 1.89062 0.523054Z" fill="#CEDEF2"/>
</g>
<path d="M36.112 18.16C35.3333 18.16 34.6187 18.0213 33.968 17.744C33.3173 17.4667 32.752 17.072 32.272 16.56C31.792 16.0373 31.4187 15.424 31.152 14.72C30.896 14.016 30.768 13.2427 30.768 12.4C30.768 11.6 30.9067 10.8587 31.184 10.176C31.472 9.48267 31.8667 8.87467 32.368 8.352C32.8693 7.82933 33.4507 7.424 34.112 7.136C34.7733 6.848 35.488 6.704 36.256 6.704C36.8 6.704 37.328 6.78933 37.84 6.96C38.3627 7.12 38.832 7.34933 39.248 7.648C39.6747 7.936 40.0213 8.26667 40.288 8.64L39.136 9.84C38.8267 9.53067 38.512 9.27467 38.192 9.072C37.8827 8.85867 37.5627 8.69867 37.232 8.592C36.912 8.48533 36.5867 8.432 36.256 8.432C35.7333 8.432 35.2427 8.53333 34.784 8.736C34.336 8.928 33.9413 9.2 33.6 9.552C33.2693 9.904 33.008 10.3253 32.816 10.816C32.624 11.296 32.528 11.824 32.528 12.4C32.528 13.008 32.6187 13.5627 32.8 14.064C32.992 14.5547 33.2587 14.976 33.6 15.328C33.9413 15.68 34.3467 15.952 34.816 16.144C35.296 16.3253 35.824 16.416 36.4 16.416C36.752 16.416 37.0987 16.368 37.44 16.272C37.7813 16.176 38.1013 16.0373 38.4 15.856C38.6987 15.6747 38.9707 15.4613 39.216 15.216L40.08 16.624C39.8347 16.912 39.4987 17.1733 39.072 17.408C38.656 17.6427 38.1867 17.8293 37.664 17.968C37.152 18.096 36.6347 18.16 36.112 18.16ZM41.2594 18L45.5954 6.8H47.3554L51.6594 18H49.8194L47.2594 11.248C47.2274 11.1733 47.1634 10.992 47.0674 10.704C46.982 10.416 46.8807 10.096 46.7634 9.744C46.646 9.392 46.5394 9.072 46.4434 8.784C46.3474 8.48533 46.2834 8.29333 46.2514 8.208L46.6194 8.192C46.5554 8.37333 46.4754 8.60267 46.3794 8.88C46.294 9.15733 46.198 9.45067 46.0914 9.76C45.9954 10.0693 45.8994 10.3627 45.8034 10.64C45.7074 10.9067 45.6274 11.1307 45.5634 11.312L43.0194 18H41.2594ZM43.1794 15.216L43.8194 13.552H48.9074L49.6434 15.216H43.1794ZM53.6305 18V6.8H55.1825L62.0305 15.968L61.7745 16.112C61.7318 15.8453 61.6945 15.5573 61.6625 15.248C61.6305 14.928 61.5985 14.592 61.5665 14.24C61.5452 13.8773 61.5238 13.4987 61.5025 13.104C61.4918 12.6987 61.4812 12.2773 61.4705 11.84C61.4598 11.4027 61.4545 10.9493 61.4545 10.48V6.8H63.1825V18H61.5985L54.8625 9.168L55.0385 8.944C55.0918 9.59467 55.1345 10.1493 55.1665 10.608C55.2092 11.056 55.2412 11.44 55.2625 11.76C55.2945 12.0693 55.3158 12.3253 55.3265 12.528C55.3372 12.72 55.3425 12.88 55.3425 13.008C55.3532 13.136 55.3585 13.248 55.3585 13.344V18H53.6305ZM66.318 18V6.8H70.702C71.502 6.8 72.222 6.93333 72.862 7.2C73.5127 7.46667 74.0673 7.85067 74.526 8.352C74.9847 8.85333 75.3367 9.44533 75.582 10.128C75.8273 10.8107 75.95 11.568 75.95 12.4C75.95 13.232 75.8273 13.9947 75.582 14.688C75.3367 15.3707 74.9847 15.9627 74.526 16.464C74.078 16.9547 73.5287 17.3333 72.878 17.6C72.2273 17.8667 71.502 18 70.702 18H66.318ZM68.046 16.512L67.998 16.336H70.622C71.1873 16.336 71.6887 16.2453 72.126 16.064C72.574 15.8827 72.9473 15.6267 73.246 15.296C73.5553 14.9547 73.79 14.5387 73.95 14.048C74.11 13.5573 74.19 13.008 74.19 12.4C74.19 11.792 74.11 11.248 73.95 10.768C73.79 10.2773 73.5553 9.86133 73.246 9.52C72.9367 9.17867 72.5633 8.91733 72.126 8.736C71.6887 8.55467 71.1873 8.464 70.622 8.464H67.95L68.046 8.32V16.512ZM82.9748 18.16C82.1854 18.16 81.4548 18.016 80.7828 17.728C80.1214 17.44 79.5401 17.04 79.0388 16.528C78.5481 16.0053 78.1641 15.3973 77.8868 14.704C77.6201 14 77.4868 13.232 77.4868 12.4C77.4868 11.568 77.6201 10.8053 77.8868 10.112C78.1641 9.408 78.5481 8.8 79.0388 8.288C79.5401 7.76533 80.1214 7.36 80.7828 7.072C81.4548 6.784 82.1854 6.64 82.9748 6.64C83.7641 6.64 84.4894 6.784 85.1508 7.072C85.8228 7.36 86.4041 7.76533 86.8948 8.288C87.3961 8.81067 87.7801 9.424 88.0468 10.128C88.3241 10.8213 88.4628 11.5787 88.4628 12.4C88.4628 13.2213 88.3241 13.984 88.0468 14.688C87.7801 15.3813 87.3961 15.9893 86.8948 16.512C86.4041 17.0347 85.8228 17.44 85.1508 17.728C84.4894 18.016 83.7641 18.16 82.9748 18.16ZM82.9748 16.48C83.5188 16.48 84.0148 16.3787 84.4628 16.176C84.9214 15.9733 85.3161 15.6907 85.6468 15.328C85.9774 14.9547 86.2334 14.5227 86.4148 14.032C86.6068 13.5307 86.7028 12.9867 86.7028 12.4C86.7028 11.8133 86.6068 11.2747 86.4148 10.784C86.2334 10.2827 85.9774 9.85067 85.6468 9.488C85.3161 9.11467 84.9214 8.82667 84.4628 8.624C84.0148 8.42133 83.5188 8.32 82.9748 8.32C82.4308 8.32 81.9294 8.42133 81.4708 8.624C81.0228 8.82667 80.6281 9.10933 80.2868 9.472C79.9561 9.83467 79.7001 10.2667 79.5188 10.768C79.3374 11.2587 79.2468 11.8027 79.2468 12.4C79.2468 12.9867 79.3374 13.5307 79.5188 14.032C79.7001 14.5333 79.9561 14.9653 80.2868 15.328C80.6281 15.6907 81.0228 15.9733 81.4708 16.176C81.9294 16.3787 82.4308 16.48 82.9748 16.48ZM90.8024 18V6.8H95.5704C96.2104 6.8 96.797 6.96 97.3304 7.28C97.8744 7.58933 98.3064 8.016 98.6264 8.56C98.9464 9.09333 99.1064 9.696 99.1064 10.368C99.1064 10.976 98.9464 11.5413 98.6264 12.064C98.3064 12.5867 97.8797 13.008 97.3464 13.328C96.813 13.6373 96.221 13.792 95.5704 13.792H92.5304V18H90.8024ZM97.4584 18L94.6104 12.944L96.3864 12.544L99.5544 18.016L97.4584 18ZM92.5304 12.128H95.7304C96.0397 12.128 96.317 12.0533 96.5624 11.904C96.8077 11.744 96.9997 11.5307 97.1384 11.264C97.277 10.9867 97.3464 10.6827 97.3464 10.352C97.3464 9.97867 97.2557 9.65333 97.0744 9.376C96.9037 9.088 96.6584 8.864 96.3384 8.704C96.029 8.544 95.677 8.464 95.2824 8.464H92.5304V12.128Z" fill="#3A37A6"/>
<defs>
<clipPath id="clip0_221_7147">
<rect width="22" height="24" fill="white"/>
</clipPath>
</defs>
</svg>
