<svg width="377" height="760" viewBox="0 0 377 760" fill="none" xmlns="http://www.w3.org/2000/svg">
<g clip-path="url(#clip0_1719_232033)">
<path d="M371.108 120.177H370.399V45.0832C370.399 39.1625 369.232 33.2998 366.964 27.8298C364.695 22.3598 361.371 17.3897 357.18 13.2033C352.99 9.0169 348.014 5.69617 342.539 3.43074C337.064 1.1653 331.195 -0.000464741 325.269 1.38982e-07H51.7312C39.7635 0.00093891 28.2863 4.75118 19.8242 13.2058C11.362 21.6604 6.60813 33.127 6.60813 45.0832V120.177H5.89948C5.12495 120.176 4.35777 120.327 3.64184 120.622C2.92591 120.917 2.27531 121.351 1.72731 121.898C1.1793 122.444 0.744656 123.094 0.448258 123.809C0.151859 124.524 -0.000466212 125.29 1.07185e-06 126.064V178.007C-0.000464731 178.78 0.151632 179.546 0.447587 180.26C0.743543 180.975 1.17756 181.624 1.72481 182.171C2.27206 182.717 2.92181 183.151 3.63692 183.447C4.35203 183.742 5.11847 183.894 5.8924 183.894H6.60105V196.283H5.8924C5.11847 196.283 4.35203 196.435 3.63692 196.73C2.92181 197.026 2.27206 197.46 1.72481 198.006C1.17756 198.553 0.743543 199.202 0.447587 199.917C0.151632 200.631 -0.000464731 201.397 1.07185e-06 202.17V254.113C-0.000464731 254.886 0.151632 255.652 0.447587 256.367C0.743543 257.081 1.17756 257.73 1.72481 258.277C2.27206 258.824 2.92181 259.257 3.63692 259.553C4.35203 259.849 5.11847 260 5.8924 260H6.60105V714.917C6.60105 720.837 7.76839 726.7 10.0364 732.17C12.3045 737.64 15.6288 742.61 19.8196 746.797C24.0103 750.983 28.9855 754.304 34.4609 756.569C39.9363 758.835 45.8048 760 51.7312 760H325.269C337.237 760 348.715 755.25 357.178 746.795C365.641 738.341 370.395 726.874 370.395 714.917V215.752H371.104C371.878 215.753 372.645 215.601 373.36 215.305C374.075 215.01 374.725 214.576 375.273 214.029C375.82 213.483 376.255 212.833 376.551 212.119C376.847 211.405 377 210.639 377 209.865V126.064C377 124.502 376.379 123.005 375.274 121.901C374.169 120.797 372.67 120.177 371.108 120.177Z" fill="#262626"/>
<path d="M320.405 11H56.5946C36.384 11 20 27.378 20 47.5812V711.419C20 731.622 36.384 748 56.5946 748H320.405C340.616 748 357 731.622 357 711.419V47.5812C357 27.378 340.616 11 320.405 11Z" fill="white"/>
<path d="M163.323 374L170.369 355.8H173.229L180.223 374H177.233L173.073 363.028C173.021 362.907 172.917 362.612 172.761 362.144C172.622 361.676 172.458 361.156 172.267 360.584C172.076 360.012 171.903 359.492 171.747 359.024C171.591 358.539 171.487 358.227 171.435 358.088L172.033 358.062C171.929 358.357 171.799 358.729 171.643 359.18C171.504 359.631 171.348 360.107 171.175 360.61C171.019 361.113 170.863 361.589 170.707 362.04C170.551 362.473 170.421 362.837 170.317 363.132L166.183 374H163.323ZM166.443 369.476L167.483 366.772H175.751L176.947 369.476H166.443ZM187.936 374.26C186.688 374.26 185.57 373.957 184.582 373.35C183.611 372.726 182.84 371.885 182.268 370.828C181.696 369.753 181.41 368.531 181.41 367.162C181.41 365.793 181.687 364.579 182.242 363.522C182.814 362.447 183.585 361.607 184.556 361C185.527 360.376 186.627 360.064 187.858 360.064C188.534 360.064 189.184 360.177 189.808 360.402C190.449 360.61 191.021 360.905 191.524 361.286C192.027 361.65 192.417 362.057 192.694 362.508C192.989 362.941 193.136 363.383 193.136 363.834L192.356 363.886V354.76H195.034V374H192.356V370.75H192.876C192.876 371.166 192.737 371.582 192.46 371.998C192.183 372.397 191.81 372.769 191.342 373.116C190.891 373.463 190.363 373.74 189.756 373.948C189.167 374.156 188.56 374.26 187.936 374.26ZM188.3 371.946C189.115 371.946 189.834 371.738 190.458 371.322C191.082 370.906 191.567 370.343 191.914 369.632C192.278 368.904 192.46 368.081 192.46 367.162C192.46 366.243 192.278 365.429 191.914 364.718C191.567 363.99 191.082 363.418 190.458 363.002C189.834 362.586 189.115 362.378 188.3 362.378C187.485 362.378 186.766 362.586 186.142 363.002C185.518 363.418 185.024 363.99 184.66 364.718C184.313 365.429 184.14 366.243 184.14 367.162C184.14 368.081 184.313 368.904 184.66 369.632C185.024 370.343 185.518 370.906 186.142 371.322C186.766 371.738 187.485 371.946 188.3 371.946ZM204.415 374.26C203.167 374.26 202.049 373.957 201.061 373.35C200.09 372.726 199.319 371.885 198.747 370.828C198.175 369.753 197.889 368.531 197.889 367.162C197.889 365.793 198.166 364.579 198.721 363.522C199.293 362.447 200.064 361.607 201.035 361C202.005 360.376 203.106 360.064 204.337 360.064C205.013 360.064 205.663 360.177 206.287 360.402C206.928 360.61 207.5 360.905 208.003 361.286C208.505 361.65 208.895 362.057 209.173 362.508C209.467 362.941 209.615 363.383 209.615 363.834L208.835 363.886V354.76H211.513V374H208.835V370.75H209.355C209.355 371.166 209.216 371.582 208.939 371.998C208.661 372.397 208.289 372.769 207.821 373.116C207.37 373.463 206.841 373.74 206.235 373.948C205.645 374.156 205.039 374.26 204.415 374.26ZM204.779 371.946C205.593 371.946 206.313 371.738 206.937 371.322C207.561 370.906 208.046 370.343 208.393 369.632C208.757 368.904 208.939 368.081 208.939 367.162C208.939 366.243 208.757 365.429 208.393 364.718C208.046 363.99 207.561 363.418 206.937 363.002C206.313 362.586 205.593 362.378 204.779 362.378C203.964 362.378 203.245 362.586 202.621 363.002C201.997 363.418 201.503 363.99 201.139 364.718C200.792 365.429 200.619 366.243 200.619 367.162C200.619 368.081 200.792 368.904 201.139 369.632C201.503 370.343 201.997 370.906 202.621 371.322C203.245 371.738 203.964 371.946 204.779 371.946ZM93.5559 407L87.7839 393.35H90.6699L94.8299 403.568L94.3359 403.802L98.7819 393.35H101.538L95.4799 407H93.5559ZM104.43 407V393.35H107.108V407H104.43ZM105.73 390.334C105.158 390.334 104.716 390.187 104.404 389.892C104.092 389.597 103.936 389.181 103.936 388.644C103.936 388.141 104.092 387.734 104.404 387.422C104.734 387.11 105.176 386.954 105.73 386.954C106.302 386.954 106.744 387.101 107.056 387.396C107.368 387.691 107.524 388.107 107.524 388.644C107.524 389.147 107.36 389.554 107.03 389.866C106.718 390.178 106.285 390.334 105.73 390.334ZM116.919 407.26C115.671 407.26 114.553 406.957 113.565 406.35C112.594 405.726 111.823 404.885 111.251 403.828C110.679 402.753 110.393 401.531 110.393 400.162C110.393 398.793 110.67 397.579 111.225 396.522C111.797 395.447 112.568 394.607 113.539 394C114.509 393.376 115.61 393.064 116.841 393.064C117.517 393.064 118.167 393.177 118.791 393.402C119.432 393.61 120.004 393.905 120.507 394.286C121.009 394.65 121.399 395.057 121.677 395.508C121.971 395.941 122.119 396.383 122.119 396.834L121.339 396.886V387.76H124.017V407H121.339V403.75H121.859C121.859 404.166 121.72 404.582 121.443 404.998C121.165 405.397 120.793 405.769 120.325 406.116C119.874 406.463 119.345 406.74 118.739 406.948C118.149 407.156 117.543 407.26 116.919 407.26ZM117.283 404.946C118.097 404.946 118.817 404.738 119.441 404.322C120.065 403.906 120.55 403.343 120.897 402.632C121.261 401.904 121.443 401.081 121.443 400.162C121.443 399.243 121.261 398.429 120.897 397.718C120.55 396.99 120.065 396.418 119.441 396.002C118.817 395.586 118.097 395.378 117.283 395.378C116.468 395.378 115.749 395.586 115.125 396.002C114.501 396.418 114.007 396.99 113.643 397.718C113.296 398.429 113.123 399.243 113.123 400.162C113.123 401.081 113.296 401.904 113.643 402.632C114.007 403.343 114.501 403.906 115.125 404.322C115.749 404.738 116.468 404.946 117.283 404.946ZM134.073 407.26C132.669 407.26 131.421 406.965 130.329 406.376C129.254 405.769 128.405 404.946 127.781 403.906C127.174 402.866 126.871 401.67 126.871 400.318C126.871 399.243 127.044 398.264 127.391 397.38C127.738 396.496 128.214 395.733 128.821 395.092C129.445 394.433 130.182 393.931 131.031 393.584C131.898 393.22 132.834 393.038 133.839 393.038C134.723 393.038 135.546 393.211 136.309 393.558C137.072 393.887 137.73 394.347 138.285 394.936C138.857 395.525 139.29 396.227 139.585 397.042C139.897 397.839 140.044 398.715 140.027 399.668L140.001 400.812H128.847L128.249 398.68H137.687L137.297 399.122V398.498C137.245 397.926 137.054 397.415 136.725 396.964C136.396 396.513 135.98 396.158 135.477 395.898C134.974 395.638 134.428 395.508 133.839 395.508C132.903 395.508 132.114 395.69 131.473 396.054C130.832 396.401 130.346 396.921 130.017 397.614C129.688 398.29 129.523 399.131 129.523 400.136C129.523 401.089 129.722 401.921 130.121 402.632C130.52 403.325 131.083 403.863 131.811 404.244C132.539 404.625 133.38 404.816 134.333 404.816C135.009 404.816 135.633 404.703 136.205 404.478C136.794 404.253 137.427 403.845 138.103 403.256L139.455 405.154C139.039 405.57 138.528 405.934 137.921 406.246C137.332 406.558 136.699 406.809 136.023 407C135.364 407.173 134.714 407.26 134.073 407.26ZM149.073 407.26C147.739 407.26 146.543 406.957 145.485 406.35C144.445 405.726 143.622 404.885 143.015 403.828C142.409 402.753 142.105 401.531 142.105 400.162C142.105 398.793 142.409 397.579 143.015 396.522C143.622 395.447 144.445 394.607 145.485 394C146.543 393.376 147.739 393.064 149.073 393.064C150.391 393.064 151.569 393.376 152.609 394C153.667 394.607 154.499 395.447 155.105 396.522C155.712 397.579 156.015 398.793 156.015 400.162C156.015 401.531 155.712 402.753 155.105 403.828C154.499 404.885 153.667 405.726 152.609 406.35C151.569 406.957 150.391 407.26 149.073 407.26ZM149.073 404.816C149.888 404.816 150.616 404.617 151.257 404.218C151.899 403.802 152.401 403.247 152.765 402.554C153.129 401.843 153.303 401.046 153.285 400.162C153.303 399.261 153.129 398.463 152.765 397.77C152.401 397.059 151.899 396.505 151.257 396.106C150.616 395.707 149.888 395.508 149.073 395.508C148.259 395.508 147.522 395.716 146.863 396.132C146.222 396.531 145.719 397.085 145.355 397.796C144.991 398.489 144.818 399.278 144.835 400.162C144.818 401.046 144.991 401.843 145.355 402.554C145.719 403.247 146.222 403.802 146.863 404.218C147.522 404.617 148.259 404.816 149.073 404.816ZM167.911 407V389.866H170.589V407H167.911ZM165.077 395.95V393.35H173.761V395.95H165.077ZM182.208 407.26C180.874 407.26 179.678 406.957 178.62 406.35C177.58 405.726 176.757 404.885 176.15 403.828C175.544 402.753 175.24 401.531 175.24 400.162C175.24 398.793 175.544 397.579 176.15 396.522C176.757 395.447 177.58 394.607 178.62 394C179.678 393.376 180.874 393.064 182.208 393.064C183.526 393.064 184.704 393.376 185.744 394C186.802 394.607 187.634 395.447 188.24 396.522C188.847 397.579 189.15 398.793 189.15 400.162C189.15 401.531 188.847 402.753 188.24 403.828C187.634 404.885 186.802 405.726 185.744 406.35C184.704 406.957 183.526 407.26 182.208 407.26ZM182.208 404.816C183.023 404.816 183.751 404.617 184.392 404.218C185.034 403.802 185.536 403.247 185.9 402.554C186.264 401.843 186.438 401.046 186.42 400.162C186.438 399.261 186.264 398.463 185.9 397.77C185.536 397.059 185.034 396.505 184.392 396.106C183.751 395.707 183.023 395.508 182.208 395.508C181.394 395.508 180.657 395.716 179.998 396.132C179.357 396.531 178.854 397.085 178.49 397.796C178.126 398.489 177.953 399.278 177.97 400.162C177.953 401.046 178.126 401.843 178.49 402.554C178.854 403.247 179.357 403.802 179.998 404.218C180.657 404.617 181.394 404.816 182.208 404.816ZM203.905 407.26C202.761 407.26 201.73 407.061 200.811 406.662C199.893 406.263 199.13 405.674 198.523 404.894L200.343 403.334C200.863 403.941 201.427 404.383 202.033 404.66C202.657 404.92 203.359 405.05 204.139 405.05C204.451 405.05 204.737 405.015 204.997 404.946C205.275 404.859 205.509 404.738 205.699 404.582C205.907 404.426 206.063 404.244 206.167 404.036C206.271 403.811 206.323 403.568 206.323 403.308C206.323 402.857 206.159 402.493 205.829 402.216C205.656 402.095 205.379 401.965 204.997 401.826C204.633 401.67 204.157 401.514 203.567 401.358C202.562 401.098 201.739 400.803 201.097 400.474C200.456 400.145 199.962 399.772 199.615 399.356C199.355 399.027 199.165 398.671 199.043 398.29C198.922 397.891 198.861 397.458 198.861 396.99C198.861 396.418 198.983 395.898 199.225 395.43C199.485 394.945 199.832 394.529 200.265 394.182C200.716 393.818 201.236 393.541 201.825 393.35C202.432 393.159 203.073 393.064 203.749 393.064C204.391 393.064 205.023 393.151 205.647 393.324C206.289 393.497 206.878 393.749 207.415 394.078C207.953 394.407 208.403 394.797 208.767 395.248L207.233 396.938C206.904 396.609 206.54 396.323 206.141 396.08C205.76 395.82 205.37 395.621 204.971 395.482C204.573 395.343 204.209 395.274 203.879 395.274C203.515 395.274 203.186 395.309 202.891 395.378C202.597 395.447 202.345 395.551 202.137 395.69C201.947 395.829 201.799 396.002 201.695 396.21C201.591 396.418 201.539 396.652 201.539 396.912C201.557 397.137 201.609 397.354 201.695 397.562C201.799 397.753 201.938 397.917 202.111 398.056C202.302 398.195 202.588 398.342 202.969 398.498C203.351 398.654 203.836 398.801 204.425 398.94C205.292 399.165 206.003 399.417 206.557 399.694C207.129 399.954 207.58 400.257 207.909 400.604C208.256 400.933 208.499 401.315 208.637 401.748C208.776 402.181 208.845 402.667 208.845 403.204C208.845 403.984 208.62 404.686 208.169 405.31C207.736 405.917 207.147 406.393 206.401 406.74C205.656 407.087 204.824 407.26 203.905 407.26ZM213.487 407V389.866H216.165V407H213.487ZM210.653 395.95V393.35H219.337V395.95H210.653ZM226.9 407.26C225.774 407.26 224.742 406.948 223.806 406.324C222.888 405.7 222.151 404.851 221.596 403.776C221.042 402.701 220.764 401.488 220.764 400.136C220.764 398.767 221.042 397.553 221.596 396.496C222.168 395.421 222.931 394.581 223.884 393.974C224.855 393.367 225.938 393.064 227.134 393.064C227.845 393.064 228.495 393.168 229.084 393.376C229.674 393.584 230.185 393.879 230.618 394.26C231.069 394.624 231.433 395.049 231.71 395.534C232.005 396.019 232.187 396.539 232.256 397.094L231.658 396.886V393.35H234.362V407H231.658V403.75L232.282 403.568C232.178 404.036 231.962 404.495 231.632 404.946C231.32 405.379 230.913 405.769 230.41 406.116C229.925 406.463 229.379 406.74 228.772 406.948C228.183 407.156 227.559 407.26 226.9 407.26ZM227.602 404.79C228.417 404.79 229.136 404.591 229.76 404.192C230.384 403.793 230.87 403.247 231.216 402.554C231.58 401.843 231.762 401.037 231.762 400.136C231.762 399.252 231.58 398.463 231.216 397.77C230.87 397.077 230.384 396.531 229.76 396.132C229.136 395.733 228.417 395.534 227.602 395.534C226.805 395.534 226.094 395.733 225.47 396.132C224.864 396.531 224.378 397.077 224.014 397.77C223.668 398.463 223.494 399.252 223.494 400.136C223.494 401.037 223.668 401.843 224.014 402.554C224.378 403.247 224.864 403.793 225.47 404.192C226.094 404.591 226.805 404.79 227.602 404.79ZM238.101 407V393.35H240.805V397.64L240.545 396.6C240.736 395.941 241.057 395.343 241.507 394.806C241.975 394.269 242.504 393.844 243.093 393.532C243.7 393.22 244.324 393.064 244.965 393.064C245.26 393.064 245.537 393.09 245.797 393.142C246.075 393.194 246.291 393.255 246.447 393.324L245.745 396.236C245.537 396.149 245.303 396.08 245.043 396.028C244.801 395.959 244.558 395.924 244.315 395.924C243.847 395.924 243.397 396.019 242.963 396.21C242.547 396.383 242.175 396.635 241.845 396.964C241.533 397.276 241.282 397.649 241.091 398.082C240.901 398.498 240.805 398.957 240.805 399.46V407H238.101ZM250.786 407V389.866H253.464V407H250.786ZM247.952 395.95V393.35H256.636V395.95H247.952ZM265.317 407.26C263.913 407.26 262.665 406.965 261.573 406.376C260.499 405.769 259.649 404.946 259.025 403.906C258.419 402.866 258.115 401.67 258.115 400.318C258.115 399.243 258.289 398.264 258.635 397.38C258.982 396.496 259.459 395.733 260.065 395.092C260.689 394.433 261.426 393.931 262.275 393.584C263.142 393.22 264.078 393.038 265.083 393.038C265.967 393.038 266.791 393.211 267.553 393.558C268.316 393.887 268.975 394.347 269.529 394.936C270.101 395.525 270.535 396.227 270.829 397.042C271.141 397.839 271.289 398.715 271.271 399.668L271.245 400.812H260.091L259.493 398.68H268.931L268.541 399.122V398.498C268.489 397.926 268.299 397.415 267.969 396.964C267.64 396.513 267.224 396.158 266.721 395.898C266.219 395.638 265.673 395.508 265.083 395.508C264.147 395.508 263.359 395.69 262.717 396.054C262.076 396.401 261.591 396.921 261.261 397.614C260.932 398.29 260.767 399.131 260.767 400.136C260.767 401.089 260.967 401.921 261.365 402.632C261.764 403.325 262.327 403.863 263.055 404.244C263.783 404.625 264.624 404.816 265.577 404.816C266.253 404.816 266.877 404.703 267.449 404.478C268.039 404.253 268.671 403.845 269.347 403.256L270.699 405.154C270.283 405.57 269.772 405.934 269.165 406.246C268.576 406.558 267.943 406.809 267.267 407C266.609 407.173 265.959 407.26 265.317 407.26ZM279.876 407.26C278.628 407.26 277.51 406.957 276.522 406.35C275.551 405.726 274.78 404.885 274.208 403.828C273.636 402.753 273.35 401.531 273.35 400.162C273.35 398.793 273.627 397.579 274.182 396.522C274.754 395.447 275.525 394.607 276.496 394C277.466 393.376 278.567 393.064 279.798 393.064C280.474 393.064 281.124 393.177 281.748 393.402C282.389 393.61 282.961 393.905 283.464 394.286C283.966 394.65 284.356 395.057 284.634 395.508C284.928 395.941 285.076 396.383 285.076 396.834L284.296 396.886V387.76H286.974V407H284.296V403.75H284.816C284.816 404.166 284.677 404.582 284.4 404.998C284.122 405.397 283.75 405.769 283.282 406.116C282.831 406.463 282.302 406.74 281.696 406.948C281.106 407.156 280.5 407.26 279.876 407.26ZM280.24 404.946C281.054 404.946 281.774 404.738 282.398 404.322C283.022 403.906 283.507 403.343 283.854 402.632C284.218 401.904 284.4 401.081 284.4 400.162C284.4 399.243 284.218 398.429 283.854 397.718C283.507 396.99 283.022 396.418 282.398 396.002C281.774 395.586 281.054 395.378 280.24 395.378C279.425 395.378 278.706 395.586 278.082 396.002C277.458 396.418 276.964 396.99 276.6 397.718C276.253 398.429 276.08 399.243 276.08 400.162C276.08 401.081 276.253 401.904 276.6 402.632C276.964 403.343 277.458 403.906 278.082 404.322C278.706 404.738 279.425 404.946 280.24 404.946Z" fill="#3A37A6"/>
</g>
<defs>
<clipPath id="clip0_1719_232033">
<rect width="377" height="760" fill="white"/>
</clipPath>
</defs>
</svg>
