<svg width="18" height="18" viewBox="0 0 18 18" fill="none" xmlns="http://www.w3.org/2000/svg">
<path d="M14.25 6.7489C14.25 7.8364 13.9275 8.83391 13.3725 9.66641C12.5625 10.8664 11.28 11.7139 9.7875 11.9314C9.5325 11.9764 9.27 11.9989 9 11.9989C8.73 11.9989 8.4675 11.9764 8.2125 11.9314C6.72 11.7139 5.4375 10.8664 4.6275 9.66641C4.0725 8.83391 3.75 7.8364 3.75 6.7489C3.75 3.8464 6.0975 1.4989 9 1.4989C11.9025 1.4989 14.25 3.8464 14.25 6.7489Z" stroke="#3A37A6" stroke-linecap="round" stroke-linejoin="round"/>
<path d="M15.9373 13.8518L14.6998 14.1443C14.4223 14.2118 14.2048 14.4218 14.1448 14.6993L13.8823 15.8018C13.7398 16.4018 12.9748 16.5818 12.5773 16.1093L8.99982 11.9993L5.42232 16.1168C5.02482 16.5893 4.25981 16.4093 4.11731 15.8093L3.85481 14.7068C3.78731 14.4293 3.56982 14.2118 3.29982 14.1518L2.06231 13.8593C1.49231 13.7243 1.28981 13.0118 1.70231 12.5993L4.62732 9.67432C5.43732 10.8743 6.71982 11.7218 8.21232 11.9393C8.46732 11.9843 8.72982 12.0068 8.99982 12.0068C9.26982 12.0068 9.53232 11.9843 9.78732 11.9393C11.2798 11.7218 12.5623 10.8743 13.3723 9.67432L16.2973 12.5993C16.7098 13.0043 16.5073 13.7168 15.9373 13.8518Z" stroke="#3A37A6" stroke-linecap="round" stroke-linejoin="round"/>
<path d="M9.43644 4.4861L9.87894 5.37109C9.93894 5.49109 10.0964 5.6111 10.2389 5.6336L11.0414 5.76859C11.5514 5.85109 11.6714 6.2261 11.3039 6.5936L10.6814 7.21609C10.5764 7.32109 10.5164 7.5236 10.5539 7.6736L10.7339 8.4461C10.8764 9.0536 10.5539 9.29358 10.0139 8.97108L9.26394 8.52859C9.12894 8.44609 8.90394 8.44609 8.76894 8.52859L8.01894 8.97108C7.47894 9.28608 7.15644 9.0536 7.29894 8.4461L7.47894 7.6736C7.50894 7.5311 7.45644 7.32109 7.35144 7.21609L6.72894 6.5936C6.36144 6.2261 6.48144 5.85859 6.99144 5.76859L7.79394 5.6336C7.92894 5.6111 8.08644 5.49109 8.14644 5.37109L8.58894 4.4861C8.80644 4.0061 9.19644 4.0061 9.43644 4.4861Z" stroke="#3A37A6" stroke-linecap="round" stroke-linejoin="round"/>
</svg>
