<svg width="216" height="150" viewBox="0 0 216 150" fill="none" xmlns="http://www.w3.org/2000/svg">
<rect width="216" height="150" rx="8" fill="#94A2F2"/>
<path d="M53.148 57V44.24H48.748V41.6H60.54V44.24H56.008V57H53.148ZM62.8613 57V40.72H65.5453V47.782L65.0393 48.046C65.186 47.518 65.472 47.0413 65.8973 46.616C66.3227 46.176 66.8287 45.824 67.4153 45.56C68.002 45.296 68.6033 45.164 69.2193 45.164C70.0993 45.164 70.8327 45.34 71.4193 45.692C72.0207 46.044 72.468 46.572 72.7613 47.276C73.0693 47.98 73.2233 48.86 73.2233 49.916V57H70.5173V50.114C70.5173 49.5273 70.4367 49.0433 70.2753 48.662C70.114 48.266 69.8647 47.98 69.5273 47.804C69.19 47.6133 68.7793 47.5253 68.2953 47.54C67.8993 47.54 67.5327 47.606 67.1953 47.738C66.8727 47.8553 66.5867 48.0313 66.3373 48.266C66.1027 48.486 65.912 48.7427 65.7653 49.036C65.6333 49.3293 65.5673 49.652 65.5673 50.004V57H64.2253C63.9613 57 63.712 57 63.4773 57C63.2573 57 63.052 57 62.8613 57ZM80.6456 57.22C79.6923 57.22 78.8269 56.956 78.0496 56.428C77.2723 55.9 76.6489 55.1813 76.1796 54.272C75.7103 53.3627 75.4756 52.3287 75.4756 51.17C75.4756 50.0113 75.7103 48.9773 76.1796 48.068C76.6489 47.1587 77.2869 46.4473 78.0936 45.934C78.9003 45.4207 79.8096 45.164 80.8216 45.164C81.4083 45.164 81.9436 45.252 82.4276 45.428C82.9116 45.5893 83.3369 45.824 83.7036 46.132C84.0703 46.44 84.3709 46.792 84.6056 47.188C84.8549 47.584 85.0236 48.0093 85.1116 48.464L84.5176 48.31V45.406H87.2456V57H84.4956V54.228L85.1336 54.118C85.0309 54.514 84.8403 54.9027 84.5616 55.284C84.2976 55.6507 83.9603 55.9807 83.5496 56.274C83.1536 56.5527 82.7063 56.78 82.2076 56.956C81.7236 57.132 81.2029 57.22 80.6456 57.22ZM81.3936 54.822C82.0243 54.822 82.5816 54.668 83.0656 54.36C83.5496 54.052 83.9236 53.6267 84.1876 53.084C84.4663 52.5267 84.6056 51.8887 84.6056 51.17C84.6056 50.466 84.4663 49.8427 84.1876 49.3C83.9236 48.7573 83.5496 48.332 83.0656 48.024C82.5816 47.716 82.0243 47.562 81.3936 47.562C80.7629 47.562 80.2056 47.716 79.7216 48.024C79.2523 48.332 78.8856 48.7573 78.6216 49.3C78.3576 49.8427 78.2256 50.466 78.2256 51.17C78.2256 51.8887 78.3576 52.5267 78.6216 53.084C78.8856 53.6267 79.2523 54.052 79.7216 54.36C80.2056 54.668 80.7629 54.822 81.3936 54.822ZM90.3828 57V45.406H93.0228L93.0668 47.782L92.5608 48.046C92.7075 47.518 92.9935 47.0413 93.4188 46.616C93.8442 46.176 94.3502 45.824 94.9368 45.56C95.5235 45.296 96.1248 45.164 96.7408 45.164C97.6208 45.164 98.3542 45.34 98.9408 45.692C99.5422 46.044 99.9895 46.572 100.283 47.276C100.591 47.98 100.745 48.86 100.745 49.916V57H98.0388V50.114C98.0388 49.5273 97.9582 49.0433 97.7968 48.662C97.6355 48.266 97.3862 47.98 97.0488 47.804C96.7115 47.6133 96.3008 47.5253 95.8168 47.54C95.4208 47.54 95.0542 47.606 94.7168 47.738C94.3942 47.8553 94.1082 48.0313 93.8588 48.266C93.6242 48.486 93.4335 48.7427 93.2868 49.036C93.1548 49.3293 93.0888 49.652 93.0888 50.004V57H91.7468C91.4828 57 91.2335 57 90.9988 57C90.7788 57 90.5735 57 90.3828 57ZM106.319 53.458L105.791 50.928L111.291 45.406H114.899L106.319 53.458ZM103.789 57V40.72H106.495V57H103.789ZM111.621 57L107.353 51.83L109.267 50.202L114.965 57H111.621ZM124.971 62.06L127.435 56.362L127.457 58.166L121.737 45.406H124.861L128.051 52.974C128.154 53.1647 128.256 53.4213 128.359 53.744C128.462 54.052 128.55 54.36 128.623 54.668L128.073 54.844C128.176 54.5653 128.286 54.272 128.403 53.964C128.52 53.6413 128.63 53.3113 128.733 52.974L131.461 45.406H134.607L129.767 57L127.787 62.06H124.971ZM141.382 57.22C140.223 57.22 139.189 56.9633 138.28 56.45C137.371 55.922 136.652 55.2033 136.124 54.294C135.596 53.3847 135.332 52.3507 135.332 51.192C135.332 50.0333 135.596 48.9993 136.124 48.09C136.652 47.1807 137.371 46.4693 138.28 45.956C139.189 45.428 140.223 45.164 141.382 45.164C142.526 45.164 143.553 45.428 144.462 45.956C145.371 46.4693 146.083 47.1807 146.596 48.09C147.124 48.9993 147.388 50.0333 147.388 51.192C147.388 52.3507 147.124 53.3847 146.596 54.294C146.083 55.2033 145.371 55.922 144.462 56.45C143.553 56.9633 142.526 57.22 141.382 57.22ZM141.382 54.822C142.013 54.822 142.57 54.6607 143.054 54.338C143.553 54.0153 143.941 53.5827 144.22 53.04C144.513 52.4973 144.653 51.8813 144.638 51.192C144.653 50.488 144.513 49.8647 144.22 49.322C143.941 48.7793 143.553 48.354 143.054 48.046C142.57 47.7233 142.013 47.562 141.382 47.562C140.751 47.562 140.179 47.7233 139.666 48.046C139.167 48.354 138.779 48.7867 138.5 49.344C138.221 49.8867 138.082 50.5027 138.082 51.192C138.082 51.8813 138.221 52.4973 138.5 53.04C138.779 53.5827 139.167 54.0153 139.666 54.338C140.179 54.6607 140.751 54.822 141.382 54.822ZM153.835 57.22C152.999 57.22 152.273 57.0367 151.657 56.67C151.041 56.2887 150.571 55.7533 150.249 55.064C149.926 54.36 149.765 53.524 149.765 52.556V45.406H152.471V51.984C152.471 52.6 152.566 53.128 152.757 53.568C152.947 53.9933 153.226 54.3233 153.593 54.558C153.959 54.7927 154.399 54.91 154.913 54.91C155.294 54.91 155.639 54.8513 155.947 54.734C156.269 54.602 156.548 54.426 156.783 54.206C157.017 53.9713 157.201 53.7 157.333 53.392C157.465 53.0693 157.531 52.7247 157.531 52.358V45.406H160.237V57H157.597L157.553 54.58L158.037 54.316C157.861 54.8733 157.56 55.372 157.135 55.812C156.724 56.2373 156.233 56.582 155.661 56.846C155.089 57.0953 154.48 57.22 153.835 57.22ZM163.87 51.588C163.768 50.6787 163.665 49.74 163.562 48.772C163.474 47.7893 163.401 46.8213 163.342 45.868C163.284 44.9 163.254 43.9833 163.254 43.118V41.512H166.114V43.118C166.114 44.0127 166.085 44.9513 166.026 45.934C165.982 46.9167 165.909 47.892 165.806 48.86C165.718 49.828 165.616 50.7373 165.498 51.588H163.87ZM164.64 57.242C164.112 57.242 163.702 57.088 163.408 56.78C163.13 56.472 162.99 56.0393 162.99 55.482C162.99 54.9687 163.137 54.5507 163.43 54.228C163.738 53.8907 164.142 53.722 164.64 53.722C165.168 53.722 165.572 53.876 165.85 54.184C166.144 54.4773 166.29 54.91 166.29 55.482C166.29 55.9953 166.136 56.4207 165.828 56.758C165.535 57.0807 165.139 57.242 164.64 57.242Z" fill="white"/>
<path d="M38.0604 91V85.416L38.1724 86.2L33.6444 79.8H35.7244L39.1804 84.76L38.7804 84.712L41.9004 79.8H43.8844L39.5484 86.376L39.7884 85.288V91H38.0604ZM47.6936 91.16C46.8723 91.16 46.1363 90.9733 45.4856 90.6C44.8456 90.216 44.339 89.6987 43.9656 89.048C43.5923 88.3867 43.4056 87.6347 43.4056 86.792C43.4056 85.9493 43.5923 85.2027 43.9656 84.552C44.339 83.8907 44.8456 83.3733 45.4856 83C46.1363 82.616 46.8723 82.424 47.6936 82.424C48.5043 82.424 49.2296 82.616 49.8696 83C50.5203 83.3733 51.0323 83.8907 51.4056 84.552C51.779 85.2027 51.9656 85.9493 51.9656 86.792C51.9656 87.6347 51.779 88.3867 51.4056 89.048C51.0323 89.6987 50.5203 90.216 49.8696 90.6C49.2296 90.9733 48.5043 91.16 47.6936 91.16ZM47.6936 89.656C48.195 89.656 48.643 89.5333 49.0376 89.288C49.4323 89.032 49.7416 88.6907 49.9656 88.264C50.1896 87.8267 50.2963 87.336 50.2856 86.792C50.2963 86.2373 50.1896 85.7467 49.9656 85.32C49.7416 84.8827 49.4323 84.5413 49.0376 84.296C48.643 84.0507 48.195 83.928 47.6936 83.928C47.1923 83.928 46.739 84.056 46.3336 84.312C45.939 84.5573 45.6296 84.8987 45.4056 85.336C45.1816 85.7627 45.075 86.248 45.0856 86.792C45.075 87.336 45.1816 87.8267 45.4056 88.264C45.6296 88.6907 45.939 89.032 46.3336 89.288C46.739 89.5333 47.1923 89.656 47.6936 89.656ZM56.7054 91.16C56.108 91.16 55.5854 91.0213 55.1374 90.744C54.7 90.4667 54.3587 90.0773 54.1134 89.576C53.8787 89.0747 53.7614 88.4773 53.7614 87.784V82.6H55.4094V87.336C55.4094 87.8267 55.484 88.2533 55.6334 88.616C55.7934 88.968 56.0174 89.24 56.3054 89.432C56.604 89.624 56.9614 89.72 57.3774 89.72C57.6867 89.72 57.9694 89.672 58.2254 89.576C58.4814 89.4693 58.7 89.3253 58.8814 89.144C59.0734 88.9627 59.2227 88.744 59.3294 88.488C59.436 88.232 59.4894 87.9547 59.4894 87.656V82.6H61.1374V91H59.4894V89.24L59.7774 89.048C59.6494 89.4427 59.4307 89.8 59.1214 90.12C58.8227 90.44 58.4654 90.696 58.0494 90.888C57.6334 91.0693 57.1854 91.16 56.7054 91.16ZM63.4489 91V82.6H65.1129V85.24L64.9529 84.6C65.0702 84.1947 65.2675 83.8267 65.5449 83.496C65.8329 83.1653 66.1582 82.904 66.5209 82.712C66.8942 82.52 67.2782 82.424 67.6729 82.424C67.8542 82.424 68.0249 82.44 68.1849 82.472C68.3555 82.504 68.4889 82.5413 68.5849 82.584L68.1529 84.376C68.0249 84.3227 67.8809 84.28 67.7209 84.248C67.5715 84.2053 67.4222 84.184 67.2729 84.184C66.9849 84.184 66.7075 84.2427 66.4409 84.36C66.1849 84.4667 65.9555 84.6213 65.7529 84.824C65.5609 85.016 65.4062 85.2453 65.2889 85.512C65.1715 85.768 65.1129 86.0507 65.1129 86.36V91H63.4489ZM74.3864 91V79.16H76.0344V84.328L75.7464 84.52C75.853 84.1467 76.061 83.8053 76.3704 83.496C76.6797 83.176 77.0477 82.92 77.4744 82.728C77.901 82.5253 78.3384 82.424 78.7864 82.424C79.4264 82.424 79.9597 82.552 80.3864 82.808C80.813 83.0533 81.133 83.432 81.3464 83.944C81.5597 84.456 81.6664 85.1013 81.6664 85.88V91H80.0184V85.992C80.0184 85.512 79.9544 85.1173 79.8264 84.808C79.6984 84.488 79.501 84.2587 79.2344 84.12C78.9677 83.9707 78.637 83.9067 78.2424 83.928C77.9224 83.928 77.629 83.9813 77.3624 84.088C77.0957 84.184 76.861 84.3227 76.6584 84.504C76.4664 84.6853 76.3117 84.8987 76.1944 85.144C76.0877 85.3787 76.0344 85.6347 76.0344 85.912V91H75.2184C75.0797 91 74.941 91 74.8024 91C74.6637 91 74.525 91 74.3864 91ZM87.822 91.16C86.958 91.16 86.19 90.9787 85.518 90.616C84.8567 90.2427 84.334 89.736 83.95 89.096C83.5767 88.456 83.39 87.72 83.39 86.888C83.39 86.2267 83.4967 85.624 83.71 85.08C83.9233 84.536 84.2167 84.0667 84.59 83.672C84.974 83.2667 85.4273 82.9573 85.95 82.744C86.4833 82.52 87.0593 82.408 87.678 82.408C88.222 82.408 88.7287 82.5147 89.198 82.728C89.6673 82.9307 90.0727 83.2133 90.414 83.576C90.766 83.9387 91.0327 84.3707 91.214 84.872C91.406 85.3627 91.4967 85.9013 91.486 86.488L91.47 87.192H84.606L84.238 85.88H90.046L89.806 86.152V85.768C89.774 85.416 89.6567 85.1013 89.454 84.824C89.2513 84.5467 88.9953 84.328 88.686 84.168C88.3767 84.008 88.0407 83.928 87.678 83.928C87.102 83.928 86.6167 84.04 86.222 84.264C85.8273 84.4773 85.5287 84.7973 85.326 85.224C85.1233 85.64 85.022 86.1573 85.022 86.776C85.022 87.3627 85.1447 87.8747 85.39 88.312C85.6353 88.7387 85.982 89.0693 86.43 89.304C86.878 89.5387 87.3953 89.656 87.982 89.656C88.398 89.656 88.782 89.5867 89.134 89.448C89.4967 89.3093 89.886 89.0587 90.302 88.696L91.134 89.864C90.878 90.12 90.5633 90.344 90.19 90.536C89.8273 90.728 89.438 90.8827 89.022 91C88.6167 91.1067 88.2167 91.16 87.822 91.16ZM93.309 91V79.16H94.957V91H93.309ZM97.2926 94.52V82.6H98.9566V84.52L98.7006 84.376C98.7646 84.056 98.946 83.752 99.2446 83.464C99.5433 83.1653 99.906 82.9253 100.333 82.744C100.77 82.552 101.218 82.456 101.677 82.456C102.434 82.456 103.106 82.6427 103.693 83.016C104.279 83.3893 104.743 83.9013 105.085 84.552C105.426 85.2027 105.597 85.9493 105.597 86.792C105.597 87.624 105.426 88.3707 105.085 89.032C104.754 89.6827 104.295 90.2 103.709 90.584C103.122 90.9573 102.461 91.144 101.725 91.144C101.234 91.144 100.759 91.048 100.301 90.856C99.842 90.6533 99.4526 90.3973 99.1326 90.088C98.8126 89.7787 98.6153 89.4587 98.5406 89.128L98.9566 88.904V94.52H97.2926ZM101.453 89.624C101.943 89.624 102.381 89.5013 102.765 89.256C103.149 89.0107 103.453 88.6747 103.677 88.248C103.901 87.8213 104.013 87.336 104.013 86.792C104.013 86.248 103.901 85.768 103.677 85.352C103.463 84.9253 103.165 84.5893 102.781 84.344C102.397 84.0987 101.954 83.976 101.453 83.976C100.951 83.976 100.509 84.0987 100.125 84.344C99.7406 84.5787 99.4366 84.9093 99.2126 85.336C98.9886 85.7627 98.8766 86.248 98.8766 86.792C98.8766 87.336 98.9886 87.8213 99.2126 88.248C99.4366 88.6747 99.7406 89.0107 100.125 89.256C100.509 89.5013 100.951 89.624 101.453 89.624ZM112.143 91V82.6H113.791V91H112.143ZM112.943 80.744C112.591 80.744 112.319 80.6533 112.127 80.472C111.935 80.2907 111.839 80.0347 111.839 79.704C111.839 79.3947 111.935 79.144 112.127 78.952C112.329 78.76 112.601 78.664 112.943 78.664C113.295 78.664 113.567 78.7547 113.759 78.936C113.951 79.1173 114.047 79.3733 114.047 79.704C114.047 80.0133 113.945 80.264 113.743 80.456C113.551 80.648 113.284 80.744 112.943 80.744ZM119.124 91.16C118.42 91.16 117.785 91.0373 117.22 90.792C116.655 90.5467 116.185 90.184 115.812 89.704L116.932 88.744C117.252 89.1173 117.599 89.3893 117.972 89.56C118.356 89.72 118.788 89.8 119.268 89.8C119.46 89.8 119.636 89.7787 119.796 89.736C119.967 89.6827 120.111 89.608 120.228 89.512C120.356 89.416 120.452 89.304 120.516 89.176C120.58 89.0373 120.612 88.888 120.612 88.728C120.612 88.4507 120.511 88.2267 120.308 88.056C120.201 87.9813 120.031 87.9013 119.796 87.816C119.572 87.72 119.279 87.624 118.916 87.528C118.297 87.368 117.791 87.1867 117.396 86.984C117.001 86.7813 116.697 86.552 116.484 86.296C116.324 86.0933 116.207 85.8747 116.132 85.64C116.057 85.3947 116.02 85.128 116.02 84.84C116.02 84.488 116.095 84.168 116.244 83.88C116.404 83.5813 116.617 83.3253 116.884 83.112C117.161 82.888 117.481 82.7173 117.844 82.6C118.217 82.4827 118.612 82.424 119.028 82.424C119.423 82.424 119.812 82.4773 120.196 82.584C120.591 82.6907 120.953 82.8453 121.284 83.048C121.615 83.2507 121.892 83.4907 122.116 83.768L121.172 84.808C120.969 84.6053 120.745 84.4293 120.5 84.28C120.265 84.12 120.025 83.9973 119.78 83.912C119.535 83.8267 119.311 83.784 119.108 83.784C118.884 83.784 118.681 83.8053 118.5 83.848C118.319 83.8907 118.164 83.9547 118.036 84.04C117.919 84.1253 117.828 84.232 117.764 84.36C117.7 84.488 117.668 84.632 117.668 84.792C117.679 84.9307 117.711 85.064 117.764 85.192C117.828 85.3093 117.913 85.4107 118.02 85.496C118.137 85.5813 118.313 85.672 118.548 85.768C118.783 85.864 119.081 85.9547 119.444 86.04C119.977 86.1787 120.415 86.3333 120.756 86.504C121.108 86.664 121.385 86.8507 121.588 87.064C121.801 87.2667 121.951 87.5013 122.036 87.768C122.121 88.0347 122.164 88.3333 122.164 88.664C122.164 89.144 122.025 89.576 121.748 89.96C121.481 90.3333 121.119 90.6267 120.66 90.84C120.201 91.0533 119.689 91.16 119.124 91.16ZM132.225 94.68C131.627 94.68 131.03 94.584 130.433 94.392C129.846 94.2107 129.371 93.9707 129.009 93.672L129.617 92.392C129.83 92.552 130.081 92.6907 130.369 92.808C130.657 92.936 130.961 93.032 131.281 93.096C131.601 93.1707 131.915 93.208 132.225 93.208C132.811 93.208 133.302 93.112 133.697 92.92C134.091 92.728 134.39 92.4453 134.593 92.072C134.795 91.6987 134.897 91.2347 134.897 90.68V89.064L135.073 89.176C135.019 89.5067 134.843 89.8267 134.545 90.136C134.257 90.4347 133.894 90.68 133.457 90.872C133.019 91.064 132.571 91.16 132.113 91.16C131.313 91.16 130.598 90.9733 129.969 90.6C129.35 90.216 128.859 89.6987 128.497 89.048C128.134 88.3867 127.953 87.6347 127.953 86.792C127.953 85.9493 128.129 85.2027 128.481 84.552C128.843 83.8907 129.334 83.3733 129.953 83C130.582 82.616 131.286 82.424 132.065 82.424C132.385 82.424 132.694 82.4667 132.993 82.552C133.291 82.6267 133.569 82.7387 133.825 82.888C134.081 83.0267 134.31 83.1813 134.513 83.352C134.715 83.5227 134.881 83.704 135.009 83.896C135.137 84.088 135.217 84.2693 135.249 84.44L134.897 84.568V82.6H136.545V90.488C136.545 91.16 136.443 91.752 136.241 92.264C136.049 92.7867 135.766 93.224 135.392 93.576C135.019 93.9387 134.566 94.2107 134.033 94.392C133.499 94.584 132.897 94.68 132.225 94.68ZM132.289 89.64C132.811 89.64 133.275 89.5173 133.681 89.272C134.086 89.0267 134.401 88.6907 134.625 88.264C134.849 87.8373 134.961 87.3467 134.961 86.792C134.961 86.2373 134.843 85.7467 134.609 85.32C134.385 84.8827 134.07 84.5413 133.665 84.296C133.27 84.0507 132.811 83.928 132.289 83.928C131.777 83.928 131.318 84.056 130.913 84.312C130.518 84.5573 130.203 84.8987 129.969 85.336C129.745 85.7627 129.633 86.248 129.633 86.792C129.633 87.336 129.745 87.8267 129.969 88.264C130.203 88.6907 130.518 89.0267 130.913 89.272C131.318 89.5173 131.777 89.64 132.289 89.64ZM138.855 91V82.6H140.519V85.24L140.359 84.6C140.476 84.1947 140.674 83.8267 140.951 83.496C141.239 83.1653 141.564 82.904 141.927 82.712C142.3 82.52 142.684 82.424 143.079 82.424C143.26 82.424 143.431 82.44 143.591 82.472C143.762 82.504 143.895 82.5413 143.991 82.584L143.559 84.376C143.431 84.3227 143.287 84.28 143.127 84.248C142.978 84.2053 142.828 84.184 142.679 84.184C142.391 84.184 142.114 84.2427 141.847 84.36C141.591 84.4667 141.362 84.6213 141.159 84.824C140.967 85.016 140.812 85.2453 140.695 85.512C140.578 85.768 140.519 86.0507 140.519 86.36V91H138.855ZM148.869 91.16C148.005 91.16 147.237 90.9787 146.565 90.616C145.904 90.2427 145.381 89.736 144.997 89.096C144.624 88.456 144.437 87.72 144.437 86.888C144.437 86.2267 144.544 85.624 144.757 85.08C144.97 84.536 145.264 84.0667 145.637 83.672C146.021 83.2667 146.474 82.9573 146.997 82.744C147.53 82.52 148.106 82.408 148.725 82.408C149.269 82.408 149.776 82.5147 150.245 82.728C150.714 82.9307 151.12 83.2133 151.461 83.576C151.813 83.9387 152.08 84.3707 152.261 84.872C152.453 85.3627 152.544 85.9013 152.533 86.488L152.517 87.192H145.653L145.285 85.88H151.093L150.853 86.152V85.768C150.821 85.416 150.704 85.1013 150.501 84.824C150.298 84.5467 150.042 84.328 149.733 84.168C149.424 84.008 149.088 83.928 148.725 83.928C148.149 83.928 147.664 84.04 147.269 84.264C146.874 84.4773 146.576 84.7973 146.373 85.224C146.17 85.64 146.069 86.1573 146.069 86.776C146.069 87.3627 146.192 87.8747 146.437 88.312C146.682 88.7387 147.029 89.0693 147.477 89.304C147.925 89.5387 148.442 89.656 149.029 89.656C149.445 89.656 149.829 89.5867 150.181 89.448C150.544 89.3093 150.933 89.0587 151.349 88.696L152.181 89.864C151.925 90.12 151.61 90.344 151.237 90.536C150.874 90.728 150.485 90.8827 150.069 91C149.664 91.1067 149.264 91.16 148.869 91.16ZM157.556 91.16C156.863 91.16 156.228 90.968 155.652 90.584C155.087 90.2 154.633 89.6773 154.292 89.016C153.951 88.3547 153.78 87.608 153.78 86.776C153.78 85.9333 153.951 85.1867 154.292 84.536C154.644 83.8747 155.113 83.3573 155.7 82.984C156.297 82.6107 156.964 82.424 157.7 82.424C158.137 82.424 158.537 82.488 158.9 82.616C159.263 82.744 159.577 82.9253 159.844 83.16C160.121 83.384 160.345 83.6453 160.516 83.944C160.697 84.2427 160.809 84.5627 160.852 84.904L160.484 84.776V82.6H162.148V91H160.484V89L160.868 88.888C160.804 89.176 160.671 89.4587 160.468 89.736C160.276 90.0027 160.025 90.2427 159.716 90.456C159.417 90.6693 159.081 90.84 158.708 90.968C158.345 91.096 157.961 91.16 157.556 91.16ZM157.988 89.64C158.489 89.64 158.932 89.5173 159.316 89.272C159.7 89.0267 159.999 88.6907 160.212 88.264C160.436 87.8267 160.548 87.3307 160.548 86.776C160.548 86.232 160.436 85.7467 160.212 85.32C159.999 84.8933 159.7 84.5573 159.316 84.312C158.932 84.0667 158.489 83.944 157.988 83.944C157.497 83.944 157.06 84.0667 156.676 84.312C156.303 84.5573 156.004 84.8933 155.78 85.32C155.567 85.7467 155.46 86.232 155.46 86.776C155.46 87.3307 155.567 87.8267 155.78 88.264C156.004 88.6907 156.303 89.0267 156.676 89.272C157.06 89.5173 157.497 89.64 157.988 89.64ZM165.489 91V80.456H167.137V91H165.489ZM163.745 84.2V82.6H169.089V84.2H163.745ZM170.622 91V79.16H172.27V91H170.622ZM175.779 94.68L177.475 90.76L177.491 92.072L173.299 82.6H175.219L177.843 88.776C177.896 88.8827 177.96 89.048 178.035 89.272C178.109 89.4853 178.173 89.6987 178.227 89.912L177.811 90.008C177.896 89.784 177.976 89.56 178.051 89.336C178.136 89.112 178.216 88.888 178.291 88.664L180.483 82.6H182.435L178.979 91L177.555 94.68H175.779ZM70.7199 111.16C70.0266 111.16 69.3919 110.968 68.8159 110.584C68.2506 110.2 67.7973 109.677 67.4559 109.016C67.1146 108.355 66.9439 107.608 66.9439 106.776C66.9439 105.933 67.1146 105.187 67.4559 104.536C67.8079 103.875 68.2773 103.357 68.8639 102.984C69.4613 102.611 70.1279 102.424 70.8639 102.424C71.3013 102.424 71.7013 102.488 72.0639 102.616C72.4266 102.744 72.7413 102.925 73.0079 103.16C73.2853 103.384 73.5093 103.645 73.6799 103.944C73.8613 104.243 73.9733 104.563 74.0159 104.904L73.6479 104.776V102.6H75.3119V111H73.6479V109L74.0319 108.888C73.9679 109.176 73.8346 109.459 73.6319 109.736C73.4399 110.003 73.1893 110.243 72.8799 110.456C72.5813 110.669 72.2453 110.84 71.8719 110.968C71.5093 111.096 71.1253 111.16 70.7199 111.16ZM71.1519 109.64C71.6533 109.64 72.0959 109.517 72.4799 109.272C72.8639 109.027 73.1626 108.691 73.3759 108.264C73.5999 107.827 73.7119 107.331 73.7119 106.776C73.7119 106.232 73.5999 105.747 73.3759 105.32C73.1626 104.893 72.8639 104.557 72.4799 104.312C72.0959 104.067 71.6533 103.944 71.1519 103.944C70.6613 103.944 70.2239 104.067 69.8399 104.312C69.4666 104.557 69.1679 104.893 68.9439 105.32C68.7306 105.747 68.6239 106.232 68.6239 106.776C68.6239 107.331 68.7306 107.827 68.9439 108.264C69.1679 108.691 69.4666 109.027 69.8399 109.272C70.2239 109.517 70.6613 109.64 71.1519 109.64ZM77.6129 114.52V102.6H79.2769V104.52L79.0209 104.376C79.0849 104.056 79.2663 103.752 79.5649 103.464C79.8636 103.165 80.2263 102.925 80.6529 102.744C81.0903 102.552 81.5383 102.456 81.9969 102.456C82.7543 102.456 83.4263 102.643 84.0129 103.016C84.5996 103.389 85.0636 103.901 85.4049 104.552C85.7463 105.203 85.9169 105.949 85.9169 106.792C85.9169 107.624 85.7463 108.371 85.4049 109.032C85.0743 109.683 84.6156 110.2 84.0289 110.584C83.4423 110.957 82.7809 111.144 82.0449 111.144C81.5543 111.144 81.0796 111.048 80.6209 110.856C80.1623 110.653 79.7729 110.397 79.4529 110.088C79.1329 109.779 78.9356 109.459 78.8609 109.128L79.2769 108.904V114.52H77.6129ZM81.7729 109.624C82.2636 109.624 82.7009 109.501 83.0849 109.256C83.4689 109.011 83.7729 108.675 83.9969 108.248C84.2209 107.821 84.3329 107.336 84.3329 106.792C84.3329 106.248 84.2209 105.768 83.9969 105.352C83.7836 104.925 83.4849 104.589 83.1009 104.344C82.7169 104.099 82.2743 103.976 81.7729 103.976C81.2716 103.976 80.8289 104.099 80.4449 104.344C80.0609 104.579 79.7569 104.909 79.5329 105.336C79.3089 105.763 79.1969 106.248 79.1969 106.792C79.1969 107.336 79.3089 107.821 79.5329 108.248C79.7569 108.675 80.0609 109.011 80.4449 109.256C80.8289 109.501 81.2716 109.624 81.7729 109.624ZM87.7067 114.52V102.6H89.3707V104.52L89.1147 104.376C89.1787 104.056 89.36 103.752 89.6587 103.464C89.9574 103.165 90.32 102.925 90.7467 102.744C91.184 102.552 91.632 102.456 92.0907 102.456C92.848 102.456 93.52 102.643 94.1067 103.016C94.6934 103.389 95.1574 103.901 95.4987 104.552C95.84 105.203 96.0107 105.949 96.0107 106.792C96.0107 107.624 95.84 108.371 95.4987 109.032C95.168 109.683 94.7094 110.2 94.1227 110.584C93.536 110.957 92.8747 111.144 92.1387 111.144C91.648 111.144 91.1734 111.048 90.7147 110.856C90.256 110.653 89.8667 110.397 89.5467 110.088C89.2267 109.779 89.0294 109.459 88.9547 109.128L89.3707 108.904V114.52H87.7067ZM91.8667 109.624C92.3574 109.624 92.7947 109.501 93.1787 109.256C93.5627 109.011 93.8667 108.675 94.0907 108.248C94.3147 107.821 94.4267 107.336 94.4267 106.792C94.4267 106.248 94.3147 105.768 94.0907 105.352C93.8774 104.925 93.5787 104.589 93.1947 104.344C92.8107 104.099 92.368 103.976 91.8667 103.976C91.3654 103.976 90.9227 104.099 90.5387 104.344C90.1547 104.579 89.8507 104.909 89.6267 105.336C89.4027 105.763 89.2907 106.248 89.2907 106.792C89.2907 107.336 89.4027 107.821 89.6267 108.248C89.8507 108.675 90.1547 109.011 90.5387 109.256C90.9227 109.501 91.3654 109.624 91.8667 109.624ZM97.8324 111V99.16H99.4804V111H97.8324ZM105.58 111.16C104.716 111.16 103.948 110.979 103.276 110.616C102.614 110.243 102.092 109.736 101.708 109.096C101.334 108.456 101.148 107.72 101.148 106.888C101.148 106.227 101.254 105.624 101.468 105.08C101.681 104.536 101.974 104.067 102.348 103.672C102.732 103.267 103.185 102.957 103.708 102.744C104.241 102.52 104.817 102.408 105.436 102.408C105.98 102.408 106.486 102.515 106.956 102.728C107.425 102.931 107.83 103.213 108.172 103.576C108.524 103.939 108.79 104.371 108.972 104.872C109.164 105.363 109.254 105.901 109.244 106.488L109.228 107.192H102.364L101.996 105.88H107.804L107.564 106.152V105.768C107.532 105.416 107.414 105.101 107.212 104.824C107.009 104.547 106.753 104.328 106.444 104.168C106.134 104.008 105.798 103.928 105.436 103.928C104.86 103.928 104.374 104.04 103.98 104.264C103.585 104.477 103.286 104.797 103.084 105.224C102.881 105.64 102.78 106.157 102.78 106.776C102.78 107.363 102.902 107.875 103.148 108.312C103.393 108.739 103.74 109.069 104.188 109.304C104.636 109.539 105.153 109.656 105.74 109.656C106.156 109.656 106.54 109.587 106.892 109.448C107.254 109.309 107.644 109.059 108.06 108.696L108.892 109.864C108.636 110.12 108.321 110.344 107.948 110.536C107.585 110.728 107.196 110.883 106.78 111C106.374 111.107 105.974 111.16 105.58 111.16ZM114.603 111.16C113.824 111.16 113.125 110.968 112.507 110.584C111.899 110.2 111.413 109.677 111.051 109.016C110.699 108.355 110.523 107.613 110.523 106.792C110.523 105.971 110.699 105.229 111.051 104.568C111.413 103.907 111.899 103.384 112.507 103C113.125 102.616 113.824 102.424 114.603 102.424C115.349 102.424 116.027 102.579 116.635 102.888C117.253 103.187 117.723 103.597 118.043 104.12L117.131 105.24C116.96 104.995 116.741 104.771 116.475 104.568C116.208 104.365 115.925 104.205 115.627 104.088C115.328 103.971 115.04 103.912 114.763 103.912C114.251 103.912 113.792 104.04 113.387 104.296C112.992 104.541 112.677 104.883 112.443 105.32C112.208 105.757 112.091 106.248 112.091 106.792C112.091 107.336 112.213 107.827 112.459 108.264C112.704 108.691 113.029 109.032 113.435 109.288C113.84 109.544 114.288 109.672 114.779 109.672C115.067 109.672 115.344 109.624 115.611 109.528C115.888 109.432 116.155 109.288 116.411 109.096C116.667 108.904 116.907 108.669 117.131 108.392L118.043 109.512C117.701 109.992 117.211 110.387 116.571 110.696C115.941 111.005 115.285 111.16 114.603 111.16ZM122.829 111.16C122.136 111.16 121.501 110.968 120.925 110.584C120.36 110.2 119.907 109.677 119.565 109.016C119.224 108.355 119.053 107.608 119.053 106.776C119.053 105.933 119.224 105.187 119.565 104.536C119.917 103.875 120.387 103.357 120.973 102.984C121.571 102.611 122.237 102.424 122.973 102.424C123.411 102.424 123.811 102.488 124.173 102.616C124.536 102.744 124.851 102.925 125.117 103.16C125.395 103.384 125.619 103.645 125.789 103.944C125.971 104.243 126.083 104.563 126.125 104.904L125.757 104.776V102.6H127.421V111H125.757V109L126.141 108.888C126.077 109.176 125.944 109.459 125.741 109.736C125.549 110.003 125.299 110.243 124.989 110.456C124.691 110.669 124.355 110.84 123.981 110.968C123.619 111.096 123.235 111.16 122.829 111.16ZM123.261 109.64C123.763 109.64 124.205 109.517 124.589 109.272C124.973 109.027 125.272 108.691 125.485 108.264C125.709 107.827 125.821 107.331 125.821 106.776C125.821 106.232 125.709 105.747 125.485 105.32C125.272 104.893 124.973 104.557 124.589 104.312C124.205 104.067 123.763 103.944 123.261 103.944C122.771 103.944 122.333 104.067 121.949 104.312C121.576 104.557 121.277 104.893 121.053 105.32C120.84 105.747 120.733 106.232 120.733 106.776C120.733 107.331 120.84 107.827 121.053 108.264C121.277 108.691 121.576 109.027 121.949 109.272C122.333 109.517 122.771 109.64 123.261 109.64ZM130.762 111V100.456H132.41V111H130.762ZM129.018 104.2V102.6H134.362V104.2H129.018ZM139.705 111.16C138.841 111.16 138.073 110.979 137.401 110.616C136.739 110.243 136.217 109.736 135.833 109.096C135.459 108.456 135.273 107.72 135.273 106.888C135.273 106.227 135.379 105.624 135.593 105.08C135.806 104.536 136.099 104.067 136.473 103.672C136.857 103.267 137.31 102.957 137.833 102.744C138.366 102.52 138.942 102.408 139.561 102.408C140.105 102.408 140.611 102.515 141.081 102.728C141.55 102.931 141.955 103.213 142.297 103.576C142.649 103.939 142.915 104.371 143.097 104.872C143.289 105.363 143.379 105.901 143.369 106.488L143.353 107.192H136.489L136.121 105.88H141.929L141.689 106.152V105.768C141.657 105.416 141.539 105.101 141.337 104.824C141.134 104.547 140.878 104.328 140.569 104.168C140.259 104.008 139.923 103.928 139.561 103.928C138.985 103.928 138.499 104.04 138.105 104.264C137.71 104.477 137.411 104.797 137.209 105.224C137.006 105.64 136.905 106.157 136.905 106.776C136.905 107.363 137.027 107.875 137.273 108.312C137.518 108.739 137.865 109.069 138.313 109.304C138.761 109.539 139.278 109.656 139.865 109.656C140.281 109.656 140.665 109.587 141.017 109.448C141.379 109.309 141.769 109.059 142.185 108.696L143.017 109.864C142.761 110.12 142.446 110.344 142.073 110.536C141.71 110.728 141.321 110.883 140.905 111C140.499 111.107 140.099 111.16 139.705 111.16ZM148.664 111.16C147.896 111.16 147.208 110.973 146.6 110.6C146.002 110.216 145.528 109.699 145.176 109.048C144.824 108.387 144.648 107.635 144.648 106.792C144.648 105.949 144.818 105.203 145.16 104.552C145.512 103.891 145.986 103.373 146.584 103C147.181 102.616 147.858 102.424 148.616 102.424C149.032 102.424 149.432 102.493 149.816 102.632C150.21 102.76 150.562 102.941 150.872 103.176C151.181 103.4 151.421 103.651 151.592 103.928C151.773 104.195 151.864 104.467 151.864 104.744L151.384 104.776V99.16H153.032V111H151.384V109H151.704C151.704 109.256 151.618 109.512 151.448 109.768C151.277 110.013 151.048 110.243 150.76 110.456C150.482 110.669 150.157 110.84 149.784 110.968C149.421 111.096 149.048 111.16 148.664 111.16ZM148.888 109.736C149.389 109.736 149.832 109.608 150.216 109.352C150.6 109.096 150.898 108.749 151.112 108.312C151.336 107.864 151.448 107.357 151.448 106.792C151.448 106.227 151.336 105.725 151.112 105.288C150.898 104.84 150.6 104.488 150.216 104.232C149.832 103.976 149.389 103.848 148.888 103.848C148.386 103.848 147.944 103.976 147.56 104.232C147.176 104.488 146.872 104.84 146.648 105.288C146.434 105.725 146.328 106.227 146.328 106.792C146.328 107.357 146.434 107.864 146.648 108.312C146.872 108.749 147.176 109.096 147.56 109.352C147.944 109.608 148.386 109.736 148.888 109.736Z" fill="white"/>
</svg>
