<svg width="24" height="24" viewBox="0 0 24 24" fill="none" xmlns="http://www.w3.org/2000/svg">
<path d="M21.9331 6.76099L18.5631 20.291C18.3231 21.301 17.4231 22.001 16.3831 22.001H3.24306C1.73306 22.001 0.653075 20.5209 1.10308 19.0709L5.31307 5.55103C5.60307 4.61103 6.47308 3.96094 7.45308 3.96094H19.7531C20.7031 3.96094 21.4931 4.54094 21.8231 5.34094C22.0131 5.77094 22.0531 6.26099 21.9331 6.76099Z" stroke="#262626" stroke-width="1.5" stroke-miterlimit="10"/>
<path d="M16 22H20.78C22.07 22 23.08 20.91 22.99 19.62L22 6" stroke="#262626" stroke-width="1.5" stroke-miterlimit="10" stroke-linecap="round" stroke-linejoin="round"/>
<path d="M9.67969 6.38049L10.7197 2.06055" stroke="#262626" stroke-width="1.5" stroke-miterlimit="10" stroke-linecap="round" stroke-linejoin="round"/>
<path d="M16.3828 6.39075L17.3228 2.05078" stroke="#262626" stroke-width="1.5" stroke-miterlimit="10" stroke-linecap="round" stroke-linejoin="round"/>
<path d="M7.70312 12H15.7031" stroke="#262626" stroke-width="1.5" stroke-miterlimit="10" stroke-linecap="round" stroke-linejoin="round"/>
<path d="M6.70312 16H14.7031" stroke="#262626" stroke-width="1.5" stroke-miterlimit="10" stroke-linecap="round" stroke-linejoin="round"/>
</svg>
