<svg width="19" height="18" viewBox="0 0 19 18" fill="none" xmlns="http://www.w3.org/2000/svg">
<path d="M17.4459 5.06976L14.9184 15.2173C14.7384 15.9748 14.0634 16.4998 13.2834 16.4998H3.42839C2.29589 16.4998 1.4859 15.3897 1.8234 14.3022L4.98089 4.16229C5.19839 3.45729 5.8509 2.96973 6.5859 2.96973H15.8109C16.5234 2.96973 17.1159 3.40473 17.3634 4.00473C17.5059 4.32723 17.5359 4.69476 17.4459 5.06976Z" stroke="#3A37A6" stroke-width="1.5" stroke-miterlimit="10"/>
<path d="M13 16.5H16.585C17.5525 16.5 18.31 15.6825 18.2425 14.715L17.5 4.5" stroke="#3A37A6" stroke-width="1.5" stroke-miterlimit="10" stroke-linecap="round" stroke-linejoin="round"/>
<path d="M8.26172 4.78488L9.04173 1.54492" stroke="#3A37A6" stroke-width="1.5" stroke-miterlimit="10" stroke-linecap="round" stroke-linejoin="round"/>
<path d="M13.2852 4.79257L13.9902 1.5376" stroke="#3A37A6" stroke-width="1.5" stroke-miterlimit="10" stroke-linecap="round" stroke-linejoin="round"/>
<path d="M6.77344 9H12.7734" stroke="#3A37A6" stroke-width="1.5" stroke-miterlimit="10" stroke-linecap="round" stroke-linejoin="round"/>
<path d="M6.02344 12H12.0234" stroke="#3A37A6" stroke-width="1.5" stroke-miterlimit="10" stroke-linecap="round" stroke-linejoin="round"/>
</svg>
