<svg width="40" height="40" viewBox="0 0 40 40" fill="none" xmlns="http://www.w3.org/2000/svg">
<path d="M14.1654 31.6663H13.332C6.66536 31.6663 3.33203 29.9997 3.33203 21.6663V13.333C3.33203 6.66634 6.66536 3.33301 13.332 3.33301H26.6654C33.332 3.33301 36.6654 6.66634 36.6654 13.333V21.6663C36.6654 28.333 33.332 31.6663 26.6654 31.6663H25.832C25.3154 31.6663 24.8154 31.9163 24.4987 32.333L21.9987 35.6663C20.8987 37.133 19.0987 37.133 17.9987 35.6663L15.4987 32.333C15.232 31.9663 14.6154 31.6663 14.1654 31.6663Z" stroke="white" stroke-width="2" stroke-miterlimit="10" stroke-linecap="round" stroke-linejoin="round"/>
<path d="M11.668 13.333H28.3346" stroke="white" stroke-width="2" stroke-linecap="round" stroke-linejoin="round"/>
<path d="M11.668 21.667H21.668" stroke="white" stroke-width="2" stroke-linecap="round" stroke-linejoin="round"/>
</svg>
