<svg width="40" height="40" viewBox="0 0 40 40" fill="none" xmlns="http://www.w3.org/2000/svg">
<path d="M14.1673 31.6663H13.334C6.66732 31.6663 3.33398 29.9997 3.33398 21.6663V13.333C3.33398 6.66634 6.66732 3.33301 13.334 3.33301H26.6673C33.334 3.33301 36.6673 6.66634 36.6673 13.333V21.6663C36.6673 28.333 33.334 31.6663 26.6673 31.6663H25.834C25.3173 31.6663 24.8173 31.9163 24.5007 32.333L22.0007 35.6663C20.9007 37.133 19.1007 37.133 18.0007 35.6663L15.5007 32.333C15.234 31.9663 14.6173 31.6663 14.1673 31.6663Z" stroke="white" stroke-width="2" stroke-miterlimit="10" stroke-linecap="round" stroke-linejoin="round"/>
<path d="M11.666 13.333H28.3327" stroke="white" stroke-width="2" stroke-linecap="round" stroke-linejoin="round"/>
<path d="M11.666 21.667H21.666" stroke="white" stroke-width="2" stroke-linecap="round" stroke-linejoin="round"/>
</svg>
