<svg width="26" height="26" viewBox="0 0 26 26" fill="none" xmlns="http://www.w3.org/2000/svg">
<path d="M23.8307 6.77079V12.2958C23.8307 13.6716 23.3757 14.8308 22.5632 15.6325C21.7616 16.445 20.6024 16.8999 19.2266 16.8999V18.8608C19.2266 19.5974 18.4032 20.0416 17.7966 19.63L16.7457 18.9366C16.8432 18.6008 16.8866 18.2324 16.8866 17.8424V13.4333C16.8866 11.2233 15.4132 9.74996 13.2032 9.74996H5.84739C5.69572 9.74996 5.5549 9.76081 5.41406 9.77165V6.77079C5.41406 4.00829 7.25573 2.16663 10.0182 2.16663H19.2266C21.9891 2.16663 23.8307 4.00829 23.8307 6.77079Z" stroke="#3A37A6" stroke-width="1.5" stroke-miterlimit="10" stroke-linecap="round" stroke-linejoin="round"/>
<path d="M16.8866 13.4334V17.8425C16.8866 18.2325 16.8432 18.6008 16.7457 18.9366C16.3449 20.5291 15.0232 21.5258 13.2032 21.5258H10.2566L6.98489 23.7033C6.49739 24.0392 5.84739 23.6817 5.84739 23.0967V21.5258C4.74239 21.5258 3.82157 21.1575 3.1824 20.5183C2.5324 19.8683 2.16406 18.9475 2.16406 17.8425V13.4334C2.16406 11.375 3.4424 9.95585 5.41406 9.77169C5.5549 9.76085 5.69572 9.75 5.84739 9.75H13.2032C15.4132 9.75 16.8866 11.2234 16.8866 13.4334Z" stroke="#3A37A6" stroke-width="1.5" stroke-miterlimit="10" stroke-linecap="round" stroke-linejoin="round"/>
</svg>
