<svg width="40" height="40" viewBox="0 0 40 40" fill="none" xmlns="http://www.w3.org/2000/svg">
<path d="M19.9987 25.8334C23.682 25.8334 26.6654 22.85 26.6654 19.1667V10C26.6654 6.31671 23.682 3.33337 19.9987 3.33337C16.3154 3.33337 13.332 6.31671 13.332 10V19.1667C13.332 22.85 16.3154 25.8334 19.9987 25.8334Z" stroke="white" stroke-width="1.5" stroke-linecap="round" stroke-linejoin="round"/>
<path d="M7.25 16.0834V18.9167C7.25 25.95 12.9667 31.6667 20 31.6667C27.0333 31.6667 32.75 25.95 32.75 18.9167V16.0834" stroke="white" stroke-width="1.5" stroke-linecap="round" stroke-linejoin="round"/>
<path d="M17.6836 10.7167C19.1836 10.1667 20.8169 10.1667 22.3169 10.7167" stroke="white" stroke-width="1.5" stroke-linecap="round" stroke-linejoin="round"/>
<path d="M18.668 14.25C19.5513 14.0166 20.468 14.0166 21.3513 14.25" stroke="white" stroke-width="1.5" stroke-linecap="round" stroke-linejoin="round"/>
<path d="M20 31.6666V36.6666" stroke="white" stroke-width="1.5" stroke-linecap="round" stroke-linejoin="round"/>
</svg>
