<svg width="40" height="40" viewBox="0 0 40 40" fill="none" xmlns="http://www.w3.org/2000/svg">
<rect width="40" height="40" rx="8" fill="#E7EEF9"/>
<path d="M20 23.5C22.21 23.5 24 21.71 24 19.5V14C24 11.79 22.21 10 20 10C17.79 10 16 11.79 16 14V19.5C16 21.71 17.79 23.5 20 23.5Z" stroke="#3A37A6" stroke-width="1.5" stroke-linecap="round" stroke-linejoin="round"/>
<path d="M12.3496 17.65V19.35C12.3496 23.57 15.7796 27 19.9996 27C24.2196 27 27.6496 23.57 27.6496 19.35V17.65" stroke="#3A37A6" stroke-width="1.5" stroke-linecap="round" stroke-linejoin="round"/>
<path d="M18.6104 14.43C19.5104 14.1 20.4904 14.1 21.3904 14.43" stroke="#3A37A6" stroke-width="1.5" stroke-linecap="round" stroke-linejoin="round"/>
<path d="M19.2002 16.5499C19.7302 16.4099 20.2802 16.4099 20.8102 16.5499" stroke="#3A37A6" stroke-width="1.5" stroke-linecap="round" stroke-linejoin="round"/>
<path d="M20 27V30" stroke="#3A37A6" stroke-width="1.5" stroke-linecap="round" stroke-linejoin="round"/>
</svg>
