<svg width="24" height="21" viewBox="0 0 24 21" fill="none" xmlns="http://www.w3.org/2000/svg">
<path fill-rule="evenodd" clip-rule="evenodd" d="M2.20868 0.0783481C1.17385 0.305535 0.296281 1.20813 0.0772647 2.27053C-0.0257549 2.77038 -0.0257549 14.4161 0.0772647 14.9159C0.29867 15.99 1.17764 16.8852 2.2321 17.1108C2.50654 17.1694 3.25373 17.181 6.81154 17.1817L11.063 17.1825V18.1369V19.0913H8.62691H6.1908V20.0456V21H12H17.8092V20.0456V19.0913H15.3731H12.937V18.1369V17.1825L17.1885 17.1817C20.7463 17.181 21.4935 17.1694 21.7679 17.1108C22.8224 16.8852 23.7013 15.99 23.9227 14.9159C24.0258 14.4161 24.0258 2.77038 23.9227 2.27053C23.7013 1.19649 22.8224 0.301193 21.7679 0.0756758C21.288 -0.0269187 2.6767 -0.0243897 2.20868 0.0783481ZM21.6667 2.0558C21.7619 2.12141 21.8973 2.25917 21.9678 2.36191L22.0958 2.54868V8.59322V14.6378L21.9678 14.8245C21.8973 14.9273 21.7619 15.065 21.6667 15.1306L21.4937 15.2499H12H2.50631L2.33334 15.1306C2.23815 15.065 2.10266 14.9273 2.03225 14.8246L1.90417 14.6378L1.89175 8.70058C1.88346 4.75718 1.8954 2.70238 1.92731 2.58175C1.98521 2.36268 2.30214 2.02516 2.5071 1.96432C2.59368 1.9386 6.51119 1.924 12.0737 1.92863L21.4937 1.9365L21.6667 2.0558Z" fill="#A0A0A0"/>
</svg>
