<svg width="16" height="16" viewBox="0 0 16 16" fill="none" xmlns="http://www.w3.org/2000/svg">
<path d="M9.33594 3.33333C9.33594 2.6 8.73594 2 8.0026 2C7.26927 2 6.66927 2.6 6.66927 3.33333C6.66927 4.06667 7.26927 4.66667 8.0026 4.66667C8.73594 4.66667 9.33594 4.06667 9.33594 3.33333Z" fill="#3A37A6"/>
<path d="M9.33594 12.6654C9.33594 11.932 8.73594 11.332 8.0026 11.332C7.26927 11.332 6.66927 11.932 6.66927 12.6654C6.66927 13.3987 7.26927 13.9987 8.0026 13.9987C8.73594 13.9987 9.33594 13.3987 9.33594 12.6654Z" fill="#3A37A6"/>
<path d="M9.33594 8.0013C9.33594 7.26797 8.73594 6.66797 8.0026 6.66797C7.26927 6.66797 6.66927 7.26797 6.66927 8.0013C6.66927 8.73464 7.26927 9.33464 8.0026 9.33464C8.73594 9.33464 9.33594 8.73464 9.33594 8.0013Z" fill="#3A37A6"/>
</svg>
