<svg width="108" height="108" viewBox="0 0 108 108" fill="none" xmlns="http://www.w3.org/2000/svg">
<g filter="url(#filter0_d_1538_239887)">
<circle cx="54" cy="50" r="40" fill="url(#paint0_radial_1538_239887)"/>
</g>
<path d="M34 48C32.8954 48 32 48.8954 32 50C32 51.1046 32.8954 52 34 52V48ZM75.4142 51.4142C76.1953 50.6332 76.1953 49.3668 75.4142 48.5858L62.6863 35.8579C61.9052 35.0768 60.6389 35.0768 59.8579 35.8579C59.0768 36.6389 59.0768 37.9052 59.8579 38.6863L71.1716 50L59.8579 61.3137C59.0768 62.0948 59.0768 63.3611 59.8579 64.1421C60.6389 64.9232 61.9052 64.9232 62.6863 64.1421L75.4142 51.4142ZM34 52H74V48H34V52Z" fill="white"/>
<defs>
<filter id="filter0_d_1538_239887" x="0" y="0" width="108" height="108" filterUnits="userSpaceOnUse" color-interpolation-filters="sRGB">
<feFlood flood-opacity="0" result="BackgroundImageFix"/>
<feColorMatrix in="SourceAlpha" type="matrix" values="0 0 0 0 0 0 0 0 0 0 0 0 0 0 0 0 0 0 127 0" result="hardAlpha"/>
<feOffset dy="4"/>
<feGaussianBlur stdDeviation="7"/>
<feComposite in2="hardAlpha" operator="out"/>
<feColorMatrix type="matrix" values="0 0 0 0 0.34902 0 0 0 0 0.341176 0 0 0 0 0.584314 0 0 0 0.2 0"/>
<feBlend mode="normal" in2="BackgroundImageFix" result="effect1_dropShadow_1538_239887"/>
<feBlend mode="normal" in="SourceGraphic" in2="effect1_dropShadow_1538_239887" result="shape"/>
</filter>
<radialGradient id="paint0_radial_1538_239887" cx="0" cy="0" r="1" gradientUnits="userSpaceOnUse" gradientTransform="translate(5.05263 2.63157) rotate(46.5131) scale(98.6572 59.0406)">
<stop stop-color="#AEBFF2"/>
<stop offset="1" stop-color="#94A2F2"/>
</radialGradient>
</defs>
</svg>
