<svg width="18" height="18" viewBox="0 0 18 18" fill="none" xmlns="http://www.w3.org/2000/svg">
<path d="M9.01885 2.1825C6.53635 2.1825 4.51885 4.2 4.51885 6.6825V8.85C4.51885 9.3075 4.32385 10.005 4.09135 10.395L3.22885 11.8275C2.69635 12.7125 3.06385 13.695 4.03885 14.025C7.27135 15.105 10.7588 15.105 13.9913 14.025C14.8988 13.725 15.2963 12.6525 14.8013 11.8275L13.9388 10.395C13.7138 10.005 13.5188 9.3075 13.5188 8.85V6.6825C13.5188 4.2075 11.4938 2.1825 9.01885 2.1825Z" stroke="#3A37A6" stroke-miterlimit="10" stroke-linecap="round"/>
<path d="M10.4 2.39996C10.1675 2.33246 9.9275 2.27996 9.68 2.24996C8.96 2.15996 8.27 2.21246 7.625 2.39996C7.8425 1.84496 8.3825 1.45496 9.0125 1.45496C9.6425 1.45496 10.1825 1.84496 10.4 2.39996Z" stroke="#3A37A6" stroke-miterlimit="10" stroke-linecap="round" stroke-linejoin="round"/>
<path d="M11.2656 14.295C11.2656 15.5325 10.2531 16.545 9.01562 16.545C8.40062 16.545 7.83062 16.29 7.42562 15.885C7.02062 15.48 6.76562 14.91 6.76562 14.295" stroke="#3A37A6" stroke-miterlimit="10"/>
</svg>
