<svg width="40" height="40" viewBox="0 0 40 40" fill="none" xmlns="http://www.w3.org/2000/svg">
<rect width="40" height="40" rx="8" fill="#E7EEF9"/>
<path d="M27.5859 15.6667C29.3809 15.6667 30.8359 14.2116 30.8359 12.4167C30.8359 10.6217 29.3809 9.16666 27.5859 9.16666C25.791 9.16666 24.3359 10.6217 24.3359 12.4167C24.3359 14.2116 25.791 15.6667 27.5859 15.6667Z" stroke="#3A37A6" stroke-width="1.5" stroke-linecap="round" stroke-linejoin="round"/>
<path d="M14.5859 21.0833H20.0026" stroke="#3A37A6" stroke-width="1.5" stroke-linecap="round" stroke-linejoin="round"/>
<path d="M14.5859 25.4167H24.3359" stroke="#3A37A6" stroke-width="1.5" stroke-linecap="round" stroke-linejoin="round"/>
<path d="M22.1641 9.16666H16.7474C11.3307 9.16666 9.16406 11.3333 9.16406 16.75V23.25C9.16406 28.6667 11.3307 30.8333 16.7474 30.8333H23.2474C28.6641 30.8333 30.8307 28.6667 30.8307 23.25V17.8333" stroke="#3A37A6" stroke-width="1.5" stroke-linecap="round" stroke-linejoin="round"/>
</svg>
