<svg width="60" height="50" viewBox="0 0 60 50" fill="none" xmlns="http://www.w3.org/2000/svg">
<rect width="60" height="50" fill="#F3F2F3"/>
<g clip-path="url(#clip0_221_7147)">
<rect width="1920" height="1618" transform="translate(-1135 -515)" fill="white"/>
<path d="M-574.5 -334.5H745C750.247 -334.5 754.5 -330.247 754.5 -325V525C754.5 530.247 750.247 534.5 745 534.5H-574.5V-334.5Z" fill="white" stroke="#EBEBEB"/>
<rect x="-544.5" y="-204.5" width="1269" height="638" rx="7.5" fill="white" stroke="#EBEBEB"/>
<g filter="url(#filter0_d_221_7147)">
</g>
<path d="M0 8C0 3.58172 3.58172 0 8 0H52C56.4183 0 60 3.58172 60 8V42C60 46.4183 56.4183 50 52 50H8C3.58172 50 0 46.4183 0 42V8Z" fill="#F5F5F5"/>
<path d="M24 24.5H35" stroke="#262626" stroke-width="1.5" stroke-linecap="round" stroke-linejoin="round"/>
<path d="M29.5 30V19" stroke="#262626" stroke-width="1.5" stroke-linecap="round" stroke-linejoin="round"/>
<path d="M25.375 38.25H33.625C40.5 38.25 43.25 35.5 43.25 28.625V20.375C43.25 13.5 40.5 10.75 33.625 10.75H25.375C18.5 10.75 15.75 13.5 15.75 20.375V28.625C15.75 35.5 18.5 38.25 25.375 38.25Z" stroke="#262626" stroke-width="1.5" stroke-linecap="round" stroke-linejoin="round"/>
</g>
<rect x="-19706" y="-2694" width="57193" height="6710" stroke="#262626" stroke-width="20"/>
<defs>
<filter id="filter0_d_221_7147" x="-13" y="-55" width="90" height="64" filterUnits="userSpaceOnUse" color-interpolation-filters="sRGB">
<feFlood flood-opacity="0" result="BackgroundImageFix"/>
<feColorMatrix in="SourceAlpha" type="matrix" values="0 0 0 0 0 0 0 0 0 0 0 0 0 0 0 0 0 0 127 0" result="hardAlpha"/>
<feMorphology radius="3" operator="dilate" in="SourceAlpha" result="effect1_dropShadow_221_7147"/>
<feOffset dy="7"/>
<feGaussianBlur stdDeviation="7"/>
<feComposite in2="hardAlpha" operator="out"/>
<feColorMatrix type="matrix" values="0 0 0 0 0 0 0 0 0 0 0 0 0 0 0 0 0 0 0.03 0"/>
<feBlend mode="normal" in2="BackgroundImageFix" result="effect1_dropShadow_221_7147"/>
<feBlend mode="normal" in="SourceGraphic" in2="effect1_dropShadow_221_7147" result="shape"/>
</filter>
<clipPath id="clip0_221_7147">
<rect width="1920" height="1618" fill="white" transform="translate(-1135 -515)"/>
</clipPath>
</defs>
</svg>
