<svg width="40" height="40" viewBox="0 0 40 40" fill="none" xmlns="http://www.w3.org/2000/svg">
<rect width="40" height="40" fill="#F3F2F3"/>
<g clip-path="url(#clip0_221_7147)">
<rect width="1920" height="2298" transform="translate(-1155 -516)" fill="white"/>
<path d="M-594.5 -335.5H725C730.247 -335.5 734.5 -331.247 734.5 -326V524C734.5 529.247 730.247 533.5 725 533.5H-594.5V-335.5Z" fill="white" stroke="#EBEBEB"/>
<rect x="-564.5" y="-205.5" width="1269" height="1602" rx="7.5" fill="white" stroke="#EBEBEB"/>
<rect width="40" height="40" rx="8" fill="#E7EEF9"/>
<path d="M16.85 28.272C16.25 28.152 15.734 27.996 15.302 27.804C14.87 27.612 14.516 27.378 14.24 27.102C13.964 26.826 13.754 26.49 13.61 26.094C13.478 25.71 13.412 25.266 13.412 24.762L13.43 23.052C13.43 22.392 13.286 21.888 12.998 21.54C12.71 21.18 12.296 20.994 11.756 20.982H11V19.29H11.792C12.332 19.278 12.74 19.098 13.016 18.75C13.292 18.402 13.43 17.892 13.43 17.22L13.412 15.51C13.412 14.526 13.682 13.758 14.222 13.206C14.774 12.654 15.65 12.252 16.85 12L17.282 13.53C16.802 13.686 16.424 13.854 16.148 14.034C15.872 14.202 15.674 14.43 15.554 14.718C15.446 14.994 15.392 15.366 15.392 15.834L15.428 17.472C15.428 18.168 15.248 18.75 14.888 19.218C14.54 19.674 14.012 19.998 13.304 20.19L13.286 20.064C14.006 20.28 14.54 20.622 14.888 21.09C15.248 21.546 15.428 22.116 15.428 22.8L15.392 24.438C15.392 24.894 15.446 25.254 15.554 25.518C15.674 25.794 15.872 26.016 16.148 26.184C16.424 26.364 16.802 26.538 17.282 26.706L16.85 28.272Z" fill="#3A37A6"/>
<path d="M23.9053 28.272L23.4733 26.742C23.9653 26.586 24.3433 26.418 24.6073 26.238C24.8833 26.07 25.0753 25.842 25.1833 25.554C25.3033 25.278 25.3633 24.906 25.3633 24.438L25.3273 22.8C25.3273 22.104 25.5013 21.528 25.8493 21.072C26.2093 20.604 26.7493 20.274 27.4693 20.082V20.208C26.7493 19.992 26.2093 19.656 25.8493 19.2C25.5013 18.732 25.3273 18.156 25.3273 17.472L25.3633 15.834C25.3633 15.378 25.3033 15.018 25.1833 14.754C25.0753 14.478 24.8833 14.25 24.6073 14.07C24.3433 13.89 23.9653 13.722 23.4733 13.566L23.9053 12C24.5053 12.12 25.0213 12.276 25.4533 12.468C25.8853 12.66 26.2393 12.894 26.5153 13.17C26.8033 13.446 27.0133 13.782 27.1453 14.178C27.2773 14.562 27.3433 15.006 27.3433 15.51L27.3253 17.22C27.3253 17.88 27.4693 18.39 27.7573 18.75C28.0453 19.098 28.4593 19.278 28.9993 19.29H29.7553V20.982H28.9633C28.4233 20.994 28.0153 21.174 27.7393 21.522C27.4633 21.87 27.3253 22.38 27.3253 23.052L27.3433 24.762C27.3433 25.746 27.0733 26.514 26.5333 27.066C25.9933 27.618 25.1173 28.02 23.9053 28.272Z" fill="#3A37A6"/>
</g>
<rect x="-23866" y="-2695" width="57193" height="6710" stroke="#262626" stroke-width="20"/>
<defs>
<clipPath id="clip0_221_7147">
<rect width="1920" height="2298" fill="white" transform="translate(-1155 -516)"/>
</clipPath>
</defs>
</svg>
