<svg width="18" height="15" viewBox="0 0 18 15" fill="none" xmlns="http://www.w3.org/2000/svg">
<path d="M2.25 5.18359C3.07843 5.18359 3.75 4.51202 3.75 3.68359C3.75 2.85517 3.07843 2.18359 2.25 2.18359C1.42157 2.18359 0.75 2.85517 0.75 3.68359C0.75 4.51202 1.42157 5.18359 2.25 5.18359Z" stroke="#3A37A6" stroke-width="1.5" stroke-miterlimit="10" stroke-linecap="round" stroke-linejoin="round"/>
<path d="M15.75 5.18359C16.5784 5.18359 17.25 4.51202 17.25 3.68359C17.25 2.85517 16.5784 2.18359 15.75 2.18359C14.9216 2.18359 14.25 2.85517 14.25 3.68359C14.25 4.51202 14.9216 5.18359 15.75 5.18359Z" stroke="#3A37A6" stroke-width="1.5" stroke-miterlimit="10" stroke-linecap="round" stroke-linejoin="round"/>
<path d="M14.25 3.68359H11.25" stroke="#3A37A6" stroke-width="1.5" stroke-miterlimit="10" stroke-linecap="round" stroke-linejoin="round"/>
<path d="M6.75 3.68359H3.75" stroke="#3A37A6" stroke-miterlimit="10" stroke-linecap="round" stroke-linejoin="round"/>
<path d="M5.625 10.8086V12.3086C5.625 12.7661 5.3475 13.1636 4.9575 13.3286C4.815 13.3961 4.665 13.4336 4.5 13.4336H3C2.3775 13.4336 1.875 12.9311 1.875 12.3086V10.8086C1.875 10.1861 2.3775 9.68359 3 9.68359H4.5C5.1225 9.68359 5.625 10.1861 5.625 10.8086Z" stroke="#3A37A6" stroke-width="1.5" stroke-miterlimit="10" stroke-linecap="round" stroke-linejoin="round"/>
<path d="M16.125 10.8086V12.3086C16.125 12.9311 15.6225 13.4336 15 13.4336H13.5C13.335 13.4336 13.185 13.3961 13.0425 13.3286C12.6525 13.1636 12.375 12.7661 12.375 12.3086V10.8086C12.375 10.1861 12.8775 9.68359 13.5 9.68359H15C15.6225 9.68359 16.125 10.1861 16.125 10.8086Z" stroke="#3A37A6" stroke-width="1.5" stroke-miterlimit="10" stroke-linecap="round" stroke-linejoin="round"/>
<path d="M11.25 2.55859V4.80859C11.25 5.42359 10.74 5.93359 10.125 5.93359H7.875C7.26 5.93359 6.75 5.42359 6.75 4.80859V2.55859C6.75 1.94359 7.26 1.43359 7.875 1.43359H10.125C10.74 1.43359 11.25 1.94359 11.25 2.55859Z" stroke="#3A37A6" stroke-width="1.5" stroke-miterlimit="10" stroke-linecap="round" stroke-linejoin="round"/>
<path d="M11.25 4.23047C13.0275 5.13047 14.25 7.06548 14.25 9.30798C14.25 9.43548 14.2425 9.55548 14.2275 9.68298" stroke="#3A37A6" stroke-width="1.5" stroke-miterlimit="10" stroke-linecap="round" stroke-linejoin="round"/>
<path d="M3.7725 9.68298C3.7575 9.55548 3.75 9.43548 3.75 9.30798C3.75 7.06548 4.9725 5.13047 6.75 4.23047" stroke="#3A37A6" stroke-width="1.5" stroke-miterlimit="10" stroke-linecap="round" stroke-linejoin="round"/>
</svg>
