<svg width="154" height="154" viewBox="0 0 154 154" fill="none" xmlns="http://www.w3.org/2000/svg">
<g filter="url(#filter0_d_1726_254452)">
<circle cx="77" cy="70" r="60" fill="white"/>
<circle cx="77" cy="70" r="59.5" stroke="#EBEBEB"/>
</g>
<g clip-path="url(#clip0_1726_254452)">
<path d="M98.75 55.5C98.75 61.2685 96.4585 66.8007 92.3796 70.8796C88.3007 74.9585 82.7685 77.25 77 77.25C71.2315 77.25 65.6993 74.9585 61.6204 70.8796C57.5415 66.8007 55.25 61.2685 55.25 55.5C55.25 49.7315 57.5415 44.1993 61.6204 40.1204C65.6993 36.0415 71.2315 33.75 77 33.75C82.7685 33.75 88.3007 36.0415 92.3796 40.1204C96.4585 44.1993 98.75 49.7315 98.75 55.5Z" fill="#EBEBEB"/>
<path fill-rule="evenodd" clip-rule="evenodd" d="M19 70C19 54.6174 25.1107 39.8649 35.9878 28.9878C46.8649 18.1107 61.6174 12 77 12C92.3826 12 107.135 18.1107 118.012 28.9878C128.889 39.8649 135 54.6174 135 70C135 85.3826 128.889 100.135 118.012 111.012C107.135 121.889 92.3826 128 77 128C61.6174 128 46.8649 121.889 35.9878 111.012C25.1107 100.135 19 85.3826 19 70ZM77 19.25C67.4429 19.2505 58.0802 21.9496 49.9894 27.0367C41.8987 32.1238 35.4088 39.392 31.2667 48.0049C27.1247 56.6178 25.4988 66.2252 26.5762 75.7214C27.6537 85.2176 31.3906 94.2165 37.357 101.683C42.5045 93.3885 53.8363 84.5 77 84.5C100.164 84.5 111.488 93.3813 116.643 101.683C122.609 94.2165 126.346 85.2176 127.424 75.7214C128.501 66.2252 126.875 56.6178 122.733 48.0049C118.591 39.392 112.101 32.1238 104.011 27.0367C95.9198 21.9496 86.5571 19.2505 77 19.25Z" fill="#EBEBEB"/>
</g>
<defs>
<filter id="filter0_d_1726_254452" x="0" y="0" width="154" height="154" filterUnits="userSpaceOnUse" color-interpolation-filters="sRGB">
<feFlood flood-opacity="0" result="BackgroundImageFix"/>
<feColorMatrix in="SourceAlpha" type="matrix" values="0 0 0 0 0 0 0 0 0 0 0 0 0 0 0 0 0 0 127 0" result="hardAlpha"/>
<feMorphology radius="3" operator="dilate" in="SourceAlpha" result="effect1_dropShadow_1726_254452"/>
<feOffset dy="7"/>
<feGaussianBlur stdDeviation="7"/>
<feComposite in2="hardAlpha" operator="out"/>
<feColorMatrix type="matrix" values="0 0 0 0 0 0 0 0 0 0 0 0 0 0 0 0 0 0 0.03 0"/>
<feBlend mode="normal" in2="BackgroundImageFix" result="effect1_dropShadow_1726_254452"/>
<feBlend mode="normal" in="SourceGraphic" in2="effect1_dropShadow_1726_254452" result="shape"/>
</filter>
<clipPath id="clip0_1726_254452">
<rect width="116" height="116" fill="white" transform="translate(19 12)"/>
</clipPath>
</defs>
</svg>
