<svg width="40" height="40" viewBox="0 0 40 40" fill="none" xmlns="http://www.w3.org/2000/svg">
<rect width="40" height="40" rx="8" fill="#E7EEF9"/>
<path d="M20.5716 29.1216H13.7249C10.3016 29.1216 9.16406 26.8466 9.16406 24.5608V15.4391C9.16406 12.0158 10.3016 10.8783 13.7249 10.8783H20.5716C23.9949 10.8783 25.1324 12.0158 25.1324 15.4391V24.5608C25.1324 27.9841 23.9841 29.1216 20.5716 29.1216Z" stroke="#3A37A6" stroke-width="1.5" stroke-linecap="round" stroke-linejoin="round"/>
<path d="M28.1445 25.525L25.1328 23.4125V16.5767L28.1445 14.4642C29.6178 13.435 30.8311 14.0634 30.8311 15.8725V24.1275C30.8311 25.9367 29.6178 26.565 28.1445 25.525Z" stroke="#3A37A6" stroke-width="1.5" stroke-linecap="round" stroke-linejoin="round"/>
<path d="M19.4609 18.9166C20.3584 18.9166 21.0859 18.1891 21.0859 17.2916C21.0859 16.3942 20.3584 15.6666 19.4609 15.6666C18.5635 15.6666 17.8359 16.3942 17.8359 17.2916C17.8359 18.1891 18.5635 18.9166 19.4609 18.9166Z" stroke="#3A37A6" stroke-width="1.5" stroke-linecap="round" stroke-linejoin="round"/>
</svg>
