<svg width="36" height="36" viewBox="0 0 36 36" fill="none" xmlns="http://www.w3.org/2000/svg">
<path d="M3 18.5273H11.7C13.995 18.5273 15.57 20.2674 15.57 22.3974V27.2274C15.57 29.3574 13.995 31.0974 11.7 31.0974H6.87003C4.74003 31.0974 3 29.3574 3 27.2274V18.5273" stroke="#262626" stroke-width="1.5" stroke-linecap="round" stroke-linejoin="round"/>
<path d="M3 18.5268C3 9.45179 4.69504 7.95187 9.79504 4.92188" stroke="#262626" stroke-width="1.5" stroke-linecap="round" stroke-linejoin="round"/>
<path d="M20.4453 18.5273H29.1453C31.4403 18.5273 33.0153 20.2674 33.0153 22.3974V27.2274C33.0153 29.3574 31.4403 31.0974 29.1453 31.0974H24.3153C22.1853 31.0974 20.4453 29.3574 20.4453 27.2274V18.5273" stroke="#262626" stroke-width="1.5" stroke-linecap="round" stroke-linejoin="round"/>
<path d="M20.4453 18.5268C20.4453 9.45179 22.1403 7.95187 27.2403 4.92188" stroke="#262626" stroke-width="1.5" stroke-linecap="round" stroke-linejoin="round"/>
</svg>
