<svg width="128" height="128" viewBox="0 0 128 128" fill="none" xmlns="http://www.w3.org/2000/svg">
<g filter="url(#filter0_d_697_143759)">
<rect x="14" y="10" width="100" height="100" rx="8" fill="url(#paint0_radial_697_143759)"/>
</g>
<path d="M65.1035 77.5418H51.9368C45.3535 77.5418 43.166 73.1668 43.166 68.771V51.2293C43.166 44.646 45.3535 42.4585 51.9368 42.4585H65.1035C71.6868 42.4585 73.8743 44.646 73.8743 51.2293V68.771C73.8743 75.3543 71.666 77.5418 65.1035 77.5418Z" stroke="white" stroke-width="1.5" stroke-linecap="round" stroke-linejoin="round"/>
<path d="M79.6667 70.6248L73.875 66.5623V53.4165L79.6667 49.354C82.5 47.3748 84.8333 48.5831 84.8333 52.0623V67.9373C84.8333 71.4165 82.5 72.6248 79.6667 70.6248Z" stroke="white" stroke-width="1.5" stroke-linecap="round" stroke-linejoin="round"/>
<path d="M62.959 57.9165C64.6849 57.9165 66.084 56.5174 66.084 54.7915C66.084 53.0656 64.6849 51.6665 62.959 51.6665C61.2331 51.6665 59.834 53.0656 59.834 54.7915C59.834 56.5174 61.2331 57.9165 62.959 57.9165Z" stroke="white" stroke-width="1.5" stroke-linecap="round" stroke-linejoin="round"/>
<defs>
<filter id="filter0_d_697_143759" x="0" y="0" width="128" height="128" filterUnits="userSpaceOnUse" color-interpolation-filters="sRGB">
<feFlood flood-opacity="0" result="BackgroundImageFix"/>
<feColorMatrix in="SourceAlpha" type="matrix" values="0 0 0 0 0 0 0 0 0 0 0 0 0 0 0 0 0 0 127 0" result="hardAlpha"/>
<feOffset dy="4"/>
<feGaussianBlur stdDeviation="7"/>
<feComposite in2="hardAlpha" operator="out"/>
<feColorMatrix type="matrix" values="0 0 0 0 0.34902 0 0 0 0 0.341176 0 0 0 0 0.584314 0 0 0 0.15 0"/>
<feBlend mode="normal" in2="BackgroundImageFix" result="effect1_dropShadow_697_143759"/>
<feBlend mode="normal" in="SourceGraphic" in2="effect1_dropShadow_697_143759" result="shape"/>
</filter>
<radialGradient id="paint0_radial_697_143759" cx="0" cy="0" r="1" gradientUnits="userSpaceOnUse" gradientTransform="translate(2.81579 0.789468) rotate(46.5131) scale(123.321 73.8008)">
<stop stop-color="#AEBFF2"/>
<stop offset="1" stop-color="#94A2F2"/>
</radialGradient>
</defs>
</svg>
