<svg width="40" height="40" viewBox="0 0 40 40" fill="none" xmlns="http://www.w3.org/2000/svg">
<rect width="40" height="40" rx="8" fill="#E7EEF9"/>
<path d="M20.5741 29.1222H13.7275C10.3041 29.1222 9.16663 26.8472 9.16663 24.5614V15.4397C9.16663 12.0164 10.3041 10.8789 13.7275 10.8789H20.5741C23.9975 10.8789 25.135 12.0164 25.135 15.4397V24.5614C25.135 27.9847 23.9866 29.1222 20.5741 29.1222Z" stroke="#3A37A6" stroke-width="1.5" stroke-linecap="round" stroke-linejoin="round"/>
<path d="M28.1467 25.5242L25.135 23.4117V16.5758L28.1467 14.4633C29.62 13.4342 30.8333 14.0625 30.8333 15.8717V24.1267C30.8333 25.9358 29.62 26.5642 28.1467 25.5242Z" stroke="#3A37A6" stroke-width="1.5" stroke-linecap="round" stroke-linejoin="round"/>
<path d="M19.4584 18.918C20.3558 18.918 21.0834 18.1904 21.0834 17.293C21.0834 16.3955 20.3558 15.668 19.4584 15.668C18.5609 15.668 17.8334 16.3955 17.8334 17.293C17.8334 18.1904 18.5609 18.918 19.4584 18.918Z" stroke="#3A37A6" stroke-width="1.5" stroke-linecap="round" stroke-linejoin="round"/>
</svg>
