<svg width="1331" height="584" viewBox="0 0 1331 584" fill="none" xmlns="http://www.w3.org/2000/svg">
<rect width="1331" height="584" fill="#F3F2F3"/>
<g clip-path="url(#clip0_221_7147)">
<rect width="1920" height="1080" transform="translate(-545 -299)" fill="white"/>
<g filter="url(#filter0_d_221_7147)">
<path d="M-425 -90C-425 -95.5229 -420.523 -100 -415 -100L-13 -100L-13 751L-415 751C-420.523 751 -425 746.523 -425 741L-425 -90Z" fill="white"/>
<path d="M-424.5 -90C-424.5 -95.2467 -420.247 -99.5 -415 -99.5L-13.5 -99.5L-13.5 750.5L-415 750.5C-420.247 750.5 -424.5 746.247 -424.5 741L-424.5 -90Z" stroke="#EBEBEB"/>
</g>
<mask id="path-3-inside-1_221_7147" fill="white">
<path d="M-13 -100H1335C1340.52 -100 1345 -95.5228 1345 -90V741C1345 746.523 1340.52 751 1335 751H-13V-100Z"/>
</mask>
<path d="M-13 -100H1335C1340.52 -100 1345 -95.5228 1345 -90V741C1345 746.523 1340.52 751 1335 751H-13V-100Z" fill="white"/>
<path d="M-13 -101H1335C1341.08 -101 1346 -96.0751 1346 -90H1344C1344 -94.9706 1339.97 -99 1335 -99H-13V-101ZM1346 741C1346 747.075 1341.08 752 1335 752H-13V750H1335C1339.97 750 1344 745.971 1344 741H1346ZM-13 751V-100V751ZM1335 -101C1341.08 -101 1346 -96.0751 1346 -90V741C1346 747.075 1341.08 752 1335 752V750C1339.97 750 1344 745.971 1344 741V-90C1344 -94.9706 1339.97 -99 1335 -99V-101Z" fill="#EBEBEB" mask="url(#path-3-inside-1_221_7147)"/>
<g opacity="0.87" filter="url(#filter1_d_221_7147)">
<rect x="17" y="10" width="1297" height="550" rx="10" fill="white"/>
<rect x="17.5" y="10.5" width="1296" height="549" rx="9.5" stroke="#EBEBEB"/>
</g>
<path d="M1217.86 466.269V465.462C1217.86 465.327 1217.76 465.293 1217.62 465.293C1217.62 465.293 1217.62 465.293 1217.59 465.293C1217.12 465.327 1216.83 465.361 1216.03 465.361C1215.46 465.361 1214.89 465.024 1214.89 463.78V462.636C1214.89 461.357 1215.46 461.021 1216.03 461.021C1216.83 461.021 1217.12 461.055 1217.59 461.122C1217.62 461.122 1217.62 461.122 1217.62 461.122C1217.76 461.122 1217.86 461.055 1217.86 460.92V460.146C1217.86 459.944 1217.79 459.877 1217.59 459.81C1217.32 459.743 1216.79 459.675 1216.03 459.675C1214.46 459.675 1213.29 460.651 1213.29 462.636V463.78C1213.29 465.764 1214.46 466.74 1216.03 466.74C1216.79 466.74 1217.32 466.639 1217.59 466.572C1217.79 466.538 1217.86 466.437 1217.86 466.269ZM1224.26 466.404V461.997C1224.26 460.415 1223.29 459.675 1221.59 459.675C1220.76 459.675 1220.06 459.743 1219.56 459.843C1219.39 459.877 1219.32 459.978 1219.32 460.113V460.886C1219.32 461.055 1219.42 461.088 1219.56 461.088C1219.56 461.088 1219.59 461.088 1219.62 461.088C1220.02 461.055 1220.82 460.987 1221.59 460.987C1222.29 460.987 1222.66 461.189 1222.66 461.997V462.535H1221.89C1219.79 462.535 1218.92 463.241 1218.92 464.654V464.688C1218.92 466.336 1220.02 466.74 1221.02 466.74C1221.62 466.74 1222.19 466.538 1222.72 466.202V466.404C1222.72 466.538 1222.86 466.639 1222.99 466.639H1223.99C1224.12 466.639 1224.26 466.538 1224.26 466.404ZM1222.66 465.092C1222.29 465.293 1221.86 465.462 1221.42 465.462C1220.82 465.462 1220.56 465.293 1220.56 464.688V464.654C1220.56 463.948 1220.79 463.611 1221.89 463.611H1222.66V465.092ZM1231.42 466.37V462.4C1231.42 460.853 1231.05 459.675 1229.32 459.675C1228.52 459.675 1228.05 459.776 1227.35 460.247V459.978C1227.35 459.843 1227.25 459.743 1227.12 459.743H1226.06C1225.92 459.743 1225.82 459.843 1225.82 459.978V466.37C1225.82 466.505 1225.92 466.639 1226.06 466.639H1227.19C1227.32 466.639 1227.42 466.505 1227.42 466.37V461.458C1227.92 461.189 1228.39 461.021 1228.79 461.021C1229.72 461.021 1229.82 461.324 1229.82 462.4V466.37C1229.82 466.505 1229.92 466.639 1230.05 466.639H1231.15C1231.29 466.639 1231.42 466.505 1231.42 466.37ZM1238.38 466.101V457.589C1238.38 457.455 1238.28 457.32 1238.15 457.32H1237.05C1236.92 457.32 1236.78 457.455 1236.78 457.589V459.743C1236.35 459.675 1235.92 459.675 1235.62 459.675C1233.69 459.675 1232.75 460.819 1232.75 462.737V463.679C1232.75 465.563 1233.69 466.74 1235.62 466.74C1236.42 466.74 1237.32 466.605 1238.05 466.404C1238.35 466.336 1238.38 466.269 1238.38 466.101ZM1236.78 465.327C1236.55 465.361 1236.08 465.428 1235.62 465.428C1234.59 465.428 1234.35 464.654 1234.35 463.679V462.737C1234.35 461.727 1234.59 460.987 1235.62 460.987C1235.92 460.987 1236.45 461.021 1236.78 461.055V465.327ZM1245.55 463.679V462.703C1245.55 460.954 1244.55 459.675 1242.65 459.675C1240.75 459.675 1239.75 460.954 1239.75 462.703V463.679C1239.75 465.428 1240.75 466.74 1242.65 466.74C1244.55 466.74 1245.55 465.428 1245.55 463.679ZM1243.95 463.679C1243.95 464.688 1243.48 465.327 1242.65 465.327C1241.82 465.327 1241.35 464.688 1241.35 463.679V462.703C1241.35 461.694 1241.82 461.055 1242.65 461.055C1243.48 461.055 1243.95 461.694 1243.95 462.703V463.679ZM1250.41 460.785V459.911C1250.41 459.776 1250.31 459.675 1250.18 459.675C1249.68 459.675 1249.05 459.776 1248.45 460.247V459.978C1248.45 459.843 1248.35 459.743 1248.21 459.743H1247.15C1247.01 459.743 1246.91 459.843 1246.91 459.978V466.37C1246.91 466.505 1247.01 466.639 1247.15 466.639H1248.28C1248.41 466.639 1248.51 466.505 1248.51 466.37V461.458C1249.01 461.189 1249.51 461.021 1250.18 461.021C1250.31 461.021 1250.41 460.92 1250.41 460.785Z" fill="#3A37A6"/>
<path d="M1253.01 466.401V465.021C1253.01 464.887 1252.91 464.786 1252.77 464.786H1251.67C1251.54 464.786 1251.44 464.887 1251.44 465.021V466.401C1251.44 466.535 1251.54 466.636 1251.67 466.636H1252.77C1252.91 466.636 1253.01 466.535 1253.01 466.401ZM1260.17 459.941C1260.17 459.84 1260.07 459.739 1259.97 459.739H1258.77C1258.67 459.739 1258.54 459.84 1258.51 459.975L1257.34 465.089C1257.31 465.324 1257.21 465.425 1257.11 465.425C1257.04 465.425 1256.94 465.324 1256.91 465.089L1255.74 459.975C1255.71 459.84 1255.61 459.739 1255.47 459.739H1254.27C1254.17 459.739 1254.07 459.84 1254.07 459.941C1254.07 459.975 1254.07 460.009 1254.11 460.009L1255.61 465.593C1255.87 466.502 1256.51 466.737 1257.11 466.737C1257.74 466.737 1258.41 466.502 1258.64 465.593L1260.17 460.009C1260.17 460.009 1260.17 459.975 1260.17 459.941ZM1262.9 458.596V457.519C1262.9 457.385 1262.8 457.25 1262.67 457.25H1261.5C1261.37 457.25 1261.24 457.385 1261.24 457.519V458.596C1261.24 458.73 1261.37 458.831 1261.5 458.831H1262.67C1262.8 458.831 1262.9 458.73 1262.9 458.596ZM1262.87 466.367V459.975C1262.87 459.84 1262.77 459.739 1262.64 459.739H1261.54C1261.4 459.739 1261.27 459.84 1261.27 459.975V466.367C1261.27 466.502 1261.4 466.636 1261.54 466.636H1262.64C1262.77 466.636 1262.87 466.502 1262.87 466.367ZM1269.9 466.098V457.586C1269.9 457.452 1269.8 457.317 1269.67 457.317H1268.54C1268.4 457.317 1268.3 457.452 1268.3 457.586V459.739C1267.87 459.672 1267.44 459.672 1267.14 459.672C1265.2 459.672 1264.24 460.816 1264.24 462.734V463.676C1264.24 465.56 1265.2 466.737 1267.14 466.737C1267.9 466.737 1268.84 466.602 1269.57 466.401C1269.83 466.333 1269.9 466.266 1269.9 466.098ZM1268.3 465.324C1268.07 465.358 1267.57 465.425 1267.14 465.425C1266.1 465.425 1265.84 464.651 1265.84 463.676V462.734C1265.84 461.724 1266.1 460.984 1267.14 460.984C1267.44 460.984 1267.97 461.018 1268.3 461.052V465.324ZM1277.07 463.44V462.767C1277.07 460.951 1276.03 459.672 1274.17 459.672C1272.33 459.672 1271.27 460.85 1271.27 462.767V463.676C1271.27 466.064 1273 466.737 1274.2 466.737C1275.3 466.737 1275.77 466.67 1276.53 466.535C1276.77 466.502 1276.8 466.401 1276.8 466.199V465.391C1276.8 465.29 1276.7 465.223 1276.57 465.223C1276.57 465.223 1276.57 465.223 1276.53 465.223C1276.03 465.257 1275.2 465.324 1274.3 465.324C1273.17 465.324 1272.87 464.483 1272.87 463.777V463.743H1276.8C1276.97 463.743 1277.07 463.642 1277.07 463.44ZM1275.43 462.599H1272.87V462.565C1272.87 461.59 1273.43 461.052 1274.17 461.052C1274.93 461.052 1275.43 461.59 1275.43 462.565V462.599ZM1284 463.676V462.7C1284 460.951 1283 459.672 1281.1 459.672C1279.2 459.672 1278.2 460.951 1278.2 462.7V463.676C1278.2 465.425 1279.2 466.737 1281.1 466.737C1283 466.737 1284 465.425 1284 463.676ZM1282.4 463.676C1282.4 464.685 1281.96 465.324 1281.1 465.324C1280.26 465.324 1279.8 464.685 1279.8 463.676V462.7C1279.8 461.691 1280.26 461.052 1281.1 461.052C1281.96 461.052 1282.4 461.691 1282.4 462.7V463.676Z" fill="#94A2F2"/>
<path fill-rule="evenodd" clip-rule="evenodd" d="M1198.73 458.484C1194.6 460.2 1191.53 464.069 1191 468.846C1191 469.99 1191.57 470.999 1192.53 471.571C1193.53 472.143 1194.67 472.143 1195.63 471.571C1198.66 468.981 1200.1 465.011 1199.46 461.108C1199.33 460.2 1199.06 459.325 1198.73 458.484Z" fill="#3A37A6"/>
<path fill-rule="evenodd" clip-rule="evenodd" d="M1199.46 461.11C1200.1 465.013 1198.67 468.982 1195.63 471.573L1201.53 468.141L1207.43 464.71C1208.39 464.138 1208.96 463.129 1208.96 461.985C1208.96 460.841 1208.39 459.865 1207.43 459.293L1204.46 457.578C1202.43 457.409 1200.5 457.746 1198.73 458.486C1199.06 459.327 1199.33 460.202 1199.46 461.11Z" fill="#94A2F2"/>
<path fill-rule="evenodd" clip-rule="evenodd" d="M1191 468.847C1191.53 464.07 1194.6 460.201 1198.73 458.485C1197.56 455.76 1195.37 453.54 1192.53 452.43C1191.57 453.002 1191 453.977 1191 455.121V461.984V468.847Z" fill="#94A2F2"/>
<path fill-rule="evenodd" clip-rule="evenodd" d="M1192.54 452.429C1195.37 453.539 1197.57 455.759 1198.74 458.484C1200.5 457.744 1202.44 457.408 1204.47 457.576L1201.54 455.86L1195.64 452.429C1194.67 451.857 1193.54 451.857 1192.54 452.429Z" fill="#E7EEF9"/>
<g filter="url(#filter2_b_221_7147)">
<rect x="616" y="245" width="100" height="100" rx="50" fill="url(#paint0_linear_221_7147)"/>
</g>
<path d="M655.992 294.998V289.891C655.992 283.301 660.65 280.644 666.344 283.922L670.76 286.475L675.177 289.029C680.87 292.307 680.87 297.69 675.177 300.968L670.76 303.521L666.344 306.074C660.65 309.352 655.992 306.661 655.992 300.105V294.998Z" fill="white" stroke="white" stroke-width="1.5" stroke-miterlimit="10" stroke-linecap="round" stroke-linejoin="round"/>
<path d="M666.001 329.505C685.058 329.505 700.507 314.057 700.507 295C700.507 275.943 685.058 260.495 666.001 260.495C646.945 260.495 631.496 275.943 631.496 295C631.496 314.057 646.945 329.505 666.001 329.505Z" stroke="white" stroke-width="1.5" stroke-linecap="round" stroke-linejoin="round"/>
<g filter="url(#filter3_d_221_7147)">
<rect x="144" y="590" width="80" height="110" rx="8" fill="white"/>
<rect x="144.5" y="590.5" width="79" height="109" rx="7.5" stroke="#EBEBEB"/>
</g>
<g filter="url(#filter4_d_221_7147)">
<rect x="358" y="590" width="80" height="110" rx="8" fill="white"/>
<rect x="358.5" y="590.5" width="79" height="109" rx="7.5" stroke="#EBEBEB"/>
</g>
<g filter="url(#filter5_d_221_7147)">
<rect x="1000" y="590" width="80" height="110" rx="8" fill="white"/>
<rect x="1000.5" y="590.5" width="79" height="109" rx="7.5" stroke="#EBEBEB"/>
</g>
<g filter="url(#filter6_d_221_7147)">
<rect x="786" y="590" width="80" height="110" rx="8" fill="white"/>
<rect x="786.5" y="590.5" width="79" height="109" rx="7.5" stroke="#EBEBEB"/>
</g>
<g filter="url(#filter7_d_221_7147)">
<rect x="1107" y="590" width="80" height="110" rx="8" fill="white"/>
<rect x="1107.5" y="590.5" width="79" height="109" rx="7.5" stroke="#EBEBEB"/>
</g>
<g filter="url(#filter8_d_221_7147)">
<rect x="465" y="590" width="80" height="110" rx="8" fill="white"/>
<rect x="466" y="591" width="78" height="108" rx="7" stroke="#94A2F2" stroke-width="2"/>
</g>
<rect x="47" y="500" width="7.99995" height="1237" rx="3.99997" transform="rotate(-90 47 500)" fill="#CEDEF2"/>
<rect x="47" y="500" width="8" height="300" rx="4" transform="rotate(-90 47 500)" fill="#3A37A6"/>
<path d="M161.692 531V518.4H163.906L168.496 525.87L167.2 525.852L171.844 518.4H173.95V531H171.628V526.266C171.628 525.186 171.652 524.214 171.7 523.35C171.76 522.486 171.856 521.628 171.988 520.776L172.276 521.55L168.37 527.58H167.182L163.402 521.604L163.654 520.776C163.786 521.58 163.876 522.408 163.924 523.26C163.984 524.1 164.014 525.102 164.014 526.266V531H161.692ZM180.523 531.18C179.743 531.18 179.035 530.964 178.399 530.532C177.763 530.1 177.253 529.512 176.869 528.768C176.485 528.024 176.293 527.178 176.293 526.23C176.293 525.282 176.485 524.436 176.869 523.692C177.253 522.948 177.775 522.366 178.435 521.946C179.095 521.526 179.839 521.316 180.667 521.316C181.147 521.316 181.585 521.388 181.981 521.532C182.377 521.664 182.725 521.856 183.025 522.108C183.325 522.36 183.571 522.648 183.763 522.972C183.967 523.296 184.105 523.644 184.177 524.016L183.691 523.89V521.514H185.923V531H183.673V528.732L184.195 528.642C184.111 528.966 183.955 529.284 183.727 529.596C183.511 529.896 183.235 530.166 182.899 530.406C182.575 530.634 182.209 530.82 181.801 530.964C181.405 531.108 180.979 531.18 180.523 531.18ZM181.135 529.218C181.651 529.218 182.107 529.092 182.503 528.84C182.899 528.588 183.205 528.24 183.421 527.796C183.649 527.34 183.763 526.818 183.763 526.23C183.763 525.654 183.649 525.144 183.421 524.7C183.205 524.256 182.899 523.908 182.503 523.656C182.107 523.404 181.651 523.278 181.135 523.278C180.619 523.278 180.163 523.404 179.767 523.656C179.383 523.908 179.083 524.256 178.867 524.7C178.651 525.144 178.543 525.654 178.543 526.23C178.543 526.818 178.651 527.34 178.867 527.796C179.083 528.24 179.383 528.588 179.767 528.84C180.163 529.092 180.619 529.218 181.135 529.218ZM188.489 531V521.514H190.667L190.703 524.538L190.397 523.854C190.529 523.374 190.757 522.942 191.081 522.558C191.405 522.174 191.777 521.874 192.197 521.658C192.629 521.43 193.079 521.316 193.547 521.316C193.751 521.316 193.943 521.334 194.123 521.37C194.315 521.406 194.471 521.448 194.591 521.496L193.997 523.926C193.865 523.854 193.703 523.794 193.511 523.746C193.319 523.698 193.127 523.674 192.935 523.674C192.635 523.674 192.347 523.734 192.071 523.854C191.807 523.962 191.573 524.118 191.369 524.322C191.165 524.526 191.003 524.766 190.883 525.042C190.775 525.306 190.721 525.606 190.721 525.942V531H188.489ZM199.729 531.18C198.841 531.18 198.043 530.964 197.335 530.532C196.627 530.1 196.069 529.512 195.661 528.768C195.253 528.024 195.049 527.184 195.049 526.248C195.049 525.312 195.253 524.472 195.661 523.728C196.069 522.984 196.627 522.396 197.335 521.964C198.043 521.532 198.841 521.316 199.729 521.316C200.581 521.316 201.355 521.478 202.051 521.802C202.747 522.126 203.287 522.576 203.671 523.152L202.447 524.628C202.267 524.376 202.039 524.148 201.763 523.944C201.487 523.74 201.193 523.578 200.881 523.458C200.569 523.338 200.257 523.278 199.945 523.278C199.417 523.278 198.943 523.41 198.523 523.674C198.115 523.926 197.791 524.28 197.551 524.736C197.311 525.18 197.191 525.684 197.191 526.248C197.191 526.812 197.311 527.316 197.551 527.76C197.803 528.204 198.139 528.558 198.559 528.822C198.979 529.086 199.447 529.218 199.963 529.218C200.275 529.218 200.575 529.17 200.863 529.074C201.163 528.966 201.445 528.816 201.709 528.624C201.973 528.432 202.219 528.192 202.447 527.904L203.671 529.398C203.263 529.926 202.699 530.358 201.979 530.694C201.271 531.018 200.521 531.18 199.729 531.18ZM205.364 531V517.68H207.56V523.458L207.146 523.674C207.266 523.242 207.5 522.852 207.848 522.504C208.196 522.144 208.61 521.856 209.09 521.64C209.57 521.424 210.062 521.316 210.566 521.316C211.286 521.316 211.886 521.46 212.366 521.748C212.858 522.036 213.224 522.468 213.464 523.044C213.716 523.62 213.842 524.34 213.842 525.204V531H211.628V525.366C211.628 524.886 211.562 524.49 211.43 524.178C211.298 523.854 211.094 523.62 210.818 523.476C210.542 523.32 210.206 523.248 209.81 523.26C209.486 523.26 209.186 523.314 208.91 523.422C208.646 523.518 208.412 523.662 208.208 523.854C208.016 524.034 207.86 524.244 207.74 524.484C207.632 524.724 207.578 524.988 207.578 525.276V531H206.48C206.264 531 206.06 531 205.868 531C205.688 531 205.52 531 205.364 531ZM216.603 534.348L215.865 533.466C216.309 533.226 216.663 532.944 216.927 532.62C217.203 532.308 217.341 532.038 217.341 531.81C217.341 531.69 217.311 531.57 217.251 531.45C217.203 531.342 217.077 531.192 216.873 531C216.621 530.772 216.453 530.574 216.369 530.406C216.285 530.238 216.243 530.052 216.243 529.848C216.243 529.536 216.357 529.284 216.585 529.092C216.813 528.9 217.107 528.804 217.467 528.804C217.791 528.804 218.079 528.894 218.331 529.074C218.595 529.254 218.799 529.506 218.943 529.83C219.087 530.142 219.159 530.508 219.159 530.928C219.159 531.3 219.093 531.66 218.961 532.008C218.841 532.368 218.661 532.698 218.421 532.998C218.193 533.298 217.923 533.562 217.611 533.79C217.311 534.03 216.975 534.216 216.603 534.348ZM224.765 531.126C223.889 531.126 223.097 530.94 222.389 530.568C221.681 530.184 221.093 529.632 220.625 528.912L221.921 527.508C222.449 528.096 222.923 528.504 223.343 528.732C223.763 528.948 224.225 529.056 224.729 529.056C225.185 529.056 225.593 528.96 225.953 528.768C226.313 528.564 226.601 528.294 226.817 527.958C227.033 527.61 227.141 527.232 227.141 526.824C227.141 526.38 227.039 525.99 226.835 525.654C226.631 525.306 226.355 525.03 226.007 524.826C225.659 524.622 225.263 524.52 224.819 524.52C224.579 524.52 224.351 524.538 224.135 524.574C223.919 524.61 223.667 524.682 223.379 524.79C223.103 524.898 222.749 525.066 222.317 525.294L221.201 523.782L221.939 518.364H228.905V520.434H223.253L223.775 519.858L223.181 523.854L222.515 523.386C222.671 523.242 222.899 523.104 223.199 522.972C223.511 522.84 223.847 522.732 224.207 522.648C224.567 522.564 224.921 522.522 225.269 522.522C226.049 522.522 226.745 522.702 227.357 523.062C227.969 523.422 228.455 523.92 228.815 524.556C229.175 525.18 229.355 525.9 229.355 526.716C229.355 527.544 229.151 528.294 228.743 528.966C228.347 529.626 227.801 530.154 227.105 530.55C226.409 530.934 225.629 531.126 224.765 531.126ZM231.949 534.348L231.211 533.466C231.655 533.226 232.009 532.944 232.273 532.62C232.549 532.308 232.687 532.038 232.687 531.81C232.687 531.69 232.657 531.57 232.597 531.45C232.549 531.342 232.423 531.192 232.219 531C231.967 530.772 231.799 530.574 231.715 530.406C231.631 530.238 231.589 530.052 231.589 529.848C231.589 529.536 231.703 529.284 231.931 529.092C232.159 528.9 232.453 528.804 232.813 528.804C233.137 528.804 233.425 528.894 233.677 529.074C233.941 529.254 234.145 529.506 234.289 529.83C234.433 530.142 234.505 530.508 234.505 530.928C234.505 531.3 234.439 531.66 234.307 532.008C234.187 532.368 234.007 532.698 233.767 532.998C233.539 533.298 233.269 533.562 232.957 533.79C232.657 534.03 232.321 534.216 231.949 534.348ZM236.78 531L236.186 529.524L239.966 525.294C240.182 525.078 240.404 524.832 240.632 524.556C240.86 524.268 241.076 523.974 241.28 523.674C241.496 523.362 241.67 523.062 241.802 522.774C241.934 522.474 242 522.198 242 521.946C242 521.622 241.928 521.34 241.784 521.1C241.652 520.86 241.46 520.674 241.208 520.542C240.956 520.41 240.644 520.344 240.272 520.344C239.948 520.344 239.63 520.44 239.318 520.632C239.018 520.812 238.736 521.076 238.472 521.424C238.22 521.76 238.01 522.162 237.842 522.63L236.078 521.586C236.294 520.89 236.618 520.29 237.05 519.786C237.494 519.27 238.01 518.874 238.598 518.598C239.198 518.322 239.846 518.184 240.542 518.184C241.262 518.184 241.904 518.334 242.468 518.634C243.032 518.934 243.476 519.348 243.8 519.876C244.136 520.404 244.304 521.022 244.304 521.73C244.304 521.994 244.274 522.27 244.214 522.558C244.154 522.834 244.058 523.128 243.926 523.44C243.806 523.74 243.644 524.058 243.44 524.394C243.236 524.718 242.99 525.06 242.702 525.42C242.426 525.78 242.108 526.158 241.748 526.554L238.886 529.668L238.526 528.84H244.754V531H236.78ZM250.854 531.18C249.834 531.18 248.958 530.922 248.226 530.406C247.506 529.878 246.948 529.134 246.552 528.174C246.168 527.202 245.976 526.044 245.976 524.7C245.976 523.356 246.168 522.204 246.552 521.244C246.948 520.272 247.506 519.528 248.226 519.012C248.958 518.484 249.834 518.22 250.854 518.22C251.874 518.22 252.75 518.484 253.482 519.012C254.214 519.528 254.772 520.272 255.156 521.244C255.552 522.204 255.75 523.356 255.75 524.7C255.75 526.044 255.552 527.202 255.156 528.174C254.772 529.134 254.214 529.878 253.482 530.406C252.75 530.922 251.874 531.18 250.854 531.18ZM250.854 529.128C251.694 529.128 252.342 528.744 252.798 527.976C253.266 527.196 253.5 526.104 253.5 524.7C253.5 523.284 253.266 522.186 252.798 521.406C252.342 520.626 251.694 520.236 250.854 520.236C250.014 520.236 249.36 520.626 248.892 521.406C248.436 522.186 248.208 523.284 248.208 524.7C248.208 526.104 248.436 527.196 248.892 527.976C249.36 528.744 250.014 529.128 250.854 529.128ZM257.997 531L257.403 529.524L261.183 525.294C261.399 525.078 261.621 524.832 261.849 524.556C262.077 524.268 262.293 523.974 262.497 523.674C262.713 523.362 262.887 523.062 263.019 522.774C263.151 522.474 263.217 522.198 263.217 521.946C263.217 521.622 263.145 521.34 263.001 521.1C262.869 520.86 262.677 520.674 262.425 520.542C262.173 520.41 261.861 520.344 261.489 520.344C261.165 520.344 260.847 520.44 260.535 520.632C260.235 520.812 259.953 521.076 259.689 521.424C259.437 521.76 259.227 522.162 259.059 522.63L257.295 521.586C257.511 520.89 257.835 520.29 258.267 519.786C258.711 519.27 259.227 518.874 259.815 518.598C260.415 518.322 261.063 518.184 261.759 518.184C262.479 518.184 263.121 518.334 263.685 518.634C264.249 518.934 264.693 519.348 265.017 519.876C265.353 520.404 265.521 521.022 265.521 521.73C265.521 521.994 265.491 522.27 265.431 522.558C265.371 522.834 265.275 523.128 265.143 523.44C265.023 523.74 264.861 524.058 264.657 524.394C264.453 524.718 264.207 525.06 263.919 525.42C263.643 525.78 263.325 526.158 262.965 526.554L260.103 529.668L259.743 528.84H265.971V531H257.997ZM267.858 531L267.264 529.524L271.044 525.294C271.26 525.078 271.482 524.832 271.71 524.556C271.938 524.268 272.154 523.974 272.358 523.674C272.574 523.362 272.748 523.062 272.88 522.774C273.012 522.474 273.078 522.198 273.078 521.946C273.078 521.622 273.006 521.34 272.862 521.1C272.73 520.86 272.538 520.674 272.286 520.542C272.034 520.41 271.722 520.344 271.35 520.344C271.026 520.344 270.708 520.44 270.396 520.632C270.096 520.812 269.814 521.076 269.55 521.424C269.298 521.76 269.088 522.162 268.92 522.63L267.156 521.586C267.372 520.89 267.696 520.29 268.128 519.786C268.572 519.27 269.088 518.874 269.676 518.598C270.276 518.322 270.924 518.184 271.62 518.184C272.34 518.184 272.982 518.334 273.546 518.634C274.11 518.934 274.554 519.348 274.878 519.876C275.214 520.404 275.382 521.022 275.382 521.73C275.382 521.994 275.352 522.27 275.292 522.558C275.232 522.834 275.136 523.128 275.004 523.44C274.884 523.74 274.722 524.058 274.518 524.394C274.314 524.718 274.068 525.06 273.78 525.42C273.504 525.78 273.186 526.158 272.826 526.554L269.964 529.668L269.604 528.84H275.832V531H267.858Z" fill="#3A37A6"/>
<path d="M52.67 531.18C51.65 531.18 50.774 530.922 50.042 530.406C49.322 529.878 48.764 529.134 48.368 528.174C47.984 527.202 47.792 526.044 47.792 524.7C47.792 523.356 47.984 522.204 48.368 521.244C48.764 520.272 49.322 519.528 50.042 519.012C50.774 518.484 51.65 518.22 52.67 518.22C53.69 518.22 54.566 518.484 55.298 519.012C56.03 519.528 56.588 520.272 56.972 521.244C57.368 522.204 57.566 523.356 57.566 524.7C57.566 526.044 57.368 527.202 56.972 528.174C56.588 529.134 56.03 529.878 55.298 530.406C54.566 530.922 53.69 531.18 52.67 531.18ZM52.67 529.128C53.51 529.128 54.158 528.744 54.614 527.976C55.082 527.196 55.316 526.104 55.316 524.7C55.316 523.284 55.082 522.186 54.614 521.406C54.158 520.626 53.51 520.236 52.67 520.236C51.83 520.236 51.176 520.626 50.708 521.406C50.252 522.186 50.024 523.284 50.024 524.7C50.024 526.104 50.252 527.196 50.708 527.976C51.176 528.744 51.83 529.128 52.67 529.128ZM64.0255 531.18C63.0055 531.18 62.1295 530.922 61.3975 530.406C60.6775 529.878 60.1195 529.134 59.7235 528.174C59.3395 527.202 59.1475 526.044 59.1475 524.7C59.1475 523.356 59.3395 522.204 59.7235 521.244C60.1195 520.272 60.6775 519.528 61.3975 519.012C62.1295 518.484 63.0055 518.22 64.0255 518.22C65.0455 518.22 65.9215 518.484 66.6535 519.012C67.3855 519.528 67.9435 520.272 68.3275 521.244C68.7235 522.204 68.9215 523.356 68.9215 524.7C68.9215 526.044 68.7235 527.202 68.3275 528.174C67.9435 529.134 67.3855 529.878 66.6535 530.406C65.9215 530.922 65.0455 531.18 64.0255 531.18ZM64.0255 529.128C64.8655 529.128 65.5135 528.744 65.9695 527.976C66.4375 527.196 66.6715 526.104 66.6715 524.7C66.6715 523.284 66.4375 522.186 65.9695 521.406C65.5135 520.626 64.8655 520.236 64.0255 520.236C63.1855 520.236 62.5315 520.626 62.0635 521.406C61.6075 522.186 61.3795 523.284 61.3795 524.7C61.3795 526.104 61.6075 527.196 62.0635 527.976C62.5315 528.744 63.1855 529.128 64.0255 529.128ZM71.8529 531.18C71.4209 531.18 71.0849 531.054 70.8449 530.802C70.6169 530.55 70.5029 530.196 70.5029 529.74C70.5029 529.32 70.6229 528.978 70.8629 528.714C71.1149 528.438 71.4449 528.3 71.8529 528.3C72.2849 528.3 72.6149 528.426 72.8429 528.678C73.0829 528.918 73.2029 529.272 73.2029 529.74C73.2029 530.16 73.0769 530.508 72.8249 530.784C72.5849 531.048 72.2609 531.18 71.8529 531.18ZM71.8529 524.214C71.4209 524.214 71.0849 524.088 70.8449 523.836C70.6169 523.584 70.5029 523.23 70.5029 522.774C70.5029 522.354 70.6229 522.012 70.8629 521.748C71.1149 521.472 71.4449 521.334 71.8529 521.334C72.2849 521.334 72.6149 521.46 72.8429 521.712C73.0829 521.952 73.2029 522.306 73.2029 522.774C73.2029 523.194 73.0769 523.542 72.8249 523.818C72.5849 524.082 72.2609 524.214 71.8529 524.214ZM80.318 531V520.83L81.182 520.92L76.898 526.158L76.7 525.834H84.71V527.868H75.44L74.468 525.996L80.732 518.364H82.568V531H80.318ZM90.5918 531C89.9558 531 89.3618 530.886 88.8098 530.658C88.2698 530.43 87.7958 530.118 87.3878 529.722C86.9918 529.314 86.6798 528.84 86.4518 528.3C86.2238 527.76 86.1098 527.166 86.1098 526.518C86.1098 526.158 86.1518 525.774 86.2358 525.366C86.3318 524.958 86.4698 524.526 86.6498 524.07C86.8418 523.602 87.0638 523.116 87.3158 522.612C87.5678 522.108 87.8618 521.58 88.1978 521.028L89.8718 518.184H92.1038L92.1758 518.364L90.0338 521.892C89.6858 522.468 89.3798 523.014 89.1158 523.53C88.8518 524.034 88.6238 524.52 88.4318 524.988C88.2518 525.444 88.1018 525.888 87.9818 526.32L87.4958 524.682C87.6758 524.298 87.8978 523.95 88.1618 523.638C88.4258 523.326 88.7198 523.062 89.0438 522.846C89.3678 522.63 89.7038 522.468 90.0518 522.36C90.4118 522.252 90.7778 522.198 91.1498 522.198C91.8458 522.198 92.4878 522.39 93.0758 522.774C93.6638 523.146 94.1318 523.644 94.4798 524.268C94.8398 524.892 95.0198 525.576 95.0198 526.32C95.0198 527.22 94.8278 528.024 94.4438 528.732C94.0718 529.428 93.5498 529.98 92.8778 530.388C92.2058 530.796 91.4438 531 90.5918 531ZM90.6098 528.948C91.0418 528.948 91.4258 528.846 91.7618 528.642C92.1098 528.438 92.3798 528.156 92.5718 527.796C92.7638 527.424 92.8598 526.998 92.8598 526.518C92.8598 526.11 92.7578 525.732 92.5538 525.384C92.3618 525.024 92.0978 524.736 91.7618 524.52C91.4258 524.292 91.0478 524.178 90.6278 524.178C90.1718 524.178 89.7638 524.286 89.4038 524.502C89.0558 524.706 88.7798 524.988 88.5758 525.348C88.3838 525.696 88.2878 526.086 88.2878 526.518C88.2878 526.974 88.3838 527.388 88.5758 527.76C88.7798 528.12 89.0558 528.408 89.4038 528.624C89.7518 528.84 90.1538 528.948 90.6098 528.948ZM95.8555 533.43L103.308 518.4H105.468L98.0515 533.43H95.8555ZM109.194 530.118V519.894L109.86 520.758L107.304 522.054L106.782 520.002L110.22 518.22H111.516V530.118H109.194ZM107.088 531V528.84H113.676V531H107.088ZM116.871 531.18C116.439 531.18 116.103 531.054 115.863 530.802C115.635 530.55 115.521 530.196 115.521 529.74C115.521 529.32 115.641 528.978 115.881 528.714C116.133 528.438 116.463 528.3 116.871 528.3C117.303 528.3 117.633 528.426 117.861 528.678C118.101 528.918 118.221 529.272 118.221 529.74C118.221 530.16 118.095 530.508 117.843 530.784C117.603 531.048 117.279 531.18 116.871 531.18ZM116.871 524.214C116.439 524.214 116.103 524.088 115.863 523.836C115.635 523.584 115.521 523.23 115.521 522.774C115.521 522.354 115.641 522.012 115.881 521.748C116.133 521.472 116.463 521.334 116.871 521.334C117.303 521.334 117.633 521.46 117.861 521.712C118.101 521.952 118.221 522.306 118.221 522.774C118.221 523.194 118.095 523.542 117.843 523.818C117.603 524.082 117.279 524.214 116.871 524.214ZM120.476 531L119.882 529.524L123.662 525.294C123.878 525.078 124.1 524.832 124.328 524.556C124.556 524.268 124.772 523.974 124.976 523.674C125.192 523.362 125.366 523.062 125.498 522.774C125.63 522.474 125.696 522.198 125.696 521.946C125.696 521.622 125.624 521.34 125.48 521.1C125.348 520.86 125.156 520.674 124.904 520.542C124.652 520.41 124.34 520.344 123.968 520.344C123.644 520.344 123.326 520.44 123.014 520.632C122.714 520.812 122.432 521.076 122.168 521.424C121.916 521.76 121.706 522.162 121.538 522.63L119.774 521.586C119.99 520.89 120.314 520.29 120.746 519.786C121.19 519.27 121.706 518.874 122.294 518.598C122.894 518.322 123.542 518.184 124.238 518.184C124.958 518.184 125.6 518.334 126.164 518.634C126.728 518.934 127.172 519.348 127.496 519.876C127.832 520.404 128 521.022 128 521.73C128 521.994 127.97 522.27 127.91 522.558C127.85 522.834 127.754 523.128 127.622 523.44C127.502 523.74 127.34 524.058 127.136 524.394C126.932 524.718 126.686 525.06 126.398 525.42C126.122 525.78 125.804 526.158 125.444 526.554L122.582 529.668L122.222 528.84H128.45V531H120.476ZM134.045 531C133.409 531 132.815 530.886 132.263 530.658C131.723 530.43 131.249 530.118 130.841 529.722C130.445 529.314 130.133 528.84 129.905 528.3C129.677 527.76 129.563 527.166 129.563 526.518C129.563 526.158 129.605 525.774 129.689 525.366C129.785 524.958 129.923 524.526 130.103 524.07C130.295 523.602 130.517 523.116 130.769 522.612C131.021 522.108 131.315 521.58 131.651 521.028L133.325 518.184H135.557L135.629 518.364L133.487 521.892C133.139 522.468 132.833 523.014 132.569 523.53C132.305 524.034 132.077 524.52 131.885 524.988C131.705 525.444 131.555 525.888 131.435 526.32L130.949 524.682C131.129 524.298 131.351 523.95 131.615 523.638C131.879 523.326 132.173 523.062 132.497 522.846C132.821 522.63 133.157 522.468 133.505 522.36C133.865 522.252 134.231 522.198 134.603 522.198C135.299 522.198 135.941 522.39 136.529 522.774C137.117 523.146 137.585 523.644 137.933 524.268C138.293 524.892 138.473 525.576 138.473 526.32C138.473 527.22 138.281 528.024 137.897 528.732C137.525 529.428 137.003 529.98 136.331 530.388C135.659 530.796 134.897 531 134.045 531ZM134.063 528.948C134.495 528.948 134.879 528.846 135.215 528.642C135.563 528.438 135.833 528.156 136.025 527.796C136.217 527.424 136.313 526.998 136.313 526.518C136.313 526.11 136.211 525.732 136.007 525.384C135.815 525.024 135.551 524.736 135.215 524.52C134.879 524.292 134.501 524.178 134.081 524.178C133.625 524.178 133.217 524.286 132.857 524.502C132.509 524.706 132.233 524.988 132.029 525.348C131.837 525.696 131.741 526.086 131.741 526.518C131.741 526.974 131.837 527.388 132.029 527.76C132.233 528.12 132.509 528.408 132.857 528.624C133.205 528.84 133.607 528.948 134.063 528.948Z" fill="#3A37A6"/>
<path d="M1256.5 521.25V518.125C1256.5 515.012 1259.01 512.5 1262.13 512.5H1265.25" stroke="#3A37A6" stroke-width="1.5" stroke-linecap="round" stroke-linejoin="round"/>
<path d="M1272.75 512.5H1275.88C1278.99 512.5 1281.5 515.012 1281.5 518.125V521.25" stroke="#3A37A6" stroke-width="1.5" stroke-linecap="round" stroke-linejoin="round"/>
<path d="M1281.5 530V531.875C1281.5 534.987 1278.99 537.5 1275.87 537.5H1274" stroke="#3A37A6" stroke-width="1.5" stroke-linecap="round" stroke-linejoin="round"/>
<path d="M1265.25 537.5H1262.13C1259.01 537.5 1256.5 534.988 1256.5 531.875V528.75" stroke="#3A37A6" stroke-width="1.5" stroke-linecap="round" stroke-linejoin="round"/>
<path d="M1232.75 514H1205.25C1204.56 514 1204 514.485 1204 515.084V534.593C1204 535.192 1204.56 535.677 1205.25 535.677H1232.75C1233.44 535.677 1234 535.192 1234 534.593V515.084C1234 514.485 1233.44 514 1232.75 514Z" stroke="#3A37A6" stroke-width="1.5" stroke-linecap="round" stroke-linejoin="round"/>
<path d="M1217.13 527.495C1216.52 528.033 1215.74 528.402 1214.89 528.555C1214.04 528.708 1213.15 528.637 1212.35 528.352C1211.54 528.068 1210.85 527.581 1210.37 526.956C1209.88 526.33 1209.62 525.594 1209.63 524.84C1209.63 524.087 1209.88 523.35 1210.37 522.725C1210.85 522.099 1211.54 521.613 1212.35 521.328C1213.15 521.043 1214.04 520.973 1214.89 521.126C1215.74 521.278 1216.52 521.647 1217.13 522.185M1228.38 527.495C1227.77 528.033 1226.99 528.402 1226.14 528.555C1225.29 528.708 1224.4 528.637 1223.6 528.352C1222.79 528.068 1222.1 527.581 1221.62 526.956C1221.13 526.33 1220.87 525.594 1220.88 524.84C1220.88 524.087 1221.13 523.35 1221.62 522.725C1222.1 522.099 1222.79 521.613 1223.6 521.328C1224.4 521.043 1225.29 520.973 1226.14 521.126C1226.99 521.278 1227.77 521.647 1228.38 522.185" stroke="#3A37A6" stroke-width="1.5" stroke-linecap="round" stroke-linejoin="round"/>
<g opacity="0.49">
<path d="M1021.9 278.227H1004.63V283.737H1021.9V278.227Z" fill="#A0A0A0"/>
</g>
<g opacity="0.4">
<path d="M865.697 278.227H848.43V297.337H865.697V278.227Z" fill="#A0A0A0"/>
</g>
<g opacity="0.4">
<path d="M994.041 278.227H976.773V297.337H994.041V278.227Z" fill="#A0A0A0"/>
</g>
<g opacity="0.43">
<path d="M839.955 278.227H822.688V291.358H839.955V278.227Z" fill="#A0A0A0"/>
</g>
<g opacity="0.31">
<path d="M814.494 278.227H797.227V306.365H814.494V278.227Z" fill="#A0A0A0"/>
</g>
<g opacity="0.6">
<path d="M788.76 278.227H771.492V333.213H788.76V278.227Z" fill="#A0A0A0"/>
</g>
<g opacity="0.6">
<path d="M762.99 278.227H745.723V313.516H762.99V278.227Z" fill="#A0A0A0"/>
</g>
<g opacity="0.6">
<path d="M967.072 278.227H949.805V313.516H967.072V278.227Z" fill="#A0A0A0"/>
</g>
<g opacity="0.39">
<path d="M737.533 278.227H720.266V319.73H737.533V278.227Z" fill="#A0A0A0"/>
</g>
<g opacity="0.39">
<path d="M941.611 278.227H924.344V319.73H941.611V278.227Z" fill="#A0A0A0"/>
</g>
<g opacity="0.59">
<path d="M711.799 278.227H694.531V306.365H711.799V278.227Z" fill="#A0A0A0"/>
</g>
<g opacity="0.59">
<path d="M915.885 278.227H898.617V306.365H915.885V278.227Z" fill="#A0A0A0"/>
</g>
<g opacity="0.39">
<path d="M686.334 278.227H669.066V296.633H686.334V278.227Z" fill="#A0A0A0"/>
</g>
<g opacity="0.39">
<path d="M890.408 278.227H873.141V296.633H890.408V278.227Z" fill="#A0A0A0"/>
</g>
<g opacity="0.38">
<path d="M660.576 278.227H643.309V324.302H660.576V278.227Z" fill="#A0A0A0"/>
</g>
<g opacity="0.36">
<path d="M634.818 278.227H617.551V313.868H634.818V278.227Z" fill="#A0A0A0"/>
</g>
<g opacity="0.39">
<path d="M609.349 278.227H592.082V307.537H609.349V278.227Z" fill="#A0A0A0"/>
</g>
<g opacity="0.33">
<path d="M583.619 278.227H566.352V290.185H583.619V278.227Z" fill="#A0A0A0"/>
</g>
<g opacity="0.37">
<path d="M557.881 278.227H540.613V321.254H557.881V278.227Z" fill="#A0A0A0"/>
</g>
<g opacity="0.42">
<path d="M532.4 278.227H515.133V328.992H532.4V278.227Z" fill="#A0A0A0"/>
</g>
<g opacity="0.5">
<path d="M506.662 278.227H489.395V308.709H506.662V278.227Z" fill="#A0A0A0"/>
</g>
<g opacity="0.54">
<path d="M481.178 278.227H463.91V311.758H481.178V278.227Z" fill="#A0A0A0"/>
</g>
<g opacity="0.54">
<path d="M455.431 278.227H438.164V320.082H455.431V278.227Z" fill="#A0A0A0"/>
</g>
<g opacity="0.34">
<path d="M429.705 278.227H412.438V307.537H429.705V278.227Z" fill="#A0A0A0"/>
</g>
<g opacity="0.55">
<path d="M404.232 278.227H386.965V327.82H404.232V278.227Z" fill="#A0A0A0"/>
</g>
<g opacity="0.42">
<path d="M378.482 278.227H361.215V313.985H378.482V278.227Z" fill="#A0A0A0"/>
</g>
<g opacity="0.54">
<path d="M353.017 278.227H335.75V294.992H353.017V278.227Z" fill="#A0A0A0"/>
</g>
<g opacity="0.43">
<path d="M327.267 278.227H310V288.896H327.267V278.227Z" fill="#A0A0A0"/>
</g>
<g opacity="0.74">
<path d="M1021.9 290.426H1004.63V295.936H1021.9V290.426Z" fill="#A0A0A0"/>
</g>
<g opacity="0.7">
<path d="M865.697 302.484H848.43V309.402H865.697V302.484Z" fill="#A0A0A0"/>
</g>
<g opacity="0.7">
<path d="M994.041 302.484H976.773V309.402H994.041V302.484Z" fill="#A0A0A0"/>
</g>
<g opacity="0.73">
<path d="M839.955 296.629H822.688V303.546H839.955V296.629Z" fill="#A0A0A0"/>
</g>
<g opacity="0.73">
<path d="M814.494 311.508H797.227V318.425H814.494V311.508Z" fill="#A0A0A0"/>
</g>
<g opacity="0.73">
<path d="M788.76 338.336H771.492V345.253H788.76V338.336Z" fill="#A0A0A0"/>
</g>
<g opacity="0.72">
<path d="M762.99 318.668H745.723V325.585H762.99V318.668Z" fill="#A0A0A0"/>
</g>
<g opacity="0.72">
<path d="M967.072 318.668H949.805V325.585H967.072V318.668Z" fill="#A0A0A0"/>
</g>
<g opacity="0.88">
<path d="M737.533 324.891H720.266V331.808H737.533V324.891Z" fill="#A0A0A0"/>
</g>
<g opacity="0.88">
<path d="M941.611 324.891H924.344V331.808H941.611V324.891Z" fill="#A0A0A0"/>
</g>
<g opacity="0.7">
<path d="M711.799 311.508H694.531V318.425H711.799V311.508Z" fill="#A0A0A0"/>
</g>
<g opacity="0.7">
<path d="M915.885 311.508H898.617V318.425H915.885V311.508Z" fill="#A0A0A0"/>
</g>
<g opacity="0.98">
<path d="M686.334 301.871H669.066V308.788H686.334V301.871Z" fill="#A0A0A0"/>
</g>
<g opacity="0.98">
<path d="M890.408 301.871H873.141V308.788H890.408V301.871Z" fill="#A0A0A0"/>
</g>
<g opacity="0.96">
<path d="M660.576 329.453H643.309V336.37H660.576V329.453Z" fill="#A0A0A0"/>
</g>
<g opacity="0.77">
<path d="M634.822 319.008H617.555V325.925H634.822V319.008Z" fill="#A0A0A0"/>
</g>
<g opacity="0.9">
<path d="M609.349 312.68H592.082V319.597H609.349V312.68Z" fill="#A0A0A0"/>
</g>
<g opacity="0.77">
<path d="M583.619 295.328H566.352V302.245H583.619V295.328Z" fill="#A0A0A0"/>
</g>
<g opacity="0.86">
<path d="M557.881 326.516H540.613V333.433H557.881V326.516Z" fill="#A0A0A0"/>
</g>
<g opacity="0.96">
<path d="M532.4 334.266H515.133V341.183H532.4V334.266Z" fill="#A0A0A0"/>
</g>
<g opacity="0.82">
<path d="M506.662 313.871H489.395V320.788H506.662V313.871Z" fill="#A0A0A0"/>
</g>
<path d="M481.197 316.906H463.93V323.823H481.197V316.906Z" fill="#A0A0A0"/>
<g opacity="0.83">
<path d="M455.431 325.215H438.164V332.132H455.431V325.215Z" fill="#A0A0A0"/>
</g>
<g opacity="0.82">
<path d="M429.705 312.68H412.438V319.597H429.705V312.68Z" fill="#A0A0A0"/>
</g>
<g opacity="0.72">
<path d="M404.232 333.082H386.965V339.999H404.232V333.082Z" fill="#A0A0A0"/>
</g>
<g opacity="0.78">
<path d="M378.482 319.25H361.215V326.167H378.482V319.25Z" fill="#A0A0A0"/>
</g>
<g opacity="0.87">
<path d="M353.017 300.129H335.75V307.046H353.017V300.129Z" fill="#A0A0A0"/>
</g>
<g opacity="0.82">
<path d="M327.267 294.184H310V301.101H327.267V294.184Z" fill="#A0A0A0"/>
</g>
<g opacity="0.49">
<path d="M1021.9 265.676H1004.63V271.186H1021.9V265.676Z" fill="#A0A0A0"/>
</g>
<g opacity="0.4">
<path d="M865.697 252.199H848.43V271.31H865.697V252.199Z" fill="#A0A0A0"/>
</g>
<g opacity="0.4">
<path d="M994.041 252.199H976.773V271.31H994.041V252.199Z" fill="#A0A0A0"/>
</g>
<g opacity="0.43">
<path d="M839.955 258.055H822.688V271.186H839.955V258.055Z" fill="#A0A0A0"/>
</g>
<g opacity="0.31">
<path d="M814.494 243.156H797.227V271.294H814.494V243.156Z" fill="#A0A0A0"/>
</g>
<g opacity="0.6">
<path d="M788.76 216.188H771.492V271.174H788.76V216.188Z" fill="#A0A0A0"/>
</g>
<g opacity="0.6">
<path d="M762.99 236H745.723V271.29H762.99V236Z" fill="#A0A0A0"/>
</g>
<g opacity="0.6">
<path d="M967.072 236H949.805V271.29H967.072V236Z" fill="#A0A0A0"/>
</g>
<g opacity="0.39">
<path d="M737.533 229.797H720.266V271.3H737.533V229.797Z" fill="#A0A0A0"/>
</g>
<g opacity="0.39">
<path d="M941.611 229.797H924.344V271.3H941.611V229.797Z" fill="#A0A0A0"/>
</g>
<g opacity="0.59">
<path d="M711.799 243.156H694.531V271.294H711.799V243.156Z" fill="#A0A0A0"/>
</g>
<g opacity="0.59">
<path d="M915.885 243.156H898.617V271.294H915.885V243.156Z" fill="#A0A0A0"/>
</g>
<g opacity="0.39">
<path d="M686.334 252.789H669.066V271.196H686.334V252.789Z" fill="#A0A0A0"/>
</g>
<g opacity="0.39">
<path d="M890.408 252.789H873.141V271.196H890.408V252.789Z" fill="#A0A0A0"/>
</g>
<g opacity="0.38">
<path d="M660.576 225.23H643.309V271.306H660.576V225.23Z" fill="#A0A0A0"/>
</g>
<g opacity="0.36">
<path d="M634.822 235.66H617.555V271.301H634.822V235.66Z" fill="#A0A0A0"/>
</g>
<g opacity="0.39">
<path d="M609.349 241.965H592.082V271.275H609.349V241.965Z" fill="#A0A0A0"/>
</g>
<g opacity="0.33">
<path d="M583.619 259.234H566.352V271.193H583.619V259.234Z" fill="#A0A0A0"/>
</g>
<g opacity="0.37">
<path d="M557.881 228.137H540.613V271.164H557.881V228.137Z" fill="#A0A0A0"/>
</g>
<g opacity="0.42">
<path d="M532.4 220.434H515.133V271.199H532.4V220.434Z" fill="#A0A0A0"/>
</g>
<g opacity="0.5">
<path d="M506.662 240.703H489.395V271.186H506.662V240.703Z" fill="#A0A0A0"/>
</g>
<g opacity="0.54">
<path d="M481.178 237.781H463.91V271.312H481.178V237.781Z" fill="#A0A0A0"/>
</g>
<g opacity="0.54">
<path d="M455.431 229.316H438.164V271.172H455.431V229.316Z" fill="#A0A0A0"/>
</g>
<g opacity="0.34">
<path d="M429.705 241.965H412.438V271.275H429.705V241.965Z" fill="#A0A0A0"/>
</g>
<g opacity="0.55">
<path d="M404.232 221.594H386.965V271.187H404.232V221.594Z" fill="#A0A0A0"/>
</g>
<g opacity="0.42">
<path d="M378.482 235.438H361.215V271.196H378.482V235.438Z" fill="#A0A0A0"/>
</g>
<g opacity="0.54">
<path d="M353.017 254.519H335.75V271.285H353.017V254.519Z" fill="#A0A0A0"/>
</g>
<g opacity="0.43">
<path d="M327.267 260.523H310V271.192H327.267V260.523Z" fill="#A0A0A0"/>
</g>
<g opacity="0.74">
<path d="M1021.9 253.484H1004.63V258.995H1021.9V253.484Z" fill="#A0A0A0"/>
</g>
<g opacity="0.7">
<path d="M865.697 240H848.43V246.917H865.697V240Z" fill="#A0A0A0"/>
</g>
<g opacity="0.7">
<path d="M994.041 240H976.773V246.917H994.041V240Z" fill="#A0A0A0"/>
</g>
<g opacity="0.73">
<path d="M839.955 245.828H822.688V252.745H839.955V245.828Z" fill="#A0A0A0"/>
</g>
<g opacity="0.73">
<path d="M814.494 230.969H797.227V237.886H814.494V230.969Z" fill="#A0A0A0"/>
</g>
<g opacity="0.73">
<path d="M788.76 204H771.492V210.917H788.76V204Z" fill="#A0A0A0"/>
</g>
<g opacity="0.72">
<path d="M762.99 223.801H745.723V230.718H762.99V223.801Z" fill="#A0A0A0"/>
</g>
<g opacity="0.72">
<path d="M967.072 223.801H949.805V230.718H967.072V223.801Z" fill="#A0A0A0"/>
</g>
<g opacity="0.88">
<path d="M737.533 217.613H720.266V224.531H737.533V217.613Z" fill="#A0A0A0"/>
</g>
<g opacity="0.88">
<path d="M941.611 217.613H924.344V224.531H941.611V217.613Z" fill="#A0A0A0"/>
</g>
<g opacity="0.7">
<path d="M711.799 230.969H694.531V237.886H711.799V230.969Z" fill="#A0A0A0"/>
</g>
<g opacity="0.7">
<path d="M915.885 230.969H898.617V237.886H915.885V230.969Z" fill="#A0A0A0"/>
</g>
<g opacity="0.98">
<path d="M686.334 240.605H669.066V247.523H686.334V240.605Z" fill="#A0A0A0"/>
</g>
<g opacity="0.98">
<path d="M890.408 240.605H873.141V247.523H890.408V240.605Z" fill="#A0A0A0"/>
</g>
<g opacity="0.96">
<path d="M660.576 213.039H643.309V219.956H660.576V213.039Z" fill="#A0A0A0"/>
</g>
<g opacity="0.77">
<path d="M634.822 223.477H617.555V230.394H634.822V223.477Z" fill="#A0A0A0"/>
</g>
<g opacity="0.9">
<path d="M609.349 229.797H592.082V236.714H609.349V229.797Z" fill="#A0A0A0"/>
</g>
<g opacity="0.77">
<path d="M583.619 247.039H566.352V253.956H583.619V247.039Z" fill="#A0A0A0"/>
</g>
<g opacity="0.86">
<path d="M557.881 215.93H540.613V222.847H557.881V215.93Z" fill="#A0A0A0"/>
</g>
<g opacity="0.96">
<path d="M532.4 208.227H515.133V215.144H532.4V208.227Z" fill="#A0A0A0"/>
</g>
<g opacity="0.82">
<path d="M506.662 228.52H489.395V235.437H506.662V228.52Z" fill="#A0A0A0"/>
</g>
<path d="M481.197 225.586H463.93V232.503H481.197V225.586Z" fill="#A0A0A0"/>
<g opacity="0.83">
<path d="M455.431 217.121H438.164V224.038H455.431V217.121Z" fill="#A0A0A0"/>
</g>
<g opacity="0.82">
<path d="M429.705 229.797H412.438V236.714H429.705V229.797Z" fill="#A0A0A0"/>
</g>
<g opacity="0.72">
<path d="M404.232 209.398H386.965V216.316H404.232V209.398Z" fill="#A0A0A0"/>
</g>
<g opacity="0.78">
<path d="M378.482 223.227H361.215V230.144H378.482V223.227Z" fill="#A0A0A0"/>
</g>
<g opacity="0.87">
<path d="M353.017 242.348H335.75V249.265H353.017V242.348Z" fill="#A0A0A0"/>
</g>
<g opacity="0.82">
<path d="M327.267 248.309H310V255.226H327.267V248.309Z" fill="#A0A0A0"/>
</g>
<g opacity="0.36">
<path d="M634.167 277.121H616.934V312.8H634.167V277.121Z" fill="#3A37A6"/>
</g>
<g opacity="0.39">
<path d="M608.749 277.121H591.516V306.462H608.749V277.121Z" fill="#3A37A6"/>
</g>
<g opacity="0.33">
<path d="M583.077 277.121H565.844V289.092H583.077V277.121Z" fill="#3A37A6"/>
</g>
<g opacity="0.37">
<path d="M557.385 277.121H540.152V320.194H557.385V277.121Z" fill="#3A37A6"/>
</g>
<g opacity="0.42">
<path d="M531.96 277.121H514.727V327.94H531.96V277.121Z" fill="#3A37A6"/>
</g>
<g opacity="0.5">
<path d="M506.264 277.121H489.031V307.636H506.264V277.121Z" fill="#3A37A6"/>
</g>
<g opacity="0.54">
<path d="M480.85 277.121H463.617V310.687H480.85V277.121Z" fill="#3A37A6"/>
</g>
<g opacity="0.54">
<path d="M455.131 277.121H437.898V319.02H455.131V277.121Z" fill="#3A37A6"/>
</g>
<g opacity="0.34">
<path d="M429.46 277.121H412.227V306.462H429.46V277.121Z" fill="#3A37A6"/>
</g>
<g opacity="0.55">
<path d="M404.053 277.121H386.82V326.766H404.053V277.121Z" fill="#3A37A6"/>
</g>
<g opacity="0.42">
<path d="M378.335 277.121H361.102V312.917H378.335V277.121Z" fill="#3A37A6"/>
</g>
<g opacity="0.54">
<path d="M352.928 277.121H335.695V293.904H352.928V277.121Z" fill="#3A37A6"/>
</g>
<g opacity="0.43">
<path d="M327.233 277.121H310V287.801H327.233V277.121Z" fill="#3A37A6"/>
</g>
<g opacity="0.77">
<path d="M634.167 317.938H616.934V324.862H634.167V317.938Z" fill="#3A37A6"/>
</g>
<g opacity="0.9">
<path d="M608.749 311.641H591.516V318.565H608.749V311.641Z" fill="#3A37A6"/>
</g>
<g opacity="0.77">
<path d="M583.077 294.262H565.844V301.186H583.077V294.262Z" fill="#3A37A6"/>
</g>
<g opacity="0.86">
<path d="M557.385 325.484H540.152V332.409H557.385V325.484Z" fill="#3A37A6"/>
</g>
<g opacity="0.96">
<path d="M531.96 333.195H514.727V340.12H531.96V333.195Z" fill="#3A37A6"/>
</g>
<g opacity="0.82">
<path d="M506.264 312.781H489.031V319.706H506.264V312.781Z" fill="#3A37A6"/>
</g>
<path d="M480.858 315.852H463.625V322.776H480.858V315.852Z" fill="#3A37A6"/>
<g opacity="0.83">
<path d="M455.131 324.199H437.898V331.124H455.131V324.199Z" fill="#3A37A6"/>
</g>
<g opacity="0.82">
<path d="M429.46 311.641H412.227V318.565H429.46V311.641Z" fill="#3A37A6"/>
</g>
<g opacity="0.72">
<path d="M404.053 332.039H386.82V338.964H404.053V332.039Z" fill="#3A37A6"/>
</g>
<g opacity="0.78">
<path d="M378.335 318.195H361.102V325.12H378.335V318.195Z" fill="#3A37A6"/>
</g>
<g opacity="0.87">
<path d="M352.928 299.094H335.695V306.018H352.928V299.094Z" fill="#3A37A6"/>
</g>
<g opacity="0.82">
<path d="M327.233 293.07H310V299.995H327.233V293.07Z" fill="#3A37A6"/>
</g>
<g opacity="0.36">
<path d="M634.167 234.539H616.934V270.218H634.167V234.539Z" fill="#3A37A6"/>
</g>
<g opacity="0.39">
<path d="M608.749 240.844H591.516V270.185H608.749V240.844Z" fill="#3A37A6"/>
</g>
<g opacity="0.33">
<path d="M583.077 258.086H565.844V270.057H583.077V258.086Z" fill="#3A37A6"/>
</g>
<g opacity="0.37">
<path d="M557.385 227.02H540.152V270.092H557.385V227.02Z" fill="#3A37A6"/>
</g>
<g opacity="0.42">
<path d="M531.96 219.258H514.727V270.077H531.96V219.258Z" fill="#3A37A6"/>
</g>
<g opacity="0.5">
<path d="M506.264 239.57H489.031V270.085H506.264V239.57Z" fill="#3A37A6"/>
</g>
<g opacity="0.54">
<path d="M480.85 236.637H463.617V270.203H480.85V236.637Z" fill="#3A37A6"/>
</g>
<g opacity="0.54">
<path d="M455.131 228.168H437.898V270.067H455.131V228.168Z" fill="#3A37A6"/>
</g>
<g opacity="0.34">
<path d="M429.46 240.844H412.227V270.185H429.46V240.844Z" fill="#3A37A6"/>
</g>
<g opacity="0.55">
<path d="M404.053 220.438H386.82V270.083H404.053V220.438Z" fill="#3A37A6"/>
</g>
<g opacity="0.42">
<path d="M378.335 234.297H361.102V270.093H378.335V234.297Z" fill="#3A37A6"/>
</g>
<g opacity="0.54">
<path d="M352.928 253.453H335.695V270.236H352.928V253.453Z" fill="#3A37A6"/>
</g>
<g opacity="0.43">
<path d="M327.233 259.379H310V270.059H327.233V259.379Z" fill="#3A37A6"/>
</g>
<g opacity="0.77">
<path d="M634.167 222.344H616.934V229.268H634.167V222.344Z" fill="#3A37A6"/>
</g>
<g opacity="0.9">
<path d="M608.749 228.652H591.516V235.577H608.749V228.652Z" fill="#3A37A6"/>
</g>
<g opacity="0.77">
<path d="M583.077 245.895H565.844V252.819H583.077V245.895Z" fill="#3A37A6"/>
</g>
<g opacity="0.86">
<path d="M557.385 214.809H540.152V221.733H557.385V214.809Z" fill="#3A37A6"/>
</g>
<g opacity="0.96">
<path d="M531.96 207.062H514.727V213.987H531.96V207.062Z" fill="#3A37A6"/>
</g>
<path d="M480.858 224.426H463.625V231.35H480.858V224.426Z" fill="#3A37A6"/>
<g opacity="0.83">
<path d="M455.131 215.977H437.898V222.901H455.131V215.977Z" fill="#3A37A6"/>
</g>
<g opacity="0.82">
<path d="M429.46 228.652H412.227V235.577H429.46V228.652Z" fill="#3A37A6"/>
</g>
<g opacity="0.72">
<path d="M404.053 208.238H386.82V215.163H404.053V208.238Z" fill="#3A37A6"/>
</g>
<g opacity="0.78">
<path d="M378.335 222.098H361.102V229.022H378.335V222.098Z" fill="#3A37A6"/>
</g>
<g opacity="0.87">
<path d="M352.928 241.238H335.695V248.163H352.928V241.238Z" fill="#3A37A6"/>
</g>
<g opacity="0.82">
<path d="M327.233 247.223H310V254.147H327.233V247.223Z" fill="#3A37A6"/>
</g>
<g filter="url(#filter9_b_221_7147)">
<rect x="608" y="211" width="130.654" height="128" rx="64" fill="url(#paint1_linear_221_7147)"/>
</g>
<path d="M660.25 274.998V268.461C660.25 260.025 666.336 256.624 673.775 260.82L679.545 264.089L685.316 267.357C692.755 271.553 692.755 278.443 685.316 282.639L679.545 285.907L673.775 289.175C666.336 293.371 660.25 289.926 660.25 281.534V274.998Z" fill="white" stroke="white" stroke-width="1.5" stroke-miterlimit="10" stroke-linecap="round" stroke-linejoin="round"/>
<path d="M673.325 319.167C698.223 319.167 718.407 299.393 718.407 275C718.407 250.607 698.223 230.833 673.325 230.833C648.426 230.833 628.242 250.607 628.242 275C628.242 299.393 648.426 319.167 673.325 319.167Z" stroke="white" stroke-width="1.5" stroke-linecap="round" stroke-linejoin="round"/>
</g>
<rect x="-35863" y="-1528" width="111456" height="6743" stroke="#262626" stroke-width="20"/>
<defs>
<filter id="filter0_d_221_7147" x="-442" y="-110" width="446" height="885" filterUnits="userSpaceOnUse" color-interpolation-filters="sRGB">
<feFlood flood-opacity="0" result="BackgroundImageFix"/>
<feColorMatrix in="SourceAlpha" type="matrix" values="0 0 0 0 0 0 0 0 0 0 0 0 0 0 0 0 0 0 127 0" result="hardAlpha"/>
<feMorphology radius="3" operator="dilate" in="SourceAlpha" result="effect1_dropShadow_221_7147"/>
<feOffset dy="7"/>
<feGaussianBlur stdDeviation="7"/>
<feComposite in2="hardAlpha" operator="out"/>
<feColorMatrix type="matrix" values="0 0 0 0 0 0 0 0 0 0 0 0 0 0 0 0 0 0 0.03 0"/>
<feBlend mode="normal" in2="BackgroundImageFix" result="effect1_dropShadow_221_7147"/>
<feBlend mode="normal" in="SourceGraphic" in2="effect1_dropShadow_221_7147" result="shape"/>
</filter>
<filter id="filter1_d_221_7147" x="0" y="0" width="1331" height="584" filterUnits="userSpaceOnUse" color-interpolation-filters="sRGB">
<feFlood flood-opacity="0" result="BackgroundImageFix"/>
<feColorMatrix in="SourceAlpha" type="matrix" values="0 0 0 0 0 0 0 0 0 0 0 0 0 0 0 0 0 0 127 0" result="hardAlpha"/>
<feMorphology radius="3" operator="dilate" in="SourceAlpha" result="effect1_dropShadow_221_7147"/>
<feOffset dy="7"/>
<feGaussianBlur stdDeviation="7"/>
<feComposite in2="hardAlpha" operator="out"/>
<feColorMatrix type="matrix" values="0 0 0 0 0 0 0 0 0 0 0 0 0 0 0 0 0 0 0.03 0"/>
<feBlend mode="normal" in2="BackgroundImageFix" result="effect1_dropShadow_221_7147"/>
<feBlend mode="normal" in="SourceGraphic" in2="effect1_dropShadow_221_7147" result="shape"/>
</filter>
<filter id="filter2_b_221_7147" x="591" y="220" width="150" height="150" filterUnits="userSpaceOnUse" color-interpolation-filters="sRGB">
<feFlood flood-opacity="0" result="BackgroundImageFix"/>
<feGaussianBlur in="BackgroundImageFix" stdDeviation="12.5"/>
<feComposite in2="SourceAlpha" operator="in" result="effect1_backgroundBlur_221_7147"/>
<feBlend mode="normal" in="SourceGraphic" in2="effect1_backgroundBlur_221_7147" result="shape"/>
</filter>
<filter id="filter3_d_221_7147" x="127" y="580" width="114" height="144" filterUnits="userSpaceOnUse" color-interpolation-filters="sRGB">
<feFlood flood-opacity="0" result="BackgroundImageFix"/>
<feColorMatrix in="SourceAlpha" type="matrix" values="0 0 0 0 0 0 0 0 0 0 0 0 0 0 0 0 0 0 127 0" result="hardAlpha"/>
<feMorphology radius="3" operator="dilate" in="SourceAlpha" result="effect1_dropShadow_221_7147"/>
<feOffset dy="7"/>
<feGaussianBlur stdDeviation="7"/>
<feComposite in2="hardAlpha" operator="out"/>
<feColorMatrix type="matrix" values="0 0 0 0 0 0 0 0 0 0 0 0 0 0 0 0 0 0 0.03 0"/>
<feBlend mode="normal" in2="BackgroundImageFix" result="effect1_dropShadow_221_7147"/>
<feBlend mode="normal" in="SourceGraphic" in2="effect1_dropShadow_221_7147" result="shape"/>
</filter>
<filter id="filter4_d_221_7147" x="341" y="580" width="114" height="144" filterUnits="userSpaceOnUse" color-interpolation-filters="sRGB">
<feFlood flood-opacity="0" result="BackgroundImageFix"/>
<feColorMatrix in="SourceAlpha" type="matrix" values="0 0 0 0 0 0 0 0 0 0 0 0 0 0 0 0 0 0 127 0" result="hardAlpha"/>
<feMorphology radius="3" operator="dilate" in="SourceAlpha" result="effect1_dropShadow_221_7147"/>
<feOffset dy="7"/>
<feGaussianBlur stdDeviation="7"/>
<feComposite in2="hardAlpha" operator="out"/>
<feColorMatrix type="matrix" values="0 0 0 0 0 0 0 0 0 0 0 0 0 0 0 0 0 0 0.03 0"/>
<feBlend mode="normal" in2="BackgroundImageFix" result="effect1_dropShadow_221_7147"/>
<feBlend mode="normal" in="SourceGraphic" in2="effect1_dropShadow_221_7147" result="shape"/>
</filter>
<filter id="filter5_d_221_7147" x="983" y="580" width="114" height="144" filterUnits="userSpaceOnUse" color-interpolation-filters="sRGB">
<feFlood flood-opacity="0" result="BackgroundImageFix"/>
<feColorMatrix in="SourceAlpha" type="matrix" values="0 0 0 0 0 0 0 0 0 0 0 0 0 0 0 0 0 0 127 0" result="hardAlpha"/>
<feMorphology radius="3" operator="dilate" in="SourceAlpha" result="effect1_dropShadow_221_7147"/>
<feOffset dy="7"/>
<feGaussianBlur stdDeviation="7"/>
<feComposite in2="hardAlpha" operator="out"/>
<feColorMatrix type="matrix" values="0 0 0 0 0 0 0 0 0 0 0 0 0 0 0 0 0 0 0.03 0"/>
<feBlend mode="normal" in2="BackgroundImageFix" result="effect1_dropShadow_221_7147"/>
<feBlend mode="normal" in="SourceGraphic" in2="effect1_dropShadow_221_7147" result="shape"/>
</filter>
<filter id="filter6_d_221_7147" x="769" y="580" width="114" height="144" filterUnits="userSpaceOnUse" color-interpolation-filters="sRGB">
<feFlood flood-opacity="0" result="BackgroundImageFix"/>
<feColorMatrix in="SourceAlpha" type="matrix" values="0 0 0 0 0 0 0 0 0 0 0 0 0 0 0 0 0 0 127 0" result="hardAlpha"/>
<feMorphology radius="3" operator="dilate" in="SourceAlpha" result="effect1_dropShadow_221_7147"/>
<feOffset dy="7"/>
<feGaussianBlur stdDeviation="7"/>
<feComposite in2="hardAlpha" operator="out"/>
<feColorMatrix type="matrix" values="0 0 0 0 0 0 0 0 0 0 0 0 0 0 0 0 0 0 0.03 0"/>
<feBlend mode="normal" in2="BackgroundImageFix" result="effect1_dropShadow_221_7147"/>
<feBlend mode="normal" in="SourceGraphic" in2="effect1_dropShadow_221_7147" result="shape"/>
</filter>
<filter id="filter7_d_221_7147" x="1090" y="580" width="114" height="144" filterUnits="userSpaceOnUse" color-interpolation-filters="sRGB">
<feFlood flood-opacity="0" result="BackgroundImageFix"/>
<feColorMatrix in="SourceAlpha" type="matrix" values="0 0 0 0 0 0 0 0 0 0 0 0 0 0 0 0 0 0 127 0" result="hardAlpha"/>
<feMorphology radius="3" operator="dilate" in="SourceAlpha" result="effect1_dropShadow_221_7147"/>
<feOffset dy="7"/>
<feGaussianBlur stdDeviation="7"/>
<feComposite in2="hardAlpha" operator="out"/>
<feColorMatrix type="matrix" values="0 0 0 0 0 0 0 0 0 0 0 0 0 0 0 0 0 0 0.03 0"/>
<feBlend mode="normal" in2="BackgroundImageFix" result="effect1_dropShadow_221_7147"/>
<feBlend mode="normal" in="SourceGraphic" in2="effect1_dropShadow_221_7147" result="shape"/>
</filter>
<filter id="filter8_d_221_7147" x="448" y="580" width="114" height="144" filterUnits="userSpaceOnUse" color-interpolation-filters="sRGB">
<feFlood flood-opacity="0" result="BackgroundImageFix"/>
<feColorMatrix in="SourceAlpha" type="matrix" values="0 0 0 0 0 0 0 0 0 0 0 0 0 0 0 0 0 0 127 0" result="hardAlpha"/>
<feMorphology radius="3" operator="dilate" in="SourceAlpha" result="effect1_dropShadow_221_7147"/>
<feOffset dy="7"/>
<feGaussianBlur stdDeviation="7"/>
<feComposite in2="hardAlpha" operator="out"/>
<feColorMatrix type="matrix" values="0 0 0 0 0 0 0 0 0 0 0 0 0 0 0 0 0 0 0.03 0"/>
<feBlend mode="normal" in2="BackgroundImageFix" result="effect1_dropShadow_221_7147"/>
<feBlend mode="normal" in="SourceGraphic" in2="effect1_dropShadow_221_7147" result="shape"/>
</filter>
<filter id="filter9_b_221_7147" x="583" y="186" width="180.656" height="178" filterUnits="userSpaceOnUse" color-interpolation-filters="sRGB">
<feFlood flood-opacity="0" result="BackgroundImageFix"/>
<feGaussianBlur in="BackgroundImageFix" stdDeviation="12.5"/>
<feComposite in2="SourceAlpha" operator="in" result="effect1_backgroundBlur_221_7147"/>
<feBlend mode="normal" in="SourceGraphic" in2="effect1_backgroundBlur_221_7147" result="shape"/>
</filter>
<linearGradient id="paint0_linear_221_7147" x1="616" y1="245" x2="734.851" y2="278.78" gradientUnits="userSpaceOnUse">
<stop offset="0.0303834" stop-color="white" stop-opacity="0.4"/>
<stop offset="0.960276" stop-color="white" stop-opacity="0"/>
</linearGradient>
<linearGradient id="paint1_linear_221_7147" x1="608" y1="211" x2="762.799" y2="255.91" gradientUnits="userSpaceOnUse">
<stop offset="0.0303834" stop-color="white" stop-opacity="0.4"/>
<stop offset="0.960276" stop-color="white" stop-opacity="0"/>
</linearGradient>
<clipPath id="clip0_221_7147">
<rect width="1920" height="1080" fill="white" transform="translate(-545 -299)"/>
</clipPath>
</defs>
</svg>
