<svg width="108" height="108" viewBox="0 0 108 108" fill="none" xmlns="http://www.w3.org/2000/svg">
<rect width="108" height="108" fill="#F3F2F3"/>
<g clip-path="url(#clip0_221_7147)">
<rect width="1920" height="1080" transform="translate(-846 -571)" fill="white"/>
<g filter="url(#filter0_d_221_7147)">
<rect x="-726" y="-381" width="1770" height="862" rx="10" fill="white"/>
<rect x="-725.5" y="-380.5" width="1769" height="861" rx="9.5" stroke="#EBEBEB"/>
</g>
<g filter="url(#filter1_d_221_7147)">
<rect x="14" y="10" width="80" height="80" rx="8" fill="url(#paint0_radial_221_7147)"/>
</g>
<path d="M38.256 77L34.336 67.2H36.058L38.396 73.15C38.508 73.4393 38.606 73.7007 38.69 73.934C38.7833 74.1673 38.8627 74.382 38.928 74.578C38.9933 74.7647 39.054 74.942 39.11 75.11C39.166 75.278 39.222 75.446 39.278 75.614L38.914 75.628C38.9793 75.404 39.0493 75.1707 39.124 74.928C39.1987 74.6853 39.2827 74.4193 39.376 74.13C39.4787 73.8407 39.6 73.514 39.74 73.15L41.91 67.2H43.674L39.726 77H38.256ZM45.2538 77V69.65H46.6958V77H45.2538ZM45.9538 68.026C45.6458 68.026 45.4078 67.9467 45.2398 67.788C45.0718 67.6293 44.9878 67.4053 44.9878 67.116C44.9878 66.8453 45.0718 66.626 45.2398 66.458C45.4171 66.29 45.6551 66.206 45.9538 66.206C46.2618 66.206 46.4998 66.2853 46.6678 66.444C46.8358 66.6027 46.9198 66.8267 46.9198 67.116C46.9198 67.3867 46.8311 67.606 46.6538 67.774C46.4858 67.942 46.2525 68.026 45.9538 68.026ZM51.9783 77.14C51.3063 77.14 50.7043 76.9767 50.1723 76.65C49.6496 76.314 49.2343 75.8613 48.9263 75.292C48.6183 74.7133 48.4643 74.0553 48.4643 73.318C48.4643 72.5807 48.6136 71.9273 48.9123 71.358C49.2203 70.7793 49.6356 70.3267 50.1583 70C50.681 69.664 51.2736 69.496 51.9363 69.496C52.3003 69.496 52.6503 69.5567 52.9863 69.678C53.3316 69.79 53.6396 69.9487 53.9103 70.154C54.181 70.35 54.391 70.5693 54.5403 70.812C54.699 71.0453 54.7783 71.2833 54.7783 71.526L54.3583 71.554V66.64H55.8003V77H54.3583V75.25H54.6383C54.6383 75.474 54.5636 75.698 54.4143 75.922C54.265 76.1367 54.0643 76.3373 53.8123 76.524C53.5696 76.7107 53.285 76.86 52.9583 76.972C52.641 77.084 52.3143 77.14 51.9783 77.14ZM52.1743 75.894C52.613 75.894 53.0003 75.782 53.3363 75.558C53.6723 75.334 53.9336 75.0307 54.1203 74.648C54.3163 74.256 54.4143 73.8127 54.4143 73.318C54.4143 72.8233 54.3163 72.3847 54.1203 72.002C53.9336 71.61 53.6723 71.302 53.3363 71.078C53.0003 70.854 52.613 70.742 52.1743 70.742C51.7356 70.742 51.3483 70.854 51.0123 71.078C50.6763 71.302 50.4103 71.61 50.2143 72.002C50.0276 72.3847 49.9343 72.8233 49.9343 73.318C49.9343 73.8127 50.0276 74.256 50.2143 74.648C50.4103 75.0307 50.6763 75.334 51.0123 75.558C51.3483 75.782 51.7356 75.894 52.1743 75.894ZM61.2153 77.14C60.4593 77.14 59.7873 76.9813 59.1993 76.664C58.6207 76.3373 58.1633 75.894 57.8273 75.334C57.5007 74.774 57.3373 74.13 57.3373 73.402C57.3373 72.8233 57.4307 72.296 57.6173 71.82C57.804 71.344 58.0607 70.9333 58.3873 70.588C58.7233 70.2333 59.12 69.9627 59.5773 69.776C60.044 69.58 60.548 69.482 61.0893 69.482C61.5653 69.482 62.0087 69.5753 62.4193 69.762C62.83 69.9393 63.1847 70.1867 63.4833 70.504C63.7913 70.8213 64.0247 71.1993 64.1833 71.638C64.3513 72.0673 64.4307 72.5387 64.4213 73.052L64.4073 73.668H58.4013L58.0793 72.52H63.1613L62.9513 72.758V72.422C62.9233 72.114 62.8207 71.8387 62.6433 71.596C62.466 71.3533 62.242 71.162 61.9713 71.022C61.7007 70.882 61.4067 70.812 61.0893 70.812C60.5853 70.812 60.1607 70.91 59.8153 71.106C59.47 71.2927 59.2087 71.5727 59.0313 71.946C58.854 72.31 58.7653 72.7627 58.7653 73.304C58.7653 73.8173 58.8727 74.2653 59.0873 74.648C59.302 75.0213 59.6053 75.3107 59.9973 75.516C60.3893 75.7213 60.842 75.824 61.3553 75.824C61.7193 75.824 62.0553 75.7633 62.3633 75.642C62.6807 75.5207 63.0213 75.3013 63.3853 74.984L64.1133 76.006C63.8893 76.23 63.614 76.426 63.2873 76.594C62.97 76.762 62.6293 76.8973 62.2653 77C61.9107 77.0933 61.5607 77.14 61.2153 77.14ZM69.2925 77.14C68.5738 77.14 67.9298 76.9767 67.3605 76.65C66.8005 76.314 66.3571 75.8613 66.0305 75.292C65.7038 74.7133 65.5405 74.0553 65.5405 73.318C65.5405 72.5807 65.7038 71.9273 66.0305 71.358C66.3571 70.7793 66.8005 70.3267 67.3605 70C67.9298 69.664 68.5738 69.496 69.2925 69.496C70.0018 69.496 70.6365 69.664 71.1965 70C71.7658 70.3267 72.2138 70.7793 72.5405 71.358C72.8671 71.9273 73.0305 72.5807 73.0305 73.318C73.0305 74.0553 72.8671 74.7133 72.5405 75.292C72.2138 75.8613 71.7658 76.314 71.1965 76.65C70.6365 76.9767 70.0018 77.14 69.2925 77.14ZM69.2925 75.824C69.7311 75.824 70.1231 75.7167 70.4685 75.502C70.8138 75.278 71.0845 74.9793 71.2805 74.606C71.4765 74.2233 71.5698 73.794 71.5605 73.318C71.5698 72.8327 71.4765 72.4033 71.2805 72.03C71.0845 71.6473 70.8138 71.3487 70.4685 71.134C70.1231 70.9193 69.7311 70.812 69.2925 70.812C68.8538 70.812 68.4571 70.924 68.1025 71.148C67.7571 71.3627 67.4865 71.6613 67.2905 72.044C67.0945 72.4173 67.0011 72.842 67.0105 73.318C67.0011 73.794 67.0945 74.2233 67.2905 74.606C67.4865 74.9793 67.7571 75.278 68.1025 75.502C68.4571 75.7167 68.8538 75.824 69.2925 75.824Z" fill="white"/>
<path d="M54.882 53.0333H44.3487C39.082 53.0333 37.332 49.5333 37.332 46.0167V31.9833C37.332 26.7167 39.082 24.9667 44.3487 24.9667H54.882C60.1487 24.9667 61.8987 26.7167 61.8987 31.9833V46.0167C61.8987 51.2833 60.132 53.0333 54.882 53.0333Z" stroke="white" stroke-width="1.5" stroke-linecap="round" stroke-linejoin="round"/>
<path d="M66.5318 47.5L61.8984 44.25V33.7333L66.5318 30.4833C68.7984 28.9 70.6651 29.8666 70.6651 32.65V45.35C70.6651 48.1333 68.7984 49.1 66.5318 47.5Z" stroke="white" stroke-width="1.5" stroke-linecap="round" stroke-linejoin="round"/>
<path d="M53.168 37.3334C54.5487 37.3334 55.668 36.2141 55.668 34.8334C55.668 33.4527 54.5487 32.3334 53.168 32.3334C51.7873 32.3334 50.668 33.4527 50.668 34.8334C50.668 36.2141 51.7873 37.3334 53.168 37.3334Z" stroke="white" stroke-width="1.5" stroke-linecap="round" stroke-linejoin="round"/>
<g filter="url(#filter2_d_221_7147)">
<rect x="119" y="10" width="80" height="80" rx="8" fill="url(#paint1_radial_221_7147)"/>
</g>
</g>
<rect x="-15561" y="-1800" width="111456" height="6743" stroke="#262626" stroke-width="20"/>
<defs>
<filter id="filter0_d_221_7147" x="-743" y="-391" width="1804" height="896" filterUnits="userSpaceOnUse" color-interpolation-filters="sRGB">
<feFlood flood-opacity="0" result="BackgroundImageFix"/>
<feColorMatrix in="SourceAlpha" type="matrix" values="0 0 0 0 0 0 0 0 0 0 0 0 0 0 0 0 0 0 127 0" result="hardAlpha"/>
<feMorphology radius="3" operator="dilate" in="SourceAlpha" result="effect1_dropShadow_221_7147"/>
<feOffset dy="7"/>
<feGaussianBlur stdDeviation="7"/>
<feComposite in2="hardAlpha" operator="out"/>
<feColorMatrix type="matrix" values="0 0 0 0 0 0 0 0 0 0 0 0 0 0 0 0 0 0 0.03 0"/>
<feBlend mode="normal" in2="BackgroundImageFix" result="effect1_dropShadow_221_7147"/>
<feBlend mode="normal" in="SourceGraphic" in2="effect1_dropShadow_221_7147" result="shape"/>
</filter>
<filter id="filter1_d_221_7147" x="0" y="0" width="108" height="108" filterUnits="userSpaceOnUse" color-interpolation-filters="sRGB">
<feFlood flood-opacity="0" result="BackgroundImageFix"/>
<feColorMatrix in="SourceAlpha" type="matrix" values="0 0 0 0 0 0 0 0 0 0 0 0 0 0 0 0 0 0 127 0" result="hardAlpha"/>
<feOffset dy="4"/>
<feGaussianBlur stdDeviation="7"/>
<feComposite in2="hardAlpha" operator="out"/>
<feColorMatrix type="matrix" values="0 0 0 0 0.34902 0 0 0 0 0.341176 0 0 0 0 0.584314 0 0 0 0.15 0"/>
<feBlend mode="normal" in2="BackgroundImageFix" result="effect1_dropShadow_221_7147"/>
<feBlend mode="normal" in="SourceGraphic" in2="effect1_dropShadow_221_7147" result="shape"/>
</filter>
<filter id="filter2_d_221_7147" x="105" y="0" width="108" height="108" filterUnits="userSpaceOnUse" color-interpolation-filters="sRGB">
<feFlood flood-opacity="0" result="BackgroundImageFix"/>
<feColorMatrix in="SourceAlpha" type="matrix" values="0 0 0 0 0 0 0 0 0 0 0 0 0 0 0 0 0 0 127 0" result="hardAlpha"/>
<feOffset dy="4"/>
<feGaussianBlur stdDeviation="7"/>
<feComposite in2="hardAlpha" operator="out"/>
<feColorMatrix type="matrix" values="0 0 0 0 0.34902 0 0 0 0 0.341176 0 0 0 0 0.584314 0 0 0 0.15 0"/>
<feBlend mode="normal" in2="BackgroundImageFix" result="effect1_dropShadow_221_7147"/>
<feBlend mode="normal" in="SourceGraphic" in2="effect1_dropShadow_221_7147" result="shape"/>
</filter>
<radialGradient id="paint0_radial_221_7147" cx="0" cy="0" r="1" gradientUnits="userSpaceOnUse" gradientTransform="translate(5.05263 2.63157) rotate(46.5131) scale(98.6572 59.0406)">
<stop stop-color="#AEBFF2"/>
<stop offset="1" stop-color="#94A2F2"/>
</radialGradient>
<radialGradient id="paint1_radial_221_7147" cx="0" cy="0" r="1" gradientUnits="userSpaceOnUse" gradientTransform="translate(110.053 2.63157) rotate(46.5131) scale(98.6572 59.0406)">
<stop stop-color="#AEBFF2"/>
<stop offset="1" stop-color="#94A2F2"/>
</radialGradient>
<clipPath id="clip0_221_7147">
<rect width="1920" height="1080" fill="white" transform="translate(-846 -571)"/>
</clipPath>
</defs>
</svg>
