<svg width="24" height="16" viewBox="0 0 24 16" fill="none" xmlns="http://www.w3.org/2000/svg">
<path d="M9.30077 0.206802C9.16112 0.225482 9.02927 0.281705 8.919 0.369303L0.598943 6.86935C0.410688 7.01716 0.300781 7.24332 0.300781 7.48272C0.300781 7.72212 0.410688 7.94826 0.598943 8.09628L8.919 14.5963H8.91918C9.07298 14.7162 9.26631 14.7741 9.46073 14.7585C9.65515 14.7429 9.83669 14.6551 9.96963 14.5122C10.1024 14.3694 10.1769 14.1819 10.1786 13.987V11.3951C11.9372 11.4118 17.986 11.7464 22.407 15.612C22.5798 15.7603 22.8091 15.8256 23.0344 15.7908C23.2594 15.756 23.4582 15.6243 23.5783 15.4306C23.6981 15.2369 23.7273 15.0002 23.6583 14.7832C21.4739 8.0533 14.9087 5.07442 10.179 3.78184V0.986867C10.1806 0.761975 10.0853 0.547242 9.91713 0.397778C9.749 0.248332 9.52466 0.178689 9.30139 0.206802H9.30077ZM8.61831 2.57941V4.36692C8.61831 4.53995 8.67562 4.70807 8.78154 4.84482C8.88745 4.98156 9.03581 5.07932 9.20339 5.12248C13.0252 6.09006 18.2055 8.25625 20.936 12.6625C15.7123 9.59349 9.85339 9.80354 9.35753 9.82694C9.15785 9.83746 8.96959 9.92415 8.83214 10.0694C8.69449 10.2145 8.61795 10.4069 8.61813 10.607V12.3863L2.34559 7.48714L8.61831 2.57941Z" fill="white"/>
</svg>
