<svg width="40" height="40" viewBox="0 0 40 40" fill="none" xmlns="http://www.w3.org/2000/svg">
<rect x="0.5" y="0.5" width="39" height="39" rx="7.5" fill="#E7EEF9" stroke="#E7EEF9"/>
<path d="M19.952 28.22C19.0573 28.22 18.236 28.11 17.488 27.89C16.74 27.6553 16.0653 27.3107 15.464 26.856C14.8627 26.4013 14.3273 25.8513 13.858 25.206L15.728 23.094C16.4467 24.0913 17.1507 24.7807 17.84 25.162C18.5293 25.5433 19.3067 25.734 20.172 25.734C20.6707 25.734 21.1253 25.6607 21.536 25.514C21.9467 25.3527 22.2693 25.14 22.504 24.876C22.7387 24.5973 22.856 24.282 22.856 23.93C22.856 23.6807 22.8047 23.4533 22.702 23.248C22.614 23.028 22.4747 22.8373 22.284 22.676C22.0933 22.5 21.8587 22.3387 21.58 22.192C21.3013 22.0453 20.986 21.9207 20.634 21.818C20.282 21.7153 19.8933 21.62 19.468 21.532C18.6613 21.3707 17.9573 21.158 17.356 20.894C16.7547 20.6153 16.2487 20.278 15.838 19.882C15.4273 19.4713 15.1267 19.0167 14.936 18.518C14.7453 18.0047 14.65 17.4253 14.65 16.78C14.65 16.1347 14.7893 15.5407 15.068 14.998C15.3613 14.4553 15.7573 13.986 16.256 13.59C16.7547 13.194 17.334 12.886 17.994 12.666C18.654 12.446 19.3653 12.336 20.128 12.336C20.9933 12.336 21.7633 12.4387 22.438 12.644C23.1273 12.8493 23.7287 13.1573 24.242 13.568C24.77 13.964 25.2027 14.448 25.54 15.02L23.648 16.89C23.3547 16.4353 23.0247 16.0613 22.658 15.768C22.2913 15.46 21.8953 15.2327 21.47 15.086C21.0447 14.9247 20.5973 14.844 20.128 14.844C19.6 14.844 19.138 14.9173 18.742 15.064C18.3607 15.2107 18.06 15.4233 17.84 15.702C17.62 15.966 17.51 16.2887 17.51 16.67C17.51 16.9633 17.576 17.2273 17.708 17.462C17.84 17.682 18.0233 17.88 18.258 18.056C18.5073 18.232 18.8227 18.386 19.204 18.518C19.5853 18.65 20.018 18.7673 20.502 18.87C21.3087 19.0313 22.0347 19.2513 22.68 19.53C23.3253 19.794 23.8753 20.1167 24.33 20.498C24.7847 20.8647 25.1293 21.29 25.364 21.774C25.5987 22.2433 25.716 22.7713 25.716 23.358C25.716 24.37 25.474 25.2427 24.99 25.976C24.5207 26.6947 23.8533 27.252 22.988 27.648C22.1227 28.0293 21.1107 28.22 19.952 28.22Z" fill="#3A37A6"/>
</svg>
