<svg width="40" height="40" viewBox="0 0 40 40" fill="none" xmlns="http://www.w3.org/2000/svg">
<rect width="40" height="40" rx="8" fill="#E7EEF9"/>
<path d="M26.8066 9.473C26.6565 9.32301 26.4784 9.20404 26.2824 9.12288C26.0864 9.04172 25.8763 8.99997 25.6642 9H12.3332C12.0268 8.99993 11.7234 9.06024 11.4403 9.17747C11.1571 9.2947 10.8999 9.46656 10.6832 9.68324C10.4666 9.89991 10.2947 10.1571 10.1775 10.4403C10.0602 10.7234 9.99993 11.0268 10 11.3332V27.6668C9.99993 27.9732 10.0602 28.2766 10.1775 28.5597C10.2947 28.8429 10.4666 29.1001 10.6832 29.3168C10.8999 29.5334 11.1571 29.7053 11.4403 29.8225C11.7234 29.9398 12.0268 30.0001 12.3332 30C12.3332 30 28.0485 30.0019 28.6668 30C29.285 29.9981 29.8774 29.7517 30.3146 29.3146C30.7517 28.8774 30.9981 28.285 31 27.6668V14.3358C31 14.1237 30.9583 13.9136 30.8771 13.7176C30.796 13.5216 30.677 13.3435 30.527 13.1934L26.8066 9.473ZM20.5 27.5769C19.861 27.5769 19.2364 27.3874 18.7051 27.0324C18.1738 26.6774 17.7597 26.1729 17.5152 25.5825C17.2706 24.9922 17.2066 24.3426 17.3313 23.7159C17.456 23.0892 17.7637 22.5135 18.2155 22.0617C18.6673 21.6098 19.243 21.3021 19.8697 21.1775C20.4964 21.0528 21.146 21.1168 21.7364 21.3613C22.3267 21.6058 22.8313 22.0199 23.1863 22.5512C23.5413 23.0825 23.7308 23.7072 23.7308 24.3462C23.7313 24.7706 23.6481 25.1909 23.4859 25.5831C23.3238 25.9754 23.0858 26.3317 22.7857 26.6318C22.4856 26.932 22.1292 27.1699 21.737 27.3321C21.3448 27.4943 20.9244 27.5775 20.5 27.5769ZM22.9231 16.2692H13.2308C13.0166 16.2692 12.8111 16.1841 12.6596 16.0327C12.5082 15.8812 12.4231 15.6758 12.4231 15.4615V12.2308C12.4231 12.0166 12.5082 11.8111 12.6596 11.6596C12.8111 11.5082 13.0166 11.4231 13.2308 11.4231H22.9231C23.1373 11.4231 23.3427 11.5082 23.4942 11.6596C23.6457 11.8111 23.7308 12.0166 23.7308 12.2308V15.4615C23.7308 15.6758 23.6457 15.8812 23.4942 16.0327C23.3427 16.1841 23.1373 16.2692 22.9231 16.2692Z" stroke="#3A37A6" stroke-width="1.5" stroke-linecap="round" stroke-linejoin="round"/>
</svg>
