<svg width="18" height="18" viewBox="0 0 18 18" fill="none" xmlns="http://www.w3.org/2000/svg">
<path d="M4.125 7.5C5.57475 7.5 6.75 6.32475 6.75 4.875C6.75 3.42525 5.57475 2.25 4.125 2.25C2.67525 2.25 1.5 3.42525 1.5 4.875C1.5 6.32475 2.67525 7.5 4.125 7.5Z" stroke="#3A37A6" stroke-width="1.5" stroke-linecap="round" stroke-linejoin="round"/>
<path d="M4.125 15.75C5.57475 15.75 6.75 14.5747 6.75 13.125C6.75 11.6753 5.57475 10.5 4.125 10.5C2.67525 10.5 1.5 11.6753 1.5 13.125C1.5 14.5747 2.67525 15.75 4.125 15.75Z" stroke="#3A37A6" stroke-width="1.5" stroke-linecap="round" stroke-linejoin="round"/>
<path d="M16.5008 4.5L6.48828 11.985" stroke="#3A37A6" stroke-width="1.5" stroke-linecap="round" stroke-linejoin="round"/>
<path d="M16.5008 13.4769L6.48828 5.98438" stroke="#3A37A6" stroke-width="1.5" stroke-linecap="round" stroke-linejoin="round"/>
</svg>
