<svg width="20" height="20" viewBox="0 0 20 20" fill="none" xmlns="http://www.w3.org/2000/svg">
<path fill-rule="evenodd" clip-rule="evenodd" d="M9.7614 0.833374C14.6839 0.833374 18.6879 4.83737 18.6879 9.75987C18.6879 12.0823 17.7966 14.2005 16.3382 15.7902L19.208 18.654C19.4766 18.9226 19.4775 19.3571 19.2089 19.6257C19.0751 19.7613 18.8982 19.8283 18.7222 19.8283C18.5471 19.8283 18.3711 19.7613 18.2364 19.6275L15.3319 16.7311C13.804 17.9547 11.8667 18.6873 9.7614 18.6873C4.8389 18.6873 0.833984 14.6824 0.833984 9.75987C0.833984 4.83737 4.8389 0.833374 9.7614 0.833374ZM9.7614 2.20837C5.59698 2.20837 2.20898 5.59546 2.20898 9.75987C2.20898 13.9243 5.59698 17.3123 9.7614 17.3123C13.9249 17.3123 17.3129 13.9243 17.3129 9.75987C17.3129 5.59546 13.9249 2.20837 9.7614 2.20837Z" fill="#A0A0A0"/>
</svg>
