<svg width="40" height="40" viewBox="0 0 40 40" fill="none" xmlns="http://www.w3.org/2000/svg">
<rect width="40" height="40" rx="8" fill="#E7EEF9"/>
<path d="M20 22.75C21.5188 22.75 22.75 21.5188 22.75 20C22.75 18.4812 21.5188 17.25 20 17.25C18.4812 17.25 17.25 18.4812 17.25 20C17.25 21.5188 18.4812 22.75 20 22.75Z" stroke="#3A37A6" stroke-width="1.5" stroke-miterlimit="10" stroke-linecap="round" stroke-linejoin="round"/>
<path d="M10.832 20.8066V19.1933C10.832 18.24 11.6112 17.4516 12.5737 17.4516C14.2329 17.4516 14.9112 16.2783 14.077 14.8391C13.6004 14.0141 13.8845 12.9416 14.7187 12.465L16.3045 11.5575C17.0287 11.1266 17.9637 11.3833 18.3945 12.1075L18.4954 12.2816C19.3204 13.7208 20.677 13.7208 21.5112 12.2816L21.612 12.1075C22.0429 11.3833 22.9779 11.1266 23.702 11.5575L25.2879 12.465C26.122 12.9416 26.4062 14.0141 25.9295 14.8391C25.0954 16.2783 25.7737 17.4516 27.4329 17.4516C28.3862 17.4516 29.1745 18.2308 29.1745 19.1933V20.8066C29.1745 21.76 28.3954 22.5483 27.4329 22.5483C25.7737 22.5483 25.0954 23.7216 25.9295 25.1608C26.4062 25.995 26.122 27.0583 25.2879 27.535L23.702 28.4425C22.9779 28.8733 22.0429 28.6166 21.612 27.8925L21.5112 27.7183C20.6862 26.2791 19.3295 26.2791 18.4954 27.7183L18.3945 27.8925C17.9637 28.6166 17.0287 28.8733 16.3045 28.4425L14.7187 27.535C13.8845 27.0583 13.6004 25.9858 14.077 25.1608C14.9112 23.7216 14.2329 22.5483 12.5737 22.5483C11.6112 22.5483 10.832 21.76 10.832 20.8066Z" stroke="#3A37A6" stroke-width="1.5" stroke-miterlimit="10" stroke-linecap="round" stroke-linejoin="round"/>
</svg>
