<svg width="84" height="84" viewBox="0 0 84 84" fill="none" xmlns="http://www.w3.org/2000/svg">
<g filter="url(#filter0_d_2758_270094)">
<rect x="17" y="10" width="50" height="50" rx="8" fill="white"/>
<rect x="17.5" y="10.5" width="49" height="49" rx="7.5" stroke="#EBEBEB"/>
</g>
<g opacity="0.49">
<path d="M62.1301 34.1992H61.1562V34.5114H62.1301V34.1992Z" fill="#A0A0A0"/>
</g>
<g opacity="0.4">
<path d="M53.3176 34.1992H52.3438V35.2819H53.3176V34.1992Z" fill="#A0A0A0"/>
</g>
<g opacity="0.4">
<path d="M60.552 34.1992H59.5781V35.2819H60.552V34.1992Z" fill="#A0A0A0"/>
</g>
<g opacity="0.43">
<path d="M51.8645 34.1992H50.8906V34.9431H51.8645V34.1992Z" fill="#A0A0A0"/>
</g>
<g opacity="0.31">
<path d="M50.427 34.1992H49.4531V35.7934H50.427V34.1992Z" fill="#A0A0A0"/>
</g>
<g opacity="0.6">
<path d="M48.9817 34.1992H48.0078V37.3144H48.9817V34.1992Z" fill="#A0A0A0"/>
</g>
<g opacity="0.6">
<path d="M47.5363 34.1992H46.5625V36.1985H47.5363V34.1992Z" fill="#A0A0A0"/>
</g>
<g opacity="0.6">
<path d="M59.0285 34.1992H58.0547V36.1985H59.0285V34.1992Z" fill="#A0A0A0"/>
</g>
<g opacity="0.39">
<path d="M46.0988 34.1992H45.125V36.5506H46.0988V34.1992Z" fill="#A0A0A0"/>
</g>
<g opacity="0.39">
<path d="M57.591 34.1992H56.6172V36.5506H57.591V34.1992Z" fill="#A0A0A0"/>
</g>
<g opacity="0.59">
<path d="M44.6457 34.1992H43.6719V35.7934H44.6457V34.1992Z" fill="#A0A0A0"/>
</g>
<g opacity="0.59">
<path d="M56.1457 34.1992H55.1719V35.7934H56.1457V34.1992Z" fill="#A0A0A0"/>
</g>
<g opacity="0.39">
<path d="M43.1926 34.1992H42.2188V35.242H43.1926V34.1992Z" fill="#A0A0A0"/>
</g>
<g opacity="0.39">
<path d="M54.716 34.1992H53.7422V35.242H54.716V34.1992Z" fill="#A0A0A0"/>
</g>
<g opacity="0.38">
<path d="M41.7551 34.1992H40.7812V36.8096H41.7551V34.1992Z" fill="#A0A0A0"/>
</g>
<g opacity="0.36">
<path d="M40.2863 34.1992H39.3125V36.2185H40.2863V34.1992Z" fill="#A0A0A0"/>
</g>
<g opacity="0.39">
<path d="M38.8645 34.1992H37.8906V35.8598H38.8645V34.1992Z" fill="#A0A0A0"/>
</g>
<g opacity="0.33">
<path d="M37.4113 34.1992H36.4375V34.8767H37.4113V34.1992Z" fill="#A0A0A0"/>
</g>
<g opacity="0.37">
<path d="M35.9738 34.1992H35V36.6369H35.9738V34.1992Z" fill="#A0A0A0"/>
</g>
<g opacity="0.42">
<path d="M34.5129 34.1992H33.5391V37.0753H34.5129V34.1992Z" fill="#A0A0A0"/>
</g>
<g opacity="0.5">
<path d="M33.0598 34.1992H32.0859V35.9262H33.0598V34.1992Z" fill="#A0A0A0"/>
</g>
<g opacity="0.54">
<path d="M31.6223 34.1992H30.6484V36.0989H31.6223V34.1992Z" fill="#A0A0A0"/>
</g>
<g opacity="0.54">
<path d="M30.1692 34.1992H29.1953V36.5705H30.1692V34.1992Z" fill="#A0A0A0"/>
</g>
<g opacity="0.34">
<path d="M28.7238 34.1992H27.75V35.8598H28.7238V34.1992Z" fill="#A0A0A0"/>
</g>
<g opacity="0.55">
<path d="M27.2942 34.1992H26.3203V37.0089H27.2942V34.1992Z" fill="#A0A0A0"/>
</g>
<g opacity="0.42">
<path d="M25.841 34.1992H24.8672V36.2251H25.841V34.1992Z" fill="#A0A0A0"/>
</g>
<g opacity="0.54">
<path d="M24.4035 34.1992H23.4297V35.1491H24.4035V34.1992Z" fill="#A0A0A0"/>
</g>
<g opacity="0.43">
<path d="M22.9504 34.1992H21.9766V34.8037H22.9504V34.1992Z" fill="#A0A0A0"/>
</g>
<g opacity="0.74">
<path d="M62.1301 34.8984H61.1562V35.2106H62.1301V34.8984Z" fill="#A0A0A0"/>
</g>
<g opacity="0.7">
<path d="M53.3176 35.5742H52.3438V35.9661H53.3176V35.5742Z" fill="#A0A0A0"/>
</g>
<g opacity="0.7">
<path d="M60.552 35.5742H59.5781V35.9661H60.552V35.5742Z" fill="#A0A0A0"/>
</g>
<g opacity="0.73">
<path d="M51.8645 35.25H50.8906V35.6419H51.8645V35.25Z" fill="#A0A0A0"/>
</g>
<g opacity="0.73">
<path d="M50.427 36.0938H49.4531V36.4856H50.427V36.0938Z" fill="#A0A0A0"/>
</g>
<g opacity="0.73">
<path d="M48.9895 37.6055H48.0156V37.9974H48.9895V37.6055Z" fill="#A0A0A0"/>
</g>
<g opacity="0.72">
<path d="M47.5363 36.5039H46.5625V36.8958H47.5363V36.5039Z" fill="#A0A0A0"/>
</g>
<g opacity="0.72">
<path d="M59.0285 36.5039H58.0547V36.8958H59.0285V36.5039Z" fill="#A0A0A0"/>
</g>
<g opacity="0.88">
<path d="M46.0988 36.8477H45.125V37.2395H46.0988V36.8477Z" fill="#A0A0A0"/>
</g>
<g opacity="0.88">
<path d="M57.591 36.8477H56.6172V37.2395H57.591V36.8477Z" fill="#A0A0A0"/>
</g>
<g opacity="0.7">
<path d="M44.6457 36.0938H43.6719V36.4856H44.6457V36.0938Z" fill="#A0A0A0"/>
</g>
<g opacity="0.7">
<path d="M56.1457 36.0938H55.1719V36.4856H56.1457V36.0938Z" fill="#A0A0A0"/>
</g>
<g opacity="0.98">
<path d="M43.1926 35.5469H42.2188V35.9388H43.1926V35.5469Z" fill="#A0A0A0"/>
</g>
<g opacity="0.98">
<path d="M54.716 35.5469H53.7422V35.9388H54.716V35.5469Z" fill="#A0A0A0"/>
</g>
<g opacity="0.96">
<path d="M41.7551 37.1055H40.7812V37.4974H41.7551V37.1055Z" fill="#A0A0A0"/>
</g>
<g opacity="0.77">
<path d="M40.2863 36.5117H39.3125V36.9036H40.2863V36.5117Z" fill="#A0A0A0"/>
</g>
<g opacity="0.9">
<path d="M38.8645 36.1602H37.8906V36.552H38.8645V36.1602Z" fill="#A0A0A0"/>
</g>
<g opacity="0.77">
<path d="M37.4113 35.1719H36.4375V35.5638H37.4113V35.1719Z" fill="#A0A0A0"/>
</g>
<g opacity="0.86">
<path d="M35.9738 36.9414H35V37.3333H35.9738V36.9414Z" fill="#A0A0A0"/>
</g>
<g opacity="0.96">
<path d="M34.5129 37.3789H33.5391V37.7708H34.5129V37.3789Z" fill="#A0A0A0"/>
</g>
<g opacity="0.82">
<path d="M33.0598 36.2227H32.0859V36.6145H33.0598V36.2227Z" fill="#A0A0A0"/>
</g>
<path d="M31.6301 36.3984H30.6562V36.7903H31.6301V36.3984Z" fill="#A0A0A0"/>
<g opacity="0.83">
<path d="M30.1692 36.8633H29.1953V37.2552H30.1692V36.8633Z" fill="#A0A0A0"/>
</g>
<g opacity="0.82">
<path d="M28.7238 36.1602H27.75V36.552H28.7238V36.1602Z" fill="#A0A0A0"/>
</g>
<g opacity="0.72">
<path d="M27.2942 37.3164H26.3203V37.7083H27.2942V37.3164Z" fill="#A0A0A0"/>
</g>
<g opacity="0.78">
<path d="M25.841 36.5352H24.8672V36.927H25.841V36.5352Z" fill="#A0A0A0"/>
</g>
<g opacity="0.87">
<path d="M24.4035 35.4492H23.4297V35.8411H24.4035V35.4492Z" fill="#A0A0A0"/>
</g>
<g opacity="0.82">
<path d="M22.9504 35.1172H21.9766V35.5091H22.9504V35.1172Z" fill="#A0A0A0"/>
</g>
<g opacity="0.49">
<path d="M62.1301 33.4961H61.1562V33.8083H62.1301V33.4961Z" fill="#A0A0A0"/>
</g>
<g opacity="0.4">
<path d="M53.3176 32.7266H52.3438V33.8092H53.3176V32.7266Z" fill="#A0A0A0"/>
</g>
<g opacity="0.4">
<path d="M60.552 32.7266H59.5781V33.8092H60.552V32.7266Z" fill="#A0A0A0"/>
</g>
<g opacity="0.43">
<path d="M51.8645 33.0586H50.8906V33.8025H51.8645V33.0586Z" fill="#A0A0A0"/>
</g>
<g opacity="0.31">
<path d="M50.427 32.2148H49.4531V33.809H50.427V32.2148Z" fill="#A0A0A0"/>
</g>
<g opacity="0.6">
<path d="M48.9895 30.6914H48.0156V33.8066H48.9895V30.6914Z" fill="#A0A0A0"/>
</g>
<g opacity="0.6">
<path d="M47.5363 31.8125H46.5625V33.8118H47.5363V31.8125Z" fill="#A0A0A0"/>
</g>
<g opacity="0.6">
<path d="M59.0285 31.8125H58.0547V33.8118H59.0285V31.8125Z" fill="#A0A0A0"/>
</g>
<g opacity="0.39">
<path d="M46.0988 31.4648H45.125V33.8162H46.0988V31.4648Z" fill="#A0A0A0"/>
</g>
<g opacity="0.39">
<path d="M57.591 31.4648H56.6172V33.8162H57.591V31.4648Z" fill="#A0A0A0"/>
</g>
<g opacity="0.59">
<path d="M44.6457 32.2148H43.6719V33.809H44.6457V32.2148Z" fill="#A0A0A0"/>
</g>
<g opacity="0.59">
<path d="M56.1457 32.2148H55.1719V33.809H56.1457V32.2148Z" fill="#A0A0A0"/>
</g>
<g opacity="0.39">
<path d="M43.1926 32.7656H42.2188V33.8085H43.1926V32.7656Z" fill="#A0A0A0"/>
</g>
<g opacity="0.39">
<path d="M54.716 32.7656H53.7422V33.8085H54.716V32.7656Z" fill="#A0A0A0"/>
</g>
<g opacity="0.38">
<path d="M41.7551 31.1992H40.7812V33.8096H41.7551V31.1992Z" fill="#A0A0A0"/>
</g>
<g opacity="0.36">
<path d="M40.2863 31.7891H39.3125V33.8083H40.2863V31.7891Z" fill="#A0A0A0"/>
</g>
<g opacity="0.39">
<path d="M38.8645 32.1523H37.8906V33.8129H38.8645V32.1523Z" fill="#A0A0A0"/>
</g>
<g opacity="0.33">
<path d="M37.4113 33.1328H36.4375V33.8103H37.4113V33.1328Z" fill="#A0A0A0"/>
</g>
<g opacity="0.37">
<path d="M35.9738 31.3711H35V33.8088H35.9738V31.3711Z" fill="#A0A0A0"/>
</g>
<g opacity="0.42">
<path d="M34.5129 30.9375H33.5391V33.8136H34.5129V30.9375Z" fill="#A0A0A0"/>
</g>
<g opacity="0.5">
<path d="M33.0598 32.0781H32.0859V33.8051H33.0598V32.0781Z" fill="#A0A0A0"/>
</g>
<g opacity="0.54">
<path d="M31.6223 31.9219H30.6484V33.8216H31.6223V31.9219Z" fill="#A0A0A0"/>
</g>
<g opacity="0.54">
<path d="M30.1692 31.4297H29.1953V33.801H30.1692V31.4297Z" fill="#A0A0A0"/>
</g>
<g opacity="0.34">
<path d="M28.7238 32.1523H27.75V33.8129H28.7238V32.1523Z" fill="#A0A0A0"/>
</g>
<g opacity="0.55">
<path d="M27.2942 30.9961H26.3203V33.8058H27.2942V30.9961Z" fill="#A0A0A0"/>
</g>
<g opacity="0.42">
<path d="M25.841 31.7773H24.8672V33.8032H25.841V31.7773Z" fill="#A0A0A0"/>
</g>
<g opacity="0.54">
<path d="M24.4035 32.8594H23.4297V33.8092H24.4035V32.8594Z" fill="#A0A0A0"/>
</g>
<g opacity="0.43">
<path d="M22.9504 33.2031H21.9766V33.8076H22.9504V33.2031Z" fill="#A0A0A0"/>
</g>
<g opacity="0.74">
<path d="M62.1301 32.8047H61.1562V33.1169H62.1301V32.8047Z" fill="#A0A0A0"/>
</g>
<g opacity="0.7">
<path d="M53.3176 32.0391H52.3438V32.431H53.3176V32.0391Z" fill="#A0A0A0"/>
</g>
<g opacity="0.7">
<path d="M60.552 32.0391H59.5781V32.431H60.552V32.0391Z" fill="#A0A0A0"/>
</g>
<g opacity="0.73">
<path d="M51.8645 32.375H50.8906V32.7669H51.8645V32.375Z" fill="#A0A0A0"/>
</g>
<g opacity="0.73">
<path d="M50.427 31.5312H49.4531V31.9231H50.427V31.5312Z" fill="#A0A0A0"/>
</g>
<g opacity="0.73">
<path d="M48.9817 30H48.0078V30.3919H48.9817V30Z" fill="#A0A0A0"/>
</g>
<g opacity="0.72">
<path d="M47.5363 31.1211H46.5625V31.513H47.5363V31.1211Z" fill="#A0A0A0"/>
</g>
<g opacity="0.72">
<path d="M59.0285 31.1211H58.0547V31.513H59.0285V31.1211Z" fill="#A0A0A0"/>
</g>
<g opacity="0.88">
<path d="M46.0988 30.7695H45.125V31.1614H46.0988V30.7695Z" fill="#A0A0A0"/>
</g>
<g opacity="0.88">
<path d="M57.591 30.7695H56.6172V31.1614H57.591V30.7695Z" fill="#A0A0A0"/>
</g>
<g opacity="0.7">
<path d="M44.6457 31.5312H43.6719V31.9231H44.6457V31.5312Z" fill="#A0A0A0"/>
</g>
<g opacity="0.7">
<path d="M56.1457 31.5312H55.1719V31.9231H56.1457V31.5312Z" fill="#A0A0A0"/>
</g>
<g opacity="0.98">
<path d="M43.1926 32.0781H42.2188V32.47H43.1926V32.0781Z" fill="#A0A0A0"/>
</g>
<g opacity="0.98">
<path d="M54.716 32.0781H53.7422V32.47H54.716V32.0781Z" fill="#A0A0A0"/>
</g>
<g opacity="0.96">
<path d="M41.7551 30.5078H40.7812V30.8997H41.7551V30.5078Z" fill="#A0A0A0"/>
</g>
<g opacity="0.77">
<path d="M40.2863 31.1016H39.3125V31.4935H40.2863V31.1016Z" fill="#A0A0A0"/>
</g>
<g opacity="0.9">
<path d="M38.8645 31.4648H37.8906V31.8567H38.8645V31.4648Z" fill="#A0A0A0"/>
</g>
<g opacity="0.77">
<path d="M37.4113 32.4375H36.4375V32.8294H37.4113V32.4375Z" fill="#A0A0A0"/>
</g>
<g opacity="0.86">
<path d="M35.9738 30.6797H35V31.0716H35.9738V30.6797Z" fill="#A0A0A0"/>
</g>
<g opacity="0.96">
<path d="M34.5129 30.2422H33.5391V30.6341H34.5129V30.2422Z" fill="#A0A0A0"/>
</g>
<g opacity="0.82">
<path d="M33.0598 31.3906H32.0859V31.7825H33.0598V31.3906Z" fill="#A0A0A0"/>
</g>
<path d="M31.6301 31.2227H30.6562V31.6145H31.6301V31.2227Z" fill="#A0A0A0"/>
<g opacity="0.83">
<path d="M30.1692 30.7461H29.1953V31.138H30.1692V30.7461Z" fill="#A0A0A0"/>
</g>
<g opacity="0.82">
<path d="M28.7238 31.4648H27.75V31.8567H28.7238V31.4648Z" fill="#A0A0A0"/>
</g>
<g opacity="0.72">
<path d="M27.2942 30.3125H26.3203V30.7044H27.2942V30.3125Z" fill="#A0A0A0"/>
</g>
<g opacity="0.78">
<path d="M25.841 31.0938H24.8672V31.4856H25.841V31.0938Z" fill="#A0A0A0"/>
</g>
<g opacity="0.87">
<path d="M24.4035 32.1719H23.4297V32.5638H24.4035V32.1719Z" fill="#A0A0A0"/>
</g>
<g opacity="0.82">
<path d="M22.9504 32.5117H21.9766V32.9036H22.9504V32.5117Z" fill="#A0A0A0"/>
</g>
<g opacity="0.36">
<path d="M40.2531 34.1484H39.2812V36.1698H40.2531V34.1484Z" fill="#3A37A6"/>
</g>
<g opacity="0.39">
<path d="M38.8313 34.1484H37.8594V35.8107H38.8313V34.1484Z" fill="#3A37A6"/>
</g>
<g opacity="0.33">
<path d="M37.3781 34.1484H36.4062V34.8267H37.3781V34.1484Z" fill="#3A37A6"/>
</g>
<g opacity="0.37">
<path d="M35.925 34.1484H34.9531V36.5887H35.925V34.1484Z" fill="#3A37A6"/>
</g>
<g opacity="0.42">
<path d="M34.4953 34.1484H33.5234V37.0275H34.4953V34.1484Z" fill="#3A37A6"/>
</g>
<g opacity="0.5">
<path d="M33.0344 34.1484H32.0625V35.8772H33.0344V34.1484Z" fill="#3A37A6"/>
</g>
<g opacity="0.54">
<path d="M31.6125 34.1484H30.6406V36.0501H31.6125V34.1484Z" fill="#3A37A6"/>
</g>
<g opacity="0.54">
<path d="M30.1672 34.1484H29.1953V36.5222H30.1672V34.1484Z" fill="#3A37A6"/>
</g>
<g opacity="0.34">
<path d="M28.7141 34.1484H27.7422V35.8107H28.7141V34.1484Z" fill="#3A37A6"/>
</g>
<g opacity="0.55">
<path d="M27.2766 34.1484H26.3047V36.961H27.2766V34.1484Z" fill="#3A37A6"/>
</g>
<g opacity="0.42">
<path d="M25.8313 34.1484H24.8594V36.1764H25.8313V34.1484Z" fill="#3A37A6"/>
</g>
<g opacity="0.54">
<path d="M24.4016 34.1484H23.4297V35.0993H24.4016V34.1484Z" fill="#3A37A6"/>
</g>
<g opacity="0.43">
<path d="M22.9485 34.1484H21.9766V34.7535H22.9485V34.1484Z" fill="#3A37A6"/>
</g>
<g opacity="0.77">
<path d="M40.2531 36.4609H39.2812V36.8532H40.2531V36.4609Z" fill="#3A37A6"/>
</g>
<g opacity="0.9">
<path d="M38.8313 36.1016H37.8594V36.4939H38.8313V36.1016Z" fill="#3A37A6"/>
</g>
<g opacity="0.77">
<path d="M37.3781 35.1211H36.4062V35.5134H37.3781V35.1211Z" fill="#3A37A6"/>
</g>
<g opacity="0.86">
<path d="M35.925 36.8867H34.9531V37.279H35.925V36.8867Z" fill="#3A37A6"/>
</g>
<g opacity="0.96">
<path d="M34.4953 37.3203H33.5234V37.7126H34.4953V37.3203Z" fill="#3A37A6"/>
</g>
<g opacity="0.82">
<path d="M33.0344 36.1641H32.0625V36.5564H33.0344V36.1641Z" fill="#3A37A6"/>
</g>
<path d="M31.6047 36.3398H30.6328V36.7321H31.6047V36.3398Z" fill="#3A37A6"/>
<g opacity="0.83">
<path d="M30.1672 36.8203H29.1953V37.2126H30.1672V36.8203Z" fill="#3A37A6"/>
</g>
<g opacity="0.82">
<path d="M28.7141 36.1016H27.7422V36.4939H28.7141V36.1016Z" fill="#3A37A6"/>
</g>
<g opacity="0.72">
<path d="M27.2766 37.2617H26.3047V37.654H27.2766V37.2617Z" fill="#3A37A6"/>
</g>
<g opacity="0.78">
<path d="M25.8313 36.4805H24.8594V36.8728H25.8313V36.4805Z" fill="#3A37A6"/>
</g>
<g opacity="0.87">
<path d="M24.4016 35.3906H23.4297V35.7829H24.4016V35.3906Z" fill="#3A37A6"/>
</g>
<g opacity="0.82">
<path d="M22.9485 35.0547H21.9766V35.447H22.9485V35.0547Z" fill="#3A37A6"/>
</g>
<g opacity="0.36">
<path d="M40.2531 31.7344H39.2812V33.7557H40.2531V31.7344Z" fill="#3A37A6"/>
</g>
<g opacity="0.39">
<path d="M38.8313 32.0938H37.8594V33.756H38.8313V32.0938Z" fill="#3A37A6"/>
</g>
<g opacity="0.33">
<path d="M37.3781 33.0625H36.4062V33.7407H37.3781V33.0625Z" fill="#3A37A6"/>
</g>
<g opacity="0.37">
<path d="M35.925 31.3086H34.9531V33.7488H35.925V31.3086Z" fill="#3A37A6"/>
</g>
<g opacity="0.42">
<path d="M34.4953 30.8672H33.5234V33.7463H34.4953V30.8672Z" fill="#3A37A6"/>
</g>
<g opacity="0.5">
<path d="M33.0344 32.0156H32.0625V33.7444H33.0344V32.0156Z" fill="#3A37A6"/>
</g>
<g opacity="0.54">
<path d="M31.6125 31.8516H30.6406V33.7532H31.6125V31.8516Z" fill="#3A37A6"/>
</g>
<g opacity="0.54">
<path d="M30.1672 31.375H29.1953V33.7488H30.1672V31.375Z" fill="#3A37A6"/>
</g>
<g opacity="0.34">
<path d="M28.7141 32.0938H27.7422V33.756H28.7141V32.0938Z" fill="#3A37A6"/>
</g>
<g opacity="0.55">
<path d="M27.2766 30.9375H26.3047V33.7501H27.2766V30.9375Z" fill="#3A37A6"/>
</g>
<g opacity="0.42">
<path d="M25.8313 31.7227H24.8594V33.7507H25.8313V31.7227Z" fill="#3A37A6"/>
</g>
<g opacity="0.54">
<path d="M24.4016 32.8086H23.4297V33.7594H24.4016V32.8086Z" fill="#3A37A6"/>
</g>
<g opacity="0.43">
<path d="M22.9485 33.1406H21.9766V33.7457H22.9485V33.1406Z" fill="#3A37A6"/>
</g>
<g opacity="0.77">
<path d="M40.2531 31.043H39.2812V31.4353H40.2531V31.043Z" fill="#3A37A6"/>
</g>
<g opacity="0.9">
<path d="M38.8313 31.4023H37.8594V31.7946H38.8313V31.4023Z" fill="#3A37A6"/>
</g>
<g opacity="0.77">
<path d="M37.3781 32.375H36.4062V32.7673H37.3781V32.375Z" fill="#3A37A6"/>
</g>
<g opacity="0.86">
<path d="M35.925 30.6133H34.9531V31.0056H35.925V30.6133Z" fill="#3A37A6"/>
</g>
<g opacity="0.96">
<path d="M34.4953 30.1797H33.5234V30.572H34.4953V30.1797Z" fill="#3A37A6"/>
</g>
<path d="M31.6047 31.168H30.6328V31.5603H31.6047V31.168Z" fill="#3A37A6"/>
<g opacity="0.83">
<path d="M30.1672 30.6875H29.1953V31.0798H30.1672V30.6875Z" fill="#3A37A6"/>
</g>
<g opacity="0.82">
<path d="M28.7141 31.4023H27.7422V31.7946H28.7141V31.4023Z" fill="#3A37A6"/>
</g>
<g opacity="0.72">
<path d="M27.2766 30.2461H26.3047V30.6384H27.2766V30.2461Z" fill="#3A37A6"/>
</g>
<g opacity="0.78">
<path d="M25.8313 31.0273H24.8594V31.4196H25.8313V31.0273Z" fill="#3A37A6"/>
</g>
<g opacity="0.87">
<path d="M24.4016 32.1094H23.4297V32.5017H24.4016V32.1094Z" fill="#3A37A6"/>
</g>
<g opacity="0.82">
<path d="M22.9485 32.457H21.9766V32.8493H22.9485V32.457Z" fill="#3A37A6"/>
</g>
<circle cx="17" cy="35" r="15" fill="#94A2F2"/>
<path d="M16.696 40.14C15.968 40.14 15.3333 39.9813 14.792 39.664C14.2507 39.3373 13.7513 38.7867 13.294 38.012L14.666 37.144C14.8807 37.4893 15.1 37.7693 15.324 37.984C15.5573 38.1893 15.7907 38.3433 16.024 38.446C16.2667 38.5393 16.5233 38.586 16.794 38.586C17.102 38.586 17.382 38.5113 17.634 38.362C17.8953 38.2127 18.1007 38.0073 18.25 37.746C18.4087 37.4847 18.488 37.186 18.488 36.85C18.488 36.514 18.4227 36.2293 18.292 35.996C18.1707 35.7627 17.9887 35.5853 17.746 35.464C17.5127 35.3333 17.228 35.268 16.892 35.268C16.7427 35.268 16.584 35.2867 16.416 35.324C16.248 35.352 16.0707 35.3987 15.884 35.464C15.6973 35.52 15.492 35.59 15.268 35.674L14.82 34.484L17.606 31.404L18.026 31.81L13.896 31.782V30.172H19.65L19.986 30.844L16.766 34.358L16.346 33.896C16.4207 33.8587 16.542 33.826 16.71 33.798C16.8873 33.7607 17.0413 33.742 17.172 33.742C17.5827 33.742 17.9747 33.8213 18.348 33.98C18.7213 34.1293 19.0433 34.344 19.314 34.624C19.594 34.904 19.8133 35.2307 19.972 35.604C20.1307 35.968 20.21 36.3647 20.21 36.794C20.21 37.438 20.0513 38.012 19.734 38.516C19.426 39.0107 19.006 39.4073 18.474 39.706C17.942 39.9953 17.3493 40.14 16.696 40.14Z" fill="white"/>
<defs>
<filter id="filter0_d_2758_270094" x="0" y="0" width="84" height="84" filterUnits="userSpaceOnUse" color-interpolation-filters="sRGB">
<feFlood flood-opacity="0" result="BackgroundImageFix"/>
<feColorMatrix in="SourceAlpha" type="matrix" values="0 0 0 0 0 0 0 0 0 0 0 0 0 0 0 0 0 0 127 0" result="hardAlpha"/>
<feMorphology radius="3" operator="dilate" in="SourceAlpha" result="effect1_dropShadow_2758_270094"/>
<feOffset dy="7"/>
<feGaussianBlur stdDeviation="7"/>
<feComposite in2="hardAlpha" operator="out"/>
<feColorMatrix type="matrix" values="0 0 0 0 0 0 0 0 0 0 0 0 0 0 0 0 0 0 0.03 0"/>
<feBlend mode="normal" in2="BackgroundImageFix" result="effect1_dropShadow_2758_270094"/>
<feBlend mode="normal" in="SourceGraphic" in2="effect1_dropShadow_2758_270094" result="shape"/>
</filter>
</defs>
</svg>
