<svg width="40" height="40" viewBox="0 0 40 40" fill="none" xmlns="http://www.w3.org/2000/svg">
<rect width="40" height="40" rx="8" fill="#E7EEF9"/>
<path fill-rule="evenodd" clip-rule="evenodd" d="M22.2745 15.0132L17.284 17.8145C16.5779 16.7699 15.3825 16.0826 14.0281 16.0826C11.8609 16.0826 10.1016 17.842 10.1016 20.0092C10.1016 22.1763 11.8609 23.9357 14.0281 23.9357C15.3228 23.9357 16.472 23.3077 17.1877 22.3398L22.2106 25.1592C22.1087 25.5087 22.0539 25.8778 22.0539 26.2597C22.0539 28.4269 23.8133 30.1863 25.9805 30.1863C28.1476 30.1863 29.907 28.4269 29.907 26.2597C29.907 24.0925 28.1476 22.3332 25.9805 22.3332C24.757 22.3332 23.6633 22.894 22.9431 23.7722L17.8499 20.9135C17.9183 20.6231 17.9545 20.3203 17.9545 20.0091C17.9545 19.7581 17.9309 19.5126 17.8861 19.2747L23.081 16.3591C23.7991 17.1455 24.8327 17.6392 25.9807 17.6392C28.1478 17.6392 29.9072 15.8795 29.9072 13.7123C29.9072 11.5452 28.1478 9.78577 25.9807 9.78577C23.8135 9.78577 22.0541 11.5452 22.0541 13.7123C22.0541 14.1683 22.1318 14.6058 22.275 15.0131L22.2745 15.0132ZM25.9804 23.9015C27.2822 23.9015 28.3387 24.9581 28.3387 26.2598C28.3387 27.5613 27.2821 28.6181 25.9804 28.6181C24.6789 28.6181 23.6221 27.5613 23.6221 26.2598C23.6221 24.9579 24.6789 23.9015 25.9804 23.9015ZM14.0277 17.6509C15.3296 17.6509 16.386 18.7076 16.386 20.0093C16.386 21.3108 15.3294 22.3676 14.0277 22.3676C12.7262 22.3676 11.6694 21.3108 11.6694 20.0093C11.6694 18.7074 12.7262 17.6509 14.0277 17.6509V17.6509ZM25.9804 11.3542C27.2822 11.3542 28.3387 12.411 28.3387 13.7125C28.3387 15.0144 27.2821 16.0712 25.9804 16.0712C24.6789 16.0712 23.6221 15.0144 23.6221 13.7125C23.6221 12.411 24.6789 11.3542 25.9804 11.3542Z" fill="#3A37A6"/>
</svg>
