<svg width="920" height="604" viewBox="0 0 920 604" fill="none" xmlns="http://www.w3.org/2000/svg">
<g opacity="0.87" filter="url(#filter0_d_3394_254411)">
<rect x="17" y="10" width="886" height="570" rx="10" fill="white"/>
<rect x="17.5" y="10.5" width="885" height="569" rx="9.5" stroke="#EBEBEB"/>
</g>
<path d="M161.692 551V538.4H163.906L168.496 545.87L167.2 545.852L171.844 538.4H173.95V551H171.628V546.266C171.628 545.186 171.652 544.214 171.7 543.35C171.76 542.486 171.856 541.628 171.988 540.776L172.276 541.55L168.37 547.58H167.182L163.402 541.604L163.654 540.776C163.786 541.58 163.876 542.408 163.924 543.26C163.984 544.1 164.014 545.102 164.014 546.266V551H161.692ZM180.523 551.18C179.743 551.18 179.035 550.964 178.399 550.532C177.763 550.1 177.253 549.512 176.869 548.768C176.485 548.024 176.293 547.178 176.293 546.23C176.293 545.282 176.485 544.436 176.869 543.692C177.253 542.948 177.775 542.366 178.435 541.946C179.095 541.526 179.839 541.316 180.667 541.316C181.147 541.316 181.585 541.388 181.981 541.532C182.377 541.664 182.725 541.856 183.025 542.108C183.325 542.36 183.571 542.648 183.763 542.972C183.967 543.296 184.105 543.644 184.177 544.016L183.691 543.89V541.514H185.923V551H183.673V548.732L184.195 548.642C184.111 548.966 183.955 549.284 183.727 549.596C183.511 549.896 183.235 550.166 182.899 550.406C182.575 550.634 182.209 550.82 181.801 550.964C181.405 551.108 180.979 551.18 180.523 551.18ZM181.135 549.218C181.651 549.218 182.107 549.092 182.503 548.84C182.899 548.588 183.205 548.24 183.421 547.796C183.649 547.34 183.763 546.818 183.763 546.23C183.763 545.654 183.649 545.144 183.421 544.7C183.205 544.256 182.899 543.908 182.503 543.656C182.107 543.404 181.651 543.278 181.135 543.278C180.619 543.278 180.163 543.404 179.767 543.656C179.383 543.908 179.083 544.256 178.867 544.7C178.651 545.144 178.543 545.654 178.543 546.23C178.543 546.818 178.651 547.34 178.867 547.796C179.083 548.24 179.383 548.588 179.767 548.84C180.163 549.092 180.619 549.218 181.135 549.218ZM188.489 551V541.514H190.667L190.703 544.538L190.397 543.854C190.529 543.374 190.757 542.942 191.081 542.558C191.405 542.174 191.777 541.874 192.197 541.658C192.629 541.43 193.079 541.316 193.547 541.316C193.751 541.316 193.943 541.334 194.123 541.37C194.315 541.406 194.471 541.448 194.591 541.496L193.997 543.926C193.865 543.854 193.703 543.794 193.511 543.746C193.319 543.698 193.127 543.674 192.935 543.674C192.635 543.674 192.347 543.734 192.071 543.854C191.807 543.962 191.573 544.118 191.369 544.322C191.165 544.526 191.003 544.766 190.883 545.042C190.775 545.306 190.721 545.606 190.721 545.942V551H188.489ZM199.729 551.18C198.841 551.18 198.043 550.964 197.335 550.532C196.627 550.1 196.069 549.512 195.661 548.768C195.253 548.024 195.049 547.184 195.049 546.248C195.049 545.312 195.253 544.472 195.661 543.728C196.069 542.984 196.627 542.396 197.335 541.964C198.043 541.532 198.841 541.316 199.729 541.316C200.581 541.316 201.355 541.478 202.051 541.802C202.747 542.126 203.287 542.576 203.671 543.152L202.447 544.628C202.267 544.376 202.039 544.148 201.763 543.944C201.487 543.74 201.193 543.578 200.881 543.458C200.569 543.338 200.257 543.278 199.945 543.278C199.417 543.278 198.943 543.41 198.523 543.674C198.115 543.926 197.791 544.28 197.551 544.736C197.311 545.18 197.191 545.684 197.191 546.248C197.191 546.812 197.311 547.316 197.551 547.76C197.803 548.204 198.139 548.558 198.559 548.822C198.979 549.086 199.447 549.218 199.963 549.218C200.275 549.218 200.575 549.17 200.863 549.074C201.163 548.966 201.445 548.816 201.709 548.624C201.973 548.432 202.219 548.192 202.447 547.904L203.671 549.398C203.263 549.926 202.699 550.358 201.979 550.694C201.271 551.018 200.521 551.18 199.729 551.18ZM205.364 551V537.68H207.56V543.458L207.146 543.674C207.266 543.242 207.5 542.852 207.848 542.504C208.196 542.144 208.61 541.856 209.09 541.64C209.57 541.424 210.062 541.316 210.566 541.316C211.286 541.316 211.886 541.46 212.366 541.748C212.858 542.036 213.224 542.468 213.464 543.044C213.716 543.62 213.842 544.34 213.842 545.204V551H211.628V545.366C211.628 544.886 211.562 544.49 211.43 544.178C211.298 543.854 211.094 543.62 210.818 543.476C210.542 543.32 210.206 543.248 209.81 543.26C209.486 543.26 209.186 543.314 208.91 543.422C208.646 543.518 208.412 543.662 208.208 543.854C208.016 544.034 207.86 544.244 207.74 544.484C207.632 544.724 207.578 544.988 207.578 545.276V551H206.48C206.264 551 206.06 551 205.868 551C205.688 551 205.52 551 205.364 551ZM216.603 554.348L215.865 553.466C216.309 553.226 216.663 552.944 216.927 552.62C217.203 552.308 217.341 552.038 217.341 551.81C217.341 551.69 217.311 551.57 217.251 551.45C217.203 551.342 217.077 551.192 216.873 551C216.621 550.772 216.453 550.574 216.369 550.406C216.285 550.238 216.243 550.052 216.243 549.848C216.243 549.536 216.357 549.284 216.585 549.092C216.813 548.9 217.107 548.804 217.467 548.804C217.791 548.804 218.079 548.894 218.331 549.074C218.595 549.254 218.799 549.506 218.943 549.83C219.087 550.142 219.159 550.508 219.159 550.928C219.159 551.3 219.093 551.66 218.961 552.008C218.841 552.368 218.661 552.698 218.421 552.998C218.193 553.298 217.923 553.562 217.611 553.79C217.311 554.03 216.975 554.216 216.603 554.348ZM224.765 551.126C223.889 551.126 223.097 550.94 222.389 550.568C221.681 550.184 221.093 549.632 220.625 548.912L221.921 547.508C222.449 548.096 222.923 548.504 223.343 548.732C223.763 548.948 224.225 549.056 224.729 549.056C225.185 549.056 225.593 548.96 225.953 548.768C226.313 548.564 226.601 548.294 226.817 547.958C227.033 547.61 227.141 547.232 227.141 546.824C227.141 546.38 227.039 545.99 226.835 545.654C226.631 545.306 226.355 545.03 226.007 544.826C225.659 544.622 225.263 544.52 224.819 544.52C224.579 544.52 224.351 544.538 224.135 544.574C223.919 544.61 223.667 544.682 223.379 544.79C223.103 544.898 222.749 545.066 222.317 545.294L221.201 543.782L221.939 538.364H228.905V540.434H223.253L223.775 539.858L223.181 543.854L222.515 543.386C222.671 543.242 222.899 543.104 223.199 542.972C223.511 542.84 223.847 542.732 224.207 542.648C224.567 542.564 224.921 542.522 225.269 542.522C226.049 542.522 226.745 542.702 227.357 543.062C227.969 543.422 228.455 543.92 228.815 544.556C229.175 545.18 229.355 545.9 229.355 546.716C229.355 547.544 229.151 548.294 228.743 548.966C228.347 549.626 227.801 550.154 227.105 550.55C226.409 550.934 225.629 551.126 224.765 551.126ZM231.949 554.348L231.211 553.466C231.655 553.226 232.009 552.944 232.273 552.62C232.549 552.308 232.687 552.038 232.687 551.81C232.687 551.69 232.657 551.57 232.597 551.45C232.549 551.342 232.423 551.192 232.219 551C231.967 550.772 231.799 550.574 231.715 550.406C231.631 550.238 231.589 550.052 231.589 549.848C231.589 549.536 231.703 549.284 231.931 549.092C232.159 548.9 232.453 548.804 232.813 548.804C233.137 548.804 233.425 548.894 233.677 549.074C233.941 549.254 234.145 549.506 234.289 549.83C234.433 550.142 234.505 550.508 234.505 550.928C234.505 551.3 234.439 551.66 234.307 552.008C234.187 552.368 234.007 552.698 233.767 552.998C233.539 553.298 233.269 553.562 232.957 553.79C232.657 554.03 232.321 554.216 231.949 554.348ZM236.78 551L236.186 549.524L239.966 545.294C240.182 545.078 240.404 544.832 240.632 544.556C240.86 544.268 241.076 543.974 241.28 543.674C241.496 543.362 241.67 543.062 241.802 542.774C241.934 542.474 242 542.198 242 541.946C242 541.622 241.928 541.34 241.784 541.1C241.652 540.86 241.46 540.674 241.208 540.542C240.956 540.41 240.644 540.344 240.272 540.344C239.948 540.344 239.63 540.44 239.318 540.632C239.018 540.812 238.736 541.076 238.472 541.424C238.22 541.76 238.01 542.162 237.842 542.63L236.078 541.586C236.294 540.89 236.618 540.29 237.05 539.786C237.494 539.27 238.01 538.874 238.598 538.598C239.198 538.322 239.846 538.184 240.542 538.184C241.262 538.184 241.904 538.334 242.468 538.634C243.032 538.934 243.476 539.348 243.8 539.876C244.136 540.404 244.304 541.022 244.304 541.73C244.304 541.994 244.274 542.27 244.214 542.558C244.154 542.834 244.058 543.128 243.926 543.44C243.806 543.74 243.644 544.058 243.44 544.394C243.236 544.718 242.99 545.06 242.702 545.42C242.426 545.78 242.108 546.158 241.748 546.554L238.886 549.668L238.526 548.84H244.754V551H236.78ZM250.854 551.18C249.834 551.18 248.958 550.922 248.226 550.406C247.506 549.878 246.948 549.134 246.552 548.174C246.168 547.202 245.976 546.044 245.976 544.7C245.976 543.356 246.168 542.204 246.552 541.244C246.948 540.272 247.506 539.528 248.226 539.012C248.958 538.484 249.834 538.22 250.854 538.22C251.874 538.22 252.75 538.484 253.482 539.012C254.214 539.528 254.772 540.272 255.156 541.244C255.552 542.204 255.75 543.356 255.75 544.7C255.75 546.044 255.552 547.202 255.156 548.174C254.772 549.134 254.214 549.878 253.482 550.406C252.75 550.922 251.874 551.18 250.854 551.18ZM250.854 549.128C251.694 549.128 252.342 548.744 252.798 547.976C253.266 547.196 253.5 546.104 253.5 544.7C253.5 543.284 253.266 542.186 252.798 541.406C252.342 540.626 251.694 540.236 250.854 540.236C250.014 540.236 249.36 540.626 248.892 541.406C248.436 542.186 248.208 543.284 248.208 544.7C248.208 546.104 248.436 547.196 248.892 547.976C249.36 548.744 250.014 549.128 250.854 549.128ZM257.997 551L257.403 549.524L261.183 545.294C261.399 545.078 261.621 544.832 261.849 544.556C262.077 544.268 262.293 543.974 262.497 543.674C262.713 543.362 262.887 543.062 263.019 542.774C263.151 542.474 263.217 542.198 263.217 541.946C263.217 541.622 263.145 541.34 263.001 541.1C262.869 540.86 262.677 540.674 262.425 540.542C262.173 540.41 261.861 540.344 261.489 540.344C261.165 540.344 260.847 540.44 260.535 540.632C260.235 540.812 259.953 541.076 259.689 541.424C259.437 541.76 259.227 542.162 259.059 542.63L257.295 541.586C257.511 540.89 257.835 540.29 258.267 539.786C258.711 539.27 259.227 538.874 259.815 538.598C260.415 538.322 261.063 538.184 261.759 538.184C262.479 538.184 263.121 538.334 263.685 538.634C264.249 538.934 264.693 539.348 265.017 539.876C265.353 540.404 265.521 541.022 265.521 541.73C265.521 541.994 265.491 542.27 265.431 542.558C265.371 542.834 265.275 543.128 265.143 543.44C265.023 543.74 264.861 544.058 264.657 544.394C264.453 544.718 264.207 545.06 263.919 545.42C263.643 545.78 263.325 546.158 262.965 546.554L260.103 549.668L259.743 548.84H265.971V551H257.997ZM267.858 551L267.264 549.524L271.044 545.294C271.26 545.078 271.482 544.832 271.71 544.556C271.938 544.268 272.154 543.974 272.358 543.674C272.574 543.362 272.748 543.062 272.88 542.774C273.012 542.474 273.078 542.198 273.078 541.946C273.078 541.622 273.006 541.34 272.862 541.1C272.73 540.86 272.538 540.674 272.286 540.542C272.034 540.41 271.722 540.344 271.35 540.344C271.026 540.344 270.708 540.44 270.396 540.632C270.096 540.812 269.814 541.076 269.55 541.424C269.298 541.76 269.088 542.162 268.92 542.63L267.156 541.586C267.372 540.89 267.696 540.29 268.128 539.786C268.572 539.27 269.088 538.874 269.676 538.598C270.276 538.322 270.924 538.184 271.62 538.184C272.34 538.184 272.982 538.334 273.546 538.634C274.11 538.934 274.554 539.348 274.878 539.876C275.214 540.404 275.382 541.022 275.382 541.73C275.382 541.994 275.352 542.27 275.292 542.558C275.232 542.834 275.136 543.128 275.004 543.44C274.884 543.74 274.722 544.058 274.518 544.394C274.314 544.718 274.068 545.06 273.78 545.42C273.504 545.78 273.186 546.158 272.826 546.554L269.964 549.668L269.604 548.84H275.832V551H267.858Z" fill="#3A37A6"/>
<rect x="47" y="520" width="8" height="826" rx="4" transform="rotate(-90 47 520)" fill="#CEDEF2"/>
<rect x="47" y="520" width="8" height="45.8358" rx="4" transform="rotate(-90 47 520)" fill="#3A37A6"/>
<path d="M52.67 551.18C51.65 551.18 50.774 550.922 50.042 550.406C49.322 549.878 48.764 549.134 48.368 548.174C47.984 547.202 47.792 546.044 47.792 544.7C47.792 543.356 47.984 542.204 48.368 541.244C48.764 540.272 49.322 539.528 50.042 539.012C50.774 538.484 51.65 538.22 52.67 538.22C53.69 538.22 54.566 538.484 55.298 539.012C56.03 539.528 56.588 540.272 56.972 541.244C57.368 542.204 57.566 543.356 57.566 544.7C57.566 546.044 57.368 547.202 56.972 548.174C56.588 549.134 56.03 549.878 55.298 550.406C54.566 550.922 53.69 551.18 52.67 551.18ZM52.67 549.128C53.51 549.128 54.158 548.744 54.614 547.976C55.082 547.196 55.316 546.104 55.316 544.7C55.316 543.284 55.082 542.186 54.614 541.406C54.158 540.626 53.51 540.236 52.67 540.236C51.83 540.236 51.176 540.626 50.708 541.406C50.252 542.186 50.024 543.284 50.024 544.7C50.024 546.104 50.252 547.196 50.708 547.976C51.176 548.744 51.83 549.128 52.67 549.128ZM64.0255 551.18C63.0055 551.18 62.1295 550.922 61.3975 550.406C60.6775 549.878 60.1195 549.134 59.7235 548.174C59.3395 547.202 59.1475 546.044 59.1475 544.7C59.1475 543.356 59.3395 542.204 59.7235 541.244C60.1195 540.272 60.6775 539.528 61.3975 539.012C62.1295 538.484 63.0055 538.22 64.0255 538.22C65.0455 538.22 65.9215 538.484 66.6535 539.012C67.3855 539.528 67.9435 540.272 68.3275 541.244C68.7235 542.204 68.9215 543.356 68.9215 544.7C68.9215 546.044 68.7235 547.202 68.3275 548.174C67.9435 549.134 67.3855 549.878 66.6535 550.406C65.9215 550.922 65.0455 551.18 64.0255 551.18ZM64.0255 549.128C64.8655 549.128 65.5135 548.744 65.9695 547.976C66.4375 547.196 66.6715 546.104 66.6715 544.7C66.6715 543.284 66.4375 542.186 65.9695 541.406C65.5135 540.626 64.8655 540.236 64.0255 540.236C63.1855 540.236 62.5315 540.626 62.0635 541.406C61.6075 542.186 61.3795 543.284 61.3795 544.7C61.3795 546.104 61.6075 547.196 62.0635 547.976C62.5315 548.744 63.1855 549.128 64.0255 549.128ZM71.8529 551.18C71.4209 551.18 71.0849 551.054 70.8449 550.802C70.6169 550.55 70.5029 550.196 70.5029 549.74C70.5029 549.32 70.6229 548.978 70.8629 548.714C71.1149 548.438 71.4449 548.3 71.8529 548.3C72.2849 548.3 72.6149 548.426 72.8429 548.678C73.0829 548.918 73.2029 549.272 73.2029 549.74C73.2029 550.16 73.0769 550.508 72.8249 550.784C72.5849 551.048 72.2609 551.18 71.8529 551.18ZM71.8529 544.214C71.4209 544.214 71.0849 544.088 70.8449 543.836C70.6169 543.584 70.5029 543.23 70.5029 542.774C70.5029 542.354 70.6229 542.012 70.8629 541.748C71.1149 541.472 71.4449 541.334 71.8529 541.334C72.2849 541.334 72.6149 541.46 72.8429 541.712C73.0829 541.952 73.2029 542.306 73.2029 542.774C73.2029 543.194 73.0769 543.542 72.8249 543.818C72.5849 544.082 72.2609 544.214 71.8529 544.214ZM80.318 551V540.83L81.182 540.92L76.898 546.158L76.7 545.834H84.71V547.868H75.44L74.468 545.996L80.732 538.364H82.568V551H80.318ZM90.5918 551C89.9558 551 89.3618 550.886 88.8098 550.658C88.2698 550.43 87.7958 550.118 87.3878 549.722C86.9918 549.314 86.6798 548.84 86.4518 548.3C86.2238 547.76 86.1098 547.166 86.1098 546.518C86.1098 546.158 86.1518 545.774 86.2358 545.366C86.3318 544.958 86.4698 544.526 86.6498 544.07C86.8418 543.602 87.0638 543.116 87.3158 542.612C87.5678 542.108 87.8618 541.58 88.1978 541.028L89.8718 538.184H92.1038L92.1758 538.364L90.0338 541.892C89.6858 542.468 89.3798 543.014 89.1158 543.53C88.8518 544.034 88.6238 544.52 88.4318 544.988C88.2518 545.444 88.1018 545.888 87.9818 546.32L87.4958 544.682C87.6758 544.298 87.8978 543.95 88.1618 543.638C88.4258 543.326 88.7198 543.062 89.0438 542.846C89.3678 542.63 89.7038 542.468 90.0518 542.36C90.4118 542.252 90.7778 542.198 91.1498 542.198C91.8458 542.198 92.4878 542.39 93.0758 542.774C93.6638 543.146 94.1318 543.644 94.4798 544.268C94.8398 544.892 95.0198 545.576 95.0198 546.32C95.0198 547.22 94.8278 548.024 94.4438 548.732C94.0718 549.428 93.5498 549.98 92.8778 550.388C92.2058 550.796 91.4438 551 90.5918 551ZM90.6098 548.948C91.0418 548.948 91.4258 548.846 91.7618 548.642C92.1098 548.438 92.3798 548.156 92.5718 547.796C92.7638 547.424 92.8598 546.998 92.8598 546.518C92.8598 546.11 92.7578 545.732 92.5538 545.384C92.3618 545.024 92.0978 544.736 91.7618 544.52C91.4258 544.292 91.0478 544.178 90.6278 544.178C90.1718 544.178 89.7638 544.286 89.4038 544.502C89.0558 544.706 88.7798 544.988 88.5758 545.348C88.3838 545.696 88.2878 546.086 88.2878 546.518C88.2878 546.974 88.3838 547.388 88.5758 547.76C88.7798 548.12 89.0558 548.408 89.4038 548.624C89.7518 548.84 90.1538 548.948 90.6098 548.948ZM95.8555 553.43L103.308 538.4H105.468L98.0515 553.43H95.8555ZM109.194 550.118V539.894L109.86 540.758L107.304 542.054L106.782 540.002L110.22 538.22H111.516V550.118H109.194ZM107.088 551V548.84H113.676V551H107.088ZM116.871 551.18C116.439 551.18 116.103 551.054 115.863 550.802C115.635 550.55 115.521 550.196 115.521 549.74C115.521 549.32 115.641 548.978 115.881 548.714C116.133 548.438 116.463 548.3 116.871 548.3C117.303 548.3 117.633 548.426 117.861 548.678C118.101 548.918 118.221 549.272 118.221 549.74C118.221 550.16 118.095 550.508 117.843 550.784C117.603 551.048 117.279 551.18 116.871 551.18ZM116.871 544.214C116.439 544.214 116.103 544.088 115.863 543.836C115.635 543.584 115.521 543.23 115.521 542.774C115.521 542.354 115.641 542.012 115.881 541.748C116.133 541.472 116.463 541.334 116.871 541.334C117.303 541.334 117.633 541.46 117.861 541.712C118.101 541.952 118.221 542.306 118.221 542.774C118.221 543.194 118.095 543.542 117.843 543.818C117.603 544.082 117.279 544.214 116.871 544.214ZM120.476 551L119.882 549.524L123.662 545.294C123.878 545.078 124.1 544.832 124.328 544.556C124.556 544.268 124.772 543.974 124.976 543.674C125.192 543.362 125.366 543.062 125.498 542.774C125.63 542.474 125.696 542.198 125.696 541.946C125.696 541.622 125.624 541.34 125.48 541.1C125.348 540.86 125.156 540.674 124.904 540.542C124.652 540.41 124.34 540.344 123.968 540.344C123.644 540.344 123.326 540.44 123.014 540.632C122.714 540.812 122.432 541.076 122.168 541.424C121.916 541.76 121.706 542.162 121.538 542.63L119.774 541.586C119.99 540.89 120.314 540.29 120.746 539.786C121.19 539.27 121.706 538.874 122.294 538.598C122.894 538.322 123.542 538.184 124.238 538.184C124.958 538.184 125.6 538.334 126.164 538.634C126.728 538.934 127.172 539.348 127.496 539.876C127.832 540.404 128 541.022 128 541.73C128 541.994 127.97 542.27 127.91 542.558C127.85 542.834 127.754 543.128 127.622 543.44C127.502 543.74 127.34 544.058 127.136 544.394C126.932 544.718 126.686 545.06 126.398 545.42C126.122 545.78 125.804 546.158 125.444 546.554L122.582 549.668L122.222 548.84H128.45V551H120.476ZM134.045 551C133.409 551 132.815 550.886 132.263 550.658C131.723 550.43 131.249 550.118 130.841 549.722C130.445 549.314 130.133 548.84 129.905 548.3C129.677 547.76 129.563 547.166 129.563 546.518C129.563 546.158 129.605 545.774 129.689 545.366C129.785 544.958 129.923 544.526 130.103 544.07C130.295 543.602 130.517 543.116 130.769 542.612C131.021 542.108 131.315 541.58 131.651 541.028L133.325 538.184H135.557L135.629 538.364L133.487 541.892C133.139 542.468 132.833 543.014 132.569 543.53C132.305 544.034 132.077 544.52 131.885 544.988C131.705 545.444 131.555 545.888 131.435 546.32L130.949 544.682C131.129 544.298 131.351 543.95 131.615 543.638C131.879 543.326 132.173 543.062 132.497 542.846C132.821 542.63 133.157 542.468 133.505 542.36C133.865 542.252 134.231 542.198 134.603 542.198C135.299 542.198 135.941 542.39 136.529 542.774C137.117 543.146 137.585 543.644 137.933 544.268C138.293 544.892 138.473 545.576 138.473 546.32C138.473 547.22 138.281 548.024 137.897 548.732C137.525 549.428 137.003 549.98 136.331 550.388C135.659 550.796 134.897 551 134.045 551ZM134.063 548.948C134.495 548.948 134.879 548.846 135.215 548.642C135.563 548.438 135.833 548.156 136.025 547.796C136.217 547.424 136.313 546.998 136.313 546.518C136.313 546.11 136.211 545.732 136.007 545.384C135.815 545.024 135.551 544.736 135.215 544.52C134.879 544.292 134.501 544.178 134.081 544.178C133.625 544.178 133.217 544.286 132.857 544.502C132.509 544.706 132.233 544.988 132.029 545.348C131.837 545.696 131.741 546.086 131.741 546.518C131.741 546.974 131.837 547.388 132.029 547.76C132.233 548.12 132.509 548.408 132.857 548.624C133.205 548.84 133.607 548.948 134.063 548.948Z" fill="#3A37A6"/>
<path d="M845.5 541.25V538.125C845.5 535.012 848.013 532.5 851.125 532.5H854.25" stroke="#3A37A6" stroke-width="1.5" stroke-linecap="round" stroke-linejoin="round"/>
<path d="M861.75 532.5H864.875C867.988 532.5 870.5 535.012 870.5 538.125V541.25" stroke="#3A37A6" stroke-width="1.5" stroke-linecap="round" stroke-linejoin="round"/>
<path d="M870.5 550V551.875C870.5 554.987 867.987 557.5 864.875 557.5H863" stroke="#3A37A6" stroke-width="1.5" stroke-linecap="round" stroke-linejoin="round"/>
<path d="M854.25 557.5H851.125C848.013 557.5 845.5 554.988 845.5 551.875V548.75" stroke="#3A37A6" stroke-width="1.5" stroke-linecap="round" stroke-linejoin="round"/>
<path d="M821.75 534H794.25C793.56 534 793 534.485 793 535.084V554.593C793 555.192 793.56 555.677 794.25 555.677H821.75C822.44 555.677 823 555.192 823 554.593V535.084C823 534.485 822.44 534 821.75 534Z" stroke="#3A37A6" stroke-width="1.5" stroke-linecap="round" stroke-linejoin="round"/>
<path d="M806.125 547.495C805.517 548.033 804.737 548.402 803.886 548.555C803.035 548.708 802.151 548.637 801.346 548.352C800.542 548.068 799.853 547.581 799.369 546.956C798.884 546.33 798.625 545.594 798.625 544.84C798.625 544.087 798.884 543.35 799.369 542.725C799.853 542.099 800.542 541.613 801.346 541.328C802.151 541.043 803.035 540.973 803.886 541.126C804.737 541.278 805.517 541.647 806.125 542.185M817.375 547.495C816.767 548.033 815.987 548.402 815.136 548.555C814.285 548.708 813.401 548.637 812.596 548.352C811.792 548.068 811.103 547.581 810.619 546.956C810.134 546.33 809.875 545.594 809.875 544.84C809.875 544.087 810.134 543.35 810.619 542.725C811.103 542.099 811.792 541.613 812.596 541.328C813.401 541.043 814.285 540.973 815.136 541.126C815.987 541.278 816.767 541.647 817.375 542.185" stroke="#3A37A6" stroke-width="1.5" stroke-linecap="round" stroke-linejoin="round"/>
<path d="M806.858 486.269V485.462C806.858 485.327 806.758 485.293 806.625 485.293C806.625 485.293 806.625 485.293 806.591 485.293C806.125 485.327 805.825 485.361 805.025 485.361C804.459 485.361 803.892 485.024 803.892 483.78V482.636C803.892 481.357 804.459 481.021 805.025 481.021C805.825 481.021 806.125 481.055 806.591 481.122C806.625 481.122 806.625 481.122 806.625 481.122C806.758 481.122 806.858 481.055 806.858 480.92V480.146C806.858 479.944 806.791 479.877 806.591 479.81C806.325 479.743 805.792 479.675 805.025 479.675C803.459 479.675 802.293 480.651 802.293 482.636V483.78C802.293 485.764 803.459 486.74 805.025 486.74C805.792 486.74 806.325 486.639 806.591 486.572C806.791 486.538 806.858 486.437 806.858 486.269ZM813.256 486.404V481.997C813.256 480.415 812.289 479.675 810.59 479.675C809.757 479.675 809.057 479.743 808.557 479.843C808.391 479.877 808.324 479.978 808.324 480.113V480.886C808.324 481.055 808.424 481.088 808.557 481.088C808.557 481.088 808.591 481.088 808.624 481.088C809.024 481.055 809.824 480.987 810.59 480.987C811.29 480.987 811.656 481.189 811.656 481.997V482.535H810.89C808.791 482.535 807.924 483.241 807.924 484.654V484.688C807.924 486.336 809.024 486.74 810.023 486.74C810.623 486.74 811.19 486.538 811.723 486.202V486.404C811.723 486.538 811.856 486.639 811.989 486.639H812.989C813.122 486.639 813.256 486.538 813.256 486.404ZM811.656 485.092C811.29 485.293 810.857 485.462 810.423 485.462C809.824 485.462 809.557 485.293 809.557 484.688V484.654C809.557 483.948 809.79 483.611 810.89 483.611H811.656V485.092ZM820.42 486.37V482.4C820.42 480.853 820.053 479.675 818.32 479.675C817.521 479.675 817.054 479.776 816.355 480.247V479.978C816.355 479.843 816.255 479.743 816.121 479.743H815.055C814.922 479.743 814.822 479.843 814.822 479.978V486.37C814.822 486.505 814.922 486.639 815.055 486.639H816.188C816.321 486.639 816.421 486.505 816.421 486.37V481.458C816.921 481.189 817.387 481.021 817.787 481.021C818.72 481.021 818.82 481.324 818.82 482.4V486.37C818.82 486.505 818.92 486.639 819.054 486.639H820.153C820.286 486.639 820.42 486.505 820.42 486.37ZM827.384 486.101V477.589C827.384 477.455 827.284 477.32 827.151 477.32H826.051C825.918 477.32 825.784 477.455 825.784 477.589V479.743C825.351 479.675 824.918 479.675 824.618 479.675C822.686 479.675 821.753 480.819 821.753 482.737V483.679C821.753 485.563 822.686 486.74 824.618 486.74C825.418 486.74 826.318 486.605 827.051 486.404C827.351 486.336 827.384 486.269 827.384 486.101ZM825.784 485.327C825.551 485.361 825.085 485.428 824.618 485.428C823.585 485.428 823.352 484.654 823.352 483.679V482.737C823.352 481.727 823.585 480.987 824.618 480.987C824.918 480.987 825.451 481.021 825.784 481.055V485.327ZM834.548 483.679V482.703C834.548 480.954 833.548 479.675 831.649 479.675C829.75 479.675 828.75 480.954 828.75 482.703V483.679C828.75 485.428 829.75 486.74 831.649 486.74C833.548 486.74 834.548 485.428 834.548 483.679ZM832.949 483.679C832.949 484.688 832.482 485.327 831.649 485.327C830.816 485.327 830.349 484.688 830.349 483.679V482.703C830.349 481.694 830.816 481.055 831.649 481.055C832.482 481.055 832.949 481.694 832.949 482.703V483.679ZM839.413 480.785V479.911C839.413 479.776 839.313 479.675 839.18 479.675C838.68 479.675 838.047 479.776 837.447 480.247V479.978C837.447 479.843 837.347 479.743 837.214 479.743H836.147C836.014 479.743 835.914 479.843 835.914 479.978V486.37C835.914 486.505 836.014 486.639 836.147 486.639H837.28C837.414 486.639 837.514 486.505 837.514 486.37V481.458C838.013 481.189 838.513 481.021 839.18 481.021C839.313 481.021 839.413 480.92 839.413 480.785Z" fill="#3A37A6"/>
<path d="M842.008 486.401V485.021C842.008 484.887 841.908 484.786 841.774 484.786H840.675C840.541 484.786 840.441 484.887 840.441 485.021V486.401C840.441 486.535 840.541 486.636 840.675 486.636H841.774C841.908 486.636 842.008 486.535 842.008 486.401ZM849.172 479.941C849.172 479.84 849.072 479.739 848.972 479.739H847.772C847.672 479.739 847.539 479.84 847.506 479.975L846.339 485.089C846.306 485.324 846.206 485.425 846.106 485.425C846.039 485.425 845.939 485.324 845.906 485.089L844.74 479.975C844.707 479.84 844.607 479.739 844.473 479.739H843.274C843.174 479.739 843.074 479.84 843.074 479.941C843.074 479.975 843.074 480.009 843.107 480.009L844.607 485.593C844.873 486.502 845.506 486.737 846.106 486.737C846.739 486.737 847.406 486.502 847.639 485.593L849.172 480.009C849.172 480.009 849.172 479.975 849.172 479.941ZM851.904 478.596V477.519C851.904 477.385 851.804 477.25 851.671 477.25H850.504C850.371 477.25 850.238 477.385 850.238 477.519V478.596C850.238 478.73 850.371 478.831 850.504 478.831H851.671C851.804 478.831 851.904 478.73 851.904 478.596ZM851.871 486.367V479.975C851.871 479.84 851.771 479.739 851.637 479.739H850.538C850.404 479.739 850.271 479.84 850.271 479.975V486.367C850.271 486.502 850.404 486.636 850.538 486.636H851.637C851.771 486.636 851.871 486.502 851.871 486.367ZM858.901 486.098V477.586C858.901 477.452 858.801 477.317 858.668 477.317H857.535C857.402 477.317 857.302 477.452 857.302 477.586V479.739C856.869 479.672 856.436 479.672 856.136 479.672C854.203 479.672 853.237 480.816 853.237 482.734V483.676C853.237 485.56 854.203 486.737 856.136 486.737C856.902 486.737 857.835 486.602 858.568 486.401C858.835 486.333 858.901 486.266 858.901 486.098ZM857.302 485.324C857.069 485.358 856.569 485.425 856.136 485.425C855.103 485.425 854.836 484.651 854.836 483.676V482.734C854.836 481.724 855.103 480.984 856.136 480.984C856.436 480.984 856.969 481.018 857.302 481.052V485.324ZM866.065 483.44V482.767C866.065 480.951 865.032 479.672 863.166 479.672C861.334 479.672 860.268 480.85 860.268 482.767V483.676C860.268 486.064 862 486.737 863.2 486.737C864.299 486.737 864.766 486.67 865.532 486.535C865.766 486.502 865.799 486.401 865.799 486.199V485.391C865.799 485.29 865.699 485.223 865.566 485.223C865.566 485.223 865.566 485.223 865.532 485.223C865.032 485.257 864.199 485.324 863.3 485.324C862.167 485.324 861.867 484.483 861.867 483.777V483.743H865.799C865.965 483.743 866.065 483.642 866.065 483.44ZM864.433 482.599H861.867V482.565C861.867 481.59 862.433 481.052 863.166 481.052C863.933 481.052 864.433 481.59 864.433 482.565V482.599ZM872.996 483.676V482.7C872.996 480.951 871.997 479.672 870.097 479.672C868.198 479.672 867.198 480.951 867.198 482.7V483.676C867.198 485.425 868.198 486.737 870.097 486.737C871.997 486.737 872.996 485.425 872.996 483.676ZM871.397 483.676C871.397 484.685 870.964 485.324 870.097 485.324C869.264 485.324 868.798 484.685 868.798 483.676V482.7C868.798 481.691 869.264 481.052 870.097 481.052C870.964 481.052 871.397 481.691 871.397 482.7V483.676Z" fill="#94A2F2"/>
<path fill-rule="evenodd" clip-rule="evenodd" d="M787.731 478.484C783.599 480.2 780.533 484.069 780 488.846C780 489.99 780.566 490.999 781.533 491.571C782.532 492.143 783.665 492.143 784.632 491.571C787.664 488.981 789.097 485.011 788.464 481.108C788.33 480.2 788.064 479.325 787.731 478.484Z" fill="#3A37A6"/>
<path fill-rule="evenodd" clip-rule="evenodd" d="M788.465 481.11C789.098 485.013 787.665 488.982 784.633 491.573L790.531 488.141L796.429 484.71C797.395 484.138 797.961 483.129 797.961 481.985C797.961 480.841 797.395 479.865 796.429 479.293L793.463 477.578C791.43 477.409 789.498 477.746 787.732 478.486C788.065 479.327 788.331 480.202 788.465 481.11Z" fill="#94A2F2"/>
<path fill-rule="evenodd" clip-rule="evenodd" d="M780 488.847C780.533 484.07 783.599 480.201 787.731 478.485C786.564 475.76 784.365 473.54 781.533 472.43C780.566 473.002 780 473.977 780 475.121V481.984V488.847Z" fill="#94A2F2"/>
<path fill-rule="evenodd" clip-rule="evenodd" d="M781.537 472.429C784.369 473.539 786.569 475.759 787.735 478.484C789.501 477.744 791.434 477.408 793.466 477.576L790.534 475.86L784.636 472.429C783.67 471.857 782.537 471.857 781.537 472.429Z" fill="#E7EEF9"/>
<g opacity="0.49">
<path d="M815.898 287.227H798.631V292.737H815.898V287.227Z" fill="#A0A0A0"/>
</g>
<g opacity="0.4">
<path d="M659.699 287.227H642.432V306.337H659.699V287.227Z" fill="#A0A0A0"/>
</g>
<g opacity="0.4">
<path d="M788.041 287.227H770.773V306.337H788.041V287.227Z" fill="#A0A0A0"/>
</g>
<g opacity="0.43">
<path d="M633.955 287.227H616.688V300.358H633.955V287.227Z" fill="#A0A0A0"/>
</g>
<g opacity="0.31">
<path d="M608.496 287.227H591.229V315.365H608.496V287.227Z" fill="#A0A0A0"/>
</g>
<g opacity="0.6">
<path d="M582.758 287.227H565.49V342.213H582.758V287.227Z" fill="#A0A0A0"/>
</g>
<g opacity="0.6">
<path d="M556.99 287.227H539.723V322.516H556.99V287.227Z" fill="#A0A0A0"/>
</g>
<g opacity="0.6">
<path d="M761.074 287.227H743.807V322.516H761.074V287.227Z" fill="#A0A0A0"/>
</g>
<g opacity="0.39">
<path d="M531.533 287.227H514.266V328.73H531.533V287.227Z" fill="#A0A0A0"/>
</g>
<g opacity="0.39">
<path d="M735.613 287.227H718.346V328.73H735.613V287.227Z" fill="#A0A0A0"/>
</g>
<g opacity="0.59">
<path d="M505.801 287.227H488.533V315.365H505.801V287.227Z" fill="#A0A0A0"/>
</g>
<g opacity="0.59">
<path d="M709.885 287.227H692.617V315.365H709.885V287.227Z" fill="#A0A0A0"/>
</g>
<g opacity="0.39">
<path d="M480.334 287.227H463.066V305.633H480.334V287.227Z" fill="#A0A0A0"/>
</g>
<g opacity="0.39">
<path d="M684.41 287.227H667.143V305.633H684.41V287.227Z" fill="#A0A0A0"/>
</g>
<g opacity="0.38">
<path d="M454.576 287.227H437.309V333.302H454.576V287.227Z" fill="#A0A0A0"/>
</g>
<g opacity="0.36">
<path d="M428.818 287.227H411.551V322.868H428.818V287.227Z" fill="#A0A0A0"/>
</g>
<g opacity="0.39">
<path d="M403.349 287.227H386.082V316.537H403.349V287.227Z" fill="#A0A0A0"/>
</g>
<g opacity="0.33">
<path d="M377.617 287.227H360.35V299.185H377.617V287.227Z" fill="#A0A0A0"/>
</g>
<g opacity="0.37">
<path d="M351.881 287.227H334.613V330.254H351.881V287.227Z" fill="#A0A0A0"/>
</g>
<g opacity="0.42">
<path d="M326.398 287.227H309.131V337.992H326.398V287.227Z" fill="#A0A0A0"/>
</g>
<g opacity="0.5">
<path d="M300.66 287.227H283.393V317.709H300.66V287.227Z" fill="#A0A0A0"/>
</g>
<g opacity="0.54">
<path d="M275.178 287.227H257.91V320.758H275.178V287.227Z" fill="#A0A0A0"/>
</g>
<g opacity="0.54">
<path d="M249.431 287.227H232.164V329.082H249.431V287.227Z" fill="#A0A0A0"/>
</g>
<g opacity="0.34">
<path d="M223.703 287.227H206.436V316.537H223.703V287.227Z" fill="#A0A0A0"/>
</g>
<g opacity="0.55">
<path d="M198.23 287.227H180.963V336.82H198.23V287.227Z" fill="#A0A0A0"/>
</g>
<g opacity="0.42">
<path d="M172.482 287.227H155.215V322.985H172.482V287.227Z" fill="#A0A0A0"/>
</g>
<g opacity="0.54">
<path d="M147.017 287.227H129.75V303.992H147.017V287.227Z" fill="#A0A0A0"/>
</g>
<g opacity="0.43">
<path d="M121.267 287.227H104V297.896H121.267V287.227Z" fill="#A0A0A0"/>
</g>
<g opacity="0.74">
<path d="M815.898 299.426H798.631V304.936H815.898V299.426Z" fill="#A0A0A0"/>
</g>
<g opacity="0.7">
<path d="M659.699 311.484H642.432V318.402H659.699V311.484Z" fill="#A0A0A0"/>
</g>
<g opacity="0.7">
<path d="M788.041 311.484H770.773V318.402H788.041V311.484Z" fill="#A0A0A0"/>
</g>
<g opacity="0.73">
<path d="M633.955 305.629H616.688V312.546H633.955V305.629Z" fill="#A0A0A0"/>
</g>
<g opacity="0.73">
<path d="M608.496 320.508H591.229V327.425H608.496V320.508Z" fill="#A0A0A0"/>
</g>
<g opacity="0.73">
<path d="M582.758 347.336H565.49V354.253H582.758V347.336Z" fill="#A0A0A0"/>
</g>
<g opacity="0.72">
<path d="M556.99 327.668H539.723V334.585H556.99V327.668Z" fill="#A0A0A0"/>
</g>
<g opacity="0.72">
<path d="M761.074 327.668H743.807V334.585H761.074V327.668Z" fill="#A0A0A0"/>
</g>
<g opacity="0.88">
<path d="M531.533 333.891H514.266V340.808H531.533V333.891Z" fill="#A0A0A0"/>
</g>
<g opacity="0.88">
<path d="M735.613 333.891H718.346V340.808H735.613V333.891Z" fill="#A0A0A0"/>
</g>
<g opacity="0.7">
<path d="M505.801 320.508H488.533V327.425H505.801V320.508Z" fill="#A0A0A0"/>
</g>
<g opacity="0.7">
<path d="M709.885 320.508H692.617V327.425H709.885V320.508Z" fill="#A0A0A0"/>
</g>
<g opacity="0.98">
<path d="M480.334 310.871H463.066V317.788H480.334V310.871Z" fill="#A0A0A0"/>
</g>
<g opacity="0.98">
<path d="M684.41 310.871H667.143V317.788H684.41V310.871Z" fill="#A0A0A0"/>
</g>
<g opacity="0.96">
<path d="M454.576 338.453H437.309V345.37H454.576V338.453Z" fill="#A0A0A0"/>
</g>
<g opacity="0.77">
<path d="M428.824 328.008H411.557V334.925H428.824V328.008Z" fill="#A0A0A0"/>
</g>
<g opacity="0.9">
<path d="M403.349 321.68H386.082V328.597H403.349V321.68Z" fill="#A0A0A0"/>
</g>
<g opacity="0.77">
<path d="M377.617 304.328H360.35V311.245H377.617V304.328Z" fill="#A0A0A0"/>
</g>
<g opacity="0.86">
<path d="M351.881 335.516H334.613V342.433H351.881V335.516Z" fill="#A0A0A0"/>
</g>
<g opacity="0.96">
<path d="M326.398 343.266H309.131V350.183H326.398V343.266Z" fill="#A0A0A0"/>
</g>
<g opacity="0.82">
<path d="M300.66 322.871H283.393V329.788H300.66V322.871Z" fill="#A0A0A0"/>
</g>
<path d="M275.197 325.906H257.93V332.823H275.197V325.906Z" fill="#A0A0A0"/>
<g opacity="0.83">
<path d="M249.431 334.215H232.164V341.132H249.431V334.215Z" fill="#A0A0A0"/>
</g>
<g opacity="0.82">
<path d="M223.703 321.68H206.436V328.597H223.703V321.68Z" fill="#A0A0A0"/>
</g>
<g opacity="0.72">
<path d="M198.23 342.082H180.963V348.999H198.23V342.082Z" fill="#A0A0A0"/>
</g>
<g opacity="0.78">
<path d="M172.482 328.25H155.215V335.167H172.482V328.25Z" fill="#A0A0A0"/>
</g>
<g opacity="0.87">
<path d="M147.017 309.129H129.75V316.046H147.017V309.129Z" fill="#A0A0A0"/>
</g>
<g opacity="0.82">
<path d="M121.267 303.184H104V310.101H121.267V303.184Z" fill="#A0A0A0"/>
</g>
<g opacity="0.49">
<path d="M815.898 274.676H798.631V280.186H815.898V274.676Z" fill="#A0A0A0"/>
</g>
<g opacity="0.4">
<path d="M659.699 261.199H642.432V280.31H659.699V261.199Z" fill="#A0A0A0"/>
</g>
<g opacity="0.4">
<path d="M788.041 261.199H770.773V280.31H788.041V261.199Z" fill="#A0A0A0"/>
</g>
<g opacity="0.43">
<path d="M633.955 267.055H616.688V280.186H633.955V267.055Z" fill="#A0A0A0"/>
</g>
<g opacity="0.31">
<path d="M608.496 252.156H591.229V280.294H608.496V252.156Z" fill="#A0A0A0"/>
</g>
<g opacity="0.6">
<path d="M582.758 225.188H565.49V280.174H582.758V225.188Z" fill="#A0A0A0"/>
</g>
<g opacity="0.6">
<path d="M556.99 245H539.723V280.29H556.99V245Z" fill="#A0A0A0"/>
</g>
<g opacity="0.6">
<path d="M761.074 245H743.807V280.29H761.074V245Z" fill="#A0A0A0"/>
</g>
<g opacity="0.39">
<path d="M531.533 238.797H514.266V280.3H531.533V238.797Z" fill="#A0A0A0"/>
</g>
<g opacity="0.39">
<path d="M735.613 238.797H718.346V280.3H735.613V238.797Z" fill="#A0A0A0"/>
</g>
<g opacity="0.59">
<path d="M505.801 252.156H488.533V280.294H505.801V252.156Z" fill="#A0A0A0"/>
</g>
<g opacity="0.59">
<path d="M709.885 252.156H692.617V280.294H709.885V252.156Z" fill="#A0A0A0"/>
</g>
<g opacity="0.39">
<path d="M480.334 261.789H463.066V280.196H480.334V261.789Z" fill="#A0A0A0"/>
</g>
<g opacity="0.39">
<path d="M684.41 261.789H667.143V280.196H684.41V261.789Z" fill="#A0A0A0"/>
</g>
<g opacity="0.38">
<path d="M454.576 234.23H437.309V280.306H454.576V234.23Z" fill="#A0A0A0"/>
</g>
<g opacity="0.36">
<path d="M428.824 244.66H411.557V280.301H428.824V244.66Z" fill="#A0A0A0"/>
</g>
<g opacity="0.39">
<path d="M403.349 250.965H386.082V280.275H403.349V250.965Z" fill="#A0A0A0"/>
</g>
<g opacity="0.33">
<path d="M377.617 268.234H360.35V280.193H377.617V268.234Z" fill="#A0A0A0"/>
</g>
<g opacity="0.37">
<path d="M351.881 237.137H334.613V280.164H351.881V237.137Z" fill="#A0A0A0"/>
</g>
<g opacity="0.42">
<path d="M326.398 229.434H309.131V280.199H326.398V229.434Z" fill="#A0A0A0"/>
</g>
<g opacity="0.5">
<path d="M300.66 249.703H283.393V280.186H300.66V249.703Z" fill="#A0A0A0"/>
</g>
<g opacity="0.54">
<path d="M275.178 246.781H257.91V280.312H275.178V246.781Z" fill="#A0A0A0"/>
</g>
<g opacity="0.54">
<path d="M249.431 238.316H232.164V280.172H249.431V238.316Z" fill="#A0A0A0"/>
</g>
<g opacity="0.34">
<path d="M223.703 250.965H206.436V280.275H223.703V250.965Z" fill="#A0A0A0"/>
</g>
<g opacity="0.55">
<path d="M198.23 230.594H180.963V280.187H198.23V230.594Z" fill="#A0A0A0"/>
</g>
<g opacity="0.42">
<path d="M172.482 244.438H155.215V280.196H172.482V244.438Z" fill="#A0A0A0"/>
</g>
<g opacity="0.54">
<path d="M147.017 263.519H129.75V280.285H147.017V263.519Z" fill="#A0A0A0"/>
</g>
<g opacity="0.43">
<path d="M121.267 269.523H104V280.192H121.267V269.523Z" fill="#A0A0A0"/>
</g>
<g opacity="0.74">
<path d="M815.898 262.484H798.631V267.995H815.898V262.484Z" fill="#A0A0A0"/>
</g>
<g opacity="0.7">
<path d="M659.699 249H642.432V255.917H659.699V249Z" fill="#A0A0A0"/>
</g>
<g opacity="0.7">
<path d="M788.041 249H770.773V255.917H788.041V249Z" fill="#A0A0A0"/>
</g>
<g opacity="0.73">
<path d="M633.955 254.828H616.688V261.745H633.955V254.828Z" fill="#A0A0A0"/>
</g>
<g opacity="0.73">
<path d="M608.496 239.969H591.229V246.886H608.496V239.969Z" fill="#A0A0A0"/>
</g>
<g opacity="0.73">
<path d="M582.758 213H565.49V219.917H582.758V213Z" fill="#A0A0A0"/>
</g>
<g opacity="0.72">
<path d="M556.99 232.801H539.723V239.718H556.99V232.801Z" fill="#A0A0A0"/>
</g>
<g opacity="0.72">
<path d="M761.074 232.801H743.807V239.718H761.074V232.801Z" fill="#A0A0A0"/>
</g>
<g opacity="0.88">
<path d="M531.533 226.613H514.266V233.531H531.533V226.613Z" fill="#A0A0A0"/>
</g>
<g opacity="0.88">
<path d="M735.613 226.613H718.346V233.531H735.613V226.613Z" fill="#A0A0A0"/>
</g>
<g opacity="0.7">
<path d="M505.801 239.969H488.533V246.886H505.801V239.969Z" fill="#A0A0A0"/>
</g>
<g opacity="0.7">
<path d="M709.885 239.969H692.617V246.886H709.885V239.969Z" fill="#A0A0A0"/>
</g>
<g opacity="0.98">
<path d="M480.334 249.605H463.066V256.523H480.334V249.605Z" fill="#A0A0A0"/>
</g>
<g opacity="0.98">
<path d="M684.41 249.605H667.143V256.523H684.41V249.605Z" fill="#A0A0A0"/>
</g>
<g opacity="0.96">
<path d="M454.576 222.039H437.309V228.956H454.576V222.039Z" fill="#A0A0A0"/>
</g>
<g opacity="0.77">
<path d="M428.824 232.477H411.557V239.394H428.824V232.477Z" fill="#A0A0A0"/>
</g>
<g opacity="0.9">
<path d="M403.349 238.797H386.082V245.714H403.349V238.797Z" fill="#A0A0A0"/>
</g>
<g opacity="0.77">
<path d="M377.617 256.039H360.35V262.956H377.617V256.039Z" fill="#A0A0A0"/>
</g>
<g opacity="0.86">
<path d="M351.881 224.93H334.613V231.847H351.881V224.93Z" fill="#A0A0A0"/>
</g>
<g opacity="0.96">
<path d="M326.398 217.227H309.131V224.144H326.398V217.227Z" fill="#A0A0A0"/>
</g>
<g opacity="0.82">
<path d="M300.66 237.52H283.393V244.437H300.66V237.52Z" fill="#A0A0A0"/>
</g>
<path d="M275.197 234.586H257.93V241.503H275.197V234.586Z" fill="#A0A0A0"/>
<g opacity="0.83">
<path d="M249.431 226.121H232.164V233.038H249.431V226.121Z" fill="#A0A0A0"/>
</g>
<g opacity="0.82">
<path d="M223.703 238.797H206.436V245.714H223.703V238.797Z" fill="#A0A0A0"/>
</g>
<g opacity="0.72">
<path d="M198.23 218.398H180.963V225.316H198.23V218.398Z" fill="#A0A0A0"/>
</g>
<g opacity="0.78">
<path d="M172.482 232.227H155.215V239.144H172.482V232.227Z" fill="#A0A0A0"/>
</g>
<g opacity="0.87">
<path d="M147.017 251.348H129.75V258.265H147.017V251.348Z" fill="#A0A0A0"/>
</g>
<g opacity="0.82">
<path d="M121.267 257.309H104V264.226H121.267V257.309Z" fill="#A0A0A0"/>
</g>
<g opacity="0.36">
<path d="M428.167 286.121H410.934V321.8H428.167V286.121Z" fill="#3A37A6"/>
</g>
<g opacity="0.39">
<path d="M402.751 286.121H385.518V315.462H402.751V286.121Z" fill="#3A37A6"/>
</g>
<g opacity="0.33">
<path d="M377.075 286.121H359.842V298.092H377.075V286.121Z" fill="#3A37A6"/>
</g>
<g opacity="0.37">
<path d="M351.385 286.121H334.152V329.194H351.385V286.121Z" fill="#3A37A6"/>
</g>
<g opacity="0.42">
<path d="M325.96 286.121H308.727V336.94H325.96V286.121Z" fill="#3A37A6"/>
</g>
<g opacity="0.5">
<path d="M300.264 286.121H283.031V316.636H300.264V286.121Z" fill="#3A37A6"/>
</g>
<g opacity="0.54">
<path d="M274.85 286.121H257.617V319.687H274.85V286.121Z" fill="#3A37A6"/>
</g>
<g opacity="0.54">
<path d="M249.133 286.121H231.9V328.02H249.133V286.121Z" fill="#3A37A6"/>
</g>
<g opacity="0.34">
<path d="M223.462 286.121H206.229V315.462H223.462V286.121Z" fill="#3A37A6"/>
</g>
<g opacity="0.55">
<path d="M198.055 286.121H180.822V335.766H198.055V286.121Z" fill="#3A37A6"/>
</g>
<g opacity="0.42">
<path d="M172.333 286.121H155.1V321.917H172.333V286.121Z" fill="#3A37A6"/>
</g>
<g opacity="0.54">
<path d="M146.928 286.121H129.695V302.904H146.928V286.121Z" fill="#3A37A6"/>
</g>
<g opacity="0.43">
<path d="M121.233 286.121H104V296.801H121.233V286.121Z" fill="#3A37A6"/>
</g>
<g opacity="0.77">
<path d="M428.167 326.938H410.934V333.862H428.167V326.938Z" fill="#3A37A6"/>
</g>
<g opacity="0.9">
<path d="M402.751 320.641H385.518V327.565H402.751V320.641Z" fill="#3A37A6"/>
</g>
<g opacity="0.77">
<path d="M377.075 303.262H359.842V310.186H377.075V303.262Z" fill="#3A37A6"/>
</g>
<g opacity="0.86">
<path d="M351.385 334.484H334.152V341.409H351.385V334.484Z" fill="#3A37A6"/>
</g>
<g opacity="0.96">
<path d="M325.96 342.195H308.727V349.12H325.96V342.195Z" fill="#3A37A6"/>
</g>
<g opacity="0.82">
<path d="M300.264 321.781H283.031V328.706H300.264V321.781Z" fill="#3A37A6"/>
</g>
<path d="M274.856 324.852H257.623V331.776H274.856V324.852Z" fill="#3A37A6"/>
<g opacity="0.83">
<path d="M249.133 333.199H231.9V340.124H249.133V333.199Z" fill="#3A37A6"/>
</g>
<g opacity="0.82">
<path d="M223.462 320.641H206.229V327.565H223.462V320.641Z" fill="#3A37A6"/>
</g>
<g opacity="0.72">
<path d="M198.055 341.039H180.822V347.964H198.055V341.039Z" fill="#3A37A6"/>
</g>
<g opacity="0.78">
<path d="M172.333 327.195H155.1V334.12H172.333V327.195Z" fill="#3A37A6"/>
</g>
<g opacity="0.87">
<path d="M146.928 308.094H129.695V315.018H146.928V308.094Z" fill="#3A37A6"/>
</g>
<g opacity="0.82">
<path d="M121.233 302.07H104V308.995H121.233V302.07Z" fill="#3A37A6"/>
</g>
<g opacity="0.36">
<path d="M428.167 243.539H410.934V279.218H428.167V243.539Z" fill="#3A37A6"/>
</g>
<g opacity="0.39">
<path d="M402.751 249.844H385.518V279.185H402.751V249.844Z" fill="#3A37A6"/>
</g>
<g opacity="0.33">
<path d="M377.075 267.086H359.842V279.057H377.075V267.086Z" fill="#3A37A6"/>
</g>
<g opacity="0.37">
<path d="M351.385 236.02H334.152V279.092H351.385V236.02Z" fill="#3A37A6"/>
</g>
<g opacity="0.42">
<path d="M325.96 228.258H308.727V279.077H325.96V228.258Z" fill="#3A37A6"/>
</g>
<g opacity="0.5">
<path d="M300.264 248.57H283.031V279.085H300.264V248.57Z" fill="#3A37A6"/>
</g>
<g opacity="0.54">
<path d="M274.85 245.637H257.617V279.203H274.85V245.637Z" fill="#3A37A6"/>
</g>
<g opacity="0.54">
<path d="M249.133 237.168H231.9V279.067H249.133V237.168Z" fill="#3A37A6"/>
</g>
<g opacity="0.34">
<path d="M223.462 249.844H206.229V279.185H223.462V249.844Z" fill="#3A37A6"/>
</g>
<g opacity="0.55">
<path d="M198.055 229.438H180.822V279.083H198.055V229.438Z" fill="#3A37A6"/>
</g>
<g opacity="0.42">
<path d="M172.333 243.297H155.1V279.093H172.333V243.297Z" fill="#3A37A6"/>
</g>
<g opacity="0.54">
<path d="M146.928 262.453H129.695V279.236H146.928V262.453Z" fill="#3A37A6"/>
</g>
<g opacity="0.43">
<path d="M121.233 268.379H104V279.059H121.233V268.379Z" fill="#3A37A6"/>
</g>
<g opacity="0.77">
<path d="M428.167 231.344H410.934V238.268H428.167V231.344Z" fill="#3A37A6"/>
</g>
<g opacity="0.9">
<path d="M402.751 237.652H385.518V244.577H402.751V237.652Z" fill="#3A37A6"/>
</g>
<g opacity="0.77">
<path d="M377.075 254.895H359.842V261.819H377.075V254.895Z" fill="#3A37A6"/>
</g>
<g opacity="0.86">
<path d="M351.385 223.809H334.152V230.733H351.385V223.809Z" fill="#3A37A6"/>
</g>
<g opacity="0.96">
<path d="M325.96 216.062H308.727V222.987H325.96V216.062Z" fill="#3A37A6"/>
</g>
<path d="M274.856 233.426H257.623V240.35H274.856V233.426Z" fill="#3A37A6"/>
<g opacity="0.83">
<path d="M249.133 224.977H231.9V231.901H249.133V224.977Z" fill="#3A37A6"/>
</g>
<g opacity="0.82">
<path d="M223.462 237.652H206.229V244.577H223.462V237.652Z" fill="#3A37A6"/>
</g>
<g opacity="0.72">
<path d="M198.055 217.238H180.822V224.163H198.055V217.238Z" fill="#3A37A6"/>
</g>
<g opacity="0.78">
<path d="M172.333 231.098H155.1V238.022H172.333V231.098Z" fill="#3A37A6"/>
</g>
<g opacity="0.87">
<path d="M146.928 250.238H129.695V257.163H146.928V250.238Z" fill="#3A37A6"/>
</g>
<g opacity="0.82">
<path d="M121.233 256.223H104V263.147H121.233V256.223Z" fill="#3A37A6"/>
</g>
<g filter="url(#filter1_b_3394_254411)">
<rect x="410" y="234" width="100" height="100" rx="50" fill="url(#paint0_linear_3394_254411)"/>
</g>
<path d="M449.992 283.998V278.891C449.992 272.301 454.65 269.644 460.344 272.922L464.76 275.475L469.177 278.029C474.87 281.307 474.87 286.69 469.177 289.968L464.76 292.521L460.344 295.074C454.65 298.352 449.992 295.661 449.992 289.105V283.998Z" fill="white" stroke="white" stroke-width="1.5" stroke-miterlimit="10" stroke-linecap="round" stroke-linejoin="round"/>
<path d="M459.999 318.505C479.056 318.505 494.505 303.057 494.505 284C494.505 264.943 479.056 249.495 459.999 249.495C440.943 249.495 425.494 264.943 425.494 284C425.494 303.057 440.943 318.505 459.999 318.505Z" stroke="white" stroke-width="1.5" stroke-linecap="round" stroke-linejoin="round"/>
<defs>
<filter id="filter0_d_3394_254411" x="0" y="0" width="920" height="604" filterUnits="userSpaceOnUse" color-interpolation-filters="sRGB">
<feFlood flood-opacity="0" result="BackgroundImageFix"/>
<feColorMatrix in="SourceAlpha" type="matrix" values="0 0 0 0 0 0 0 0 0 0 0 0 0 0 0 0 0 0 127 0" result="hardAlpha"/>
<feMorphology radius="3" operator="dilate" in="SourceAlpha" result="effect1_dropShadow_3394_254411"/>
<feOffset dy="7"/>
<feGaussianBlur stdDeviation="7"/>
<feComposite in2="hardAlpha" operator="out"/>
<feColorMatrix type="matrix" values="0 0 0 0 0 0 0 0 0 0 0 0 0 0 0 0 0 0 0.03 0"/>
<feBlend mode="normal" in2="BackgroundImageFix" result="effect1_dropShadow_3394_254411"/>
<feBlend mode="normal" in="SourceGraphic" in2="effect1_dropShadow_3394_254411" result="shape"/>
</filter>
<filter id="filter1_b_3394_254411" x="385" y="209" width="150" height="150" filterUnits="userSpaceOnUse" color-interpolation-filters="sRGB">
<feFlood flood-opacity="0" result="BackgroundImageFix"/>
<feGaussianBlur in="BackgroundImageFix" stdDeviation="12.5"/>
<feComposite in2="SourceAlpha" operator="in" result="effect1_backgroundBlur_3394_254411"/>
<feBlend mode="normal" in="SourceGraphic" in2="effect1_backgroundBlur_3394_254411" result="shape"/>
</filter>
<linearGradient id="paint0_linear_3394_254411" x1="410" y1="234" x2="528.851" y2="267.78" gradientUnits="userSpaceOnUse">
<stop offset="0.0303834" stop-color="white" stop-opacity="0.4"/>
<stop offset="0.960276" stop-color="white" stop-opacity="0"/>
</linearGradient>
</defs>
</svg>
