<svg width="680" height="680" viewBox="0 0 680 680" fill="none" xmlns="http://www.w3.org/2000/svg">
<circle cx="340" cy="340" r="340" fill="url(#paint0_linear_1381_274770)" fill-opacity="0.5"/>
<rect x="30" y="467" width="621" height="7" fill="#D3E1EB"/>
<g clip-path="url(#clip0_1381_274770)">
<path d="M297.148 111.488C297.906 109.819 299.723 110.578 300.934 110.274L316.38 108.454C321.768 108 327.178 107.848 332.583 107.999C340.64 108.077 348.683 108.685 356.66 109.819C367.101 111.102 377.395 113.387 387.4 116.644C398.395 120.082 409.042 124.551 419.2 129.991C428.672 135.07 437.69 140.956 446.154 147.585C453.904 153.603 461.146 160.248 467.808 167.454C477.412 177.761 485.843 189.104 492.946 201.276C499.6 212.704 505.031 224.803 509.149 237.374C512.238 246.663 514.518 256.204 515.963 265.887C516.77 271.348 517.376 276.808 517.78 282.268C517.931 284.998 517.78 287.728 518.083 290.458C518.689 296.07 517.78 301.833 518.083 307.445L511.723 310.933C511.874 299.407 511.874 287.88 511.874 276.353C511.874 275.594 511.723 274.988 511.723 274.229C512.026 270.286 511.874 266.494 511.874 262.551C511.762 259.304 511.201 256.088 510.209 252.996C508.756 248.713 505.939 245.028 502.19 242.507C498.442 239.986 493.97 238.768 489.463 239.042H351.966C349.394 238.724 346.784 238.951 344.306 239.708C341.827 240.466 339.536 241.738 337.58 243.44C335.611 240.255 333.794 236.919 332.128 233.582C335.784 231.47 339.277 229.087 342.577 226.453C344.956 224.582 346.528 221.868 346.968 218.87C347.772 214.241 347.432 209.486 345.981 205.018C344.529 200.551 342.009 196.506 338.64 193.238C337.822 192.621 337.22 191.76 336.921 190.779C336.621 189.798 336.64 188.747 336.974 187.778C337.731 184.896 338.488 181.862 339.094 178.981C339.734 176.047 339.206 172.98 337.622 170.43C336.039 167.881 333.524 166.051 330.614 165.33C325.163 163.965 322.134 160.325 320.468 155.32C319.747 152.441 319.341 149.491 319.257 146.523C319.256 142.109 318.952 137.7 318.348 133.328C316.834 124.683 311.534 118.768 304.114 114.521C301.879 113.32 299.55 112.305 297.148 111.488Z" fill="#F2F6FB"/>
<path d="M511.723 310.933L518.083 307.445H519.9C519.9 307.445 520.794 307.445 521.349 307.445C521.905 307.445 523.08 307.445 523.08 307.445H524.14C524.721 307.445 524.596 307.67 524.596 307.67L525.049 307.9C527.426 308.456 529.651 309.534 531.562 311.055C533.474 312.576 535.025 314.503 536.103 316.697C539.889 323.825 540.494 331.409 540.04 339.295C539.586 347.182 537.466 355.979 535.346 364.169C534.379 366.952 533.57 369.788 532.923 372.663C530.803 378.426 528.683 384.19 526.109 389.802C523.398 393.708 520.465 397.455 517.326 401.025C514.108 405.006 510.562 408.71 506.726 412.097H268.074C267.014 407.699 265.803 403.452 264.592 399.205C262.876 393.367 261.46 387.444 260.352 381.46C265.197 381.611 270.194 380.701 275.04 380.701C316.683 381.308 358.477 379.488 400.12 381.763C406.632 382.066 413.143 381.763 419.654 381.763C426.166 381.763 435.857 380.55 443.883 380.701C450.11 380.877 456.342 380.522 462.509 379.64C467.665 379.012 472.681 377.525 477.349 375.241C483.585 372.021 488.861 367.207 492.643 361.288C499.003 352.036 502.032 341.722 503.849 330.802C505.06 323.522 506.726 316.545 511.723 310.933Z" fill="#174EBD"/>
<path d="M160.109 218.111C161.83 213.579 163.959 209.213 166.469 205.068C169.511 199.435 172.847 193.967 176.464 188.687C180.249 183.379 184.338 178.222 188.578 173.217C192.645 168.412 196.994 163.854 201.601 159.567C207.959 153.375 214.794 147.695 222.044 142.58C231.02 136.265 240.49 130.686 250.361 125.896L256.115 123.318C256.569 123.014 257.175 122.711 257.629 123.318C253.087 125.896 248.998 129.081 244.304 131.508C241.989 132.647 240.023 134.388 238.611 136.55C237.2 138.711 236.394 141.213 236.278 143.793C236.093 148.749 237.356 153.651 239.912 157.898C241.001 159.729 241.913 161.659 242.638 163.662C243.082 164.774 243.245 165.979 243.113 167.169C242.981 168.36 242.558 169.499 241.881 170.487C240.23 172.977 238.184 175.179 235.824 177.009C233.725 178.556 232.27 180.824 231.735 183.379C231.504 185.004 231.658 186.66 232.184 188.215C232.71 189.769 233.594 191.178 234.764 192.327C238.701 197.029 238.095 198.697 235.672 202.489C234.112 204.942 233.033 207.67 232.492 210.528C230.827 214.016 229.009 217.353 227.192 220.69C223.709 227.363 220.075 233.885 216.138 240.407H167.984C165.99 240.6 164.015 240.955 162.078 241.468C163.38 239.261 164.446 236.923 165.258 234.492C165.614 234.004 165.824 233.426 165.864 232.823C167.681 226.756 165.864 222.055 160.109 218.111Z" fill="#F2F6FB"/>
<path d="M232.494 210.528C233.035 207.67 234.114 204.942 235.674 202.489C238.097 198.698 238.703 197.029 234.766 192.327C233.596 191.178 232.712 189.769 232.186 188.215C231.66 186.661 231.506 185.004 231.737 183.379C232.272 180.824 233.728 178.557 235.826 177.009C238.186 175.18 240.232 172.977 241.883 170.487C242.56 169.5 242.983 168.36 243.116 167.169C243.248 165.979 243.084 164.774 242.64 163.662C241.916 161.659 241.003 159.729 239.914 157.898C237.358 153.651 236.095 148.749 236.28 143.793C236.396 141.213 237.202 138.711 238.614 136.55C240.026 134.389 241.992 132.647 244.306 131.508C249 129.081 253.089 125.896 257.632 123.318C262.043 121.874 266.007 119.314 269.14 115.886C272.169 112.246 276.56 110.881 281.103 110.122C286.49 109.437 291.96 109.903 297.154 111.487C299.556 112.305 301.885 113.32 304.12 114.521C311.54 118.768 316.84 124.683 318.354 133.328C318.958 137.7 319.262 142.109 319.263 146.523C319.347 149.491 319.753 152.44 320.474 155.32C322.14 160.325 325.169 163.965 330.62 165.33C333.53 166.051 336.045 167.881 337.628 170.43C339.212 172.98 339.74 176.047 339.1 178.98C338.495 181.862 337.737 184.896 336.98 187.777C336.646 188.747 336.627 189.798 336.927 190.779C337.226 191.76 337.828 192.62 338.646 193.237C342.015 196.506 344.535 200.551 345.987 205.018C347.438 209.486 347.778 214.241 346.975 218.87C346.534 221.867 344.962 224.582 342.583 226.453C339.283 229.087 335.79 231.47 332.134 233.582L331.377 232.52C328.046 226.605 324.714 220.538 321.534 214.471C319.299 209.338 315.746 204.89 311.237 201.579C312.022 198.205 311.811 194.675 310.632 191.417C308.971 188.087 306.828 185.02 304.272 182.317C301.546 178.677 299.123 175.037 298.669 170.335C298.669 169.425 298.972 168.364 298.214 167.605V166.24C298.972 158.505 295.489 154.258 288.22 151.528C280.952 148.798 270.957 144.703 266.263 135.603C265.218 137.426 263.767 138.984 262.023 140.153C256.874 143.338 255.209 148.343 255.057 154.107C255.073 159.518 255.942 164.892 257.632 170.032C256.117 172.459 256.723 175.037 256.572 177.615C256.378 180.254 255.432 182.781 253.846 184.896C250.87 188.887 249.227 193.717 249.152 198.698L245.517 200.063C243.184 200.359 240.981 201.305 239.157 202.793C236.622 205.081 234.383 207.68 232.494 210.528ZM335.012 168.97C334.279 168.031 333.274 167.342 332.134 166.999L334.406 169.577C335.513 171.45 335.991 173.63 335.769 175.795C335.617 177.767 335.314 179.739 335.012 181.711C334.708 183.993 334.862 186.314 335.466 188.536C335.92 185.351 337.283 182.317 337.889 179.132C338.336 177.334 338.306 175.45 337.801 173.667C337.297 171.885 336.335 170.265 335.012 168.97ZM240.066 154.258C237.492 145.158 241.732 138.181 247.334 131.204C241.732 133.631 238.4 137.271 237.643 142.883C237.105 146.771 237.737 150.732 239.46 154.258C240.672 157.898 243.397 161.083 244.306 164.875C244.574 163.181 244.195 161.449 243.246 160.022C242.337 158.05 241.126 156.23 240.066 154.258ZM279.74 111.639C275.822 112.072 272.231 114.034 269.746 117.099C272.77 114.912 276.153 113.27 279.74 112.246L282.314 111.942C282.617 112.246 282.92 112.094 283.374 111.942C297.306 113.004 308.512 118.768 316.386 130.749C316.152 129.181 315.584 127.681 314.72 126.351C308.209 115.127 292.309 108.454 279.74 111.639ZM334.406 208.253V214.471C335.063 212.51 335.116 210.396 334.557 208.404C334.442 205.911 333.769 203.475 332.589 201.276C331.529 198.849 330.166 196.574 328.954 194.147C328.124 192.814 327.658 191.285 327.605 189.714C327.552 188.143 327.913 186.586 328.652 185.199C329.331 183.813 329.791 182.329 330.015 180.801C330.772 175.037 329.863 173.217 325.623 170.79L320.626 167.757C315.023 164.42 312.146 159.718 312.297 153.197C312.373 151.782 312.373 150.364 312.297 148.95C312.297 134.086 300.94 124.228 289.886 122.104C285.396 120.605 280.526 120.712 276.106 122.408C278.555 121.974 281.039 121.771 283.526 121.801C285.494 121.801 287.463 122.408 289.583 122.559C291.074 122.923 292.54 123.379 293.974 123.924C303.363 128.019 309.42 134.693 311.086 145.006C311.54 148.192 311.237 151.225 311.389 154.258C311.357 156.752 311.933 159.217 313.068 161.437C314.202 163.657 315.861 165.566 317.9 166.999C320.449 168.863 323.131 170.536 325.926 172.004C328.954 173.672 329.863 176.402 329.409 179.739C329.289 181.154 329.664 182.565 328.636 183.94C326.33 189.604 327.154 192.09 329.257 196.119C331.68 200.063 333.649 203.854 334.406 208.253ZM236.886 192.327C233.554 187.474 234.312 182.772 237.037 177.615C231.434 182.166 231.434 188.384 236.886 192.327Z" fill="#5F4B4A"/>
<path d="M115.44 468.67H74.4028C73.3428 462.148 72.2829 455.626 71.0714 448.953C69.2543 438.184 67.2857 427.264 65.3171 416.344L63.5 406.182H126.343C126.313 406.601 126.21 407.011 126.04 407.395L118.771 448.953C117.711 455.626 116.5 462.148 115.44 468.67Z" fill="#9D776A"/>
<path d="M79.7031 254.512C80.1574 251.479 81.9746 249.507 83.9432 247.535C84.8395 246.507 85.8563 245.59 86.9717 244.805C91.666 240.71 93.6346 235.402 94.0888 229.335C94.066 225.467 94.4211 221.606 95.1489 217.808C95.3003 216.746 95.7546 215.533 96.0574 214.32C96.6781 212.183 97.972 210.305 99.746 208.966C101.52 207.626 103.679 206.897 105.9 206.888H114.077C116.091 206.906 118.076 206.416 119.85 205.461C121.623 204.507 123.127 203.119 124.223 201.428C126.25 198.261 128.936 195.57 132.097 193.541C135.429 191.569 138.76 190.507 142.546 192.024C132.727 212.64 124.819 234.116 118.923 256.18C118.469 252.844 118.015 250.114 117.712 247.232C116.242 237.296 113.755 227.538 110.292 218.111C109.232 214.926 107.717 211.741 106.506 208.556C106.355 208.101 106.052 207.494 105.446 207.798C104.84 208.101 104.992 208.708 105.143 209.163L106.203 211.589C109.314 218.964 111.845 226.571 113.775 234.34C115.289 240.558 116.349 247.08 117.257 253.45C117.762 257.031 117.659 260.672 116.955 264.219C114.986 271.044 113.472 278.021 111.806 284.846L109.837 294.098C108.475 291.519 107.415 289.396 106.203 287.273C103.094 281.679 99.6031 276.307 95.7546 271.196C92.5746 267.101 89.0917 263.309 85.6088 259.365C83.9239 257.429 81.9279 255.789 79.7031 254.512V254.512Z" fill="#1D7E8E"/>
<path d="M532.922 372.663C533.569 369.788 534.378 366.952 535.345 364.169C537.313 364.018 539.282 364.321 541.25 364.018C541.854 364.338 542.547 364.445 543.219 364.321H587.133C587.853 364.361 588.574 364.258 589.253 364.018C594.705 364.624 594.856 364.624 594.25 359.164C593.645 353.704 592.888 346.576 592.13 340.357H619.085L616.813 362.198C616.662 363.714 616.965 364.169 618.63 364.169C620.296 364.169 625.748 364.169 629.23 364.169C632.713 364.169 631.199 364.473 631.048 365.838C630.896 367.203 630.896 370.388 630.896 372.663C630.896 374.938 626.353 372.815 624.082 372.663C621.81 372.511 621.962 373.118 621.962 374.786V399.963H535.193C535.193 391.622 535.042 383.28 535.193 374.938C535.193 373.118 534.588 372.511 532.922 372.663ZM578.653 376.758H540.645C539.13 376.758 538.676 377.213 538.676 378.73C538.878 383.886 538.878 389.043 538.676 394.2C538.676 395.868 539.282 396.172 540.796 396.172C549.428 396.02 558.059 396.172 566.539 396.172H615.753C618.328 396.172 618.328 396.02 618.328 393.593V378.881C618.479 377.213 618.025 376.758 616.359 376.758H578.653Z" fill="#9D776A"/>
<path d="M79.701 254.512C81.9258 255.789 83.9218 257.43 85.6067 259.366C89.0896 263.309 92.5725 267.101 95.7525 271.196C99.601 276.307 103.092 281.679 106.201 287.273C107.412 289.396 108.472 291.52 109.835 294.098L111.804 284.846C113.47 278.021 114.984 271.044 116.952 264.219C117.657 260.672 117.76 257.031 117.255 253.45C116.347 247.08 115.287 240.559 113.772 234.34C111.843 226.571 109.312 218.964 106.201 211.59L105.141 209.163C104.99 208.708 104.687 207.949 105.444 207.798C106.201 207.646 106.352 208.101 106.504 208.556C107.715 211.741 109.23 214.926 110.29 218.111C113.753 227.538 116.239 237.296 117.71 247.232C118.012 250.114 118.467 252.844 118.921 256.181C124.817 234.116 132.725 212.64 142.544 192.024C142.741 192.013 142.935 192.066 143.099 192.176C143.263 192.285 143.387 192.445 143.452 192.631C143.506 193.459 143.234 194.275 142.695 194.906C139.97 200.669 137.395 206.433 135.124 212.196C130.278 224.482 126.038 236.918 122.252 249.507C121.647 252.085 120.89 254.664 120.132 257.394L121.192 256.939L136.487 247.08C144.123 242.587 152.01 238.535 160.11 234.947C161.939 234.017 163.87 233.304 165.864 232.823C165.824 233.426 165.614 234.004 165.258 234.492C155.764 238.223 146.596 242.738 137.85 247.99C132.55 251.175 127.401 254.512 122.252 258.001C121.409 258.387 120.66 258.954 120.058 259.662C119.457 260.369 119.017 261.2 118.77 262.096C116.044 272.713 113.621 283.329 111.35 293.946C111.35 294.25 111.047 294.705 111.35 295.008C111.652 295.311 112.107 295.008 112.41 294.705L119.981 290.458C126.007 287.329 132.229 284.593 138.607 282.268C141.669 281.019 144.873 280.153 148.147 279.689V279.689V281.054L146.633 281.358C139.868 283.196 133.281 285.632 126.947 288.638C121.71 291.06 116.65 293.847 111.804 296.98C111.46 297.084 111.152 297.28 110.911 297.548C110.671 297.815 110.509 298.143 110.441 298.496L108.17 310.175C107.11 316.697 106.05 323.067 105.141 329.589C104.532 332.43 104.227 335.328 104.232 338.234C104.232 338.537 104.081 338.992 104.535 338.992C104.99 338.992 105.141 338.841 105.292 338.689C105.444 338.537 108.927 335.655 110.895 334.29C114.016 331.853 117.363 329.72 120.89 327.92V329.74C120.493 329.761 120.118 329.922 119.83 330.195C116.195 332.319 112.712 334.897 109.381 337.324C106.05 339.751 104.081 340.964 104.384 344.756C104.373 345.177 104.269 345.592 104.081 345.969C103.483 347.905 103.028 349.882 102.718 351.884C101.81 357.344 101.658 358.254 105.747 361.743C109.835 365.231 109.987 369.933 109.23 374.635C108.472 379.336 106.05 383.735 104.384 388.285H93.1782C91.9667 382.37 90.301 376.455 88.7868 370.54C88.1484 369.137 87.6904 367.659 87.4239 366.141C87.6185 360.731 88.9063 355.417 91.2096 350.519C93.6325 345.666 96.6611 340.964 99.5382 336.262C99.8411 335.807 100.295 335.2 99.5382 334.745C98.7811 334.29 98.4782 335.049 98.3268 335.504C95.7525 339.599 93.3296 343.694 90.9067 347.941C88.4966 352.413 86.9551 357.302 86.3639 362.349C86.061 361.743 85.9096 361.591 85.9096 361.288C82.881 352.187 79.5496 343.087 75.9153 334.29C75.6845 333.602 75.6845 332.856 75.9153 332.167C78.3691 323.189 82.0915 314.609 86.9696 306.687C88.2906 304.336 89.8105 302.103 91.5125 300.013C92.5725 302.591 92.4211 305.322 92.7239 307.748C92.8132 310.658 92.5075 313.566 91.8153 316.393C91.6406 317.09 91.6178 317.817 91.7485 318.524C91.8791 319.23 92.1601 319.9 92.5725 320.488C94.4052 322.511 95.9819 324.753 97.2668 327.162C98.6296 330.044 101.052 332.015 103.172 334.745C103.627 331.409 103.93 328.527 104.384 325.645C105.595 317.607 106.958 309.417 108.624 301.378C109.424 298.319 109.046 295.07 107.564 292.278C100.728 279.035 91.7192 267.038 80.9125 256.787C80.587 256.325 80.1011 256 79.5496 255.877C79.4585 255.417 79.5114 254.941 79.701 254.512ZM94.8439 326.707C93.9986 324.623 92.7653 322.718 91.2096 321.095C91.3109 322.257 91.6952 323.376 92.3288 324.355C92.9624 325.333 93.826 326.141 94.8439 326.707V326.707Z" fill="#01A09C"/>
<path d="M79.393 255.877C79.9444 256 80.4303 256.325 80.7558 256.787C91.5625 267.038 100.572 279.035 107.407 292.278C108.889 295.07 109.268 298.319 108.467 301.378C106.802 309.417 105.439 317.607 104.227 325.645C103.773 328.527 103.47 331.409 103.016 334.746C100.896 332.015 98.4729 330.044 97.1101 327.162C95.8252 324.753 94.2486 322.511 92.4158 320.489C92.0035 319.9 91.7224 319.23 91.5918 318.524C91.4611 317.817 91.4839 317.09 91.6587 316.393C92.3508 313.566 92.6565 310.658 92.5672 307.748C92.2644 305.322 92.4158 302.592 91.3558 300.013C89.6538 302.103 88.134 304.336 86.813 306.687C81.9349 314.609 78.2124 323.189 75.7586 332.167C75.5278 332.856 75.5278 333.602 75.7586 334.291C79.3929 343.087 82.7244 352.188 85.7529 361.288C85.7529 361.591 85.9044 361.743 86.2073 362.349C86.7985 357.302 88.34 352.413 90.7501 347.941C93.173 343.694 95.5958 339.599 98.1701 335.504C98.3215 335.049 98.7758 334.442 99.3815 334.746C99.9872 335.049 99.6844 335.807 99.3815 336.262C96.5044 340.964 93.4758 345.666 91.0529 350.519C88.7496 355.417 87.4618 360.731 87.2672 366.141C87.5337 367.659 87.9917 369.137 88.6301 370.54C90.1444 376.455 91.8101 382.37 93.0215 388.285H91.5073C90.1444 381.46 88.1758 374.786 86.3587 368.113C86.1857 367.327 85.8369 366.592 85.3385 365.961C84.84 365.331 84.2051 364.822 83.4815 364.473C77.5909 361.375 71.401 358.885 65.0073 357.041C59.4718 355.481 53.7865 354.515 48.0472 354.159C47.7407 353.714 47.5818 353.183 47.593 352.643C49.47 352.637 51.3441 352.79 53.1958 353.098C63.551 354.519 73.5882 357.699 82.8758 362.501C83.3301 362.804 83.9358 363.411 84.3901 362.956C84.8444 362.501 84.3901 361.894 84.2387 361.288C81.5129 352.794 78.3329 344.301 75.0015 335.959C74.8358 335.44 74.5401 334.972 74.1424 334.6C73.7447 334.229 73.2584 333.965 72.7301 333.835L66.0672 331.712C55.8309 328.513 45.1379 327.027 34.4187 327.314C34.0201 326.896 33.7563 326.367 33.6615 325.797C39.8947 325.592 46.1331 325.998 52.2872 327.01C58.8899 328.07 65.3791 329.745 71.6701 332.015C72.1244 332.167 72.5787 332.622 73.033 332.167C73.4872 331.712 72.8815 331.257 72.7301 330.954C70.0044 324.28 67.1272 317.758 64.0987 311.085C63.739 310.121 63.1517 309.259 62.3869 308.573C61.6222 307.886 60.7027 307.395 59.7073 307.142C58.6207 306.751 57.5588 306.295 56.5272 305.777C46.7857 301.596 36.6356 298.445 26.2415 296.373C26.0181 296.186 25.8355 295.955 25.7052 295.694C25.575 295.433 25.4998 295.148 25.4844 294.856C27.3374 294.99 29.1677 295.346 30.9358 295.918C40.7998 298.208 50.4312 301.407 59.7073 305.473C60.1615 305.777 60.6158 306.383 61.0701 305.928C61.5244 305.473 60.9187 304.715 60.7672 304.26L52.2872 288.638C49.251 282.922 45.8625 277.4 42.1415 272.106L35.9329 262.854C36.0844 262.399 36.5387 262.247 36.993 262.096C46.5584 275.299 54.9686 289.305 62.1301 303.957C62.7358 301.985 62.1301 300.316 62.1301 298.496C62.0323 293.433 62.2346 288.369 62.7358 283.329C63.1901 278.779 63.9472 274.229 64.8558 269.679C65.0072 269.072 65.1586 268.314 65.9158 268.466C66.6729 268.617 66.3701 269.376 66.3701 269.982C65.4615 274.381 64.7044 278.779 64.0987 283.329C63.3672 290.386 63.3165 297.497 63.9472 304.563C64.0952 307.167 64.8193 309.706 66.0672 311.995C68.1872 316.393 70.0044 320.944 72.1244 325.494C72.7688 327.382 73.5797 329.209 74.5472 330.954L76.0615 326.1C79.3467 316.432 84.0965 307.326 90.1444 299.103C90.7501 298.193 90.5987 297.89 89.993 297.283C88.7764 295.914 87.4042 294.693 85.9044 293.643C84.9958 293.036 83.633 292.733 83.0272 291.52C85.9044 287.576 85.6015 283.329 83.633 279.234C80.9072 272.956 79.4162 266.21 79.2415 259.366C78.9892 258.209 79.0414 257.007 79.393 255.877V255.877Z" fill="#1D7E8E"/>
<path d="M91.5138 388.285H133.762L134.065 388.74V404.514C134.065 405.727 133.762 406.182 132.551 406.182C131.34 406.182 128.462 406.182 126.342 406.182H63.4995C61.531 406.182 59.411 406.03 57.4424 406.182C55.4738 406.334 55.9281 405.879 55.9281 404.665V389.802C55.9281 388.74 56.231 388.285 57.291 388.285H91.5138Z" fill="#94624F"/>
<path d="M83.0343 291.52C83.64 292.733 85.0029 293.036 85.9114 293.643C87.4113 294.693 88.7835 295.914 90 297.283C90.6057 297.89 90.7571 298.193 90.1514 299.103C84.1035 307.326 79.3538 316.432 76.0686 326.1L74.5543 330.954C73.5867 329.209 72.7759 327.382 72.1314 325.494C70.0114 320.943 68.1943 316.393 66.0743 311.995C64.8263 309.706 64.1022 307.167 63.9543 304.563C63.3236 297.497 63.3743 290.386 64.1057 283.329C64.7114 278.779 65.4686 274.381 66.3771 269.982C66.3771 269.376 66.8314 268.617 65.9228 268.466C65.0143 268.314 65.0143 269.072 64.8629 269.679C63.9543 274.229 63.1972 278.779 62.7429 283.329C62.2416 288.369 62.0393 293.433 62.1371 298.496C62.1371 300.316 62.7428 301.985 62.1371 303.956C54.9756 289.305 46.5654 275.299 37 262.096C38.1198 261.435 39.3906 261.073 40.6901 261.047C41.9897 261.02 43.2742 261.329 44.42 261.944C46.9819 262.9 49.3066 264.401 51.2343 266.342C52.3066 267.513 53.6752 268.37 55.1949 268.824C56.7146 269.278 58.3286 269.312 59.8657 268.921C61.9857 268.617 64.1057 268.011 66.2257 267.859C67.6665 267.751 69.1075 268.067 70.3718 268.767C71.6361 269.468 72.6687 270.523 73.3429 271.802C74.7398 274.087 75.7145 276.604 76.22 279.234C76.7519 281.793 77.5645 284.286 78.6429 286.666C79.7029 288.638 80.7629 290.61 83.0343 291.52Z" fill="#01A09C"/>
<path d="M165.864 232.823C163.87 233.304 161.939 234.017 160.11 234.947C152.01 238.535 144.123 242.587 136.487 247.08L121.193 256.939L120.133 257.394C120.89 254.664 121.647 252.085 122.253 249.507C126.039 236.918 130.279 224.482 135.124 212.196C137.396 206.433 139.97 200.669 142.696 194.906C143.234 194.275 143.506 193.459 143.453 192.631C145.284 193.073 146.946 194.041 148.237 195.414C149.528 196.788 150.391 198.509 150.721 200.366C151.067 202.575 151.269 204.804 151.327 207.039C151.479 212.955 155.113 216.14 160.11 218.111C165.107 220.083 167.681 226.757 165.864 232.823Z" fill="#1D7E8E"/>
<path d="M575.176 291.671C572.299 292.126 569.573 291.671 566.696 291.975C565.761 291.673 564.754 291.673 563.819 291.975C560.942 291.671 558.065 292.126 555.188 291.671C555.188 291.368 555.49 290.913 555.49 290.458C555.793 282.571 556.399 274.533 557.005 266.494C557.307 261.641 557.307 256.787 557.762 251.934C557.913 249.962 557.913 247.99 558.065 246.019C558.367 240.862 558.822 235.857 559.125 230.7C563.062 230.548 567.15 230.548 571.088 230.7C571.47 232.749 571.623 234.835 571.542 236.918L572.905 256.484C573.207 261.186 573.359 265.736 573.662 270.437C574.116 277.566 574.722 284.694 575.176 291.671Z" fill="#FECB56"/>
<path d="M559.122 230.7C558.819 235.857 558.365 240.862 558.062 246.019C557.91 247.99 557.91 249.962 557.759 251.934C557.305 256.787 557.305 261.641 557.002 266.494C556.396 274.533 555.79 282.571 555.487 290.458C555.487 290.913 555.185 291.368 555.185 291.671C550.95 291.949 546.704 292 542.465 291.823H535.499C533.985 291.823 533.833 291.216 534.136 290.003L540.496 265.129L548.673 232.975C549.127 231.155 549.733 230.093 551.853 230.397C554.267 230.649 556.695 230.751 559.122 230.7V230.7Z" fill="#F9AD3F"/>
<path d="M575.174 291.671C574.72 284.694 574.114 277.566 573.66 270.437C573.357 265.736 573.206 261.186 572.903 256.484L571.54 236.918C571.621 234.835 571.469 232.749 571.086 230.7C573.963 230.397 576.689 230.7 579.415 230.548C582.14 230.397 580.777 231.458 580.929 232.217L587.743 258.911C590.469 269.224 593.043 279.538 595.617 289.7C596.223 291.823 596.223 291.823 593.952 291.823H575.174V291.671Z" fill="#F9AD3F"/>
<path d="M34.4219 327.314C45.1411 327.027 55.8341 328.513 66.0704 331.712L72.7333 333.835C73.2616 333.965 73.7479 334.229 74.1456 334.6C74.5433 334.972 74.8391 335.44 75.0047 335.959C78.3362 344.301 81.5162 352.794 84.2419 361.288C84.3933 361.894 84.999 362.501 84.3933 362.956C83.7876 363.411 83.3333 362.804 82.879 362.501C73.5914 357.699 63.5542 354.519 53.199 353.097C51.3474 352.789 49.4732 352.637 47.5962 352.642C47.1946 350.647 47.0925 348.602 47.2933 346.576C47.4496 344.857 47.2023 343.125 46.5713 341.518C45.9403 339.912 44.943 338.475 43.659 337.324L37.1476 331.257C35.924 330.192 34.9868 328.836 34.4219 327.314V327.314Z" fill="#01A09C"/>
<path d="M621.969 399.963V374.786C621.969 373.118 622.423 372.663 624.089 372.663C625.755 372.663 628.632 372.663 630.903 372.663C633.175 372.663 631.054 373.725 631.054 374.18V467.912C628.078 468.063 625.096 468.063 622.12 467.912C622.12 459.115 622.12 450.469 621.969 441.673V399.963Z" fill="#94624F"/>
<path d="M26.2422 296.373C36.6363 298.445 46.7863 301.596 56.5279 305.777C57.5595 306.295 58.6214 306.751 59.7079 307.142C60.7034 307.395 61.6228 307.886 62.3876 308.573C63.1523 309.259 63.7397 310.121 64.0993 311.085C67.1279 317.758 70.005 324.28 72.7307 330.954C72.8822 331.257 73.4879 331.712 73.0336 332.167C72.5793 332.622 72.1251 332.167 71.6708 332.015C65.3798 329.745 58.8905 328.07 52.2879 327.01C46.1337 325.998 39.8954 325.592 33.6622 325.797C33.1987 324.741 32.9721 323.596 32.9982 322.443C33.0244 321.29 33.3027 320.157 33.8136 319.124C34.4193 317.607 35.1765 316.242 35.7822 314.725C36.3987 313.584 36.6698 312.288 36.5622 310.995C36.4547 309.702 35.9731 308.468 35.1765 307.445C33.3273 305.069 31.3561 302.791 29.2708 300.62C28.1274 299.305 27.1132 297.883 26.2422 296.373V296.373Z" fill="#01A09C"/>
<path d="M563.815 291.975C564.751 291.673 565.757 291.673 566.692 291.975V347.486C566.692 349.154 567.147 349.457 568.661 349.457C572.901 349.306 577.292 349.457 581.684 349.457C586.075 349.457 584.864 350.216 584.864 352.642V353.401C584.864 356.586 584.864 356.586 588.044 356.738C591.224 356.889 589.255 357.041 589.255 357.951V364.018C588.576 364.258 587.855 364.361 587.135 364.321H543.221C542.549 364.445 541.856 364.338 541.252 364.018C541.252 362.046 541.252 360.226 541.101 358.254C540.95 356.283 541.555 356.586 542.767 356.738H544.432C545.19 356.738 545.492 356.434 545.492 355.676V352.339C545.492 350.216 546.401 349.457 548.672 349.457C550.944 349.457 557.455 349.306 561.847 349.457C563.361 349.457 563.815 349.002 563.815 347.486V291.975Z" fill="#0D304F"/>
<path d="M91.5069 388.285H76.0612L69.5498 384.038C68.6223 383.419 67.7598 382.708 66.9755 381.915C65.7777 380.927 64.8854 379.618 64.4027 378.14C63.9201 376.663 63.867 375.079 64.2498 373.573C65.4612 368.568 64.2498 366.141 59.7069 363.714L54.104 360.984C52.6197 360.42 51.2936 359.505 50.2389 358.317C49.1842 357.128 48.4321 355.702 48.0469 354.159C53.7862 354.515 59.4714 355.481 65.0069 357.041C71.4006 358.884 77.5905 361.375 83.4812 364.473C84.2047 364.822 84.8397 365.33 85.3381 365.961C85.8365 366.592 86.1854 367.327 86.3583 368.113C88.1754 374.786 90.1441 381.46 91.5069 388.285Z" fill="#01A09C"/>
<path d="M35.9371 262.854L42.1457 272.106C45.8667 277.4 49.2551 282.922 52.2914 288.638L60.7714 304.26C60.9228 304.715 61.68 305.322 61.0743 305.928C60.4686 306.535 60.1657 305.777 59.7114 305.473C50.4354 301.407 40.8039 298.208 30.94 295.918C29.1719 295.346 27.3416 294.99 25.4886 294.856C23.2171 290.61 23.9743 286.211 27.9114 283.481C31.8486 280.751 33.2114 277.718 32.3028 273.168C32.0521 272.074 31.9502 270.952 32 269.831C31.8824 268.407 32.1949 266.98 32.897 265.736C33.5991 264.492 34.6583 263.488 35.9371 262.854V262.854Z" fill="#01A09C"/>
<path d="M619.086 340.357H592.132C591.375 340.357 591.526 339.751 591.526 339.144C591.526 338.537 591.526 334.746 591.375 332.471C591.223 330.196 591.829 331.106 592.738 331.257H600.309C601.465 331.41 602.636 331.41 603.792 331.257C606.972 331.409 610 331.409 613.029 331.257H618.632C619.238 331.257 619.843 331.257 619.843 332.167V339.599C619.843 339.8 619.764 339.993 619.622 340.135C619.48 340.278 619.287 340.357 619.086 340.357Z" fill="#94624F"/>
<path d="M613.028 331.105C609.999 331.257 606.971 331.257 603.791 331.105C603.168 329.137 602.941 327.065 603.123 325.008C603.305 322.952 603.893 320.951 604.851 319.124C606.365 316.09 606.365 316.09 609.394 316.393C609.545 316.09 609.242 315.787 609.091 315.635C606.668 313.057 608.637 309.417 611.06 308.507C613.482 307.597 613.482 309.113 614.694 309.417C615.905 309.72 615.3 310.933 615.451 311.692C615.716 312.893 615.66 314.142 615.287 315.314C614.915 316.486 614.24 317.539 613.331 318.365C612.725 318.82 612.422 319.124 612.877 320.034C613.802 321.727 614.299 323.621 614.326 325.551C614.352 327.481 613.906 329.388 613.028 331.105V331.105Z" fill="#01A09C"/>
<path d="M614.693 309.417C613.481 309.113 612.724 307.9 611.059 308.507C609.393 309.113 606.667 313.057 609.09 315.635C609.241 315.787 609.544 316.09 609.393 316.393C606.364 316.09 606.364 316.09 604.85 319.124C603.892 320.952 603.304 322.952 603.122 325.008C602.94 327.065 603.167 329.137 603.79 331.105C602.634 331.258 601.463 331.258 600.307 331.105C599.094 328.447 598.775 325.467 599.399 322.612C599.701 322.005 599.399 321.854 598.641 321.55C594.856 320.185 593.947 318.669 594.856 314.725C595.007 314.118 594.553 313.815 594.25 313.512C593.947 313.208 593.19 310.478 595.159 309.568C594.856 312.45 596.976 314.573 597.884 317C598.793 319.427 598.793 317.91 599.399 318.214C600.004 318.517 602.427 317.455 603.79 316.393C605.153 315.332 604.547 315.483 604.396 315.028C604.291 314.136 604.371 313.23 604.632 312.37C604.893 311.51 605.328 310.713 605.911 310.029C606.494 309.346 607.212 308.79 608.02 308.397C608.827 308.005 609.707 307.784 610.604 307.748C611.21 307.597 611.513 307.445 611.664 306.838C611.714 306.501 611.834 306.179 612.017 305.891C612.2 305.604 612.441 305.358 612.724 305.17C612.876 306.687 612.876 308.203 614.844 308.507C616.813 308.81 614.996 308.962 615.147 309.113L614.693 309.417Z" fill="#1D7E8E"/>
<path d="M603.794 316.393C602.432 317.455 601.523 319.275 599.403 318.213C597.283 317.152 598.04 317.607 597.889 317C597.737 316.393 594.86 312.45 595.163 309.568C595.37 309.469 595.596 309.414 595.826 309.407C596.055 309.4 596.284 309.44 596.497 309.526C596.711 309.611 596.904 309.74 597.065 309.904C597.227 310.068 597.352 310.263 597.434 310.478C597.889 311.995 598.949 311.995 600.009 312.147C601.04 312.29 601.987 312.796 602.68 313.574C603.373 314.352 603.768 315.351 603.794 316.393V316.393Z" fill="#01A09C"/>
<path d="M615.149 309.113C614.998 308.962 614.998 308.507 614.847 308.507C614.695 308.507 612.878 306.687 612.727 305.17H613.029V304.867C613.235 304.631 613.493 304.449 613.783 304.333C614.073 304.218 614.386 304.173 614.697 304.203C615.008 304.232 615.307 304.335 615.57 304.504C615.833 304.672 616.052 304.9 616.209 305.17C616.967 306.383 616.512 307.9 615.149 309.113Z" fill="#01A09C"/>
<path d="M612.877 305.018V305.319H612.727L612.877 305.018Z" fill="#1D7E8E"/>
<path d="M469.327 421.197H270.652C269.744 418.467 268.987 415.585 268.078 412.704V412.249H506.73C506.73 414.372 506.578 416.496 506.73 418.619C506.554 420.337 506.605 422.071 506.881 423.776C510.061 436.364 513.09 448.953 516.118 461.541C516.501 462.789 516.472 464.127 516.035 465.356C515.599 466.585 514.778 467.641 513.695 468.367C512.267 468.82 510.733 468.82 509.304 468.367L508.547 468.063C507.356 466.879 506.472 465.421 505.973 463.817L501.278 451.076L490.83 422.562C490.527 421.804 490.527 421.046 489.315 421.046L469.327 421.197Z" fill="#847987"/>
<path d="M146.786 468.367C145.63 467.672 144.754 466.593 144.312 465.318C143.869 464.043 143.887 462.653 144.363 461.39C147.543 448.346 150.571 435.454 153.751 422.562C154.66 419.074 154.054 415.586 154.206 412.097H247.334C247.628 412.785 247.983 413.445 248.394 414.069C249.757 415.889 250.06 418.164 251.877 419.681V421.197H171.166C169.954 421.197 169.954 421.956 169.651 422.714L158.748 452.29C157.234 456.385 155.871 460.328 154.357 464.272C153.973 465.8 153.061 467.144 151.783 468.063C151.48 468.063 151.177 468.063 151.026 468.367C150.359 468.668 149.637 468.824 148.906 468.824C148.175 468.824 147.452 468.668 146.786 468.367V468.367Z" fill="#847987"/>
<path d="M526.265 468.215C526.063 467.526 526.011 466.802 526.114 466.092V389.802C528.688 384.19 530.808 378.426 532.928 372.663C534.594 372.511 535.199 373.118 535.199 374.938C535.048 383.28 535.199 391.622 535.199 399.964V441.673C535.048 449.863 535.048 458.053 535.048 466.243C535.073 466.904 535.022 467.566 534.896 468.215H526.265Z" fill="#94624F"/>
<path d="M289.275 468.367C280.644 465.333 276.404 458.205 272.164 450.925L276.858 453.655C278.556 454.62 280.505 455.05 282.45 454.888C284.396 454.726 286.247 453.978 287.761 452.745C290.941 450.47 291.396 447.284 290.487 443.796C293.468 444.636 296.232 446.116 298.585 448.133C300.938 450.149 302.825 452.654 304.116 455.475C306.69 460.935 304.721 465.788 298.967 468.063L298.21 468.367C295.28 469.124 292.206 469.124 289.275 468.367Z" fill="#F66058"/>
<path d="M489.469 239.042C493.976 238.768 498.448 239.986 502.196 242.507C505.945 245.028 508.762 248.713 510.215 252.995C511.208 256.088 511.768 259.304 511.88 262.551C511.88 266.494 512.032 270.286 511.729 274.229C510.669 275.139 511.426 276.504 511.123 277.566C510.259 282.976 508.942 288.303 507.186 293.491C504.106 301.545 499.475 308.915 493.557 315.18C486.204 322.892 477.405 329.077 467.663 333.38C466.3 333.987 465.089 335.049 463.423 334.594L464.332 332.774C466.187 328.997 467.171 324.85 467.209 320.64C467.815 311.388 462.515 304.412 453.883 303.047C449.205 302.609 444.496 303.448 440.255 305.473C432.835 308.81 425.112 309.417 417.086 308.81C413.959 308.556 410.815 308.607 407.697 308.962C406.789 308.81 406.334 308.052 405.88 307.445C404.083 304.973 402.163 302.594 400.126 300.316C398.612 298.648 397.703 298.8 396.946 300.771C396.261 302.683 395.803 304.668 395.583 306.687C395.628 307.066 395.529 307.449 395.304 307.759C395.079 308.068 394.746 308.281 394.372 308.355C391.83 308.931 389.449 310.071 387.406 311.692C387.066 311.908 386.672 312.022 386.27 312.022C385.868 312.022 385.474 311.908 385.134 311.692C383.494 310.702 381.704 309.985 379.834 309.568C377.412 308.962 376.655 309.72 377.412 311.995C379.38 317.91 379.835 324.432 384.832 329.285L383.469 329.74C382.106 330.044 380.592 330.499 380.289 332.167C379.986 333.836 381.197 335.049 382.56 335.959L383.015 336.262C382.075 336.741 381.04 337.001 379.986 337.021C379.683 335.959 378.623 335.959 377.866 335.656C373.36 333.778 368.962 331.651 364.692 329.285C362.42 328.072 360.603 326.252 358.18 325.494C357.966 323.458 357.331 321.489 356.314 319.713C355.297 317.937 353.921 316.393 352.275 315.18C349.65 313.232 346.577 311.98 343.34 311.54C343.492 310.478 342.583 310.023 342.129 309.265C340.841 307.025 339.372 304.895 337.737 302.895L340.16 298.951C344.855 291.065 348.034 282.571 347.277 273.016C348.943 272.864 349.094 271.954 348.792 270.437C347.95 266.39 346.733 262.429 345.157 258.607C343.037 253.45 340.009 248.597 337.586 243.44C339.542 241.738 341.833 240.466 344.312 239.708C346.79 238.951 349.4 238.723 351.972 239.042C352.123 239.497 352.577 239.649 352.88 239.8C358.437 241.866 364.098 243.638 369.84 245.109C379.682 247.687 389.705 249.512 399.823 250.569C406.183 251.327 412.543 251.63 418.903 251.934C423.296 252.136 427.698 252.035 432.077 251.63C435.56 251.479 439.194 251.327 442.677 250.872C449.189 249.962 455.7 249.052 462.06 247.687C470.856 245.762 479.509 243.228 487.955 240.104C488.271 240.053 488.571 239.931 488.833 239.747C489.096 239.563 489.313 239.322 489.469 239.042Z" fill="#174EBD"/>
<path opacity="0.9" d="M463.419 334.594C465.085 335.049 466.296 333.987 467.659 333.38C477.401 329.077 486.2 322.892 493.553 315.18C499.471 308.914 504.102 301.545 507.182 293.491C508.938 288.303 510.255 282.976 511.119 277.566C511.422 276.504 510.521 275.07 511.632 274.33C511.876 272.248 511.876 275.594 511.876 276.353C511.876 287.879 511.876 299.406 511.725 310.933C506.728 316.545 505.062 323.522 503.85 330.802C502.033 341.722 499.005 352.036 492.645 361.288C488.863 367.207 483.587 372.021 477.35 375.241C472.683 377.525 467.667 379.012 462.51 379.64C456.343 380.522 450.112 380.877 443.885 380.701C435.859 380.55 427.833 381.915 419.656 381.763C411.612 382.129 406.633 382.066 400.122 381.763C358.479 379.488 316.685 381.308 275.042 380.701C270.196 380.701 265.199 381.611 260.353 381.46C259.654 378.915 259.097 376.332 258.688 373.725C262.322 373.725 265.805 373.27 269.288 373.118C272.77 372.966 277.465 372.36 281.402 371.905C289.087 370.952 296.683 369.379 304.116 367.203C311.082 365.079 317.896 362.804 323.65 358.103C326.073 356.283 328.193 354.311 328.799 351.126H329.556C329.859 351.429 330.162 351.581 330.162 351.732C331.433 354.611 333.478 357.079 336.068 358.861C342.579 363.866 350.302 366.293 358.176 368.264C367.137 370.456 376.247 371.976 385.433 372.815C392.702 373.421 399.97 373.876 407.239 374.18C414.81 374.331 422.382 374.028 429.953 373.421C437.525 372.815 442.37 372.511 448.579 371.601C458.502 370.462 468.259 368.172 477.653 364.776C483.256 362.653 488.708 360.074 492.796 355.221C494.176 354.023 495.043 352.34 495.219 350.519C495.255 350.095 495.192 349.669 495.034 349.274C494.876 348.879 494.628 348.526 494.31 348.244C491.13 345.211 487.193 344.149 483.256 342.936C475.863 340.873 468.319 339.402 460.693 338.537L463.116 334.897C463.268 335.049 463.419 335.2 463.57 334.745L463.419 334.594Z" fill="#174EBD"/>
<path opacity="0.9" d="M489.466 239.042C489.31 239.322 489.093 239.563 488.83 239.747C488.568 239.93 488.268 240.052 487.952 240.103C479.506 243.228 470.853 245.762 462.057 247.687C455.697 249.052 449.186 249.962 442.674 250.872C439.192 251.327 435.557 251.479 432.074 251.63C427.695 252.035 423.293 252.136 418.9 251.934C412.54 251.63 406.18 251.327 399.82 250.569C389.702 249.512 379.679 247.687 369.837 245.109C364.095 243.638 358.434 241.866 352.877 239.8C352.574 239.648 352.12 239.497 351.969 239.042H489.466V239.042Z" fill="#174EBD"/>
<path d="M337.583 243.44C340.006 248.597 343.035 253.45 345.155 258.607C346.73 262.429 347.947 266.39 348.789 270.437C349.092 271.954 348.94 272.864 347.275 273.016L345.306 273.319C340.763 274.077 336.372 275.291 331.678 275.291C331.98 270.741 332.435 266.191 332.889 261.792C332.992 261.214 332.978 260.62 332.848 260.047C332.718 259.474 332.474 258.933 332.132 258.456C331.829 256.939 330.92 256.332 329.255 256.332H314.112L311.689 252.237C311.665 251.626 311.715 251.015 311.84 250.417C314.833 242.111 315.513 233.145 313.809 224.481C312.598 216.291 311.992 207.949 308.055 200.366C309.266 200.366 310.175 201.276 311.235 201.579C315.744 204.89 319.297 209.338 321.532 214.471C324.712 220.538 328.043 226.605 331.375 232.52L332.132 233.582C333.797 236.918 335.615 240.255 337.583 243.44Z" fill="#727CD9"/>
<path d="M329.555 351.126H328.798C325.315 351.884 322.135 353.249 318.804 354.159C305.817 357.766 292.617 360.553 279.281 362.501L264.895 365.079C263.684 360.833 262.624 356.738 261.564 352.643C260.504 348.547 260.05 347.334 255.053 349.609C254.295 350.064 253.993 350.368 254.295 351.126L257.475 366.444C257.731 368.894 258.136 371.325 258.687 373.725C259.097 376.332 259.653 378.915 260.353 381.46C261.461 387.444 262.877 393.367 264.593 399.205C265.804 403.452 267.015 407.699 268.075 412.097V412.552L251.873 419.529C250.055 418.012 249.753 415.737 248.39 413.917C247.979 413.293 247.624 412.633 247.33 411.945C241.878 401.784 236.427 391.773 231.278 381.46C230.218 378.73 229.007 376.151 227.795 373.421C227.247 371.641 226.537 369.915 225.675 368.265L225.373 367.506C223.253 361.743 221.587 355.828 219.77 350.064C219.829 349.491 219.724 348.912 219.467 348.396C219.359 347.354 219.104 346.333 218.71 345.362C218.407 343.542 218.255 341.571 217.953 339.599C217.828 336.797 218.083 333.991 218.71 331.257C219.359 327.747 221.224 324.58 223.975 322.311C226.727 320.043 230.189 318.819 233.753 318.855C237.316 318.891 240.753 320.185 243.458 322.509C246.163 324.833 247.963 328.038 248.541 331.56C248.717 332.076 248.919 332.582 249.147 333.077C249.467 333.811 249.72 334.573 249.904 335.352C250.207 337.172 251.115 337.627 252.781 337.627C261.715 337.476 270.498 337.324 279.281 337.627C283.975 337.779 287.61 335.656 291.395 333.532L292.91 332.925C304.418 326.859 315.624 320.64 327.587 315.635L329.555 315.028C333.924 313.108 338.581 311.929 343.335 311.54C346.572 311.98 349.645 313.232 352.27 315.18C353.916 316.393 355.292 317.937 356.309 319.713C357.326 321.489 357.962 323.458 358.175 325.494C358.252 329.495 356.85 333.385 354.238 336.414L350.604 340.357C345.531 343.643 340.156 346.436 334.553 348.699C332.887 349.458 330.918 349.609 329.555 351.126Z" fill="#262626"/>
<path d="M162.079 241.468C164.015 240.955 165.99 240.6 167.984 240.407H169.953C171.004 241.261 172.255 241.835 173.587 242.075C185.545 246.245 197.863 249.292 210.384 251.175L209.627 252.995C206.688 258.422 204.546 264.246 203.267 270.286C202.964 271.802 203.116 272.712 204.782 273.016C204.583 275.547 204.685 278.092 205.084 280.599C205.837 285.514 207.371 290.276 209.627 294.705L199.33 295.918L182.824 297.586C177.524 298.193 172.073 298.496 166.773 299.255C165.184 299.157 163.591 299.363 162.079 299.861C161.06 299.805 160.038 299.907 159.05 300.165L154.356 300.62C151.837 294.746 150.057 288.581 149.056 282.268C148.904 281.358 149.359 280.144 148.147 279.538V278.779C148.435 278.47 148.594 278.064 148.594 277.642C148.594 277.219 148.435 276.813 148.147 276.504C148.147 271.802 147.996 266.949 148.299 262.247C148.327 256.265 150.724 250.538 154.962 246.322C157.115 244.404 159.507 242.773 162.079 241.468V241.468Z" fill="#174EBD"/>
<path d="M148.143 278.931V279.689C144.869 280.153 141.665 281.019 138.603 282.268C132.225 284.593 126.003 287.329 119.977 290.458L112.406 294.705C112.103 295.008 111.648 295.463 111.346 295.008C111.043 294.553 111.346 294.25 111.346 293.946C113.617 283.329 116.04 272.712 118.766 262.096C119.013 261.2 119.453 260.369 120.054 259.662C120.656 258.954 121.405 258.387 122.248 258.001C127.397 254.512 132.546 251.175 137.846 247.99C146.592 242.738 155.76 238.223 165.254 234.492C164.442 236.923 163.376 239.262 162.074 241.468C159.495 242.82 157.102 244.502 154.957 246.474C150.719 250.689 148.323 256.416 148.294 262.399C147.991 267.101 148.143 271.954 148.143 276.656V278.931Z" fill="#1D7E8E"/>
<path d="M204.78 273.167C203.115 272.864 202.963 271.954 203.266 270.437C204.544 264.397 206.687 258.574 209.626 253.147L210.383 251.327C212.352 247.687 214.32 244.047 216.138 240.407C220.075 233.885 223.709 227.363 227.192 220.69C229.009 217.353 230.826 214.016 232.492 210.528C234.38 207.68 236.619 205.081 239.155 202.793C240.978 201.304 243.181 200.359 245.515 200.062C244.105 201.951 243.123 204.125 242.638 206.433C240.663 214.458 239.296 222.62 238.549 230.851C238.211 235.68 238.568 240.533 239.609 245.26C240.063 247.383 241.123 249.204 241.123 251.327C241.123 253.45 238.852 254.512 237.943 256.332H223.86C222.195 256.332 221.135 256.787 220.832 258.607C220.101 259.84 219.884 261.31 220.226 262.702C220.68 266.949 221.135 271.347 221.438 275.594L214.472 274.684C211.292 274.381 208.112 273.167 204.78 273.167Z" fill="#727CD9"/>
<path opacity="0.9" d="M216.139 240.407C214.322 244.047 212.353 247.687 210.385 251.327C197.864 249.443 185.545 246.397 173.587 242.227C172.255 241.987 171.005 241.413 169.953 240.558H216.139V240.407Z" fill="#174EBD"/>
<path d="M241.12 251.327C241.12 249.204 240.06 247.384 239.605 245.26C238.564 240.533 238.207 235.681 238.545 230.852C239.292 222.621 240.659 214.458 242.634 206.433C243.119 204.125 244.101 201.951 245.511 200.063L249.145 198.698L250.962 198.394C255.657 197.636 260.048 196.271 264.742 195.816C264.894 196.574 264.288 197.029 263.985 197.636C263.136 198.886 262.544 200.293 262.244 201.775C261.943 203.257 261.941 204.784 262.238 206.267C262.534 207.75 263.122 209.159 263.968 210.411C264.814 211.664 265.901 212.735 267.165 213.561C272.162 216.898 277.765 216.898 283.368 215.836C286.473 215.371 289.286 213.745 291.242 211.286C293.968 207.798 293.968 202.944 291.394 198.698C290.94 197.939 289.88 197.333 290.485 196.119C296.391 197.333 302.448 197.939 308.051 200.366C311.988 207.95 312.594 216.291 313.805 224.482C315.51 233.146 314.829 242.111 311.837 250.417C311.712 251.015 311.661 251.626 311.685 252.237C310.689 253.393 310.057 254.817 309.868 256.332H243.24C242.822 254.555 242.105 252.863 241.12 251.327V251.327Z" fill="#94A2F2"/>
<path d="M290.489 196.119C289.883 197.333 290.943 197.939 291.398 198.698C293.972 202.944 293.972 207.798 291.246 211.286C289.29 213.745 286.476 215.371 283.372 215.836C277.769 216.898 272.166 216.898 267.169 213.561C265.905 212.735 264.818 211.664 263.972 210.411C263.126 209.159 262.537 207.75 262.241 206.267C261.945 204.784 261.947 203.257 262.247 201.775C262.547 200.293 263.139 198.886 263.989 197.636C264.292 197.029 264.898 196.574 264.746 195.816C266.121 193.841 266.956 191.541 267.169 189.142C267.545 188.045 267.572 186.858 267.247 185.744C266.922 184.63 266.259 183.645 265.352 182.924C261.566 179.436 259.598 174.734 257.629 170.032C255.94 164.892 255.071 159.518 255.055 154.107C255.206 148.343 256.872 143.338 262.02 140.153C263.765 138.984 265.216 137.427 266.26 135.603C270.955 144.703 279.586 148.343 288.218 151.528C296.849 154.713 298.969 158.505 298.212 166.24V167.605C298.212 167.757 298.06 167.757 297.909 167.909C296.869 174.251 293.591 180.01 288.672 184.137C287.986 184.615 287.47 185.298 287.198 186.089C286.926 186.88 286.912 187.737 287.158 188.536C287.124 189.096 287.175 189.659 287.309 190.204C288.066 192.479 288.369 194.754 290.489 196.119Z" fill="#F7A07A"/>
<path d="M290.49 196.119C288.37 194.754 288.068 192.479 287.31 190.204C287.177 189.659 287.126 189.096 287.159 188.536C286.913 187.736 286.927 186.88 287.199 186.089C287.472 185.298 287.988 184.615 288.673 184.137C293.593 180.01 296.87 174.251 297.91 167.909C298.062 167.757 298.213 167.757 298.213 167.605C298.999 168.382 298.668 169.425 298.668 170.335C299.122 175.037 301.545 178.677 304.27 182.317C306.827 185.02 308.97 188.087 310.63 191.417C311.81 194.675 312.021 198.205 311.236 201.579C310.176 201.276 309.268 200.366 308.056 200.366C302.453 197.939 296.396 197.333 290.49 196.119Z" fill="#543C3C"/>
<path d="M257.628 170.032C259.597 174.734 261.566 179.436 265.351 182.924C266.259 183.645 266.921 184.63 267.246 185.744C267.572 186.858 267.545 188.045 267.168 189.142C266.956 191.54 266.121 193.841 264.746 195.816C260.051 196.271 255.66 197.636 250.966 198.394L249.148 198.698C249.224 193.717 250.866 188.887 253.843 184.896C255.429 182.781 256.375 180.254 256.568 177.615C256.72 175.037 256.114 172.459 257.628 170.032Z" fill="#543C3C"/>
<path d="M289.881 122.104C300.935 124.228 312.292 134.086 312.292 148.95C312.368 150.364 312.368 151.782 312.292 153.197C312.141 159.718 315.018 164.42 320.621 167.757L325.618 170.79C329.858 173.217 330.767 175.037 330.01 180.8C329.786 182.329 329.326 183.813 328.647 185.199C327.908 186.586 327.547 188.143 327.6 189.714C327.654 191.285 328.119 192.814 328.95 194.147C330.161 196.574 331.524 198.849 332.584 201.276C333.764 203.475 334.437 205.911 334.552 208.404H334.401C333.644 204.006 331.372 200.063 329.252 196.271C327.132 192.479 325.921 188.384 328.344 183.986C329.001 182.459 329.284 181.306 329.404 179.89C329.858 176.554 328.95 173.824 325.921 172.155C323.126 170.687 320.444 169.014 317.895 167.15C315.856 165.718 314.197 163.809 313.063 161.589C311.928 159.368 311.352 156.904 311.384 154.41C311.232 151.377 311.535 148.343 311.081 145.158C309.415 134.845 303.358 128.171 293.97 124.076C292.535 123.531 291.069 123.075 289.578 122.711L289.881 122.104Z" fill="#543C3C"/>
<path d="M282.309 111.942L279.734 112.246V111.639C292.303 108.454 308.203 115.127 314.714 126.351C315.578 127.681 316.146 129.181 316.38 130.749C308.506 118.767 297.3 113.004 283.369 111.942C283.316 111.848 283.239 111.768 283.146 111.713C283.053 111.658 282.947 111.629 282.839 111.629C282.73 111.629 282.624 111.658 282.531 111.713C282.438 111.768 282.361 111.848 282.309 111.942V111.942Z" fill="#543C3C"/>
<path d="M239.457 154.258C237.734 150.732 237.101 146.772 237.64 142.883C238.397 137.271 241.728 133.631 247.331 131.205C241.728 138.181 237.488 145.158 240.063 154.258H239.457Z" fill="#543C3C"/>
<path d="M335.004 168.97C336.327 170.265 337.289 171.885 337.794 173.667C338.299 175.45 338.329 177.334 337.881 179.132C337.276 182.317 335.913 185.351 335.458 188.536C334.855 186.314 334.7 183.993 335.004 181.71C335.307 179.739 335.61 177.767 335.761 175.795C335.984 173.63 335.506 171.45 334.398 169.577L335.004 168.97Z" fill="#543C3C"/>
<path d="M236.882 192.327C231.431 188.384 231.431 182.166 237.034 177.615C234.308 182.772 233.551 187.474 236.882 192.327Z" fill="#543C3C"/>
<path d="M279.736 111.639V112.246C276.149 113.27 272.767 114.912 269.742 117.099C272.227 114.034 275.818 112.072 279.736 111.639V111.639Z" fill="#543C3C"/>
<path d="M239.453 154.258H240.059C241.119 156.23 242.33 158.05 243.239 160.022C244.188 161.449 244.567 163.181 244.299 164.875C243.39 161.083 240.665 157.898 239.453 154.258Z" fill="#543C3C"/>
<path d="M289.882 122.105L289.735 122.817C287.615 122.665 285.49 121.801 283.522 121.801C281.035 121.771 278.551 121.974 276.102 122.408C280.521 120.712 285.392 120.605 289.882 122.105Z" fill="#543C3C"/>
<path d="M334.398 208.253H334.55C335.108 210.244 335.055 212.358 334.398 214.319V208.253Z" fill="#543C3C"/>
<path d="M335.01 168.971L334.404 169.577L332.133 166.999C333.272 167.342 334.278 168.031 335.01 168.971V168.971Z" fill="#543C3C"/>
<path d="M282.312 111.942C282.365 111.848 282.442 111.769 282.535 111.713C282.628 111.658 282.734 111.629 282.842 111.629C282.951 111.629 283.057 111.658 283.15 111.713C283.243 111.769 283.32 111.848 283.372 111.942C282.918 112.094 282.615 112.246 282.312 111.942Z" fill="#543C3C"/>
<path d="M578.657 376.758H616.363C618.028 376.758 618.483 377.213 618.331 378.881V393.593C618.331 396.02 618.331 396.172 615.757 396.172H566.543C558.063 396.172 549.431 396.02 540.8 396.172C539.285 396.172 538.68 395.868 538.68 394.2C538.882 389.043 538.882 383.887 538.68 378.73C538.68 377.213 539.134 376.758 540.648 376.758H578.657Z" fill="#94624F"/>
<path d="M231.28 381.46C236.429 391.773 241.88 401.784 247.332 411.945H154.203C152.248 410.723 150.509 409.186 149.055 407.395C143.477 401.614 138.457 395.317 134.063 388.588C134.063 388.437 133.912 388.285 133.76 388.133C133.679 387.609 133.526 387.099 133.306 386.617C130.856 381.101 128.782 375.426 127.097 369.63C126.643 368.265 126.643 366.748 125.583 365.686C125.631 364.816 125.528 363.943 125.28 363.108C122.706 354.008 120.586 344.756 120.586 335.201C120.586 333.38 120.737 331.56 120.737 329.589C120.862 328.991 120.913 328.379 120.889 327.769L121.343 326.555C122.403 320.489 124.523 315.028 129.369 310.782C134.215 306.535 140.272 305.625 145.723 308.81C146.48 309.113 146.935 310.023 147.843 309.872C149.633 311.802 151.255 313.882 152.689 316.09C153.295 317.152 153.446 318.517 154.355 319.427C155.201 321.862 155.909 324.343 156.475 326.859C158.3 332.741 158.868 338.942 158.14 345.059C157.837 347.941 159.2 349.609 161.926 349.609C162.683 351.884 164.046 354.008 164.652 356.283C165.045 357.222 165.5 358.134 166.015 359.013C167.55 361.187 169.219 363.264 171.012 365.231C175.597 370.763 181.626 374.911 188.426 377.213C194.806 379.411 201.517 380.488 208.263 380.398C215.986 380.701 223.709 381.308 231.28 381.46Z" fill="#174EBD"/>
<path d="M147.846 310.023C146.937 310.175 146.483 309.265 145.726 308.961C140.274 305.776 133.914 307.141 129.372 310.933C124.829 314.725 122.406 320.64 121.346 326.707L120.892 327.92C117.365 329.72 114.018 331.853 110.897 334.29C108.929 335.655 107.112 337.172 105.294 338.689C103.477 340.205 104.84 339.144 104.537 338.992C104.234 338.84 104.234 338.537 104.234 338.234C104.229 335.328 104.534 332.43 105.143 329.589C106.052 323.067 107.112 316.697 108.172 310.175L110.443 298.496C110.51 298.143 110.673 297.815 110.913 297.548C111.154 297.28 111.462 297.084 111.806 296.98C116.652 293.847 121.712 291.06 126.949 288.638C133.283 285.632 139.87 283.196 146.634 281.358L148.149 281.054C148.199 283.434 148.098 285.815 147.846 288.183V310.023Z" fill="#1D7E8E"/>
<path d="M120.738 329.74C120.738 331.712 120.586 333.532 120.586 335.352C120.586 344.907 122.706 354.159 125.281 363.259C125.529 364.095 125.631 364.967 125.584 365.838L124.069 367.506C117.255 373.573 112.258 381.156 106.806 388.285H104.232C105.898 383.735 108.321 379.488 109.078 374.635C109.835 369.781 109.684 365.383 105.595 361.743C101.506 358.103 101.658 357.344 102.566 351.884C102.876 349.882 103.332 347.905 103.929 345.969C104.118 345.592 104.221 345.177 104.232 344.756C103.929 340.964 106.504 339.295 109.229 337.324C111.955 335.352 116.043 332.319 119.678 330.195C119.966 329.922 120.342 329.761 120.738 329.74V329.74Z" fill="#1D7E8E"/>
<path opacity="0.9" d="M147.844 310.023V288.183C148.096 285.815 148.197 283.434 148.147 281.054V279.689C149.358 280.296 148.904 281.509 149.055 282.419C150.056 288.733 151.837 294.897 154.355 300.771C151.175 303.198 150.872 304.411 151.781 308.355C152.689 312.298 153.749 315.787 154.355 319.578C153.447 318.668 153.295 317.303 152.689 316.242C151.255 314.034 149.634 311.953 147.844 310.023V310.023Z" fill="#174EBD"/>
<path d="M94.8452 326.707C93.8273 326.141 92.9637 325.333 92.3301 324.355C91.6965 323.376 91.3122 322.257 91.2109 321.095C92.7666 322.718 93.9999 324.623 94.8452 326.707V326.707Z" fill="#1D7E8E"/>
<path d="M535.195 433.028H621.964V441.673H535.195V433.028Z" fill="#9D776A"/>
<path d="M251.87 419.529L268.073 412.552C268.981 415.434 269.739 418.315 270.647 421.045C271.664 425.601 273.978 429.764 277.31 433.027C281.131 437.266 285.573 440.897 290.484 443.796C291.393 447.284 290.939 450.469 287.759 452.745C286.244 453.978 284.393 454.725 282.448 454.888C280.502 455.05 278.553 454.62 276.856 453.654L272.161 450.924C266.407 442.886 260.35 434.999 255.353 426.657C254.141 424.686 253.384 422.562 251.719 421.045C250.053 419.529 251.87 419.984 251.87 419.529Z" fill="#F7A07A"/>
<path d="M463.115 334.897L460.692 338.537C458.418 340.966 455.99 343.246 453.423 345.362C449.894 347.874 446.082 349.961 442.066 351.581C433.132 355.221 424.046 357.344 414.355 356.283C411.527 356.167 408.748 355.497 406.177 354.311C405.359 353.919 404.676 353.291 404.218 352.507C403.759 351.723 403.545 350.819 403.603 349.912C403.679 349.046 404.028 348.226 404.599 347.572C405.171 346.918 405.936 346.462 406.783 346.272L409.055 345.514L420.715 344.604C426.232 344.328 431.709 343.515 437.069 342.177C438.084 341.976 439.025 341.504 439.795 340.812H426.923C423.895 340.812 422.986 340.054 422.078 337.172C421.169 334.29 423.44 333.532 425.712 333.532C427.666 333.23 429.64 333.078 431.617 333.077C432.829 333.229 433.132 332.774 432.829 331.56C431.754 328.814 431.339 325.852 431.617 322.915C432.072 316.697 434.495 311.692 440.4 308.962C443.582 307.505 447.048 306.78 450.546 306.838C458.723 306.99 464.78 311.692 466.446 319.73C466.598 320.185 466.598 320.64 467.203 320.64C467.165 324.85 466.182 328.997 464.326 332.774L463.418 334.594H463.115V334.897Z" fill="#0D304F"/>
<path d="M467.207 320.64C466.601 320.64 466.601 320.185 466.45 319.73C464.784 311.692 458.727 306.99 450.55 306.838C447.052 306.78 443.586 307.505 440.404 308.962C434.499 311.692 432.076 316.697 431.621 322.915C431.343 325.852 431.758 328.814 432.833 331.56C433.136 332.774 432.833 333.229 431.621 333.077C429.644 333.078 427.67 333.23 425.716 333.532C423.444 333.532 422.384 334.745 422.081 337.172L399.973 336.869C400.124 335.959 399.367 336.11 398.761 335.959C396.228 335.462 393.934 334.127 392.25 332.167C394.522 332.446 396.825 332.343 399.064 331.864C399.649 331.892 400.234 331.799 400.781 331.591C401.328 331.382 401.827 331.062 402.244 330.65C404.234 329.405 405.911 327.717 407.145 325.718C408.379 323.719 409.137 321.463 409.361 319.123C409.816 316.242 409.967 313.512 408.301 310.933C408.301 310.63 408.301 310.478 407.999 310.478C407.999 310.36 407.971 310.244 407.919 310.139C407.866 310.034 407.79 309.942 407.696 309.872V308.962C410.813 308.607 413.957 308.556 417.084 308.81C425.11 309.417 432.833 308.81 440.253 305.473C444.494 303.448 449.203 302.609 453.881 303.046C462.513 304.411 467.813 311.388 467.207 320.64Z" fill="#072034"/>
<path d="M399.061 331.864C396.822 332.344 394.519 332.446 392.247 332.167C393.931 334.127 396.224 335.462 398.758 335.959C399.364 336.111 400.121 335.959 399.97 336.869C394.315 337.428 388.61 337.224 383.009 336.262L382.555 335.959C381.192 335.049 379.981 333.987 380.284 332.167C380.587 330.347 382.101 330.044 383.464 329.74L384.827 329.285C379.83 324.432 379.375 317.91 377.407 311.995C376.649 309.72 377.407 308.962 379.829 309.568C381.699 309.984 383.489 310.702 385.129 311.692C385.469 311.907 385.863 312.022 386.265 312.022C386.667 312.022 387.061 311.907 387.401 311.692C389.444 310.071 391.825 308.931 394.367 308.355C394.741 308.281 395.074 308.068 395.299 307.759C395.524 307.449 395.623 307.066 395.578 306.687C395.798 304.668 396.256 302.683 396.941 300.771C397.698 298.8 398.607 298.648 400.121 300.316C402.158 302.594 404.078 304.973 405.875 307.445C406.329 308.052 406.784 308.81 407.692 308.962V309.872L407.995 310.478C407.995 310.782 408.147 310.933 408.298 310.933C408.274 311.394 408.325 311.855 408.449 312.298C408.958 315.603 408.613 318.983 407.447 322.117C406.28 325.25 404.332 328.031 401.787 330.195C400.878 330.802 399.667 330.954 399.061 331.864ZM399.212 325.645C399.364 324.28 398.758 323.977 397.849 323.977C396.941 323.977 395.729 324.129 395.578 325.494C395.427 326.859 396.184 327.314 397.244 327.162C397.703 327.207 398.162 327.075 398.527 326.793C398.893 326.511 399.138 326.101 399.212 325.645Z" fill="#0D304F"/>
<path d="M383.012 336.262C388.613 337.224 394.317 337.428 399.972 336.869L422.08 337.172C422.989 340.054 423.898 340.812 426.926 340.812H439.798C439.028 341.504 438.086 341.976 437.072 342.177C431.712 343.515 426.235 344.328 420.718 344.604L409.058 345.514C408.452 344.756 407.695 345.059 407.089 345.059C398.306 345.059 389.675 344.907 380.892 345.362L373.623 345.666C366.809 345.969 359.995 346.272 353.029 346.879L340.006 348.244C338.189 348.396 336.523 349.306 334.555 348.699C340.158 346.436 345.533 343.643 350.606 340.357C350.758 340.661 351.06 340.661 351.363 340.661C354.998 339.902 358.783 339.296 362.417 338.841C368.323 338.082 374.078 337.324 379.983 337.021C381.037 337.001 382.073 336.741 383.012 336.262Z" fill="#174EBD"/>
<path d="M331.679 275.291C336.374 275.291 340.765 274.078 345.308 273.319L347.276 273.016C348.034 282.571 344.854 291.065 340.159 298.951L337.736 302.895L336.676 304.108C333.994 307.934 331.006 311.535 327.742 314.877V313.663C328.651 305.322 329.408 296.98 330.165 288.638C330.619 284.088 331.225 279.689 331.679 275.291Z" fill="#F7A07A"/>
<path opacity="0.9" d="M379.979 337.021C374.073 337.324 368.319 338.082 362.413 338.841C358.779 339.296 354.993 339.902 351.359 340.661C351.056 340.661 350.753 340.661 350.602 340.357L354.236 336.414C356.848 333.385 358.25 329.495 358.173 325.494C360.596 326.252 362.413 328.072 364.684 329.285C368.955 331.651 373.353 333.778 377.859 335.656C378.616 335.959 379.676 335.959 379.979 337.021Z" fill="#174EBD"/>
<path opacity="0.9" d="M327.737 314.877C331.001 311.535 333.989 307.934 336.672 304.108L337.732 302.895C339.366 304.895 340.835 307.025 342.123 309.265C342.577 310.023 343.486 310.478 343.335 311.54C338.58 311.929 333.923 313.108 329.555 315.028L327.586 315.635L327.737 314.877Z" fill="#174EBD"/>
<path d="M334.554 348.699C336.523 349.306 338.188 348.396 340.005 348.244L353.028 346.879C359.994 346.272 366.808 345.969 373.623 345.666L380.891 345.362C389.674 344.907 398.305 345.059 407.088 345.059C407.694 345.059 408.451 344.756 409.057 345.514L406.785 346.272C405.938 346.462 405.173 346.917 404.602 347.572C404.03 348.226 403.681 349.046 403.605 349.912C403.547 350.819 403.761 351.723 404.22 352.507C404.679 353.291 405.361 353.919 406.18 354.311C408.751 355.497 411.529 356.167 414.357 356.283C424.048 357.344 433.134 355.221 442.068 351.581C446.084 349.961 449.896 347.873 453.425 345.362C453.62 345.594 453.887 345.754 454.183 345.817C461.603 345.969 469.023 346.576 476.443 347.182C482.814 347.529 489.119 348.649 495.22 350.519C495.044 352.34 494.177 354.023 492.797 355.221C488.708 360.074 483.257 362.653 477.654 364.776C468.259 368.172 458.502 370.462 448.58 371.601C442.321 372.511 436.112 373.118 429.954 373.421C422.383 374.028 414.811 374.331 407.24 374.18C399.668 374.028 392.703 373.421 385.434 372.815C376.248 371.976 367.137 370.456 358.177 368.264C350.303 366.293 342.58 363.866 336.068 358.861C333.478 357.079 331.434 354.611 330.163 351.732C330.163 351.581 329.86 351.429 329.557 351.126C329.254 350.822 332.888 349.457 334.554 348.699Z" fill="#174EBD"/>
<path d="M258.688 373.725C258.137 371.325 257.732 368.893 257.477 366.444L264.897 365.079L279.282 362.501C292.618 360.552 305.818 357.766 318.805 354.159C322.137 353.249 325.317 351.884 328.8 351.126C328.194 354.311 326.074 356.282 323.651 358.103C317.897 362.804 311.082 365.079 304.117 367.203C296.684 369.379 289.088 370.951 281.402 371.904C277.465 372.359 273.377 372.966 269.288 373.118C265.199 373.27 262.322 373.725 258.688 373.725Z" fill="#727CD9"/>
<path d="M495.216 350.519C489.115 348.649 482.81 347.529 476.439 347.182C469.019 346.576 461.599 345.969 454.179 345.817C453.883 345.754 453.617 345.594 453.422 345.362C455.989 343.246 458.416 340.966 460.69 338.537C468.316 339.402 475.861 340.873 483.253 342.936C487.19 344.149 491.128 345.211 494.308 348.244C494.626 348.526 494.873 348.879 495.031 349.274C495.189 349.669 495.252 350.095 495.216 350.519V350.519Z" fill="#174EBD"/>
<path d="M327.743 314.877V315.635C315.78 320.64 304.575 326.859 293.066 332.925L291.552 333.532C291.097 332.925 290.34 333.077 289.735 333.077H249.152C248.924 332.582 248.722 332.076 248.546 331.56C247.881 329.296 246.744 327.2 245.21 325.408C243.677 323.617 241.781 322.172 239.649 321.169C237.516 320.165 235.196 319.626 232.84 319.588C230.484 319.549 228.147 320.011 225.983 320.943C225.832 319.275 225.529 317.607 225.377 315.938C224.923 310.175 224.317 304.411 223.712 298.648C223.106 292.884 222.197 283.329 221.44 275.594C221.137 271.347 220.683 266.949 220.229 262.702C219.886 261.31 220.104 259.84 220.835 258.607C222.626 258.23 224.457 258.077 226.286 258.152H327.137C328.809 258.102 330.481 258.203 332.135 258.455C332.477 258.933 332.72 259.474 332.85 260.047C332.98 260.62 332.994 261.214 332.892 261.792C332.437 266.191 331.983 270.741 331.68 275.291C331.377 279.841 330.62 284.088 330.166 288.638C329.409 296.98 328.652 305.321 327.743 313.663V314.877ZM283.375 295.918C283.376 294.079 282.668 292.31 281.398 290.982C280.128 289.653 278.395 288.868 276.56 288.789C274.748 288.897 273.038 289.667 271.755 290.953C270.471 292.239 269.702 293.951 269.595 295.766C269.671 297.578 270.434 299.292 271.728 300.56C273.022 301.828 274.75 302.554 276.56 302.591C277.448 302.612 278.331 302.454 279.157 302.128C279.982 301.801 280.735 301.313 281.37 300.691C282.005 300.069 282.509 299.327 282.853 298.507C283.198 297.688 283.375 296.807 283.375 295.918V295.918Z" fill="#FEFEFE"/>
<path opacity="0.8" d="M332.128 258.456C330.475 258.204 328.802 258.102 327.131 258.152H226.28C224.451 258.077 222.619 258.23 220.828 258.608C221.131 256.787 222.191 256.332 223.857 256.332H329.251C330.917 256.332 331.825 256.939 332.128 258.456Z" fill="#174EBD"/>
<path opacity="0.8" d="M314.107 256.332H309.867C310.056 254.817 310.688 253.393 311.684 252.237L314.107 256.332Z" fill="#174EBD"/>
<path opacity="0.9" d="M225.37 315.938C225.521 317.607 225.824 319.275 225.976 320.943C222.309 323.307 219.703 327.005 218.707 331.257C209.716 333.909 200.366 335.137 190.996 334.897C186.236 334.866 181.52 333.993 177.064 332.319C173.763 331.06 170.748 329.149 168.198 326.7C165.649 324.251 163.617 321.313 162.224 318.062C160.035 312.406 158.955 306.381 159.044 300.316C160.032 300.059 161.054 299.956 162.073 300.013C162.51 301.063 163.247 301.96 164.193 302.591C167.206 304.922 170.74 306.484 174.49 307.142C180.723 308.355 187.098 308.661 193.418 308.051C200.146 307.447 206.824 306.383 213.407 304.866C214.013 304.715 214.921 304.866 215.224 303.956L217.344 306.686C219.812 309.945 222.493 313.036 225.37 315.938Z" fill="#727CD9"/>
<path opacity="0.8" d="M159.046 300.316C158.957 306.381 160.037 312.406 162.226 318.062C163.619 321.313 165.651 324.251 168.2 326.7C170.75 329.149 173.765 331.06 177.066 332.319C181.522 333.993 186.238 334.866 190.998 334.897C200.368 335.137 209.718 333.909 218.709 331.257C218.082 333.991 217.827 336.797 217.952 339.599L211.289 340.509L178.126 346.576L163.438 349.457C162.983 349.306 162.529 349.609 161.923 349.761C161.318 349.912 157.835 348.092 158.138 345.211C158.865 339.094 158.298 332.892 156.472 327.01C155.906 324.495 155.198 322.014 154.352 319.578C153.746 315.787 152.535 312.147 151.778 308.355C151.02 304.563 151.172 303.198 154.352 300.771L159.046 300.316Z" fill="#94A2F2"/>
<path d="M225.675 368.265C226.536 369.915 227.246 371.641 227.795 373.421L220.678 372.966C214.166 372.208 207.503 371.45 200.992 370.236C191.452 368.416 182.063 365.99 173.583 361.439C169.04 358.861 165.103 355.828 163.438 350.519C171.312 348.092 179.337 347.486 187.515 346.879L194.632 346.272H201.9L201.295 346.879C196.298 348.851 195.086 353.401 196.752 358.254C197.638 360.7 199.108 362.892 201.036 364.637C202.963 366.382 205.287 367.628 207.806 368.265C212.5 369.63 217.498 369.023 222.343 368.871C223.488 368.967 224.637 368.758 225.675 368.265V368.265Z" fill="#727CD9"/>
<path opacity="0.9" d="M163.439 350.519C165.104 355.828 169.042 358.861 173.584 361.439C182.064 365.99 191.453 368.416 200.993 370.236C207.504 371.45 214.167 372.208 220.679 372.966L227.796 373.421C229.007 376.151 230.219 378.73 231.279 381.46C223.707 381.308 215.984 380.701 208.262 380.55C201.515 380.64 194.805 379.562 188.424 377.365C181.624 375.063 175.595 370.915 171.01 365.383C169.217 363.416 167.548 361.339 166.013 359.164C165.499 358.286 165.043 357.374 164.65 356.434C164.044 354.159 162.682 352.036 161.924 349.761C161.167 347.486 162.984 349.306 163.439 349.458V350.519Z" fill="#174EBD"/>
<path d="M225.68 368.264C224.643 368.757 223.493 368.967 222.349 368.871C217.503 369.023 212.506 369.629 207.812 368.264C205.276 367.613 202.941 366.344 201.012 364.572C199.084 362.799 197.622 360.577 196.757 358.103C195.092 353.249 196.303 348.699 201.3 346.727L201.906 346.121C205.643 345.338 209.49 345.235 213.263 345.817L219.472 348.396C219.729 348.912 219.834 349.49 219.774 350.064C213.263 352.642 215.08 362.198 219.32 364.928C221.162 366.155 223.216 367.03 225.377 367.506L225.68 368.264Z" fill="#F66058"/>
<path opacity="0.8" d="M249.148 333.077H289.58C290.186 333.077 290.943 332.926 291.397 333.532C287.611 335.656 283.977 337.779 279.283 337.627C270.5 337.324 261.717 337.476 252.783 337.627C251.117 337.627 250.208 337.172 249.906 335.352C249.722 334.573 249.468 333.811 249.148 333.077V333.077Z" fill="#174EBD"/>
<path d="M213.26 345.817C209.487 345.235 205.307 345.413 201.57 346.196L194.532 346.424L187.493 346.937C179.316 347.544 168.944 349.434 163.414 350.642L163.44 349.306L178.129 346.424L211.292 340.357L217.955 339.447C218.258 341.419 218.409 343.391 218.712 345.211C219.015 347.031 215.078 345.059 213.26 345.817Z" fill="#727CD9"/>
<path d="M264.896 365.079L257.476 366.444L254.296 351.126C253.993 350.367 254.296 350.064 255.053 349.609C260.05 347.334 260.05 347.334 261.564 352.643C263.079 357.951 263.684 360.833 264.896 365.079Z" fill="#F7A07A"/>
<path d="M225.37 367.506C223.209 367.03 221.155 366.155 219.313 364.928C215.073 362.198 213.256 352.642 219.767 350.064C221.584 355.827 223.25 361.743 225.37 367.506Z" fill="#F7A07A"/>
<path d="M213.258 345.817C215.075 345.059 216.892 345.666 218.709 345.362C219.104 346.333 219.359 347.354 219.466 348.396L213.258 345.817Z" fill="#727CD9"/>
<path d="M225.372 315.938C222.496 313.036 219.814 309.945 217.347 306.686L215.227 303.956C213.258 300.923 211.441 297.89 209.624 294.856C207.367 290.428 205.834 285.665 205.081 280.751C204.681 278.244 204.58 275.698 204.778 273.167C208.11 273.167 211.29 274.381 214.47 274.684L221.435 275.594C222.192 283.329 223.101 290.913 223.707 298.648C224.312 306.383 224.918 310.175 225.372 315.938Z" fill="#F7A07A"/>
<path opacity="0.8" d="M209.627 294.856C211.444 297.89 213.261 300.923 215.23 303.956C217.198 306.99 214.018 304.715 213.412 304.866C206.83 306.382 200.151 307.447 193.424 308.051C187.103 308.661 180.728 308.355 174.495 307.141C170.745 306.484 167.211 304.922 164.198 302.591C163.253 301.96 162.515 301.063 162.078 300.013C163.59 299.515 165.183 299.309 166.772 299.406C172.072 298.648 177.524 298.345 182.824 297.738L199.33 296.07L209.627 294.856Z" fill="#94A2F2"/>
<path d="M148.148 278.932V276.656C148.436 276.965 148.596 277.371 148.596 277.794C148.596 278.216 148.436 278.623 148.148 278.932Z" fill="#174EBD"/>
<path opacity="0.8" d="M243.245 256.332H237.945C238.854 254.512 240.217 252.995 241.125 251.327C242.111 252.863 242.827 254.555 243.245 256.332V256.332Z" fill="#174EBD"/>
<path d="M401.789 330.195C404.334 328.031 406.283 325.25 407.449 322.117C408.616 318.983 408.961 315.603 408.452 312.298C408.328 311.855 408.277 311.394 408.301 310.933C409.966 313.512 409.815 316.242 409.36 319.124C409.136 321.463 408.378 323.719 407.144 325.718C405.91 327.717 404.233 329.405 402.243 330.65L401.789 330.195Z" fill="#66A4AF"/>
<path d="M401.788 330.195L402.243 330.65C401.825 331.062 401.327 331.382 400.779 331.591C400.232 331.8 399.647 331.893 399.062 331.864C399.668 330.954 400.88 330.802 401.788 330.195Z" fill="#66A4AF"/>
<path d="M407.997 310.477L407.695 309.872C407.789 309.942 407.865 310.033 407.918 310.139C407.97 310.244 407.997 310.359 407.997 310.477Z" fill="#66A4AF"/>
<path d="M408.302 310.932C408.151 310.932 408 310.781 408 310.478C408 310.175 408.302 310.629 408.302 310.932Z" fill="#66A4AF"/>
<path d="M399.706 325.913C399.6 326.546 399.254 327.115 398.737 327.506C398.221 327.896 397.573 328.079 396.924 328.017C395.426 328.228 394.57 327.176 394.57 325.703C394.57 324.23 396.068 323.599 397.78 323.599C399.492 323.599 399.92 324.02 399.706 325.913Z" fill="#072034"/>
<path opacity="0.8" d="M283.374 295.918C283.374 296.807 283.197 297.688 282.852 298.507C282.508 299.327 282.004 300.07 281.369 300.691C280.734 301.313 279.982 301.801 279.156 302.128C278.33 302.454 277.447 302.612 276.559 302.592C274.75 302.555 273.022 301.828 271.728 300.56C270.433 299.292 269.67 297.578 269.594 295.766C269.702 293.951 270.47 292.239 271.754 290.953C273.038 289.667 274.747 288.898 276.559 288.79C278.394 288.868 280.127 289.653 281.397 290.982C282.667 292.31 283.375 294.079 283.374 295.918Z" fill="#174EBD"/>
</g>
<defs>
<linearGradient id="paint0_linear_1381_274770" x1="340" y1="2.56061e-07" x2="340" y2="470.5" gradientUnits="userSpaceOnUse">
<stop stop-color="white"/>
<stop offset="1" stop-color="white" stop-opacity="0"/>
</linearGradient>
<clipPath id="clip0_1381_274770">
<rect width="606.926" height="360.974" fill="white" transform="translate(24.125 107.999)"/>
</clipPath>
</defs>
</svg>
