<svg width="12" height="19" viewBox="0 0 12 19" fill="none" xmlns="http://www.w3.org/2000/svg">
<path fill-rule="evenodd" clip-rule="evenodd" d="M1.63732 0.0742252C0.867418 0.271256 0.273949 0.856187 0.0758355 1.61317C0.00125323 1.8982 0 2.02809 0 9.49918C0 16.9703 0.00125323 17.1002 0.0758355 17.3852C0.275848 18.1495 0.870266 18.7304 1.65232 18.9259C1.93963 18.9977 2.07509 19 6 19C9.91006 19 10.0614 18.9974 10.3445 18.9267C11.133 18.7296 11.723 18.1538 11.9242 17.3852C11.9987 17.1002 12 16.9703 12 9.49918C12 2.02809 11.9987 1.8982 11.9242 1.61317C11.8239 1.22995 11.6241 0.890034 11.3361 0.612691C11.0547 0.341733 10.7417 0.170978 10.3445 0.0716644C10.0611 0.00085365 9.91371 -0.00155867 5.98443 0.0004083C2.08982 0.00237527 1.90584 0.00549272 1.63732 0.0742252ZM10.1865 1.1856C10.443 1.27938 10.6866 1.51835 10.7858 1.77324C10.8594 1.96259 10.8608 2.08302 10.8608 8.31199V14.6578H6H1.13924V8.31299C1.13924 2.06914 1.14046 1.96496 1.21481 1.77068C1.30899 1.5247 1.5537 1.28309 1.80627 1.18671C1.98695 1.11776 2.13661 1.11516 5.98906 1.11349C9.88739 1.11178 9.98939 1.11353 10.1865 1.1856ZM10.8608 16.4017C10.8608 16.9397 10.8497 17.0605 10.7858 17.2251C10.6866 17.48 10.443 17.719 10.1865 17.8128C9.98954 17.8848 9.88511 17.8866 5.99897 17.8866C2.12241 17.8866 2.00806 17.8846 1.8161 17.8133C1.55529 17.7165 1.31077 17.4783 1.21481 17.2277C1.15029 17.059 1.13924 16.9384 1.13924 16.4007V15.7712H6H10.8608V16.4017ZM5.7251 16.2931C5.33392 16.4949 5.3389 17.1329 5.73319 17.3295C5.8156 17.3705 5.93567 17.4042 6 17.4042C6.18843 17.4042 6.4072 17.2729 6.49318 17.1082C6.76952 16.5789 6.24668 16.024 5.7251 16.2931Z" fill="#A0A0A0"/>
</svg>
