<svg width="161" height="176" viewBox="0 0 161 176" fill="none" xmlns="http://www.w3.org/2000/svg">
<rect width="161" height="176" fill="#F3F2F3"/>
<rect width="1920" height="1458" transform="translate(-1728 -200)" fill="white"/>
<g filter="url(#filter0_d_221_7147)">
<rect x="-1138" y="-1" width="1300" height="851" rx="10" fill="white"/>
<rect x="-1137.5" y="-0.5" width="1299" height="850" rx="9.5" stroke="#EBEBEB"/>
</g>
<path d="M161 176L0 0L98.7955 2.15924e-06L161 69.3333L161 176Z" fill="#3A37A6"/>
<path d="M76.0628 26.9988L83.9824 19.0792L87.1163 22.2131C87.5311 22.6279 87.8027 23.1031 87.9309 23.6386C88.0591 24.1742 88.0402 24.721 87.8743 25.2791C87.7159 25.8297 87.4142 26.3275 86.9692 26.7725C86.5016 27.2402 85.9849 27.5607 85.4192 27.7342C84.8611 27.9001 84.3067 27.9265 83.7561 27.8134C83.2131 27.6927 82.7341 27.425 82.3193 27.0101L80.0679 24.7587L76.9453 27.8813L76.0628 26.9988ZM80.9277 23.8989L83.2244 26.1955C83.4582 26.4294 83.7335 26.5689 84.0503 26.6141C84.3821 26.6594 84.7216 26.6217 85.0685 26.501C85.423 26.3728 85.7549 26.1541 86.0641 25.8448C86.3432 25.5657 86.5355 25.2603 86.6411 24.9284C86.7543 24.589 86.7807 24.2609 86.7203 23.9441C86.6751 23.6273 86.5355 23.352 86.3017 23.1182L84.005 20.8215L80.9277 23.8989ZM85.1512 36.3134C84.5628 35.7251 84.1706 35.0689 83.9745 34.3449C83.786 33.6283 83.7935 32.9042 83.9972 32.1726C84.2083 31.4485 84.6119 30.7886 85.2077 30.1927C85.796 29.6044 86.4485 29.2084 87.165 29.0048C87.8891 28.8087 88.6094 28.8049 89.3259 28.9935C90.05 29.1896 90.7062 29.5818 91.2945 30.1701C91.8753 30.7509 92.2599 31.3995 92.4485 32.1161C92.6446 32.8401 92.6408 33.5604 92.4372 34.277C92.2411 35.001 91.8489 35.6572 91.2606 36.2456C90.6647 36.8414 90.001 37.2412 89.2693 37.4448C88.5453 37.656 87.8212 37.6635 87.0971 37.4674C86.3806 37.2789 85.7319 36.8942 85.1512 36.3134ZM85.9544 35.5102C86.3693 35.925 86.8369 36.1965 87.3573 36.3248C87.8853 36.4454 88.4095 36.4266 88.9299 36.2682C89.4579 36.1022 89.9406 35.8006 90.3781 35.3631C90.8156 34.9256 91.1135 34.4467 91.2719 33.9262C91.4303 33.4058 91.4416 32.8892 91.3058 32.3763C91.1776 31.8558 90.9061 31.3882 90.4912 30.9734C90.0764 30.5585 89.605 30.2832 89.077 30.1475C88.5641 30.0117 88.0399 30.023 87.5044 30.1814C86.984 30.3398 86.5126 30.6377 86.0902 31.0752C85.6452 31.5051 85.3397 31.9841 85.1738 32.512C85.0229 33.04 85.0078 33.568 85.1285 34.096C85.2643 34.6239 85.5396 35.0953 85.9544 35.5102ZM90.6936 41.6296L94.5516 33.6761L95.468 34.5699L92.2549 40.9734L91.9947 40.668L97.595 38.5297L98.1041 39.0388L95.9771 44.6504L95.6151 44.3336L102.041 41.1658L102.935 42.0596L94.9815 45.9175L94.4837 45.4197L96.8596 39.3782L97.1764 39.7403L91.2141 42.1501L90.6936 41.6296ZM100.354 51.516C99.7654 50.9277 99.3694 50.2752 99.1657 49.5587C98.9696 48.8497 98.9734 48.1369 99.1771 47.4204C99.3807 46.7039 99.7805 46.0477 100.376 45.4518C100.836 44.9917 101.323 44.6485 101.836 44.4223C102.356 44.1885 102.884 44.0602 103.42 44.0376C103.963 44.0225 104.491 44.1206 105.004 44.3318C105.524 44.5354 105.995 44.8484 106.418 45.2708C106.818 45.6706 107.108 46.1042 107.289 46.5719C107.478 47.0471 107.561 47.5298 107.538 48.02C107.53 48.5103 107.413 48.9892 107.187 49.4569C106.961 49.9245 106.633 50.3582 106.203 50.758L105.796 51.1426L100.874 46.2212L101.462 45.3839L105.863 49.785L105.467 49.7737L105.739 49.5021C105.995 49.2155 106.176 48.8761 106.282 48.4839C106.395 48.0841 106.399 47.6731 106.293 47.2507C106.195 46.8359 105.965 46.4474 105.603 46.0854C105.181 45.663 104.728 45.3839 104.246 45.2482C103.77 45.1049 103.284 45.1162 102.786 45.2821C102.288 45.448 101.794 45.7761 101.304 46.2664C100.836 46.734 100.52 47.2318 100.354 47.7598C100.195 48.2802 100.188 48.8007 100.331 49.3211C100.482 49.8491 100.795 50.3507 101.27 50.8258C101.549 51.1049 101.87 51.3349 102.232 51.516C102.609 51.697 103.103 51.8139 103.714 51.8667L103.544 52.9189C103.197 52.9189 102.835 52.8661 102.458 52.7605C102.088 52.6473 101.719 52.4889 101.349 52.2853C100.987 52.0741 100.655 51.8177 100.354 51.516ZM104.218 55.1536L110.123 49.2478L110.972 50.0964L109.422 51.6916L109.546 51.3861C109.893 51.2051 110.27 51.092 110.678 51.0467C111.093 51.009 111.496 51.0505 111.888 51.1712C112.28 51.2918 112.631 51.5068 112.94 51.816C113.069 51.9443 113.178 52.0763 113.269 52.212C113.367 52.3402 113.438 52.4572 113.484 52.5628L112.296 53.2755C112.243 53.1322 112.171 53.0002 112.081 52.8795C112.005 52.7589 111.922 52.6533 111.832 52.5628C111.575 52.3063 111.3 52.1215 111.006 52.0084C110.712 51.8952 110.41 51.85 110.101 51.8726C109.799 51.8877 109.505 51.9631 109.218 52.0989C108.932 52.2347 108.668 52.4232 108.426 52.6646L105.077 56.0134L104.218 55.1536ZM110.673 61.8353C110.085 61.247 109.689 60.5946 109.485 59.878C109.289 59.169 109.293 58.4563 109.496 57.7397C109.7 57.0232 110.1 56.367 110.696 55.7712C111.156 55.3111 111.642 54.9679 112.155 54.7416C112.676 54.5078 113.204 54.3796 113.739 54.3569C114.282 54.3419 114.81 54.4399 115.323 54.6511C115.843 54.8547 116.315 55.1678 116.737 55.5901C117.137 55.9899 117.427 56.4236 117.608 56.8912C117.797 57.3664 117.88 57.8491 117.857 58.3394C117.85 58.8296 117.733 59.3086 117.507 59.7762C117.28 60.2438 116.952 60.6775 116.522 61.0773L116.115 61.462L111.193 56.5405L111.782 55.7033L116.183 60.1043L115.787 60.093L116.058 59.8215C116.315 59.5349 116.496 59.1954 116.601 58.8032C116.715 58.4035 116.718 57.9924 116.613 57.57C116.515 57.1552 116.285 56.7668 115.923 56.4047C115.5 55.9823 115.048 55.7033 114.565 55.5675C114.09 55.4242 113.603 55.4355 113.105 55.6015C112.608 55.7674 112.114 56.0955 111.623 56.5857C111.156 57.0534 110.839 57.5512 110.673 58.0792C110.515 58.5996 110.507 59.12 110.65 59.6404C110.801 60.1684 111.114 60.67 111.589 61.1452C111.869 61.4242 112.189 61.6543 112.551 61.8353C112.928 62.0163 113.422 62.1332 114.033 62.186L113.863 63.2382C113.517 63.2382 113.154 63.1854 112.777 63.0798C112.408 62.9667 112.038 62.8083 111.669 62.6046C111.307 62.3935 110.975 62.137 110.673 61.8353ZM116.822 67.9846C116.287 67.4491 115.936 66.8343 115.77 66.1404C115.612 65.4541 115.638 64.7564 115.849 64.0474C116.076 63.3384 116.483 62.6898 117.071 62.1014C117.667 61.5056 118.319 61.1021 119.028 60.8909C119.745 60.6721 120.446 60.642 121.133 60.8004C121.819 60.9588 122.426 61.3019 122.954 61.8299C123.248 62.1241 123.486 62.4522 123.667 62.8142C123.856 63.1838 123.976 63.5609 124.029 63.9456C124.089 64.3227 124.086 64.6885 124.018 65.043C123.957 65.39 123.829 65.6917 123.633 65.9481L123.463 65.5974L127.435 61.6263L128.283 62.4748L119.911 70.8469L119.074 70.0097L120.522 68.5163L120.816 68.6521C120.575 68.8331 120.281 68.9538 119.934 69.0141C119.602 69.0745 119.251 69.0782 118.881 69.0254C118.512 68.9726 118.146 68.8557 117.784 68.6747C117.429 68.5012 117.109 68.2712 116.822 67.9846ZM117.727 67.3284C118.12 67.7206 118.568 67.9733 119.074 68.0864C119.579 68.1995 120.092 68.1694 120.612 67.9959C121.14 67.83 121.627 67.5245 122.072 67.0795C122.517 66.6345 122.819 66.1518 122.977 65.6313C123.15 65.1109 123.181 64.598 123.067 64.0927C122.962 63.5798 122.713 63.1272 122.321 62.735C121.913 62.3277 121.453 62.0713 120.94 61.9657C120.443 61.8601 119.93 61.8903 119.402 62.0562C118.889 62.2221 118.41 62.5276 117.965 62.9726C117.528 63.4101 117.222 63.889 117.049 64.4094C116.875 64.9299 116.841 65.4465 116.947 65.9594C117.06 66.4648 117.32 66.9211 117.727 67.3284ZM125.074 76.0101L132.994 68.0906L136.207 71.3036C136.667 71.7637 136.98 72.2427 137.146 72.7405C137.327 73.2383 137.357 73.7285 137.236 74.2113C137.123 74.6864 136.863 75.1277 136.456 75.535C136.018 75.9724 135.517 76.2251 134.951 76.293C134.393 76.3533 133.838 76.2289 133.288 75.9196L133.48 75.682C133.782 76.1195 133.97 76.5721 134.046 77.0397C134.129 77.4998 134.106 77.9448 133.978 78.3747C133.857 78.8122 133.624 79.2044 133.277 79.5513C132.922 79.9058 132.541 80.166 132.134 80.332C131.727 80.4979 131.308 80.5696 130.878 80.5469C130.456 80.5319 130.03 80.4225 129.6 80.2188C129.185 80.0152 128.785 79.721 128.4 79.3364L125.074 76.0101ZM126.816 76.0328L129.192 78.4087C129.532 78.7481 129.882 78.9857 130.245 79.1214C130.622 79.2572 130.987 79.2836 131.342 79.2006C131.704 79.1252 132.028 78.9442 132.315 78.6576C132.586 78.386 132.749 78.073 132.801 77.7185C132.862 77.3716 132.816 77.0095 132.666 76.6324C132.522 76.2628 132.277 75.9046 131.93 75.5576L129.611 73.2383L126.816 76.0328ZM130.471 72.3784L132.734 74.6412C133.005 74.9127 133.299 75.1013 133.616 75.2069C133.94 75.3049 134.257 75.32 134.566 75.2521C134.883 75.1767 135.162 75.0183 135.404 74.777C135.788 74.3923 135.965 73.9511 135.935 73.4532C135.913 72.963 135.668 72.484 135.2 72.0164L133.016 69.8329L130.471 72.3784ZM130.719 86.8588L134.644 85.2184L133.92 86.1008L137.484 76.6086L138.446 77.5703L135.945 84.1209C135.885 84.3019 135.802 84.5056 135.697 84.7319C135.599 84.9506 135.497 85.1656 135.391 85.3767L135.108 85.026C135.289 84.9506 135.47 84.8676 135.651 84.7771C135.84 84.6942 136.021 84.6112 136.194 84.5282L142.575 81.6998L143.548 82.6728L135.255 86.1913L131.635 87.7753L130.719 86.8588ZM66.2786 52.8528C65.5904 52.1646 65.0813 51.4103 64.7513 50.5901C64.4213 49.7698 64.2704 48.9213 64.2987 48.0445C64.3364 47.1583 64.5486 46.2862 64.9351 45.4282C65.3311 44.5797 65.9015 43.783 66.6463 43.0382C67.3534 42.3311 68.1312 41.7984 68.9798 41.4401C69.8472 41.0818 70.7334 40.8933 71.6385 40.8744C72.5436 40.8556 73.4157 41.0111 74.2548 41.3411C75.0939 41.6711 75.8529 42.1755 76.5317 42.8543C77.0125 43.3352 77.4038 43.8773 77.7055 44.4807C78.026 45.0841 78.2382 45.7016 78.3419 46.3333C78.4644 46.965 78.4786 47.5637 78.3843 48.1293L76.3054 48.1718C76.3054 47.6249 76.2535 47.1205 76.1498 46.6586C76.065 46.1966 75.9236 45.7723 75.7256 45.3858C75.537 45.0086 75.2966 44.674 75.0043 44.3817C74.5424 43.9197 74.0191 43.5756 73.4346 43.3493C72.8689 43.123 72.2796 43.0146 71.6668 43.024C71.0634 43.0429 70.46 43.1843 69.8566 43.4483C69.2626 43.7029 68.7111 44.0847 68.202 44.5938C67.6646 45.1312 67.2544 45.7016 66.9716 46.305C66.7076 46.9084 66.5709 47.5165 66.5615 48.1293C66.552 48.7422 66.6699 49.3409 66.915 49.9254C67.179 50.5099 67.5656 51.0568 68.0747 51.5659C68.3858 51.877 68.7346 52.141 69.1212 52.3578C69.5078 52.5747 69.9132 52.735 70.3374 52.8387C70.7617 52.9424 71.1907 52.9942 71.6244 52.9942L71.1435 55.0024C70.6721 55.0401 70.1441 54.9741 69.5596 54.8044C68.9845 54.6442 68.4047 54.3943 67.8201 54.0549C67.2544 53.7155 66.7406 53.3148 66.2786 52.8528ZM74.3497 60.9239C73.7369 60.3111 73.3456 59.5804 73.1759 58.7319C73.0156 57.8928 73.0769 57.0301 73.3598 56.1438C73.6426 55.2576 74.1517 54.4468 74.8871 53.7114C75.6319 52.9666 76.4427 52.4575 77.3195 52.1841C78.2152 51.9106 79.0873 51.8682 79.9358 52.0568C80.7938 52.2548 81.548 52.679 82.1986 53.3296C82.5851 53.7161 82.8821 54.1262 83.0895 54.5599C83.297 54.9936 83.4148 55.432 83.4431 55.8751C83.4902 56.3183 83.4572 56.7472 83.3441 57.1621C83.2404 57.5863 83.0565 57.9682 82.7926 58.3076L82.5804 57.8692L84.5038 55.9459L85.9745 57.4166L78.5499 64.8413L77.0791 63.3705L78.8469 61.6027L79.2853 61.8431C78.9742 62.0411 78.6065 62.1731 78.1822 62.2391C77.7768 62.3051 77.3431 62.2957 76.8811 62.2108C76.4286 62.1354 75.9808 61.9893 75.5376 61.7724C75.1039 61.565 74.708 61.2822 74.3497 60.9239ZM76.075 59.9622C76.5182 60.4053 77.0179 60.6882 77.5741 60.8108C78.1304 60.9333 78.6913 60.9003 79.257 60.7118C79.8416 60.5232 80.379 60.1838 80.8692 59.6935C81.3501 59.2127 81.68 58.6847 81.8592 58.1096C82.0477 57.5439 82.0807 56.983 81.9582 56.4267C81.8356 55.8704 81.5528 55.3707 81.1096 54.9276C80.6759 54.4939 80.181 54.2158 79.6247 54.0932C79.0779 53.9801 78.5169 54.0131 77.9418 54.1922C77.3761 54.3808 76.8529 54.7155 76.372 55.1963C75.8818 55.6866 75.5376 56.2193 75.3396 56.7944C75.1605 57.3695 75.1275 57.9305 75.2407 58.4773C75.3632 59.0336 75.6413 59.5285 76.075 59.9622ZM80.612 66.9034L91.0772 56.4382L92.5338 57.8948L82.0687 68.36L80.612 66.9034ZM87.3184 73.8926C86.5547 73.1289 86.0361 72.2898 85.7627 71.3753C85.5082 70.4607 85.494 69.5509 85.7203 68.6458C85.956 67.7502 86.4416 66.9346 87.1769 66.1992C87.7615 65.6147 88.3885 65.1763 89.0579 64.884C89.7272 64.5918 90.4014 64.4362 91.0802 64.4173C91.7779 64.3985 92.452 64.5258 93.1025 64.7992C93.7719 65.0726 94.38 65.4827 94.9268 66.0295C95.4077 66.5104 95.7612 67.0525 95.9875 67.6559C96.2232 68.2498 96.3316 68.858 96.3128 69.4802C96.3033 70.1119 96.1572 70.7294 95.8744 71.3328C95.6104 71.9362 95.2144 72.4925 94.6864 73.0016L94.05 73.6097L87.9831 67.5427L88.8174 66.0578L93.951 71.1914L93.4985 71.2197L93.8379 70.8803C94.1207 70.5409 94.2952 70.159 94.3612 69.7348C94.4272 69.3105 94.3942 68.891 94.2622 68.4761C94.1302 68.0613 93.9039 67.6936 93.5833 67.373C93.0742 66.8639 92.5462 66.5339 91.9994 66.3831C91.462 66.2228 90.9152 66.2417 90.3589 66.4397C89.8121 66.6282 89.2653 66.9959 88.7184 67.5427C88.1999 68.0613 87.8558 68.6223 87.6861 69.2257C87.5258 69.8196 87.5399 70.4183 87.7285 71.0217C87.9171 71.6251 88.2706 72.1861 88.7892 72.7046C89.1568 73.0723 89.5575 73.3504 89.9912 73.539C90.4344 73.737 91 73.8596 91.6883 73.9067L91.3913 75.6745C90.9388 75.6745 90.4626 75.5943 89.9629 75.4341C89.4727 75.2832 88.9919 75.0758 88.5205 74.8118C88.0679 74.5478 87.6672 74.2414 87.3184 73.8926ZM92.2814 78.5727L99.706 71.1481L101.163 72.6047L99.6353 74.1321L99.211 74.0472C99.6353 73.8115 100.121 73.6937 100.668 73.6937C101.224 73.6843 101.775 73.7833 102.322 73.9907C102.879 74.1887 103.355 74.4856 103.751 74.8816C104.316 75.4473 104.675 76.0319 104.825 76.6353C104.986 77.2292 104.934 77.8468 104.67 78.4879C104.406 79.129 103.93 79.7937 103.242 80.4819L98.716 85.0074L97.2594 83.5508L101.686 79.1243C102.11 78.7 102.402 78.2946 102.563 77.908C102.732 77.5121 102.761 77.1349 102.648 76.7767C102.544 76.409 102.308 76.0601 101.94 75.7302C101.658 75.4473 101.351 75.2352 101.021 75.0938C100.701 74.9429 100.371 74.8581 100.031 74.8392C99.7013 74.8298 99.376 74.8816 99.0555 74.9948C98.7538 75.1079 98.4803 75.287 98.2352 75.5322L93.738 80.0294L93.0168 79.3081C92.8942 79.1856 92.7716 79.063 92.6491 78.9404C92.5265 78.8179 92.4039 78.6953 92.2814 78.5727ZM103.648 90.222C102.969 89.5432 102.526 88.7701 102.318 87.9027C102.13 87.0353 102.168 86.1585 102.432 85.2722C102.705 84.3766 103.214 83.5563 103.959 82.8115C104.704 82.0667 105.515 81.5576 106.391 81.2841C107.287 81.0107 108.164 80.973 109.022 81.171C109.889 81.3596 110.658 81.7886 111.327 82.4579C111.695 82.8256 111.987 83.2405 112.204 83.7025C112.439 84.1644 112.59 84.6358 112.656 85.1167C112.732 85.5881 112.722 86.0218 112.628 86.4177C112.553 86.8137 112.392 87.1343 112.147 87.3794L111.695 86.9834L116.659 82.0195L118.115 83.4762L107.65 93.9414L106.193 92.4847L107.961 90.717L108.244 90.9998C108.018 91.2261 107.716 91.3769 107.339 91.4523C106.971 91.5183 106.566 91.5183 106.123 91.4523C105.689 91.3958 105.251 91.2591 104.807 91.0422C104.374 90.8348 103.987 90.5614 103.648 90.222ZM105.104 89.1613C105.548 89.6044 106.052 89.8826 106.618 89.9957C107.183 90.1088 107.754 90.0664 108.329 89.8684C108.923 89.6704 109.47 89.3216 109.969 88.8219C110.469 88.3222 110.813 87.7801 111.002 87.1956C111.209 86.611 111.256 86.0359 111.143 85.4702C111.03 84.9045 110.752 84.4001 110.309 83.957C109.866 83.5139 109.361 83.2358 108.796 83.1226C108.23 83.0095 107.65 83.0519 107.056 83.2499C106.481 83.4479 105.944 83.7967 105.444 84.2964C104.944 84.7961 104.591 85.3382 104.383 85.9228C104.195 86.5073 104.157 87.0824 104.27 87.6481C104.383 88.2138 104.661 88.7182 105.104 89.1613ZM109.683 95.9748L120.149 85.5097L121.605 86.9663L111.14 97.4315L109.683 95.9748ZM110.989 103.786L115.953 101.82L114.808 102.994L119.474 90.9166L121.172 92.6137L118.032 100.392C117.985 100.533 117.895 100.736 117.763 101C117.641 101.255 117.509 101.5 117.367 101.735L116.915 101.452C117.188 101.33 117.457 101.203 117.721 101.071C117.994 100.948 118.263 100.821 118.527 100.689L125.824 97.2664L127.55 98.9918L117.07 103.362L112.559 105.356L110.989 103.786Z" fill="white"/>
<rect x="-183217" y="-1981" width="187385" height="9838" stroke="#262626" stroke-width="20"/>
<defs>
<filter id="filter0_d_221_7147" x="-1155" y="-11" width="1334" height="885" filterUnits="userSpaceOnUse" color-interpolation-filters="sRGB">
<feFlood flood-opacity="0" result="BackgroundImageFix"/>
<feColorMatrix in="SourceAlpha" type="matrix" values="0 0 0 0 0 0 0 0 0 0 0 0 0 0 0 0 0 0 127 0" result="hardAlpha"/>
<feMorphology radius="3" operator="dilate" in="SourceAlpha" result="effect1_dropShadow_221_7147"/>
<feOffset dy="7"/>
<feGaussianBlur stdDeviation="7"/>
<feComposite in2="hardAlpha" operator="out"/>
<feColorMatrix type="matrix" values="0 0 0 0 0 0 0 0 0 0 0 0 0 0 0 0 0 0 0.03 0"/>
<feBlend mode="normal" in2="BackgroundImageFix" result="effect1_dropShadow_221_7147"/>
<feBlend mode="normal" in="SourceGraphic" in2="effect1_dropShadow_221_7147" result="shape"/>
</filter>
</defs>
</svg>
