<svg width="17" height="5" viewBox="0 0 17 5" fill="none" xmlns="http://www.w3.org/2000/svg">
<path d="M2.094 4.286C1.47 4.286 0.984667 4.104 0.638 3.74C0.308667 3.376 0.144 2.86467 0.144 2.206C0.144 1.59933 0.317333 1.10533 0.664 0.724C1.028 0.325333 1.50467 0.126 2.094 0.126C2.718 0.126 3.19467 0.308 3.524 0.672C3.87067 1.01867 4.044 1.53 4.044 2.206C4.044 2.81267 3.862 3.31533 3.498 3.714C3.15133 4.09533 2.68333 4.286 2.094 4.286ZM8.28931 4.286C7.66531 4.286 7.17998 4.104 6.83331 3.74C6.50398 3.376 6.33931 2.86467 6.33931 2.206C6.33931 1.59933 6.51265 1.10533 6.85931 0.724C7.22331 0.325333 7.69998 0.126 8.28931 0.126C8.91331 0.126 9.38998 0.308 9.71931 0.672C10.066 1.01867 10.2393 1.53 10.2393 2.206C10.2393 2.81267 10.0573 3.31533 9.69331 3.714C9.34665 4.09533 8.87865 4.286 8.28931 4.286ZM14.4846 4.286C13.8606 4.286 13.3753 4.104 13.0286 3.74C12.6993 3.376 12.5346 2.86467 12.5346 2.206C12.5346 1.59933 12.708 1.10533 13.0546 0.724C13.4186 0.325333 13.8953 0.126 14.4846 0.126C15.1086 0.126 15.5853 0.308 15.9146 0.672C16.2613 1.01867 16.4346 1.53 16.4346 2.206C16.4346 2.81267 16.2526 3.31533 15.8886 3.714C15.542 4.09533 15.074 4.286 14.4846 4.286Z" fill="#A0A0A0"/>
</svg>
