<svg width="24" height="24" viewBox="0 0 24 24" fill="none" xmlns="http://www.w3.org/2000/svg">
<rect width="24" height="24" fill="#F3F2F3"/>
<rect x="-2423" y="-2648" width="27085" height="9976" stroke="#262626" stroke-width="20"/>
<rect x="-14.5" y="-602.5" width="309" height="646" rx="9.5" fill="white" stroke="#EBEBEB"/>
<path d="M20.4664 3.52444C19.3667 2.4248 18.0858 1.56122 16.6591 0.957761C15.181 0.332659 13.6119 0.015625 11.9954 0.015625C10.3789 0.015625 8.80982 0.332659 7.33176 0.957802C5.90499 1.56126 4.62401 2.42484 3.52436 3.52448C2.42472 4.62413 1.56118 5.90511 0.957721 7.33184C0.332619 8.80987 0.015625 10.3789 0.015625 11.9954C0.015625 13.6119 0.332619 15.181 0.957761 16.6591C1.56122 18.0858 2.4248 19.3669 3.52444 20.4664C4.62409 21.5661 5.90507 22.4296 7.3318 23.0331C8.80987 23.6583 10.3789 23.9752 11.9954 23.9752C13.6119 23.9752 15.181 23.6583 16.6591 23.0331C18.0858 22.4297 19.3669 21.5661 20.4664 20.4664C21.5661 19.3668 22.4296 18.0858 23.0331 16.6591C23.6583 15.181 23.9752 13.6119 23.9752 11.9954C23.9752 10.3789 23.6583 8.80987 23.0331 7.3318C22.4296 5.90511 21.5661 4.62409 20.4664 3.52444ZM11.9954 22.2451C6.3347 22.2451 1.74574 17.6562 1.74574 11.9954C1.74574 6.3347 6.3347 1.74578 11.9954 1.74578C17.6561 1.74578 22.2451 6.33474 22.2451 11.9954C22.2451 17.6562 17.6561 22.2451 11.9954 22.2451Z" fill="#262626"/>
<path d="M12 24C10.3807 24 8.80898 23.6825 7.32853 23.0563C5.89942 22.4518 4.61626 21.5868 3.51476 20.4853C2.41325 19.3838 1.54822 18.1007 0.943752 16.6715C0.317519 15.1909 0 13.6192 0 12C0 10.3808 0.317519 8.80906 0.943752 7.32853C1.54822 5.89942 2.41321 4.6163 3.51472 3.51476C4.61622 2.41325 5.89938 1.54826 7.32853 0.943752C8.80914 0.317519 10.3808 0 12 0C13.6191 0 15.1908 0.317519 16.6714 0.943752C18.1005 1.54814 19.3836 2.41317 20.4852 3.51476C21.5866 4.61618 22.4517 5.8993 23.0562 7.32853C23.6824 8.80898 24 10.3807 24 12C24 13.6193 23.6824 15.191 23.0562 16.6715C22.4518 18.1007 21.5868 19.3838 20.4852 20.4853C19.3838 21.5868 18.1006 22.4518 16.6714 23.0563C15.191 23.6825 13.6193 24 12 24ZM12 0.0403865C10.3862 0.0403865 8.81981 0.356815 7.3442 0.980948C5.91985 1.58339 4.64101 2.44548 3.54323 3.54331C2.4454 4.64114 1.58335 5.91997 0.980907 7.34424C0.356815 8.81981 0.0403865 10.3862 0.0403865 12C0.0403865 13.6138 0.356815 15.1802 0.980948 16.6558C1.58339 18.0801 2.44548 19.3589 3.54331 20.4567C4.64114 21.5546 5.91997 22.4166 7.34429 23.019C8.81973 23.6431 10.3862 23.9596 12 23.9596C13.6139 23.9596 15.1803 23.6431 16.6558 23.019C18.0801 22.4166 19.359 21.5545 20.4567 20.4567C21.5546 19.3589 22.4166 18.0801 23.0191 16.6558C23.6432 15.1803 23.9596 13.6139 23.9596 12C23.9596 10.3861 23.6432 8.81968 23.0191 7.34424C22.4165 5.91981 21.5544 4.64097 20.4567 3.54327C19.3588 2.44536 18.08 1.58327 16.6558 0.980907C15.1801 0.356815 13.6137 0.0403865 12 0.0403865ZM12 22.2698C9.25679 22.2698 6.67783 21.2016 4.7381 19.2619C2.79838 17.3222 1.73012 14.7432 1.73012 12C1.73012 9.25683 2.79838 6.67787 4.7381 4.7381C6.67783 2.79842 9.25683 1.73016 12 1.73016C14.7431 1.73016 17.3221 2.79842 19.2618 4.73814C21.2015 6.67787 22.2698 9.25683 22.2698 12C22.2698 14.7432 21.2015 17.3221 19.2618 19.2619C17.3221 21.2017 14.7431 22.2698 12 22.2698ZM12 1.77054C9.26757 1.77054 6.69875 2.83461 4.76666 4.7667C2.83457 6.69879 1.7705 9.26765 1.7705 12C1.7705 14.7324 2.83457 17.3013 4.76666 19.2334C6.69875 21.1655 9.26757 22.2295 12 22.2295C14.7323 22.2295 17.3012 21.1655 19.2333 19.2334C21.1654 17.3013 22.2295 14.7325 22.2295 12C22.2295 9.26765 21.1654 6.69883 19.2333 4.76674C17.3012 2.83461 14.7323 1.77054 12 1.77054Z" fill="#262626"/>
<path d="M13.473 11.1409C13.1323 11.1409 12.8552 10.8637 12.8552 10.523V7.08383C12.8552 6.60606 12.4679 6.21875 11.9901 6.21875C11.5123 6.21875 11.125 6.60606 11.125 7.08383V10.523C11.125 11.8177 12.1783 12.8711 13.473 12.8711H18.6961C19.1739 12.8711 19.5612 12.4837 19.5612 12.006C19.5612 11.5282 19.1739 11.1409 18.6961 11.1409H13.473Z" fill="#262626"/>
<path d="M18.7007 12.888H13.4776C12.1717 12.888 11.1094 11.8256 11.1094 10.5197V7.08059C11.1094 6.59243 11.5065 6.19531 11.9946 6.19531C12.4828 6.19531 12.8799 6.59243 12.8799 7.08059V10.5197C12.8799 10.8493 13.148 11.1175 13.4776 11.1175H18.7007C19.1889 11.1175 19.586 11.5146 19.586 12.0027C19.586 12.4909 19.1889 12.888 18.7007 12.888ZM11.9946 6.2357C11.5287 6.2357 11.1497 6.61473 11.1497 7.08059V10.5197C11.1497 11.8033 12.194 12.8476 13.4776 12.8476H18.7007C19.1665 12.8476 19.5455 12.4686 19.5455 12.0027C19.5455 11.5369 19.1665 11.1578 18.7007 11.1578H13.4776C13.1258 11.1578 12.8395 10.8716 12.8395 10.5197V7.08059C12.8395 6.61473 12.4605 6.2357 11.9946 6.2357Z" fill="#262626"/>
<rect x="-14.5" y="-602.5" width="309" height="475" rx="9.5" stroke="#EBEBEB"/>
</svg>
