<svg width="1334" height="885" viewBox="0 0 1334 885" fill="none" xmlns="http://www.w3.org/2000/svg">
<g filter="url(#filter0_d_6002_254585)">
<rect x="17" y="10" width="1300" height="851" rx="10" fill="white"/>
<rect x="17.5" y="10.5" width="1299" height="850" rx="9.5" stroke="#EBEBEB"/>
</g>
<rect x="88" y="371" width="217" height="40" rx="20" fill="#F5F5F5"/>
<rect x="88" y="426" width="492" height="40" rx="20" fill="#F5F5F5"/>
<path d="M17 20C17 14.4772 21.4772 10 27 10L1307 10C1312.52 10 1317 14.4772 1317 20V341L17 341L17 20Z" fill="#F5F5F5"/>
<rect x="88" y="496" width="350" height="250" rx="8" fill="#F5F5F5"/>
<rect x="377" y="128" width="580" height="40" rx="20" fill="#E7EEF9"/>
<rect x="521" y="183" width="292" height="40" rx="20" fill="#E7EEF9"/>
<rect x="888" y="496" width="350" height="250" rx="8" fill="#F5F5F5"/>
<rect x="488" y="496" width="350" height="250" rx="8" fill="#F5F5F5"/>
<defs>
<filter id="filter0_d_6002_254585" x="0" y="0" width="1334" height="885" filterUnits="userSpaceOnUse" color-interpolation-filters="sRGB">
<feFlood flood-opacity="0" result="BackgroundImageFix"/>
<feColorMatrix in="SourceAlpha" type="matrix" values="0 0 0 0 0 0 0 0 0 0 0 0 0 0 0 0 0 0 127 0" result="hardAlpha"/>
<feMorphology radius="3" operator="dilate" in="SourceAlpha" result="effect1_dropShadow_6002_254585"/>
<feOffset dy="7"/>
<feGaussianBlur stdDeviation="7"/>
<feComposite in2="hardAlpha" operator="out"/>
<feColorMatrix type="matrix" values="0 0 0 0 0 0 0 0 0 0 0 0 0 0 0 0 0 0 0.03 0"/>
<feBlend mode="normal" in2="BackgroundImageFix" result="effect1_dropShadow_6002_254585"/>
<feBlend mode="normal" in="SourceGraphic" in2="effect1_dropShadow_6002_254585" result="shape"/>
</filter>
</defs>
</svg>
