<svg width="26" height="26" viewBox="0 0 26 26" fill="none" xmlns="http://www.w3.org/2000/svg">
<path d="M22.75 6.47819C19.1425 6.12069 15.5133 5.93652 11.895 5.93652C9.75 5.93652 7.605 6.04486 5.46 6.26152L3.25 6.47819" stroke="#262626" stroke-width="1.5" stroke-linecap="round" stroke-linejoin="round"/>
<path d="M9.20703 5.384L9.44536 3.96484C9.6187 2.93567 9.7487 2.1665 11.5795 2.1665H14.4179C16.2487 2.1665 16.3895 2.979 16.552 3.97567L16.7904 5.384" stroke="#262626" stroke-width="1.5" stroke-linecap="round" stroke-linejoin="round"/>
<path d="M20.4198 9.90186L19.7156 20.811C19.5965 22.5119 19.499 23.8335 16.4765 23.8335H9.52146C6.49896 23.8335 6.40146 22.5119 6.28229 20.811L5.57812 9.90186" stroke="#262626" stroke-width="1.5" stroke-linecap="round" stroke-linejoin="round"/>
<path d="M11.1914 17.875H14.7989" stroke="#262626" stroke-width="1.5" stroke-linecap="round" stroke-linejoin="round"/>
<path d="M10.293 13.5415H15.7096" stroke="#262626" stroke-width="1.5" stroke-linecap="round" stroke-linejoin="round"/>
</svg>
