<svg width="40" height="40" viewBox="0 0 40 40" fill="none" xmlns="http://www.w3.org/2000/svg">
<rect width="40" height="40" rx="8" fill="#E7EEF9"/>
<path d="M29.75 13.4783C26.1425 13.1208 22.5133 12.9366 18.895 12.9366C16.75 12.9366 14.605 13.045 12.46 13.2616L10.25 13.4783" stroke="#3A37A6" stroke-width="1.5" stroke-linecap="round" stroke-linejoin="round"/>
<path d="M16.2109 12.3841L16.4493 10.965C16.6226 9.93579 16.7526 9.16663 18.5834 9.16663H21.4218C23.2526 9.16663 23.3934 9.97913 23.5559 10.9758L23.7943 12.3841" stroke="#3A37A6" stroke-width="1.5" stroke-linecap="round" stroke-linejoin="round"/>
<path d="M27.4198 16.9016L26.7156 27.8108C26.5965 29.5116 26.499 30.8333 23.4765 30.8333H16.5215C13.499 30.8333 13.4015 29.5116 13.2823 27.8108L12.5781 16.9016" stroke="#3A37A6" stroke-width="1.5" stroke-linecap="round" stroke-linejoin="round"/>
<path d="M18.1875 24.875H21.795" stroke="#3A37A6" stroke-width="1.5" stroke-linecap="round" stroke-linejoin="round"/>
<path d="M17.2891 20.5416H22.7057" stroke="#3A37A6" stroke-width="1.5" stroke-linecap="round" stroke-linejoin="round"/>
</svg>
