<svg width="40" height="40" viewBox="0 0 40 40" fill="none" xmlns="http://www.w3.org/2000/svg">
<rect width="40" height="40" rx="8" fill="#E7EEF9"/>
<path d="M26.5 18.6458C26.0558 18.6458 25.6875 18.2775 25.6875 17.8333V15.6666C25.6875 12.2541 24.7233 9.97913 20 9.97913C15.2767 9.97913 14.3125 12.2541 14.3125 15.6666V17.8333C14.3125 18.2775 13.9442 18.6458 13.5 18.6458C13.0558 18.6458 12.6875 18.2775 12.6875 17.8333V15.6666C12.6875 12.525 13.4458 8.35413 20 8.35413C26.5542 8.35413 27.3125 12.525 27.3125 15.6666V17.8333C27.3125 18.2775 26.9442 18.6458 26.5 18.6458Z" fill="#3A37A6"/>
<path d="M19.9974 27.8542C18.0582 27.8542 16.4766 26.2725 16.4766 24.3333C16.4766 22.3942 18.0582 20.8125 19.9974 20.8125C21.9366 20.8125 23.5182 22.3942 23.5182 24.3333C23.5182 26.2725 21.9366 27.8542 19.9974 27.8542ZM19.9974 22.4375C18.9574 22.4375 18.1016 23.2933 18.1016 24.3333C18.1016 25.3733 18.9574 26.2292 19.9974 26.2292C21.0374 26.2292 21.8932 25.3733 21.8932 24.3333C21.8932 23.2933 21.0374 22.4375 19.9974 22.4375Z" fill="#3A37A6"/>
<path d="M25.4141 31.6459H14.5807C9.80323 31.6459 8.35156 30.1942 8.35156 25.4167V23.25C8.35156 18.4725 9.80323 17.0209 14.5807 17.0209H25.4141C30.1916 17.0209 31.6432 18.4725 31.6432 23.25V25.4167C31.6432 30.1942 30.1916 31.6459 25.4141 31.6459ZM14.5807 18.6459C10.7024 18.6459 9.97656 19.3825 9.97656 23.25V25.4167C9.97656 29.2842 10.7024 30.0209 14.5807 30.0209H25.4141C29.2924 30.0209 30.0182 29.2842 30.0182 25.4167V23.25C30.0182 19.3825 29.2924 18.6459 25.4141 18.6459H14.5807Z" fill="#3A37A6"/>
</svg>
