<svg width="40" height="40" viewBox="0 0 40 40" fill="none" xmlns="http://www.w3.org/2000/svg">
<rect width="40" height="40" rx="8" fill="#E7EEF9"/>
<path fill-rule="evenodd" clip-rule="evenodd" d="M30.8359 20.7493C30.8359 18.0995 28.6801 15.9437 26.0303 15.9437H25.0206C24.5721 15.9437 24.2081 16.3077 24.2081 16.7562C24.2081 17.2047 24.5721 17.5687 25.0206 17.5687H26.0303C27.7853 17.5687 29.2109 18.9954 29.2109 20.7493V26.0306C29.2109 27.7823 27.7853 29.208 26.0303 29.208H13.9739C12.2199 29.208 10.7943 27.7823 10.7943 26.0306V20.7374C10.7943 18.9911 12.2156 17.5687 13.9619 17.5687H14.9835C15.432 17.5687 15.796 17.2047 15.796 16.7562C15.796 16.3077 15.432 15.9437 14.9835 15.9437H13.9619C11.3186 15.9437 9.16927 18.0952 9.16927 20.7374V26.0306C9.16927 28.6783 11.324 30.833 13.9739 30.833H26.0303C28.6801 30.833 30.8359 28.6783 30.8359 26.0306V20.7493ZM23.7358 11.9959L20.5779 8.8239C20.5498 8.7956 20.5206 8.77026 20.4897 8.74707L20.5779 8.8239C20.54 8.78551 20.4987 8.75138 20.4546 8.72177C20.4346 8.70873 20.4139 8.69616 20.3927 8.68451C20.3761 8.67505 20.3588 8.66635 20.3412 8.65828C20.3256 8.65144 20.3101 8.64487 20.2943 8.63879C20.2737 8.63062 20.2525 8.62347 20.2311 8.6172C20.2142 8.61247 20.1973 8.60813 20.1803 8.60432C20.1596 8.59948 20.1388 8.59567 20.1178 8.59267C20.1041 8.59097 20.0898 8.58931 20.0754 8.58803C20.0507 8.58555 20.0267 8.58448 20.0026 8.58448L19.9354 8.59001L19.8924 8.59223C19.8906 8.59248 19.8887 8.59273 19.8869 8.59299L20.0026 8.58448C19.9425 8.58448 19.8829 8.59114 19.825 8.60408C19.8079 8.60813 19.791 8.61247 19.7744 8.61733C19.7527 8.62347 19.7315 8.63062 19.7107 8.63863C19.6951 8.64487 19.6796 8.65144 19.6643 8.65847C19.6464 8.66635 19.6291 8.67505 19.6121 8.68437C19.5913 8.69616 19.5706 8.70873 19.5506 8.72217C19.5387 8.72978 19.527 8.73812 19.5155 8.74678C19.4815 8.77258 19.4496 8.80068 19.4201 8.8311L16.2684 11.9959C16.1102 12.1541 16.0311 12.3621 16.0311 12.569C16.0311 12.777 16.1102 12.9861 16.2705 13.1442C16.589 13.4606 17.1025 13.4595 17.4189 13.1421L19.1901 11.3655V22.4417C19.1901 22.8902 19.5541 23.2542 20.0026 23.2542C20.4511 23.2542 20.8151 22.8902 20.8151 22.4417V11.3633L22.5853 13.1421C22.9016 13.4595 23.4151 13.4616 23.7336 13.1442C24.0521 12.8279 24.0521 12.3144 23.7358 11.9959Z" fill="#3A37A6"/>
</svg>
