<svg width="18" height="18" viewBox="0 0 18 18" fill="none" xmlns="http://www.w3.org/2000/svg">
<path d="M11.6825 9.00043C11.6825 10.4854 10.4825 11.6854 8.9975 11.6854C7.5125 11.6854 6.3125 10.4854 6.3125 9.00043C6.3125 7.51543 7.5125 6.31543 8.9975 6.31543C10.4825 6.31543 11.6825 7.51543 11.6825 9.00043Z" stroke="#3A37A6" stroke-linecap="round" stroke-linejoin="round"/>
<path d="M9.00281 15.2025C11.6503 15.2025 14.1178 13.6425 15.8353 10.9425C16.5103 9.88504 16.5103 8.10754 15.8353 7.05004C14.1178 4.35004 11.6503 2.79004 9.00281 2.79004C6.35531 2.79004 3.88781 4.35004 2.17031 7.05004C1.49531 8.10754 1.49531 9.88504 2.17031 10.9425C3.88781 13.6425 6.35531 15.2025 9.00281 15.2025Z" stroke="#3A37A6" stroke-linecap="round" stroke-linejoin="round"/>
</svg>
