<svg width="26" height="26" viewBox="0 0 26 26" fill="none" xmlns="http://www.w3.org/2000/svg">
<path d="M13.5716 22.1217H6.7249C3.30156 22.1217 2.16406 19.8467 2.16406 17.5609V8.43919C2.16406 5.01586 3.30156 3.87836 6.7249 3.87836H13.5716C16.9949 3.87836 18.1324 5.01586 18.1324 8.43919V17.5609C18.1324 20.9842 16.9841 22.1217 13.5716 22.1217Z" stroke="#3A37A6" stroke-width="1.5" stroke-linecap="round" stroke-linejoin="round"/>
<path d="M21.1445 18.525L18.1328 16.4125V9.57669L21.1445 7.46419C22.6178 6.43502 23.8311 7.06335 23.8311 8.87252V17.1275C23.8311 18.9367 22.6178 19.565 21.1445 18.525Z" stroke="#3A37A6" stroke-width="1.5" stroke-linecap="round" stroke-linejoin="round"/>
<path d="M12.4609 11.9167C13.3584 11.9167 14.0859 11.1891 14.0859 10.2917C14.0859 9.39422 13.3584 8.66669 12.4609 8.66669C11.5635 8.66669 10.8359 9.39422 10.8359 10.2917C10.8359 11.1891 11.5635 11.9167 12.4609 11.9167Z" stroke="#3A37A6" stroke-width="1.5" stroke-linecap="round" stroke-linejoin="round"/>
</svg>
