<svg width="30" height="30" viewBox="0 0 30 30" fill="none" xmlns="http://www.w3.org/2000/svg">
<rect width="30" height="30" rx="8" fill="#E7EEF9"/>
<path d="M12.6654 19.6668H12.332C9.66536 19.6668 8.33203 19.0002 8.33203 15.6668V12.3335C8.33203 9.66683 9.66536 8.3335 12.332 8.3335H17.6654C20.332 8.3335 21.6654 9.66683 21.6654 12.3335V15.6668C21.6654 18.3335 20.332 19.6668 17.6654 19.6668H17.332C17.1254 19.6668 16.9254 19.7668 16.7987 19.9335L15.7987 21.2668C15.3587 21.8535 14.6387 21.8535 14.1987 21.2668L13.1987 19.9335C13.092 19.7868 12.8454 19.6668 12.6654 19.6668Z" stroke="#3A37A6" stroke-miterlimit="10" stroke-linecap="round" stroke-linejoin="round"/>
<path d="M17.6656 14.3333H17.6716" stroke="#3A37A6" stroke-width="1.5" stroke-linecap="round" stroke-linejoin="round"/>
<path d="M14.9976 14.3333H15.0036" stroke="#3A37A6" stroke-width="1.5" stroke-linecap="round" stroke-linejoin="round"/>
<path d="M12.3297 14.3333H12.3357" stroke="#3A37A6" stroke-width="1.5" stroke-linecap="round" stroke-linejoin="round"/>
</svg>
