<svg width="18" height="18" viewBox="0 0 18 18" fill="none" xmlns="http://www.w3.org/2000/svg">
<path d="M16.5 5.57227V10.0723C16.5 11.1973 16.125 12.1348 15.465 12.7948C14.8125 13.4473 13.875 13.8223 12.75 13.8223V15.4198C12.75 16.0198 12.0825 16.3798 11.5875 16.0498L8.25 13.8223H6.66C6.72 13.5973 6.75 13.3648 6.75 13.1248C6.75 12.3598 6.4575 11.6548 5.9775 11.1223C5.4375 10.5073 4.635 10.1248 3.75 10.1248C2.91 10.1248 2.145 10.4698 1.5975 11.0323C1.53 10.7323 1.5 10.4098 1.5 10.0723V5.57227C1.5 3.32227 3 1.82227 5.25 1.82227H12.75C15 1.82227 16.5 3.32227 16.5 5.57227Z" stroke="#3A37A6" stroke-miterlimit="10" stroke-linecap="round" stroke-linejoin="round"/>
<path d="M6.75 13.125C6.75 13.365 6.72 13.5975 6.66 13.8225C6.5925 14.1225 6.47251 14.415 6.31501 14.67C5.79751 15.54 4.845 16.125 3.75 16.125C2.9775 16.125 2.28 15.8325 1.755 15.3525C1.53 15.1575 1.33499 14.925 1.18499 14.67C0.90749 14.22 0.75 13.6875 0.75 13.125C0.75 12.315 1.0725 11.5725 1.5975 11.0325C2.145 10.47 2.91 10.125 3.75 10.125C4.635 10.125 5.4375 10.5075 5.9775 11.1225C6.4575 11.655 6.75 12.36 6.75 13.125Z" stroke="#3A37A6" stroke-miterlimit="10" stroke-linecap="round" stroke-linejoin="round"/>
<path d="M4.55093 13.9048L2.96094 12.3223" stroke="#3A37A6" stroke-miterlimit="10" stroke-linecap="round" stroke-linejoin="round"/>
<path d="M4.53531 12.3447L2.94531 13.9272" stroke="#3A37A6" stroke-miterlimit="10" stroke-linecap="round" stroke-linejoin="round"/>
<path d="M6.375 7.875H11.625" stroke="#3A37A6" stroke-miterlimit="10" stroke-linecap="round" stroke-linejoin="round"/>
</svg>
