<svg width="26" height="26" viewBox="0 0 26 26" fill="none" xmlns="http://www.w3.org/2000/svg">
<path d="M13.5716 22.1216H6.7249C3.30156 22.1216 2.16406 19.8466 2.16406 17.5608V8.43913C2.16406 5.0158 3.30156 3.8783 6.7249 3.8783H13.5716C16.9949 3.8783 18.1324 5.0158 18.1324 8.43913V17.5608C18.1324 20.9841 16.9841 22.1216 13.5716 22.1216Z" stroke="#A0A0A0" stroke-width="1.5" stroke-linecap="round" stroke-linejoin="round"/>
<path d="M21.1445 18.525L18.1328 16.4125V9.57669L21.1445 7.46419C22.6178 6.43502 23.8311 7.06335 23.8311 8.87252V17.1275C23.8311 18.9367 22.6178 19.565 21.1445 18.525Z" stroke="#A0A0A0" stroke-width="1.5" stroke-linecap="round" stroke-linejoin="round"/>
<path d="M12.4609 11.9166C13.3584 11.9166 14.0859 11.1891 14.0859 10.2916C14.0859 9.39416 13.3584 8.66663 12.4609 8.66663C11.5635 8.66663 10.8359 9.39416 10.8359 10.2916C10.8359 11.1891 11.5635 11.9166 12.4609 11.9166Z" stroke="#A0A0A0" stroke-width="1.5" stroke-linecap="round" stroke-linejoin="round"/>
</svg>
