<svg width="18" height="12" viewBox="0 0 18 12" fill="none" xmlns="http://www.w3.org/2000/svg">
<path d="M7.1292 0.604821C7.03252 0.617754 6.94124 0.656678 6.8649 0.717322L1.10486 5.21735C0.974527 5.31968 0.898438 5.47626 0.898438 5.642C0.898438 5.80774 0.974527 5.9643 1.10486 6.06677L6.8649 10.5668H6.86502C6.9715 10.6498 7.10534 10.6898 7.23994 10.679C7.37454 10.6683 7.50022 10.6075 7.59226 10.5085C7.68417 10.4097 7.73577 10.2799 7.7369 10.1449V8.35058C8.95445 8.36213 13.1421 8.59379 16.2027 11.2699C16.3224 11.3727 16.4811 11.4179 16.6371 11.3937C16.7929 11.3696 16.9305 11.2785 17.0136 11.1444C17.0966 11.0103 17.1168 10.8464 17.069 10.6962C15.5568 6.03701 11.0116 3.97471 7.73721 3.07985V1.14487C7.73834 0.989172 7.6723 0.840511 7.55591 0.737036C7.43951 0.633574 7.2842 0.585359 7.12963 0.604821H7.1292ZM6.65673 2.2474V3.48491C6.65673 3.60469 6.69641 3.72108 6.76973 3.81575C6.84305 3.91043 6.94577 3.9781 7.06178 4.00799C9.70767 4.67785 13.294 6.17752 15.1843 9.22802C11.5679 7.1033 7.51178 7.24872 7.16849 7.26492C7.03025 7.2722 6.89992 7.33222 6.80476 7.43279C6.70947 7.53324 6.65648 7.66645 6.6566 7.80494V9.03679L2.31407 5.64506L6.65673 2.2474Z" fill="#3A37A6"/>
</svg>
