<svg width="40" height="40" viewBox="0 0 40 40" fill="none" xmlns="http://www.w3.org/2000/svg">
<path d="M20.882 34.0333H10.3487C5.08203 34.0333 3.33203 30.5333 3.33203 27.0167V12.9833C3.33203 7.71667 5.08203 5.96667 10.3487 5.96667H20.882C26.1487 5.96667 27.8987 7.71667 27.8987 12.9833V27.0167C27.8987 32.2833 26.132 34.0333 20.882 34.0333Z" stroke="white" stroke-width="1.5" stroke-linecap="round" stroke-linejoin="round"/>
<path d="M32.5318 28.5L27.8984 25.25V14.7333L32.5318 11.4833C34.7984 9.89998 36.6651 10.8666 36.6651 13.65V26.35C36.6651 29.1333 34.7984 30.1 32.5318 28.5Z" stroke="white" stroke-width="1.5" stroke-linecap="round" stroke-linejoin="round"/>
<path d="M19.168 18.3334C20.5487 18.3334 21.668 17.2141 21.668 15.8334C21.668 14.4527 20.5487 13.3334 19.168 13.3334C17.7873 13.3334 16.668 14.4527 16.668 15.8334C16.668 17.2141 17.7873 18.3334 19.168 18.3334Z" stroke="white" stroke-width="1.5" stroke-linecap="round" stroke-linejoin="round"/>
</svg>
