<svg width="104" height="100" viewBox="0 0 104 100" fill="none" xmlns="http://www.w3.org/2000/svg">
<g clip-path="url(#clip0_1066_32)">
<path d="M102 50C102 22.3858 79.6142 0 52 0C24.3858 0 2 22.3858 2 50C2 77.6142 24.3858 100 52 100C79.6142 100 102 77.6142 102 50Z" fill="#E7EEF9"/>
<path d="M45.3125 70.125H57.6875C68 70.125 72.125 66 72.125 55.6875V43.3125C72.125 33 68 28.875 57.6875 28.875H45.3125C35 28.875 30.875 33 30.875 43.3125V55.6875C30.875 66 35 70.125 45.3125 70.125Z" fill="#3A37A6"/>
</g>
<defs>
<clipPath id="clip0_1066_32">
<rect width="104" height="100" fill="white"/>
</clipPath>
</defs>
</svg>
