<svg width="40" height="40" viewBox="0 0 40 40" fill="none" xmlns="http://www.w3.org/2000/svg">
<rect width="40" height="40" rx="8" fill="#E7EEF9"/>
<path d="M25 21.4V24.4C25 28.4 23.4 30 19.4 30H15.6C11.6 30 10 28.4 10 24.4V20.6C10 16.6 11.6 15 15.6 15H18.6" stroke="#3A37A6" stroke-width="1.5" stroke-linecap="round" stroke-linejoin="round"/>
<path d="M25.0016 21.4H21.8016C19.4016 21.4 18.6016 20.6 18.6016 18.2V15L25.0016 21.4Z" stroke="#3A37A6" stroke-width="1.5" stroke-linecap="round" stroke-linejoin="round"/>
<path d="M19.6016 10H23.6016" stroke="#3A37A6" stroke-width="1.5" stroke-linecap="round" stroke-linejoin="round"/>
<path d="M15 13C15 11.34 16.34 10 18 10H20.62" stroke="#3A37A6" stroke-width="1.5" stroke-linecap="round" stroke-linejoin="round"/>
<path d="M30.0014 16V22.19C30.0014 23.74 28.7414 25 27.1914 25" stroke="#3A37A6" stroke-width="1.5" stroke-linecap="round" stroke-linejoin="round"/>
<path d="M30 16H27C24.75 16 24 15.25 24 13V10L30 16Z" stroke="#3A37A6" stroke-width="1.5" stroke-linecap="round" stroke-linejoin="round"/>
</svg>
