<svg width="18" height="18" viewBox="0 0 18 18" fill="none" xmlns="http://www.w3.org/2000/svg">
<path d="M13.9663 13.8969C13.9323 13.8938 13.8914 13.8938 13.8539 13.8969C13.0426 13.8719 12.3984 13.2625 12.3984 12.5125C12.3984 11.7469 13.0733 11.125 13.9118 11.125C14.7469 11.125 15.4252 11.7469 15.4252 12.5125C15.4218 13.2625 14.7776 13.8719 13.9663 13.8969Z" stroke="#3A37A6" stroke-linecap="round" stroke-linejoin="round"/>
<path d="M12.2593 15.05C11.4344 15.5563 11.4344 16.3812 12.2593 16.8844C13.1966 17.4594 14.7338 17.4594 15.6712 16.8844C16.496 16.3781 16.496 15.5531 15.6712 15.05C14.7372 14.4781 13.2 14.4781 12.2593 15.05Z" stroke="#3A37A6" stroke-linecap="round" stroke-linejoin="round"/>
<path d="M13.9663 3.39688C13.9323 3.39375 13.8914 3.39375 13.8539 3.39688C13.0426 3.37188 12.3984 2.7625 12.3984 2.0125C12.3984 1.24688 13.0733 0.625 13.9118 0.625C14.7469 0.625 15.4252 1.24688 15.4252 2.0125C15.4218 2.7625 14.7776 3.37188 13.9663 3.39688Z" stroke="#3A37A6" stroke-linecap="round" stroke-linejoin="round"/>
<path d="M12.2593 4.55C11.4344 5.05625 11.4344 5.88125 12.2593 6.38437C13.1966 6.95937 14.7338 6.95937 15.6712 6.38437C16.496 5.87812 16.496 5.05313 15.6712 4.55C14.7372 3.97813 13.2 3.97813 12.2593 4.55Z" stroke="#3A37A6" stroke-linecap="round" stroke-linejoin="round"/>
<path d="M4.14603 8.64688C4.11194 8.64375 4.07104 8.64375 4.03355 8.64688C3.22233 8.62188 2.57812 8.0125 2.57812 7.2625C2.57812 6.49688 3.25301 5.875 4.09149 5.875C4.92657 5.875 5.60486 6.49688 5.60486 7.2625C5.60145 8.0125 4.95725 8.62188 4.14603 8.64688Z" stroke="#3A37A6" stroke-linecap="round" stroke-linejoin="round"/>
<path d="M2.43895 9.8C1.6141 10.3063 1.6141 11.1312 2.43895 11.6344C3.37629 12.2094 4.91351 12.2094 5.85085 11.6344C6.6757 11.1281 6.6757 10.3031 5.85085 9.8C4.91692 9.22813 3.37969 9.22813 2.43895 9.8Z" stroke="#3A37A6" stroke-linecap="round" stroke-linejoin="round"/>
<path d="M11.4531 3.75L8.64843 3.75V4.08291V9.24298M11.4531 14.4031H8.64843V9.24298M8.64843 9.24298H6.54491" stroke="#3A37A6"/>
</svg>
