<svg width="40" height="40" viewBox="0 0 40 40" fill="none" xmlns="http://www.w3.org/2000/svg">
<rect width="40" height="40" rx="8" fill="#E7EEF9"/>
<path d="M12.418 17.8332H14.5846C16.7513 17.8332 17.8346 16.7498 17.8346 14.5832V12.4165C17.8346 10.2498 16.7513 9.1665 14.5846 9.1665H12.418C10.2513 9.1665 9.16797 10.2498 9.16797 12.4165V14.5832C9.16797 16.7498 10.2513 17.8332 12.418 17.8332Z" stroke="#3A37A6" stroke-width="1.5" stroke-miterlimit="10" stroke-linecap="round" stroke-linejoin="round"/>
<path d="M25.418 17.8332H27.5846C29.7513 17.8332 30.8346 16.7498 30.8346 14.5832V12.4165C30.8346 10.2498 29.7513 9.1665 27.5846 9.1665H25.418C23.2513 9.1665 22.168 10.2498 22.168 12.4165V14.5832C22.168 16.7498 23.2513 17.8332 25.418 17.8332Z" stroke="#3A37A6" stroke-width="1.5" stroke-miterlimit="10" stroke-linecap="round" stroke-linejoin="round"/>
<path d="M25.418 30.8332H27.5846C29.7513 30.8332 30.8346 29.7498 30.8346 27.5832V25.4165C30.8346 23.2498 29.7513 22.1665 27.5846 22.1665H25.418C23.2513 22.1665 22.168 23.2498 22.168 25.4165V27.5832C22.168 29.7498 23.2513 30.8332 25.418 30.8332Z" stroke="#3A37A6" stroke-width="1.5" stroke-miterlimit="10" stroke-linecap="round" stroke-linejoin="round"/>
<path d="M12.418 30.8332H14.5846C16.7513 30.8332 17.8346 29.7498 17.8346 27.5832V25.4165C17.8346 23.2498 16.7513 22.1665 14.5846 22.1665H12.418C10.2513 22.1665 9.16797 23.2498 9.16797 25.4165V27.5832C9.16797 29.7498 10.2513 30.8332 12.418 30.8332Z" stroke="#3A37A6" stroke-width="1.5" stroke-miterlimit="10" stroke-linecap="round" stroke-linejoin="round"/>
</svg>
